<?xml version="1.0" standalone="no"?>
 <!DOCTYPE svg PUBLIC "-//W3C//DTD SVG 1.1//EN" 
 "http://www.w3.org/Graphics/SVG/1.1/DTD/svg11.dtd"> 
<svg
  xmlns:svg="http://www.w3.org/2000/svg"
  xmlns="http://www.w3.org/2000/svg"
  xmlns:xlink="http://www.w3.org/1999/xlink"
  version="1.1"
  width="41.998900cm" height="29.700220cm" viewBox="0 0 419989000 297002200">
<title>SVG Picture created as orthoCode-Edge_Cuts.svg date 2023/02/08 22:19:03 </title>
  <desc>Picture generated by PCBNEW </desc>
<g style="fill:#000000; fill-opacity:1.000000;stroke:#000000; stroke-opacity:1.000000;
stroke-linecap:round; stroke-linejoin:round;"
 transform="translate(0 0) scale(1 1)">
</g>
<g style="fill:#000000; fill-opacity:0.0; 
stroke:#000000; stroke-width:0.000000; stroke-opacity:1; 
stroke-linecap:round; stroke-linejoin:round;">
</g>
<g style="fill:#000000; fill-opacity:0.0; 
stroke:#000000; stroke-width:21200.000000; stroke-opacity:1; 
stroke-linecap:round; stroke-linejoin:round;">
</g>
<g style="fill:#000000; fill-opacity:0.0; 
stroke:#000000; stroke-width:150000.000000; stroke-opacity:1; 
stroke-linecap:round; stroke-linejoin:round;">
<rect x="299989000.000000" y="253002200.000000" width="108000000.000000" height="32000000.000000" rx="0.000000" />
</g>
<g style="fill:#000000; fill-opacity:0.0; 
stroke:#000000; stroke-width:21200.000000; stroke-opacity:1; 
stroke-linecap:round; stroke-linejoin:round;">
</g>
<g style="fill:#000000; fill-opacity:0.0; 
stroke:#000000; stroke-width:150000.000000; stroke-opacity:1; 
stroke-linecap:round; stroke-linejoin:round;">
<rect x="10000000.000000" y="10000000.000000" width="399989000.000000" height="277002200.000000" rx="0.000000" />
</g>
<g style="fill:#000000; fill-opacity:0.0; 
stroke:#000000; stroke-width:21200.000000; stroke-opacity:1; 
stroke-linecap:round; stroke-linejoin:round;">
</g>
<g style="fill:#000000; fill-opacity:0.0; 
stroke:#000000; stroke-width:150000.000000; stroke-opacity:1; 
stroke-linecap:round; stroke-linejoin:round;">
<rect x="12000000.000000" y="12000000.000000" width="395989000.000000" height="273002200.000000" rx="0.000000" />
</g>
<g style="fill:#000000; fill-opacity:0.0; 
stroke:#000000; stroke-width:21200.000000; stroke-opacity:1; 
stroke-linecap:round; stroke-linejoin:round;">
</g>
<g style="fill:#000000; fill-opacity:0.0; 
stroke:#000000; stroke-width:150000.000000; stroke-opacity:1; 
stroke-linecap:round; stroke-linejoin:round;">
<path d="M60000000 12000000
L60000000 10000000
" />
</g>
<g style="fill:#000000; fill-opacity:0.0; 
stroke:#000000; stroke-width:21200.000000; stroke-opacity:1; 
stroke-linecap:round; stroke-linejoin:round;">
</g>
<g style="fill:#000000; fill-opacity:0.0; 
stroke:#000000; stroke-width:150000.000000; stroke-opacity:1; 
stroke-linecap:round; stroke-linejoin:round;">
<path d="M110000000 12000000
L110000000 10000000
" />
</g>
<g style="fill:#000000; fill-opacity:0.0; 
stroke:#000000; stroke-width:21200.000000; stroke-opacity:1; 
stroke-linecap:round; stroke-linejoin:round;">
</g>
<g style="fill:#000000; fill-opacity:0.0; 
stroke:#000000; stroke-width:150000.000000; stroke-opacity:1; 
stroke-linecap:round; stroke-linejoin:round;">
<path d="M160000000 12000000
L160000000 10000000
" />
</g>
<g style="fill:#000000; fill-opacity:0.0; 
stroke:#000000; stroke-width:21200.000000; stroke-opacity:1; 
stroke-linecap:round; stroke-linejoin:round;">
</g>
<g style="fill:#000000; fill-opacity:0.0; 
stroke:#000000; stroke-width:150000.000000; stroke-opacity:1; 
stroke-linecap:round; stroke-linejoin:round;">
<path d="M210000000 12000000
L210000000 10000000
" />
</g>
<g style="fill:#000000; fill-opacity:0.0; 
stroke:#000000; stroke-width:21200.000000; stroke-opacity:1; 
stroke-linecap:round; stroke-linejoin:round;">
</g>
<g style="fill:#000000; fill-opacity:0.0; 
stroke:#000000; stroke-width:150000.000000; stroke-opacity:1; 
stroke-linecap:round; stroke-linejoin:round;">
<path d="M260000000 12000000
L260000000 10000000
" />
</g>
<g style="fill:#000000; fill-opacity:0.0; 
stroke:#000000; stroke-width:21200.000000; stroke-opacity:1; 
stroke-linecap:round; stroke-linejoin:round;">
</g>
<g style="fill:#000000; fill-opacity:0.0; 
stroke:#000000; stroke-width:150000.000000; stroke-opacity:1; 
stroke-linecap:round; stroke-linejoin:round;">
<path d="M310000000 12000000
L310000000 10000000
" />
</g>
<g style="fill:#000000; fill-opacity:0.0; 
stroke:#000000; stroke-width:21200.000000; stroke-opacity:1; 
stroke-linecap:round; stroke-linejoin:round;">
</g>
<g style="fill:#000000; fill-opacity:0.0; 
stroke:#000000; stroke-width:150000.000000; stroke-opacity:1; 
stroke-linecap:round; stroke-linejoin:round;">
<path d="M360000000 12000000
L360000000 10000000
" />
</g>
<g style="fill:#000000; fill-opacity:0.0; 
stroke:#000000; stroke-width:21200.000000; stroke-opacity:1; 
stroke-linecap:round; stroke-linejoin:round;">
</g>
<g style="fill:#000000; fill-opacity:0.0; 
stroke:#000000; stroke-width:150000.000000; stroke-opacity:1; 
stroke-linecap:round; stroke-linejoin:round;">
<text x="35000000.000000" y="11650000.000000"
textLength="1238096.000000" font-size="1733333.000000" lengthAdjust="spacingAndGlyphs"
text-anchor="start" opacity="0">1</text>
<g class="stroked-text"><desc>1</desc>
<path d="M36065476 11588095
L35322619 11588095
" />
<path d="M35694047 11588095
L35694047 10288095
L35570238 10473809
L35446428 10597619
L35322619 10659523
" />
</g></g>
<g style="fill:#000000; fill-opacity:0.0; 
stroke:#000000; stroke-width:21200.000000; stroke-opacity:1; 
stroke-linecap:round; stroke-linejoin:round;">
</g>
<g style="fill:#000000; fill-opacity:0.0; 
stroke:#000000; stroke-width:150000.000000; stroke-opacity:1; 
stroke-linecap:round; stroke-linejoin:round;">
<text x="85000000.000000" y="11650000.000000"
textLength="1388095.000000" font-size="1733333.000000" lengthAdjust="spacingAndGlyphs"
text-anchor="start" opacity="0">2</text>
<g class="stroked-text"><desc>2</desc>
<path d="M85322619 10411904
L85384523 10350000
L85508333 10288095
L85817857 10288095
L85941666 10350000
L86003571 10411904
L86065476 10535714
L86065476 10659523
L86003571 10845238
L85260714 11588095
L86065476 11588095
" />
</g></g>
<g style="fill:#000000; fill-opacity:0.0; 
stroke:#000000; stroke-width:21200.000000; stroke-opacity:1; 
stroke-linecap:round; stroke-linejoin:round;">
</g>
<g style="fill:#000000; fill-opacity:0.0; 
stroke:#000000; stroke-width:150000.000000; stroke-opacity:1; 
stroke-linecap:round; stroke-linejoin:round;">
<text x="135000000.000000" y="11650000.000000"
textLength="1388095.000000" font-size="1733333.000000" lengthAdjust="spacingAndGlyphs"
text-anchor="start" opacity="0">3</text>
<g class="stroked-text"><desc>3</desc>
<path d="M135260714 10288095
L136065476 10288095
L135632142 10783333
L135817857 10783333
L135941666 10845238
L136003571 10907142
L136065476 11030952
L136065476 11340476
L136003571 11464285
L135941666 11526190
L135817857 11588095
L135446428 11588095
L135322619 11526190
L135260714 11464285
" />
</g></g>
<g style="fill:#000000; fill-opacity:0.0; 
stroke:#000000; stroke-width:21200.000000; stroke-opacity:1; 
stroke-linecap:round; stroke-linejoin:round;">
</g>
<g style="fill:#000000; fill-opacity:0.0; 
stroke:#000000; stroke-width:150000.000000; stroke-opacity:1; 
stroke-linecap:round; stroke-linejoin:round;">
<text x="185000000.000000" y="11650000.000000"
textLength="1388095.000000" font-size="1733333.000000" lengthAdjust="spacingAndGlyphs"
text-anchor="start" opacity="0">4</text>
<g class="stroked-text"><desc>4</desc>
<path d="M185941666 10721428
L185941666 11588095
" />
<path d="M185632142 10226190
L185322619 11154761
L186127380 11154761
" />
</g></g>
<g style="fill:#000000; fill-opacity:0.0; 
stroke:#000000; stroke-width:21200.000000; stroke-opacity:1; 
stroke-linecap:round; stroke-linejoin:round;">
</g>
<g style="fill:#000000; fill-opacity:0.0; 
stroke:#000000; stroke-width:150000.000000; stroke-opacity:1; 
stroke-linecap:round; stroke-linejoin:round;">
<text x="235000000.000000" y="11650000.000000"
textLength="1388095.000000" font-size="1733333.000000" lengthAdjust="spacingAndGlyphs"
text-anchor="start" opacity="0">5</text>
<g class="stroked-text"><desc>5</desc>
<path d="M236003571 10288095
L235384523 10288095
L235322619 10907142
L235384523 10845238
L235508333 10783333
L235817857 10783333
L235941666 10845238
L236003571 10907142
L236065476 11030952
L236065476 11340476
L236003571 11464285
L235941666 11526190
L235817857 11588095
L235508333 11588095
L235384523 11526190
L235322619 11464285
" />
</g></g>
<g style="fill:#000000; fill-opacity:0.0; 
stroke:#000000; stroke-width:21200.000000; stroke-opacity:1; 
stroke-linecap:round; stroke-linejoin:round;">
</g>
<g style="fill:#000000; fill-opacity:0.0; 
stroke:#000000; stroke-width:150000.000000; stroke-opacity:1; 
stroke-linecap:round; stroke-linejoin:round;">
<text x="285000000.000000" y="11650000.000000"
textLength="1388095.000000" font-size="1733333.000000" lengthAdjust="spacingAndGlyphs"
text-anchor="start" opacity="0">6</text>
<g class="stroked-text"><desc>6</desc>
<path d="M285941666 10288095
L285694047 10288095
L285570238 10350000
L285508333 10411904
L285384523 10597619
L285322619 10845238
L285322619 11340476
L285384523 11464285
L285446428 11526190
L285570238 11588095
L285817857 11588095
L285941666 11526190
L286003571 11464285
L286065476 11340476
L286065476 11030952
L286003571 10907142
L285941666 10845238
L285817857 10783333
L285570238 10783333
L285446428 10845238
L285384523 10907142
L285322619 11030952
" />
</g></g>
<g style="fill:#000000; fill-opacity:0.0; 
stroke:#000000; stroke-width:21200.000000; stroke-opacity:1; 
stroke-linecap:round; stroke-linejoin:round;">
</g>
<g style="fill:#000000; fill-opacity:0.0; 
stroke:#000000; stroke-width:150000.000000; stroke-opacity:1; 
stroke-linecap:round; stroke-linejoin:round;">
<text x="335000000.000000" y="11650000.000000"
textLength="1388095.000000" font-size="1733333.000000" lengthAdjust="spacingAndGlyphs"
text-anchor="start" opacity="0">7</text>
<g class="stroked-text"><desc>7</desc>
<path d="M335260714 10288095
L336127380 10288095
L335570238 11588095
" />
</g></g>
<g style="fill:#000000; fill-opacity:0.0; 
stroke:#000000; stroke-width:21200.000000; stroke-opacity:1; 
stroke-linecap:round; stroke-linejoin:round;">
</g>
<g style="fill:#000000; fill-opacity:0.0; 
stroke:#000000; stroke-width:150000.000000; stroke-opacity:1; 
stroke-linecap:round; stroke-linejoin:round;">
<text x="385000000.000000" y="11650000.000000"
textLength="1388095.000000" font-size="1733333.000000" lengthAdjust="spacingAndGlyphs"
text-anchor="start" opacity="0">8</text>
<g class="stroked-text"><desc>8</desc>
<path d="M385570238 10845238
L385446428 10783333
L385384523 10721428
L385322619 10597619
L385322619 10535714
L385384523 10411904
L385446428 10350000
L385570238 10288095
L385817857 10288095
L385941666 10350000
L386003571 10411904
L386065476 10535714
L386065476 10597619
L386003571 10721428
L385941666 10783333
L385817857 10845238
L385570238 10845238
L385446428 10907142
L385384523 10969047
L385322619 11092857
L385322619 11340476
L385384523 11464285
L385446428 11526190
L385570238 11588095
L385817857 11588095
L385941666 11526190
L386003571 11464285
L386065476 11340476
L386065476 11092857
L386003571 10969047
L385941666 10907142
L385817857 10845238
" />
</g></g>
<g style="fill:#000000; fill-opacity:0.0; 
stroke:#000000; stroke-width:21200.000000; stroke-opacity:1; 
stroke-linecap:round; stroke-linejoin:round;">
</g>
<g style="fill:#000000; fill-opacity:0.0; 
stroke:#000000; stroke-width:150000.000000; stroke-opacity:1; 
stroke-linecap:round; stroke-linejoin:round;">
<path d="M60000000 285002200
L60000000 287002200
" />
</g>
<g style="fill:#000000; fill-opacity:0.0; 
stroke:#000000; stroke-width:21200.000000; stroke-opacity:1; 
stroke-linecap:round; stroke-linejoin:round;">
</g>
<g style="fill:#000000; fill-opacity:0.0; 
stroke:#000000; stroke-width:150000.000000; stroke-opacity:1; 
stroke-linecap:round; stroke-linejoin:round;">
<path d="M110000000 285002200
L110000000 287002200
" />
</g>
<g style="fill:#000000; fill-opacity:0.0; 
stroke:#000000; stroke-width:21200.000000; stroke-opacity:1; 
stroke-linecap:round; stroke-linejoin:round;">
</g>
<g style="fill:#000000; fill-opacity:0.0; 
stroke:#000000; stroke-width:150000.000000; stroke-opacity:1; 
stroke-linecap:round; stroke-linejoin:round;">
<path d="M160000000 285002200
L160000000 287002200
" />
</g>
<g style="fill:#000000; fill-opacity:0.0; 
stroke:#000000; stroke-width:21200.000000; stroke-opacity:1; 
stroke-linecap:round; stroke-linejoin:round;">
</g>
<g style="fill:#000000; fill-opacity:0.0; 
stroke:#000000; stroke-width:150000.000000; stroke-opacity:1; 
stroke-linecap:round; stroke-linejoin:round;">
<path d="M210000000 285002200
L210000000 287002200
" />
</g>
<g style="fill:#000000; fill-opacity:0.0; 
stroke:#000000; stroke-width:21200.000000; stroke-opacity:1; 
stroke-linecap:round; stroke-linejoin:round;">
</g>
<g style="fill:#000000; fill-opacity:0.0; 
stroke:#000000; stroke-width:150000.000000; stroke-opacity:1; 
stroke-linecap:round; stroke-linejoin:round;">
<path d="M260000000 285002200
L260000000 287002200
" />
</g>
<g style="fill:#000000; fill-opacity:0.0; 
stroke:#000000; stroke-width:21200.000000; stroke-opacity:1; 
stroke-linecap:round; stroke-linejoin:round;">
</g>
<g style="fill:#000000; fill-opacity:0.0; 
stroke:#000000; stroke-width:150000.000000; stroke-opacity:1; 
stroke-linecap:round; stroke-linejoin:round;">
<path d="M310000000 285002200
L310000000 287002200
" />
</g>
<g style="fill:#000000; fill-opacity:0.0; 
stroke:#000000; stroke-width:21200.000000; stroke-opacity:1; 
stroke-linecap:round; stroke-linejoin:round;">
</g>
<g style="fill:#000000; fill-opacity:0.0; 
stroke:#000000; stroke-width:150000.000000; stroke-opacity:1; 
stroke-linecap:round; stroke-linejoin:round;">
<path d="M360000000 285002200
L360000000 287002200
" />
</g>
<g style="fill:#000000; fill-opacity:0.0; 
stroke:#000000; stroke-width:21200.000000; stroke-opacity:1; 
stroke-linecap:round; stroke-linejoin:round;">
</g>
<g style="fill:#000000; fill-opacity:0.0; 
stroke:#000000; stroke-width:150000.000000; stroke-opacity:1; 
stroke-linecap:round; stroke-linejoin:round;">
<text x="35000000.000000" y="286652200.000000"
textLength="1388095.000000" font-size="1733333.000000" lengthAdjust="spacingAndGlyphs"
text-anchor="start" opacity="0">1</text>
<g class="stroked-text"><desc>1</desc>
<path d="M36065476 286590295
L35322619 286590295
" />
<path d="M35694047 286590295
L35694047 285290295
L35570238 285476009
L35446428 285599819
L35322619 285661723
" />
</g></g>
<g style="fill:#000000; fill-opacity:0.0; 
stroke:#000000; stroke-width:21200.000000; stroke-opacity:1; 
stroke-linecap:round; stroke-linejoin:round;">
</g>
<g style="fill:#000000; fill-opacity:0.0; 
stroke:#000000; stroke-width:150000.000000; stroke-opacity:1; 
stroke-linecap:round; stroke-linejoin:round;">
<text x="85000000.000000" y="286652200.000000"
textLength="1388095.000000" font-size="1733333.000000" lengthAdjust="spacingAndGlyphs"
text-anchor="start" opacity="0">2</text>
<g class="stroked-text"><desc>2</desc>
<path d="M85322619 285414104
L85384523 285352200
L85508333 285290295
L85817857 285290295
L85941666 285352200
L86003571 285414104
L86065476 285537914
L86065476 285661723
L86003571 285847438
L85260714 286590295
L86065476 286590295
" />
</g></g>
<g style="fill:#000000; fill-opacity:0.0; 
stroke:#000000; stroke-width:21200.000000; stroke-opacity:1; 
stroke-linecap:round; stroke-linejoin:round;">
</g>
<g style="fill:#000000; fill-opacity:0.0; 
stroke:#000000; stroke-width:150000.000000; stroke-opacity:1; 
stroke-linecap:round; stroke-linejoin:round;">
<text x="135000000.000000" y="286652200.000000"
textLength="1388095.000000" font-size="1733333.000000" lengthAdjust="spacingAndGlyphs"
text-anchor="start" opacity="0">3</text>
<g class="stroked-text"><desc>3</desc>
<path d="M135260714 285290295
L136065476 285290295
L135632142 285785533
L135817857 285785533
L135941666 285847438
L136003571 285909342
L136065476 286033152
L136065476 286342676
L136003571 286466485
L135941666 286528390
L135817857 286590295
L135446428 286590295
L135322619 286528390
L135260714 286466485
" />
</g></g>
<g style="fill:#000000; fill-opacity:0.0; 
stroke:#000000; stroke-width:21200.000000; stroke-opacity:1; 
stroke-linecap:round; stroke-linejoin:round;">
</g>
<g style="fill:#000000; fill-opacity:0.0; 
stroke:#000000; stroke-width:150000.000000; stroke-opacity:1; 
stroke-linecap:round; stroke-linejoin:round;">
<text x="185000000.000000" y="286652200.000000"
textLength="1388095.000000" font-size="1733333.000000" lengthAdjust="spacingAndGlyphs"
text-anchor="start" opacity="0">4</text>
<g class="stroked-text"><desc>4</desc>
<path d="M185941666 285723628
L185941666 286590295
" />
<path d="M185632142 285228390
L185322619 286156961
L186127380 286156961
" />
</g></g>
<g style="fill:#000000; fill-opacity:0.0; 
stroke:#000000; stroke-width:21200.000000; stroke-opacity:1; 
stroke-linecap:round; stroke-linejoin:round;">
</g>
<g style="fill:#000000; fill-opacity:0.0; 
stroke:#000000; stroke-width:150000.000000; stroke-opacity:1; 
stroke-linecap:round; stroke-linejoin:round;">
<text x="235000000.000000" y="286652200.000000"
textLength="1388095.000000" font-size="1733333.000000" lengthAdjust="spacingAndGlyphs"
text-anchor="start" opacity="0">5</text>
<g class="stroked-text"><desc>5</desc>
<path d="M236003571 285290295
L235384523 285290295
L235322619 285909342
L235384523 285847438
L235508333 285785533
L235817857 285785533
L235941666 285847438
L236003571 285909342
L236065476 286033152
L236065476 286342676
L236003571 286466485
L235941666 286528390
L235817857 286590295
L235508333 286590295
L235384523 286528390
L235322619 286466485
" />
</g></g>
<g style="fill:#000000; fill-opacity:0.0; 
stroke:#000000; stroke-width:21200.000000; stroke-opacity:1; 
stroke-linecap:round; stroke-linejoin:round;">
</g>
<g style="fill:#000000; fill-opacity:0.0; 
stroke:#000000; stroke-width:150000.000000; stroke-opacity:1; 
stroke-linecap:round; stroke-linejoin:round;">
<text x="285000000.000000" y="286652200.000000"
textLength="1388095.000000" font-size="1733333.000000" lengthAdjust="spacingAndGlyphs"
text-anchor="start" opacity="0">6</text>
<g class="stroked-text"><desc>6</desc>
<path d="M285941666 285290295
L285694047 285290295
L285570238 285352200
L285508333 285414104
L285384523 285599819
L285322619 285847438
L285322619 286342676
L285384523 286466485
L285446428 286528390
L285570238 286590295
L285817857 286590295
L285941666 286528390
L286003571 286466485
L286065476 286342676
L286065476 286033152
L286003571 285909342
L285941666 285847438
L285817857 285785533
L285570238 285785533
L285446428 285847438
L285384523 285909342
L285322619 286033152
" />
</g></g>
<g style="fill:#000000; fill-opacity:0.0; 
stroke:#000000; stroke-width:21200.000000; stroke-opacity:1; 
stroke-linecap:round; stroke-linejoin:round;">
</g>
<g style="fill:#000000; fill-opacity:0.0; 
stroke:#000000; stroke-width:150000.000000; stroke-opacity:1; 
stroke-linecap:round; stroke-linejoin:round;">
<text x="335000000.000000" y="286652200.000000"
textLength="1388095.000000" font-size="1733333.000000" lengthAdjust="spacingAndGlyphs"
text-anchor="start" opacity="0">7</text>
<g class="stroked-text"><desc>7</desc>
<path d="M335260714 285290295
L336127380 285290295
L335570238 286590295
" />
</g></g>
<g style="fill:#000000; fill-opacity:0.0; 
stroke:#000000; stroke-width:21200.000000; stroke-opacity:1; 
stroke-linecap:round; stroke-linejoin:round;">
</g>
<g style="fill:#000000; fill-opacity:0.0; 
stroke:#000000; stroke-width:150000.000000; stroke-opacity:1; 
stroke-linecap:round; stroke-linejoin:round;">
<text x="385000000.000000" y="286652200.000000"
textLength="1388095.000000" font-size="1733333.000000" lengthAdjust="spacingAndGlyphs"
text-anchor="start" opacity="0">8</text>
<g class="stroked-text"><desc>8</desc>
<path d="M385570238 285847438
L385446428 285785533
L385384523 285723628
L385322619 285599819
L385322619 285537914
L385384523 285414104
L385446428 285352200
L385570238 285290295
L385817857 285290295
L385941666 285352200
L386003571 285414104
L386065476 285537914
L386065476 285599819
L386003571 285723628
L385941666 285785533
L385817857 285847438
L385570238 285847438
L385446428 285909342
L385384523 285971247
L385322619 286095057
L385322619 286342676
L385384523 286466485
L385446428 286528390
L385570238 286590295
L385817857 286590295
L385941666 286528390
L386003571 286466485
L386065476 286342676
L386065476 286095057
L386003571 285971247
L385941666 285909342
L385817857 285847438
" />
</g></g>
<g style="fill:#000000; fill-opacity:0.0; 
stroke:#000000; stroke-width:21200.000000; stroke-opacity:1; 
stroke-linecap:round; stroke-linejoin:round;">
</g>
<g style="fill:#000000; fill-opacity:0.0; 
stroke:#000000; stroke-width:150000.000000; stroke-opacity:1; 
stroke-linecap:round; stroke-linejoin:round;">
<path d="M10000000 60000000
L12000000 60000000
" />
</g>
<g style="fill:#000000; fill-opacity:0.0; 
stroke:#000000; stroke-width:21200.000000; stroke-opacity:1; 
stroke-linecap:round; stroke-linejoin:round;">
</g>
<g style="fill:#000000; fill-opacity:0.0; 
stroke:#000000; stroke-width:150000.000000; stroke-opacity:1; 
stroke-linecap:round; stroke-linejoin:round;">
<path d="M10000000 110000000
L12000000 110000000
" />
</g>
<g style="fill:#000000; fill-opacity:0.0; 
stroke:#000000; stroke-width:21200.000000; stroke-opacity:1; 
stroke-linecap:round; stroke-linejoin:round;">
</g>
<g style="fill:#000000; fill-opacity:0.0; 
stroke:#000000; stroke-width:150000.000000; stroke-opacity:1; 
stroke-linecap:round; stroke-linejoin:round;">
<path d="M10000000 160000000
L12000000 160000000
" />
</g>
<g style="fill:#000000; fill-opacity:0.0; 
stroke:#000000; stroke-width:21200.000000; stroke-opacity:1; 
stroke-linecap:round; stroke-linejoin:round;">
</g>
<g style="fill:#000000; fill-opacity:0.0; 
stroke:#000000; stroke-width:150000.000000; stroke-opacity:1; 
stroke-linecap:round; stroke-linejoin:round;">
<path d="M10000000 210000000
L12000000 210000000
" />
</g>
<g style="fill:#000000; fill-opacity:0.0; 
stroke:#000000; stroke-width:21200.000000; stroke-opacity:1; 
stroke-linecap:round; stroke-linejoin:round;">
</g>
<g style="fill:#000000; fill-opacity:0.0; 
stroke:#000000; stroke-width:150000.000000; stroke-opacity:1; 
stroke-linecap:round; stroke-linejoin:round;">
<path d="M10000000 260000000
L12000000 260000000
" />
</g>
<g style="fill:#000000; fill-opacity:0.0; 
stroke:#000000; stroke-width:21200.000000; stroke-opacity:1; 
stroke-linecap:round; stroke-linejoin:round;">
</g>
<g style="fill:#000000; fill-opacity:0.0; 
stroke:#000000; stroke-width:150000.000000; stroke-opacity:1; 
stroke-linecap:round; stroke-linejoin:round;">
<text x="11000000.000000" y="35650000.000000"
textLength="1264286.000000" font-size="1733333.000000" lengthAdjust="spacingAndGlyphs"
text-anchor="middle" opacity="0">A</text>
<g class="stroked-text"><desc>A</desc>
<path d="M10690476 35216666
L11309523 35216666
" />
<path d="M10566666 35588095
L11000000 34288095
L11433333 35588095
" />
</g></g>
<g style="fill:#000000; fill-opacity:0.0; 
stroke:#000000; stroke-width:21200.000000; stroke-opacity:1; 
stroke-linecap:round; stroke-linejoin:round;">
</g>
<g style="fill:#000000; fill-opacity:0.0; 
stroke:#000000; stroke-width:150000.000000; stroke-opacity:1; 
stroke-linecap:round; stroke-linejoin:round;">
<text x="11000000.000000" y="85650000.000000"
textLength="1450000.000000" font-size="1733333.000000" lengthAdjust="spacingAndGlyphs"
text-anchor="middle" opacity="0">B</text>
<g class="stroked-text"><desc>B</desc>
<path d="M11092857 84907142
L11278571 84969047
L11340476 85030952
L11402380 85154761
L11402380 85340476
L11340476 85464285
L11278571 85526190
L11154761 85588095
L10659523 85588095
L10659523 84288095
L11092857 84288095
L11216666 84350000
L11278571 84411904
L11340476 84535714
L11340476 84659523
L11278571 84783333
L11216666 84845238
L11092857 84907142
L10659523 84907142
" />
</g></g>
<g style="fill:#000000; fill-opacity:0.0; 
stroke:#000000; stroke-width:21200.000000; stroke-opacity:1; 
stroke-linecap:round; stroke-linejoin:round;">
</g>
<g style="fill:#000000; fill-opacity:0.0; 
stroke:#000000; stroke-width:150000.000000; stroke-opacity:1; 
stroke-linecap:round; stroke-linejoin:round;">
<text x="11000000.000000" y="135650000.000000"
textLength="1450000.000000" font-size="1733333.000000" lengthAdjust="spacingAndGlyphs"
text-anchor="middle" opacity="0">C</text>
<g class="stroked-text"><desc>C</desc>
<path d="M11402380 135464285
L11340476 135526190
L11154761 135588095
L11030952 135588095
L10845238 135526190
L10721428 135402380
L10659523 135278571
L10597619 135030952
L10597619 134845238
L10659523 134597619
L10721428 134473809
L10845238 134350000
L11030952 134288095
L11154761 134288095
L11340476 134350000
L11402380 134411904
" />
</g></g>
<g style="fill:#000000; fill-opacity:0.0; 
stroke:#000000; stroke-width:21200.000000; stroke-opacity:1; 
stroke-linecap:round; stroke-linejoin:round;">
</g>
<g style="fill:#000000; fill-opacity:0.0; 
stroke:#000000; stroke-width:150000.000000; stroke-opacity:1; 
stroke-linecap:round; stroke-linejoin:round;">
<text x="11000000.000000" y="185650000.000000"
textLength="1450000.000000" font-size="1733333.000000" lengthAdjust="spacingAndGlyphs"
text-anchor="middle" opacity="0">D</text>
<g class="stroked-text"><desc>D</desc>
<path d="M10659523 185588095
L10659523 184288095
L10969047 184288095
L11154761 184350000
L11278571 184473809
L11340476 184597619
L11402380 184845238
L11402380 185030952
L11340476 185278571
L11278571 185402380
L11154761 185526190
L10969047 185588095
L10659523 185588095
" />
</g></g>
<g style="fill:#000000; fill-opacity:0.0; 
stroke:#000000; stroke-width:21200.000000; stroke-opacity:1; 
stroke-linecap:round; stroke-linejoin:round;">
</g>
<g style="fill:#000000; fill-opacity:0.0; 
stroke:#000000; stroke-width:150000.000000; stroke-opacity:1; 
stroke-linecap:round; stroke-linejoin:round;">
<text x="11000000.000000" y="235650000.000000"
textLength="1326190.000000" font-size="1733333.000000" lengthAdjust="spacingAndGlyphs"
text-anchor="middle" opacity="0">E</text>
<g class="stroked-text"><desc>E</desc>
<path d="M10721428 234907142
L11154761 234907142
" />
<path d="M11340476 235588095
L10721428 235588095
L10721428 234288095
L11340476 234288095
" />
</g></g>
<g style="fill:#000000; fill-opacity:0.0; 
stroke:#000000; stroke-width:21200.000000; stroke-opacity:1; 
stroke-linecap:round; stroke-linejoin:round;">
</g>
<g style="fill:#000000; fill-opacity:0.0; 
stroke:#000000; stroke-width:150000.000000; stroke-opacity:1; 
stroke-linecap:round; stroke-linejoin:round;">
<text x="11000000.000000" y="285650000.000000"
textLength="1264286.000000" font-size="1733333.000000" lengthAdjust="spacingAndGlyphs"
text-anchor="middle" opacity="0">F</text>
<g class="stroked-text"><desc>F</desc>
<path d="M11185714 284907142
L10752380 284907142
" />
<path d="M10752380 285588095
L10752380 284288095
L11371428 284288095
" />
</g></g>
<g style="fill:#000000; fill-opacity:0.0; 
stroke:#000000; stroke-width:21200.000000; stroke-opacity:1; 
stroke-linecap:round; stroke-linejoin:round;">
</g>
<g style="fill:#000000; fill-opacity:0.0; 
stroke:#000000; stroke-width:150000.000000; stroke-opacity:1; 
stroke-linecap:round; stroke-linejoin:round;">
<path d="M409989000 60000000
L407989000 60000000
" />
</g>
<g style="fill:#000000; fill-opacity:0.0; 
stroke:#000000; stroke-width:21200.000000; stroke-opacity:1; 
stroke-linecap:round; stroke-linejoin:round;">
</g>
<g style="fill:#000000; fill-opacity:0.0; 
stroke:#000000; stroke-width:150000.000000; stroke-opacity:1; 
stroke-linecap:round; stroke-linejoin:round;">
<path d="M409989000 110000000
L407989000 110000000
" />
</g>
<g style="fill:#000000; fill-opacity:0.0; 
stroke:#000000; stroke-width:21200.000000; stroke-opacity:1; 
stroke-linecap:round; stroke-linejoin:round;">
</g>
<g style="fill:#000000; fill-opacity:0.0; 
stroke:#000000; stroke-width:150000.000000; stroke-opacity:1; 
stroke-linecap:round; stroke-linejoin:round;">
<path d="M409989000 160000000
L407989000 160000000
" />
</g>
<g style="fill:#000000; fill-opacity:0.0; 
stroke:#000000; stroke-width:21200.000000; stroke-opacity:1; 
stroke-linecap:round; stroke-linejoin:round;">
</g>
<g style="fill:#000000; fill-opacity:0.0; 
stroke:#000000; stroke-width:150000.000000; stroke-opacity:1; 
stroke-linecap:round; stroke-linejoin:round;">
<path d="M409989000 210000000
L407989000 210000000
" />
</g>
<g style="fill:#000000; fill-opacity:0.0; 
stroke:#000000; stroke-width:21200.000000; stroke-opacity:1; 
stroke-linecap:round; stroke-linejoin:round;">
</g>
<g style="fill:#000000; fill-opacity:0.0; 
stroke:#000000; stroke-width:150000.000000; stroke-opacity:1; 
stroke-linecap:round; stroke-linejoin:round;">
<path d="M409989000 260000000
L407989000 260000000
" />
</g>
<g style="fill:#000000; fill-opacity:0.0; 
stroke:#000000; stroke-width:21200.000000; stroke-opacity:1; 
stroke-linecap:round; stroke-linejoin:round;">
</g>
<g style="fill:#000000; fill-opacity:0.0; 
stroke:#000000; stroke-width:150000.000000; stroke-opacity:1; 
stroke-linecap:round; stroke-linejoin:round;">
<text x="408989000.000000" y="35650000.000000"
textLength="1264286.000000" font-size="1733333.000000" lengthAdjust="spacingAndGlyphs"
text-anchor="middle" opacity="0">A</text>
<g class="stroked-text"><desc>A</desc>
<path d="M408679476 35216666
L409298523 35216666
" />
<path d="M408555666 35588095
L408989000 34288095
L409422333 35588095
" />
</g></g>
<g style="fill:#000000; fill-opacity:0.0; 
stroke:#000000; stroke-width:21200.000000; stroke-opacity:1; 
stroke-linecap:round; stroke-linejoin:round;">
</g>
<g style="fill:#000000; fill-opacity:0.0; 
stroke:#000000; stroke-width:150000.000000; stroke-opacity:1; 
stroke-linecap:round; stroke-linejoin:round;">
<text x="408989000.000000" y="85650000.000000"
textLength="1450000.000000" font-size="1733333.000000" lengthAdjust="spacingAndGlyphs"
text-anchor="middle" opacity="0">B</text>
<g class="stroked-text"><desc>B</desc>
<path d="M409081857 84907142
L409267571 84969047
L409329476 85030952
L409391380 85154761
L409391380 85340476
L409329476 85464285
L409267571 85526190
L409143761 85588095
L408648523 85588095
L408648523 84288095
L409081857 84288095
L409205666 84350000
L409267571 84411904
L409329476 84535714
L409329476 84659523
L409267571 84783333
L409205666 84845238
L409081857 84907142
L408648523 84907142
" />
</g></g>
<g style="fill:#000000; fill-opacity:0.0; 
stroke:#000000; stroke-width:21200.000000; stroke-opacity:1; 
stroke-linecap:round; stroke-linejoin:round;">
</g>
<g style="fill:#000000; fill-opacity:0.0; 
stroke:#000000; stroke-width:150000.000000; stroke-opacity:1; 
stroke-linecap:round; stroke-linejoin:round;">
<text x="408989000.000000" y="135650000.000000"
textLength="1450000.000000" font-size="1733333.000000" lengthAdjust="spacingAndGlyphs"
text-anchor="middle" opacity="0">C</text>
<g class="stroked-text"><desc>C</desc>
<path d="M409391380 135464285
L409329476 135526190
L409143761 135588095
L409019952 135588095
L408834238 135526190
L408710428 135402380
L408648523 135278571
L408586619 135030952
L408586619 134845238
L408648523 134597619
L408710428 134473809
L408834238 134350000
L409019952 134288095
L409143761 134288095
L409329476 134350000
L409391380 134411904
" />
</g></g>
<g style="fill:#000000; fill-opacity:0.0; 
stroke:#000000; stroke-width:21200.000000; stroke-opacity:1; 
stroke-linecap:round; stroke-linejoin:round;">
</g>
<g style="fill:#000000; fill-opacity:0.0; 
stroke:#000000; stroke-width:150000.000000; stroke-opacity:1; 
stroke-linecap:round; stroke-linejoin:round;">
<text x="408989000.000000" y="185650000.000000"
textLength="1450000.000000" font-size="1733333.000000" lengthAdjust="spacingAndGlyphs"
text-anchor="middle" opacity="0">D</text>
<g class="stroked-text"><desc>D</desc>
<path d="M408648523 185588095
L408648523 184288095
L408958047 184288095
L409143761 184350000
L409267571 184473809
L409329476 184597619
L409391380 184845238
L409391380 185030952
L409329476 185278571
L409267571 185402380
L409143761 185526190
L408958047 185588095
L408648523 185588095
" />
</g></g>
<g style="fill:#000000; fill-opacity:0.0; 
stroke:#000000; stroke-width:21200.000000; stroke-opacity:1; 
stroke-linecap:round; stroke-linejoin:round;">
</g>
<g style="fill:#000000; fill-opacity:0.0; 
stroke:#000000; stroke-width:150000.000000; stroke-opacity:1; 
stroke-linecap:round; stroke-linejoin:round;">
<text x="408989000.000000" y="235650000.000000"
textLength="1326190.000000" font-size="1733333.000000" lengthAdjust="spacingAndGlyphs"
text-anchor="middle" opacity="0">E</text>
<g class="stroked-text"><desc>E</desc>
<path d="M408710428 234907142
L409143761 234907142
" />
<path d="M409329476 235588095
L408710428 235588095
L408710428 234288095
L409329476 234288095
" />
</g></g>
<g style="fill:#000000; fill-opacity:0.0; 
stroke:#000000; stroke-width:21200.000000; stroke-opacity:1; 
stroke-linecap:round; stroke-linejoin:round;">
</g>
<g style="fill:#000000; fill-opacity:0.0; 
stroke:#000000; stroke-width:150000.000000; stroke-opacity:1; 
stroke-linecap:round; stroke-linejoin:round;">
<text x="408989000.000000" y="285650000.000000"
textLength="1264286.000000" font-size="1733333.000000" lengthAdjust="spacingAndGlyphs"
text-anchor="middle" opacity="0">F</text>
<g class="stroked-text"><desc>F</desc>
<path d="M409174714 284907142
L408741380 284907142
" />
<path d="M408741380 285588095
L408741380 284288095
L409360428 284288095
" />
</g></g>
<g style="fill:#000000; fill-opacity:0.0; 
stroke:#000000; stroke-width:21200.000000; stroke-opacity:1; 
stroke-linecap:round; stroke-linejoin:round;">
</g>
<g style="fill:#000000; fill-opacity:0.0; 
stroke:#000000; stroke-width:150000.000000; stroke-opacity:1; 
stroke-linecap:round; stroke-linejoin:round;">
<text x="322989000.000000" y="280852200.000000"
textLength="7007143.000000" font-size="2000000.000000" lengthAdjust="spacingAndGlyphs"
text-anchor="start" opacity="0">Date: </text>
<g class="stroked-text"><desc>Date: </desc>
<path d="M323421142 280780771
L323421142 279280771
L323778285 279280771
L323992571 279352200
L324135428 279495057
L324206857 279637914
L324278285 279923628
L324278285 280137914
L324206857 280423628
L324135428 280566485
L323992571 280709342
L323778285 280780771
L323421142 280780771
" />
<path d="M325564000 280780771
L325564000 279995057
L325492571 279852200
L325349714 279780771
L325064000 279780771
L324921142 279852200
" />
<path d="M325564000 280709342
L325421142 280780771
L325064000 280780771
L324921142 280709342
L324849714 280566485
L324849714 280423628
L324921142 280280771
L325064000 280209342
L325421142 280209342
L325564000 280137914
" />
<path d="M326064000 279780771
L326635428 279780771
" />
<path d="M326278285 279280771
L326278285 280566485
L326349714 280709342
L326492571 280780771
L326635428 280780771
" />
<path d="M327706857 280709342
L327564000 280780771
L327278285 280780771
L327135428 280709342
L327064000 280566485
L327064000 279995057
L327135428 279852200
L327278285 279780771
L327564000 279780771
L327706857 279852200
L327778285 279995057
L327778285 280137914
L327064000 280280771
" />
<path d="M328421142 280637914
L328492571 280709342
L328421142 280780771
L328349714 280709342
L328421142 280637914
L328421142 280780771
" />
<path d="M328421142 279852200
L328492571 279923628
L328421142 279995057
L328349714 279923628
L328421142 279852200
L328421142 279995057
" />
</g></g>
<g style="fill:#000000; fill-opacity:0.0; 
stroke:#000000; stroke-width:21200.000000; stroke-opacity:1; 
stroke-linecap:round; stroke-linejoin:round;">
</g>
<g style="fill:#000000; fill-opacity:0.0; 
stroke:#000000; stroke-width:150000.000000; stroke-opacity:1; 
stroke-linecap:round; stroke-linejoin:round;">
<path d="M299989000 281502200
L407989000 281502200
" />
</g>
<g style="fill:#000000; fill-opacity:0.0; 
stroke:#000000; stroke-width:21200.000000; stroke-opacity:1; 
stroke-linecap:round; stroke-linejoin:round;">
</g>
<g style="fill:#000000; fill-opacity:0.0; 
stroke:#000000; stroke-width:150000.000000; stroke-opacity:1; 
stroke-linecap:round; stroke-linejoin:round;">
<text x="300989000.000000" y="283652200.000000"
textLength="32507143.000000" font-size="2000000.000000" lengthAdjust="spacingAndGlyphs"
text-anchor="start" opacity="0">KiCad E.D.A.  kicad (6.0.10)</text>
<g class="stroked-text"><desc>KiCad E.D.A.  kicad (6.0.10)</desc>
<path d="M301421142 283580771
L301421142 282080771
" />
<path d="M302278285 283580771
L301635428 282723628
" />
<path d="M302278285 282080771
L301421142 282937914
" />
<path d="M302921142 283580771
L302921142 282580771
" />
<path d="M302921142 282080771
L302849714 282152200
L302921142 282223628
L302992571 282152200
L302921142 282080771
L302921142 282223628
" />
<path d="M304492571 283437914
L304421142 283509342
L304206857 283580771
L304064000 283580771
L303849714 283509342
L303706857 283366485
L303635428 283223628
L303564000 282937914
L303564000 282723628
L303635428 282437914
L303706857 282295057
L303849714 282152200
L304064000 282080771
L304206857 282080771
L304421142 282152200
L304492571 282223628
" />
<path d="M305778285 283580771
L305778285 282795057
L305706857 282652200
L305564000 282580771
L305278285 282580771
L305135428 282652200
" />
<path d="M305778285 283509342
L305635428 283580771
L305278285 283580771
L305135428 283509342
L305064000 283366485
L305064000 283223628
L305135428 283080771
L305278285 283009342
L305635428 283009342
L305778285 282937914
" />
<path d="M307135428 283580771
L307135428 282080771
" />
<path d="M307135428 283509342
L306992571 283580771
L306706857 283580771
L306564000 283509342
L306492571 283437914
L306421142 283295057
L306421142 282866485
L306492571 282723628
L306564000 282652200
L306706857 282580771
L306992571 282580771
L307135428 282652200
" />
<path d="M308992571 282795057
L309492571 282795057
" />
<path d="M309706857 283580771
L308992571 283580771
L308992571 282080771
L309706857 282080771
" />
<path d="M310349714 283437914
L310421142 283509342
L310349714 283580771
L310278285 283509342
L310349714 283437914
L310349714 283580771
" />
<path d="M311064000 283580771
L311064000 282080771
L311421142 282080771
L311635428 282152200
L311778285 282295057
L311849714 282437914
L311921142 282723628
L311921142 282937914
L311849714 283223628
L311778285 283366485
L311635428 283509342
L311421142 283580771
L311064000 283580771
" />
<path d="M312564000 283437914
L312635428 283509342
L312564000 283580771
L312492571 283509342
L312564000 283437914
L312564000 283580771
" />
<path d="M313206857 283152200
L313921142 283152200
" />
<path d="M313064000 283580771
L313564000 282080771
L314064000 283580771
" />
<path d="M314564000 283437914
L314635428 283509342
L314564000 283580771
L314492571 283509342
L314564000 283437914
L314564000 283580771
" />
<path d="M317564000 283580771
L317564000 282080771
" />
<path d="M317706857 283009342
L318135428 283580771
" />
<path d="M318135428 282580771
L317564000 283152200
" />
<path d="M318778285 283580771
L318778285 282580771
" />
<path d="M318778285 282080771
L318706857 282152200
L318778285 282223628
L318849714 282152200
L318778285 282080771
L318778285 282223628
" />
<path d="M320135428 283509342
L319992571 283580771
L319706857 283580771
L319564000 283509342
L319492571 283437914
L319421142 283295057
L319421142 282866485
L319492571 282723628
L319564000 282652200
L319706857 282580771
L319992571 282580771
L320135428 282652200
" />
<path d="M321421142 283580771
L321421142 282795057
L321349714 282652200
L321206857 282580771
L320921142 282580771
L320778285 282652200
" />
<path d="M321421142 283509342
L321278285 283580771
L320921142 283580771
L320778285 283509342
L320706857 283366485
L320706857 283223628
L320778285 283080771
L320921142 283009342
L321278285 283009342
L321421142 282937914
" />
<path d="M322778285 283580771
L322778285 282080771
" />
<path d="M322778285 283509342
L322635428 283580771
L322349714 283580771
L322206857 283509342
L322135428 283437914
L322064000 283295057
L322064000 282866485
L322135428 282723628
L322206857 282652200
L322349714 282580771
L322635428 282580771
L322778285 282652200
" />
<path d="M325064000 284152200
L324992571 284080771
L324849714 283866485
L324778285 283723628
L324706857 283509342
L324635428 283152200
L324635428 282866485
L324706857 282509342
L324778285 282295057
L324849714 282152200
L324992571 281937914
L325064000 281866485
" />
<path d="M326278285 282080771
L325992571 282080771
L325849714 282152200
L325778285 282223628
L325635428 282437914
L325564000 282723628
L325564000 283295057
L325635428 283437914
L325706857 283509342
L325849714 283580771
L326135428 283580771
L326278285 283509342
L326349714 283437914
L326421142 283295057
L326421142 282937914
L326349714 282795057
L326278285 282723628
L326135428 282652200
L325849714 282652200
L325706857 282723628
L325635428 282795057
L325564000 282937914
" />
<path d="M327064000 283437914
L327135428 283509342
L327064000 283580771
L326992571 283509342
L327064000 283437914
L327064000 283580771
" />
<path d="M328064000 282080771
L328206857 282080771
L328349714 282152200
L328421142 282223628
L328492571 282366485
L328564000 282652200
L328564000 283009342
L328492571 283295057
L328421142 283437914
L328349714 283509342
L328206857 283580771
L328064000 283580771
L327921142 283509342
L327849714 283437914
L327778285 283295057
L327706857 283009342
L327706857 282652200
L327778285 282366485
L327849714 282223628
L327921142 282152200
L328064000 282080771
" />
<path d="M329206857 283437914
L329278285 283509342
L329206857 283580771
L329135428 283509342
L329206857 283437914
L329206857 283580771
" />
<path d="M330706857 283580771
L329849714 283580771
" />
<path d="M330278285 283580771
L330278285 282080771
L330135428 282295057
L329992571 282437914
L329849714 282509342
" />
<path d="M331635428 282080771
L331778285 282080771
L331921142 282152200
L331992571 282223628
L332064000 282366485
L332135428 282652200
L332135428 283009342
L332064000 283295057
L331992571 283437914
L331921142 283509342
L331778285 283580771
L331635428 283580771
L331492571 283509342
L331421142 283437914
L331349714 283295057
L331278285 283009342
L331278285 282652200
L331349714 282366485
L331421142 282223628
L331492571 282152200
L331635428 282080771
" />
<path d="M332635428 284152200
L332706857 284080771
L332849714 283866485
L332921142 283723628
L332992571 283509342
L333064000 283152200
L333064000 282866485
L332992571 282509342
L332921142 282295057
L332849714 282152200
L332706857 281937914
L332635428 281866485
" />
</g></g>
<g style="fill:#000000; fill-opacity:0.0; 
stroke:#000000; stroke-width:21200.000000; stroke-opacity:1; 
stroke-linecap:round; stroke-linejoin:round;">
</g>
<g style="fill:#000000; fill-opacity:0.0; 
stroke:#000000; stroke-width:150000.000000; stroke-opacity:1; 
stroke-linecap:round; stroke-linejoin:round;">
<path d="M299989000 278502200
L407989000 278502200
" />
</g>
<g style="fill:#000000; fill-opacity:0.0; 
stroke:#000000; stroke-width:21200.000000; stroke-opacity:1; 
stroke-linecap:round; stroke-linejoin:round;">
</g>
<g style="fill:#000000; fill-opacity:0.0; 
stroke:#000000; stroke-width:300000.000000; stroke-opacity:1; 
stroke-linecap:round; stroke-linejoin:round;">
<text x="385989000.000000" y="280852200.000000"
textLength="5935714.000000" font-size="2000000.000000" lengthAdjust="spacingAndGlyphs"
text-anchor="start" opacity="0">Rev: </text>
<g class="stroked-text"><desc>Rev: </desc>
<path d="M387398285 280780771
L386898285 280066485
" />
<path d="M386541142 280780771
L386541142 279280771
L387112571 279280771
L387255428 279352200
L387326857 279423628
L387398285 279566485
L387398285 279780771
L387326857 279923628
L387255428 279995057
L387112571 280066485
L386541142 280066485
" />
<path d="M388612571 280709342
L388469714 280780771
L388184000 280780771
L388041142 280709342
L387969714 280566485
L387969714 279995057
L388041142 279852200
L388184000 279780771
L388469714 279780771
L388612571 279852200
L388684000 279995057
L388684000 280137914
L387969714 280280771
" />
<path d="M389184000 279780771
L389541142 280780771
L389898285 279780771
" />
<path d="M390469714 280637914
L390541142 280709342
L390469714 280780771
L390398285 280709342
L390469714 280637914
L390469714 280780771
" />
<path d="M390469714 279852200
L390541142 279923628
L390469714 279995057
L390398285 279923628
L390469714 279852200
L390469714 279995057
" />
</g></g>
<g style="fill:#000000; fill-opacity:0.0; 
stroke:#000000; stroke-width:21200.000000; stroke-opacity:1; 
stroke-linecap:round; stroke-linejoin:round;">
</g>
<g style="fill:#000000; fill-opacity:0.0; 
stroke:#000000; stroke-width:150000.000000; stroke-opacity:1; 
stroke-linecap:round; stroke-linejoin:round;">
<text x="300989000.000000" y="280852200.000000"
textLength="9604286.000000" font-size="2000000.000000" lengthAdjust="spacingAndGlyphs"
text-anchor="start" opacity="0">Size: A3</text>
<g class="stroked-text"><desc>Size: A3</desc>
<path d="M301349714 280709342
L301564000 280780771
L301921142 280780771
L302064000 280709342
L302135428 280637914
L302206857 280495057
L302206857 280352200
L302135428 280209342
L302064000 280137914
L301921142 280066485
L301635428 279995057
L301492571 279923628
L301421142 279852200
L301349714 279709342
L301349714 279566485
L301421142 279423628
L301492571 279352200
L301635428 279280771
L301992571 279280771
L302206857 279352200
" />
<path d="M302849714 280780771
L302849714 279780771
" />
<path d="M302849714 279280771
L302778285 279352200
L302849714 279423628
L302921142 279352200
L302849714 279280771
L302849714 279423628
" />
<path d="M303421142 279780771
L304206857 279780771
L303421142 280780771
L304206857 280780771
" />
<path d="M305349714 280709342
L305206857 280780771
L304921142 280780771
L304778285 280709342
L304706857 280566485
L304706857 279995057
L304778285 279852200
L304921142 279780771
L305206857 279780771
L305349714 279852200
L305421142 279995057
L305421142 280137914
L304706857 280280771
" />
<path d="M306064000 280637914
L306135428 280709342
L306064000 280780771
L305992571 280709342
L306064000 280637914
L306064000 280780771
" />
<path d="M306064000 279852200
L306135428 279923628
L306064000 279995057
L305992571 279923628
L306064000 279852200
L306064000 279995057
" />
<path d="M307849714 280352200
L308564000 280352200
" />
<path d="M307706857 280780771
L308206857 279280771
L308706857 280780771
" />
<path d="M309064000 279280771
L309992571 279280771
L309492571 279852200
L309706857 279852200
L309849714 279923628
L309921142 279995057
L309992571 280137914
L309992571 280495057
L309921142 280637914
L309849714 280709342
L309706857 280780771
L309278285 280780771
L309135428 280709342
L309064000 280637914
" />
</g></g>
<g style="fill:#000000; fill-opacity:0.0; 
stroke:#000000; stroke-width:21200.000000; stroke-opacity:1; 
stroke-linecap:round; stroke-linejoin:round;">
</g>
<g style="fill:#000000; fill-opacity:0.0; 
stroke:#000000; stroke-width:150000.000000; stroke-opacity:1; 
stroke-linecap:round; stroke-linejoin:round;">
<text x="385989000.000000" y="283652200.000000"
textLength="8507143.000000" font-size="2000000.000000" lengthAdjust="spacingAndGlyphs"
text-anchor="start" opacity="0">Id: 1/1</text>
<g class="stroked-text"><desc>Id: 1/1</desc>
<path d="M386421142 283580771
L386421142 282080771
" />
<path d="M387778285 283580771
L387778285 282080771
" />
<path d="M387778285 283509342
L387635428 283580771
L387349714 283580771
L387206857 283509342
L387135428 283437914
L387064000 283295057
L387064000 282866485
L387135428 282723628
L387206857 282652200
L387349714 282580771
L387635428 282580771
L387778285 282652200
" />
<path d="M388492571 283437914
L388564000 283509342
L388492571 283580771
L388421142 283509342
L388492571 283437914
L388492571 283580771
" />
<path d="M388492571 282652200
L388564000 282723628
L388492571 282795057
L388421142 282723628
L388492571 282652200
L388492571 282795057
" />
<path d="M391135428 283580771
L390278285 283580771
" />
<path d="M390706857 283580771
L390706857 282080771
L390564000 282295057
L390421142 282437914
L390278285 282509342
" />
<path d="M392849714 282009342
L391564000 283937914
" />
<path d="M394135428 283580771
L393278285 283580771
" />
<path d="M393706857 283580771
L393706857 282080771
L393564000 282295057
L393421142 282437914
L393278285 282509342
" />
</g></g>
<g style="fill:#000000; fill-opacity:0.0; 
stroke:#000000; stroke-width:21200.000000; stroke-opacity:1; 
stroke-linecap:round; stroke-linejoin:round;">
</g>
<g style="fill:#000000; fill-opacity:0.0; 
stroke:#000000; stroke-width:150000.000000; stroke-opacity:1; 
stroke-linecap:round; stroke-linejoin:round;">
<path d="M299989000 274502200
L407989000 274502200
" />
</g>
<g style="fill:#000000; fill-opacity:0.0; 
stroke:#000000; stroke-width:21200.000000; stroke-opacity:1; 
stroke-linecap:round; stroke-linejoin:round;">
</g>
<g style="fill:#000000; fill-opacity:0.0; 
stroke:#000000; stroke-width:400000.000000; stroke-opacity:1; 
stroke-linecap:round; stroke-linejoin:round;">
<text x="300989000.000000" y="277302200.000000"
textLength="9409643.000000" font-size="2666666.000000" lengthAdjust="spacingAndGlyphs"
text-anchor="start" opacity="0">Title: </text>
<g class="stroked-text"><desc>Title: </desc>
<path d="M301701380 275206961
L302844238 275206961
" />
<path d="M302022809 277206961
L302272809 275206961
" />
<path d="M303260904 277206961
L303427571 275873628
" />
<path d="M303510904 275206961
L303403761 275302200
L303487095 275397438
L303594238 275302200
L303510904 275206961
L303487095 275397438
" />
<path d="M304094238 275873628
L304856142 275873628
" />
<path d="M304463285 275206961
L304249000 276921247
L304320428 277111723
L304499000 277206961
L304689476 277206961
" />
<path d="M305641857 277206961
L305463285 277111723
L305391857 276921247
L305606142 275206961
" />
<path d="M307177571 277111723
L306975190 277206961
L306594238 277206961
L306415666 277111723
L306344238 276921247
L306439476 276159342
L306558523 275968866
L306760904 275873628
L307141857 275873628
L307320428 275968866
L307391857 276159342
L307368047 276349819
L306391857 276540295
" />
<path d="M308141857 277016485
L308225190 277111723
L308118047 277206961
L308034714 277111723
L308141857 277016485
L308118047 277206961
" />
<path d="M308272809 275968866
L308356142 276064104
L308249000 276159342
L308165666 276064104
L308272809 275968866
L308249000 276159342
" />
</g></g>
<g style="fill:#000000; fill-opacity:0.0; 
stroke:#000000; stroke-width:21200.000000; stroke-opacity:1; 
stroke-linecap:round; stroke-linejoin:round;">
</g>
<g style="fill:#000000; fill-opacity:0.0; 
stroke:#000000; stroke-width:150000.000000; stroke-opacity:1; 
stroke-linecap:round; stroke-linejoin:round;">
<text x="300989000.000000" y="273452200.000000"
textLength="29591429.000000" font-size="2000000.000000" lengthAdjust="spacingAndGlyphs"
text-anchor="start" opacity="0">File: orthoCode.kicad_pcb</text>
<g class="stroked-text"><desc>File: orthoCode.kicad_pcb</desc>
<path d="M301921142 272595057
L301421142 272595057
" />
<path d="M301421142 273380771
L301421142 271880771
L302135428 271880771
" />
<path d="M302706857 273380771
L302706857 272380771
" />
<path d="M302706857 271880771
L302635428 271952200
L302706857 272023628
L302778285 271952200
L302706857 271880771
L302706857 272023628
" />
<path d="M303635428 273380771
L303492571 273309342
L303421142 273166485
L303421142 271880771
" />
<path d="M304778285 273309342
L304635428 273380771
L304349714 273380771
L304206857 273309342
L304135428 273166485
L304135428 272595057
L304206857 272452200
L304349714 272380771
L304635428 272380771
L304778285 272452200
L304849714 272595057
L304849714 272737914
L304135428 272880771
" />
<path d="M305492571 273237914
L305564000 273309342
L305492571 273380771
L305421142 273309342
L305492571 273237914
L305492571 273380771
" />
<path d="M305492571 272452200
L305564000 272523628
L305492571 272595057
L305421142 272523628
L305492571 272452200
L305492571 272595057
" />
<path d="M307564000 273380771
L307421142 273309342
L307349714 273237914
L307278285 273095057
L307278285 272666485
L307349714 272523628
L307421142 272452200
L307564000 272380771
L307778285 272380771
L307921142 272452200
L307992571 272523628
L308064000 272666485
L308064000 273095057
L307992571 273237914
L307921142 273309342
L307778285 273380771
L307564000 273380771
" />
<path d="M308706857 273380771
L308706857 272380771
" />
<path d="M308706857 272666485
L308778285 272523628
L308849714 272452200
L308992571 272380771
L309135428 272380771
" />
<path d="M309421142 272380771
L309992571 272380771
" />
<path d="M309635428 271880771
L309635428 273166485
L309706857 273309342
L309849714 273380771
L309992571 273380771
" />
<path d="M310492571 273380771
L310492571 271880771
" />
<path d="M311135428 273380771
L311135428 272595057
L311064000 272452200
L310921142 272380771
L310706857 272380771
L310564000 272452200
L310492571 272523628
" />
<path d="M312064000 273380771
L311921142 273309342
L311849714 273237914
L311778285 273095057
L311778285 272666485
L311849714 272523628
L311921142 272452200
L312064000 272380771
L312278285 272380771
L312421142 272452200
L312492571 272523628
L312564000 272666485
L312564000 273095057
L312492571 273237914
L312421142 273309342
L312278285 273380771
L312064000 273380771
" />
<path d="M314064000 273237914
L313992571 273309342
L313778285 273380771
L313635428 273380771
L313421142 273309342
L313278285 273166485
L313206857 273023628
L313135428 272737914
L313135428 272523628
L313206857 272237914
L313278285 272095057
L313421142 271952200
L313635428 271880771
L313778285 271880771
L313992571 271952200
L314064000 272023628
" />
<path d="M314921142 273380771
L314778285 273309342
L314706857 273237914
L314635428 273095057
L314635428 272666485
L314706857 272523628
L314778285 272452200
L314921142 272380771
L315135428 272380771
L315278285 272452200
L315349714 272523628
L315421142 272666485
L315421142 273095057
L315349714 273237914
L315278285 273309342
L315135428 273380771
L314921142 273380771
" />
<path d="M316706857 273380771
L316706857 271880771
" />
<path d="M316706857 273309342
L316564000 273380771
L316278285 273380771
L316135428 273309342
L316064000 273237914
L315992571 273095057
L315992571 272666485
L316064000 272523628
L316135428 272452200
L316278285 272380771
L316564000 272380771
L316706857 272452200
" />
<path d="M317992571 273309342
L317849714 273380771
L317564000 273380771
L317421142 273309342
L317349714 273166485
L317349714 272595057
L317421142 272452200
L317564000 272380771
L317849714 272380771
L317992571 272452200
L318064000 272595057
L318064000 272737914
L317349714 272880771
" />
<path d="M318706857 273237914
L318778285 273309342
L318706857 273380771
L318635428 273309342
L318706857 273237914
L318706857 273380771
" />
<path d="M319421142 273380771
L319421142 271880771
" />
<path d="M319564000 272809342
L319992571 273380771
" />
<path d="M319992571 272380771
L319421142 272952200
" />
<path d="M320635428 273380771
L320635428 272380771
" />
<path d="M320635428 271880771
L320564000 271952200
L320635428 272023628
L320706857 271952200
L320635428 271880771
L320635428 272023628
" />
<path d="M321992571 273309342
L321849714 273380771
L321564000 273380771
L321421142 273309342
L321349714 273237914
L321278285 273095057
L321278285 272666485
L321349714 272523628
L321421142 272452200
L321564000 272380771
L321849714 272380771
L321992571 272452200
" />
<path d="M323278285 273380771
L323278285 272595057
L323206857 272452200
L323064000 272380771
L322778285 272380771
L322635428 272452200
" />
<path d="M323278285 273309342
L323135428 273380771
L322778285 273380771
L322635428 273309342
L322564000 273166485
L322564000 273023628
L322635428 272880771
L322778285 272809342
L323135428 272809342
L323278285 272737914
" />
<path d="M324635428 273380771
L324635428 271880771
" />
<path d="M324635428 273309342
L324492571 273380771
L324206857 273380771
L324064000 273309342
L323992571 273237914
L323921142 273095057
L323921142 272666485
L323992571 272523628
L324064000 272452200
L324206857 272380771
L324492571 272380771
L324635428 272452200
" />
<path d="M324992571 273523628
L326135428 273523628
" />
<path d="M326492571 272380771
L326492571 273880771
" />
<path d="M326492571 272452200
L326635428 272380771
L326921142 272380771
L327064000 272452200
L327135428 272523628
L327206857 272666485
L327206857 273095057
L327135428 273237914
L327064000 273309342
L326921142 273380771
L326635428 273380771
L326492571 273309342
" />
<path d="M328492571 273309342
L328349714 273380771
L328064000 273380771
L327921142 273309342
L327849714 273237914
L327778285 273095057
L327778285 272666485
L327849714 272523628
L327921142 272452200
L328064000 272380771
L328349714 272380771
L328492571 272452200
" />
<path d="M329135428 273380771
L329135428 271880771
" />
<path d="M329135428 272452200
L329278285 272380771
L329564000 272380771
L329706857 272452200
L329778285 272523628
L329849714 272666485
L329849714 273095057
L329778285 273237914
L329706857 273309342
L329564000 273380771
L329278285 273380771
L329135428 273309342
" />
</g></g>
<g style="fill:#000000; fill-opacity:0.0; 
stroke:#000000; stroke-width:21200.000000; stroke-opacity:1; 
stroke-linecap:round; stroke-linejoin:round;">
</g>
<g style="fill:#000000; fill-opacity:0.0; 
stroke:#000000; stroke-width:150000.000000; stroke-opacity:1; 
stroke-linecap:round; stroke-linejoin:round;">
<path d="M299989000 268502200
L407989000 268502200
" />
</g>
<g style="fill:#000000; fill-opacity:0.0; 
stroke:#000000; stroke-width:21200.000000; stroke-opacity:1; 
stroke-linecap:round; stroke-linejoin:round;">
</g>
<g style="fill:#000000; fill-opacity:0.0; 
stroke:#000000; stroke-width:150000.000000; stroke-opacity:1; 
stroke-linecap:round; stroke-linejoin:round;">
<text x="300989000.000000" y="270752200.000000"
textLength="8221429.000000" font-size="2000000.000000" lengthAdjust="spacingAndGlyphs"
text-anchor="start" opacity="0">Sheet: </text>
<g class="stroked-text"><desc>Sheet: </desc>
<path d="M301349714 270609342
L301564000 270680771
L301921142 270680771
L302064000 270609342
L302135428 270537914
L302206857 270395057
L302206857 270252200
L302135428 270109342
L302064000 270037914
L301921142 269966485
L301635428 269895057
L301492571 269823628
L301421142 269752200
L301349714 269609342
L301349714 269466485
L301421142 269323628
L301492571 269252200
L301635428 269180771
L301992571 269180771
L302206857 269252200
" />
<path d="M302849714 270680771
L302849714 269180771
" />
<path d="M303492571 270680771
L303492571 269895057
L303421142 269752200
L303278285 269680771
L303064000 269680771
L302921142 269752200
L302849714 269823628
" />
<path d="M304778285 270609342
L304635428 270680771
L304349714 270680771
L304206857 270609342
L304135428 270466485
L304135428 269895057
L304206857 269752200
L304349714 269680771
L304635428 269680771
L304778285 269752200
L304849714 269895057
L304849714 270037914
L304135428 270180771
" />
<path d="M306064000 270609342
L305921142 270680771
L305635428 270680771
L305492571 270609342
L305421142 270466485
L305421142 269895057
L305492571 269752200
L305635428 269680771
L305921142 269680771
L306064000 269752200
L306135428 269895057
L306135428 270037914
L305421142 270180771
" />
<path d="M306564000 269680771
L307135428 269680771
" />
<path d="M306778285 269180771
L306778285 270466485
L306849714 270609342
L306992571 270680771
L307135428 270680771
" />
<path d="M307635428 270537914
L307706857 270609342
L307635428 270680771
L307564000 270609342
L307635428 270537914
L307635428 270680771
" />
<path d="M307635428 269752200
L307706857 269823628
L307635428 269895057
L307564000 269823628
L307635428 269752200
L307635428 269895057
" />
</g></g>
<g style="fill:#000000; fill-opacity:0.0; 
stroke:#000000; stroke-width:21200.000000; stroke-opacity:1; 
stroke-linecap:round; stroke-linejoin:round;">
</g>
<g style="fill:#000000; fill-opacity:0.0; 
stroke:#000000; stroke-width:300000.000000; stroke-opacity:1; 
stroke-linecap:round; stroke-linejoin:round;">
<text x="300989000.000000" y="267752200.000000"
textLength="150000.000000" font-size="2000000.000000" lengthAdjust="spacingAndGlyphs"
text-anchor="start" opacity="0"></text>
<g class="stroked-text"><desc></desc>
</g></g>
<g style="fill:#000000; fill-opacity:0.0; 
stroke:#000000; stroke-width:21200.000000; stroke-opacity:1; 
stroke-linecap:round; stroke-linejoin:round;">
</g>
<g style="fill:#000000; fill-opacity:0.0; 
stroke:#000000; stroke-width:150000.000000; stroke-opacity:1; 
stroke-linecap:round; stroke-linejoin:round;">
<text x="300989000.000000" y="264752200.000000"
textLength="300000.000000" font-size="2000000.000000" lengthAdjust="spacingAndGlyphs"
text-anchor="start" opacity="0"></text>
<g class="stroked-text"><desc></desc>
</g></g>
<g style="fill:#000000; fill-opacity:0.0; 
stroke:#000000; stroke-width:21200.000000; stroke-opacity:1; 
stroke-linecap:round; stroke-linejoin:round;">
</g>
<g style="fill:#000000; fill-opacity:0.0; 
stroke:#000000; stroke-width:150000.000000; stroke-opacity:1; 
stroke-linecap:round; stroke-linejoin:round;">
<text x="300989000.000000" y="261752200.000000"
textLength="150000.000000" font-size="2000000.000000" lengthAdjust="spacingAndGlyphs"
text-anchor="start" opacity="0"></text>
<g class="stroked-text"><desc></desc>
</g></g>
<g style="fill:#000000; fill-opacity:0.0; 
stroke:#000000; stroke-width:21200.000000; stroke-opacity:1; 
stroke-linecap:round; stroke-linejoin:round;">
</g>
<g style="fill:#000000; fill-opacity:0.0; 
stroke:#000000; stroke-width:150000.000000; stroke-opacity:1; 
stroke-linecap:round; stroke-linejoin:round;">
<text x="300989000.000000" y="258752200.000000"
textLength="150000.000000" font-size="2000000.000000" lengthAdjust="spacingAndGlyphs"
text-anchor="start" opacity="0"></text>
<g class="stroked-text"><desc></desc>
</g></g>
<g style="fill:#000000; fill-opacity:0.0; 
stroke:#000000; stroke-width:21200.000000; stroke-opacity:1; 
stroke-linecap:round; stroke-linejoin:round;">
</g>
<g style="fill:#000000; fill-opacity:0.0; 
stroke:#000000; stroke-width:150000.000000; stroke-opacity:1; 
stroke-linecap:round; stroke-linejoin:round;">
<text x="300989000.000000" y="255752200.000000"
textLength="150000.000000" font-size="2000000.000000" lengthAdjust="spacingAndGlyphs"
text-anchor="start" opacity="0"></text>
<g class="stroked-text"><desc></desc>
</g></g>
<g style="fill:#000000; fill-opacity:0.0; 
stroke:#000000; stroke-width:21200.000000; stroke-opacity:1; 
stroke-linecap:round; stroke-linejoin:round;">
</g>
<g style="fill:#000000; fill-opacity:0.0; 
stroke:#000000; stroke-width:150000.000000; stroke-opacity:1; 
stroke-linecap:round; stroke-linejoin:round;">
<path d="M319989000 278502200
L319989000 281502200
" />
</g>
<g style="fill:#000000; fill-opacity:0.0; 
stroke:#000000; stroke-width:21200.000000; stroke-opacity:1; 
stroke-linecap:round; stroke-linejoin:round;">
</g>
<g style="fill:#000000; fill-opacity:0.0; 
stroke:#000000; stroke-width:150000.000000; stroke-opacity:1; 
stroke-linecap:round; stroke-linejoin:round;">
<path d="M383989000 278502200
L383989000 285002200
" />
</g>
<g style="fill:#000000; fill-opacity:0.0; 
stroke:#000000; stroke-width:50000.000000; stroke-opacity:1; 
stroke-linecap:round; stroke-linejoin:round;">
<circle cx="185000000.000000" cy="73000000.000000" r="2800000.000000" /> 
<path d="M386978680.000133 151999979.999933 A2999980.000000 2999980.000000 0.0 0 0 389978680.000000 149000000.000000" />
<circle cx="224500000.000000" cy="62000000.000000" r="2800000.000000" /> 
<path d="M184200000.000000 64400000.000000 A3000000.000000 3000000.000000 0.0 0 0 187200000.000000 67400000.000000" />
<circle cx="274000000.000000" cy="147000000.000000" r="2800000.000000" /> 
<path d="M274000000.544764 152007245.094330 A5214835.000000 5214835.000000 0.0 0 0 270000000.176652 154000000.138747" />
<path d="M29000000 152000000
L131000000 152007217
" />
<circle cx="385000000.000000" cy="62000000.000000" r="2800000.000000" /> 
<path d="M243099201 189000001
L161900799 189000000
" />
<circle cx="163000000.000000" cy="183000000.000000" r="2800000.000000" /> 
<circle cx="242000000.000000" cy="183000000.000000" r="2800000.000000" /> 
<path d="M218000000.000000 67400000.000000 A3000000.000000 3000000.000000 0.0 0 0 221000000.000000 64400000.000000" />
<path d="M29000000.000000 57500000.000000 A3000000.000000 3000000.000000 0.0 0 0 26000000.000000 60500000.000000" />
<circle cx="31000000.000000" cy="147000000.000000" r="2800000.000000" /> 
<path d="M26000000 60500000
L26000000 149000000
" />
<path d="M270000000 154000000
L247000000 187000601
" />
<path d="M187200000 67400000
L218000000 67400000
" />
<path d="M221000000 60521320
L221000000 64400000
" />
<path d="M389978680 60521320
L389978680 149000000
" />
<path d="M26000000.000000 149000000.000000 A3000000.000000 3000000.000000 0.0 0 0 29000000.000000 152000000.000000" />
<path d="M184199979.999933 60521319.999867 A2999980.000000 2999980.000000 0.0 0 0 181200000.000000 57521320.000000" />
<path d="M181200000 57521320
L29000000 57500000
" />
<circle cx="31000000.000000" cy="62000000.000000" r="2800000.000000" /> 
<path d="M184200000 60521320
L184200000 64400000
" />
<path d="M386978680 152000000
L274000000 152007217
" />
<circle cx="220000000.000000" cy="73000000.000000" r="2800000.000000" /> 
<path d="M243099201.001603 189000001.080168 A5001001.000000 5001001.000000 0.0 0 0 247000000.320000 187000601.240000" />
<path d="M158000000.000000 187000600.000000 A5001000.000000 5001000.000000 0.0 0 0 161900798.998401 189000000.079968" />
<circle cx="220000000.000000" cy="104000000.000000" r="2800000.000000" /> 
<path d="M386978680 57521320
L224000000 57521320
" />
<path d="M135000000 154000000
L158000000 187000600
" />
<circle cx="180500000.000000" cy="62000000.000000" r="2800000.000000" /> 
<path d="M389978679.999933 60521320.000000 A2999980.000000 2999980.000000 0.0 0 0 386978680.000000 57521320.000067" />
<circle cx="384000000.000000" cy="128000000.000000" r="2800000.000000" /> 
<circle cx="185000000.000000" cy="104000000.000000" r="2800000.000000" /> 
<circle cx="126000000.000000" cy="147000000.000000" r="2800000.000000" /> 
<path d="M224000000.000000 57521300.000000 A3000000.000000 3000000.000000 0.0 0 0 221000000.000067 60521320.000000" />
<path d="M134999991.776046 154000006.459085 A5214763.000000 5214763.000000 0.0 0 0 130999999.997704 152007217.118384" />
<g >
</g>
<g >
</g>
<g >
</g>
<g >
</g>
<g >
</g>
<g >
</g>
<g >
</g>
<g >
</g>
<g >
</g>
<g >
</g>
<g >
</g>
<g >
</g>
<g >
</g>
<g >
</g>
<g >
</g>
<g >
</g>
<g >
</g>
<g >
</g>
<g >
</g>
<g >
</g>
<g >
</g>
<g >
</g>
<g >
</g>
<g >
</g>
<g >
</g>
<g >
</g>
<g >
</g>
<g >
</g>
<g >
</g>
<g >
</g>
<g >
</g>
<g >
</g>
<g >
</g>
<g >
</g>
<g >
</g>
<g >
</g>
<g >
</g>
<g >
</g>
<g >
</g>
<g >
</g>
<g >
</g>
<g >
</g>
<g >
</g>
<g >
</g>
<g >
</g>
<g >
</g>
<g >
</g>
<g >
</g>
<g >
</g>
<g >
</g>
<g >
</g>
<g >
</g>
<g >
</g>
<g >
</g>
<g >
</g>
<g >
</g>
<g >
</g>
<g >
</g>
<g >
</g>
<g >
</g>
<g >
</g>
<g >
</g>
<g >
</g>
<g >
</g>
<g >
</g>
<g >
</g>
<g >
</g>
<g >
</g>
<g >
</g>
<g >
</g>
<g >
</g>
<g >
</g>
<g >
</g>
<g >
</g>
<g >
</g>
<g >
</g>
<g >
</g>
<g >
</g>
<g >
</g>
<g >
</g>
<g >
</g>
<g >
</g>
<g >
</g>
<g >
</g>
<g >
</g>
<g >
</g>
<g >
</g>
<g >
</g>
<g >
</g>
<g >
</g>
<g >
</g>
<g >
</g>
<g >
</g>
<g >
</g>
<g >
</g>
<g >
</g>
<g >
</g>
<g >
</g>
<g >
</g>
<g >
</g>
<g >
</g>
<g >
</g>
<g >
</g>
<g >
</g>
<g >
</g>
<g >
</g>
<g >
</g>
<g >
</g>
<g >
</g>
<g >
</g>
<g >
</g>
<g >
</g>
<g >
</g>
<g >
</g>
<g >
</g>
<g >
</g>
<g >
</g>
<g >
</g>
<g >
</g>
<g >
</g>
<g >
</g>
<g >
</g>
<g >
</g>
<g >
</g>
<g >
</g>
<g >
</g>
<g >
</g>
<g >
</g>
<g >
</g>
<g >
</g>
<g >
</g>
<g >
</g>
<g >
</g>
<g >
</g>
<g >
</g>
<g >
</g>
<g >
</g>
<g >
</g>
<g >
</g>
<g >
</g>
<g >
</g>
<g >
</g>
<g >
</g>
<g >
</g>
<g >
</g>
<g >
</g>
<g >
</g>
<g >
</g>
<g >
</g>
<g >
</g>
<g >
</g>
<g >
</g>
<g >
</g>
<g >
</g>
<g >
</g>
<g >
</g>
<g >
</g>
<g >
</g>
<g >
</g>
<g >
</g>
<g >
</g>
<g >
</g>
<g >
</g>
<g >
</g>
<g >
</g>
</g> 
</svg>
