M48
; DRILL file {KiCad (6.0.10)} date Tue Feb  7 21:59:56 2023
; FORMAT={-:-/ absolute / inch / decimal}
; #@! TF.CreationDate,2023-02-07T21:59:56+13:00
; #@! TF.GenerationSoftware,Kicad,Pcbnew,(6.0.10)
; #@! TF.FileFunction,Plated,1,2,PTH
FMAT,2
INCH
; #@! TA.AperFunction,Plated,PTH,ViaDrill
T1C0.0079
; #@! TA.AperFunction,Plated,PTH,ViaDrill
T2C0.0157
; #@! TA.AperFunction,Plated,PTH,ComponentDrill
T3C0.0256
; #@! TA.AperFunction,Plated,PTH,ComponentDrill
T4C0.0433
; #@! TA.AperFunction,Plated,PTH,ComponentDrill
T5C0.0472
; #@! TA.AperFunction,Plated,PTH,ComponentDrill
T6C0.0630
%
G90
G05
T1
X7.7795Y-3.6142
X7.8543Y-3.0669
X7.8622Y-3.8386
X7.8661Y-3.6142
X7.9386Y-2.919
X7.9488Y-2.9724
X7.9606Y-3.8898
X7.9764Y-2.9213
X7.9882Y-2.9803
X7.9882Y-3.9961
X8.0039Y-3.9409
X8.0079Y-3.0
X8.0197Y-3.2323
X8.0236Y-3.4882
X8.063Y-4.0433
X8.1181Y-3.8976
X8.124Y-3.8307
X8.1654Y-3.5039
X8.2126Y-3.5591
X8.2283Y-3.7874
X8.2362Y-3.0433
X8.248Y-3.878
X9.4055Y-5.626
X9.437Y-5.5472
X9.5118Y-5.7362
X9.5748Y-5.685
T2
X6.4488Y-4.4528
X7.1811Y-4.5236
X7.189Y-4.2638
X7.2677Y-3.7402
X7.3543Y-3.7717
X7.4685Y-3.752
X8.0467Y-4.5192
X8.5236Y-3.6417
X8.5669Y-3.6417
X8.9803Y-3.7126
X8.9921Y-4.5276
T4
X7.5807Y-4.6417
X7.5807Y-4.8189
X7.8366Y-4.6417
X7.8366Y-4.8189
X8.0768Y-4.6417
X8.0768Y-4.8189
X8.3327Y-4.6417
X8.3327Y-4.8189
T5
X1.4062Y-3.8927
X1.5938Y-3.1427
X1.6031Y-3.9754
X1.7812Y-2.3927
X1.7906Y-3.2254
X1.9781Y-2.4754
X2.4375Y-4.6427
X2.4375Y-5.3927
X2.625Y-3.8927
X2.6344Y-4.7254
X2.6344Y-5.4754
X2.7188Y-2.3927
X2.7188Y-3.1427
X2.8219Y-3.9754
X2.9156Y-2.4754
X2.9156Y-3.2254
X3.375Y-5.3927
X3.5719Y-5.4754
X3.6562Y-2.3927
X3.6562Y-3.1427
X3.6562Y-3.8927
X3.6562Y-4.6427
X3.8531Y-2.4754
X3.8531Y-3.2254
X3.8531Y-3.9754
X3.8531Y-4.7254
X4.3125Y-5.3927
X4.4062Y-2.3927
X4.4062Y-3.1427
X4.4062Y-3.8927
X4.4062Y-4.6427
X4.5094Y-5.4754
X4.6031Y-2.4754
X4.6031Y-3.2254
X4.6031Y-3.9754
X4.6031Y-4.7254
X5.1562Y-2.3927
X5.1562Y-3.1427
X5.1562Y-3.8927
X5.1562Y-4.6427
X5.3531Y-2.4754
X5.3531Y-3.2254
X5.3531Y-3.9754
X5.3531Y-4.7254
X5.625Y-5.3927
X5.8219Y-5.4754
X5.9062Y-2.3927
X5.9062Y-3.1427
X5.9062Y-3.8927
X5.9062Y-4.6427
X6.1031Y-2.4754
X6.1031Y-3.2254
X6.1031Y-3.9754
X6.1031Y-4.7254
X6.6561Y-6.6976
X6.6562Y-2.3927
X6.6562Y-3.1427
X6.6562Y-3.8927
X6.6562Y-4.6427
X6.7869Y-6.5289
X6.8531Y-2.4754
X6.8531Y-3.2254
X6.8531Y-3.9754
X6.8531Y-4.7254
X7.0881Y-6.5961
X7.2189Y-6.4274
X8.8205Y-6.8077
X8.8494Y-6.5961
X9.1506Y-6.5289
X9.1795Y-6.3173
X9.2812Y-2.3927
X9.2812Y-3.1427
X9.2812Y-3.8927
X9.2812Y-4.6427
X9.4781Y-2.4754
X9.4781Y-3.2254
X9.4781Y-3.9754
X9.4781Y-4.7254
X10.0312Y-2.3927
X10.0312Y-3.1427
X10.0312Y-3.8927
X10.0312Y-4.6427
X10.2281Y-2.4754
X10.2281Y-3.2254
X10.2281Y-3.9754
X10.2281Y-4.7254
X10.3125Y-5.3927
X10.5094Y-5.4754
X10.7812Y-2.3927
X10.7812Y-3.1427
X10.7812Y-3.8927
X10.7812Y-4.6427
X10.9781Y-2.4754
X10.9781Y-3.2254
X10.9781Y-3.9754
X10.9781Y-4.7254
X11.25Y-5.3927
X11.4469Y-5.4754
X11.5312Y-2.3927
X11.5312Y-3.1427
X11.5312Y-3.8927
X11.5312Y-4.6427
X11.7281Y-2.4754
X11.7281Y-3.2254
X11.7281Y-3.9754
X11.7281Y-4.7254
X12.1875Y-5.3927
X12.2812Y-2.3927
X12.2812Y-3.1427
X12.2812Y-3.8927
X12.2812Y-4.6427
X12.3844Y-5.4754
X12.4781Y-2.4754
X12.4781Y-3.2254
X12.4781Y-3.9754
X12.4781Y-4.7254
X13.0312Y-2.3927
X13.0312Y-3.8927
X13.2188Y-3.1427
X13.2281Y-2.4754
X13.2281Y-3.9754
X13.4062Y-5.3927
X13.4156Y-3.2254
X13.6031Y-5.4754
X13.7812Y-2.3927
X13.9781Y-2.4754
X14.1562Y-3.1427
X14.1562Y-4.6427
X14.1562Y-5.3927
X14.25Y-3.8927
X14.3531Y-3.2254
X14.3531Y-4.7254
X14.3531Y-5.4754
X14.4469Y-3.9754
X14.5312Y-2.3927
X14.7281Y-2.4754
X14.9062Y-3.1427
X14.9062Y-5.3927
X15.1031Y-3.2254
X15.1031Y-5.4754
T6
X1.2094Y-4.3278
X1.3969Y-3.5778
X1.5844Y-2.8278
X2.2406Y-5.0778
X2.2406Y-5.8278
X2.4281Y-4.3278
X2.5219Y-2.8278
X2.5219Y-3.5778
X3.1781Y-5.8278
X3.4594Y-2.8278
X3.4594Y-3.5778
X3.4594Y-4.3278
X3.4594Y-5.0778
X4.1156Y-5.8278
X4.2094Y-2.8278
X4.2094Y-3.5778
X4.2094Y-4.3278
X4.2094Y-5.0778
X4.9594Y-2.8278
X4.9594Y-3.5778
X4.9594Y-4.3278
X4.9594Y-5.0778
X5.4281Y-5.8278
X5.7094Y-2.8278
X5.7094Y-3.5778
X5.7094Y-4.3278
X5.7094Y-5.0778
X6.4176Y-6.2261
X6.4594Y-2.8278
X6.4594Y-3.5778
X6.4594Y-4.3278
X6.4594Y-5.0778
X7.4574Y-6.8989
X8.3782Y-6.5186
X9.0844Y-2.8278
X9.0844Y-3.5778
X9.0844Y-4.3278
X9.0844Y-5.0778
X9.6218Y-6.6064
X9.8344Y-2.8278
X9.8344Y-3.5778
X9.8344Y-4.3278
X9.8344Y-5.0778
X10.1156Y-5.8278
X10.5844Y-2.8278
X10.5844Y-3.5778
X10.5844Y-4.3278
X10.5844Y-5.0778
X11.0531Y-5.8278
X11.3344Y-2.8278
X11.3344Y-3.5778
X11.3344Y-4.3278
X11.3344Y-5.0778
X11.9906Y-5.8278
X12.0844Y-2.8278
X12.0844Y-3.5778
X12.0844Y-4.3278
X12.0844Y-5.0778
X12.8344Y-2.8278
X12.8344Y-4.3278
X13.0219Y-3.5778
X13.2094Y-5.8278
X13.5844Y-2.8278
X13.9594Y-3.5778
X13.9594Y-5.0778
X13.9594Y-5.8278
X14.0531Y-4.3278
X14.3344Y-2.8278
X14.7094Y-3.5778
X14.7094Y-5.8278
T3
G00X7.7984Y-2.751
M15
G01X7.7984Y-2.6909
M16
G05
G00X7.7984Y-2.9532
M15
G01X7.7984Y-2.9108
M16
G05
G00X8.1386Y-2.751
M15
G01X8.1386Y-2.6909
M16
G05
G00X8.1386Y-2.9527
M15
G01X8.1386Y-2.9113
M16
G05
T0
M30
