%TF.GenerationSoftware,KiCad,Pcbnew,(6.0.10)*%
%TF.CreationDate,2023-02-07T21:59:56+13:00*%
%TF.ProjectId,orthoCode,6f727468-6f43-46f6-9465-2e6b69636164,rev?*%
%TF.SameCoordinates,Original*%
%TF.FileFunction,Paste,Top*%
%TF.FilePolarity,Positive*%
%FSLAX46Y46*%
G04 Gerber Fmt 4.6, Leading zero omitted, Abs format (unit mm)*
G04 Created by KiCad (PCBNEW (6.0.10)) date 2023-02-07 21:59:56*
%MOMM*%
%LPD*%
G01*
G04 APERTURE LIST*
G04 Aperture macros list*
%AMRoundRect*
0 Rectangle with rounded corners*
0 $1 Rounding radius*
0 $2 $3 $4 $5 $6 $7 $8 $9 X,Y pos of 4 corners*
0 Add a 4 corners polygon primitive as box body*
4,1,4,$2,$3,$4,$5,$6,$7,$8,$9,$2,$3,0*
0 Add four circle primitives for the rounded corners*
1,1,$1+$1,$2,$3*
1,1,$1+$1,$4,$5*
1,1,$1+$1,$6,$7*
1,1,$1+$1,$8,$9*
0 Add four rect primitives between the rounded corners*
20,1,$1+$1,$2,$3,$4,$5,0*
20,1,$1+$1,$4,$5,$6,$7,0*
20,1,$1+$1,$6,$7,$8,$9,0*
20,1,$1+$1,$8,$9,$2,$3,0*%
%AMRotRect*
0 Rectangle, with rotation*
0 The origin of the aperture is its center*
0 $1 length*
0 $2 width*
0 $3 Rotation angle, in degrees counterclockwise*
0 Add horizontal line*
21,1,$1,$2,0,0,$3*%
G04 Aperture macros list end*
%ADD10RotRect,1.400000X1.200000X45.000000*%
%ADD11RoundRect,0.250000X0.250000X0.475000X-0.250000X0.475000X-0.250000X-0.475000X0.250000X-0.475000X0*%
%ADD12R,0.450000X0.600000*%
%ADD13R,0.600000X0.450000*%
%ADD14RoundRect,0.250000X-0.250000X-0.475000X0.250000X-0.475000X0.250000X0.475000X-0.250000X0.475000X0*%
%ADD15RoundRect,0.250000X0.450000X-0.262500X0.450000X0.262500X-0.450000X0.262500X-0.450000X-0.262500X0*%
%ADD16RoundRect,0.250000X0.262500X0.450000X-0.262500X0.450000X-0.262500X-0.450000X0.262500X-0.450000X0*%
%ADD17RoundRect,0.250000X-0.262500X-0.450000X0.262500X-0.450000X0.262500X0.450000X-0.262500X0.450000X0*%
%ADD18R,0.300000X0.700000*%
%ADD19R,1.000000X0.700000*%
%ADD20RoundRect,0.250000X0.475000X-0.250000X0.475000X0.250000X-0.475000X0.250000X-0.475000X-0.250000X0*%
%ADD21RoundRect,0.062500X-0.475000X0.062500X-0.475000X-0.062500X0.475000X-0.062500X0.475000X0.062500X0*%
%ADD22RoundRect,0.062500X-0.062500X0.475000X-0.062500X-0.475000X0.062500X-0.475000X0.062500X0.475000X0*%
%ADD23RoundRect,0.250000X-0.275000X0.275000X-0.275000X-0.275000X0.275000X-0.275000X0.275000X0.275000X0*%
%ADD24RoundRect,0.250000X-0.475000X0.250000X-0.475000X-0.250000X0.475000X-0.250000X0.475000X0.250000X0*%
G04 APERTURE END LIST*
D10*
%TO.C,X1*%
X194723223Y-95578858D03*
X196278858Y-94023223D03*
X195076777Y-92821142D03*
X193521142Y-94376777D03*
%TD*%
D11*
%TO.C,C1*%
X195200000Y-98000000D03*
X193300000Y-98000000D03*
%TD*%
%TO.C,C2*%
X195200000Y-90250000D03*
X193300000Y-90250000D03*
%TD*%
D12*
%TO.C,D1:8*%
X234200000Y-151950000D03*
X234200000Y-154050000D03*
%TD*%
%TO.C,D1:1*%
X71400000Y-133750000D03*
X71400000Y-135850000D03*
%TD*%
%TO.C,D1:2*%
X95200000Y-133750000D03*
X95200000Y-135850000D03*
%TD*%
%TO.C,D1:3*%
X119400000Y-133750000D03*
X119400000Y-135850000D03*
%TD*%
%TO.C,D1:4*%
X152000000Y-133750000D03*
X152000000Y-135850000D03*
%TD*%
%TO.C,D1:5*%
X170200000Y-153350000D03*
X170200000Y-155450000D03*
%TD*%
%TO.C,D1:6*%
X187960000Y-156950000D03*
X187960000Y-159050000D03*
%TD*%
%TO.C,D1:7*%
X221000000Y-156950000D03*
X221000000Y-159050000D03*
%TD*%
%TO.C,D1:9*%
X272500000Y-133570000D03*
X272500000Y-135670000D03*
%TD*%
%TO.C,D1:10*%
X296000000Y-133570000D03*
X296000000Y-135670000D03*
%TD*%
%TO.C,D1:11*%
X320040000Y-133570000D03*
X320040000Y-135670000D03*
%TD*%
%TO.C,D1:12*%
X350000000Y-133550000D03*
X350000000Y-135650000D03*
%TD*%
%TO.C,D1:13*%
X369000000Y-133350000D03*
X369000000Y-135450000D03*
%TD*%
D13*
%TO.C,D1:14*%
X373050000Y-133050000D03*
X375150000Y-133050000D03*
%TD*%
D12*
%TO.C,D2:1*%
X72600000Y-114950000D03*
X72600000Y-117050000D03*
%TD*%
%TO.C,D2:2*%
X102400000Y-114950000D03*
X102400000Y-117050000D03*
%TD*%
%TO.C,D2:3*%
X121400000Y-114950000D03*
X121400000Y-117050000D03*
%TD*%
%TO.C,D2:4*%
X140600000Y-114950000D03*
X140600000Y-117050000D03*
%TD*%
%TO.C,D2:5*%
X159600000Y-114950000D03*
X159600000Y-117050000D03*
%TD*%
%TO.C,D2:6*%
X178400000Y-114950000D03*
X178400000Y-117050000D03*
%TD*%
%TO.C,D2:7*%
X245200000Y-114950000D03*
X245200000Y-117050000D03*
%TD*%
%TO.C,D2:8*%
X264400000Y-114950000D03*
X264400000Y-117050000D03*
%TD*%
%TO.C,D2:9*%
X283400000Y-114950000D03*
X283400000Y-117050000D03*
%TD*%
%TO.C,D2:10*%
X302400000Y-114950000D03*
X302400000Y-117050000D03*
%TD*%
%TO.C,D2:11*%
X321980000Y-114950000D03*
X321980000Y-117050000D03*
%TD*%
%TO.C,D2:13*%
X372000000Y-114950000D03*
X372000000Y-117050000D03*
%TD*%
%TO.C,D3:0*%
X45000000Y-94550000D03*
X45000000Y-96650000D03*
%TD*%
%TO.C,D3:1*%
X76400000Y-94550000D03*
X76400000Y-96650000D03*
%TD*%
%TO.C,D3:2*%
X102420000Y-94550000D03*
X102420000Y-96650000D03*
%TD*%
%TO.C,D3:3*%
X121400000Y-94550000D03*
X121400000Y-96650000D03*
%TD*%
%TO.C,D3:4*%
X140520000Y-94550000D03*
X140520000Y-96650000D03*
%TD*%
%TO.C,D3:5*%
X159600000Y-94550000D03*
X159600000Y-96650000D03*
%TD*%
%TO.C,D3:6*%
X178000000Y-94550000D03*
X178000000Y-96650000D03*
%TD*%
%TO.C,D3:7*%
X245400000Y-94950000D03*
X245400000Y-97050000D03*
%TD*%
%TO.C,D3:8*%
X264400000Y-94950000D03*
X264400000Y-97050000D03*
%TD*%
%TO.C,D3:9*%
X283600000Y-94950000D03*
X283600000Y-97050000D03*
%TD*%
%TO.C,D3:10*%
X302600000Y-94950000D03*
X302600000Y-97050000D03*
%TD*%
%TO.C,D3:11*%
X321400000Y-94950000D03*
X321400000Y-97050000D03*
%TD*%
%TO.C,D3:12*%
X340800000Y-94950000D03*
X340800000Y-97050000D03*
%TD*%
%TO.C,D3:13*%
X371660000Y-95000000D03*
X371660000Y-97100000D03*
%TD*%
%TO.C,D4:0*%
X54400000Y-76950000D03*
X54400000Y-79050000D03*
%TD*%
%TO.C,D4:1*%
X78200000Y-76950000D03*
X78200000Y-79050000D03*
%TD*%
%TO.C,D4:2*%
X101850000Y-77015000D03*
X101850000Y-79115000D03*
%TD*%
%TO.C,D4:3*%
X121400000Y-76950000D03*
X121400000Y-79050000D03*
%TD*%
%TO.C,D4:4*%
X140400000Y-76950000D03*
X140400000Y-79050000D03*
%TD*%
%TO.C,D4:5*%
X159600000Y-76950000D03*
X159600000Y-79050000D03*
%TD*%
%TO.C,D4:6*%
X178000000Y-76950000D03*
X178000000Y-79050000D03*
%TD*%
%TO.C,D4:7*%
X245200000Y-77150000D03*
X245200000Y-79250000D03*
%TD*%
%TO.C,D4:8*%
X264600000Y-77150000D03*
X264600000Y-79250000D03*
%TD*%
%TO.C,D4:9*%
X283400000Y-77015000D03*
X283400000Y-79115000D03*
%TD*%
%TO.C,D4:10*%
X302400000Y-77150000D03*
X302400000Y-79250000D03*
%TD*%
%TO.C,D4:11*%
X321700000Y-77015000D03*
X321700000Y-79115000D03*
%TD*%
%TO.C,D4:12*%
X345700000Y-77015000D03*
X345700000Y-79115000D03*
%TD*%
%TO.C,D4:13*%
X369000000Y-76950000D03*
X369000000Y-79050000D03*
%TD*%
D13*
%TO.C,D4:14*%
X381950000Y-76000000D03*
X384050000Y-76000000D03*
%TD*%
D12*
%TO.C,D5:0*%
X54400000Y-75250000D03*
X54400000Y-73150000D03*
%TD*%
%TO.C,D5:1*%
X78200000Y-75250000D03*
X78200000Y-73150000D03*
%TD*%
%TO.C,D5:2*%
X101800000Y-75250000D03*
X101800000Y-73150000D03*
%TD*%
%TO.C,D5:3*%
X121400000Y-75250000D03*
X121400000Y-73150000D03*
%TD*%
%TO.C,D5:4*%
X140400000Y-75250000D03*
X140400000Y-73150000D03*
%TD*%
%TO.C,D5:5*%
X159600000Y-75250000D03*
X159600000Y-73150000D03*
%TD*%
%TO.C,D5:6*%
X178000000Y-75250000D03*
X178000000Y-73150000D03*
%TD*%
%TO.C,D5:7*%
X245200000Y-75450000D03*
X245200000Y-73350000D03*
%TD*%
%TO.C,D5:8*%
X264600000Y-75050000D03*
X264600000Y-72950000D03*
%TD*%
%TO.C,D5:9*%
X283400000Y-75050000D03*
X283400000Y-72950000D03*
%TD*%
%TO.C,D5:10*%
X302400000Y-75050000D03*
X302400000Y-72950000D03*
%TD*%
%TO.C,D5:11*%
X321600000Y-74850000D03*
X321600000Y-72750000D03*
%TD*%
%TO.C,D5:12*%
X340400000Y-74850000D03*
X340400000Y-72750000D03*
%TD*%
%TO.C,D5:13*%
X359600000Y-74850000D03*
X359600000Y-72750000D03*
%TD*%
%TO.C,D5:14*%
X378400000Y-74850000D03*
X378400000Y-72750000D03*
%TD*%
D14*
%TO.C,C4*%
X210300000Y-91062500D03*
X212200000Y-91062500D03*
%TD*%
%TO.C,C7*%
X207250000Y-87300000D03*
X209150000Y-87300000D03*
%TD*%
%TO.C,C3*%
X210300000Y-96812500D03*
X212200000Y-96812500D03*
%TD*%
D15*
%TO.C,R1*%
X209250000Y-81225000D03*
X209250000Y-79400000D03*
%TD*%
%TO.C,R2*%
X199500000Y-81225000D03*
X199500000Y-79400000D03*
%TD*%
%TO.C,R3*%
X206000000Y-85212500D03*
X206000000Y-83387500D03*
%TD*%
%TO.C,R4*%
X203900000Y-85212500D03*
X203900000Y-83387500D03*
%TD*%
D16*
%TO.C,R5*%
X207212500Y-80300000D03*
X205387500Y-80300000D03*
%TD*%
D17*
%TO.C,R7*%
X194887500Y-113400000D03*
X196712500Y-113400000D03*
%TD*%
D14*
%TO.C,C8*%
X202250000Y-87100000D03*
X204150000Y-87100000D03*
%TD*%
D17*
%TO.C,R8*%
X207487500Y-113400000D03*
X209312500Y-113400000D03*
%TD*%
D18*
%TO.C,USB1*%
X205400000Y-74882500D03*
X204900000Y-74882500D03*
X204400000Y-74882500D03*
X203900000Y-74882500D03*
X203400000Y-74882500D03*
X202900000Y-74882500D03*
X201900000Y-74882500D03*
X201400000Y-74882500D03*
X200900000Y-74882500D03*
X200400000Y-74882500D03*
X199900000Y-74882500D03*
X199400000Y-74882500D03*
D19*
X199300000Y-73582500D03*
D18*
X200150000Y-73582500D03*
X200650000Y-73582500D03*
X201150000Y-73582500D03*
X201650000Y-73582500D03*
X202150000Y-73582500D03*
X202650000Y-73582500D03*
X203150000Y-73582500D03*
X203650000Y-73582500D03*
X204150000Y-73582500D03*
X204650000Y-73582500D03*
D19*
X205500000Y-73582500D03*
%TD*%
D20*
%TO.C,C5*%
X198500000Y-90262500D03*
X198500000Y-88362500D03*
%TD*%
D21*
%TO.C,U2*%
X207687500Y-91462500D03*
X207687500Y-91962500D03*
X207687500Y-92462500D03*
X207687500Y-92962500D03*
X207687500Y-93462500D03*
X207687500Y-93962500D03*
X207687500Y-94462500D03*
X207687500Y-94962500D03*
X207687500Y-95462500D03*
X207687500Y-95962500D03*
X207687500Y-96462500D03*
D22*
X206850000Y-97300000D03*
X206350000Y-97300000D03*
X205850000Y-97300000D03*
X205350000Y-97300000D03*
X204850000Y-97300000D03*
X204350000Y-97300000D03*
X203850000Y-97300000D03*
X203350000Y-97300000D03*
X202850000Y-97300000D03*
X202350000Y-97300000D03*
X201850000Y-97300000D03*
D21*
X201012500Y-96462500D03*
X201012500Y-95962500D03*
X201012500Y-95462500D03*
X201012500Y-94962500D03*
X201012500Y-94462500D03*
X201012500Y-93962500D03*
X201012500Y-93462500D03*
X201012500Y-92962500D03*
X201012500Y-92462500D03*
X201012500Y-91962500D03*
X201012500Y-91462500D03*
D22*
X201850000Y-90625000D03*
X202350000Y-90625000D03*
X202850000Y-90625000D03*
X203350000Y-90625000D03*
X203850000Y-90625000D03*
X204350000Y-90625000D03*
X204850000Y-90625000D03*
X205350000Y-90625000D03*
X205850000Y-90625000D03*
X206350000Y-90625000D03*
X206850000Y-90625000D03*
D23*
X202400000Y-94612500D03*
X206300000Y-92012500D03*
X202400000Y-93312500D03*
X202400000Y-95912500D03*
X205000000Y-95912500D03*
X203700000Y-92012500D03*
X206300000Y-94612500D03*
X203700000Y-93312500D03*
X203700000Y-94612500D03*
X203700000Y-95912500D03*
X205000000Y-93312500D03*
X206300000Y-95912500D03*
X205000000Y-94612500D03*
X205000000Y-92012500D03*
X206300000Y-93312500D03*
X202400000Y-92012500D03*
%TD*%
D24*
%TO.C,C6*%
X200500000Y-99612500D03*
X200500000Y-101512500D03*
%TD*%
M02*
