%TF.GenerationSoftware,KiCad,Pcbnew,(6.0.10)*%
%TF.CreationDate,2023-02-07T21:59:56+13:00*%
%TF.ProjectId,orthoCode,6f727468-6f43-46f6-9465-2e6b69636164,rev?*%
%TF.SameCoordinates,Original*%
%TF.FileFunction,Soldermask,Top*%
%TF.FilePolarity,Negative*%
%FSLAX46Y46*%
G04 Gerber Fmt 4.6, Leading zero omitted, Abs format (unit mm)*
G04 Created by KiCad (PCBNEW (6.0.10)) date 2023-02-07 21:59:56*
%MOMM*%
%LPD*%
G01*
G04 APERTURE LIST*
G04 Aperture macros list*
%AMRoundRect*
0 Rectangle with rounded corners*
0 $1 Rounding radius*
0 $2 $3 $4 $5 $6 $7 $8 $9 X,Y pos of 4 corners*
0 Add a 4 corners polygon primitive as box body*
4,1,4,$2,$3,$4,$5,$6,$7,$8,$9,$2,$3,0*
0 Add four circle primitives for the rounded corners*
1,1,$1+$1,$2,$3*
1,1,$1+$1,$4,$5*
1,1,$1+$1,$6,$7*
1,1,$1+$1,$8,$9*
0 Add four rect primitives between the rounded corners*
20,1,$1+$1,$2,$3,$4,$5,0*
20,1,$1+$1,$4,$5,$6,$7,0*
20,1,$1+$1,$6,$7,$8,$9,0*
20,1,$1+$1,$8,$9,$2,$3,0*%
%AMRotRect*
0 Rectangle, with rotation*
0 The origin of the aperture is its center*
0 $1 length*
0 $2 width*
0 $3 Rotation angle, in degrees counterclockwise*
0 Add horizontal line*
21,1,$1,$2,0,0,$3*%
G04 Aperture macros list end*
%ADD10RotRect,1.400000X1.200000X45.000000*%
%ADD11C,2.000000*%
%ADD12RoundRect,0.250000X0.250000X0.475000X-0.250000X0.475000X-0.250000X-0.475000X0.250000X-0.475000X0*%
%ADD13R,0.450000X0.600000*%
%ADD14R,0.600000X0.450000*%
%ADD15C,1.250000*%
%ADD16C,1.650000*%
%ADD17C,5.050000*%
%ADD18C,1.900000*%
%ADD19RoundRect,0.250000X-0.250000X-0.475000X0.250000X-0.475000X0.250000X0.475000X-0.250000X0.475000X0*%
%ADD20RoundRect,0.250000X0.450000X-0.262500X0.450000X0.262500X-0.450000X0.262500X-0.450000X-0.262500X0*%
%ADD21RoundRect,0.250000X0.262500X0.450000X-0.262500X0.450000X-0.262500X-0.450000X0.262500X-0.450000X0*%
%ADD22RoundRect,0.250000X-0.262500X-0.450000X0.262500X-0.450000X0.262500X0.450000X-0.262500X0.450000X0*%
%ADD23R,0.300000X0.700000*%
%ADD24R,1.000000X0.700000*%
%ADD25O,1.200000X2.200000*%
%ADD26O,1.200000X2.700000*%
%ADD27O,1.200000X2.600000*%
%ADD28RoundRect,0.250000X0.475000X-0.250000X0.475000X0.250000X-0.475000X0.250000X-0.475000X-0.250000X0*%
%ADD29R,5.200000X5.200000*%
%ADD30RoundRect,0.062500X-0.475000X0.062500X-0.475000X-0.062500X0.475000X-0.062500X0.475000X0.062500X0*%
%ADD31RoundRect,0.062500X-0.062500X0.475000X-0.062500X-0.475000X0.062500X-0.475000X0.062500X0.475000X0*%
%ADD32RoundRect,0.250000X-0.475000X0.250000X-0.475000X-0.250000X0.475000X-0.250000X0.475000X0.250000X0*%
%ADD33C,0.800000*%
%ADD34C,0.400000*%
G04 APERTURE END LIST*
D10*
%TO.C,X1*%
X194723223Y-95578858D03*
X196278858Y-94023223D03*
X195076777Y-92821142D03*
X193521142Y-94376777D03*
%TD*%
D11*
%TO.C,BOOT1*%
X211650000Y-117900000D03*
X205150000Y-117900000D03*
X205150000Y-122400000D03*
X211650000Y-122400000D03*
%TD*%
D12*
%TO.C,C1*%
X195200000Y-98000000D03*
X193300000Y-98000000D03*
%TD*%
%TO.C,C2*%
X195200000Y-90250000D03*
X193300000Y-90250000D03*
%TD*%
D13*
%TO.C,D1:8*%
X234200000Y-151950000D03*
X234200000Y-154050000D03*
%TD*%
%TO.C,D1:1*%
X71400000Y-133750000D03*
X71400000Y-135850000D03*
%TD*%
%TO.C,D1:2*%
X95200000Y-133750000D03*
X95200000Y-135850000D03*
%TD*%
%TO.C,D1:3*%
X119400000Y-133750000D03*
X119400000Y-135850000D03*
%TD*%
%TO.C,D1:4*%
X152000000Y-133750000D03*
X152000000Y-135850000D03*
%TD*%
%TO.C,D1:5*%
X170200000Y-153350000D03*
X170200000Y-155450000D03*
%TD*%
%TO.C,D1:6*%
X187960000Y-156950000D03*
X187960000Y-159050000D03*
%TD*%
%TO.C,D1:7*%
X221000000Y-156950000D03*
X221000000Y-159050000D03*
%TD*%
%TO.C,D1:9*%
X272500000Y-133570000D03*
X272500000Y-135670000D03*
%TD*%
%TO.C,D1:10*%
X296000000Y-133570000D03*
X296000000Y-135670000D03*
%TD*%
%TO.C,D1:11*%
X320040000Y-133570000D03*
X320040000Y-135670000D03*
%TD*%
%TO.C,D1:12*%
X350000000Y-133550000D03*
X350000000Y-135650000D03*
%TD*%
%TO.C,D1:13*%
X369000000Y-133350000D03*
X369000000Y-135450000D03*
%TD*%
D14*
%TO.C,D1:14*%
X373050000Y-133050000D03*
X375150000Y-133050000D03*
%TD*%
D13*
%TO.C,D2:1*%
X72600000Y-114950000D03*
X72600000Y-117050000D03*
%TD*%
%TO.C,D2:2*%
X102400000Y-114950000D03*
X102400000Y-117050000D03*
%TD*%
%TO.C,D2:3*%
X121400000Y-114950000D03*
X121400000Y-117050000D03*
%TD*%
%TO.C,D2:4*%
X140600000Y-114950000D03*
X140600000Y-117050000D03*
%TD*%
%TO.C,D2:5*%
X159600000Y-114950000D03*
X159600000Y-117050000D03*
%TD*%
%TO.C,D2:6*%
X178400000Y-114950000D03*
X178400000Y-117050000D03*
%TD*%
%TO.C,D2:7*%
X245200000Y-114950000D03*
X245200000Y-117050000D03*
%TD*%
%TO.C,D2:8*%
X264400000Y-114950000D03*
X264400000Y-117050000D03*
%TD*%
%TO.C,D2:9*%
X283400000Y-114950000D03*
X283400000Y-117050000D03*
%TD*%
%TO.C,D2:10*%
X302400000Y-114950000D03*
X302400000Y-117050000D03*
%TD*%
%TO.C,D2:11*%
X321980000Y-114950000D03*
X321980000Y-117050000D03*
%TD*%
%TO.C,D2:13*%
X372000000Y-114950000D03*
X372000000Y-117050000D03*
%TD*%
%TO.C,D3:0*%
X45000000Y-94550000D03*
X45000000Y-96650000D03*
%TD*%
%TO.C,D3:1*%
X76400000Y-94550000D03*
X76400000Y-96650000D03*
%TD*%
%TO.C,D3:2*%
X102420000Y-94550000D03*
X102420000Y-96650000D03*
%TD*%
%TO.C,D3:3*%
X121400000Y-94550000D03*
X121400000Y-96650000D03*
%TD*%
%TO.C,D3:4*%
X140520000Y-94550000D03*
X140520000Y-96650000D03*
%TD*%
%TO.C,D3:5*%
X159600000Y-94550000D03*
X159600000Y-96650000D03*
%TD*%
%TO.C,D3:6*%
X178000000Y-94550000D03*
X178000000Y-96650000D03*
%TD*%
%TO.C,D3:7*%
X245400000Y-94950000D03*
X245400000Y-97050000D03*
%TD*%
%TO.C,D3:8*%
X264400000Y-94950000D03*
X264400000Y-97050000D03*
%TD*%
%TO.C,D3:9*%
X283600000Y-94950000D03*
X283600000Y-97050000D03*
%TD*%
%TO.C,D3:10*%
X302600000Y-94950000D03*
X302600000Y-97050000D03*
%TD*%
%TO.C,D3:11*%
X321400000Y-94950000D03*
X321400000Y-97050000D03*
%TD*%
%TO.C,D3:12*%
X340800000Y-94950000D03*
X340800000Y-97050000D03*
%TD*%
%TO.C,D3:13*%
X371660000Y-95000000D03*
X371660000Y-97100000D03*
%TD*%
%TO.C,D4:0*%
X54400000Y-76950000D03*
X54400000Y-79050000D03*
%TD*%
%TO.C,D4:1*%
X78200000Y-76950000D03*
X78200000Y-79050000D03*
%TD*%
%TO.C,D4:2*%
X101850000Y-77015000D03*
X101850000Y-79115000D03*
%TD*%
%TO.C,D4:3*%
X121400000Y-76950000D03*
X121400000Y-79050000D03*
%TD*%
%TO.C,D4:4*%
X140400000Y-76950000D03*
X140400000Y-79050000D03*
%TD*%
%TO.C,D4:5*%
X159600000Y-76950000D03*
X159600000Y-79050000D03*
%TD*%
%TO.C,D4:6*%
X178000000Y-76950000D03*
X178000000Y-79050000D03*
%TD*%
%TO.C,D4:7*%
X245200000Y-77150000D03*
X245200000Y-79250000D03*
%TD*%
%TO.C,D4:8*%
X264600000Y-77150000D03*
X264600000Y-79250000D03*
%TD*%
%TO.C,D4:9*%
X283400000Y-77015000D03*
X283400000Y-79115000D03*
%TD*%
%TO.C,D4:10*%
X302400000Y-77150000D03*
X302400000Y-79250000D03*
%TD*%
%TO.C,D4:11*%
X321700000Y-77015000D03*
X321700000Y-79115000D03*
%TD*%
%TO.C,D4:12*%
X345700000Y-77015000D03*
X345700000Y-79115000D03*
%TD*%
%TO.C,D4:13*%
X369000000Y-76950000D03*
X369000000Y-79050000D03*
%TD*%
D14*
%TO.C,D4:14*%
X381950000Y-76000000D03*
X384050000Y-76000000D03*
%TD*%
D13*
%TO.C,D5:0*%
X54400000Y-75250000D03*
X54400000Y-73150000D03*
%TD*%
%TO.C,D5:1*%
X78200000Y-75250000D03*
X78200000Y-73150000D03*
%TD*%
%TO.C,D5:2*%
X101800000Y-75250000D03*
X101800000Y-73150000D03*
%TD*%
%TO.C,D5:3*%
X121400000Y-75250000D03*
X121400000Y-73150000D03*
%TD*%
%TO.C,D5:4*%
X140400000Y-75250000D03*
X140400000Y-73150000D03*
%TD*%
%TO.C,D5:5*%
X159600000Y-75250000D03*
X159600000Y-73150000D03*
%TD*%
%TO.C,D5:6*%
X178000000Y-75250000D03*
X178000000Y-73150000D03*
%TD*%
%TO.C,D5:7*%
X245200000Y-75450000D03*
X245200000Y-73350000D03*
%TD*%
%TO.C,D5:8*%
X264600000Y-75050000D03*
X264600000Y-72950000D03*
%TD*%
%TO.C,D5:9*%
X283400000Y-75050000D03*
X283400000Y-72950000D03*
%TD*%
%TO.C,D5:10*%
X302400000Y-75050000D03*
X302400000Y-72950000D03*
%TD*%
%TO.C,D5:11*%
X321600000Y-74850000D03*
X321600000Y-72750000D03*
%TD*%
%TO.C,D5:12*%
X340400000Y-74850000D03*
X340400000Y-72750000D03*
%TD*%
%TO.C,D5:13*%
X359600000Y-74850000D03*
X359600000Y-72750000D03*
%TD*%
%TO.C,D5:14*%
X378400000Y-74850000D03*
X378400000Y-72750000D03*
%TD*%
D15*
%TO.C,K1:8*%
X233160387Y-160460133D03*
D16*
X244393613Y-167802961D03*
D17*
X238125000Y-164306250D03*
D15*
X232426038Y-165833282D03*
D18*
X236701495Y-158993658D03*
X239548505Y-169618842D03*
%TD*%
D15*
%TO.C,K1:1*%
X61912500Y-136975000D03*
D16*
X56912500Y-148025000D03*
D18*
X56412500Y-142875000D03*
D17*
X61912500Y-142875000D03*
D15*
X66912500Y-139075000D03*
D18*
X67412500Y-142875000D03*
%TD*%
D16*
%TO.C,K1:2*%
X80725000Y-148025000D03*
D15*
X85725000Y-136975000D03*
D18*
X80225000Y-142875000D03*
D15*
X90725000Y-139075000D03*
D17*
X85725000Y-142875000D03*
D18*
X91225000Y-142875000D03*
%TD*%
D17*
%TO.C,K1:3*%
X109537500Y-142875000D03*
D15*
X114537500Y-139075000D03*
D18*
X115037500Y-142875000D03*
X104037500Y-142875000D03*
D15*
X109537500Y-136975000D03*
D16*
X104537500Y-148025000D03*
%TD*%
D18*
%TO.C,K1:4*%
X148375000Y-142875000D03*
D17*
X142875000Y-142875000D03*
D15*
X142875000Y-136975000D03*
X147875000Y-139075000D03*
D16*
X137875000Y-148025000D03*
D18*
X137375000Y-142875000D03*
%TD*%
D15*
%TO.C,K1:5*%
X169063923Y-170119392D03*
X172386462Y-165833282D03*
D18*
X165263995Y-169618842D03*
D17*
X166687500Y-164306250D03*
D18*
X168111005Y-158993658D03*
D16*
X163007077Y-158143703D03*
%TD*%
D17*
%TO.C,K1:6*%
X185737500Y-169068750D03*
D16*
X189417923Y-175231297D03*
D18*
X184313995Y-174381342D03*
D15*
X180038538Y-167541718D03*
X183361077Y-163255608D03*
D18*
X187161005Y-163756158D03*
%TD*%
D17*
%TO.C,K1:7*%
X219075000Y-169068750D03*
D16*
X212806387Y-165572039D03*
D18*
X220498505Y-174381342D03*
D15*
X224773962Y-167541718D03*
D18*
X217651495Y-163756158D03*
D15*
X224039613Y-172914867D03*
%TD*%
D17*
%TO.C,K1:9*%
X261937500Y-142875000D03*
D16*
X256937500Y-148025000D03*
D15*
X261937500Y-136975000D03*
X266937500Y-139075000D03*
D18*
X256437500Y-142875000D03*
X267437500Y-142875000D03*
%TD*%
D17*
%TO.C,K1:10*%
X285750000Y-142875000D03*
D15*
X290750000Y-139075000D03*
D16*
X280750000Y-148025000D03*
D18*
X291250000Y-142875000D03*
D15*
X285750000Y-136975000D03*
D18*
X280250000Y-142875000D03*
%TD*%
%TO.C,K1:11*%
X315062500Y-142875000D03*
D16*
X304562500Y-148025000D03*
D18*
X304062500Y-142875000D03*
D15*
X309562500Y-136975000D03*
X314562500Y-139075000D03*
D17*
X309562500Y-142875000D03*
%TD*%
D18*
%TO.C,K1:12*%
X346018750Y-142875000D03*
D16*
X335518750Y-148025000D03*
D15*
X340518750Y-136975000D03*
D18*
X335018750Y-142875000D03*
D17*
X340518750Y-142875000D03*
D15*
X345518750Y-139075000D03*
%TD*%
D16*
%TO.C,K1:13*%
X354568750Y-148025000D03*
D17*
X359568750Y-142875000D03*
D18*
X365068750Y-142875000D03*
D15*
X359568750Y-136975000D03*
D18*
X354068750Y-142875000D03*
D15*
X364568750Y-139075000D03*
%TD*%
D18*
%TO.C,K1:14*%
X373118750Y-142875000D03*
D16*
X373618750Y-148025000D03*
D15*
X383618750Y-139075000D03*
D18*
X384118750Y-142875000D03*
D15*
X378618750Y-136975000D03*
D17*
X378618750Y-142875000D03*
%TD*%
D15*
%TO.C,K2:2*%
X92868750Y-117925000D03*
D18*
X98368750Y-123825000D03*
D15*
X97868750Y-120025000D03*
D17*
X92868750Y-123825000D03*
D16*
X87868750Y-128975000D03*
D18*
X87368750Y-123825000D03*
%TD*%
%TO.C,K2:3*%
X117418750Y-123825000D03*
X106418750Y-123825000D03*
D15*
X111918750Y-117925000D03*
X116918750Y-120025000D03*
D17*
X111918750Y-123825000D03*
D16*
X106918750Y-128975000D03*
%TD*%
D17*
%TO.C,K2:4*%
X130968750Y-123825000D03*
D15*
X130968750Y-117925000D03*
D16*
X125968750Y-128975000D03*
D18*
X125468750Y-123825000D03*
D15*
X135968750Y-120025000D03*
D18*
X136468750Y-123825000D03*
%TD*%
%TO.C,K2:5*%
X155518750Y-123825000D03*
D15*
X155018750Y-120025000D03*
X150018750Y-117925000D03*
D17*
X150018750Y-123825000D03*
D18*
X144518750Y-123825000D03*
D16*
X145018750Y-128975000D03*
%TD*%
D15*
%TO.C,K2:6*%
X169068750Y-117925000D03*
D16*
X164068750Y-128975000D03*
D17*
X169068750Y-123825000D03*
D18*
X163568750Y-123825000D03*
X174568750Y-123825000D03*
D15*
X174068750Y-120025000D03*
%TD*%
D18*
%TO.C,K2:7*%
X230243750Y-123825000D03*
X241243750Y-123825000D03*
D16*
X230743750Y-128975000D03*
D15*
X240743750Y-120025000D03*
X235743750Y-117925000D03*
D17*
X235743750Y-123825000D03*
%TD*%
D15*
%TO.C,K2:8*%
X259793750Y-120025000D03*
D16*
X249793750Y-128975000D03*
D18*
X260293750Y-123825000D03*
D17*
X254793750Y-123825000D03*
D18*
X249293750Y-123825000D03*
D15*
X254793750Y-117925000D03*
%TD*%
D16*
%TO.C,K2:9*%
X268843750Y-128975000D03*
D15*
X278843750Y-120025000D03*
X273843750Y-117925000D03*
D18*
X268343750Y-123825000D03*
D17*
X273843750Y-123825000D03*
D18*
X279343750Y-123825000D03*
%TD*%
%TO.C,K2:10*%
X298393750Y-123825000D03*
D16*
X287893750Y-128975000D03*
D18*
X287393750Y-123825000D03*
D15*
X292893750Y-117925000D03*
D17*
X292893750Y-123825000D03*
D15*
X297893750Y-120025000D03*
%TD*%
D18*
%TO.C,K2:11*%
X306443750Y-123825000D03*
D16*
X306943750Y-128975000D03*
D15*
X311943750Y-117925000D03*
D18*
X317443750Y-123825000D03*
D17*
X311943750Y-123825000D03*
D15*
X316943750Y-120025000D03*
%TD*%
%TO.C,K2:13*%
X364568750Y-120025000D03*
X359568750Y-117925000D03*
D16*
X354568750Y-128975000D03*
D17*
X359568750Y-123825000D03*
D18*
X365068750Y-123825000D03*
X354068750Y-123825000D03*
%TD*%
D15*
%TO.C,K3:0*%
X35718750Y-98875000D03*
D16*
X30718750Y-109925000D03*
D15*
X40718750Y-100975000D03*
D17*
X35718750Y-104775000D03*
D18*
X30218750Y-104775000D03*
X41218750Y-104775000D03*
%TD*%
D15*
%TO.C,K3:1*%
X66675000Y-98875000D03*
D17*
X66675000Y-104775000D03*
D15*
X71675000Y-100975000D03*
D18*
X61175000Y-104775000D03*
X72175000Y-104775000D03*
D16*
X61675000Y-109925000D03*
%TD*%
D18*
%TO.C,K3:2*%
X98368750Y-104775000D03*
D15*
X92868750Y-98875000D03*
D17*
X92868750Y-104775000D03*
D18*
X87368750Y-104775000D03*
D16*
X87868750Y-109925000D03*
D15*
X97868750Y-100975000D03*
%TD*%
D18*
%TO.C,K3:3*%
X106418750Y-104775000D03*
D17*
X111918750Y-104775000D03*
D16*
X106918750Y-109925000D03*
D18*
X117418750Y-104775000D03*
D15*
X111918750Y-98875000D03*
X116918750Y-100975000D03*
%TD*%
D16*
%TO.C,K3:4*%
X125968750Y-109925000D03*
D15*
X130968750Y-98875000D03*
D17*
X130968750Y-104775000D03*
D18*
X136468750Y-104775000D03*
X125468750Y-104775000D03*
D15*
X135968750Y-100975000D03*
%TD*%
D17*
%TO.C,K3:5*%
X150018750Y-104775000D03*
D15*
X155018750Y-100975000D03*
D18*
X144518750Y-104775000D03*
D16*
X145018750Y-109925000D03*
D18*
X155518750Y-104775000D03*
D15*
X150018750Y-98875000D03*
%TD*%
%TO.C,K3:6*%
X174068750Y-100975000D03*
D18*
X174568750Y-104775000D03*
X163568750Y-104775000D03*
D15*
X169068750Y-98875000D03*
D17*
X169068750Y-104775000D03*
D16*
X164068750Y-109925000D03*
%TD*%
D17*
%TO.C,K3:7*%
X235743750Y-104775000D03*
D15*
X235743750Y-98875000D03*
X240743750Y-100975000D03*
D18*
X241243750Y-104775000D03*
D16*
X230743750Y-109925000D03*
D18*
X230243750Y-104775000D03*
%TD*%
D17*
%TO.C,K3:8*%
X254793750Y-104775000D03*
D16*
X249793750Y-109925000D03*
D18*
X260293750Y-104775000D03*
D15*
X259793750Y-100975000D03*
X254793750Y-98875000D03*
D18*
X249293750Y-104775000D03*
%TD*%
%TO.C,K3:9*%
X279343750Y-104775000D03*
D15*
X278843750Y-100975000D03*
D18*
X268343750Y-104775000D03*
D17*
X273843750Y-104775000D03*
D15*
X273843750Y-98875000D03*
D16*
X268843750Y-109925000D03*
%TD*%
D15*
%TO.C,K3:10*%
X292893750Y-98875000D03*
D18*
X287393750Y-104775000D03*
D16*
X287893750Y-109925000D03*
D17*
X292893750Y-104775000D03*
D15*
X297893750Y-100975000D03*
D18*
X298393750Y-104775000D03*
%TD*%
D17*
%TO.C,K3:11*%
X311943750Y-104775000D03*
D18*
X306443750Y-104775000D03*
D15*
X316943750Y-100975000D03*
D18*
X317443750Y-104775000D03*
D15*
X311943750Y-98875000D03*
D16*
X306943750Y-109925000D03*
%TD*%
%TO.C,K3:12*%
X325993750Y-109925000D03*
D18*
X336493750Y-104775000D03*
D15*
X330993750Y-98875000D03*
D17*
X330993750Y-104775000D03*
D18*
X325493750Y-104775000D03*
D15*
X335993750Y-100975000D03*
%TD*%
D18*
%TO.C,K3:13*%
X367450000Y-104775000D03*
D15*
X366950000Y-100975000D03*
X361950000Y-98875000D03*
D17*
X361950000Y-104775000D03*
D16*
X356950000Y-109925000D03*
D18*
X356450000Y-104775000D03*
%TD*%
D15*
%TO.C,K4:0*%
X45481250Y-81925000D03*
D18*
X45981250Y-85725000D03*
D16*
X35481250Y-90875000D03*
D15*
X40481250Y-79825000D03*
D17*
X40481250Y-85725000D03*
D18*
X34981250Y-85725000D03*
%TD*%
D16*
%TO.C,K4:1*%
X64056250Y-90875000D03*
D15*
X74056250Y-81925000D03*
D18*
X63556250Y-85725000D03*
D17*
X69056250Y-85725000D03*
D15*
X69056250Y-79825000D03*
D18*
X74556250Y-85725000D03*
%TD*%
D17*
%TO.C,K4:2*%
X92868750Y-85725000D03*
D15*
X92868750Y-79825000D03*
D18*
X87368750Y-85725000D03*
X98368750Y-85725000D03*
D16*
X87868750Y-90875000D03*
D15*
X97868750Y-81925000D03*
%TD*%
D16*
%TO.C,K4:3*%
X106918750Y-90875000D03*
D17*
X111918750Y-85725000D03*
D15*
X111918750Y-79825000D03*
D18*
X106418750Y-85725000D03*
D15*
X116918750Y-81925000D03*
D18*
X117418750Y-85725000D03*
%TD*%
D17*
%TO.C,K4:4*%
X130968750Y-85725000D03*
D18*
X125468750Y-85725000D03*
D15*
X135968750Y-81925000D03*
D18*
X136468750Y-85725000D03*
D16*
X125968750Y-90875000D03*
D15*
X130968750Y-79825000D03*
%TD*%
%TO.C,K4:5*%
X150018750Y-79825000D03*
X155018750Y-81925000D03*
D16*
X145018750Y-90875000D03*
D17*
X150018750Y-85725000D03*
D18*
X144518750Y-85725000D03*
X155518750Y-85725000D03*
%TD*%
%TO.C,K4:6*%
X174568750Y-85725000D03*
D16*
X164068750Y-90875000D03*
D17*
X169068750Y-85725000D03*
D18*
X163568750Y-85725000D03*
D15*
X169068750Y-79825000D03*
X174068750Y-81925000D03*
%TD*%
%TO.C,K4:7*%
X235743750Y-79825000D03*
D17*
X235743750Y-85725000D03*
D15*
X240743750Y-81925000D03*
D18*
X241243750Y-85725000D03*
D16*
X230743750Y-90875000D03*
D18*
X230243750Y-85725000D03*
%TD*%
%TO.C,K4:8*%
X249293750Y-85725000D03*
X260293750Y-85725000D03*
D15*
X254793750Y-79825000D03*
X259793750Y-81925000D03*
D16*
X249793750Y-90875000D03*
D17*
X254793750Y-85725000D03*
%TD*%
%TO.C,K4:9*%
X273843750Y-85725000D03*
D18*
X279343750Y-85725000D03*
D16*
X268843750Y-90875000D03*
D15*
X273843750Y-79825000D03*
D18*
X268343750Y-85725000D03*
D15*
X278843750Y-81925000D03*
%TD*%
D18*
%TO.C,K4:10*%
X298393750Y-85725000D03*
X287393750Y-85725000D03*
D17*
X292893750Y-85725000D03*
D15*
X292893750Y-79825000D03*
X297893750Y-81925000D03*
D16*
X287893750Y-90875000D03*
%TD*%
D15*
%TO.C,K4:11*%
X316943750Y-81925000D03*
X311943750Y-79825000D03*
D18*
X306443750Y-85725000D03*
D16*
X306943750Y-90875000D03*
D18*
X317443750Y-85725000D03*
D17*
X311943750Y-85725000D03*
%TD*%
D18*
%TO.C,K4:12*%
X330256250Y-85725000D03*
D16*
X330756250Y-90875000D03*
D17*
X335756250Y-85725000D03*
D15*
X340756250Y-81925000D03*
X335756250Y-79825000D03*
D18*
X341256250Y-85725000D03*
%TD*%
D15*
%TO.C,K4:13*%
X359568750Y-79825000D03*
D16*
X354568750Y-90875000D03*
D17*
X359568750Y-85725000D03*
D18*
X365068750Y-85725000D03*
D15*
X364568750Y-81925000D03*
D18*
X354068750Y-85725000D03*
%TD*%
D17*
%TO.C,K4:14*%
X378618750Y-85725000D03*
D16*
X373618750Y-90875000D03*
D15*
X378618750Y-79825000D03*
X383618750Y-81925000D03*
D18*
X384118750Y-85725000D03*
X373118750Y-85725000D03*
%TD*%
D17*
%TO.C,K5:0*%
X45243750Y-66675000D03*
D16*
X40243750Y-71825000D03*
D15*
X50243750Y-62875000D03*
D18*
X39743750Y-66675000D03*
X50743750Y-66675000D03*
D15*
X45243750Y-60775000D03*
%TD*%
D16*
%TO.C,K5:1*%
X64056250Y-71825000D03*
D15*
X74056250Y-62875000D03*
D18*
X63556250Y-66675000D03*
D17*
X69056250Y-66675000D03*
D18*
X74556250Y-66675000D03*
D15*
X69056250Y-60775000D03*
%TD*%
D18*
%TO.C,K5:2*%
X98368750Y-66675000D03*
D16*
X87868750Y-71825000D03*
D18*
X87368750Y-66675000D03*
D17*
X92868750Y-66675000D03*
D15*
X97868750Y-62875000D03*
X92868750Y-60775000D03*
%TD*%
%TO.C,K5:3*%
X111918750Y-60775000D03*
D17*
X111918750Y-66675000D03*
D16*
X106918750Y-71825000D03*
D15*
X116918750Y-62875000D03*
D18*
X106418750Y-66675000D03*
X117418750Y-66675000D03*
%TD*%
%TO.C,K5:4*%
X136468750Y-66675000D03*
D17*
X130968750Y-66675000D03*
D16*
X125968750Y-71825000D03*
D15*
X130968750Y-60775000D03*
D18*
X125468750Y-66675000D03*
D15*
X135968750Y-62875000D03*
%TD*%
D16*
%TO.C,K5:5*%
X145018750Y-71825000D03*
D18*
X144518750Y-66675000D03*
D15*
X150018750Y-60775000D03*
D17*
X150018750Y-66675000D03*
D15*
X155018750Y-62875000D03*
D18*
X155518750Y-66675000D03*
%TD*%
%TO.C,K5:6*%
X163568750Y-66675000D03*
D16*
X164068750Y-71825000D03*
D17*
X169068750Y-66675000D03*
D15*
X174068750Y-62875000D03*
D18*
X174568750Y-66675000D03*
D15*
X169068750Y-60775000D03*
%TD*%
D16*
%TO.C,K5:7*%
X230743750Y-71825000D03*
D15*
X240743750Y-62875000D03*
D18*
X241243750Y-66675000D03*
D17*
X235743750Y-66675000D03*
D15*
X235743750Y-60775000D03*
D18*
X230243750Y-66675000D03*
%TD*%
D15*
%TO.C,K5:8*%
X259793750Y-62875000D03*
D17*
X254793750Y-66675000D03*
D15*
X254793750Y-60775000D03*
D18*
X249293750Y-66675000D03*
D16*
X249793750Y-71825000D03*
D18*
X260293750Y-66675000D03*
%TD*%
%TO.C,K5:9*%
X268343750Y-66675000D03*
D16*
X268843750Y-71825000D03*
D15*
X273843750Y-60775000D03*
D18*
X279343750Y-66675000D03*
D17*
X273843750Y-66675000D03*
D15*
X278843750Y-62875000D03*
%TD*%
D16*
%TO.C,K5:10*%
X287893750Y-71825000D03*
D15*
X292893750Y-60775000D03*
D17*
X292893750Y-66675000D03*
D18*
X287393750Y-66675000D03*
D15*
X297893750Y-62875000D03*
D18*
X298393750Y-66675000D03*
%TD*%
D15*
%TO.C,K5:11*%
X316943750Y-62875000D03*
D17*
X311943750Y-66675000D03*
D16*
X306943750Y-71825000D03*
D18*
X306443750Y-66675000D03*
D15*
X311943750Y-60775000D03*
D18*
X317443750Y-66675000D03*
%TD*%
D16*
%TO.C,K5:12*%
X325993750Y-71825000D03*
D17*
X330993750Y-66675000D03*
D18*
X325493750Y-66675000D03*
X336493750Y-66675000D03*
D15*
X330993750Y-60775000D03*
X335993750Y-62875000D03*
%TD*%
D16*
%TO.C,K5:13*%
X345043750Y-71825000D03*
D15*
X350043750Y-60775000D03*
D18*
X355543750Y-66675000D03*
D15*
X355043750Y-62875000D03*
D18*
X344543750Y-66675000D03*
D17*
X350043750Y-66675000D03*
%TD*%
D18*
%TO.C,K5:14*%
X374593750Y-66675000D03*
D15*
X374093750Y-62875000D03*
D18*
X363593750Y-66675000D03*
D15*
X369093750Y-60775000D03*
D17*
X369093750Y-66675000D03*
D16*
X364093750Y-71825000D03*
%TD*%
D11*
%TO.C,RESET1*%
X192550000Y-122400000D03*
X199050000Y-122400000D03*
X199050000Y-117900000D03*
X192550000Y-117900000D03*
%TD*%
D18*
%TO.C,K2:1*%
X56412500Y-123825000D03*
D16*
X56912500Y-128975000D03*
D15*
X66912500Y-120025000D03*
X61912500Y-117925000D03*
D18*
X67412500Y-123825000D03*
D17*
X61912500Y-123825000D03*
%TD*%
D19*
%TO.C,C4*%
X210300000Y-91062500D03*
X212200000Y-91062500D03*
%TD*%
%TO.C,C7*%
X207250000Y-87300000D03*
X209150000Y-87300000D03*
%TD*%
%TO.C,C3*%
X210300000Y-96812500D03*
X212200000Y-96812500D03*
%TD*%
D20*
%TO.C,R1*%
X209250000Y-81225000D03*
X209250000Y-79400000D03*
%TD*%
%TO.C,R2*%
X199500000Y-81225000D03*
X199500000Y-79400000D03*
%TD*%
%TO.C,R3*%
X206000000Y-85212500D03*
X206000000Y-83387500D03*
%TD*%
%TO.C,R4*%
X203900000Y-85212500D03*
X203900000Y-83387500D03*
%TD*%
D21*
%TO.C,R5*%
X207212500Y-80300000D03*
X205387500Y-80300000D03*
%TD*%
D22*
%TO.C,R7*%
X194887500Y-113400000D03*
X196712500Y-113400000D03*
%TD*%
D19*
%TO.C,C8*%
X202250000Y-87100000D03*
X204150000Y-87100000D03*
%TD*%
D22*
%TO.C,R8*%
X207487500Y-113400000D03*
X209312500Y-113400000D03*
%TD*%
D23*
%TO.C,USB1*%
X205400000Y-74882500D03*
X204900000Y-74882500D03*
X204400000Y-74882500D03*
X203900000Y-74882500D03*
X203400000Y-74882500D03*
X202900000Y-74882500D03*
X201900000Y-74882500D03*
X201400000Y-74882500D03*
X200900000Y-74882500D03*
X200400000Y-74882500D03*
X199900000Y-74882500D03*
X199400000Y-74882500D03*
D24*
X199300000Y-73582500D03*
D23*
X200150000Y-73582500D03*
X200650000Y-73582500D03*
X201150000Y-73582500D03*
X201650000Y-73582500D03*
X202150000Y-73582500D03*
X202650000Y-73582500D03*
X203150000Y-73582500D03*
X203650000Y-73582500D03*
X204150000Y-73582500D03*
X204650000Y-73582500D03*
D24*
X205500000Y-73582500D03*
D25*
X206720000Y-74472500D03*
X198080000Y-74472500D03*
D26*
X206720000Y-69112500D03*
D27*
X198080000Y-69112500D03*
%TD*%
D28*
%TO.C,C5*%
X198500000Y-90262500D03*
X198500000Y-88362500D03*
%TD*%
D29*
%TO.C,U2*%
X204350000Y-93962500D03*
D30*
X207687500Y-91462500D03*
X207687500Y-91962500D03*
X207687500Y-92462500D03*
X207687500Y-92962500D03*
X207687500Y-93462500D03*
X207687500Y-93962500D03*
X207687500Y-94462500D03*
X207687500Y-94962500D03*
X207687500Y-95462500D03*
X207687500Y-95962500D03*
X207687500Y-96462500D03*
D31*
X206850000Y-97300000D03*
X206350000Y-97300000D03*
X205850000Y-97300000D03*
X205350000Y-97300000D03*
X204850000Y-97300000D03*
X204350000Y-97300000D03*
X203850000Y-97300000D03*
X203350000Y-97300000D03*
X202850000Y-97300000D03*
X202350000Y-97300000D03*
X201850000Y-97300000D03*
D30*
X201012500Y-96462500D03*
X201012500Y-95962500D03*
X201012500Y-95462500D03*
X201012500Y-94962500D03*
X201012500Y-94462500D03*
X201012500Y-93962500D03*
X201012500Y-93462500D03*
X201012500Y-92962500D03*
X201012500Y-92462500D03*
X201012500Y-91962500D03*
X201012500Y-91462500D03*
D31*
X201850000Y-90625000D03*
X202350000Y-90625000D03*
X202850000Y-90625000D03*
X203350000Y-90625000D03*
X203850000Y-90625000D03*
X204350000Y-90625000D03*
X204850000Y-90625000D03*
X205350000Y-90625000D03*
X205850000Y-90625000D03*
X206350000Y-90625000D03*
X206850000Y-90625000D03*
%TD*%
D32*
%TO.C,C6*%
X200500000Y-99612500D03*
X200500000Y-101512500D03*
%TD*%
D33*
X163800000Y-113100000D03*
X182600000Y-108300000D03*
D34*
X243200000Y-144400000D03*
X239700000Y-140900000D03*
X206200000Y-99000000D03*
X238900000Y-142900000D03*
X206350000Y-97300000D03*
X241600000Y-145700000D03*
X209500000Y-98500000D03*
X199800000Y-91800000D03*
X199700000Y-97500000D03*
D33*
X182400000Y-114900000D03*
X204386500Y-114786500D03*
X228400000Y-115000000D03*
D34*
X204800000Y-102700000D03*
D33*
X184600000Y-95000000D03*
X228100000Y-94300000D03*
X217600000Y-92500000D03*
X186800000Y-95800000D03*
D34*
X202900000Y-101500000D03*
X203300000Y-100100000D03*
D33*
X189700000Y-95300000D03*
X216500000Y-92500000D03*
D34*
X209000000Y-96200000D03*
X208600000Y-90400000D03*
X202200000Y-98800000D03*
X207400000Y-89000000D03*
X197600000Y-91800000D03*
X203800000Y-88600000D03*
X209200000Y-77300000D03*
X203400000Y-76200000D03*
X201639456Y-74143143D03*
X199500000Y-77900000D03*
X201900000Y-75500000D03*
X202600000Y-74200000D03*
X202900000Y-75700000D03*
X203700000Y-82100000D03*
M02*
