%TF.GenerationSoftware,KiCad,Pcbnew,(6.0.10)*%
%TF.CreationDate,2023-02-07T21:59:56+13:00*%
%TF.ProjectId,orthoCode,6f727468-6f43-46f6-9465-2e6b69636164,rev?*%
%TF.SameCoordinates,Original*%
%TF.FileFunction,Other,Comment*%
%FSLAX46Y46*%
G04 Gerber Fmt 4.6, Leading zero omitted, Abs format (unit mm)*
G04 Created by KiCad (PCBNEW (6.0.10)) date 2023-02-07 21:59:56*
%MOMM*%
%LPD*%
G01*
G04 APERTURE LIST*
%ADD10C,0.150000*%
%ADD11C,0.300000*%
G04 APERTURE END LIST*
D10*
%TO.C,BOOT1*%
X206588792Y-120120809D02*
X206731649Y-120168428D01*
X206779268Y-120216047D01*
X206826887Y-120311285D01*
X206826887Y-120454142D01*
X206779268Y-120549380D01*
X206731649Y-120596999D01*
X206636411Y-120644618D01*
X206255459Y-120644618D01*
X206255459Y-119644618D01*
X206588792Y-119644618D01*
X206684030Y-119692238D01*
X206731649Y-119739857D01*
X206779268Y-119835095D01*
X206779268Y-119930333D01*
X206731649Y-120025571D01*
X206684030Y-120073190D01*
X206588792Y-120120809D01*
X206255459Y-120120809D01*
X207445935Y-119644618D02*
X207636411Y-119644618D01*
X207731649Y-119692238D01*
X207826887Y-119787476D01*
X207874506Y-119977952D01*
X207874506Y-120311285D01*
X207826887Y-120501761D01*
X207731649Y-120596999D01*
X207636411Y-120644618D01*
X207445935Y-120644618D01*
X207350697Y-120596999D01*
X207255459Y-120501761D01*
X207207840Y-120311285D01*
X207207840Y-119977952D01*
X207255459Y-119787476D01*
X207350697Y-119692238D01*
X207445935Y-119644618D01*
X208493554Y-119644618D02*
X208684030Y-119644618D01*
X208779268Y-119692238D01*
X208874506Y-119787476D01*
X208922126Y-119977952D01*
X208922126Y-120311285D01*
X208874506Y-120501761D01*
X208779268Y-120596999D01*
X208684030Y-120644618D01*
X208493554Y-120644618D01*
X208398316Y-120596999D01*
X208303078Y-120501761D01*
X208255459Y-120311285D01*
X208255459Y-119977952D01*
X208303078Y-119787476D01*
X208398316Y-119692238D01*
X208493554Y-119644618D01*
X209207840Y-119644618D02*
X209779268Y-119644618D01*
X209493554Y-120644618D02*
X209493554Y-119644618D01*
X210636411Y-120644618D02*
X210064983Y-120644618D01*
X210350697Y-120644618D02*
X210350697Y-119644618D01*
X210255459Y-119787476D01*
X210160221Y-119882714D01*
X210064983Y-119930333D01*
%TO.C,RESET1*%
X193849302Y-120560142D02*
X193515969Y-120083952D01*
X193277874Y-120560142D02*
X193277874Y-119560142D01*
X193658826Y-119560142D01*
X193754064Y-119607762D01*
X193801683Y-119655381D01*
X193849302Y-119750619D01*
X193849302Y-119893476D01*
X193801683Y-119988714D01*
X193754064Y-120036333D01*
X193658826Y-120083952D01*
X193277874Y-120083952D01*
X194277874Y-120036333D02*
X194611207Y-120036333D01*
X194754064Y-120560142D02*
X194277874Y-120560142D01*
X194277874Y-119560142D01*
X194754064Y-119560142D01*
X195135016Y-120512523D02*
X195277874Y-120560142D01*
X195515969Y-120560142D01*
X195611207Y-120512523D01*
X195658826Y-120464904D01*
X195706445Y-120369666D01*
X195706445Y-120274428D01*
X195658826Y-120179190D01*
X195611207Y-120131571D01*
X195515969Y-120083952D01*
X195325493Y-120036333D01*
X195230254Y-119988714D01*
X195182635Y-119941095D01*
X195135016Y-119845857D01*
X195135016Y-119750619D01*
X195182635Y-119655381D01*
X195230254Y-119607762D01*
X195325493Y-119560142D01*
X195563588Y-119560142D01*
X195706445Y-119607762D01*
X196135016Y-120036333D02*
X196468350Y-120036333D01*
X196611207Y-120560142D02*
X196135016Y-120560142D01*
X196135016Y-119560142D01*
X196611207Y-119560142D01*
X196896921Y-119560142D02*
X197468350Y-119560142D01*
X197182635Y-120560142D02*
X197182635Y-119560142D01*
X198325493Y-120560142D02*
X197754064Y-120560142D01*
X198039778Y-120560142D02*
X198039778Y-119560142D01*
X197944540Y-119703000D01*
X197849302Y-119798238D01*
X197754064Y-119845857D01*
D11*
%TO.C,G\u002A\u002A\u002A*%
X220777428Y-134498000D02*
X220632285Y-134425428D01*
X220414571Y-134425428D01*
X220196857Y-134498000D01*
X220051714Y-134643142D01*
X219979142Y-134788285D01*
X219906571Y-135078571D01*
X219906571Y-135296285D01*
X219979142Y-135586571D01*
X220051714Y-135731714D01*
X220196857Y-135876857D01*
X220414571Y-135949428D01*
X220559714Y-135949428D01*
X220777428Y-135876857D01*
X220850000Y-135804285D01*
X220850000Y-135296285D01*
X220559714Y-135296285D01*
X221720857Y-134425428D02*
X221720857Y-134788285D01*
X221358000Y-134643142D02*
X221720857Y-134788285D01*
X222083714Y-134643142D01*
X221503142Y-135078571D02*
X221720857Y-134788285D01*
X221938571Y-135078571D01*
X222882000Y-134425428D02*
X222882000Y-134788285D01*
X222519142Y-134643142D02*
X222882000Y-134788285D01*
X223244857Y-134643142D01*
X222664285Y-135078571D02*
X222882000Y-134788285D01*
X223099714Y-135078571D01*
X224043142Y-134425428D02*
X224043142Y-134788285D01*
X223680285Y-134643142D02*
X224043142Y-134788285D01*
X224406000Y-134643142D01*
X223825428Y-135078571D02*
X224043142Y-134788285D01*
X224260857Y-135078571D01*
%TD*%
M02*
