M48
; DRILL file {KiCad (6.0.10)} date Tue Feb  7 21:59:56 2023
; FORMAT={-:-/ absolute / inch / decimal}
; #@! TF.CreationDate,2023-02-07T21:59:56+13:00
; #@! TF.GenerationSoftware,Kicad,Pcbnew,(6.0.10)
; #@! TF.FileFunction,NonPlated,1,2,NPTH
FMAT,2
INCH
; #@! TA.AperFunction,NonPlated,NPTH,ComponentDrill
T1C0.0748
; #@! TA.AperFunction,NonPlated,NPTH,ComponentDrill
T2C0.1988
%
G90
G05
T1
X1.1897Y-4.125
X1.3772Y-3.375
X1.5647Y-2.625
X1.6228Y-4.125
X1.8103Y-3.375
X1.9978Y-2.625
X2.221Y-4.875
X2.221Y-5.625
X2.4085Y-4.125
X2.5022Y-2.625
X2.5022Y-3.375
X2.654Y-4.875
X2.654Y-5.625
X2.8415Y-4.125
X2.9353Y-2.625
X2.9353Y-3.375
X3.1585Y-5.625
X3.4397Y-2.625
X3.4397Y-3.375
X3.4397Y-4.125
X3.4397Y-4.875
X3.5915Y-5.625
X3.8728Y-2.625
X3.8728Y-3.375
X3.8728Y-4.125
X3.8728Y-4.875
X4.096Y-5.625
X4.1897Y-2.625
X4.1897Y-3.375
X4.1897Y-4.125
X4.1897Y-4.875
X4.529Y-5.625
X4.6228Y-2.625
X4.6228Y-3.375
X4.6228Y-4.125
X4.6228Y-4.875
X4.9397Y-2.625
X4.9397Y-3.375
X4.9397Y-4.125
X4.9397Y-4.875
X5.3728Y-2.625
X5.3728Y-3.375
X5.3728Y-4.125
X5.3728Y-4.875
X5.4085Y-5.625
X5.6897Y-2.625
X5.6897Y-3.375
X5.6897Y-4.125
X5.6897Y-4.875
X5.8415Y-5.625
X6.1228Y-2.625
X6.1228Y-3.375
X6.1228Y-4.125
X6.1228Y-4.875
X6.4397Y-2.625
X6.4397Y-3.375
X6.4397Y-4.125
X6.4397Y-4.875
X6.5065Y-6.6779
X6.6185Y-6.2596
X6.8728Y-2.625
X6.8728Y-3.375
X6.8728Y-4.125
X6.8728Y-4.875
X7.2565Y-6.8654
X7.3685Y-6.4471
X8.569Y-6.4471
X8.681Y-6.8654
X9.0647Y-2.625
X9.0647Y-3.375
X9.0647Y-4.125
X9.0647Y-4.875
X9.319Y-6.2596
X9.431Y-6.6779
X9.4978Y-2.625
X9.4978Y-3.375
X9.4978Y-4.125
X9.4978Y-4.875
X9.8147Y-2.625
X9.8147Y-3.375
X9.8147Y-4.125
X9.8147Y-4.875
X10.096Y-5.625
X10.2478Y-2.625
X10.2478Y-3.375
X10.2478Y-4.125
X10.2478Y-4.875
X10.529Y-5.625
X10.5647Y-2.625
X10.5647Y-3.375
X10.5647Y-4.125
X10.5647Y-4.875
X10.9978Y-2.625
X10.9978Y-3.375
X10.9978Y-4.125
X10.9978Y-4.875
X11.0335Y-5.625
X11.3147Y-2.625
X11.3147Y-3.375
X11.3147Y-4.125
X11.3147Y-4.875
X11.4665Y-5.625
X11.7478Y-2.625
X11.7478Y-3.375
X11.7478Y-4.125
X11.7478Y-4.875
X11.971Y-5.625
X12.0647Y-2.625
X12.0647Y-3.375
X12.0647Y-4.125
X12.0647Y-4.875
X12.404Y-5.625
X12.4978Y-2.625
X12.4978Y-3.375
X12.4978Y-4.125
X12.4978Y-4.875
X12.8147Y-2.625
X12.8147Y-4.125
X13.0022Y-3.375
X13.1897Y-5.625
X13.2478Y-2.625
X13.2478Y-4.125
X13.4353Y-3.375
X13.5647Y-2.625
X13.6228Y-5.625
X13.9397Y-3.375
X13.9397Y-4.875
X13.9397Y-5.625
X13.9978Y-2.625
X14.0335Y-4.125
X14.3147Y-2.625
X14.3728Y-3.375
X14.3728Y-4.875
X14.3728Y-5.625
X14.4665Y-4.125
X14.6897Y-3.375
X14.6897Y-5.625
X14.7478Y-2.625
X15.1228Y-3.375
X15.1228Y-5.625
T2
X1.4062Y-4.125
X1.5938Y-3.375
X1.7812Y-2.625
X2.4375Y-4.875
X2.4375Y-5.625
X2.625Y-4.125
X2.7188Y-2.625
X2.7188Y-3.375
X3.375Y-5.625
X3.6562Y-2.625
X3.6562Y-3.375
X3.6562Y-4.125
X3.6562Y-4.875
X4.3125Y-5.625
X4.4062Y-2.625
X4.4062Y-3.375
X4.4062Y-4.125
X4.4062Y-4.875
X5.1562Y-2.625
X5.1562Y-3.375
X5.1562Y-4.125
X5.1562Y-4.875
X5.625Y-5.625
X5.9062Y-2.625
X5.9062Y-3.375
X5.9062Y-4.125
X5.9062Y-4.875
X6.5625Y-6.4688
X6.6562Y-2.625
X6.6562Y-3.375
X6.6562Y-4.125
X6.6562Y-4.875
X7.3125Y-6.6562
X8.625Y-6.6562
X9.2812Y-2.625
X9.2812Y-3.375
X9.2812Y-4.125
X9.2812Y-4.875
X9.375Y-6.4688
X10.0312Y-2.625
X10.0312Y-3.375
X10.0312Y-4.125
X10.0312Y-4.875
X10.3125Y-5.625
X10.7812Y-2.625
X10.7812Y-3.375
X10.7812Y-4.125
X10.7812Y-4.875
X11.25Y-5.625
X11.5312Y-2.625
X11.5312Y-3.375
X11.5312Y-4.125
X11.5312Y-4.875
X12.1875Y-5.625
X12.2812Y-2.625
X12.2812Y-3.375
X12.2812Y-4.125
X12.2812Y-4.875
X13.0312Y-2.625
X13.0312Y-4.125
X13.2188Y-3.375
X13.4062Y-5.625
X13.7812Y-2.625
X14.1562Y-3.375
X14.1562Y-4.875
X14.1562Y-5.625
X14.25Y-4.125
X14.5312Y-2.625
X14.9062Y-3.375
X14.9062Y-5.625
T0
M30
