G04 #@! TF.GenerationSoftware,KiCad,Pcbnew,(6.0.10)*
G04 #@! TF.CreationDate,2023-07-04T23:09:34+12:00*
G04 #@! TF.ProjectId,orthoCode,6f727468-6f43-46f6-9465-2e6b69636164,rev?*
G04 #@! TF.SameCoordinates,Original*
G04 #@! TF.FileFunction,Soldermask,Top*
G04 #@! TF.FilePolarity,Negative*
%FSLAX46Y46*%
G04 Gerber Fmt 4.6, Leading zero omitted, Abs format (unit mm)*
G04 Created by KiCad (PCBNEW (6.0.10)) date 2023-07-04 23:09:34*
%MOMM*%
%LPD*%
G01*
G04 APERTURE LIST*
%ADD10C,1.900000*%
%ADD11C,1.250000*%
%ADD12C,5.050000*%
%ADD13C,1.650000*%
%ADD14C,4.700000*%
%ADD15R,2.000000X2.000000*%
%ADD16C,2.000000*%
%ADD17C,1.752600*%
G04 APERTURE END LIST*
D10*
X239548505Y-169618842D03*
X236701495Y-158993658D03*
D11*
X232426038Y-165833282D03*
D12*
X238125000Y-164306250D03*
D13*
X244393613Y-167802961D03*
D11*
X233160387Y-160460133D03*
D10*
X67412500Y-142875000D03*
D11*
X66912500Y-139075000D03*
D12*
X61912500Y-142875000D03*
D10*
X56412500Y-142875000D03*
D13*
X56912500Y-148025000D03*
D11*
X61912500Y-136975000D03*
D10*
X91225000Y-142875000D03*
D12*
X85725000Y-142875000D03*
D11*
X90725000Y-139075000D03*
D10*
X80225000Y-142875000D03*
D11*
X85725000Y-136975000D03*
D13*
X80725000Y-148025000D03*
X104537500Y-148025000D03*
D11*
X109537500Y-136975000D03*
D10*
X104037500Y-142875000D03*
X115037500Y-142875000D03*
D11*
X114537500Y-139075000D03*
D12*
X109537500Y-142875000D03*
D10*
X137375000Y-142875000D03*
D13*
X137875000Y-148025000D03*
D11*
X147875000Y-139075000D03*
X142875000Y-136975000D03*
D12*
X142875000Y-142875000D03*
D10*
X148375000Y-142875000D03*
D13*
X163007077Y-158143703D03*
D10*
X168111005Y-158993658D03*
D12*
X166687500Y-164306250D03*
D10*
X165263995Y-169618842D03*
D11*
X172386462Y-165833282D03*
X169063923Y-170119392D03*
D10*
X187161005Y-163756158D03*
D11*
X183361077Y-163255608D03*
X180038538Y-167541718D03*
D10*
X184313995Y-174381342D03*
D13*
X189417923Y-175231297D03*
D12*
X185737500Y-169068750D03*
D11*
X224039613Y-172914867D03*
D10*
X217651495Y-163756158D03*
D11*
X224773962Y-167541718D03*
D10*
X220498505Y-174381342D03*
D13*
X212806387Y-165572039D03*
D12*
X219075000Y-169068750D03*
D10*
X267437500Y-142875000D03*
X256437500Y-142875000D03*
D11*
X266937500Y-139075000D03*
X261937500Y-136975000D03*
D13*
X256937500Y-148025000D03*
D12*
X261937500Y-142875000D03*
D10*
X280250000Y-142875000D03*
D11*
X285750000Y-136975000D03*
D10*
X291250000Y-142875000D03*
D13*
X280750000Y-148025000D03*
D11*
X290750000Y-139075000D03*
D12*
X285750000Y-142875000D03*
X309562500Y-142875000D03*
D11*
X314562500Y-139075000D03*
X309562500Y-136975000D03*
D10*
X304062500Y-142875000D03*
D13*
X304562500Y-148025000D03*
D10*
X315062500Y-142875000D03*
D11*
X345518750Y-139075000D03*
D12*
X340518750Y-142875000D03*
D10*
X335018750Y-142875000D03*
D11*
X340518750Y-136975000D03*
D13*
X335518750Y-148025000D03*
D10*
X346018750Y-142875000D03*
D11*
X364568750Y-139075000D03*
D10*
X354068750Y-142875000D03*
D11*
X359568750Y-136975000D03*
D10*
X365068750Y-142875000D03*
D12*
X359568750Y-142875000D03*
D13*
X354568750Y-148025000D03*
D12*
X378618750Y-142875000D03*
D11*
X378618750Y-136975000D03*
D10*
X384118750Y-142875000D03*
D11*
X383618750Y-139075000D03*
D13*
X373618750Y-148025000D03*
D10*
X373118750Y-142875000D03*
X87368750Y-123825000D03*
D13*
X87868750Y-128975000D03*
D12*
X92868750Y-123825000D03*
D11*
X97868750Y-120025000D03*
D10*
X98368750Y-123825000D03*
D11*
X92868750Y-117925000D03*
D13*
X106918750Y-128975000D03*
D12*
X111918750Y-123825000D03*
D11*
X116918750Y-120025000D03*
X111918750Y-117925000D03*
D10*
X106418750Y-123825000D03*
X117418750Y-123825000D03*
X136468750Y-123825000D03*
D11*
X135968750Y-120025000D03*
D10*
X125468750Y-123825000D03*
D13*
X125968750Y-128975000D03*
D11*
X130968750Y-117925000D03*
D12*
X130968750Y-123825000D03*
D13*
X145018750Y-128975000D03*
D10*
X144518750Y-123825000D03*
D12*
X150018750Y-123825000D03*
D11*
X150018750Y-117925000D03*
X155018750Y-120025000D03*
D10*
X155518750Y-123825000D03*
D11*
X174068750Y-120025000D03*
D10*
X174568750Y-123825000D03*
X163568750Y-123825000D03*
D12*
X169068750Y-123825000D03*
D13*
X164068750Y-128975000D03*
D11*
X169068750Y-117925000D03*
D12*
X235743750Y-123825000D03*
D11*
X235743750Y-117925000D03*
X240743750Y-120025000D03*
D13*
X230743750Y-128975000D03*
D10*
X241243750Y-123825000D03*
X230243750Y-123825000D03*
D11*
X254793750Y-117925000D03*
D10*
X249293750Y-123825000D03*
D12*
X254793750Y-123825000D03*
D10*
X260293750Y-123825000D03*
D13*
X249793750Y-128975000D03*
D11*
X259793750Y-120025000D03*
D10*
X279343750Y-123825000D03*
D12*
X273843750Y-123825000D03*
D10*
X268343750Y-123825000D03*
D11*
X273843750Y-117925000D03*
X278843750Y-120025000D03*
D13*
X268843750Y-128975000D03*
D11*
X297893750Y-120025000D03*
D12*
X292893750Y-123825000D03*
D11*
X292893750Y-117925000D03*
D10*
X287393750Y-123825000D03*
D13*
X287893750Y-128975000D03*
D10*
X298393750Y-123825000D03*
D11*
X316943750Y-120025000D03*
D12*
X311943750Y-123825000D03*
D10*
X317443750Y-123825000D03*
D11*
X311943750Y-117925000D03*
D13*
X306943750Y-128975000D03*
D10*
X306443750Y-123825000D03*
X354068750Y-123825000D03*
X365068750Y-123825000D03*
D12*
X359568750Y-123825000D03*
D13*
X354568750Y-128975000D03*
D11*
X359568750Y-117925000D03*
X364568750Y-120025000D03*
D10*
X41218750Y-104775000D03*
X30218750Y-104775000D03*
D12*
X35718750Y-104775000D03*
D11*
X40718750Y-100975000D03*
D13*
X30718750Y-109925000D03*
D11*
X35718750Y-98875000D03*
D13*
X61675000Y-109925000D03*
D10*
X72175000Y-104775000D03*
X61175000Y-104775000D03*
D11*
X71675000Y-100975000D03*
D12*
X66675000Y-104775000D03*
D11*
X66675000Y-98875000D03*
X97868750Y-100975000D03*
D13*
X87868750Y-109925000D03*
D10*
X87368750Y-104775000D03*
D12*
X92868750Y-104775000D03*
D11*
X92868750Y-98875000D03*
D10*
X98368750Y-104775000D03*
D11*
X116918750Y-100975000D03*
X111918750Y-98875000D03*
D10*
X117418750Y-104775000D03*
D13*
X106918750Y-109925000D03*
D12*
X111918750Y-104775000D03*
D10*
X106418750Y-104775000D03*
D11*
X135968750Y-100975000D03*
D10*
X125468750Y-104775000D03*
X136468750Y-104775000D03*
D12*
X130968750Y-104775000D03*
D11*
X130968750Y-98875000D03*
D13*
X125968750Y-109925000D03*
D11*
X150018750Y-98875000D03*
D10*
X155518750Y-104775000D03*
D13*
X145018750Y-109925000D03*
D10*
X144518750Y-104775000D03*
D11*
X155018750Y-100975000D03*
D12*
X150018750Y-104775000D03*
D13*
X164068750Y-109925000D03*
D12*
X169068750Y-104775000D03*
D11*
X169068750Y-98875000D03*
D10*
X163568750Y-104775000D03*
X174568750Y-104775000D03*
D11*
X174068750Y-100975000D03*
D10*
X230243750Y-104775000D03*
D13*
X230743750Y-109925000D03*
D10*
X241243750Y-104775000D03*
D11*
X240743750Y-100975000D03*
X235743750Y-98875000D03*
D12*
X235743750Y-104775000D03*
D10*
X249293750Y-104775000D03*
D11*
X254793750Y-98875000D03*
X259793750Y-100975000D03*
D10*
X260293750Y-104775000D03*
D13*
X249793750Y-109925000D03*
D12*
X254793750Y-104775000D03*
D13*
X268843750Y-109925000D03*
D11*
X273843750Y-98875000D03*
D12*
X273843750Y-104775000D03*
D10*
X268343750Y-104775000D03*
D11*
X278843750Y-100975000D03*
D10*
X279343750Y-104775000D03*
X298393750Y-104775000D03*
D11*
X297893750Y-100975000D03*
D12*
X292893750Y-104775000D03*
D13*
X287893750Y-109925000D03*
D10*
X287393750Y-104775000D03*
D11*
X292893750Y-98875000D03*
D13*
X306943750Y-109925000D03*
D11*
X311943750Y-98875000D03*
D10*
X317443750Y-104775000D03*
D11*
X316943750Y-100975000D03*
D10*
X306443750Y-104775000D03*
D12*
X311943750Y-104775000D03*
D11*
X335993750Y-100975000D03*
D10*
X325493750Y-104775000D03*
D12*
X330993750Y-104775000D03*
D11*
X330993750Y-98875000D03*
D10*
X336493750Y-104775000D03*
D13*
X325993750Y-109925000D03*
D10*
X356450000Y-104775000D03*
D13*
X356950000Y-109925000D03*
D12*
X361950000Y-104775000D03*
D11*
X361950000Y-98875000D03*
X366950000Y-100975000D03*
D10*
X367450000Y-104775000D03*
X34981250Y-85725000D03*
D12*
X40481250Y-85725000D03*
D11*
X40481250Y-79825000D03*
D13*
X35481250Y-90875000D03*
D10*
X45981250Y-85725000D03*
D11*
X45481250Y-81925000D03*
D10*
X74556250Y-85725000D03*
D11*
X69056250Y-79825000D03*
D12*
X69056250Y-85725000D03*
D10*
X63556250Y-85725000D03*
D11*
X74056250Y-81925000D03*
D13*
X64056250Y-90875000D03*
D11*
X97868750Y-81925000D03*
D13*
X87868750Y-90875000D03*
D10*
X98368750Y-85725000D03*
X87368750Y-85725000D03*
D11*
X92868750Y-79825000D03*
D12*
X92868750Y-85725000D03*
D10*
X117418750Y-85725000D03*
D11*
X116918750Y-81925000D03*
D10*
X106418750Y-85725000D03*
D11*
X111918750Y-79825000D03*
D12*
X111918750Y-85725000D03*
D13*
X106918750Y-90875000D03*
D11*
X130968750Y-79825000D03*
D13*
X125968750Y-90875000D03*
D10*
X136468750Y-85725000D03*
D11*
X135968750Y-81925000D03*
D10*
X125468750Y-85725000D03*
D12*
X130968750Y-85725000D03*
D10*
X155518750Y-85725000D03*
X144518750Y-85725000D03*
D12*
X150018750Y-85725000D03*
D13*
X145018750Y-90875000D03*
D11*
X155018750Y-81925000D03*
X150018750Y-79825000D03*
X174068750Y-81925000D03*
X169068750Y-79825000D03*
D10*
X163568750Y-85725000D03*
D12*
X169068750Y-85725000D03*
D13*
X164068750Y-90875000D03*
D10*
X174568750Y-85725000D03*
X230243750Y-85725000D03*
D13*
X230743750Y-90875000D03*
D10*
X241243750Y-85725000D03*
D11*
X240743750Y-81925000D03*
D12*
X235743750Y-85725000D03*
D11*
X235743750Y-79825000D03*
D12*
X254793750Y-85725000D03*
D13*
X249793750Y-90875000D03*
D11*
X259793750Y-81925000D03*
X254793750Y-79825000D03*
D10*
X260293750Y-85725000D03*
X249293750Y-85725000D03*
D11*
X278843750Y-81925000D03*
D10*
X268343750Y-85725000D03*
D11*
X273843750Y-79825000D03*
D13*
X268843750Y-90875000D03*
D10*
X279343750Y-85725000D03*
D12*
X273843750Y-85725000D03*
D13*
X287893750Y-90875000D03*
D11*
X297893750Y-81925000D03*
X292893750Y-79825000D03*
D12*
X292893750Y-85725000D03*
D10*
X287393750Y-85725000D03*
X298393750Y-85725000D03*
D12*
X311943750Y-85725000D03*
D10*
X317443750Y-85725000D03*
D13*
X306943750Y-90875000D03*
D10*
X306443750Y-85725000D03*
D11*
X311943750Y-79825000D03*
X316943750Y-81925000D03*
D10*
X341256250Y-85725000D03*
D11*
X335756250Y-79825000D03*
X340756250Y-81925000D03*
D12*
X335756250Y-85725000D03*
D13*
X330756250Y-90875000D03*
D10*
X330256250Y-85725000D03*
X354068750Y-85725000D03*
D11*
X364568750Y-81925000D03*
D10*
X365068750Y-85725000D03*
D12*
X359568750Y-85725000D03*
D13*
X354568750Y-90875000D03*
D11*
X359568750Y-79825000D03*
D10*
X373118750Y-85725000D03*
X384118750Y-85725000D03*
D11*
X383618750Y-81925000D03*
X378618750Y-79825000D03*
D13*
X373618750Y-90875000D03*
D12*
X378618750Y-85725000D03*
D11*
X45243750Y-60775000D03*
D10*
X50743750Y-66675000D03*
X39743750Y-66675000D03*
D11*
X50243750Y-62875000D03*
D13*
X40243750Y-71825000D03*
D12*
X45243750Y-66675000D03*
D11*
X69056250Y-60775000D03*
D10*
X74556250Y-66675000D03*
D12*
X69056250Y-66675000D03*
D10*
X63556250Y-66675000D03*
D11*
X74056250Y-62875000D03*
D13*
X64056250Y-71825000D03*
D11*
X92868750Y-60775000D03*
X97868750Y-62875000D03*
D12*
X92868750Y-66675000D03*
D10*
X87368750Y-66675000D03*
D13*
X87868750Y-71825000D03*
D10*
X98368750Y-66675000D03*
X117418750Y-66675000D03*
X106418750Y-66675000D03*
D11*
X116918750Y-62875000D03*
D13*
X106918750Y-71825000D03*
D12*
X111918750Y-66675000D03*
D11*
X111918750Y-60775000D03*
X135968750Y-62875000D03*
D10*
X125468750Y-66675000D03*
D11*
X130968750Y-60775000D03*
D13*
X125968750Y-71825000D03*
D12*
X130968750Y-66675000D03*
D10*
X136468750Y-66675000D03*
X155518750Y-66675000D03*
D11*
X155018750Y-62875000D03*
D12*
X150018750Y-66675000D03*
D11*
X150018750Y-60775000D03*
D10*
X144518750Y-66675000D03*
D13*
X145018750Y-71825000D03*
D11*
X169068750Y-60775000D03*
D10*
X174568750Y-66675000D03*
D11*
X174068750Y-62875000D03*
D12*
X169068750Y-66675000D03*
D13*
X164068750Y-71825000D03*
D10*
X163568750Y-66675000D03*
X230243750Y-66675000D03*
D11*
X235743750Y-60775000D03*
D12*
X235743750Y-66675000D03*
D10*
X241243750Y-66675000D03*
D11*
X240743750Y-62875000D03*
D13*
X230743750Y-71825000D03*
D10*
X260293750Y-66675000D03*
D13*
X249793750Y-71825000D03*
D10*
X249293750Y-66675000D03*
D11*
X254793750Y-60775000D03*
D12*
X254793750Y-66675000D03*
D11*
X259793750Y-62875000D03*
X278843750Y-62875000D03*
D12*
X273843750Y-66675000D03*
D10*
X279343750Y-66675000D03*
D11*
X273843750Y-60775000D03*
D13*
X268843750Y-71825000D03*
D10*
X268343750Y-66675000D03*
X298393750Y-66675000D03*
D11*
X297893750Y-62875000D03*
D10*
X287393750Y-66675000D03*
D12*
X292893750Y-66675000D03*
D11*
X292893750Y-60775000D03*
D13*
X287893750Y-71825000D03*
D10*
X317443750Y-66675000D03*
D11*
X311943750Y-60775000D03*
D10*
X306443750Y-66675000D03*
D13*
X306943750Y-71825000D03*
D12*
X311943750Y-66675000D03*
D11*
X316943750Y-62875000D03*
X335993750Y-62875000D03*
X330993750Y-60775000D03*
D10*
X336493750Y-66675000D03*
X325493750Y-66675000D03*
D12*
X330993750Y-66675000D03*
D13*
X325993750Y-71825000D03*
D12*
X350043750Y-66675000D03*
D10*
X344543750Y-66675000D03*
D11*
X355043750Y-62875000D03*
D10*
X355543750Y-66675000D03*
D11*
X350043750Y-60775000D03*
D13*
X345043750Y-71825000D03*
X364093750Y-71825000D03*
D12*
X369093750Y-66675000D03*
D11*
X369093750Y-60775000D03*
D10*
X363593750Y-66675000D03*
D11*
X374093750Y-62875000D03*
D10*
X374593750Y-66675000D03*
D12*
X61912500Y-123825000D03*
D10*
X67412500Y-123825000D03*
D11*
X61912500Y-117925000D03*
X66912500Y-120025000D03*
D13*
X56912500Y-128975000D03*
D10*
X56412500Y-123825000D03*
D14*
X180500000Y-62000000D03*
D15*
X198750000Y-105750000D03*
D16*
X205250000Y-105750000D03*
X198750000Y-110250000D03*
X205250000Y-110250000D03*
D14*
X274000000Y-147000000D03*
X185000000Y-142500000D03*
X384000000Y-128000000D03*
X385000000Y-62000000D03*
X163000000Y-183000000D03*
X185000000Y-117500000D03*
X31000000Y-62000000D03*
X220000000Y-117500000D03*
X242000000Y-183000000D03*
D17*
X194380000Y-73016750D03*
X194380000Y-75556750D03*
X194380000Y-78096750D03*
X194380000Y-80636750D03*
X194380000Y-83176750D03*
X194380000Y-85716750D03*
X194380000Y-88256750D03*
X194380000Y-90796750D03*
X194380000Y-93336750D03*
X194380000Y-95876750D03*
X194380000Y-98416750D03*
X194380000Y-100956750D03*
X209620000Y-100956750D03*
X209620000Y-98416750D03*
X209620000Y-95876750D03*
X209620000Y-93336750D03*
X209620000Y-90796750D03*
X209620000Y-88256750D03*
X209620000Y-85716750D03*
X209620000Y-83176750D03*
X209620000Y-80636750D03*
X209620000Y-78096750D03*
X209620000Y-75556750D03*
X209620000Y-73016750D03*
X196920000Y-95876750D03*
X199460000Y-95876750D03*
X202000000Y-95876750D03*
D14*
X31000000Y-147000000D03*
X220000000Y-142500000D03*
X126000000Y-147000000D03*
X224500000Y-62000000D03*
M02*
