%TF.GenerationSoftware,KiCad,Pcbnew,(5.1.10)-1*%
%TF.CreationDate,2021-07-27T20:36:26+12:00*%
%TF.ProjectId,orthoCode,6f727468-6f43-46f6-9465-2e6b69636164,rev?*%
%TF.SameCoordinates,Original*%
%TF.FileFunction,Legend,Bot*%
%TF.FilePolarity,Positive*%
%FSLAX46Y46*%
G04 Gerber Fmt 4.6, Leading zero omitted, Abs format (unit mm)*
G04 Created by KiCad (PCBNEW (5.1.10)-1) date 2021-07-27 20:36:26*
%MOMM*%
%LPD*%
G01*
G04 APERTURE LIST*
%ADD10C,0.150000*%
G04 APERTURE END LIST*
%TO.C,RGB1*%
D10*
X78172380Y-103139583D02*
X77696190Y-102806250D01*
X78172380Y-102568154D02*
X77172380Y-102568154D01*
X77172380Y-102949107D01*
X77220000Y-103044345D01*
X77267619Y-103091964D01*
X77362857Y-103139583D01*
X77505714Y-103139583D01*
X77600952Y-103091964D01*
X77648571Y-103044345D01*
X77696190Y-102949107D01*
X77696190Y-102568154D01*
X77220000Y-104091964D02*
X77172380Y-103996726D01*
X77172380Y-103853869D01*
X77220000Y-103711011D01*
X77315238Y-103615773D01*
X77410476Y-103568154D01*
X77600952Y-103520535D01*
X77743809Y-103520535D01*
X77934285Y-103568154D01*
X78029523Y-103615773D01*
X78124761Y-103711011D01*
X78172380Y-103853869D01*
X78172380Y-103949107D01*
X78124761Y-104091964D01*
X78077142Y-104139583D01*
X77743809Y-104139583D01*
X77743809Y-103949107D01*
X77648571Y-104901488D02*
X77696190Y-105044345D01*
X77743809Y-105091964D01*
X77839047Y-105139583D01*
X77981904Y-105139583D01*
X78077142Y-105091964D01*
X78124761Y-105044345D01*
X78172380Y-104949107D01*
X78172380Y-104568154D01*
X77172380Y-104568154D01*
X77172380Y-104901488D01*
X77220000Y-104996726D01*
X77267619Y-105044345D01*
X77362857Y-105091964D01*
X77458095Y-105091964D01*
X77553333Y-105044345D01*
X77600952Y-104996726D01*
X77648571Y-104901488D01*
X77648571Y-104568154D01*
X78172380Y-106091964D02*
X78172380Y-105520535D01*
X78172380Y-105806250D02*
X77172380Y-105806250D01*
X77315238Y-105711011D01*
X77410476Y-105615773D01*
X77458095Y-105520535D01*
X84571904Y-101735000D02*
X84667142Y-101687380D01*
X84810000Y-101687380D01*
X84952857Y-101735000D01*
X85048095Y-101830238D01*
X85095714Y-101925476D01*
X85143333Y-102115952D01*
X85143333Y-102258809D01*
X85095714Y-102449285D01*
X85048095Y-102544523D01*
X84952857Y-102639761D01*
X84810000Y-102687380D01*
X84714761Y-102687380D01*
X84571904Y-102639761D01*
X84524285Y-102592142D01*
X84524285Y-102258809D01*
X84714761Y-102258809D01*
X84095714Y-102687380D02*
X84095714Y-101687380D01*
X83524285Y-102687380D01*
X83524285Y-101687380D01*
X83048095Y-102687380D02*
X83048095Y-101687380D01*
X82810000Y-101687380D01*
X82667142Y-101735000D01*
X82571904Y-101830238D01*
X82524285Y-101925476D01*
X82476666Y-102115952D01*
X82476666Y-102258809D01*
X82524285Y-102449285D01*
X82571904Y-102544523D01*
X82667142Y-102639761D01*
X82810000Y-102687380D01*
X83048095Y-102687380D01*
X85310000Y-105068630D02*
X85310000Y-104068630D01*
X85071904Y-104068630D01*
X84929047Y-104116250D01*
X84833809Y-104211488D01*
X84786190Y-104306726D01*
X84738571Y-104497202D01*
X84738571Y-104640059D01*
X84786190Y-104830535D01*
X84833809Y-104925773D01*
X84929047Y-105021011D01*
X85071904Y-105068630D01*
X85310000Y-105068630D01*
X84357619Y-104782916D02*
X83881428Y-104782916D01*
X84452857Y-105068630D02*
X84119523Y-104068630D01*
X83786190Y-105068630D01*
X83595714Y-104068630D02*
X83024285Y-104068630D01*
X83310000Y-105068630D02*
X83310000Y-104068630D01*
X82738571Y-104782916D02*
X82262380Y-104782916D01*
X82833809Y-105068630D02*
X82500476Y-104068630D01*
X82167142Y-105068630D01*
X85143333Y-107608630D02*
X85143333Y-106608630D01*
X84762380Y-106608630D01*
X84667142Y-106656250D01*
X84619523Y-106703869D01*
X84571904Y-106799107D01*
X84571904Y-106941964D01*
X84619523Y-107037202D01*
X84667142Y-107084821D01*
X84762380Y-107132440D01*
X85143333Y-107132440D01*
X84238571Y-106608630D02*
X84000476Y-107608630D01*
X83810000Y-106894345D01*
X83619523Y-107608630D01*
X83381428Y-106608630D01*
X82429047Y-107608630D02*
X82762380Y-107132440D01*
X83000476Y-107608630D02*
X83000476Y-106608630D01*
X82619523Y-106608630D01*
X82524285Y-106656250D01*
X82476666Y-106703869D01*
X82429047Y-106799107D01*
X82429047Y-106941964D01*
X82476666Y-107037202D01*
X82524285Y-107084821D01*
X82619523Y-107132440D01*
X83000476Y-107132440D01*
%TD*%
M02*
