%TF.GenerationSoftware,KiCad,Pcbnew,(6.0.10)*%
%TF.CreationDate,2023-07-04T23:09:52+12:00*%
%TF.ProjectId,orthoCode,6f727468-6f43-46f6-9465-2e6b69636164,rev?*%
%TF.SameCoordinates,Original*%
%TF.FileFunction,Drillmap*%
%TF.FilePolarity,Positive*%
%FSLAX45Y45*%
G04 Gerber Fmt 4.5, Leading zero omitted, Abs format (unit mm)*
G04 Created by KiCad (PCBNEW (6.0.10)) date 2023-07-04 23:09:52*
%MOMM*%
%LPD*%
G01*
G04 APERTURE LIST*
%ADD10C,0.050000*%
%ADD11C,0.200000*%
%ADD12C,0.190000*%
%ADD13C,0.505000*%
G04 APERTURE END LIST*
D10*
X38697868Y-15199998D02*
G75*
G03*
X38997868Y-14900000I2J299998D01*
G01*
X18420000Y-6440000D02*
G75*
G03*
X18720000Y-6740000I300000J0D01*
G01*
X27400000Y-15200724D02*
G75*
G03*
X27000000Y-15400000I10110J-521386D01*
G01*
X2900000Y-15200000D02*
X13100000Y-15200722D01*
X24300000Y-18900000D02*
X16190080Y-18900000D01*
X21800000Y-6740000D02*
G75*
G03*
X22100000Y-6440000I0J300000D01*
G01*
X2900000Y-5797868D02*
G75*
G03*
X2600000Y-6097868I0J-300000D01*
G01*
X2600000Y-6097868D02*
X2600000Y-14900000D01*
X27000000Y-15400000D02*
X24690080Y-18700060D01*
X18720000Y-6740000D02*
X21800000Y-6740000D01*
X22100000Y-6100000D02*
X22100000Y-6440000D01*
X38997868Y-6100000D02*
X38997868Y-14900000D01*
X2600000Y-14900000D02*
G75*
G03*
X2900000Y-15200000I300000J0D01*
G01*
X18420000Y-6100000D02*
G75*
G03*
X18120000Y-5800000I-300000J0D01*
G01*
X18120000Y-5800000D02*
X2900000Y-5797868D01*
X18420000Y-6100000D02*
X18420000Y-6440000D01*
X38697868Y-15200000D02*
X27400000Y-15200722D01*
X24300000Y-18900000D02*
G75*
G03*
X24690080Y-18700060I-10000J500000D01*
G01*
X15800000Y-18700060D02*
G75*
G03*
X16190080Y-18900000I400080J300060D01*
G01*
X38697868Y-5800000D02*
X22400000Y-5800000D01*
X13500000Y-15400000D02*
X15800000Y-18700060D01*
X38997870Y-6100000D02*
G75*
G03*
X38697868Y-5800000I-300000J0D01*
G01*
X22400000Y-5800000D02*
G75*
G03*
X22100000Y-6100000I0J-300000D01*
G01*
X13499999Y-15400001D02*
G75*
G03*
X13100000Y-15200722I-410109J-322099D01*
G01*
D11*
D12*
X2926875Y-10382500D02*
X3116875Y-10572500D01*
X3116875Y-10382500D02*
X2926875Y-10572500D01*
X3403125Y-8477500D02*
X3593125Y-8667500D01*
X3593125Y-8477500D02*
X3403125Y-8667500D01*
X3879375Y-6572500D02*
X4069375Y-6762500D01*
X4069375Y-6572500D02*
X3879375Y-6762500D01*
X4026875Y-10382500D02*
X4216875Y-10572500D01*
X4216875Y-10382500D02*
X4026875Y-10572500D01*
X4503125Y-8477500D02*
X4693125Y-8667500D01*
X4693125Y-8477500D02*
X4503125Y-8667500D01*
X4979375Y-6572500D02*
X5169375Y-6762500D01*
X5169375Y-6572500D02*
X4979375Y-6762500D01*
X5546250Y-12287500D02*
X5736250Y-12477500D01*
X5736250Y-12287500D02*
X5546250Y-12477500D01*
X5546250Y-14192500D02*
X5736250Y-14382500D01*
X5736250Y-14192500D02*
X5546250Y-14382500D01*
X6022500Y-10382500D02*
X6212500Y-10572500D01*
X6212500Y-10382500D02*
X6022500Y-10572500D01*
X6260625Y-6572500D02*
X6450625Y-6762500D01*
X6450625Y-6572500D02*
X6260625Y-6762500D01*
X6260625Y-8477500D02*
X6450625Y-8667500D01*
X6450625Y-8477500D02*
X6260625Y-8667500D01*
X6646250Y-12287500D02*
X6836250Y-12477500D01*
X6836250Y-12287500D02*
X6646250Y-12477500D01*
X6646250Y-14192500D02*
X6836250Y-14382500D01*
X6836250Y-14192500D02*
X6646250Y-14382500D01*
X7122500Y-10382500D02*
X7312500Y-10572500D01*
X7312500Y-10382500D02*
X7122500Y-10572500D01*
X7360625Y-6572500D02*
X7550625Y-6762500D01*
X7550625Y-6572500D02*
X7360625Y-6762500D01*
X7360625Y-8477500D02*
X7550625Y-8667500D01*
X7550625Y-8477500D02*
X7360625Y-8667500D01*
X7927500Y-14192500D02*
X8117500Y-14382500D01*
X8117500Y-14192500D02*
X7927500Y-14382500D01*
X8641875Y-6572500D02*
X8831875Y-6762500D01*
X8831875Y-6572500D02*
X8641875Y-6762500D01*
X8641875Y-8477500D02*
X8831875Y-8667500D01*
X8831875Y-8477500D02*
X8641875Y-8667500D01*
X8641875Y-10382500D02*
X8831875Y-10572500D01*
X8831875Y-10382500D02*
X8641875Y-10572500D01*
X8641875Y-12287500D02*
X8831875Y-12477500D01*
X8831875Y-12287500D02*
X8641875Y-12477500D01*
X9027500Y-14192500D02*
X9217500Y-14382500D01*
X9217500Y-14192500D02*
X9027500Y-14382500D01*
X9741875Y-6572500D02*
X9931875Y-6762500D01*
X9931875Y-6572500D02*
X9741875Y-6762500D01*
X9741875Y-8477500D02*
X9931875Y-8667500D01*
X9931875Y-8477500D02*
X9741875Y-8667500D01*
X9741875Y-10382500D02*
X9931875Y-10572500D01*
X9931875Y-10382500D02*
X9741875Y-10572500D01*
X9741875Y-12287500D02*
X9931875Y-12477500D01*
X9931875Y-12287500D02*
X9741875Y-12477500D01*
X10308750Y-14192500D02*
X10498750Y-14382500D01*
X10498750Y-14192500D02*
X10308750Y-14382500D01*
X10546875Y-6572500D02*
X10736875Y-6762500D01*
X10736875Y-6572500D02*
X10546875Y-6762500D01*
X10546875Y-8477500D02*
X10736875Y-8667500D01*
X10736875Y-8477500D02*
X10546875Y-8667500D01*
X10546875Y-10382500D02*
X10736875Y-10572500D01*
X10736875Y-10382500D02*
X10546875Y-10572500D01*
X10546875Y-12287500D02*
X10736875Y-12477500D01*
X10736875Y-12287500D02*
X10546875Y-12477500D01*
X11408750Y-14192500D02*
X11598750Y-14382500D01*
X11598750Y-14192500D02*
X11408750Y-14382500D01*
X11646875Y-6572500D02*
X11836875Y-6762500D01*
X11836875Y-6572500D02*
X11646875Y-6762500D01*
X11646875Y-8477500D02*
X11836875Y-8667500D01*
X11836875Y-8477500D02*
X11646875Y-8667500D01*
X11646875Y-10382500D02*
X11836875Y-10572500D01*
X11836875Y-10382500D02*
X11646875Y-10572500D01*
X11646875Y-12287500D02*
X11836875Y-12477500D01*
X11836875Y-12287500D02*
X11646875Y-12477500D01*
X12451875Y-6572500D02*
X12641875Y-6762500D01*
X12641875Y-6572500D02*
X12451875Y-6762500D01*
X12451875Y-8477500D02*
X12641875Y-8667500D01*
X12641875Y-8477500D02*
X12451875Y-8667500D01*
X12451875Y-10382500D02*
X12641875Y-10572500D01*
X12641875Y-10382500D02*
X12451875Y-10572500D01*
X12451875Y-12287500D02*
X12641875Y-12477500D01*
X12641875Y-12287500D02*
X12451875Y-12477500D01*
X13551875Y-6572500D02*
X13741875Y-6762500D01*
X13741875Y-6572500D02*
X13551875Y-6762500D01*
X13551875Y-8477500D02*
X13741875Y-8667500D01*
X13741875Y-8477500D02*
X13551875Y-8667500D01*
X13551875Y-10382500D02*
X13741875Y-10572500D01*
X13741875Y-10382500D02*
X13551875Y-10572500D01*
X13551875Y-12287500D02*
X13741875Y-12477500D01*
X13741875Y-12287500D02*
X13551875Y-12477500D01*
X13642500Y-14192500D02*
X13832500Y-14382500D01*
X13832500Y-14192500D02*
X13642500Y-14382500D01*
X14356875Y-6572500D02*
X14546875Y-6762500D01*
X14546875Y-6572500D02*
X14356875Y-6762500D01*
X14356875Y-8477500D02*
X14546875Y-8667500D01*
X14546875Y-8477500D02*
X14356875Y-8667500D01*
X14356875Y-10382500D02*
X14546875Y-10572500D01*
X14546875Y-10382500D02*
X14356875Y-10572500D01*
X14356875Y-12287500D02*
X14546875Y-12477500D01*
X14546875Y-12287500D02*
X14356875Y-12477500D01*
X14742500Y-14192500D02*
X14932500Y-14382500D01*
X14932500Y-14192500D02*
X14742500Y-14382500D01*
X15456875Y-6572500D02*
X15646875Y-6762500D01*
X15646875Y-6572500D02*
X15456875Y-6762500D01*
X15456875Y-8477500D02*
X15646875Y-8667500D01*
X15646875Y-8477500D02*
X15456875Y-8667500D01*
X15456875Y-10382500D02*
X15646875Y-10572500D01*
X15646875Y-10382500D02*
X15456875Y-10572500D01*
X15456875Y-12287500D02*
X15646875Y-12477500D01*
X15646875Y-12287500D02*
X15456875Y-12477500D01*
X16261875Y-6572500D02*
X16451875Y-6762500D01*
X16451875Y-6572500D02*
X16261875Y-6762500D01*
X16261875Y-8477500D02*
X16451875Y-8667500D01*
X16451875Y-8477500D02*
X16261875Y-8667500D01*
X16261875Y-10382500D02*
X16451875Y-10572500D01*
X16451875Y-10382500D02*
X16261875Y-10572500D01*
X16261875Y-12287500D02*
X16451875Y-12477500D01*
X16451875Y-12287500D02*
X16261875Y-12477500D01*
X16431399Y-16866884D02*
X16621399Y-17056884D01*
X16621399Y-16866884D02*
X16431399Y-17056884D01*
X16716100Y-15804366D02*
X16906101Y-15994366D01*
X16906101Y-15804366D02*
X16716100Y-15994366D01*
X17361875Y-6572500D02*
X17551875Y-6762500D01*
X17551875Y-6572500D02*
X17361875Y-6762500D01*
X17361875Y-8477500D02*
X17551875Y-8667500D01*
X17551875Y-8477500D02*
X17361875Y-8667500D01*
X17361875Y-10382500D02*
X17551875Y-10572500D01*
X17551875Y-10382500D02*
X17361875Y-10572500D01*
X17361875Y-12287500D02*
X17551875Y-12477500D01*
X17551875Y-12287500D02*
X17361875Y-12477500D01*
X18336400Y-17343134D02*
X18526400Y-17533134D01*
X18526400Y-17343134D02*
X18336400Y-17533134D01*
X18621101Y-16280616D02*
X18811101Y-16470616D01*
X18811101Y-16280616D02*
X18621101Y-16470616D01*
X21670150Y-16280616D02*
X21860150Y-16470616D01*
X21860150Y-16280616D02*
X21670150Y-16470616D01*
X21954851Y-17343134D02*
X22144851Y-17533134D01*
X22144851Y-17343134D02*
X21954851Y-17533134D01*
X22929375Y-6572500D02*
X23119375Y-6762500D01*
X23119375Y-6572500D02*
X22929375Y-6762500D01*
X22929375Y-8477500D02*
X23119375Y-8667500D01*
X23119375Y-8477500D02*
X22929375Y-8667500D01*
X22929375Y-10382500D02*
X23119375Y-10572500D01*
X23119375Y-10382500D02*
X22929375Y-10572500D01*
X22929375Y-12287500D02*
X23119375Y-12477500D01*
X23119375Y-12287500D02*
X22929375Y-12477500D01*
X23575149Y-15804366D02*
X23765149Y-15994366D01*
X23765149Y-15804366D02*
X23575149Y-15994366D01*
X23859850Y-16866884D02*
X24049850Y-17056884D01*
X24049850Y-16866884D02*
X23859850Y-17056884D01*
X24029375Y-6572500D02*
X24219375Y-6762500D01*
X24219375Y-6572500D02*
X24029375Y-6762500D01*
X24029375Y-8477500D02*
X24219375Y-8667500D01*
X24219375Y-8477500D02*
X24029375Y-8667500D01*
X24029375Y-10382500D02*
X24219375Y-10572500D01*
X24219375Y-10382500D02*
X24029375Y-10572500D01*
X24029375Y-12287500D02*
X24219375Y-12477500D01*
X24219375Y-12287500D02*
X24029375Y-12477500D01*
X24834375Y-6572500D02*
X25024375Y-6762500D01*
X25024375Y-6572500D02*
X24834375Y-6762500D01*
X24834375Y-8477500D02*
X25024375Y-8667500D01*
X25024375Y-8477500D02*
X24834375Y-8667500D01*
X24834375Y-10382500D02*
X25024375Y-10572500D01*
X25024375Y-10382500D02*
X24834375Y-10572500D01*
X24834375Y-12287500D02*
X25024375Y-12477500D01*
X25024375Y-12287500D02*
X24834375Y-12477500D01*
X25548750Y-14192500D02*
X25738750Y-14382500D01*
X25738750Y-14192500D02*
X25548750Y-14382500D01*
X25934375Y-6572500D02*
X26124375Y-6762500D01*
X26124375Y-6572500D02*
X25934375Y-6762500D01*
X25934375Y-8477500D02*
X26124375Y-8667500D01*
X26124375Y-8477500D02*
X25934375Y-8667500D01*
X25934375Y-10382500D02*
X26124375Y-10572500D01*
X26124375Y-10382500D02*
X25934375Y-10572500D01*
X25934375Y-12287500D02*
X26124375Y-12477500D01*
X26124375Y-12287500D02*
X25934375Y-12477500D01*
X26648750Y-14192500D02*
X26838750Y-14382500D01*
X26838750Y-14192500D02*
X26648750Y-14382500D01*
X26739375Y-6572500D02*
X26929375Y-6762500D01*
X26929375Y-6572500D02*
X26739375Y-6762500D01*
X26739375Y-8477500D02*
X26929375Y-8667500D01*
X26929375Y-8477500D02*
X26739375Y-8667500D01*
X26739375Y-10382500D02*
X26929375Y-10572500D01*
X26929375Y-10382500D02*
X26739375Y-10572500D01*
X26739375Y-12287500D02*
X26929375Y-12477500D01*
X26929375Y-12287500D02*
X26739375Y-12477500D01*
X27839375Y-6572500D02*
X28029375Y-6762500D01*
X28029375Y-6572500D02*
X27839375Y-6762500D01*
X27839375Y-8477500D02*
X28029375Y-8667500D01*
X28029375Y-8477500D02*
X27839375Y-8667500D01*
X27839375Y-10382500D02*
X28029375Y-10572500D01*
X28029375Y-10382500D02*
X27839375Y-10572500D01*
X27839375Y-12287500D02*
X28029375Y-12477500D01*
X28029375Y-12287500D02*
X27839375Y-12477500D01*
X27930000Y-14192500D02*
X28120000Y-14382500D01*
X28120000Y-14192500D02*
X27930000Y-14382500D01*
X28644375Y-6572500D02*
X28834375Y-6762500D01*
X28834375Y-6572500D02*
X28644375Y-6762500D01*
X28644375Y-8477500D02*
X28834375Y-8667500D01*
X28834375Y-8477500D02*
X28644375Y-8667500D01*
X28644375Y-10382500D02*
X28834375Y-10572500D01*
X28834375Y-10382500D02*
X28644375Y-10572500D01*
X28644375Y-12287500D02*
X28834375Y-12477500D01*
X28834375Y-12287500D02*
X28644375Y-12477500D01*
X29030000Y-14192500D02*
X29220000Y-14382500D01*
X29220000Y-14192500D02*
X29030000Y-14382500D01*
X29744375Y-6572500D02*
X29934375Y-6762500D01*
X29934375Y-6572500D02*
X29744375Y-6762500D01*
X29744375Y-8477500D02*
X29934375Y-8667500D01*
X29934375Y-8477500D02*
X29744375Y-8667500D01*
X29744375Y-10382500D02*
X29934375Y-10572500D01*
X29934375Y-10382500D02*
X29744375Y-10572500D01*
X29744375Y-12287500D02*
X29934375Y-12477500D01*
X29934375Y-12287500D02*
X29744375Y-12477500D01*
X30311250Y-14192500D02*
X30501250Y-14382500D01*
X30501250Y-14192500D02*
X30311250Y-14382500D01*
X30549375Y-6572500D02*
X30739375Y-6762500D01*
X30739375Y-6572500D02*
X30549375Y-6762500D01*
X30549375Y-8477500D02*
X30739375Y-8667500D01*
X30739375Y-8477500D02*
X30549375Y-8667500D01*
X30549375Y-10382500D02*
X30739375Y-10572500D01*
X30739375Y-10382500D02*
X30549375Y-10572500D01*
X30549375Y-12287500D02*
X30739375Y-12477500D01*
X30739375Y-12287500D02*
X30549375Y-12477500D01*
X31411250Y-14192500D02*
X31601250Y-14382500D01*
X31601250Y-14192500D02*
X31411250Y-14382500D01*
X31649375Y-6572500D02*
X31839375Y-6762500D01*
X31839375Y-6572500D02*
X31649375Y-6762500D01*
X31649375Y-8477500D02*
X31839375Y-8667500D01*
X31839375Y-8477500D02*
X31649375Y-8667500D01*
X31649375Y-10382500D02*
X31839375Y-10572500D01*
X31839375Y-10382500D02*
X31649375Y-10572500D01*
X31649375Y-12287500D02*
X31839375Y-12477500D01*
X31839375Y-12287500D02*
X31649375Y-12477500D01*
X32454375Y-6572500D02*
X32644375Y-6762500D01*
X32644375Y-6572500D02*
X32454375Y-6762500D01*
X32454375Y-10382500D02*
X32644375Y-10572500D01*
X32644375Y-10382500D02*
X32454375Y-10572500D01*
X32930625Y-8477500D02*
X33120625Y-8667500D01*
X33120625Y-8477500D02*
X32930625Y-8667500D01*
X33406875Y-14192500D02*
X33596875Y-14382500D01*
X33596875Y-14192500D02*
X33406875Y-14382500D01*
X33554375Y-6572500D02*
X33744375Y-6762500D01*
X33744375Y-6572500D02*
X33554375Y-6762500D01*
X33554375Y-10382500D02*
X33744375Y-10572500D01*
X33744375Y-10382500D02*
X33554375Y-10572500D01*
X34030625Y-8477500D02*
X34220625Y-8667500D01*
X34220625Y-8477500D02*
X34030625Y-8667500D01*
X34359375Y-6572500D02*
X34549375Y-6762500D01*
X34549375Y-6572500D02*
X34359375Y-6762500D01*
X34506875Y-14192500D02*
X34696875Y-14382500D01*
X34696875Y-14192500D02*
X34506875Y-14382500D01*
X35311875Y-8477500D02*
X35501875Y-8667500D01*
X35501875Y-8477500D02*
X35311875Y-8667500D01*
X35311875Y-12287500D02*
X35501875Y-12477500D01*
X35501875Y-12287500D02*
X35311875Y-12477500D01*
X35311875Y-14192500D02*
X35501875Y-14382500D01*
X35501875Y-14192500D02*
X35311875Y-14382500D01*
X35459375Y-6572500D02*
X35649375Y-6762500D01*
X35649375Y-6572500D02*
X35459375Y-6762500D01*
X35550000Y-10382500D02*
X35740000Y-10572500D01*
X35740000Y-10382500D02*
X35550000Y-10572500D01*
X36264375Y-6572500D02*
X36454375Y-6762500D01*
X36454375Y-6572500D02*
X36264375Y-6762500D01*
X36411875Y-8477500D02*
X36601875Y-8667500D01*
X36601875Y-8477500D02*
X36411875Y-8667500D01*
X36411875Y-12287500D02*
X36601875Y-12477500D01*
X36601875Y-12287500D02*
X36411875Y-12477500D01*
X36411875Y-14192500D02*
X36601875Y-14382500D01*
X36601875Y-14192500D02*
X36411875Y-14382500D01*
X36650000Y-10382500D02*
X36840000Y-10572500D01*
X36840000Y-10382500D02*
X36650000Y-10572500D01*
X37216875Y-8477500D02*
X37406875Y-8667500D01*
X37406875Y-8477500D02*
X37216875Y-8667500D01*
X37216875Y-14192500D02*
X37406875Y-14382500D01*
X37406875Y-14192500D02*
X37216875Y-14382500D01*
X37364375Y-6572500D02*
X37554375Y-6762500D01*
X37554375Y-6572500D02*
X37364375Y-6762500D01*
X38316875Y-8477500D02*
X38506875Y-8667500D01*
X38506875Y-8477500D02*
X38316875Y-8667500D01*
X38316875Y-14192500D02*
X38506875Y-14382500D01*
X38506875Y-14192500D02*
X38316875Y-14382500D01*
D13*
X3824375Y-10477500D02*
G75*
G03*
X3824375Y-10477500I-252500J0D01*
G01*
X4300625Y-8572500D02*
G75*
G03*
X4300625Y-8572500I-252500J0D01*
G01*
X4776875Y-6667500D02*
G75*
G03*
X4776875Y-6667500I-252500J0D01*
G01*
X6443750Y-12382500D02*
G75*
G03*
X6443750Y-12382500I-252500J0D01*
G01*
X6443750Y-14287500D02*
G75*
G03*
X6443750Y-14287500I-252500J0D01*
G01*
X6920000Y-10477500D02*
G75*
G03*
X6920000Y-10477500I-252500J0D01*
G01*
X7158125Y-6667500D02*
G75*
G03*
X7158125Y-6667500I-252500J0D01*
G01*
X7158125Y-8572500D02*
G75*
G03*
X7158125Y-8572500I-252500J0D01*
G01*
X8825000Y-14287500D02*
G75*
G03*
X8825000Y-14287500I-252500J0D01*
G01*
X9539375Y-6667500D02*
G75*
G03*
X9539375Y-6667500I-252500J0D01*
G01*
X9539375Y-8572500D02*
G75*
G03*
X9539375Y-8572500I-252500J0D01*
G01*
X9539375Y-10477500D02*
G75*
G03*
X9539375Y-10477500I-252500J0D01*
G01*
X9539375Y-12382500D02*
G75*
G03*
X9539375Y-12382500I-252500J0D01*
G01*
X11206250Y-14287500D02*
G75*
G03*
X11206250Y-14287500I-252500J0D01*
G01*
X11444375Y-6667500D02*
G75*
G03*
X11444375Y-6667500I-252500J0D01*
G01*
X11444375Y-8572500D02*
G75*
G03*
X11444375Y-8572500I-252500J0D01*
G01*
X11444375Y-10477500D02*
G75*
G03*
X11444375Y-10477500I-252500J0D01*
G01*
X11444375Y-12382500D02*
G75*
G03*
X11444375Y-12382500I-252500J0D01*
G01*
X13349375Y-6667500D02*
G75*
G03*
X13349375Y-6667500I-252500J0D01*
G01*
X13349375Y-8572500D02*
G75*
G03*
X13349375Y-8572500I-252500J0D01*
G01*
X13349375Y-10477500D02*
G75*
G03*
X13349375Y-10477500I-252500J0D01*
G01*
X13349375Y-12382500D02*
G75*
G03*
X13349375Y-12382500I-252500J0D01*
G01*
X14540000Y-14287500D02*
G75*
G03*
X14540000Y-14287500I-252500J0D01*
G01*
X15254375Y-6667500D02*
G75*
G03*
X15254375Y-6667500I-252500J0D01*
G01*
X15254375Y-8572500D02*
G75*
G03*
X15254375Y-8572500I-252500J0D01*
G01*
X15254375Y-10477500D02*
G75*
G03*
X15254375Y-10477500I-252500J0D01*
G01*
X15254375Y-12382500D02*
G75*
G03*
X15254375Y-12382500I-252500J0D01*
G01*
X16921250Y-16430625D02*
G75*
G03*
X16921250Y-16430625I-252500J0D01*
G01*
X17159375Y-6667500D02*
G75*
G03*
X17159375Y-6667500I-252500J0D01*
G01*
X17159375Y-8572500D02*
G75*
G03*
X17159375Y-8572500I-252500J0D01*
G01*
X17159375Y-10477500D02*
G75*
G03*
X17159375Y-10477500I-252500J0D01*
G01*
X17159375Y-12382500D02*
G75*
G03*
X17159375Y-12382500I-252500J0D01*
G01*
X18826250Y-16906875D02*
G75*
G03*
X18826250Y-16906875I-252500J0D01*
G01*
X22160000Y-16906875D02*
G75*
G03*
X22160000Y-16906875I-252500J0D01*
G01*
X23826875Y-6667500D02*
G75*
G03*
X23826875Y-6667500I-252500J0D01*
G01*
X23826875Y-8572500D02*
G75*
G03*
X23826875Y-8572500I-252500J0D01*
G01*
X23826875Y-10477500D02*
G75*
G03*
X23826875Y-10477500I-252500J0D01*
G01*
X23826875Y-12382500D02*
G75*
G03*
X23826875Y-12382500I-252500J0D01*
G01*
X24065000Y-16430625D02*
G75*
G03*
X24065000Y-16430625I-252500J0D01*
G01*
X25731875Y-6667500D02*
G75*
G03*
X25731875Y-6667500I-252500J0D01*
G01*
X25731875Y-8572500D02*
G75*
G03*
X25731875Y-8572500I-252500J0D01*
G01*
X25731875Y-10477500D02*
G75*
G03*
X25731875Y-10477500I-252500J0D01*
G01*
X25731875Y-12382500D02*
G75*
G03*
X25731875Y-12382500I-252500J0D01*
G01*
X26446250Y-14287500D02*
G75*
G03*
X26446250Y-14287500I-252500J0D01*
G01*
X27636875Y-6667500D02*
G75*
G03*
X27636875Y-6667500I-252500J0D01*
G01*
X27636875Y-8572500D02*
G75*
G03*
X27636875Y-8572500I-252500J0D01*
G01*
X27636875Y-10477500D02*
G75*
G03*
X27636875Y-10477500I-252500J0D01*
G01*
X27636875Y-12382500D02*
G75*
G03*
X27636875Y-12382500I-252500J0D01*
G01*
X28827500Y-14287500D02*
G75*
G03*
X28827500Y-14287500I-252500J0D01*
G01*
X29541875Y-6667500D02*
G75*
G03*
X29541875Y-6667500I-252500J0D01*
G01*
X29541875Y-8572500D02*
G75*
G03*
X29541875Y-8572500I-252500J0D01*
G01*
X29541875Y-10477500D02*
G75*
G03*
X29541875Y-10477500I-252500J0D01*
G01*
X29541875Y-12382500D02*
G75*
G03*
X29541875Y-12382500I-252500J0D01*
G01*
X31208750Y-14287500D02*
G75*
G03*
X31208750Y-14287500I-252500J0D01*
G01*
X31446875Y-6667500D02*
G75*
G03*
X31446875Y-6667500I-252500J0D01*
G01*
X31446875Y-8572500D02*
G75*
G03*
X31446875Y-8572500I-252500J0D01*
G01*
X31446875Y-10477500D02*
G75*
G03*
X31446875Y-10477500I-252500J0D01*
G01*
X31446875Y-12382500D02*
G75*
G03*
X31446875Y-12382500I-252500J0D01*
G01*
X33351875Y-6667500D02*
G75*
G03*
X33351875Y-6667500I-252500J0D01*
G01*
X33351875Y-10477500D02*
G75*
G03*
X33351875Y-10477500I-252500J0D01*
G01*
X33828125Y-8572500D02*
G75*
G03*
X33828125Y-8572500I-252500J0D01*
G01*
X34304375Y-14287500D02*
G75*
G03*
X34304375Y-14287500I-252500J0D01*
G01*
X35256875Y-6667500D02*
G75*
G03*
X35256875Y-6667500I-252500J0D01*
G01*
X36209375Y-8572500D02*
G75*
G03*
X36209375Y-8572500I-252500J0D01*
G01*
X36209375Y-12382500D02*
G75*
G03*
X36209375Y-12382500I-252500J0D01*
G01*
X36209375Y-14287500D02*
G75*
G03*
X36209375Y-14287500I-252500J0D01*
G01*
X36447500Y-10477500D02*
G75*
G03*
X36447500Y-10477500I-252500J0D01*
G01*
X37161875Y-6667500D02*
G75*
G03*
X37161875Y-6667500I-252500J0D01*
G01*
X38114375Y-8572500D02*
G75*
G03*
X38114375Y-8572500I-252500J0D01*
G01*
X38114375Y-14287500D02*
G75*
G03*
X38114375Y-14287500I-252500J0D01*
G01*
D11*
X2855119Y-19212976D02*
X2855119Y-19012976D01*
X2902738Y-19012976D01*
X2931309Y-19022500D01*
X2950357Y-19041548D01*
X2959881Y-19060595D01*
X2969405Y-19098691D01*
X2969405Y-19127262D01*
X2959881Y-19165357D01*
X2950357Y-19184405D01*
X2931309Y-19203452D01*
X2902738Y-19212976D01*
X2855119Y-19212976D01*
X3055119Y-19212976D02*
X3055119Y-19079643D01*
X3055119Y-19117738D02*
X3064643Y-19098691D01*
X3074167Y-19089167D01*
X3093214Y-19079643D01*
X3112262Y-19079643D01*
X3178928Y-19212976D02*
X3178928Y-19079643D01*
X3178928Y-19012976D02*
X3169405Y-19022500D01*
X3178928Y-19032024D01*
X3188452Y-19022500D01*
X3178928Y-19012976D01*
X3178928Y-19032024D01*
X3302738Y-19212976D02*
X3283690Y-19203452D01*
X3274167Y-19184405D01*
X3274167Y-19012976D01*
X3407500Y-19212976D02*
X3388452Y-19203452D01*
X3378928Y-19184405D01*
X3378928Y-19012976D01*
X3636071Y-19212976D02*
X3636071Y-19012976D01*
X3702738Y-19155833D01*
X3769405Y-19012976D01*
X3769405Y-19212976D01*
X3950357Y-19212976D02*
X3950357Y-19108214D01*
X3940833Y-19089167D01*
X3921786Y-19079643D01*
X3883690Y-19079643D01*
X3864643Y-19089167D01*
X3950357Y-19203452D02*
X3931309Y-19212976D01*
X3883690Y-19212976D01*
X3864643Y-19203452D01*
X3855119Y-19184405D01*
X3855119Y-19165357D01*
X3864643Y-19146310D01*
X3883690Y-19136786D01*
X3931309Y-19136786D01*
X3950357Y-19127262D01*
X4045595Y-19079643D02*
X4045595Y-19279643D01*
X4045595Y-19089167D02*
X4064643Y-19079643D01*
X4102738Y-19079643D01*
X4121786Y-19089167D01*
X4131309Y-19098691D01*
X4140833Y-19117738D01*
X4140833Y-19174881D01*
X4131309Y-19193929D01*
X4121786Y-19203452D01*
X4102738Y-19212976D01*
X4064643Y-19212976D01*
X4045595Y-19203452D01*
X4226548Y-19193929D02*
X4236071Y-19203452D01*
X4226548Y-19212976D01*
X4217024Y-19203452D01*
X4226548Y-19193929D01*
X4226548Y-19212976D01*
X4226548Y-19089167D02*
X4236071Y-19098691D01*
X4226548Y-19108214D01*
X4217024Y-19098691D01*
X4226548Y-19089167D01*
X4226548Y-19108214D01*
D12*
X2407500Y-19447500D02*
X2597500Y-19637500D01*
X2597500Y-19447500D02*
X2407500Y-19637500D01*
D11*
X2959881Y-19632976D02*
X2845595Y-19632976D01*
X2902738Y-19632976D02*
X2902738Y-19432976D01*
X2883690Y-19461548D01*
X2864643Y-19480595D01*
X2845595Y-19490119D01*
X3045595Y-19613929D02*
X3055119Y-19623452D01*
X3045595Y-19632976D01*
X3036071Y-19623452D01*
X3045595Y-19613929D01*
X3045595Y-19632976D01*
X3150357Y-19632976D02*
X3188452Y-19632976D01*
X3207500Y-19623452D01*
X3217024Y-19613929D01*
X3236071Y-19585357D01*
X3245595Y-19547262D01*
X3245595Y-19471072D01*
X3236071Y-19452024D01*
X3226548Y-19442500D01*
X3207500Y-19432976D01*
X3169405Y-19432976D01*
X3150357Y-19442500D01*
X3140833Y-19452024D01*
X3131309Y-19471072D01*
X3131309Y-19518691D01*
X3140833Y-19537738D01*
X3150357Y-19547262D01*
X3169405Y-19556786D01*
X3207500Y-19556786D01*
X3226548Y-19547262D01*
X3236071Y-19537738D01*
X3245595Y-19518691D01*
X3369405Y-19432976D02*
X3388452Y-19432976D01*
X3407500Y-19442500D01*
X3417024Y-19452024D01*
X3426548Y-19471072D01*
X3436071Y-19509167D01*
X3436071Y-19556786D01*
X3426548Y-19594881D01*
X3417024Y-19613929D01*
X3407500Y-19623452D01*
X3388452Y-19632976D01*
X3369405Y-19632976D01*
X3350357Y-19623452D01*
X3340833Y-19613929D01*
X3331309Y-19594881D01*
X3321786Y-19556786D01*
X3321786Y-19509167D01*
X3331309Y-19471072D01*
X3340833Y-19452024D01*
X3350357Y-19442500D01*
X3369405Y-19432976D01*
X3559881Y-19432976D02*
X3578928Y-19432976D01*
X3597976Y-19442500D01*
X3607500Y-19452024D01*
X3617024Y-19471072D01*
X3626548Y-19509167D01*
X3626548Y-19556786D01*
X3617024Y-19594881D01*
X3607500Y-19613929D01*
X3597976Y-19623452D01*
X3578928Y-19632976D01*
X3559881Y-19632976D01*
X3540833Y-19623452D01*
X3531309Y-19613929D01*
X3521786Y-19594881D01*
X3512262Y-19556786D01*
X3512262Y-19509167D01*
X3521786Y-19471072D01*
X3531309Y-19452024D01*
X3540833Y-19442500D01*
X3559881Y-19432976D01*
X3712262Y-19632976D02*
X3712262Y-19499643D01*
X3712262Y-19518691D02*
X3721786Y-19509167D01*
X3740833Y-19499643D01*
X3769405Y-19499643D01*
X3788452Y-19509167D01*
X3797976Y-19528214D01*
X3797976Y-19632976D01*
X3797976Y-19528214D02*
X3807500Y-19509167D01*
X3826548Y-19499643D01*
X3855119Y-19499643D01*
X3874167Y-19509167D01*
X3883690Y-19528214D01*
X3883690Y-19632976D01*
X3978928Y-19632976D02*
X3978928Y-19499643D01*
X3978928Y-19518691D02*
X3988452Y-19509167D01*
X4007500Y-19499643D01*
X4036071Y-19499643D01*
X4055119Y-19509167D01*
X4064643Y-19528214D01*
X4064643Y-19632976D01*
X4064643Y-19528214D02*
X4074167Y-19509167D01*
X4093214Y-19499643D01*
X4121786Y-19499643D01*
X4140833Y-19509167D01*
X4150357Y-19528214D01*
X4150357Y-19632976D01*
X4540833Y-19423452D02*
X4369405Y-19680595D01*
X4797976Y-19432976D02*
X4817024Y-19432976D01*
X4836071Y-19442500D01*
X4845595Y-19452024D01*
X4855119Y-19471072D01*
X4864643Y-19509167D01*
X4864643Y-19556786D01*
X4855119Y-19594881D01*
X4845595Y-19613929D01*
X4836071Y-19623452D01*
X4817024Y-19632976D01*
X4797976Y-19632976D01*
X4778929Y-19623452D01*
X4769405Y-19613929D01*
X4759881Y-19594881D01*
X4750357Y-19556786D01*
X4750357Y-19509167D01*
X4759881Y-19471072D01*
X4769405Y-19452024D01*
X4778929Y-19442500D01*
X4797976Y-19432976D01*
X4950357Y-19613929D02*
X4959881Y-19623452D01*
X4950357Y-19632976D01*
X4940833Y-19623452D01*
X4950357Y-19613929D01*
X4950357Y-19632976D01*
X5083690Y-19432976D02*
X5102738Y-19432976D01*
X5121786Y-19442500D01*
X5131310Y-19452024D01*
X5140833Y-19471072D01*
X5150357Y-19509167D01*
X5150357Y-19556786D01*
X5140833Y-19594881D01*
X5131310Y-19613929D01*
X5121786Y-19623452D01*
X5102738Y-19632976D01*
X5083690Y-19632976D01*
X5064643Y-19623452D01*
X5055119Y-19613929D01*
X5045595Y-19594881D01*
X5036071Y-19556786D01*
X5036071Y-19509167D01*
X5045595Y-19471072D01*
X5055119Y-19452024D01*
X5064643Y-19442500D01*
X5083690Y-19432976D01*
X5217024Y-19432976D02*
X5350357Y-19432976D01*
X5264643Y-19632976D01*
X5512262Y-19499643D02*
X5512262Y-19632976D01*
X5464643Y-19423452D02*
X5417024Y-19566310D01*
X5540833Y-19566310D01*
X5645595Y-19518691D02*
X5626548Y-19509167D01*
X5617024Y-19499643D01*
X5607500Y-19480595D01*
X5607500Y-19471072D01*
X5617024Y-19452024D01*
X5626548Y-19442500D01*
X5645595Y-19432976D01*
X5683690Y-19432976D01*
X5702738Y-19442500D01*
X5712262Y-19452024D01*
X5721786Y-19471072D01*
X5721786Y-19480595D01*
X5712262Y-19499643D01*
X5702738Y-19509167D01*
X5683690Y-19518691D01*
X5645595Y-19518691D01*
X5626548Y-19528214D01*
X5617024Y-19537738D01*
X5607500Y-19556786D01*
X5607500Y-19594881D01*
X5617024Y-19613929D01*
X5626548Y-19623452D01*
X5645595Y-19632976D01*
X5683690Y-19632976D01*
X5702738Y-19623452D01*
X5712262Y-19613929D01*
X5721786Y-19594881D01*
X5721786Y-19556786D01*
X5712262Y-19537738D01*
X5702738Y-19528214D01*
X5683690Y-19518691D01*
X5797976Y-19432976D02*
X5797976Y-19471072D01*
X5874167Y-19432976D02*
X5874167Y-19471072D01*
X6169405Y-19709167D02*
X6159881Y-19699643D01*
X6140833Y-19671072D01*
X6131309Y-19652024D01*
X6121786Y-19623452D01*
X6112262Y-19575833D01*
X6112262Y-19537738D01*
X6121786Y-19490119D01*
X6131309Y-19461548D01*
X6140833Y-19442500D01*
X6159881Y-19413929D01*
X6169405Y-19404405D01*
X6350357Y-19632976D02*
X6236071Y-19632976D01*
X6293214Y-19632976D02*
X6293214Y-19432976D01*
X6274167Y-19461548D01*
X6255119Y-19480595D01*
X6236071Y-19490119D01*
X6521786Y-19499643D02*
X6521786Y-19632976D01*
X6474167Y-19423452D02*
X6426548Y-19566310D01*
X6550357Y-19566310D01*
X6664643Y-19432976D02*
X6683690Y-19432976D01*
X6702738Y-19442500D01*
X6712262Y-19452024D01*
X6721786Y-19471072D01*
X6731309Y-19509167D01*
X6731309Y-19556786D01*
X6721786Y-19594881D01*
X6712262Y-19613929D01*
X6702738Y-19623452D01*
X6683690Y-19632976D01*
X6664643Y-19632976D01*
X6645595Y-19623452D01*
X6636071Y-19613929D01*
X6626548Y-19594881D01*
X6617024Y-19556786D01*
X6617024Y-19509167D01*
X6626548Y-19471072D01*
X6636071Y-19452024D01*
X6645595Y-19442500D01*
X6664643Y-19432976D01*
X6969405Y-19632976D02*
X6969405Y-19432976D01*
X7055119Y-19632976D02*
X7055119Y-19528214D01*
X7045595Y-19509167D01*
X7026548Y-19499643D01*
X6997976Y-19499643D01*
X6978928Y-19509167D01*
X6969405Y-19518691D01*
X7178928Y-19632976D02*
X7159881Y-19623452D01*
X7150357Y-19613929D01*
X7140833Y-19594881D01*
X7140833Y-19537738D01*
X7150357Y-19518691D01*
X7159881Y-19509167D01*
X7178928Y-19499643D01*
X7207500Y-19499643D01*
X7226548Y-19509167D01*
X7236071Y-19518691D01*
X7245595Y-19537738D01*
X7245595Y-19594881D01*
X7236071Y-19613929D01*
X7226548Y-19623452D01*
X7207500Y-19632976D01*
X7178928Y-19632976D01*
X7359881Y-19632976D02*
X7340833Y-19623452D01*
X7331309Y-19604405D01*
X7331309Y-19432976D01*
X7512262Y-19623452D02*
X7493214Y-19632976D01*
X7455119Y-19632976D01*
X7436071Y-19623452D01*
X7426548Y-19604405D01*
X7426548Y-19528214D01*
X7436071Y-19509167D01*
X7455119Y-19499643D01*
X7493214Y-19499643D01*
X7512262Y-19509167D01*
X7521786Y-19528214D01*
X7521786Y-19547262D01*
X7426548Y-19566310D01*
X7597976Y-19623452D02*
X7617024Y-19632976D01*
X7655119Y-19632976D01*
X7674167Y-19623452D01*
X7683690Y-19604405D01*
X7683690Y-19594881D01*
X7674167Y-19575833D01*
X7655119Y-19566310D01*
X7626548Y-19566310D01*
X7607500Y-19556786D01*
X7597976Y-19537738D01*
X7597976Y-19528214D01*
X7607500Y-19509167D01*
X7626548Y-19499643D01*
X7655119Y-19499643D01*
X7674167Y-19509167D01*
X7750357Y-19709167D02*
X7759881Y-19699643D01*
X7778928Y-19671072D01*
X7788452Y-19652024D01*
X7797976Y-19623452D01*
X7807500Y-19575833D01*
X7807500Y-19537738D01*
X7797976Y-19490119D01*
X7788452Y-19461548D01*
X7778928Y-19442500D01*
X7759881Y-19413929D01*
X7750357Y-19404405D01*
X8112262Y-19709167D02*
X8102738Y-19699643D01*
X8083690Y-19671072D01*
X8074167Y-19652024D01*
X8064643Y-19623452D01*
X8055119Y-19575833D01*
X8055119Y-19537738D01*
X8064643Y-19490119D01*
X8074167Y-19461548D01*
X8083690Y-19442500D01*
X8102738Y-19413929D01*
X8112262Y-19404405D01*
X8188452Y-19499643D02*
X8188452Y-19632976D01*
X8188452Y-19518691D02*
X8197976Y-19509167D01*
X8217024Y-19499643D01*
X8245595Y-19499643D01*
X8264643Y-19509167D01*
X8274167Y-19528214D01*
X8274167Y-19632976D01*
X8397976Y-19632976D02*
X8378928Y-19623452D01*
X8369405Y-19613929D01*
X8359881Y-19594881D01*
X8359881Y-19537738D01*
X8369405Y-19518691D01*
X8378928Y-19509167D01*
X8397976Y-19499643D01*
X8426548Y-19499643D01*
X8445595Y-19509167D01*
X8455119Y-19518691D01*
X8464643Y-19537738D01*
X8464643Y-19594881D01*
X8455119Y-19613929D01*
X8445595Y-19623452D01*
X8426548Y-19632976D01*
X8397976Y-19632976D01*
X8521786Y-19499643D02*
X8597976Y-19499643D01*
X8550357Y-19432976D02*
X8550357Y-19604405D01*
X8559881Y-19623452D01*
X8578929Y-19632976D01*
X8597976Y-19632976D01*
X8817024Y-19499643D02*
X8817024Y-19699643D01*
X8817024Y-19509167D02*
X8836071Y-19499643D01*
X8874167Y-19499643D01*
X8893214Y-19509167D01*
X8902738Y-19518691D01*
X8912262Y-19537738D01*
X8912262Y-19594881D01*
X8902738Y-19613929D01*
X8893214Y-19623452D01*
X8874167Y-19632976D01*
X8836071Y-19632976D01*
X8817024Y-19623452D01*
X9026548Y-19632976D02*
X9007500Y-19623452D01*
X8997976Y-19604405D01*
X8997976Y-19432976D01*
X9188452Y-19632976D02*
X9188452Y-19528214D01*
X9178929Y-19509167D01*
X9159881Y-19499643D01*
X9121786Y-19499643D01*
X9102738Y-19509167D01*
X9188452Y-19623452D02*
X9169405Y-19632976D01*
X9121786Y-19632976D01*
X9102738Y-19623452D01*
X9093214Y-19604405D01*
X9093214Y-19585357D01*
X9102738Y-19566310D01*
X9121786Y-19556786D01*
X9169405Y-19556786D01*
X9188452Y-19547262D01*
X9255119Y-19499643D02*
X9331310Y-19499643D01*
X9283690Y-19432976D02*
X9283690Y-19604405D01*
X9293214Y-19623452D01*
X9312262Y-19632976D01*
X9331310Y-19632976D01*
X9474167Y-19623452D02*
X9455119Y-19632976D01*
X9417024Y-19632976D01*
X9397976Y-19623452D01*
X9388452Y-19604405D01*
X9388452Y-19528214D01*
X9397976Y-19509167D01*
X9417024Y-19499643D01*
X9455119Y-19499643D01*
X9474167Y-19509167D01*
X9483690Y-19528214D01*
X9483690Y-19547262D01*
X9388452Y-19566310D01*
X9655119Y-19632976D02*
X9655119Y-19432976D01*
X9655119Y-19623452D02*
X9636071Y-19632976D01*
X9597976Y-19632976D01*
X9578929Y-19623452D01*
X9569405Y-19613929D01*
X9559881Y-19594881D01*
X9559881Y-19537738D01*
X9569405Y-19518691D01*
X9578929Y-19509167D01*
X9597976Y-19499643D01*
X9636071Y-19499643D01*
X9655119Y-19509167D01*
X9731310Y-19709167D02*
X9740833Y-19699643D01*
X9759881Y-19671072D01*
X9769405Y-19652024D01*
X9778929Y-19623452D01*
X9788452Y-19575833D01*
X9788452Y-19537738D01*
X9778929Y-19490119D01*
X9769405Y-19461548D01*
X9759881Y-19442500D01*
X9740833Y-19413929D01*
X9731310Y-19404405D01*
X2597500Y-19852500D02*
G75*
G03*
X2597500Y-19852500I-100000J0D01*
G01*
X2950357Y-19742976D02*
X2855119Y-19742976D01*
X2845595Y-19838214D01*
X2855119Y-19828691D01*
X2874167Y-19819167D01*
X2921786Y-19819167D01*
X2940833Y-19828691D01*
X2950357Y-19838214D01*
X2959881Y-19857262D01*
X2959881Y-19904881D01*
X2950357Y-19923929D01*
X2940833Y-19933452D01*
X2921786Y-19942976D01*
X2874167Y-19942976D01*
X2855119Y-19933452D01*
X2845595Y-19923929D01*
X3045595Y-19923929D02*
X3055119Y-19933452D01*
X3045595Y-19942976D01*
X3036071Y-19933452D01*
X3045595Y-19923929D01*
X3045595Y-19942976D01*
X3178928Y-19742976D02*
X3197976Y-19742976D01*
X3217024Y-19752500D01*
X3226548Y-19762024D01*
X3236071Y-19781072D01*
X3245595Y-19819167D01*
X3245595Y-19866786D01*
X3236071Y-19904881D01*
X3226548Y-19923929D01*
X3217024Y-19933452D01*
X3197976Y-19942976D01*
X3178928Y-19942976D01*
X3159881Y-19933452D01*
X3150357Y-19923929D01*
X3140833Y-19904881D01*
X3131309Y-19866786D01*
X3131309Y-19819167D01*
X3140833Y-19781072D01*
X3150357Y-19762024D01*
X3159881Y-19752500D01*
X3178928Y-19742976D01*
X3426548Y-19742976D02*
X3331309Y-19742976D01*
X3321786Y-19838214D01*
X3331309Y-19828691D01*
X3350357Y-19819167D01*
X3397976Y-19819167D01*
X3417024Y-19828691D01*
X3426548Y-19838214D01*
X3436071Y-19857262D01*
X3436071Y-19904881D01*
X3426548Y-19923929D01*
X3417024Y-19933452D01*
X3397976Y-19942976D01*
X3350357Y-19942976D01*
X3331309Y-19933452D01*
X3321786Y-19923929D01*
X3559881Y-19742976D02*
X3578928Y-19742976D01*
X3597976Y-19752500D01*
X3607500Y-19762024D01*
X3617024Y-19781072D01*
X3626548Y-19819167D01*
X3626548Y-19866786D01*
X3617024Y-19904881D01*
X3607500Y-19923929D01*
X3597976Y-19933452D01*
X3578928Y-19942976D01*
X3559881Y-19942976D01*
X3540833Y-19933452D01*
X3531309Y-19923929D01*
X3521786Y-19904881D01*
X3512262Y-19866786D01*
X3512262Y-19819167D01*
X3521786Y-19781072D01*
X3531309Y-19762024D01*
X3540833Y-19752500D01*
X3559881Y-19742976D01*
X3712262Y-19942976D02*
X3712262Y-19809643D01*
X3712262Y-19828691D02*
X3721786Y-19819167D01*
X3740833Y-19809643D01*
X3769405Y-19809643D01*
X3788452Y-19819167D01*
X3797976Y-19838214D01*
X3797976Y-19942976D01*
X3797976Y-19838214D02*
X3807500Y-19819167D01*
X3826548Y-19809643D01*
X3855119Y-19809643D01*
X3874167Y-19819167D01*
X3883690Y-19838214D01*
X3883690Y-19942976D01*
X3978928Y-19942976D02*
X3978928Y-19809643D01*
X3978928Y-19828691D02*
X3988452Y-19819167D01*
X4007500Y-19809643D01*
X4036071Y-19809643D01*
X4055119Y-19819167D01*
X4064643Y-19838214D01*
X4064643Y-19942976D01*
X4064643Y-19838214D02*
X4074167Y-19819167D01*
X4093214Y-19809643D01*
X4121786Y-19809643D01*
X4140833Y-19819167D01*
X4150357Y-19838214D01*
X4150357Y-19942976D01*
X4540833Y-19733452D02*
X4369405Y-19990595D01*
X4797976Y-19742976D02*
X4817024Y-19742976D01*
X4836071Y-19752500D01*
X4845595Y-19762024D01*
X4855119Y-19781072D01*
X4864643Y-19819167D01*
X4864643Y-19866786D01*
X4855119Y-19904881D01*
X4845595Y-19923929D01*
X4836071Y-19933452D01*
X4817024Y-19942976D01*
X4797976Y-19942976D01*
X4778929Y-19933452D01*
X4769405Y-19923929D01*
X4759881Y-19904881D01*
X4750357Y-19866786D01*
X4750357Y-19819167D01*
X4759881Y-19781072D01*
X4769405Y-19762024D01*
X4778929Y-19752500D01*
X4797976Y-19742976D01*
X4950357Y-19923929D02*
X4959881Y-19933452D01*
X4950357Y-19942976D01*
X4940833Y-19933452D01*
X4950357Y-19923929D01*
X4950357Y-19942976D01*
X5150357Y-19942976D02*
X5036071Y-19942976D01*
X5093214Y-19942976D02*
X5093214Y-19742976D01*
X5074167Y-19771548D01*
X5055119Y-19790595D01*
X5036071Y-19800119D01*
X5245595Y-19942976D02*
X5283690Y-19942976D01*
X5302738Y-19933452D01*
X5312262Y-19923929D01*
X5331310Y-19895357D01*
X5340833Y-19857262D01*
X5340833Y-19781072D01*
X5331310Y-19762024D01*
X5321786Y-19752500D01*
X5302738Y-19742976D01*
X5264643Y-19742976D01*
X5245595Y-19752500D01*
X5236071Y-19762024D01*
X5226548Y-19781072D01*
X5226548Y-19828691D01*
X5236071Y-19847738D01*
X5245595Y-19857262D01*
X5264643Y-19866786D01*
X5302738Y-19866786D01*
X5321786Y-19857262D01*
X5331310Y-19847738D01*
X5340833Y-19828691D01*
X5455119Y-19828691D02*
X5436071Y-19819167D01*
X5426548Y-19809643D01*
X5417024Y-19790595D01*
X5417024Y-19781072D01*
X5426548Y-19762024D01*
X5436071Y-19752500D01*
X5455119Y-19742976D01*
X5493214Y-19742976D01*
X5512262Y-19752500D01*
X5521786Y-19762024D01*
X5531310Y-19781072D01*
X5531310Y-19790595D01*
X5521786Y-19809643D01*
X5512262Y-19819167D01*
X5493214Y-19828691D01*
X5455119Y-19828691D01*
X5436071Y-19838214D01*
X5426548Y-19847738D01*
X5417024Y-19866786D01*
X5417024Y-19904881D01*
X5426548Y-19923929D01*
X5436071Y-19933452D01*
X5455119Y-19942976D01*
X5493214Y-19942976D01*
X5512262Y-19933452D01*
X5521786Y-19923929D01*
X5531310Y-19904881D01*
X5531310Y-19866786D01*
X5521786Y-19847738D01*
X5512262Y-19838214D01*
X5493214Y-19828691D01*
X5645595Y-19828691D02*
X5626548Y-19819167D01*
X5617024Y-19809643D01*
X5607500Y-19790595D01*
X5607500Y-19781072D01*
X5617024Y-19762024D01*
X5626548Y-19752500D01*
X5645595Y-19742976D01*
X5683690Y-19742976D01*
X5702738Y-19752500D01*
X5712262Y-19762024D01*
X5721786Y-19781072D01*
X5721786Y-19790595D01*
X5712262Y-19809643D01*
X5702738Y-19819167D01*
X5683690Y-19828691D01*
X5645595Y-19828691D01*
X5626548Y-19838214D01*
X5617024Y-19847738D01*
X5607500Y-19866786D01*
X5607500Y-19904881D01*
X5617024Y-19923929D01*
X5626548Y-19933452D01*
X5645595Y-19942976D01*
X5683690Y-19942976D01*
X5702738Y-19933452D01*
X5712262Y-19923929D01*
X5721786Y-19904881D01*
X5721786Y-19866786D01*
X5712262Y-19847738D01*
X5702738Y-19838214D01*
X5683690Y-19828691D01*
X5797976Y-19742976D02*
X5797976Y-19781072D01*
X5874167Y-19742976D02*
X5874167Y-19781072D01*
X6169405Y-20019167D02*
X6159881Y-20009643D01*
X6140833Y-19981072D01*
X6131309Y-19962024D01*
X6121786Y-19933452D01*
X6112262Y-19885833D01*
X6112262Y-19847738D01*
X6121786Y-19800119D01*
X6131309Y-19771548D01*
X6140833Y-19752500D01*
X6159881Y-19723929D01*
X6169405Y-19714405D01*
X6226548Y-19742976D02*
X6359881Y-19742976D01*
X6274167Y-19942976D01*
X6474167Y-19742976D02*
X6493214Y-19742976D01*
X6512262Y-19752500D01*
X6521786Y-19762024D01*
X6531309Y-19781072D01*
X6540833Y-19819167D01*
X6540833Y-19866786D01*
X6531309Y-19904881D01*
X6521786Y-19923929D01*
X6512262Y-19933452D01*
X6493214Y-19942976D01*
X6474167Y-19942976D01*
X6455119Y-19933452D01*
X6445595Y-19923929D01*
X6436071Y-19904881D01*
X6426548Y-19866786D01*
X6426548Y-19819167D01*
X6436071Y-19781072D01*
X6445595Y-19762024D01*
X6455119Y-19752500D01*
X6474167Y-19742976D01*
X6778928Y-19942976D02*
X6778928Y-19742976D01*
X6864643Y-19942976D02*
X6864643Y-19838214D01*
X6855119Y-19819167D01*
X6836071Y-19809643D01*
X6807500Y-19809643D01*
X6788452Y-19819167D01*
X6778928Y-19828691D01*
X6988452Y-19942976D02*
X6969405Y-19933452D01*
X6959881Y-19923929D01*
X6950357Y-19904881D01*
X6950357Y-19847738D01*
X6959881Y-19828691D01*
X6969405Y-19819167D01*
X6988452Y-19809643D01*
X7017024Y-19809643D01*
X7036071Y-19819167D01*
X7045595Y-19828691D01*
X7055119Y-19847738D01*
X7055119Y-19904881D01*
X7045595Y-19923929D01*
X7036071Y-19933452D01*
X7017024Y-19942976D01*
X6988452Y-19942976D01*
X7169405Y-19942976D02*
X7150357Y-19933452D01*
X7140833Y-19914405D01*
X7140833Y-19742976D01*
X7321786Y-19933452D02*
X7302738Y-19942976D01*
X7264643Y-19942976D01*
X7245595Y-19933452D01*
X7236071Y-19914405D01*
X7236071Y-19838214D01*
X7245595Y-19819167D01*
X7264643Y-19809643D01*
X7302738Y-19809643D01*
X7321786Y-19819167D01*
X7331309Y-19838214D01*
X7331309Y-19857262D01*
X7236071Y-19876310D01*
X7407500Y-19933452D02*
X7426548Y-19942976D01*
X7464643Y-19942976D01*
X7483690Y-19933452D01*
X7493214Y-19914405D01*
X7493214Y-19904881D01*
X7483690Y-19885833D01*
X7464643Y-19876310D01*
X7436071Y-19876310D01*
X7417024Y-19866786D01*
X7407500Y-19847738D01*
X7407500Y-19838214D01*
X7417024Y-19819167D01*
X7436071Y-19809643D01*
X7464643Y-19809643D01*
X7483690Y-19819167D01*
X7559881Y-20019167D02*
X7569405Y-20009643D01*
X7588452Y-19981072D01*
X7597976Y-19962024D01*
X7607500Y-19933452D01*
X7617024Y-19885833D01*
X7617024Y-19847738D01*
X7607500Y-19800119D01*
X7597976Y-19771548D01*
X7588452Y-19752500D01*
X7569405Y-19723929D01*
X7559881Y-19714405D01*
X7921786Y-20019167D02*
X7912262Y-20009643D01*
X7893214Y-19981072D01*
X7883690Y-19962024D01*
X7874167Y-19933452D01*
X7864643Y-19885833D01*
X7864643Y-19847738D01*
X7874167Y-19800119D01*
X7883690Y-19771548D01*
X7893214Y-19752500D01*
X7912262Y-19723929D01*
X7921786Y-19714405D01*
X7997976Y-19809643D02*
X7997976Y-19942976D01*
X7997976Y-19828691D02*
X8007500Y-19819167D01*
X8026548Y-19809643D01*
X8055119Y-19809643D01*
X8074167Y-19819167D01*
X8083690Y-19838214D01*
X8083690Y-19942976D01*
X8207500Y-19942976D02*
X8188452Y-19933452D01*
X8178928Y-19923929D01*
X8169405Y-19904881D01*
X8169405Y-19847738D01*
X8178928Y-19828691D01*
X8188452Y-19819167D01*
X8207500Y-19809643D01*
X8236071Y-19809643D01*
X8255119Y-19819167D01*
X8264643Y-19828691D01*
X8274167Y-19847738D01*
X8274167Y-19904881D01*
X8264643Y-19923929D01*
X8255119Y-19933452D01*
X8236071Y-19942976D01*
X8207500Y-19942976D01*
X8331309Y-19809643D02*
X8407500Y-19809643D01*
X8359881Y-19742976D02*
X8359881Y-19914405D01*
X8369405Y-19933452D01*
X8388452Y-19942976D01*
X8407500Y-19942976D01*
X8626548Y-19809643D02*
X8626548Y-20009643D01*
X8626548Y-19819167D02*
X8645595Y-19809643D01*
X8683690Y-19809643D01*
X8702738Y-19819167D01*
X8712262Y-19828691D01*
X8721786Y-19847738D01*
X8721786Y-19904881D01*
X8712262Y-19923929D01*
X8702738Y-19933452D01*
X8683690Y-19942976D01*
X8645595Y-19942976D01*
X8626548Y-19933452D01*
X8836071Y-19942976D02*
X8817024Y-19933452D01*
X8807500Y-19914405D01*
X8807500Y-19742976D01*
X8997976Y-19942976D02*
X8997976Y-19838214D01*
X8988452Y-19819167D01*
X8969405Y-19809643D01*
X8931310Y-19809643D01*
X8912262Y-19819167D01*
X8997976Y-19933452D02*
X8978929Y-19942976D01*
X8931310Y-19942976D01*
X8912262Y-19933452D01*
X8902738Y-19914405D01*
X8902738Y-19895357D01*
X8912262Y-19876310D01*
X8931310Y-19866786D01*
X8978929Y-19866786D01*
X8997976Y-19857262D01*
X9064643Y-19809643D02*
X9140833Y-19809643D01*
X9093214Y-19742976D02*
X9093214Y-19914405D01*
X9102738Y-19933452D01*
X9121786Y-19942976D01*
X9140833Y-19942976D01*
X9283690Y-19933452D02*
X9264643Y-19942976D01*
X9226548Y-19942976D01*
X9207500Y-19933452D01*
X9197976Y-19914405D01*
X9197976Y-19838214D01*
X9207500Y-19819167D01*
X9226548Y-19809643D01*
X9264643Y-19809643D01*
X9283690Y-19819167D01*
X9293214Y-19838214D01*
X9293214Y-19857262D01*
X9197976Y-19876310D01*
X9464643Y-19942976D02*
X9464643Y-19742976D01*
X9464643Y-19933452D02*
X9445595Y-19942976D01*
X9407500Y-19942976D01*
X9388452Y-19933452D01*
X9378929Y-19923929D01*
X9369405Y-19904881D01*
X9369405Y-19847738D01*
X9378929Y-19828691D01*
X9388452Y-19819167D01*
X9407500Y-19809643D01*
X9445595Y-19809643D01*
X9464643Y-19819167D01*
X9540833Y-20019167D02*
X9550357Y-20009643D01*
X9569405Y-19981072D01*
X9578929Y-19962024D01*
X9588452Y-19933452D01*
X9597976Y-19885833D01*
X9597976Y-19847738D01*
X9588452Y-19800119D01*
X9578929Y-19771548D01*
X9569405Y-19752500D01*
X9550357Y-19723929D01*
X9540833Y-19714405D01*
M02*
