M48
INCH
T1C0.0157
T2C0.0236
T3C0.0276
T4C0.0315
T5C0.0354
T6C0.0394
T7C0.0400
T8C0.0433
T9C0.0591
T10C0.0709
T11C0.0866
%
G90
G05
T1
X7.1024Y-3.3071
X7.1575Y-3.2047
X7.189Y-3.5433
X7.252Y-3.5512
X7.5906Y-3.3465
X7.8553Y-1.562
X7.8553Y-1.6152
X7.874Y-3.7231
X7.874Y-3.8976
X7.8888Y-1.562
X7.8888Y-1.6152
X7.9134Y-2.9134
X7.9222Y-1.562
X7.9222Y-1.6152
X7.9528Y-3.0118
X7.9557Y-1.562
X7.9557Y-1.6152
X7.9892Y-1.562
X7.9892Y-1.6152
X8.0118Y-3.0906
X8.0226Y-1.562
X8.0226Y-1.6152
X8.0512Y-3.2087
X8.0561Y-1.562
X8.0561Y-1.6152
X8.0709Y-1.939
X8.0896Y-1.562
X8.0896Y-1.6152
X8.0906Y-3.3071
X9.2717Y-1.8701
X9.7441Y-2.1063
X11.2716Y-1.6221
X11.2992Y-1.752
X11.5748Y-1.8504
T2
X7.9724Y-2.1063
X7.9724Y-2.1654
T3
X7.3602Y-2.1654
X7.561Y-2.1654
X7.6969Y-2.3772
X7.6969Y-2.6772
X7.7953Y-2.3772
X7.7953Y-2.6772
X7.8937Y-2.3772
X7.8937Y-2.6772
X7.9921Y-2.3772
X7.9921Y-2.6772
X8.0906Y-2.3772
X8.0906Y-2.6772
X8.189Y-2.3819
X8.189Y-2.6819
X8.2874Y-2.3819
X8.2874Y-2.6819
T4
X3.0709Y-1.6051
X3.0709Y-1.8051
X3.189Y-1.6642
X3.189Y-1.8642
X3.3071Y-1.7232
X3.3071Y-1.9232
X3.4252Y-1.7823
X3.4252Y-1.9823
X3.5433Y-1.6051
X3.5433Y-1.8051
X3.6614Y-1.6642
X3.6614Y-1.8642
X3.7795Y-1.7232
X3.7795Y-1.9232
X3.8976Y-1.7823
X3.8976Y-1.9823
X4.0157Y-1.6051
X4.0157Y-1.8051
X4.1339Y-1.6642
X4.1339Y-1.8642
X4.252Y-1.7232
X4.252Y-1.9232
X4.3701Y-1.7823
X4.3701Y-1.9823
X4.4882Y-1.6051
X4.4882Y-1.8051
X4.6063Y-1.6642
X4.6063Y-1.8642
X4.7244Y-1.7232
X4.7244Y-1.9232
X4.8425Y-1.7823
X4.8425Y-1.9823
X4.9606Y-1.6051
X4.9606Y-1.8051
X5.0787Y-1.6642
X5.0787Y-1.8642
X5.1969Y-1.7232
X5.1969Y-1.9232
X5.315Y-1.7823
X5.315Y-1.9823
X5.4331Y-1.6051
X5.4331Y-1.8051
X5.5512Y-1.6642
X5.5512Y-1.8642
X5.6693Y-1.7232
X5.6693Y-1.9232
X5.7874Y-1.7823
X5.7874Y-1.9823
X5.9055Y-1.6051
X5.9055Y-1.8051
X6.0236Y-1.6642
X6.0236Y-1.8642
X6.1417Y-1.7232
X6.1417Y-1.9232
X6.2598Y-1.7823
X6.2598Y-1.9823
X6.378Y-1.6051
X6.378Y-1.8051
X6.4961Y-1.6642
X6.4961Y-1.8642
X6.6142Y-1.7232
X6.6142Y-1.9232
X6.7323Y-1.7823
X6.7323Y-1.9823
X6.8504Y-1.6051
X6.8504Y-1.8051
X6.9685Y-1.6642
X6.9685Y-1.8642
X7.3917Y-3.9614
X7.3917Y-4.1535
X7.3937Y-3.748
X7.5531Y-3.8622
X7.5531Y-3.9606
X7.5531Y-4.1575
X7.5531Y-4.2559
X7.5906Y-3.748
X7.6043Y-1.9685
X7.6875Y-2.9062
X7.6875Y-3.0063
X7.6875Y-3.1062
X7.6875Y-3.2062
X7.6875Y-3.3062
X7.6875Y-3.4062
X7.6875Y-3.5063
X7.6875Y-3.6062
X7.6875Y-3.7062
X7.6875Y-3.8062
X7.6875Y-3.9062
X7.6875Y-4.0062
X7.6875Y-4.1063
X7.6875Y-4.2062
X7.6875Y-4.3062
X7.6875Y-4.4062
X7.6875Y-4.5062
X7.6875Y-4.6063
X7.6875Y-4.7062
X7.6875Y-4.8062
X7.8043Y-1.9685
X7.9634Y-1.9685
X8.1634Y-1.9685
X8.2875Y-2.9062
X8.2875Y-3.0063
X8.2875Y-3.1062
X8.2875Y-3.2062
X8.2875Y-3.3062
X8.2875Y-3.4062
X8.2875Y-3.5063
X8.2875Y-3.6062
X8.2875Y-3.7062
X8.2875Y-3.8062
X8.2875Y-3.9062
X8.2875Y-4.0062
X8.2875Y-4.1063
X8.2875Y-4.2062
X8.2875Y-4.3062
X8.2875Y-4.4062
X8.2875Y-4.5062
X8.2875Y-4.6063
X8.2875Y-4.7062
X8.2875Y-4.8062
X8.4449Y-3.9173
X8.4449Y-4.1142
X8.9764Y-1.6051
X8.9764Y-1.8051
X9.0945Y-1.6642
X9.0945Y-1.8642
X9.2126Y-1.7232
X9.2126Y-1.9232
X9.3307Y-1.7823
X9.3307Y-1.9823
X9.4488Y-1.6051
X9.4488Y-1.8051
X9.5669Y-1.6642
X9.5669Y-1.8642
X9.685Y-1.7232
X9.685Y-1.9232
X9.8031Y-1.7823
X9.8031Y-1.9823
X9.9213Y-1.6051
X9.9213Y-1.8051
X10.0394Y-1.6642
X10.0394Y-1.8642
X10.1575Y-1.7232
X10.1575Y-1.9232
X10.2756Y-1.7823
X10.2756Y-1.9823
X10.3937Y-1.6051
X10.3937Y-1.8051
X10.5118Y-1.6642
X10.5118Y-1.8642
X10.6299Y-1.7232
X10.6299Y-1.9232
X10.748Y-1.7823
X10.748Y-1.9823
X10.8661Y-1.6051
X10.8661Y-1.8051
X10.9843Y-1.6642
X10.9843Y-1.8642
X11.1024Y-1.7232
X11.1024Y-1.9232
X11.2205Y-1.7823
X11.2205Y-1.9823
X11.3386Y-1.6051
X11.3386Y-1.8051
X11.4567Y-1.6642
X11.4567Y-1.8642
X11.5748Y-1.7429
X11.5748Y-1.9429
X11.6929Y-1.802
X11.6929Y-2.002
X11.811Y-1.6051
X11.811Y-1.8051
X11.9291Y-1.6642
X11.9291Y-1.8642
X12.0472Y-1.7232
X12.0472Y-1.9232
X12.1654Y-1.7823
X12.1654Y-1.9823
X12.2835Y-1.6248
X12.2835Y-1.8248
X12.4016Y-1.6839
X12.4016Y-1.8839
X12.5197Y-1.7429
X12.5197Y-1.9429
X12.6378Y-1.802
X12.6378Y-2.002
X12.7559Y-1.6248
X12.7559Y-1.8248
X12.874Y-1.6839
X12.874Y-1.8839
X12.9921Y-1.7429
X12.9921Y-1.9429
X13.1102Y-1.802
X13.1102Y-2.002
X13.2283Y-1.6248
X13.2283Y-1.8248
T5
X8.4409Y-2.3622
X8.4409Y-2.4622
T6
X1.6811Y-1.5945
X1.6811Y-2.1654
X1.7795Y-2.1654
X1.878Y-1.5945
X1.878Y-2.1654
T7
X7.3319Y-2.5181
X7.3319Y-2.6181
X7.3319Y-2.7181
X7.4319Y-2.5181
X7.4319Y-2.6181
X7.4319Y-2.7181
T8
X3.1496Y-4.0187
X3.1496Y-4.1187
X3.1496Y-4.2188
X7.6181Y-5.1181
X7.6181Y-5.2953
X7.874Y-5.1181
X7.874Y-5.2953
X8.0512Y-5.1181
X8.0512Y-5.2953
X8.3071Y-5.1181
X8.3071Y-5.2953
T11
X1.378Y-5.7087
X2.3622Y-1.7717
X4.9213Y-5.7087
X7.0866Y-3.7402
X7.2835Y-1.7717
X7.9724Y-5.7087
X7.9724Y-6.7913
X8.6614Y-1.7717
X8.8583Y-3.7402
X12.7953Y-5.7087
X14.7638Y-5.1181
X14.9606Y-1.7717
T2
G00X7.8022Y-1.4593
M15
G01X7.8022Y-1.4278
M16
G05
G00X7.8022Y-1.6061
M15
G01X7.8022Y-1.547
M16
G05
G00X8.1427Y-1.4593
M15
G01X8.1427Y-1.4278
M16
G05
G00X8.1427Y-1.6061
M15
G01X8.1427Y-1.547
M16
G05
T9
G00X1.3019Y-3.9491
M15
G01X1.2543Y-4.0238
M16
G05
G00X1.4894Y-3.1991
M15
G01X1.4418Y-3.2738
M16
G05
G00X1.5062Y-3.925
M15
G01X1.5047Y-3.9478
M16
G05
G00X1.6769Y-2.4491
M15
G01X1.6293Y-2.5238
M16
G05
G00X1.6937Y-3.175
M15
G01X1.6922Y-3.1978
M16
G05
G00X1.8812Y-2.425
M15
G01X1.8797Y-2.4478
M16
G05
G00X2.3331Y-4.6991
M15
G01X2.2856Y-4.7738
M16
G05
G00X2.3331Y-5.4491
M15
G01X2.2856Y-5.5238
M16
G05
G00X2.5206Y-3.9491
M15
G01X2.4731Y-4.0238
M16
G05
G00X2.5375Y-4.675
M15
G01X2.5359Y-4.6978
M16
G05
G00X2.5375Y-5.425
M15
G01X2.5359Y-5.4478
M16
G05
G00X2.6144Y-2.4491
M15
G01X2.5668Y-2.5238
M16
G05
G00X2.6144Y-3.1991
M15
G01X2.5668Y-3.2738
M16
G05
G00X2.725Y-3.925
M15
G01X2.7234Y-3.9478
M16
G05
G00X2.8187Y-2.425
M15
G01X2.8172Y-2.4478
M16
G05
G00X2.8187Y-3.175
M15
G01X2.8172Y-3.1978
M16
G05
G00X3.2706Y-5.4491
M15
G01X3.2231Y-5.5238
M16
G05
G00X3.475Y-5.425
M15
G01X3.4734Y-5.4478
M16
G05
G00X3.5519Y-2.4491
M15
G01X3.5043Y-2.5238
M16
G05
G00X3.5519Y-3.1991
M15
G01X3.5043Y-3.2738
M16
G05
G00X3.5519Y-3.9491
M15
G01X3.5043Y-4.0238
M16
G05
G00X3.5519Y-4.6991
M15
G01X3.5043Y-4.7738
M16
G05
G00X3.7562Y-2.425
M15
G01X3.7547Y-2.4478
M16
G05
G00X3.7562Y-3.175
M15
G01X3.7547Y-3.1978
M16
G05
G00X3.7562Y-3.925
M15
G01X3.7547Y-3.9478
M16
G05
G00X3.7562Y-4.675
M15
G01X3.7547Y-4.6978
M16
G05
G00X4.2081Y-5.4491
M15
G01X4.1606Y-5.5238
M16
G05
G00X4.3019Y-2.4491
M15
G01X4.2543Y-2.5238
M16
G05
G00X4.3019Y-3.1991
M15
G01X4.2543Y-3.2738
M16
G05
G00X4.3019Y-3.9491
M15
G01X4.2543Y-4.0238
M16
G05
G00X4.3019Y-4.6991
M15
G01X4.2543Y-4.7738
M16
G05
G00X4.4125Y-5.425
M15
G01X4.4109Y-5.4478
M16
G05
G00X4.5062Y-2.425
M15
G01X4.5047Y-2.4478
M16
G05
G00X4.5062Y-3.175
M15
G01X4.5047Y-3.1978
M16
G05
G00X4.5062Y-3.925
M15
G01X4.5047Y-3.9478
M16
G05
G00X4.5062Y-4.675
M15
G01X4.5047Y-4.6978
M16
G05
G00X5.0519Y-2.4491
M15
G01X5.0043Y-2.5238
M16
G05
G00X5.0519Y-3.1991
M15
G01X5.0043Y-3.2738
M16
G05
G00X5.0519Y-3.9491
M15
G01X5.0043Y-4.0238
M16
G05
G00X5.0519Y-4.6991
M15
G01X5.0043Y-4.7738
M16
G05
G00X5.2562Y-2.425
M15
G01X5.2547Y-2.4478
M16
G05
G00X5.2562Y-3.175
M15
G01X5.2547Y-3.1978
M16
G05
G00X5.2562Y-3.925
M15
G01X5.2547Y-3.9478
M16
G05
G00X5.2562Y-4.675
M15
G01X5.2547Y-4.6978
M16
G05
G00X5.5206Y-5.4491
M15
G01X5.4731Y-5.5238
M16
G05
G00X5.725Y-5.425
M15
G01X5.7234Y-5.4478
M16
G05
G00X5.8019Y-2.4491
M15
G01X5.7543Y-2.5238
M16
G05
G00X5.8019Y-3.1991
M15
G01X5.7543Y-3.2738
M16
G05
G00X5.8019Y-3.9491
M15
G01X5.7543Y-4.0238
M16
G05
G00X5.8019Y-4.6991
M15
G01X5.7543Y-4.7738
M16
G05
G00X6.0062Y-2.425
M15
G01X6.0047Y-2.4478
M16
G05
G00X6.0062Y-3.175
M15
G01X6.0047Y-3.1978
M16
G05
G00X6.0062Y-3.925
M15
G01X6.0047Y-3.9478
M16
G05
G00X6.0062Y-4.675
M15
G01X6.0047Y-4.6978
M16
G05
G00X6.5519Y-2.4491
M15
G01X6.5043Y-2.5238
M16
G05
G00X6.5519Y-3.1991
M15
G01X6.5043Y-3.2738
M16
G05
G00X6.5519Y-3.9491
M15
G01X6.5043Y-4.0238
M16
G05
G00X6.5519Y-4.6991
M15
G01X6.5043Y-4.7738
M16
G05
G00X6.7298Y-6.6171
M15
G01X6.7082Y-6.6097
M16
G05
G00X6.7595Y-6.4135
M15
G01X6.6996Y-6.3482
M16
G05
G00X6.7562Y-2.425
M15
G01X6.7547Y-2.4478
M16
G05
G00X6.7562Y-3.175
M15
G01X6.7547Y-3.1978
M16
G05
G00X6.7562Y-3.925
M15
G01X6.7547Y-3.9478
M16
G05
G00X6.7562Y-4.675
M15
G01X6.7547Y-4.6978
M16
G05
G00X7.1155Y-6.7115
M15
G01X7.1754Y-6.7768
M16
G05
G00X7.1452Y-6.5079
M15
G01X7.1668Y-6.5153
M16
G05
G00X8.7679Y-6.5099
M15
G01X8.6835Y-6.4833
M16
G05
G00X8.844Y-6.7011
M15
G01X8.8216Y-6.7055
M16
G05
G00X9.1769Y-2.4491
M15
G01X9.1293Y-2.5238
M16
G05
G00X9.1769Y-3.1991
M15
G01X9.1293Y-3.2738
M16
G05
G00X9.1769Y-3.9491
M15
G01X9.1293Y-4.0238
M16
G05
G00X9.1769Y-4.6991
M15
G01X9.1293Y-4.7738
M16
G05
G00X9.156Y-6.4239
M15
G01X9.1784Y-6.4195
M16
G05
G00X9.2321Y-6.6151
M15
G01X9.3165Y-6.6417
M16
G05
G00X9.3812Y-2.425
M15
G01X9.3797Y-2.4478
M16
G05
G00X9.3812Y-3.175
M15
G01X9.3797Y-3.1978
M16
G05
G00X9.3812Y-3.925
M15
G01X9.3797Y-3.9478
M16
G05
G00X9.3812Y-4.675
M15
G01X9.3797Y-4.6978
M16
G05
G00X9.9269Y-2.4491
M15
G01X9.8793Y-2.5238
M16
G05
G00X9.9269Y-3.1991
M15
G01X9.8793Y-3.2738
M16
G05
G00X9.9269Y-3.9491
M15
G01X9.8793Y-4.0238
M16
G05
G00X9.9269Y-4.6991
M15
G01X9.8793Y-4.7738
M16
G05
G00X10.1312Y-2.425
M15
G01X10.1297Y-2.4478
M16
G05
G00X10.1312Y-3.175
M15
G01X10.1297Y-3.1978
M16
G05
G00X10.1312Y-3.925
M15
G01X10.1297Y-3.9478
M16
G05
G00X10.1312Y-4.675
M15
G01X10.1297Y-4.6978
M16
G05
G00X10.2081Y-5.4491
M15
G01X10.1606Y-5.5238
M16
G05
G00X10.4125Y-5.425
M15
G01X10.4109Y-5.4478
M16
G05
G00X10.6769Y-2.4491
M15
G01X10.6293Y-2.5238
M16
G05
G00X10.6769Y-3.1991
M15
G01X10.6293Y-3.2738
M16
G05
G00X10.6769Y-3.9491
M15
G01X10.6293Y-4.0238
M16
G05
G00X10.6769Y-4.6991
M15
G01X10.6293Y-4.7738
M16
G05
G00X10.8812Y-2.425
M15
G01X10.8797Y-2.4478
M16
G05
G00X10.8812Y-3.175
M15
G01X10.8797Y-3.1978
M16
G05
G00X10.8812Y-3.925
M15
G01X10.8797Y-3.9478
M16
G05
G00X10.8812Y-4.675
M15
G01X10.8797Y-4.6978
M16
G05
G00X11.1456Y-5.4491
M15
G01X11.0981Y-5.5238
M16
G05
G00X11.35Y-5.425
M15
G01X11.3484Y-5.4478
M16
G05
G00X11.4269Y-2.4491
M15
G01X11.3793Y-2.5238
M16
G05
G00X11.4269Y-3.1991
M15
G01X11.3793Y-3.2738
M16
G05
G00X11.4269Y-3.9491
M15
G01X11.3793Y-4.0238
M16
G05
G00X11.4269Y-4.6991
M15
G01X11.3793Y-4.7738
M16
G05
G00X11.6312Y-2.425
M15
G01X11.6297Y-2.4478
M16
G05
G00X11.6312Y-3.175
M15
G01X11.6297Y-3.1978
M16
G05
G00X11.6312Y-3.925
M15
G01X11.6297Y-3.9478
M16
G05
G00X11.6312Y-4.675
M15
G01X11.6297Y-4.6978
M16
G05
G00X12.0831Y-5.4491
M15
G01X12.0356Y-5.5238
M16
G05
G00X12.1769Y-2.4491
M15
G01X12.1293Y-2.5238
M16
G05
G00X12.1769Y-3.1991
M15
G01X12.1293Y-3.2738
M16
G05
G00X12.1769Y-3.9491
M15
G01X12.1293Y-4.0238
M16
G05
G00X12.1769Y-4.6991
M15
G01X12.1293Y-4.7738
M16
G05
G00X12.2875Y-5.425
M15
G01X12.2859Y-5.4478
M16
G05
G00X12.3812Y-2.425
M15
G01X12.3797Y-2.4478
M16
G05
G00X12.3812Y-3.175
M15
G01X12.3797Y-3.1978
M16
G05
G00X12.3812Y-3.925
M15
G01X12.3797Y-3.9478
M16
G05
G00X12.3812Y-4.675
M15
G01X12.3797Y-4.6978
M16
G05
G00X12.9269Y-2.4491
M15
G01X12.8793Y-2.5238
M16
G05
G00X12.9269Y-3.9491
M15
G01X12.8793Y-4.0238
M16
G05
G00X13.1144Y-3.1991
M15
G01X13.0668Y-3.2738
M16
G05
G00X13.1312Y-2.425
M15
G01X13.1297Y-2.4478
M16
G05
G00X13.1312Y-3.925
M15
G01X13.1297Y-3.9478
M16
G05
G00X13.3019Y-5.4491
M15
G01X13.2543Y-5.5238
M16
G05
G00X13.3187Y-3.175
M15
G01X13.3172Y-3.1978
M16
G05
G00X13.5062Y-5.425
M15
G01X13.5047Y-5.4478
M16
G05
G00X13.6769Y-2.4491
M15
G01X13.6293Y-2.5238
M16
G05
G00X13.8812Y-2.425
M15
G01X13.8797Y-2.4478
M16
G05
G00X14.0519Y-3.1991
M15
G01X14.0043Y-3.2738
M16
G05
G00X14.0519Y-4.6991
M15
G01X14.0043Y-4.7738
M16
G05
G00X14.0519Y-5.4491
M15
G01X14.0043Y-5.5238
M16
G05
G00X14.1456Y-3.9491
M15
G01X14.0981Y-4.0238
M16
G05
G00X14.2562Y-3.175
M15
G01X14.2547Y-3.1978
M16
G05
G00X14.2562Y-4.675
M15
G01X14.2547Y-4.6978
M16
G05
G00X14.2562Y-5.425
M15
G01X14.2547Y-5.4478
M16
G05
G00X14.35Y-3.925
M15
G01X14.3484Y-3.9478
M16
G05
G00X14.4269Y-2.4491
M15
G01X14.3793Y-2.5238
M16
G05
G00X14.6312Y-2.425
M15
G01X14.6297Y-2.4478
M16
G05
G00X14.8019Y-3.1991
M15
G01X14.7543Y-3.2738
M16
G05
G00X14.8019Y-5.4491
M15
G01X14.7543Y-5.5238
M16
G05
G00X15.0062Y-3.175
M15
G01X15.0047Y-3.1978
M16
G05
G00X15.0062Y-5.425
M15
G01X15.0047Y-5.4478
M16
G05
T10
G00X1.5551Y-1.8543
M15
G01X1.5551Y-1.8858
M16
G05
G00X2.0039Y-1.8543
M15
G01X2.0039Y-1.8858
M16
G05
T0
M30
