G04 #@! TF.GenerationSoftware,KiCad,Pcbnew,(6.0.10)*
G04 #@! TF.CreationDate,2023-02-11T23:58:13+13:00*
G04 #@! TF.ProjectId,orthoCode,6f727468-6f43-46f6-9465-2e6b69636164,rev?*
G04 #@! TF.SameCoordinates,Original*
G04 #@! TF.FileFunction,Soldermask,Bot*
G04 #@! TF.FilePolarity,Negative*
%FSLAX46Y46*%
G04 Gerber Fmt 4.6, Leading zero omitted, Abs format (unit mm)*
G04 Created by KiCad (PCBNEW (6.0.10)) date 2023-02-11 23:58:13*
%MOMM*%
%LPD*%
G01*
G04 APERTURE LIST*
%ADD10C,2.800000*%
%ADD11C,2.000000*%
%ADD12C,1.900000*%
%ADD13C,5.050000*%
%ADD14C,2.600000*%
%ADD15C,2.200000*%
%ADD16O,1.200000X2.200000*%
%ADD17O,1.200000X2.700000*%
%ADD18O,1.200000X2.600000*%
G04 APERTURE END LIST*
D10*
X184900000Y-134800000D03*
X184900000Y-134800000D03*
X220100000Y-134800000D03*
X220100000Y-134800000D03*
X242000000Y-183000000D03*
X242000000Y-183000000D03*
X274000000Y-147000000D03*
X274000000Y-147000000D03*
X384000000Y-128000000D03*
X384000000Y-128000000D03*
X385000000Y-62000000D03*
X385000000Y-62000000D03*
X224500000Y-62000000D03*
X224500000Y-62000000D03*
X220000000Y-73400000D03*
X220000000Y-73400000D03*
X185000000Y-73400000D03*
X185000000Y-73400000D03*
X180500000Y-62000000D03*
X180500000Y-62000000D03*
X31000000Y-62000000D03*
X31000000Y-62000000D03*
X31000000Y-147000000D03*
X31000000Y-147000000D03*
X126000000Y-147000000D03*
X126000000Y-147000000D03*
X163000000Y-183000000D03*
X163000000Y-183000000D03*
D11*
X213250000Y-107150000D03*
X206750000Y-107150000D03*
X206750000Y-111650000D03*
X213250000Y-111650000D03*
D12*
X239548505Y-169618842D03*
X236701495Y-158993658D03*
D13*
X238125000Y-164306250D03*
D14*
X244393613Y-167802961D03*
D15*
X232426038Y-165833282D03*
X233160387Y-160460133D03*
D12*
X67412500Y-142875000D03*
D13*
X61912500Y-142875000D03*
D12*
X56412500Y-142875000D03*
D14*
X56912500Y-148025000D03*
D15*
X61912500Y-136975000D03*
X66912500Y-139075000D03*
D12*
X91225000Y-142875000D03*
D13*
X85725000Y-142875000D03*
D14*
X80725000Y-148025000D03*
D12*
X80225000Y-142875000D03*
D15*
X85725000Y-136975000D03*
X90725000Y-139075000D03*
D12*
X104037500Y-142875000D03*
X115037500Y-142875000D03*
D14*
X104537500Y-148025000D03*
D13*
X109537500Y-142875000D03*
D15*
X109537500Y-136975000D03*
X114537500Y-139075000D03*
D12*
X137375000Y-142875000D03*
D13*
X142875000Y-142875000D03*
D12*
X148375000Y-142875000D03*
D14*
X137875000Y-148025000D03*
D15*
X142875000Y-136975000D03*
X147875000Y-139075000D03*
D12*
X168111005Y-158993658D03*
D13*
X166687500Y-164306250D03*
D12*
X165263995Y-169618842D03*
D14*
X163007077Y-158143703D03*
D15*
X172386462Y-165833282D03*
X169063923Y-170119392D03*
D12*
X187161005Y-163756158D03*
D14*
X189417923Y-175231297D03*
D12*
X184313995Y-174381342D03*
D13*
X185737500Y-169068750D03*
D15*
X180038538Y-167541718D03*
X183361077Y-163255608D03*
D12*
X217651495Y-163756158D03*
D14*
X212806387Y-165572039D03*
D12*
X220498505Y-174381342D03*
D13*
X219075000Y-169068750D03*
D15*
X224773962Y-167541718D03*
X224039613Y-172914867D03*
D12*
X267437500Y-142875000D03*
X256437500Y-142875000D03*
D14*
X256937500Y-148025000D03*
D13*
X261937500Y-142875000D03*
D15*
X261937500Y-136975000D03*
X266937500Y-139075000D03*
D12*
X280250000Y-142875000D03*
X291250000Y-142875000D03*
D14*
X280750000Y-148025000D03*
D13*
X285750000Y-142875000D03*
D15*
X285750000Y-136975000D03*
X290750000Y-139075000D03*
D14*
X304562500Y-148025000D03*
D13*
X309562500Y-142875000D03*
D12*
X304062500Y-142875000D03*
X315062500Y-142875000D03*
D15*
X309562500Y-136975000D03*
X314562500Y-139075000D03*
D13*
X340518750Y-142875000D03*
D12*
X335018750Y-142875000D03*
X346018750Y-142875000D03*
D14*
X335518750Y-148025000D03*
D15*
X340518750Y-136975000D03*
X345518750Y-139075000D03*
D12*
X354068750Y-142875000D03*
X365068750Y-142875000D03*
D13*
X359568750Y-142875000D03*
D14*
X354568750Y-148025000D03*
D15*
X359568750Y-136975000D03*
X364568750Y-139075000D03*
D13*
X378618750Y-142875000D03*
D12*
X384118750Y-142875000D03*
D14*
X373618750Y-148025000D03*
D12*
X373118750Y-142875000D03*
D15*
X378618750Y-136975000D03*
X383618750Y-139075000D03*
D12*
X87368750Y-123825000D03*
D14*
X87868750Y-128975000D03*
D13*
X92868750Y-123825000D03*
D12*
X98368750Y-123825000D03*
D15*
X92868750Y-117925000D03*
X97868750Y-120025000D03*
D13*
X111918750Y-123825000D03*
D12*
X106418750Y-123825000D03*
D14*
X106918750Y-128975000D03*
D12*
X117418750Y-123825000D03*
D15*
X111918750Y-117925000D03*
X116918750Y-120025000D03*
D12*
X136468750Y-123825000D03*
X125468750Y-123825000D03*
D14*
X125968750Y-128975000D03*
D13*
X130968750Y-123825000D03*
D15*
X130968750Y-117925000D03*
X135968750Y-120025000D03*
D12*
X144518750Y-123825000D03*
D13*
X150018750Y-123825000D03*
D14*
X145018750Y-128975000D03*
D12*
X155518750Y-123825000D03*
D15*
X150018750Y-117925000D03*
X155018750Y-120025000D03*
D14*
X164068750Y-128975000D03*
D12*
X174568750Y-123825000D03*
X163568750Y-123825000D03*
D13*
X169068750Y-123825000D03*
D15*
X169068750Y-117925000D03*
X174068750Y-120025000D03*
D13*
X235743750Y-123825000D03*
D14*
X230743750Y-128975000D03*
D12*
X241243750Y-123825000D03*
X230243750Y-123825000D03*
D15*
X235743750Y-117925000D03*
X240743750Y-120025000D03*
D12*
X249293750Y-123825000D03*
D13*
X254793750Y-123825000D03*
D12*
X260293750Y-123825000D03*
D14*
X249793750Y-128975000D03*
D15*
X254793750Y-117925000D03*
X259793750Y-120025000D03*
D14*
X268843750Y-128975000D03*
D12*
X279343750Y-123825000D03*
D13*
X273843750Y-123825000D03*
D12*
X268343750Y-123825000D03*
D15*
X273843750Y-117925000D03*
X278843750Y-120025000D03*
D13*
X292893750Y-123825000D03*
D14*
X287893750Y-128975000D03*
D12*
X287393750Y-123825000D03*
X298393750Y-123825000D03*
D15*
X292893750Y-117925000D03*
X297893750Y-120025000D03*
D13*
X311943750Y-123825000D03*
D14*
X306943750Y-128975000D03*
D12*
X317443750Y-123825000D03*
X306443750Y-123825000D03*
D15*
X311943750Y-117925000D03*
X316943750Y-120025000D03*
D12*
X354068750Y-123825000D03*
X365068750Y-123825000D03*
D13*
X359568750Y-123825000D03*
D14*
X354568750Y-128975000D03*
D15*
X359568750Y-117925000D03*
X364568750Y-120025000D03*
D12*
X41218750Y-104775000D03*
X30218750Y-104775000D03*
D13*
X35718750Y-104775000D03*
D14*
X30718750Y-109925000D03*
D15*
X35718750Y-98875000D03*
X40718750Y-100975000D03*
D14*
X61675000Y-109925000D03*
D12*
X72175000Y-104775000D03*
X61175000Y-104775000D03*
D13*
X66675000Y-104775000D03*
D15*
X66675000Y-98875000D03*
X71675000Y-100975000D03*
D12*
X87368750Y-104775000D03*
D14*
X87868750Y-109925000D03*
D13*
X92868750Y-104775000D03*
D12*
X98368750Y-104775000D03*
D15*
X92868750Y-98875000D03*
X97868750Y-100975000D03*
D14*
X106918750Y-109925000D03*
D12*
X117418750Y-104775000D03*
D13*
X111918750Y-104775000D03*
D12*
X106418750Y-104775000D03*
D15*
X111918750Y-98875000D03*
X116918750Y-100975000D03*
D14*
X125968750Y-109925000D03*
D12*
X125468750Y-104775000D03*
X136468750Y-104775000D03*
D13*
X130968750Y-104775000D03*
D15*
X130968750Y-98875000D03*
X135968750Y-100975000D03*
D12*
X155518750Y-104775000D03*
D14*
X145018750Y-109925000D03*
D12*
X144518750Y-104775000D03*
D13*
X150018750Y-104775000D03*
D15*
X150018750Y-98875000D03*
X155018750Y-100975000D03*
D13*
X169068750Y-104775000D03*
D12*
X163568750Y-104775000D03*
D14*
X164068750Y-109925000D03*
D12*
X174568750Y-104775000D03*
D15*
X169068750Y-98875000D03*
X174068750Y-100975000D03*
D12*
X230243750Y-104775000D03*
X241243750Y-104775000D03*
D14*
X230743750Y-109925000D03*
D13*
X235743750Y-104775000D03*
D15*
X235743750Y-98875000D03*
X240743750Y-100975000D03*
D14*
X249793750Y-109925000D03*
D12*
X249293750Y-104775000D03*
X260293750Y-104775000D03*
D13*
X254793750Y-104775000D03*
D15*
X254793750Y-98875000D03*
X259793750Y-100975000D03*
D13*
X273843750Y-104775000D03*
D12*
X268343750Y-104775000D03*
D14*
X268843750Y-109925000D03*
D12*
X279343750Y-104775000D03*
D15*
X273843750Y-98875000D03*
X278843750Y-100975000D03*
D12*
X298393750Y-104775000D03*
D13*
X292893750Y-104775000D03*
D14*
X287893750Y-109925000D03*
D12*
X287393750Y-104775000D03*
D15*
X292893750Y-98875000D03*
X297893750Y-100975000D03*
D14*
X306943750Y-109925000D03*
D12*
X317443750Y-104775000D03*
X306443750Y-104775000D03*
D13*
X311943750Y-104775000D03*
D15*
X311943750Y-98875000D03*
X316943750Y-100975000D03*
D14*
X325993750Y-109925000D03*
D12*
X325493750Y-104775000D03*
D13*
X330993750Y-104775000D03*
D12*
X336493750Y-104775000D03*
D15*
X330993750Y-98875000D03*
X335993750Y-100975000D03*
D12*
X356450000Y-104775000D03*
D14*
X356950000Y-109925000D03*
D13*
X361950000Y-104775000D03*
D12*
X367450000Y-104775000D03*
D15*
X361950000Y-98875000D03*
X366950000Y-100975000D03*
D12*
X34981250Y-85725000D03*
D14*
X35481250Y-90875000D03*
D13*
X40481250Y-85725000D03*
D12*
X45981250Y-85725000D03*
D15*
X40481250Y-79825000D03*
X45481250Y-81925000D03*
D12*
X74556250Y-85725000D03*
D13*
X69056250Y-85725000D03*
D12*
X63556250Y-85725000D03*
D14*
X64056250Y-90875000D03*
D15*
X69056250Y-79825000D03*
X74056250Y-81925000D03*
D12*
X98368750Y-85725000D03*
X87368750Y-85725000D03*
D14*
X87868750Y-90875000D03*
D13*
X92868750Y-85725000D03*
D15*
X92868750Y-79825000D03*
X97868750Y-81925000D03*
D12*
X117418750Y-85725000D03*
D14*
X106918750Y-90875000D03*
D12*
X106418750Y-85725000D03*
D13*
X111918750Y-85725000D03*
D15*
X111918750Y-79825000D03*
X116918750Y-81925000D03*
D14*
X125968750Y-90875000D03*
D12*
X136468750Y-85725000D03*
X125468750Y-85725000D03*
D13*
X130968750Y-85725000D03*
D15*
X130968750Y-79825000D03*
X135968750Y-81925000D03*
D12*
X155518750Y-85725000D03*
D14*
X145018750Y-90875000D03*
D12*
X144518750Y-85725000D03*
D13*
X150018750Y-85725000D03*
D15*
X150018750Y-79825000D03*
X155018750Y-81925000D03*
D12*
X163568750Y-85725000D03*
D14*
X164068750Y-90875000D03*
D13*
X169068750Y-85725000D03*
D12*
X174568750Y-85725000D03*
D15*
X169068750Y-79825000D03*
X174068750Y-81925000D03*
D14*
X230743750Y-90875000D03*
D12*
X230243750Y-85725000D03*
X241243750Y-85725000D03*
D13*
X235743750Y-85725000D03*
D15*
X235743750Y-79825000D03*
X240743750Y-81925000D03*
D13*
X254793750Y-85725000D03*
D12*
X260293750Y-85725000D03*
X249293750Y-85725000D03*
D14*
X249793750Y-90875000D03*
D15*
X254793750Y-79825000D03*
X259793750Y-81925000D03*
D12*
X268343750Y-85725000D03*
X279343750Y-85725000D03*
D14*
X268843750Y-90875000D03*
D13*
X273843750Y-85725000D03*
D15*
X273843750Y-79825000D03*
X278843750Y-81925000D03*
D14*
X287893750Y-90875000D03*
D13*
X292893750Y-85725000D03*
D12*
X287393750Y-85725000D03*
X298393750Y-85725000D03*
D15*
X292893750Y-79825000D03*
X297893750Y-81925000D03*
D13*
X311943750Y-85725000D03*
D12*
X317443750Y-85725000D03*
X306443750Y-85725000D03*
D14*
X306943750Y-90875000D03*
D15*
X311943750Y-79825000D03*
X316943750Y-81925000D03*
D12*
X341256250Y-85725000D03*
D13*
X335756250Y-85725000D03*
D14*
X330756250Y-90875000D03*
D12*
X330256250Y-85725000D03*
D15*
X335756250Y-79825000D03*
X340756250Y-81925000D03*
D12*
X354068750Y-85725000D03*
X365068750Y-85725000D03*
D13*
X359568750Y-85725000D03*
D14*
X354568750Y-90875000D03*
D15*
X359568750Y-79825000D03*
X364568750Y-81925000D03*
D12*
X373118750Y-85725000D03*
X384118750Y-85725000D03*
D14*
X373618750Y-90875000D03*
D13*
X378618750Y-85725000D03*
D15*
X378618750Y-79825000D03*
X383618750Y-81925000D03*
D12*
X50743750Y-66675000D03*
X39743750Y-66675000D03*
D13*
X45243750Y-66675000D03*
D14*
X40243750Y-71825000D03*
D15*
X45243750Y-60775000D03*
X50243750Y-62875000D03*
D12*
X74556250Y-66675000D03*
D13*
X69056250Y-66675000D03*
D12*
X63556250Y-66675000D03*
D14*
X64056250Y-71825000D03*
D15*
X69056250Y-60775000D03*
X74056250Y-62875000D03*
D13*
X92868750Y-66675000D03*
D12*
X87368750Y-66675000D03*
X98368750Y-66675000D03*
D14*
X87868750Y-71825000D03*
D15*
X92868750Y-60775000D03*
X97868750Y-62875000D03*
D12*
X117418750Y-66675000D03*
X106418750Y-66675000D03*
D13*
X111918750Y-66675000D03*
D14*
X106918750Y-71825000D03*
D15*
X111918750Y-60775000D03*
X116918750Y-62875000D03*
D12*
X125468750Y-66675000D03*
D14*
X125968750Y-71825000D03*
D13*
X130968750Y-66675000D03*
D12*
X136468750Y-66675000D03*
D15*
X130968750Y-60775000D03*
X135968750Y-62875000D03*
D12*
X155518750Y-66675000D03*
D13*
X150018750Y-66675000D03*
D12*
X144518750Y-66675000D03*
D14*
X145018750Y-71825000D03*
D15*
X150018750Y-60775000D03*
X155018750Y-62875000D03*
D14*
X164068750Y-71825000D03*
D12*
X174568750Y-66675000D03*
D13*
X169068750Y-66675000D03*
D12*
X163568750Y-66675000D03*
D15*
X169068750Y-60775000D03*
X174068750Y-62875000D03*
D12*
X230243750Y-66675000D03*
D14*
X230743750Y-71825000D03*
D13*
X235743750Y-66675000D03*
D12*
X241243750Y-66675000D03*
D15*
X235743750Y-60775000D03*
X240743750Y-62875000D03*
D12*
X260293750Y-66675000D03*
X249293750Y-66675000D03*
D14*
X249793750Y-71825000D03*
D13*
X254793750Y-66675000D03*
D15*
X254793750Y-60775000D03*
X259793750Y-62875000D03*
D14*
X268843750Y-71825000D03*
D13*
X273843750Y-66675000D03*
D12*
X279343750Y-66675000D03*
X268343750Y-66675000D03*
D15*
X273843750Y-60775000D03*
X278843750Y-62875000D03*
D12*
X298393750Y-66675000D03*
X287393750Y-66675000D03*
D13*
X292893750Y-66675000D03*
D14*
X287893750Y-71825000D03*
D15*
X292893750Y-60775000D03*
X297893750Y-62875000D03*
D12*
X317443750Y-66675000D03*
X306443750Y-66675000D03*
D14*
X306943750Y-71825000D03*
D13*
X311943750Y-66675000D03*
D15*
X311943750Y-60775000D03*
X316943750Y-62875000D03*
D12*
X336493750Y-66675000D03*
X325493750Y-66675000D03*
D13*
X330993750Y-66675000D03*
D14*
X325993750Y-71825000D03*
D15*
X330993750Y-60775000D03*
X335993750Y-62875000D03*
D13*
X350043750Y-66675000D03*
D12*
X344543750Y-66675000D03*
X355543750Y-66675000D03*
D14*
X345043750Y-71825000D03*
D15*
X350043750Y-60775000D03*
X355043750Y-62875000D03*
D13*
X369093750Y-66675000D03*
D14*
X364093750Y-71825000D03*
D12*
X363593750Y-66675000D03*
X374593750Y-66675000D03*
D15*
X369093750Y-60775000D03*
X374093750Y-62875000D03*
D11*
X190150000Y-111650000D03*
X196650000Y-111650000D03*
X196650000Y-107150000D03*
X190150000Y-107150000D03*
D14*
X56912500Y-128975000D03*
D13*
X61912500Y-123825000D03*
D12*
X67412500Y-123825000D03*
X56412500Y-123825000D03*
D15*
X61912500Y-117925000D03*
X66912500Y-120025000D03*
D16*
X206720000Y-74472500D03*
X198080000Y-74472500D03*
D17*
X206720000Y-69112500D03*
D18*
X198080000Y-69112500D03*
M02*
