M48
; DRILL file {KiCad 5.1.6-c6e7f7d~87~ubuntu18.04.1} date Wed Sep  2 09:28:47 2020
; FORMAT={-:-/ absolute / metric / decimal}
; #@! TF.CreationDate,2020-09-02T09:28:47+12:00
; #@! TF.GenerationSoftware,Kicad,Pcbnew,5.1.6-c6e7f7d~87~ubuntu18.04.1
; #@! TF.FileFunction,Plated,1,2,PTH
FMAT,2
METRIC
T1C0.400
T2C0.600
T3C0.700
T4C0.800
T5C0.900
T6C1.000
T7C1.016
T8C1.100
T9C1.500
T10C1.800
T11C2.200
%
G90
G05
T1
X179.5Y-55.5
X180.5Y-56.5
X187.0Y-91.5
X191.0Y-81.0
X192.0Y-81.5
X193.0Y-91.5
X195.0Y-47.5
X197.65Y-62.0
X199.434Y-94.566
X200.0Y-99.0
X202.0Y-74.0
X203.0Y-43.0
X204.5Y-75.5
X204.934Y-48.934
X206.0Y-75.5
X206.5Y-84.0
X207.0Y-76.5
X207.5Y-81.5
X224.0Y-73.5
X229.0Y-57.0
X234.5Y-52.5
X286.299Y-41.201
X287.0Y-44.0
X199.525Y-39.675
X199.525Y-41.025
X200.375Y-39.675
X200.375Y-41.025
X201.225Y-39.675
X201.225Y-41.025
X202.075Y-39.675
X202.075Y-41.025
X202.925Y-39.675
X202.925Y-41.025
X203.775Y-39.675
X203.775Y-41.025
X204.625Y-39.675
X204.625Y-41.025
X205.475Y-39.675
X205.475Y-41.025
T2
X202.5Y-60.0
X204.0Y-60.0
T3
X200.025Y-63.976
X200.025Y-69.056
X204.787Y-63.976
X204.787Y-69.056
X197.644Y-63.976
X197.644Y-69.056
X193.0Y-50.45
X193.0Y-55.55
X209.55Y-63.976
X209.55Y-69.056
X202.406Y-63.976
X202.406Y-69.056
X207.169Y-64.0
X207.169Y-69.08
X195.262Y-63.976
X195.262Y-69.056
T4
X285.0Y-45.27
X285.0Y-50.35
X90.0Y-40.77
X90.0Y-45.85
X162.0Y-40.77
X162.0Y-45.85
X288.0Y-40.77
X288.0Y-45.85
X264.0Y-40.77
X264.0Y-45.85
X249.0Y-45.27
X249.0Y-50.35
X252.0Y-40.77
X252.0Y-45.85
X309.0Y-45.27
X309.0Y-50.35
X306.0Y-43.77
X306.0Y-48.85
X105.0Y-42.27
X105.0Y-47.35
X126.0Y-40.77
X126.0Y-45.85
X177.0Y-42.27
X177.0Y-47.35
X261.0Y-45.27
X261.0Y-50.35
X231.0Y-42.27
X231.0Y-47.35
X318.0Y-44.27
X318.0Y-49.35
X174.0Y-40.77
X174.0Y-45.85
X312.0Y-41.27
X312.0Y-46.35
X108.0Y-43.77
X108.0Y-48.85
X255.0Y-42.27
X255.0Y-47.35
X120.0Y-43.77
X120.0Y-48.85
X96.0Y-43.77
X96.0Y-48.85
X129.0Y-42.27
X129.0Y-47.35
X159.0Y-45.27
X159.0Y-50.35
X144.0Y-43.77
X144.0Y-48.85
X234.0Y-43.77
X234.0Y-48.85
X199.5Y-50.77
X199.5Y-55.85
X258.0Y-43.77
X258.0Y-48.85
X240.0Y-40.77
X240.0Y-45.85
X171.0Y-45.27
X171.0Y-50.35
X87.0Y-45.27
X87.0Y-50.35
X117.0Y-42.27
X117.0Y-47.35
X93.0Y-42.27
X93.0Y-47.35
X138.0Y-40.77
X138.0Y-45.85
X102.0Y-40.77
X102.0Y-45.85
X156.0Y-43.77
X156.0Y-48.85
X276.0Y-40.77
X276.0Y-45.85
X147.0Y-45.27
X147.0Y-50.35
X78.0Y-40.77
X78.0Y-45.85
X330.0Y-44.27
X330.0Y-49.35
X135.0Y-45.27
X135.0Y-50.35
X324.0Y-41.27
X324.0Y-46.35
X279.0Y-42.27
X279.0Y-47.35
X294.0Y-44.27
X294.0Y-49.35
X153.0Y-42.27
X153.0Y-47.35
X141.0Y-42.27
X141.0Y-47.35
X336.0Y-41.27
X336.0Y-46.35
X114.0Y-40.77
X114.0Y-45.85
X132.0Y-43.77
X132.0Y-48.85
X193.0Y-96.0
X193.0Y-101.0
X111.0Y-45.27
X111.0Y-50.35
X267.0Y-42.27
X267.0Y-47.35
X237.0Y-45.27
X237.0Y-50.35
X297.0Y-45.77
X297.0Y-50.85
X123.0Y-45.27
X123.0Y-50.35
X228.0Y-40.77
X228.0Y-45.85
X327.0Y-42.77
X327.0Y-47.85
X333.0Y-45.77
X333.0Y-50.85
X190.5Y-107.039
X190.5Y-111.919
X213.0Y-98.0
X213.0Y-103.0
X99.0Y-45.27
X99.0Y-50.35
X315.0Y-42.77
X315.0Y-47.85
X188.119Y-117.0
X190.619Y-117.0
X168.0Y-43.77
X168.0Y-48.85
X84.0Y-43.77
X84.0Y-48.85
X243.0Y-42.27
X243.0Y-47.35
X282.0Y-43.77
X282.0Y-48.85
X273.0Y-45.27
X273.0Y-50.35
X303.0Y-42.27
X303.0Y-47.35
X150.0Y-40.77
X150.0Y-45.85
X195.262Y-73.819
X195.262Y-76.359
X195.262Y-78.899
X195.262Y-81.439
X195.262Y-83.979
X195.262Y-86.519
X195.262Y-89.059
X195.262Y-91.599
X195.262Y-94.139
X195.262Y-96.679
X195.262Y-99.219
X195.262Y-101.759
X195.262Y-104.299
X195.262Y-106.839
X195.262Y-109.379
X195.262Y-111.919
X195.262Y-114.459
X195.262Y-116.999
X195.262Y-119.539
X195.262Y-122.079
X210.502Y-73.819
X210.502Y-76.359
X210.502Y-78.899
X210.502Y-81.439
X210.502Y-83.979
X210.502Y-86.519
X210.502Y-89.059
X210.502Y-91.599
X210.502Y-94.139
X210.502Y-96.679
X210.502Y-99.219
X210.502Y-101.759
X210.502Y-104.299
X210.502Y-106.839
X210.502Y-109.379
X210.502Y-111.919
X210.502Y-114.459
X210.502Y-116.999
X210.502Y-119.539
X210.502Y-122.079
X270.0Y-43.77
X270.0Y-48.85
X321.0Y-45.77
X321.0Y-50.85
X291.0Y-42.27
X291.0Y-47.35
X196.5Y-50.77
X196.5Y-55.85
X165.0Y-42.27
X165.0Y-47.35
X81.0Y-42.27
X81.0Y-47.35
X246.0Y-43.77
X246.0Y-48.85
X300.0Y-40.77
X300.0Y-45.85
X188.119Y-102.0
X190.619Y-102.0
T5
X215.0Y-60.0
X215.0Y-62.54
T6
X42.7Y-40.5
X42.7Y-55.0
X45.2Y-55.0
X47.7Y-40.5
X47.7Y-55.0
T7
X186.23Y-63.96
X186.23Y-66.5
X186.23Y-69.04
X188.77Y-63.96
X188.77Y-66.5
X188.77Y-69.04
T8
X193.5Y-130.0
X193.5Y-134.5
X200.0Y-130.0
X200.0Y-134.5
X204.5Y-130.0
X204.5Y-134.5
X211.0Y-130.0
X211.0Y-134.5
X80.0Y-102.076
X80.0Y-104.616
X80.0Y-107.156
T11
X35.0Y-145.0
X325.0Y-145.0
X202.5Y-172.5
X375.0Y-130.0
X220.0Y-45.0
X125.0Y-145.0
X380.0Y-45.0
X185.0Y-45.0
X60.0Y-45.0
X225.0Y-95.0
X180.0Y-95.0
T2
G00X198.175Y-37.065
M15
G01X198.175Y-36.265
M16
G05
G00X198.175Y-40.795
M15
G01X198.175Y-39.295
M16
G05
G00X206.825Y-37.065
M15
G01X206.825Y-36.265
M16
G05
G00X206.825Y-40.795
M15
G01X206.825Y-39.295
M16
G05
T9
G00X222.706Y-165.352
M15
G01X220.56Y-164.675
M16
G05
G00X224.639Y-170.207
M15
G01X224.069Y-170.319
M16
G05
G00X166.418Y-100.306
M15
G01X165.209Y-102.204
M16
G05
G00X171.608Y-99.696
M15
G01X171.569Y-100.274
M16
G05
G00X375.968Y-138.406
M15
G01X374.759Y-140.304
M16
G05
G00X381.158Y-137.796
M15
G01X381.119Y-138.374
M16
G05
G00X356.918Y-81.256
M15
G01X355.709Y-83.154
M16
G05
G00X362.108Y-80.646
M15
G01X362.069Y-81.224
M16
G05
G00X90.218Y-62.206
M15
G01X89.009Y-64.104
M16
G05
G00X95.408Y-61.596
M15
G01X95.369Y-62.174
M16
G05
G00X128.318Y-81.256
M15
G01X127.109Y-83.154
M16
G05
G00X133.508Y-80.646
M15
G01X133.469Y-81.224
M16
G05
G00X147.368Y-81.256
M15
G01X146.159Y-83.154
M16
G05
G00X152.558Y-80.646
M15
G01X152.519Y-81.224
M16
G05
G00X161.685Y-165.71
M15
G01X163.205Y-167.369
M16
G05
G00X162.439Y-160.538
M15
G01X162.987Y-160.726
M16
G05
G00X366.443Y-62.206
M15
G01X365.234Y-64.104
M16
G05
G00X371.633Y-61.596
M15
G01X371.594Y-62.174
M16
G05
G00X233.093Y-119.356
M15
G01X231.884Y-121.254
M16
G05
G00X238.283Y-118.746
M15
G01X238.244Y-119.324
M16
G05
G00X64.024Y-100.306
M15
G01X62.816Y-102.204
M16
G05
G00X69.215Y-99.696
M15
G01X69.175Y-100.274
M16
G05
G00X180.735Y-170.472
M15
G01X182.255Y-172.131
M16
G05
G00X181.489Y-165.301
M15
G01X182.037Y-165.489
M16
G05
G00X283.099Y-138.406
M15
G01X281.891Y-140.304
M16
G05
G00X288.29Y-137.796
M15
G01X288.25Y-138.374
M16
G05
G00X359.299Y-100.306
M15
G01X358.091Y-102.204
M16
G05
G00X364.49Y-99.696
M15
G01X364.45Y-100.274
M16
G05
G00X309.293Y-100.306
M15
G01X308.084Y-102.204
M16
G05
G00X314.483Y-99.696
M15
G01X314.444Y-100.274
M16
G05
G00X106.887Y-138.406
M15
G01X105.678Y-140.304
M16
G05
G00X112.077Y-137.796
M15
G01X112.038Y-138.374
M16
G05
G00X271.193Y-100.306
M15
G01X269.984Y-102.204
M16
G05
G00X276.383Y-99.696
M15
G01X276.344Y-100.274
M16
G05
G00X66.406Y-81.256
M15
G01X65.197Y-83.154
M16
G05
G00X71.596Y-80.646
M15
G01X71.557Y-81.224
M16
G05
G00X128.318Y-119.356
M15
G01X127.109Y-121.254
M16
G05
G00X133.508Y-118.746
M15
G01X133.469Y-119.324
M16
G05
G00X166.418Y-81.256
M15
G01X165.209Y-83.154
M16
G05
G00X171.608Y-80.646
M15
G01X171.569Y-81.224
M16
G05
G00X241.756Y-160.589
M15
G01X239.61Y-159.913
M16
G05
G00X243.689Y-165.445
M15
G01X243.119Y-165.556
M16
G05
G00X290.243Y-81.256
M15
G01X289.034Y-83.154
M16
G05
G00X295.433Y-80.646
M15
G01X295.394Y-81.224
M16
G05
G00X140.224Y-138.406
M15
G01X139.016Y-140.304
M16
G05
G00X145.415Y-137.796
M15
G01X145.375Y-138.374
M16
G05
G00X259.287Y-138.406
M15
G01X258.078Y-140.304
M16
G05
G00X264.477Y-137.796
M15
G01X264.438Y-138.374
M16
G05
G00X375.968Y-81.256
M15
G01X374.759Y-83.154
M16
G05
G00X381.158Y-80.646
M15
G01X381.119Y-81.224
M16
G05
G00X356.918Y-119.356
M15
G01X355.709Y-121.254
M16
G05
G00X362.108Y-118.746
M15
G01X362.069Y-119.324
M16
G05
G00X37.831Y-81.256
M15
G01X36.622Y-83.154
M16
G05
G00X43.021Y-80.646
M15
G01X42.982Y-81.224
M16
G05
G00X166.418Y-119.356
M15
G01X165.209Y-121.254
M16
G05
G00X171.608Y-118.746
M15
G01X171.569Y-119.324
M16
G05
G00X337.868Y-138.406
M15
G01X336.659Y-140.304
M16
G05
G00X343.058Y-137.796
M15
G01X343.019Y-138.374
M16
G05
G00X83.074Y-138.406
M15
G01X81.866Y-140.304
M16
G05
G00X88.265Y-137.796
M15
G01X88.225Y-138.374
M16
G05
G00X90.218Y-100.306
M15
G01X89.009Y-102.204
M16
G05
G00X95.408Y-99.696
M15
G01X95.369Y-100.274
M16
G05
G00X59.262Y-119.356
M15
G01X58.053Y-121.254
M16
G05
G00X64.452Y-118.746
M15
G01X64.413Y-119.324
M16
G05
G00X306.912Y-138.406
M15
G01X305.703Y-140.304
M16
G05
G00X312.102Y-137.796
M15
G01X312.063Y-138.374
M16
G05
G00X109.268Y-100.306
M15
G01X108.059Y-102.204
M16
G05
G00X114.458Y-99.696
M15
G01X114.419Y-100.274
M16
G05
G00X328.343Y-62.206
M15
G01X327.134Y-64.104
M16
G05
G00X333.533Y-61.596
M15
G01X333.494Y-62.174
M16
G05
G00X252.143Y-62.206
M15
G01X250.934Y-64.104
M16
G05
G00X257.333Y-61.596
M15
G01X257.294Y-62.174
M16
G05
G00X347.393Y-62.206
M15
G01X346.184Y-64.104
M16
G05
G00X352.583Y-61.596
M15
G01X352.544Y-62.174
M16
G05
G00X90.218Y-81.256
M15
G01X89.009Y-83.154
M16
G05
G00X95.408Y-80.646
M15
G01X95.369Y-81.224
M16
G05
G00X233.093Y-81.256
M15
G01X231.884Y-83.154
M16
G05
G00X238.283Y-80.646
M15
G01X238.244Y-81.224
M16
G05
G00X233.093Y-62.206
M15
G01X231.884Y-64.104
M16
G05
G00X238.283Y-61.596
M15
G01X238.244Y-62.174
M16
G05
G00X147.368Y-119.356
M15
G01X146.159Y-121.254
M16
G05
G00X152.558Y-118.746
M15
G01X152.519Y-119.324
M16
G05
G00X166.418Y-62.206
M15
G01X165.209Y-64.104
M16
G05
G00X171.608Y-61.596
M15
G01X171.569Y-62.174
M16
G05
G00X290.243Y-100.306
M15
G01X289.034Y-102.204
M16
G05
G00X295.433Y-99.696
M15
G01X295.394Y-100.274
M16
G05
G00X109.268Y-62.206
M15
G01X108.059Y-64.104
M16
G05
G00X114.458Y-61.596
M15
G01X114.419Y-62.174
M16
G05
G00X33.068Y-100.306
M15
G01X31.859Y-102.204
M16
G05
G00X38.258Y-99.696
M15
G01X38.219Y-100.274
M16
G05
G00X309.293Y-81.256
M15
G01X308.084Y-83.154
M16
G05
G00X314.483Y-80.646
M15
G01X314.444Y-81.224
M16
G05
G00X42.593Y-62.206
M15
G01X41.384Y-64.104
M16
G05
G00X47.783Y-61.596
M15
G01X47.744Y-62.174
M16
G05
G00X109.268Y-119.356
M15
G01X108.059Y-121.254
M16
G05
G00X114.458Y-118.746
M15
G01X114.419Y-119.324
M16
G05
G00X252.143Y-100.306
M15
G01X250.934Y-102.204
M16
G05
G00X257.333Y-99.696
M15
G01X257.294Y-100.274
M16
G05
G00X271.193Y-62.206
M15
G01X269.984Y-64.104
M16
G05
G00X276.383Y-61.596
M15
G01X276.344Y-62.174
M16
G05
G00X90.218Y-119.356
M15
G01X89.009Y-121.254
M16
G05
G00X95.408Y-118.746
M15
G01X95.369Y-119.324
M16
G05
G00X233.093Y-100.306
M15
G01X231.884Y-102.204
M16
G05
G00X238.283Y-99.696
M15
G01X238.244Y-100.274
M16
G05
G00X290.243Y-62.206
M15
G01X289.034Y-64.104
M16
G05
G00X295.433Y-61.596
M15
G01X295.394Y-62.174
M16
G05
G00X66.406Y-62.206
M15
G01X65.197Y-64.104
M16
G05
G00X71.596Y-61.596
M15
G01X71.557Y-62.174
M16
G05
G00X147.368Y-100.306
M15
G01X146.159Y-102.204
M16
G05
G00X152.558Y-99.696
M15
G01X152.519Y-100.274
M16
G05
G00X290.243Y-119.356
M15
G01X289.034Y-121.254
M16
G05
G00X295.433Y-118.746
M15
G01X295.394Y-119.324
M16
G05
G00X356.918Y-138.406
M15
G01X355.709Y-140.304
M16
G05
G00X362.108Y-137.796
M15
G01X362.069Y-138.374
M16
G05
G00X333.106Y-81.256
M15
G01X331.897Y-83.154
M16
G05
G00X338.296Y-80.646
M15
G01X338.257Y-81.224
M16
G05
G00X147.368Y-62.206
M15
G01X146.159Y-64.104
M16
G05
G00X152.558Y-61.596
M15
G01X152.519Y-62.174
M16
G05
G00X309.293Y-62.206
M15
G01X308.084Y-64.104
M16
G05
G00X314.483Y-61.596
M15
G01X314.444Y-62.174
M16
G05
G00X252.143Y-119.356
M15
G01X250.934Y-121.254
M16
G05
G00X257.333Y-118.746
M15
G01X257.294Y-119.324
M16
G05
G00X271.193Y-81.256
M15
G01X269.984Y-83.154
M16
G05
G00X276.383Y-80.646
M15
G01X276.344Y-81.224
M16
G05
G00X271.193Y-119.356
M15
G01X269.984Y-121.254
M16
G05
G00X276.383Y-118.746
M15
G01X276.344Y-119.324
M16
G05
G00X109.268Y-81.256
M15
G01X108.059Y-83.154
M16
G05
G00X114.458Y-80.646
M15
G01X114.419Y-81.224
M16
G05
G00X309.293Y-119.356
M15
G01X308.084Y-121.254
M16
G05
G00X314.483Y-118.746
M15
G01X314.444Y-119.324
M16
G05
G00X128.318Y-62.206
M15
G01X127.109Y-64.104
M16
G05
G00X133.508Y-61.596
M15
G01X133.469Y-62.174
M16
G05
G00X128.318Y-100.306
M15
G01X127.109Y-102.204
M16
G05
G00X133.508Y-99.696
M15
G01X133.469Y-100.274
M16
G05
G00X252.143Y-81.256
M15
G01X250.934Y-83.154
M16
G05
G00X257.333Y-80.646
M15
G01X257.294Y-81.224
M16
G05
G00X59.262Y-138.406
M15
G01X58.053Y-140.304
M16
G05
G00X64.452Y-137.796
M15
G01X64.413Y-138.374
M16
G05
G00X328.343Y-100.306
M15
G01X327.134Y-102.204
M16
G05
G00X333.533Y-99.696
M15
G01X333.494Y-100.274
M16
G05
T10
G00X39.5Y-47.1
M15
G01X39.5Y-47.9
M16
G05
G00X50.9Y-47.1
M15
G01X50.9Y-47.9
M16
G05
T0
M30
