M48
; DRILL file {KiCad (6.0.10)} date Sat Feb 11 23:58:19 2023
; FORMAT={-:-/ absolute / metric / decimal}
; #@! TF.CreationDate,2023-02-11T23:58:19+13:00
; #@! TF.GenerationSoftware,Kicad,Pcbnew,(6.0.10)
; #@! TF.FileFunction,NonPlated,1,2,NPTH
FMAT,2
METRIC
; #@! TA.AperFunction,NonPlated,NPTH,ComponentDrill
T1C1.900
; #@! TA.AperFunction,NonPlated,NPTH,ComponentDrill
T2C5.050
%
G90
G05
T1
X30.219Y-104.775
X34.981Y-85.725
X39.744Y-66.675
X41.219Y-104.775
X45.981Y-85.725
X50.744Y-66.675
X56.412Y-123.825
X56.412Y-142.875
X61.175Y-104.775
X63.556Y-66.675
X63.556Y-85.725
X67.412Y-123.825
X67.412Y-142.875
X72.175Y-104.775
X74.556Y-66.675
X74.556Y-85.725
X80.225Y-142.875
X87.369Y-66.675
X87.369Y-85.725
X87.369Y-104.775
X87.369Y-123.825
X91.225Y-142.875
X98.369Y-66.675
X98.369Y-85.725
X98.369Y-104.775
X98.369Y-123.825
X104.037Y-142.875
X106.419Y-66.675
X106.419Y-85.725
X106.419Y-104.775
X106.419Y-123.825
X115.037Y-142.875
X117.419Y-66.675
X117.419Y-85.725
X117.419Y-104.775
X117.419Y-123.825
X125.469Y-66.675
X125.469Y-85.725
X125.469Y-104.775
X125.469Y-123.825
X136.469Y-66.675
X136.469Y-85.725
X136.469Y-104.775
X136.469Y-123.825
X137.375Y-142.875
X144.519Y-66.675
X144.519Y-85.725
X144.519Y-104.775
X144.519Y-123.825
X148.375Y-142.875
X155.519Y-66.675
X155.519Y-85.725
X155.519Y-104.775
X155.519Y-123.825
X163.569Y-66.675
X163.569Y-85.725
X163.569Y-104.775
X163.569Y-123.825
X165.264Y-169.619
X168.111Y-158.994
X174.569Y-66.675
X174.569Y-85.725
X174.569Y-104.775
X174.569Y-123.825
X184.314Y-174.381
X187.161Y-163.756
X217.651Y-163.756
X220.499Y-174.381
X230.244Y-66.675
X230.244Y-85.725
X230.244Y-104.775
X230.244Y-123.825
X236.701Y-158.994
X239.549Y-169.619
X241.244Y-66.675
X241.244Y-85.725
X241.244Y-104.775
X241.244Y-123.825
X249.294Y-66.675
X249.294Y-85.725
X249.294Y-104.775
X249.294Y-123.825
X256.438Y-142.875
X260.294Y-66.675
X260.294Y-85.725
X260.294Y-104.775
X260.294Y-123.825
X267.438Y-142.875
X268.344Y-66.675
X268.344Y-85.725
X268.344Y-104.775
X268.344Y-123.825
X279.344Y-66.675
X279.344Y-85.725
X279.344Y-104.775
X279.344Y-123.825
X280.25Y-142.875
X287.394Y-66.675
X287.394Y-85.725
X287.394Y-104.775
X287.394Y-123.825
X291.25Y-142.875
X298.394Y-66.675
X298.394Y-85.725
X298.394Y-104.775
X298.394Y-123.825
X304.062Y-142.875
X306.444Y-66.675
X306.444Y-85.725
X306.444Y-104.775
X306.444Y-123.825
X315.062Y-142.875
X317.444Y-66.675
X317.444Y-85.725
X317.444Y-104.775
X317.444Y-123.825
X325.494Y-66.675
X325.494Y-104.775
X330.256Y-85.725
X335.019Y-142.875
X336.494Y-66.675
X336.494Y-104.775
X341.256Y-85.725
X344.544Y-66.675
X346.019Y-142.875
X354.069Y-85.725
X354.069Y-123.825
X354.069Y-142.875
X355.544Y-66.675
X356.45Y-104.775
X363.594Y-66.675
X365.069Y-85.725
X365.069Y-123.825
X365.069Y-142.875
X367.45Y-104.775
X373.119Y-85.725
X373.119Y-142.875
X374.594Y-66.675
X384.119Y-85.725
X384.119Y-142.875
T2
X35.719Y-104.775
X40.481Y-85.725
X45.244Y-66.675
X61.912Y-123.825
X61.912Y-142.875
X66.675Y-104.775
X69.056Y-66.675
X69.056Y-85.725
X85.725Y-142.875
X92.869Y-66.675
X92.869Y-85.725
X92.869Y-104.775
X92.869Y-123.825
X109.537Y-142.875
X111.919Y-66.675
X111.919Y-85.725
X111.919Y-104.775
X111.919Y-123.825
X130.969Y-66.675
X130.969Y-85.725
X130.969Y-104.775
X130.969Y-123.825
X142.875Y-142.875
X150.019Y-66.675
X150.019Y-85.725
X150.019Y-104.775
X150.019Y-123.825
X166.688Y-164.306
X169.069Y-66.675
X169.069Y-85.725
X169.069Y-104.775
X169.069Y-123.825
X185.737Y-169.069
X219.075Y-169.069
X235.744Y-66.675
X235.744Y-85.725
X235.744Y-104.775
X235.744Y-123.825
X238.125Y-164.306
X254.794Y-66.675
X254.794Y-85.725
X254.794Y-104.775
X254.794Y-123.825
X261.938Y-142.875
X273.844Y-66.675
X273.844Y-85.725
X273.844Y-104.775
X273.844Y-123.825
X285.75Y-142.875
X292.894Y-66.675
X292.894Y-85.725
X292.894Y-104.775
X292.894Y-123.825
X309.562Y-142.875
X311.944Y-66.675
X311.944Y-85.725
X311.944Y-104.775
X311.944Y-123.825
X330.994Y-66.675
X330.994Y-104.775
X335.756Y-85.725
X340.519Y-142.875
X350.044Y-66.675
X359.569Y-85.725
X359.569Y-123.825
X359.569Y-142.875
X361.95Y-104.775
X369.094Y-66.675
X378.619Y-85.725
X378.619Y-142.875
T0
M30
