%TF.GenerationSoftware,KiCad,Pcbnew,(6.0.10)*%
%TF.CreationDate,2023-02-11T23:58:20+13:00*%
%TF.ProjectId,orthoCode,6f727468-6f43-46f6-9465-2e6b69636164,rev?*%
%TF.SameCoordinates,Original*%
%TF.FileFunction,Drillmap*%
%TF.FilePolarity,Positive*%
%FSLAX45Y45*%
G04 Gerber Fmt 4.5, Leading zero omitted, Abs format (unit mm)*
G04 Created by KiCad (PCBNEW (6.0.10)) date 2023-02-11 23:58:20*
%MOMM*%
%LPD*%
G01*
G04 APERTURE LIST*
%ADD10C,0.050000*%
%ADD11C,0.200000*%
%ADD12C,0.020000*%
%ADD13C,0.040000*%
%ADD14C,0.065000*%
%ADD15C,0.110000*%
%ADD16C,0.120000*%
%ADD17C,0.160000*%
%ADD18C,0.280000*%
G04 APERTURE END LIST*
D10*
X38697868Y-15199998D02*
G75*
G03*
X38997868Y-14900000I2J299998D01*
G01*
X18420000Y-6440000D02*
G75*
G03*
X18720000Y-6740000I300000J0D01*
G01*
X27400000Y-15200724D02*
G75*
G03*
X27000000Y-15400000I10110J-521386D01*
G01*
X2900000Y-15200000D02*
X13100000Y-15200722D01*
X24300000Y-18900000D02*
X16190080Y-18900000D01*
X21800000Y-6740000D02*
G75*
G03*
X22100000Y-6440000I0J300000D01*
G01*
X2900000Y-5797868D02*
G75*
G03*
X2600000Y-6097868I0J-300000D01*
G01*
X2600000Y-6097868D02*
X2600000Y-14900000D01*
X27000000Y-15400000D02*
X24690080Y-18700060D01*
X18720000Y-6740000D02*
X21800000Y-6740000D01*
X22100000Y-6100000D02*
X22100000Y-6440000D01*
X38997868Y-6100000D02*
X38997868Y-14900000D01*
X2600000Y-14900000D02*
G75*
G03*
X2900000Y-15200000I300000J0D01*
G01*
X18419998Y-6100000D02*
G75*
G03*
X18120000Y-5800000I-299998J2D01*
G01*
X18120000Y-5800000D02*
X2900000Y-5797868D01*
X18420000Y-6100000D02*
X18420000Y-6440000D01*
X38697868Y-15200000D02*
X27400000Y-15200722D01*
X24300000Y-18900000D02*
G75*
G03*
X24690080Y-18700060I-10000J500000D01*
G01*
X15800000Y-18700060D02*
G75*
G03*
X16190080Y-18900000I400080J300060D01*
G01*
X38697868Y-5800000D02*
X22400000Y-5800000D01*
X13500000Y-15400000D02*
X15800000Y-18700060D01*
X38997868Y-6100000D02*
G75*
G03*
X38697868Y-5800000I-299998J2D01*
G01*
X22400000Y-5799998D02*
G75*
G03*
X22100000Y-6100000I0J-300000D01*
G01*
X13499999Y-15400001D02*
G75*
G03*
X13100000Y-15200722I-410109J-322099D01*
G01*
D11*
D12*
X19750000Y-9170000D02*
X19770000Y-9190000D01*
X19770000Y-9170000D02*
X19750000Y-9190000D01*
X19940000Y-7780000D02*
X19960000Y-7800000D01*
X19960000Y-7780000D02*
X19940000Y-7800000D01*
X19960000Y-9740000D02*
X19980000Y-9760000D01*
X19980000Y-9740000D02*
X19960000Y-9760000D01*
X19970000Y-9170000D02*
X19990000Y-9190000D01*
X19990000Y-9170000D02*
X19970000Y-9190000D01*
X20030000Y-12090000D02*
X20050000Y-12110000D01*
X20050000Y-12090000D02*
X20030000Y-12110000D01*
X20080000Y-7600000D02*
X20100000Y-7620000D01*
X20100000Y-7600000D02*
X20080000Y-7620000D01*
X20090000Y-13950000D02*
X20110000Y-13970000D01*
X20110000Y-13950000D02*
X20090000Y-13970000D01*
X20153946Y-7404314D02*
X20173946Y-7424314D01*
X20173946Y-7404314D02*
X20153946Y-7424314D01*
X20180000Y-7540000D02*
X20200000Y-7560000D01*
X20200000Y-7540000D02*
X20180000Y-7560000D01*
X20210000Y-9870000D02*
X20230000Y-9890000D01*
X20230000Y-9870000D02*
X20210000Y-9890000D01*
X20230000Y-12730000D02*
X20250000Y-12750000D01*
X20250000Y-12730000D02*
X20230000Y-12750000D01*
X20250000Y-7410000D02*
X20270000Y-7430000D01*
X20270000Y-7410000D02*
X20250000Y-7430000D01*
X20270000Y-10150000D02*
X20290000Y-10170000D01*
X20290000Y-10150000D02*
X20270000Y-10170000D01*
X20270000Y-13230000D02*
X20290000Y-13250000D01*
X20290000Y-13230000D02*
X20270000Y-13250000D01*
X20280000Y-7560000D02*
X20300000Y-7580000D01*
X20300000Y-7560000D02*
X20280000Y-7580000D01*
X20330000Y-7610000D02*
X20350000Y-7630000D01*
X20350000Y-7610000D02*
X20330000Y-7630000D01*
X20360000Y-8200000D02*
X20380000Y-8220000D01*
X20380000Y-8200000D02*
X20360000Y-8220000D01*
X20370000Y-8850000D02*
X20390000Y-8870000D01*
X20390000Y-8850000D02*
X20370000Y-8870000D01*
X20370000Y-10150000D02*
X20390000Y-10170000D01*
X20390000Y-10150000D02*
X20370000Y-10170000D01*
X20430000Y-10350000D02*
X20450000Y-10370000D01*
X20450000Y-10350000D02*
X20430000Y-10370000D01*
X20440000Y-7660000D02*
X20460000Y-7680000D01*
X20460000Y-7660000D02*
X20440000Y-7680000D01*
X20470000Y-10570000D02*
X20490000Y-10590000D01*
X20490000Y-10570000D02*
X20470000Y-10590000D01*
X20630000Y-9990000D02*
X20650000Y-10010000D01*
X20650000Y-9990000D02*
X20630000Y-10010000D01*
X20730000Y-8890000D02*
X20750000Y-8910000D01*
X20750000Y-8890000D02*
X20730000Y-8910000D01*
X20850000Y-9030000D02*
X20870000Y-9050000D01*
X20870000Y-9030000D02*
X20850000Y-9050000D01*
X20890000Y-9610000D02*
X20910000Y-9630000D01*
X20910000Y-9610000D02*
X20890000Y-9630000D01*
X20910000Y-7720000D02*
X20930000Y-7740000D01*
X20930000Y-7720000D02*
X20910000Y-7740000D01*
X21310000Y-9530000D02*
X21330000Y-9550000D01*
X21330000Y-9530000D02*
X21310000Y-9550000D01*
X21410000Y-9310000D02*
X21430000Y-9330000D01*
X21430000Y-9310000D02*
X21410000Y-9330000D01*
X21410000Y-9450000D02*
X21430000Y-9470000D01*
X21430000Y-9450000D02*
X21410000Y-9470000D01*
X22490000Y-8430000D02*
X22510000Y-8450000D01*
X22510000Y-8430000D02*
X22490000Y-8450000D01*
X22540000Y-8560000D02*
X22560000Y-8580000D01*
X22560000Y-8560000D02*
X22540000Y-8580000D01*
X23210000Y-10110000D02*
X23230000Y-10130000D01*
X23230000Y-10110000D02*
X23210000Y-10130000D01*
D13*
X16400000Y-11310000D02*
G75*
G03*
X16400000Y-11310000I-20000J0D01*
G01*
X16830000Y-11310000D02*
G75*
G03*
X16830000Y-11310000I-20000J0D01*
G01*
X19760000Y-9640000D02*
G75*
G03*
X19760000Y-9640000I-20000J0D01*
G01*
X19790000Y-9750000D02*
G75*
G03*
X19790000Y-9750000I-20000J0D01*
G01*
D14*
X19808000Y-6878750D02*
X19808000Y-6943750D01*
X19775500Y-6911250D02*
X19840500Y-6911250D01*
D11*
X19840500Y-6987525D02*
X19840500Y-6834975D01*
X19775500Y-6987525D02*
X19775500Y-6834975D01*
X19840500Y-6834975D02*
G75*
G03*
X19775500Y-6834975I-32500J0D01*
G01*
X19775500Y-6987525D02*
G75*
G03*
X19840500Y-6987525I32500J0D01*
G01*
D14*
X19808000Y-7414750D02*
X19808000Y-7479750D01*
X19775500Y-7447250D02*
X19840500Y-7447250D01*
D11*
X19840500Y-7501023D02*
X19840500Y-7393477D01*
X19775500Y-7501023D02*
X19775500Y-7393477D01*
X19840500Y-7393477D02*
G75*
G03*
X19775500Y-7393477I-32500J0D01*
G01*
X19775500Y-7501023D02*
G75*
G03*
X19840500Y-7501023I32500J0D01*
G01*
D14*
X20672000Y-6878750D02*
X20672000Y-6943750D01*
X20639500Y-6911250D02*
X20704500Y-6911250D01*
D11*
X20704500Y-6987525D02*
X20704500Y-6834975D01*
X20639500Y-6987525D02*
X20639500Y-6834975D01*
X20704500Y-6834975D02*
G75*
G03*
X20639500Y-6834975I-32500J0D01*
G01*
X20639500Y-6987525D02*
G75*
G03*
X20704500Y-6987525I32500J0D01*
G01*
D14*
X20672000Y-7414750D02*
X20672000Y-7479750D01*
X20639500Y-7447250D02*
X20704500Y-7447250D01*
D11*
X20704500Y-7499774D02*
X20704500Y-7394726D01*
X20639500Y-7499774D02*
X20639500Y-7394726D01*
X20704500Y-7394726D02*
G75*
G03*
X20639500Y-7394726I-32500J0D01*
G01*
X20639500Y-7499774D02*
G75*
G03*
X20704500Y-7499774I32500J0D01*
G01*
D15*
X19053891Y-10753891D02*
X19053891Y-10676109D01*
X18976109Y-10676109D01*
X18976109Y-10753891D01*
X19053891Y-10753891D01*
X19053891Y-11203891D02*
X19053891Y-11126109D01*
X18976109Y-11126109D01*
X18976109Y-11203891D01*
X19053891Y-11203891D01*
X19703891Y-10753891D02*
X19703891Y-10676109D01*
X19626109Y-10676109D01*
X19626109Y-10753891D01*
X19703891Y-10753891D01*
X19703891Y-11203891D02*
X19703891Y-11126109D01*
X19626109Y-11126109D01*
X19626109Y-11203891D01*
X19703891Y-11203891D01*
X20713891Y-10753891D02*
X20713891Y-10676109D01*
X20636109Y-10676109D01*
X20636109Y-10753891D01*
X20713891Y-10753891D01*
X20713891Y-11203891D02*
X20713891Y-11126109D01*
X20636109Y-11126109D01*
X20636109Y-11203891D01*
X20713891Y-11203891D01*
X21363891Y-10753891D02*
X21363891Y-10676109D01*
X21286109Y-10676109D01*
X21286109Y-10753891D01*
X21363891Y-10753891D01*
X21363891Y-11203891D02*
X21363891Y-11126109D01*
X21286109Y-11126109D01*
X21286109Y-11203891D01*
X21363891Y-11203891D01*
D16*
X3571875Y-9947500D02*
X3631875Y-9887500D01*
X3571875Y-9827500D01*
X3511875Y-9887500D01*
X3571875Y-9947500D01*
X4048125Y-8042500D02*
X4108125Y-7982500D01*
X4048125Y-7922500D01*
X3988125Y-7982500D01*
X4048125Y-8042500D01*
X4071875Y-10157500D02*
X4131875Y-10097500D01*
X4071875Y-10037500D01*
X4011875Y-10097500D01*
X4071875Y-10157500D01*
X4524375Y-6137500D02*
X4584375Y-6077500D01*
X4524375Y-6017500D01*
X4464375Y-6077500D01*
X4524375Y-6137500D01*
X4548125Y-8252500D02*
X4608125Y-8192500D01*
X4548125Y-8132500D01*
X4488125Y-8192500D01*
X4548125Y-8252500D01*
X5024375Y-6347500D02*
X5084375Y-6287500D01*
X5024375Y-6227500D01*
X4964375Y-6287500D01*
X5024375Y-6347500D01*
X6191250Y-11852500D02*
X6251250Y-11792500D01*
X6191250Y-11732500D01*
X6131250Y-11792500D01*
X6191250Y-11852500D01*
X6191250Y-13757500D02*
X6251250Y-13697500D01*
X6191250Y-13637500D01*
X6131250Y-13697500D01*
X6191250Y-13757500D01*
X6667500Y-9947500D02*
X6727500Y-9887500D01*
X6667500Y-9827500D01*
X6607500Y-9887500D01*
X6667500Y-9947500D01*
X6691250Y-12062500D02*
X6751250Y-12002500D01*
X6691250Y-11942500D01*
X6631250Y-12002500D01*
X6691250Y-12062500D01*
X6691250Y-13967500D02*
X6751250Y-13907500D01*
X6691250Y-13847500D01*
X6631250Y-13907500D01*
X6691250Y-13967500D01*
X6905625Y-6137500D02*
X6965625Y-6077500D01*
X6905625Y-6017500D01*
X6845625Y-6077500D01*
X6905625Y-6137500D01*
X6905625Y-8042500D02*
X6965625Y-7982500D01*
X6905625Y-7922500D01*
X6845625Y-7982500D01*
X6905625Y-8042500D01*
X7167500Y-10157500D02*
X7227500Y-10097500D01*
X7167500Y-10037500D01*
X7107500Y-10097500D01*
X7167500Y-10157500D01*
X7405625Y-6347500D02*
X7465625Y-6287500D01*
X7405625Y-6227500D01*
X7345625Y-6287500D01*
X7405625Y-6347500D01*
X7405625Y-8252500D02*
X7465625Y-8192500D01*
X7405625Y-8132500D01*
X7345625Y-8192500D01*
X7405625Y-8252500D01*
X8572500Y-13757500D02*
X8632500Y-13697500D01*
X8572500Y-13637500D01*
X8512500Y-13697500D01*
X8572500Y-13757500D01*
X9072500Y-13967500D02*
X9132500Y-13907500D01*
X9072500Y-13847500D01*
X9012500Y-13907500D01*
X9072500Y-13967500D01*
X9286875Y-6137500D02*
X9346875Y-6077500D01*
X9286875Y-6017500D01*
X9226875Y-6077500D01*
X9286875Y-6137500D01*
X9286875Y-8042500D02*
X9346875Y-7982500D01*
X9286875Y-7922500D01*
X9226875Y-7982500D01*
X9286875Y-8042500D01*
X9286875Y-9947500D02*
X9346875Y-9887500D01*
X9286875Y-9827500D01*
X9226875Y-9887500D01*
X9286875Y-9947500D01*
X9286875Y-11852500D02*
X9346875Y-11792500D01*
X9286875Y-11732500D01*
X9226875Y-11792500D01*
X9286875Y-11852500D01*
X9786875Y-6347500D02*
X9846875Y-6287500D01*
X9786875Y-6227500D01*
X9726875Y-6287500D01*
X9786875Y-6347500D01*
X9786875Y-8252500D02*
X9846875Y-8192500D01*
X9786875Y-8132500D01*
X9726875Y-8192500D01*
X9786875Y-8252500D01*
X9786875Y-10157500D02*
X9846875Y-10097500D01*
X9786875Y-10037500D01*
X9726875Y-10097500D01*
X9786875Y-10157500D01*
X9786875Y-12062500D02*
X9846875Y-12002500D01*
X9786875Y-11942500D01*
X9726875Y-12002500D01*
X9786875Y-12062500D01*
X10953750Y-13757500D02*
X11013750Y-13697500D01*
X10953750Y-13637500D01*
X10893750Y-13697500D01*
X10953750Y-13757500D01*
X11191875Y-6137500D02*
X11251875Y-6077500D01*
X11191875Y-6017500D01*
X11131875Y-6077500D01*
X11191875Y-6137500D01*
X11191875Y-8042500D02*
X11251875Y-7982500D01*
X11191875Y-7922500D01*
X11131875Y-7982500D01*
X11191875Y-8042500D01*
X11191875Y-9947500D02*
X11251875Y-9887500D01*
X11191875Y-9827500D01*
X11131875Y-9887500D01*
X11191875Y-9947500D01*
X11191875Y-11852500D02*
X11251875Y-11792500D01*
X11191875Y-11732500D01*
X11131875Y-11792500D01*
X11191875Y-11852500D01*
X11453750Y-13967500D02*
X11513750Y-13907500D01*
X11453750Y-13847500D01*
X11393750Y-13907500D01*
X11453750Y-13967500D01*
X11691875Y-6347500D02*
X11751875Y-6287500D01*
X11691875Y-6227500D01*
X11631875Y-6287500D01*
X11691875Y-6347500D01*
X11691875Y-8252500D02*
X11751875Y-8192500D01*
X11691875Y-8132500D01*
X11631875Y-8192500D01*
X11691875Y-8252500D01*
X11691875Y-10157500D02*
X11751875Y-10097500D01*
X11691875Y-10037500D01*
X11631875Y-10097500D01*
X11691875Y-10157500D01*
X11691875Y-12062500D02*
X11751875Y-12002500D01*
X11691875Y-11942500D01*
X11631875Y-12002500D01*
X11691875Y-12062500D01*
X13096875Y-6137500D02*
X13156875Y-6077500D01*
X13096875Y-6017500D01*
X13036875Y-6077500D01*
X13096875Y-6137500D01*
X13096875Y-8042500D02*
X13156875Y-7982500D01*
X13096875Y-7922500D01*
X13036875Y-7982500D01*
X13096875Y-8042500D01*
X13096875Y-9947500D02*
X13156875Y-9887500D01*
X13096875Y-9827500D01*
X13036875Y-9887500D01*
X13096875Y-9947500D01*
X13096875Y-11852500D02*
X13156875Y-11792500D01*
X13096875Y-11732500D01*
X13036875Y-11792500D01*
X13096875Y-11852500D01*
X13596875Y-6347500D02*
X13656875Y-6287500D01*
X13596875Y-6227500D01*
X13536875Y-6287500D01*
X13596875Y-6347500D01*
X13596875Y-8252500D02*
X13656875Y-8192500D01*
X13596875Y-8132500D01*
X13536875Y-8192500D01*
X13596875Y-8252500D01*
X13596875Y-10157500D02*
X13656875Y-10097500D01*
X13596875Y-10037500D01*
X13536875Y-10097500D01*
X13596875Y-10157500D01*
X13596875Y-12062500D02*
X13656875Y-12002500D01*
X13596875Y-11942500D01*
X13536875Y-12002500D01*
X13596875Y-12062500D01*
X14287500Y-13757500D02*
X14347500Y-13697500D01*
X14287500Y-13637500D01*
X14227500Y-13697500D01*
X14287500Y-13757500D01*
X14787500Y-13967500D02*
X14847500Y-13907500D01*
X14787500Y-13847500D01*
X14727500Y-13907500D01*
X14787500Y-13967500D01*
X15001875Y-6137500D02*
X15061875Y-6077500D01*
X15001875Y-6017500D01*
X14941875Y-6077500D01*
X15001875Y-6137500D01*
X15001875Y-8042500D02*
X15061875Y-7982500D01*
X15001875Y-7922500D01*
X14941875Y-7982500D01*
X15001875Y-8042500D01*
X15001875Y-9947500D02*
X15061875Y-9887500D01*
X15001875Y-9827500D01*
X14941875Y-9887500D01*
X15001875Y-9947500D01*
X15001875Y-11852500D02*
X15061875Y-11792500D01*
X15001875Y-11732500D01*
X14941875Y-11792500D01*
X15001875Y-11852500D01*
X15501875Y-6347500D02*
X15561875Y-6287500D01*
X15501875Y-6227500D01*
X15441875Y-6287500D01*
X15501875Y-6347500D01*
X15501875Y-8252500D02*
X15561875Y-8192500D01*
X15501875Y-8132500D01*
X15441875Y-8192500D01*
X15501875Y-8252500D01*
X15501875Y-10157500D02*
X15561875Y-10097500D01*
X15501875Y-10037500D01*
X15441875Y-10097500D01*
X15501875Y-10157500D01*
X15501875Y-12062500D02*
X15561875Y-12002500D01*
X15501875Y-11942500D01*
X15441875Y-12002500D01*
X15501875Y-12062500D01*
X16906392Y-17071939D02*
X16966392Y-17011939D01*
X16906392Y-16951939D01*
X16846392Y-17011939D01*
X16906392Y-17071939D01*
X16906875Y-6137500D02*
X16966875Y-6077500D01*
X16906875Y-6017500D01*
X16846875Y-6077500D01*
X16906875Y-6137500D01*
X16906875Y-8042500D02*
X16966875Y-7982500D01*
X16906875Y-7922500D01*
X16846875Y-7982500D01*
X16906875Y-8042500D01*
X16906875Y-9947500D02*
X16966875Y-9887500D01*
X16906875Y-9827500D01*
X16846875Y-9887500D01*
X16906875Y-9947500D01*
X16906875Y-11852500D02*
X16966875Y-11792500D01*
X16906875Y-11732500D01*
X16846875Y-11792500D01*
X16906875Y-11852500D01*
X17238646Y-16643328D02*
X17298646Y-16583328D01*
X17238646Y-16523328D01*
X17178646Y-16583328D01*
X17238646Y-16643328D01*
X17406875Y-6347500D02*
X17466875Y-6287500D01*
X17406875Y-6227500D01*
X17346875Y-6287500D01*
X17406875Y-6347500D01*
X17406875Y-8252500D02*
X17466875Y-8192500D01*
X17406875Y-8132500D01*
X17346875Y-8192500D01*
X17406875Y-8252500D01*
X17406875Y-10157500D02*
X17466875Y-10097500D01*
X17406875Y-10037500D01*
X17346875Y-10097500D01*
X17406875Y-10157500D01*
X17406875Y-12062500D02*
X17466875Y-12002500D01*
X17406875Y-11942500D01*
X17346875Y-12002500D01*
X17406875Y-12062500D01*
X18003854Y-16814172D02*
X18063854Y-16754172D01*
X18003854Y-16694172D01*
X17943854Y-16754172D01*
X18003854Y-16814172D01*
X18336108Y-16385561D02*
X18396108Y-16325561D01*
X18336108Y-16265561D01*
X18276108Y-16325561D01*
X18336108Y-16385561D01*
X22403961Y-17351487D02*
X22463961Y-17291487D01*
X22403961Y-17231487D01*
X22343961Y-17291487D01*
X22403961Y-17351487D01*
X22477396Y-16814172D02*
X22537396Y-16754172D01*
X22477396Y-16694172D01*
X22417396Y-16754172D01*
X22477396Y-16814172D01*
X23242604Y-16643328D02*
X23302604Y-16583328D01*
X23242604Y-16523328D01*
X23182604Y-16583328D01*
X23242604Y-16643328D01*
X23316039Y-16106013D02*
X23376039Y-16046013D01*
X23316039Y-15986013D01*
X23256039Y-16046013D01*
X23316039Y-16106013D01*
X23574375Y-6137500D02*
X23634375Y-6077500D01*
X23574375Y-6017500D01*
X23514375Y-6077500D01*
X23574375Y-6137500D01*
X23574375Y-8042500D02*
X23634375Y-7982500D01*
X23574375Y-7922500D01*
X23514375Y-7982500D01*
X23574375Y-8042500D01*
X23574375Y-9947500D02*
X23634375Y-9887500D01*
X23574375Y-9827500D01*
X23514375Y-9887500D01*
X23574375Y-9947500D01*
X23574375Y-11852500D02*
X23634375Y-11792500D01*
X23574375Y-11732500D01*
X23514375Y-11792500D01*
X23574375Y-11852500D01*
X24074375Y-6347500D02*
X24134375Y-6287500D01*
X24074375Y-6227500D01*
X24014375Y-6287500D01*
X24074375Y-6347500D01*
X24074375Y-8252500D02*
X24134375Y-8192500D01*
X24074375Y-8132500D01*
X24014375Y-8192500D01*
X24074375Y-8252500D01*
X24074375Y-10157500D02*
X24134375Y-10097500D01*
X24074375Y-10037500D01*
X24014375Y-10097500D01*
X24074375Y-10157500D01*
X24074375Y-12062500D02*
X24134375Y-12002500D01*
X24074375Y-11942500D01*
X24014375Y-12002500D01*
X24074375Y-12062500D01*
X25479375Y-6137500D02*
X25539375Y-6077500D01*
X25479375Y-6017500D01*
X25419375Y-6077500D01*
X25479375Y-6137500D01*
X25479375Y-8042500D02*
X25539375Y-7982500D01*
X25479375Y-7922500D01*
X25419375Y-7982500D01*
X25479375Y-8042500D01*
X25479375Y-9947500D02*
X25539375Y-9887500D01*
X25479375Y-9827500D01*
X25419375Y-9887500D01*
X25479375Y-9947500D01*
X25479375Y-11852500D02*
X25539375Y-11792500D01*
X25479375Y-11732500D01*
X25419375Y-11792500D01*
X25479375Y-11852500D01*
X25979375Y-6347500D02*
X26039375Y-6287500D01*
X25979375Y-6227500D01*
X25919375Y-6287500D01*
X25979375Y-6347500D01*
X25979375Y-8252500D02*
X26039375Y-8192500D01*
X25979375Y-8132500D01*
X25919375Y-8192500D01*
X25979375Y-8252500D01*
X25979375Y-10157500D02*
X26039375Y-10097500D01*
X25979375Y-10037500D01*
X25919375Y-10097500D01*
X25979375Y-10157500D01*
X25979375Y-12062500D02*
X26039375Y-12002500D01*
X25979375Y-11942500D01*
X25919375Y-12002500D01*
X25979375Y-12062500D01*
X26193750Y-13757500D02*
X26253750Y-13697500D01*
X26193750Y-13637500D01*
X26133750Y-13697500D01*
X26193750Y-13757500D01*
X26693750Y-13967500D02*
X26753750Y-13907500D01*
X26693750Y-13847500D01*
X26633750Y-13907500D01*
X26693750Y-13967500D01*
X27384375Y-6137500D02*
X27444375Y-6077500D01*
X27384375Y-6017500D01*
X27324375Y-6077500D01*
X27384375Y-6137500D01*
X27384375Y-8042500D02*
X27444375Y-7982500D01*
X27384375Y-7922500D01*
X27324375Y-7982500D01*
X27384375Y-8042500D01*
X27384375Y-9947500D02*
X27444375Y-9887500D01*
X27384375Y-9827500D01*
X27324375Y-9887500D01*
X27384375Y-9947500D01*
X27384375Y-11852500D02*
X27444375Y-11792500D01*
X27384375Y-11732500D01*
X27324375Y-11792500D01*
X27384375Y-11852500D01*
X27884375Y-6347500D02*
X27944375Y-6287500D01*
X27884375Y-6227500D01*
X27824375Y-6287500D01*
X27884375Y-6347500D01*
X27884375Y-8252500D02*
X27944375Y-8192500D01*
X27884375Y-8132500D01*
X27824375Y-8192500D01*
X27884375Y-8252500D01*
X27884375Y-10157500D02*
X27944375Y-10097500D01*
X27884375Y-10037500D01*
X27824375Y-10097500D01*
X27884375Y-10157500D01*
X27884375Y-12062500D02*
X27944375Y-12002500D01*
X27884375Y-11942500D01*
X27824375Y-12002500D01*
X27884375Y-12062500D01*
X28575000Y-13757500D02*
X28635000Y-13697500D01*
X28575000Y-13637500D01*
X28515000Y-13697500D01*
X28575000Y-13757500D01*
X29075000Y-13967500D02*
X29135000Y-13907500D01*
X29075000Y-13847500D01*
X29015000Y-13907500D01*
X29075000Y-13967500D01*
X29289375Y-6137500D02*
X29349375Y-6077500D01*
X29289375Y-6017500D01*
X29229375Y-6077500D01*
X29289375Y-6137500D01*
X29289375Y-8042500D02*
X29349375Y-7982500D01*
X29289375Y-7922500D01*
X29229375Y-7982500D01*
X29289375Y-8042500D01*
X29289375Y-9947500D02*
X29349375Y-9887500D01*
X29289375Y-9827500D01*
X29229375Y-9887500D01*
X29289375Y-9947500D01*
X29289375Y-11852500D02*
X29349375Y-11792500D01*
X29289375Y-11732500D01*
X29229375Y-11792500D01*
X29289375Y-11852500D01*
X29789375Y-6347500D02*
X29849375Y-6287500D01*
X29789375Y-6227500D01*
X29729375Y-6287500D01*
X29789375Y-6347500D01*
X29789375Y-8252500D02*
X29849375Y-8192500D01*
X29789375Y-8132500D01*
X29729375Y-8192500D01*
X29789375Y-8252500D01*
X29789375Y-10157500D02*
X29849375Y-10097500D01*
X29789375Y-10037500D01*
X29729375Y-10097500D01*
X29789375Y-10157500D01*
X29789375Y-12062500D02*
X29849375Y-12002500D01*
X29789375Y-11942500D01*
X29729375Y-12002500D01*
X29789375Y-12062500D01*
X30956250Y-13757500D02*
X31016250Y-13697500D01*
X30956250Y-13637500D01*
X30896250Y-13697500D01*
X30956250Y-13757500D01*
X31194375Y-6137500D02*
X31254375Y-6077500D01*
X31194375Y-6017500D01*
X31134375Y-6077500D01*
X31194375Y-6137500D01*
X31194375Y-8042500D02*
X31254375Y-7982500D01*
X31194375Y-7922500D01*
X31134375Y-7982500D01*
X31194375Y-8042500D01*
X31194375Y-9947500D02*
X31254375Y-9887500D01*
X31194375Y-9827500D01*
X31134375Y-9887500D01*
X31194375Y-9947500D01*
X31194375Y-11852500D02*
X31254375Y-11792500D01*
X31194375Y-11732500D01*
X31134375Y-11792500D01*
X31194375Y-11852500D01*
X31456250Y-13967500D02*
X31516250Y-13907500D01*
X31456250Y-13847500D01*
X31396250Y-13907500D01*
X31456250Y-13967500D01*
X31694375Y-6347500D02*
X31754375Y-6287500D01*
X31694375Y-6227500D01*
X31634375Y-6287500D01*
X31694375Y-6347500D01*
X31694375Y-8252500D02*
X31754375Y-8192500D01*
X31694375Y-8132500D01*
X31634375Y-8192500D01*
X31694375Y-8252500D01*
X31694375Y-10157500D02*
X31754375Y-10097500D01*
X31694375Y-10037500D01*
X31634375Y-10097500D01*
X31694375Y-10157500D01*
X31694375Y-12062500D02*
X31754375Y-12002500D01*
X31694375Y-11942500D01*
X31634375Y-12002500D01*
X31694375Y-12062500D01*
X33099375Y-6137500D02*
X33159375Y-6077500D01*
X33099375Y-6017500D01*
X33039375Y-6077500D01*
X33099375Y-6137500D01*
X33099375Y-9947500D02*
X33159375Y-9887500D01*
X33099375Y-9827500D01*
X33039375Y-9887500D01*
X33099375Y-9947500D01*
X33575625Y-8042500D02*
X33635625Y-7982500D01*
X33575625Y-7922500D01*
X33515625Y-7982500D01*
X33575625Y-8042500D01*
X33599375Y-6347500D02*
X33659375Y-6287500D01*
X33599375Y-6227500D01*
X33539375Y-6287500D01*
X33599375Y-6347500D01*
X33599375Y-10157500D02*
X33659375Y-10097500D01*
X33599375Y-10037500D01*
X33539375Y-10097500D01*
X33599375Y-10157500D01*
X34051875Y-13757500D02*
X34111875Y-13697500D01*
X34051875Y-13637500D01*
X33991875Y-13697500D01*
X34051875Y-13757500D01*
X34075625Y-8252500D02*
X34135625Y-8192500D01*
X34075625Y-8132500D01*
X34015625Y-8192500D01*
X34075625Y-8252500D01*
X34551875Y-13967500D02*
X34611875Y-13907500D01*
X34551875Y-13847500D01*
X34491875Y-13907500D01*
X34551875Y-13967500D01*
X35004375Y-6137500D02*
X35064375Y-6077500D01*
X35004375Y-6017500D01*
X34944375Y-6077500D01*
X35004375Y-6137500D01*
X35504375Y-6347500D02*
X35564375Y-6287500D01*
X35504375Y-6227500D01*
X35444375Y-6287500D01*
X35504375Y-6347500D01*
X35956875Y-8042500D02*
X36016875Y-7982500D01*
X35956875Y-7922500D01*
X35896875Y-7982500D01*
X35956875Y-8042500D01*
X35956875Y-11852500D02*
X36016875Y-11792500D01*
X35956875Y-11732500D01*
X35896875Y-11792500D01*
X35956875Y-11852500D01*
X35956875Y-13757500D02*
X36016875Y-13697500D01*
X35956875Y-13637500D01*
X35896875Y-13697500D01*
X35956875Y-13757500D01*
X36195000Y-9947500D02*
X36255000Y-9887500D01*
X36195000Y-9827500D01*
X36135000Y-9887500D01*
X36195000Y-9947500D01*
X36456875Y-8252500D02*
X36516875Y-8192500D01*
X36456875Y-8132500D01*
X36396875Y-8192500D01*
X36456875Y-8252500D01*
X36456875Y-12062500D02*
X36516875Y-12002500D01*
X36456875Y-11942500D01*
X36396875Y-12002500D01*
X36456875Y-12062500D01*
X36456875Y-13967500D02*
X36516875Y-13907500D01*
X36456875Y-13847500D01*
X36396875Y-13907500D01*
X36456875Y-13967500D01*
X36695000Y-10157500D02*
X36755000Y-10097500D01*
X36695000Y-10037500D01*
X36635000Y-10097500D01*
X36695000Y-10157500D01*
X36909375Y-6137500D02*
X36969375Y-6077500D01*
X36909375Y-6017500D01*
X36849375Y-6077500D01*
X36909375Y-6137500D01*
X37409375Y-6347500D02*
X37469375Y-6287500D01*
X37409375Y-6227500D01*
X37349375Y-6287500D01*
X37409375Y-6347500D01*
X37861875Y-8042500D02*
X37921875Y-7982500D01*
X37861875Y-7922500D01*
X37801875Y-7982500D01*
X37861875Y-8042500D01*
X37861875Y-13757500D02*
X37921875Y-13697500D01*
X37861875Y-13637500D01*
X37801875Y-13697500D01*
X37861875Y-13757500D01*
X38361875Y-8252500D02*
X38421875Y-8192500D01*
X38361875Y-8132500D01*
X38301875Y-8192500D01*
X38361875Y-8252500D01*
X38361875Y-13967500D02*
X38421875Y-13907500D01*
X38361875Y-13847500D01*
X38301875Y-13907500D01*
X38361875Y-13967500D01*
D17*
X2991875Y-10912500D02*
X3151875Y-11072500D01*
X3151875Y-10912500D02*
X2991875Y-11072500D01*
X3151875Y-10992500D02*
G75*
G03*
X3151875Y-10992500I-80000J0D01*
G01*
X3468125Y-9007500D02*
X3628125Y-9167500D01*
X3628125Y-9007500D02*
X3468125Y-9167500D01*
X3628125Y-9087500D02*
G75*
G03*
X3628125Y-9087500I-80000J0D01*
G01*
X3944375Y-7102500D02*
X4104375Y-7262500D01*
X4104375Y-7102500D02*
X3944375Y-7262500D01*
X4104375Y-7182500D02*
G75*
G03*
X4104375Y-7182500I-80000J0D01*
G01*
X5611250Y-12817500D02*
X5771250Y-12977500D01*
X5771250Y-12817500D02*
X5611250Y-12977500D01*
X5771250Y-12897500D02*
G75*
G03*
X5771250Y-12897500I-80000J0D01*
G01*
X5611250Y-14722500D02*
X5771250Y-14882500D01*
X5771250Y-14722500D02*
X5611250Y-14882500D01*
X5771250Y-14802500D02*
G75*
G03*
X5771250Y-14802500I-80000J0D01*
G01*
X6087500Y-10912500D02*
X6247500Y-11072500D01*
X6247500Y-10912500D02*
X6087500Y-11072500D01*
X6247500Y-10992500D02*
G75*
G03*
X6247500Y-10992500I-80000J0D01*
G01*
X6325625Y-7102500D02*
X6485625Y-7262500D01*
X6485625Y-7102500D02*
X6325625Y-7262500D01*
X6485625Y-7182500D02*
G75*
G03*
X6485625Y-7182500I-80000J0D01*
G01*
X6325625Y-9007500D02*
X6485625Y-9167500D01*
X6485625Y-9007500D02*
X6325625Y-9167500D01*
X6485625Y-9087500D02*
G75*
G03*
X6485625Y-9087500I-80000J0D01*
G01*
X7992500Y-14722500D02*
X8152500Y-14882500D01*
X8152500Y-14722500D02*
X7992500Y-14882500D01*
X8152500Y-14802500D02*
G75*
G03*
X8152500Y-14802500I-80000J0D01*
G01*
X8706875Y-7102500D02*
X8866875Y-7262500D01*
X8866875Y-7102500D02*
X8706875Y-7262500D01*
X8866875Y-7182500D02*
G75*
G03*
X8866875Y-7182500I-80000J0D01*
G01*
X8706875Y-9007500D02*
X8866875Y-9167500D01*
X8866875Y-9007500D02*
X8706875Y-9167500D01*
X8866875Y-9087500D02*
G75*
G03*
X8866875Y-9087500I-80000J0D01*
G01*
X8706875Y-10912500D02*
X8866875Y-11072500D01*
X8866875Y-10912500D02*
X8706875Y-11072500D01*
X8866875Y-10992500D02*
G75*
G03*
X8866875Y-10992500I-80000J0D01*
G01*
X8706875Y-12817500D02*
X8866875Y-12977500D01*
X8866875Y-12817500D02*
X8706875Y-12977500D01*
X8866875Y-12897500D02*
G75*
G03*
X8866875Y-12897500I-80000J0D01*
G01*
X10373750Y-14722500D02*
X10533750Y-14882500D01*
X10533750Y-14722500D02*
X10373750Y-14882500D01*
X10533750Y-14802500D02*
G75*
G03*
X10533750Y-14802500I-80000J0D01*
G01*
X10611875Y-7102500D02*
X10771875Y-7262500D01*
X10771875Y-7102500D02*
X10611875Y-7262500D01*
X10771875Y-7182500D02*
G75*
G03*
X10771875Y-7182500I-80000J0D01*
G01*
X10611875Y-9007500D02*
X10771875Y-9167500D01*
X10771875Y-9007500D02*
X10611875Y-9167500D01*
X10771875Y-9087500D02*
G75*
G03*
X10771875Y-9087500I-80000J0D01*
G01*
X10611875Y-10912500D02*
X10771875Y-11072500D01*
X10771875Y-10912500D02*
X10611875Y-11072500D01*
X10771875Y-10992500D02*
G75*
G03*
X10771875Y-10992500I-80000J0D01*
G01*
X10611875Y-12817500D02*
X10771875Y-12977500D01*
X10771875Y-12817500D02*
X10611875Y-12977500D01*
X10771875Y-12897500D02*
G75*
G03*
X10771875Y-12897500I-80000J0D01*
G01*
X12516875Y-7102500D02*
X12676875Y-7262500D01*
X12676875Y-7102500D02*
X12516875Y-7262500D01*
X12676875Y-7182500D02*
G75*
G03*
X12676875Y-7182500I-80000J0D01*
G01*
X12516875Y-9007500D02*
X12676875Y-9167500D01*
X12676875Y-9007500D02*
X12516875Y-9167500D01*
X12676875Y-9087500D02*
G75*
G03*
X12676875Y-9087500I-80000J0D01*
G01*
X12516875Y-10912500D02*
X12676875Y-11072500D01*
X12676875Y-10912500D02*
X12516875Y-11072500D01*
X12676875Y-10992500D02*
G75*
G03*
X12676875Y-10992500I-80000J0D01*
G01*
X12516875Y-12817500D02*
X12676875Y-12977500D01*
X12676875Y-12817500D02*
X12516875Y-12977500D01*
X12676875Y-12897500D02*
G75*
G03*
X12676875Y-12897500I-80000J0D01*
G01*
X13707500Y-14722500D02*
X13867500Y-14882500D01*
X13867500Y-14722500D02*
X13707500Y-14882500D01*
X13867500Y-14802500D02*
G75*
G03*
X13867500Y-14802500I-80000J0D01*
G01*
X14421875Y-7102500D02*
X14581875Y-7262500D01*
X14581875Y-7102500D02*
X14421875Y-7262500D01*
X14581875Y-7182500D02*
G75*
G03*
X14581875Y-7182500I-80000J0D01*
G01*
X14421875Y-9007500D02*
X14581875Y-9167500D01*
X14581875Y-9007500D02*
X14421875Y-9167500D01*
X14581875Y-9087500D02*
G75*
G03*
X14581875Y-9087500I-80000J0D01*
G01*
X14421875Y-10912500D02*
X14581875Y-11072500D01*
X14581875Y-10912500D02*
X14421875Y-11072500D01*
X14581875Y-10992500D02*
G75*
G03*
X14581875Y-10992500I-80000J0D01*
G01*
X14421875Y-12817500D02*
X14581875Y-12977500D01*
X14581875Y-12817500D02*
X14421875Y-12977500D01*
X14581875Y-12897500D02*
G75*
G03*
X14581875Y-12897500I-80000J0D01*
G01*
X16220708Y-15734370D02*
X16380708Y-15894370D01*
X16380708Y-15734370D02*
X16220708Y-15894370D01*
X16380708Y-15814370D02*
G75*
G03*
X16380708Y-15814370I-80000J0D01*
G01*
X16326875Y-7102500D02*
X16486875Y-7262500D01*
X16486875Y-7102500D02*
X16326875Y-7262500D01*
X16486875Y-7182500D02*
G75*
G03*
X16486875Y-7182500I-80000J0D01*
G01*
X16326875Y-9007500D02*
X16486875Y-9167500D01*
X16486875Y-9007500D02*
X16326875Y-9167500D01*
X16486875Y-9087500D02*
G75*
G03*
X16486875Y-9087500I-80000J0D01*
G01*
X16326875Y-10912500D02*
X16486875Y-11072500D01*
X16486875Y-10912500D02*
X16326875Y-11072500D01*
X16486875Y-10992500D02*
G75*
G03*
X16486875Y-10992500I-80000J0D01*
G01*
X16326875Y-12817500D02*
X16486875Y-12977500D01*
X16486875Y-12817500D02*
X16326875Y-12977500D01*
X16486875Y-12897500D02*
G75*
G03*
X16486875Y-12897500I-80000J0D01*
G01*
X18861792Y-17443130D02*
X19021792Y-17603130D01*
X19021792Y-17443130D02*
X18861792Y-17603130D01*
X19021792Y-17523130D02*
G75*
G03*
X19021792Y-17523130I-80000J0D01*
G01*
X21200639Y-16477204D02*
X21360639Y-16637204D01*
X21360639Y-16477204D02*
X21200639Y-16637204D01*
X21360639Y-16557204D02*
G75*
G03*
X21360639Y-16557204I-80000J0D01*
G01*
X22994375Y-7102500D02*
X23154375Y-7262500D01*
X23154375Y-7102500D02*
X22994375Y-7262500D01*
X23154375Y-7182500D02*
G75*
G03*
X23154375Y-7182500I-80000J0D01*
G01*
X22994375Y-9007500D02*
X23154375Y-9167500D01*
X23154375Y-9007500D02*
X22994375Y-9167500D01*
X23154375Y-9087500D02*
G75*
G03*
X23154375Y-9087500I-80000J0D01*
G01*
X22994375Y-10912500D02*
X23154375Y-11072500D01*
X23154375Y-10912500D02*
X22994375Y-11072500D01*
X23154375Y-10992500D02*
G75*
G03*
X23154375Y-10992500I-80000J0D01*
G01*
X22994375Y-12817500D02*
X23154375Y-12977500D01*
X23154375Y-12817500D02*
X22994375Y-12977500D01*
X23154375Y-12897500D02*
G75*
G03*
X23154375Y-12897500I-80000J0D01*
G01*
X24359361Y-16700296D02*
X24519361Y-16860296D01*
X24519361Y-16700296D02*
X24359361Y-16860296D01*
X24519361Y-16780296D02*
G75*
G03*
X24519361Y-16780296I-80000J0D01*
G01*
X24899375Y-7102500D02*
X25059375Y-7262500D01*
X25059375Y-7102500D02*
X24899375Y-7262500D01*
X25059375Y-7182500D02*
G75*
G03*
X25059375Y-7182500I-80000J0D01*
G01*
X24899375Y-9007500D02*
X25059375Y-9167500D01*
X25059375Y-9007500D02*
X24899375Y-9167500D01*
X25059375Y-9087500D02*
G75*
G03*
X25059375Y-9087500I-80000J0D01*
G01*
X24899375Y-10912500D02*
X25059375Y-11072500D01*
X25059375Y-10912500D02*
X24899375Y-11072500D01*
X25059375Y-10992500D02*
G75*
G03*
X25059375Y-10992500I-80000J0D01*
G01*
X24899375Y-12817500D02*
X25059375Y-12977500D01*
X25059375Y-12817500D02*
X24899375Y-12977500D01*
X25059375Y-12897500D02*
G75*
G03*
X25059375Y-12897500I-80000J0D01*
G01*
X25613750Y-14722500D02*
X25773750Y-14882500D01*
X25773750Y-14722500D02*
X25613750Y-14882500D01*
X25773750Y-14802500D02*
G75*
G03*
X25773750Y-14802500I-80000J0D01*
G01*
X26804375Y-7102500D02*
X26964375Y-7262500D01*
X26964375Y-7102500D02*
X26804375Y-7262500D01*
X26964375Y-7182500D02*
G75*
G03*
X26964375Y-7182500I-80000J0D01*
G01*
X26804375Y-9007500D02*
X26964375Y-9167500D01*
X26964375Y-9007500D02*
X26804375Y-9167500D01*
X26964375Y-9087500D02*
G75*
G03*
X26964375Y-9087500I-80000J0D01*
G01*
X26804375Y-10912500D02*
X26964375Y-11072500D01*
X26964375Y-10912500D02*
X26804375Y-11072500D01*
X26964375Y-10992500D02*
G75*
G03*
X26964375Y-10992500I-80000J0D01*
G01*
X26804375Y-12817500D02*
X26964375Y-12977500D01*
X26964375Y-12817500D02*
X26804375Y-12977500D01*
X26964375Y-12897500D02*
G75*
G03*
X26964375Y-12897500I-80000J0D01*
G01*
X27995000Y-14722500D02*
X28155000Y-14882500D01*
X28155000Y-14722500D02*
X27995000Y-14882500D01*
X28155000Y-14802500D02*
G75*
G03*
X28155000Y-14802500I-80000J0D01*
G01*
X28709375Y-7102500D02*
X28869375Y-7262500D01*
X28869375Y-7102500D02*
X28709375Y-7262500D01*
X28869375Y-7182500D02*
G75*
G03*
X28869375Y-7182500I-80000J0D01*
G01*
X28709375Y-9007500D02*
X28869375Y-9167500D01*
X28869375Y-9007500D02*
X28709375Y-9167500D01*
X28869375Y-9087500D02*
G75*
G03*
X28869375Y-9087500I-80000J0D01*
G01*
X28709375Y-10912500D02*
X28869375Y-11072500D01*
X28869375Y-10912500D02*
X28709375Y-11072500D01*
X28869375Y-10992500D02*
G75*
G03*
X28869375Y-10992500I-80000J0D01*
G01*
X28709375Y-12817500D02*
X28869375Y-12977500D01*
X28869375Y-12817500D02*
X28709375Y-12977500D01*
X28869375Y-12897500D02*
G75*
G03*
X28869375Y-12897500I-80000J0D01*
G01*
X30376250Y-14722500D02*
X30536250Y-14882500D01*
X30536250Y-14722500D02*
X30376250Y-14882500D01*
X30536250Y-14802500D02*
G75*
G03*
X30536250Y-14802500I-80000J0D01*
G01*
X30614375Y-7102500D02*
X30774375Y-7262500D01*
X30774375Y-7102500D02*
X30614375Y-7262500D01*
X30774375Y-7182500D02*
G75*
G03*
X30774375Y-7182500I-80000J0D01*
G01*
X30614375Y-9007500D02*
X30774375Y-9167500D01*
X30774375Y-9007500D02*
X30614375Y-9167500D01*
X30774375Y-9087500D02*
G75*
G03*
X30774375Y-9087500I-80000J0D01*
G01*
X30614375Y-10912500D02*
X30774375Y-11072500D01*
X30774375Y-10912500D02*
X30614375Y-11072500D01*
X30774375Y-10992500D02*
G75*
G03*
X30774375Y-10992500I-80000J0D01*
G01*
X30614375Y-12817500D02*
X30774375Y-12977500D01*
X30774375Y-12817500D02*
X30614375Y-12977500D01*
X30774375Y-12897500D02*
G75*
G03*
X30774375Y-12897500I-80000J0D01*
G01*
X32519375Y-7102500D02*
X32679375Y-7262500D01*
X32679375Y-7102500D02*
X32519375Y-7262500D01*
X32679375Y-7182500D02*
G75*
G03*
X32679375Y-7182500I-80000J0D01*
G01*
X32519375Y-10912500D02*
X32679375Y-11072500D01*
X32679375Y-10912500D02*
X32519375Y-11072500D01*
X32679375Y-10992500D02*
G75*
G03*
X32679375Y-10992500I-80000J0D01*
G01*
X32995625Y-9007500D02*
X33155625Y-9167500D01*
X33155625Y-9007500D02*
X32995625Y-9167500D01*
X33155625Y-9087500D02*
G75*
G03*
X33155625Y-9087500I-80000J0D01*
G01*
X33471875Y-14722500D02*
X33631875Y-14882500D01*
X33631875Y-14722500D02*
X33471875Y-14882500D01*
X33631875Y-14802500D02*
G75*
G03*
X33631875Y-14802500I-80000J0D01*
G01*
X34424375Y-7102500D02*
X34584375Y-7262500D01*
X34584375Y-7102500D02*
X34424375Y-7262500D01*
X34584375Y-7182500D02*
G75*
G03*
X34584375Y-7182500I-80000J0D01*
G01*
X35376875Y-9007500D02*
X35536875Y-9167500D01*
X35536875Y-9007500D02*
X35376875Y-9167500D01*
X35536875Y-9087500D02*
G75*
G03*
X35536875Y-9087500I-80000J0D01*
G01*
X35376875Y-12817500D02*
X35536875Y-12977500D01*
X35536875Y-12817500D02*
X35376875Y-12977500D01*
X35536875Y-12897500D02*
G75*
G03*
X35536875Y-12897500I-80000J0D01*
G01*
X35376875Y-14722500D02*
X35536875Y-14882500D01*
X35536875Y-14722500D02*
X35376875Y-14882500D01*
X35536875Y-14802500D02*
G75*
G03*
X35536875Y-14802500I-80000J0D01*
G01*
X35615000Y-10912500D02*
X35775000Y-11072500D01*
X35775000Y-10912500D02*
X35615000Y-11072500D01*
X35775000Y-10992500D02*
G75*
G03*
X35775000Y-10992500I-80000J0D01*
G01*
X36329375Y-7102500D02*
X36489375Y-7262500D01*
X36489375Y-7102500D02*
X36329375Y-7262500D01*
X36489375Y-7182500D02*
G75*
G03*
X36489375Y-7182500I-80000J0D01*
G01*
X37281875Y-9007500D02*
X37441875Y-9167500D01*
X37441875Y-9007500D02*
X37281875Y-9167500D01*
X37441875Y-9087500D02*
G75*
G03*
X37441875Y-9087500I-80000J0D01*
G01*
X37281875Y-14722500D02*
X37441875Y-14882500D01*
X37441875Y-14722500D02*
X37281875Y-14882500D01*
X37441875Y-14802500D02*
G75*
G03*
X37441875Y-14802500I-80000J0D01*
G01*
D18*
X2960000Y-6060000D02*
X3240000Y-6340000D01*
X3240000Y-6060000D02*
X2960000Y-6340000D01*
X3100000Y-6060000D02*
X3100000Y-6340000D01*
X2960000Y-6200000D02*
X3240000Y-6200000D01*
X2960000Y-6060000D02*
X3240000Y-6340000D01*
X3240000Y-6060000D02*
X2960000Y-6340000D01*
X3100000Y-6060000D02*
X3100000Y-6340000D01*
X2960000Y-6200000D02*
X3240000Y-6200000D01*
X2960000Y-14560000D02*
X3240000Y-14840000D01*
X3240000Y-14560000D02*
X2960000Y-14840000D01*
X3100000Y-14560000D02*
X3100000Y-14840000D01*
X2960000Y-14700000D02*
X3240000Y-14700000D01*
X2960000Y-14560000D02*
X3240000Y-14840000D01*
X3240000Y-14560000D02*
X2960000Y-14840000D01*
X3100000Y-14560000D02*
X3100000Y-14840000D01*
X2960000Y-14700000D02*
X3240000Y-14700000D01*
X12460000Y-14560000D02*
X12740000Y-14840000D01*
X12740000Y-14560000D02*
X12460000Y-14840000D01*
X12600000Y-14560000D02*
X12600000Y-14840000D01*
X12460000Y-14700000D02*
X12740000Y-14700000D01*
X12460000Y-14560000D02*
X12740000Y-14840000D01*
X12740000Y-14560000D02*
X12460000Y-14840000D01*
X12600000Y-14560000D02*
X12600000Y-14840000D01*
X12460000Y-14700000D02*
X12740000Y-14700000D01*
X16160000Y-18160000D02*
X16440000Y-18440000D01*
X16440000Y-18160000D02*
X16160000Y-18440000D01*
X16300000Y-18160000D02*
X16300000Y-18440000D01*
X16160000Y-18300000D02*
X16440000Y-18300000D01*
X16160000Y-18160000D02*
X16440000Y-18440000D01*
X16440000Y-18160000D02*
X16160000Y-18440000D01*
X16300000Y-18160000D02*
X16300000Y-18440000D01*
X16160000Y-18300000D02*
X16440000Y-18300000D01*
X17910000Y-6060000D02*
X18190000Y-6340000D01*
X18190000Y-6060000D02*
X17910000Y-6340000D01*
X18050000Y-6060000D02*
X18050000Y-6340000D01*
X17910000Y-6200000D02*
X18190000Y-6200000D01*
X17910000Y-6060000D02*
X18190000Y-6340000D01*
X18190000Y-6060000D02*
X17910000Y-6340000D01*
X18050000Y-6060000D02*
X18050000Y-6340000D01*
X17910000Y-6200000D02*
X18190000Y-6200000D01*
X18350000Y-13340000D02*
X18630000Y-13620000D01*
X18630000Y-13340000D02*
X18350000Y-13620000D01*
X18490000Y-13340000D02*
X18490000Y-13620000D01*
X18350000Y-13480000D02*
X18630000Y-13480000D01*
X18350000Y-13340000D02*
X18630000Y-13620000D01*
X18630000Y-13340000D02*
X18350000Y-13620000D01*
X18490000Y-13340000D02*
X18490000Y-13620000D01*
X18350000Y-13480000D02*
X18630000Y-13480000D01*
X18360000Y-7200000D02*
X18640000Y-7480000D01*
X18640000Y-7200000D02*
X18360000Y-7480000D01*
X18500000Y-7200000D02*
X18500000Y-7480000D01*
X18360000Y-7340000D02*
X18640000Y-7340000D01*
X18360000Y-7200000D02*
X18640000Y-7480000D01*
X18640000Y-7200000D02*
X18360000Y-7480000D01*
X18500000Y-7200000D02*
X18500000Y-7480000D01*
X18360000Y-7340000D02*
X18640000Y-7340000D01*
X21860000Y-7200000D02*
X22140000Y-7480000D01*
X22140000Y-7200000D02*
X21860000Y-7480000D01*
X22000000Y-7200000D02*
X22000000Y-7480000D01*
X21860000Y-7340000D02*
X22140000Y-7340000D01*
X21860000Y-7200000D02*
X22140000Y-7480000D01*
X22140000Y-7200000D02*
X21860000Y-7480000D01*
X22000000Y-7200000D02*
X22000000Y-7480000D01*
X21860000Y-7340000D02*
X22140000Y-7340000D01*
X21870000Y-13340000D02*
X22150000Y-13620000D01*
X22150000Y-13340000D02*
X21870000Y-13620000D01*
X22010000Y-13340000D02*
X22010000Y-13620000D01*
X21870000Y-13480000D02*
X22150000Y-13480000D01*
X21870000Y-13340000D02*
X22150000Y-13620000D01*
X22150000Y-13340000D02*
X21870000Y-13620000D01*
X22010000Y-13340000D02*
X22010000Y-13620000D01*
X21870000Y-13480000D02*
X22150000Y-13480000D01*
X22310000Y-6060000D02*
X22590000Y-6340000D01*
X22590000Y-6060000D02*
X22310000Y-6340000D01*
X22450000Y-6060000D02*
X22450000Y-6340000D01*
X22310000Y-6200000D02*
X22590000Y-6200000D01*
X22310000Y-6060000D02*
X22590000Y-6340000D01*
X22590000Y-6060000D02*
X22310000Y-6340000D01*
X22450000Y-6060000D02*
X22450000Y-6340000D01*
X22310000Y-6200000D02*
X22590000Y-6200000D01*
X24060000Y-18160000D02*
X24340000Y-18440000D01*
X24340000Y-18160000D02*
X24060000Y-18440000D01*
X24200000Y-18160000D02*
X24200000Y-18440000D01*
X24060000Y-18300000D02*
X24340000Y-18300000D01*
X24060000Y-18160000D02*
X24340000Y-18440000D01*
X24340000Y-18160000D02*
X24060000Y-18440000D01*
X24200000Y-18160000D02*
X24200000Y-18440000D01*
X24060000Y-18300000D02*
X24340000Y-18300000D01*
X27260000Y-14560000D02*
X27540000Y-14840000D01*
X27540000Y-14560000D02*
X27260000Y-14840000D01*
X27400000Y-14560000D02*
X27400000Y-14840000D01*
X27260000Y-14700000D02*
X27540000Y-14700000D01*
X27260000Y-14560000D02*
X27540000Y-14840000D01*
X27540000Y-14560000D02*
X27260000Y-14840000D01*
X27400000Y-14560000D02*
X27400000Y-14840000D01*
X27260000Y-14700000D02*
X27540000Y-14700000D01*
X38260000Y-12660000D02*
X38540000Y-12940000D01*
X38540000Y-12660000D02*
X38260000Y-12940000D01*
X38400000Y-12660000D02*
X38400000Y-12940000D01*
X38260000Y-12800000D02*
X38540000Y-12800000D01*
X38260000Y-12660000D02*
X38540000Y-12940000D01*
X38540000Y-12660000D02*
X38260000Y-12940000D01*
X38400000Y-12660000D02*
X38400000Y-12940000D01*
X38260000Y-12800000D02*
X38540000Y-12800000D01*
X38360000Y-6060000D02*
X38640000Y-6340000D01*
X38640000Y-6060000D02*
X38360000Y-6340000D01*
X38500000Y-6060000D02*
X38500000Y-6340000D01*
X38360000Y-6200000D02*
X38640000Y-6200000D01*
X38360000Y-6060000D02*
X38640000Y-6340000D01*
X38640000Y-6060000D02*
X38360000Y-6340000D01*
X38500000Y-6060000D02*
X38500000Y-6340000D01*
X38360000Y-6200000D02*
X38640000Y-6200000D01*
D11*
X2855119Y-19212976D02*
X2855119Y-19012976D01*
X2902738Y-19012976D01*
X2931309Y-19022500D01*
X2950357Y-19041548D01*
X2959881Y-19060595D01*
X2969405Y-19098691D01*
X2969405Y-19127262D01*
X2959881Y-19165357D01*
X2950357Y-19184405D01*
X2931309Y-19203452D01*
X2902738Y-19212976D01*
X2855119Y-19212976D01*
X3055119Y-19212976D02*
X3055119Y-19079643D01*
X3055119Y-19117738D02*
X3064643Y-19098691D01*
X3074167Y-19089167D01*
X3093214Y-19079643D01*
X3112262Y-19079643D01*
X3178928Y-19212976D02*
X3178928Y-19079643D01*
X3178928Y-19012976D02*
X3169405Y-19022500D01*
X3178928Y-19032024D01*
X3188452Y-19022500D01*
X3178928Y-19012976D01*
X3178928Y-19032024D01*
X3302738Y-19212976D02*
X3283690Y-19203452D01*
X3274167Y-19184405D01*
X3274167Y-19012976D01*
X3407500Y-19212976D02*
X3388452Y-19203452D01*
X3378928Y-19184405D01*
X3378928Y-19012976D01*
X3636071Y-19212976D02*
X3636071Y-19012976D01*
X3702738Y-19155833D01*
X3769405Y-19012976D01*
X3769405Y-19212976D01*
X3950357Y-19212976D02*
X3950357Y-19108214D01*
X3940833Y-19089167D01*
X3921786Y-19079643D01*
X3883690Y-19079643D01*
X3864643Y-19089167D01*
X3950357Y-19203452D02*
X3931309Y-19212976D01*
X3883690Y-19212976D01*
X3864643Y-19203452D01*
X3855119Y-19184405D01*
X3855119Y-19165357D01*
X3864643Y-19146310D01*
X3883690Y-19136786D01*
X3931309Y-19136786D01*
X3950357Y-19127262D01*
X4045595Y-19079643D02*
X4045595Y-19279643D01*
X4045595Y-19089167D02*
X4064643Y-19079643D01*
X4102738Y-19079643D01*
X4121786Y-19089167D01*
X4131309Y-19098691D01*
X4140833Y-19117738D01*
X4140833Y-19174881D01*
X4131309Y-19193929D01*
X4121786Y-19203452D01*
X4102738Y-19212976D01*
X4064643Y-19212976D01*
X4045595Y-19203452D01*
X4226548Y-19193929D02*
X4236071Y-19203452D01*
X4226548Y-19212976D01*
X4217024Y-19203452D01*
X4226548Y-19193929D01*
X4226548Y-19212976D01*
X4226548Y-19089167D02*
X4236071Y-19098691D01*
X4226548Y-19108214D01*
X4217024Y-19098691D01*
X4226548Y-19089167D01*
X4226548Y-19108214D01*
D12*
X2577500Y-19532500D02*
X2597500Y-19552500D01*
X2597500Y-19532500D02*
X2577500Y-19552500D01*
D11*
X2893214Y-19432976D02*
X2912262Y-19432976D01*
X2931309Y-19442500D01*
X2940833Y-19452024D01*
X2950357Y-19471072D01*
X2959881Y-19509167D01*
X2959881Y-19556786D01*
X2950357Y-19594881D01*
X2940833Y-19613929D01*
X2931309Y-19623452D01*
X2912262Y-19632976D01*
X2893214Y-19632976D01*
X2874167Y-19623452D01*
X2864643Y-19613929D01*
X2855119Y-19594881D01*
X2845595Y-19556786D01*
X2845595Y-19509167D01*
X2855119Y-19471072D01*
X2864643Y-19452024D01*
X2874167Y-19442500D01*
X2893214Y-19432976D01*
X3045595Y-19613929D02*
X3055119Y-19623452D01*
X3045595Y-19632976D01*
X3036071Y-19623452D01*
X3045595Y-19613929D01*
X3045595Y-19632976D01*
X3131309Y-19452024D02*
X3140833Y-19442500D01*
X3159881Y-19432976D01*
X3207500Y-19432976D01*
X3226548Y-19442500D01*
X3236071Y-19452024D01*
X3245595Y-19471072D01*
X3245595Y-19490119D01*
X3236071Y-19518691D01*
X3121786Y-19632976D01*
X3245595Y-19632976D01*
X3369405Y-19432976D02*
X3388452Y-19432976D01*
X3407500Y-19442500D01*
X3417024Y-19452024D01*
X3426548Y-19471072D01*
X3436071Y-19509167D01*
X3436071Y-19556786D01*
X3426548Y-19594881D01*
X3417024Y-19613929D01*
X3407500Y-19623452D01*
X3388452Y-19632976D01*
X3369405Y-19632976D01*
X3350357Y-19623452D01*
X3340833Y-19613929D01*
X3331309Y-19594881D01*
X3321786Y-19556786D01*
X3321786Y-19509167D01*
X3331309Y-19471072D01*
X3340833Y-19452024D01*
X3350357Y-19442500D01*
X3369405Y-19432976D01*
X3559881Y-19432976D02*
X3578928Y-19432976D01*
X3597976Y-19442500D01*
X3607500Y-19452024D01*
X3617024Y-19471072D01*
X3626548Y-19509167D01*
X3626548Y-19556786D01*
X3617024Y-19594881D01*
X3607500Y-19613929D01*
X3597976Y-19623452D01*
X3578928Y-19632976D01*
X3559881Y-19632976D01*
X3540833Y-19623452D01*
X3531309Y-19613929D01*
X3521786Y-19594881D01*
X3512262Y-19556786D01*
X3512262Y-19509167D01*
X3521786Y-19471072D01*
X3531309Y-19452024D01*
X3540833Y-19442500D01*
X3559881Y-19432976D01*
X3712262Y-19632976D02*
X3712262Y-19499643D01*
X3712262Y-19518691D02*
X3721786Y-19509167D01*
X3740833Y-19499643D01*
X3769405Y-19499643D01*
X3788452Y-19509167D01*
X3797976Y-19528214D01*
X3797976Y-19632976D01*
X3797976Y-19528214D02*
X3807500Y-19509167D01*
X3826548Y-19499643D01*
X3855119Y-19499643D01*
X3874167Y-19509167D01*
X3883690Y-19528214D01*
X3883690Y-19632976D01*
X3978928Y-19632976D02*
X3978928Y-19499643D01*
X3978928Y-19518691D02*
X3988452Y-19509167D01*
X4007500Y-19499643D01*
X4036071Y-19499643D01*
X4055119Y-19509167D01*
X4064643Y-19528214D01*
X4064643Y-19632976D01*
X4064643Y-19528214D02*
X4074167Y-19509167D01*
X4093214Y-19499643D01*
X4121786Y-19499643D01*
X4140833Y-19509167D01*
X4150357Y-19528214D01*
X4150357Y-19632976D01*
X4540833Y-19423452D02*
X4369405Y-19680595D01*
X4797976Y-19432976D02*
X4817024Y-19432976D01*
X4836071Y-19442500D01*
X4845595Y-19452024D01*
X4855119Y-19471072D01*
X4864643Y-19509167D01*
X4864643Y-19556786D01*
X4855119Y-19594881D01*
X4845595Y-19613929D01*
X4836071Y-19623452D01*
X4817024Y-19632976D01*
X4797976Y-19632976D01*
X4778929Y-19623452D01*
X4769405Y-19613929D01*
X4759881Y-19594881D01*
X4750357Y-19556786D01*
X4750357Y-19509167D01*
X4759881Y-19471072D01*
X4769405Y-19452024D01*
X4778929Y-19442500D01*
X4797976Y-19432976D01*
X4950357Y-19613929D02*
X4959881Y-19623452D01*
X4950357Y-19632976D01*
X4940833Y-19623452D01*
X4950357Y-19613929D01*
X4950357Y-19632976D01*
X5083690Y-19432976D02*
X5102738Y-19432976D01*
X5121786Y-19442500D01*
X5131310Y-19452024D01*
X5140833Y-19471072D01*
X5150357Y-19509167D01*
X5150357Y-19556786D01*
X5140833Y-19594881D01*
X5131310Y-19613929D01*
X5121786Y-19623452D01*
X5102738Y-19632976D01*
X5083690Y-19632976D01*
X5064643Y-19623452D01*
X5055119Y-19613929D01*
X5045595Y-19594881D01*
X5036071Y-19556786D01*
X5036071Y-19509167D01*
X5045595Y-19471072D01*
X5055119Y-19452024D01*
X5064643Y-19442500D01*
X5083690Y-19432976D01*
X5274167Y-19432976D02*
X5293214Y-19432976D01*
X5312262Y-19442500D01*
X5321786Y-19452024D01*
X5331310Y-19471072D01*
X5340833Y-19509167D01*
X5340833Y-19556786D01*
X5331310Y-19594881D01*
X5321786Y-19613929D01*
X5312262Y-19623452D01*
X5293214Y-19632976D01*
X5274167Y-19632976D01*
X5255119Y-19623452D01*
X5245595Y-19613929D01*
X5236071Y-19594881D01*
X5226548Y-19556786D01*
X5226548Y-19509167D01*
X5236071Y-19471072D01*
X5245595Y-19452024D01*
X5255119Y-19442500D01*
X5274167Y-19432976D01*
X5407500Y-19432976D02*
X5540833Y-19432976D01*
X5455119Y-19632976D01*
X5626548Y-19632976D02*
X5664643Y-19632976D01*
X5683690Y-19623452D01*
X5693214Y-19613929D01*
X5712262Y-19585357D01*
X5721786Y-19547262D01*
X5721786Y-19471072D01*
X5712262Y-19452024D01*
X5702738Y-19442500D01*
X5683690Y-19432976D01*
X5645595Y-19432976D01*
X5626548Y-19442500D01*
X5617024Y-19452024D01*
X5607500Y-19471072D01*
X5607500Y-19518691D01*
X5617024Y-19537738D01*
X5626548Y-19547262D01*
X5645595Y-19556786D01*
X5683690Y-19556786D01*
X5702738Y-19547262D01*
X5712262Y-19537738D01*
X5721786Y-19518691D01*
X5797976Y-19432976D02*
X5797976Y-19471072D01*
X5874167Y-19432976D02*
X5874167Y-19471072D01*
X6169405Y-19709167D02*
X6159881Y-19699643D01*
X6140833Y-19671072D01*
X6131309Y-19652024D01*
X6121786Y-19623452D01*
X6112262Y-19575833D01*
X6112262Y-19537738D01*
X6121786Y-19490119D01*
X6131309Y-19461548D01*
X6140833Y-19442500D01*
X6159881Y-19413929D01*
X6169405Y-19404405D01*
X6226548Y-19432976D02*
X6350357Y-19432976D01*
X6283690Y-19509167D01*
X6312262Y-19509167D01*
X6331309Y-19518691D01*
X6340833Y-19528214D01*
X6350357Y-19547262D01*
X6350357Y-19594881D01*
X6340833Y-19613929D01*
X6331309Y-19623452D01*
X6312262Y-19632976D01*
X6255119Y-19632976D01*
X6236071Y-19623452D01*
X6226548Y-19613929D01*
X6417024Y-19432976D02*
X6540833Y-19432976D01*
X6474167Y-19509167D01*
X6502738Y-19509167D01*
X6521786Y-19518691D01*
X6531309Y-19528214D01*
X6540833Y-19547262D01*
X6540833Y-19594881D01*
X6531309Y-19613929D01*
X6521786Y-19623452D01*
X6502738Y-19632976D01*
X6445595Y-19632976D01*
X6426548Y-19623452D01*
X6417024Y-19613929D01*
X6778928Y-19632976D02*
X6778928Y-19432976D01*
X6864643Y-19632976D02*
X6864643Y-19528214D01*
X6855119Y-19509167D01*
X6836071Y-19499643D01*
X6807500Y-19499643D01*
X6788452Y-19509167D01*
X6778928Y-19518691D01*
X6988452Y-19632976D02*
X6969405Y-19623452D01*
X6959881Y-19613929D01*
X6950357Y-19594881D01*
X6950357Y-19537738D01*
X6959881Y-19518691D01*
X6969405Y-19509167D01*
X6988452Y-19499643D01*
X7017024Y-19499643D01*
X7036071Y-19509167D01*
X7045595Y-19518691D01*
X7055119Y-19537738D01*
X7055119Y-19594881D01*
X7045595Y-19613929D01*
X7036071Y-19623452D01*
X7017024Y-19632976D01*
X6988452Y-19632976D01*
X7169405Y-19632976D02*
X7150357Y-19623452D01*
X7140833Y-19604405D01*
X7140833Y-19432976D01*
X7321786Y-19623452D02*
X7302738Y-19632976D01*
X7264643Y-19632976D01*
X7245595Y-19623452D01*
X7236071Y-19604405D01*
X7236071Y-19528214D01*
X7245595Y-19509167D01*
X7264643Y-19499643D01*
X7302738Y-19499643D01*
X7321786Y-19509167D01*
X7331309Y-19528214D01*
X7331309Y-19547262D01*
X7236071Y-19566310D01*
X7407500Y-19623452D02*
X7426548Y-19632976D01*
X7464643Y-19632976D01*
X7483690Y-19623452D01*
X7493214Y-19604405D01*
X7493214Y-19594881D01*
X7483690Y-19575833D01*
X7464643Y-19566310D01*
X7436071Y-19566310D01*
X7417024Y-19556786D01*
X7407500Y-19537738D01*
X7407500Y-19528214D01*
X7417024Y-19509167D01*
X7436071Y-19499643D01*
X7464643Y-19499643D01*
X7483690Y-19509167D01*
X7559881Y-19709167D02*
X7569405Y-19699643D01*
X7588452Y-19671072D01*
X7597976Y-19652024D01*
X7607500Y-19623452D01*
X7617024Y-19575833D01*
X7617024Y-19537738D01*
X7607500Y-19490119D01*
X7597976Y-19461548D01*
X7588452Y-19442500D01*
X7569405Y-19413929D01*
X7559881Y-19404405D01*
D13*
X2597500Y-19806500D02*
G75*
G03*
X2597500Y-19806500I-20000J0D01*
G01*
D11*
X2893214Y-19696976D02*
X2912262Y-19696976D01*
X2931309Y-19706500D01*
X2940833Y-19716024D01*
X2950357Y-19735072D01*
X2959881Y-19773167D01*
X2959881Y-19820786D01*
X2950357Y-19858881D01*
X2940833Y-19877929D01*
X2931309Y-19887452D01*
X2912262Y-19896976D01*
X2893214Y-19896976D01*
X2874167Y-19887452D01*
X2864643Y-19877929D01*
X2855119Y-19858881D01*
X2845595Y-19820786D01*
X2845595Y-19773167D01*
X2855119Y-19735072D01*
X2864643Y-19716024D01*
X2874167Y-19706500D01*
X2893214Y-19696976D01*
X3045595Y-19877929D02*
X3055119Y-19887452D01*
X3045595Y-19896976D01*
X3036071Y-19887452D01*
X3045595Y-19877929D01*
X3045595Y-19896976D01*
X3226548Y-19763643D02*
X3226548Y-19896976D01*
X3178928Y-19687452D02*
X3131309Y-19830310D01*
X3255119Y-19830310D01*
X3369405Y-19696976D02*
X3388452Y-19696976D01*
X3407500Y-19706500D01*
X3417024Y-19716024D01*
X3426548Y-19735072D01*
X3436071Y-19773167D01*
X3436071Y-19820786D01*
X3426548Y-19858881D01*
X3417024Y-19877929D01*
X3407500Y-19887452D01*
X3388452Y-19896976D01*
X3369405Y-19896976D01*
X3350357Y-19887452D01*
X3340833Y-19877929D01*
X3331309Y-19858881D01*
X3321786Y-19820786D01*
X3321786Y-19773167D01*
X3331309Y-19735072D01*
X3340833Y-19716024D01*
X3350357Y-19706500D01*
X3369405Y-19696976D01*
X3559881Y-19696976D02*
X3578928Y-19696976D01*
X3597976Y-19706500D01*
X3607500Y-19716024D01*
X3617024Y-19735072D01*
X3626548Y-19773167D01*
X3626548Y-19820786D01*
X3617024Y-19858881D01*
X3607500Y-19877929D01*
X3597976Y-19887452D01*
X3578928Y-19896976D01*
X3559881Y-19896976D01*
X3540833Y-19887452D01*
X3531309Y-19877929D01*
X3521786Y-19858881D01*
X3512262Y-19820786D01*
X3512262Y-19773167D01*
X3521786Y-19735072D01*
X3531309Y-19716024D01*
X3540833Y-19706500D01*
X3559881Y-19696976D01*
X3712262Y-19896976D02*
X3712262Y-19763643D01*
X3712262Y-19782691D02*
X3721786Y-19773167D01*
X3740833Y-19763643D01*
X3769405Y-19763643D01*
X3788452Y-19773167D01*
X3797976Y-19792214D01*
X3797976Y-19896976D01*
X3797976Y-19792214D02*
X3807500Y-19773167D01*
X3826548Y-19763643D01*
X3855119Y-19763643D01*
X3874167Y-19773167D01*
X3883690Y-19792214D01*
X3883690Y-19896976D01*
X3978928Y-19896976D02*
X3978928Y-19763643D01*
X3978928Y-19782691D02*
X3988452Y-19773167D01*
X4007500Y-19763643D01*
X4036071Y-19763643D01*
X4055119Y-19773167D01*
X4064643Y-19792214D01*
X4064643Y-19896976D01*
X4064643Y-19792214D02*
X4074167Y-19773167D01*
X4093214Y-19763643D01*
X4121786Y-19763643D01*
X4140833Y-19773167D01*
X4150357Y-19792214D01*
X4150357Y-19896976D01*
X4540833Y-19687452D02*
X4369405Y-19944595D01*
X4797976Y-19696976D02*
X4817024Y-19696976D01*
X4836071Y-19706500D01*
X4845595Y-19716024D01*
X4855119Y-19735072D01*
X4864643Y-19773167D01*
X4864643Y-19820786D01*
X4855119Y-19858881D01*
X4845595Y-19877929D01*
X4836071Y-19887452D01*
X4817024Y-19896976D01*
X4797976Y-19896976D01*
X4778929Y-19887452D01*
X4769405Y-19877929D01*
X4759881Y-19858881D01*
X4750357Y-19820786D01*
X4750357Y-19773167D01*
X4759881Y-19735072D01*
X4769405Y-19716024D01*
X4778929Y-19706500D01*
X4797976Y-19696976D01*
X4950357Y-19877929D02*
X4959881Y-19887452D01*
X4950357Y-19896976D01*
X4940833Y-19887452D01*
X4950357Y-19877929D01*
X4950357Y-19896976D01*
X5083690Y-19696976D02*
X5102738Y-19696976D01*
X5121786Y-19706500D01*
X5131310Y-19716024D01*
X5140833Y-19735072D01*
X5150357Y-19773167D01*
X5150357Y-19820786D01*
X5140833Y-19858881D01*
X5131310Y-19877929D01*
X5121786Y-19887452D01*
X5102738Y-19896976D01*
X5083690Y-19896976D01*
X5064643Y-19887452D01*
X5055119Y-19877929D01*
X5045595Y-19858881D01*
X5036071Y-19820786D01*
X5036071Y-19773167D01*
X5045595Y-19735072D01*
X5055119Y-19716024D01*
X5064643Y-19706500D01*
X5083690Y-19696976D01*
X5340833Y-19896976D02*
X5226548Y-19896976D01*
X5283690Y-19896976D02*
X5283690Y-19696976D01*
X5264643Y-19725548D01*
X5245595Y-19744595D01*
X5226548Y-19754119D01*
X5521786Y-19696976D02*
X5426548Y-19696976D01*
X5417024Y-19792214D01*
X5426548Y-19782691D01*
X5445595Y-19773167D01*
X5493214Y-19773167D01*
X5512262Y-19782691D01*
X5521786Y-19792214D01*
X5531310Y-19811262D01*
X5531310Y-19858881D01*
X5521786Y-19877929D01*
X5512262Y-19887452D01*
X5493214Y-19896976D01*
X5445595Y-19896976D01*
X5426548Y-19887452D01*
X5417024Y-19877929D01*
X5597976Y-19696976D02*
X5731309Y-19696976D01*
X5645595Y-19896976D01*
X5797976Y-19696976D02*
X5797976Y-19735072D01*
X5874167Y-19696976D02*
X5874167Y-19735072D01*
X6169405Y-19973167D02*
X6159881Y-19963643D01*
X6140833Y-19935072D01*
X6131309Y-19916024D01*
X6121786Y-19887452D01*
X6112262Y-19839833D01*
X6112262Y-19801738D01*
X6121786Y-19754119D01*
X6131309Y-19725548D01*
X6140833Y-19706500D01*
X6159881Y-19677929D01*
X6169405Y-19668405D01*
X6331309Y-19763643D02*
X6331309Y-19896976D01*
X6283690Y-19687452D02*
X6236071Y-19830310D01*
X6359881Y-19830310D01*
X6588452Y-19896976D02*
X6588452Y-19696976D01*
X6674167Y-19896976D02*
X6674167Y-19792214D01*
X6664643Y-19773167D01*
X6645595Y-19763643D01*
X6617024Y-19763643D01*
X6597976Y-19773167D01*
X6588452Y-19782691D01*
X6797976Y-19896976D02*
X6778928Y-19887452D01*
X6769405Y-19877929D01*
X6759881Y-19858881D01*
X6759881Y-19801738D01*
X6769405Y-19782691D01*
X6778928Y-19773167D01*
X6797976Y-19763643D01*
X6826548Y-19763643D01*
X6845595Y-19773167D01*
X6855119Y-19782691D01*
X6864643Y-19801738D01*
X6864643Y-19858881D01*
X6855119Y-19877929D01*
X6845595Y-19887452D01*
X6826548Y-19896976D01*
X6797976Y-19896976D01*
X6978928Y-19896976D02*
X6959881Y-19887452D01*
X6950357Y-19868405D01*
X6950357Y-19696976D01*
X7131309Y-19887452D02*
X7112262Y-19896976D01*
X7074167Y-19896976D01*
X7055119Y-19887452D01*
X7045595Y-19868405D01*
X7045595Y-19792214D01*
X7055119Y-19773167D01*
X7074167Y-19763643D01*
X7112262Y-19763643D01*
X7131309Y-19773167D01*
X7140833Y-19792214D01*
X7140833Y-19811262D01*
X7045595Y-19830310D01*
X7217024Y-19887452D02*
X7236071Y-19896976D01*
X7274167Y-19896976D01*
X7293214Y-19887452D01*
X7302738Y-19868405D01*
X7302738Y-19858881D01*
X7293214Y-19839833D01*
X7274167Y-19830310D01*
X7245595Y-19830310D01*
X7226548Y-19820786D01*
X7217024Y-19801738D01*
X7217024Y-19792214D01*
X7226548Y-19773167D01*
X7245595Y-19763643D01*
X7274167Y-19763643D01*
X7293214Y-19773167D01*
X7369405Y-19973167D02*
X7378928Y-19963643D01*
X7397976Y-19935072D01*
X7407500Y-19916024D01*
X7417024Y-19887452D01*
X7426548Y-19839833D01*
X7426548Y-19801738D01*
X7417024Y-19754119D01*
X7407500Y-19725548D01*
X7397976Y-19706500D01*
X7378928Y-19677929D01*
X7369405Y-19668405D01*
D14*
X2565000Y-20038000D02*
X2565000Y-20103000D01*
X2532500Y-20070500D02*
X2597500Y-20070500D01*
D11*
X2893214Y-19960976D02*
X2912262Y-19960976D01*
X2931309Y-19970500D01*
X2940833Y-19980024D01*
X2950357Y-19999072D01*
X2959881Y-20037167D01*
X2959881Y-20084786D01*
X2950357Y-20122881D01*
X2940833Y-20141929D01*
X2931309Y-20151452D01*
X2912262Y-20160976D01*
X2893214Y-20160976D01*
X2874167Y-20151452D01*
X2864643Y-20141929D01*
X2855119Y-20122881D01*
X2845595Y-20084786D01*
X2845595Y-20037167D01*
X2855119Y-19999072D01*
X2864643Y-19980024D01*
X2874167Y-19970500D01*
X2893214Y-19960976D01*
X3045595Y-20141929D02*
X3055119Y-20151452D01*
X3045595Y-20160976D01*
X3036071Y-20151452D01*
X3045595Y-20141929D01*
X3045595Y-20160976D01*
X3226548Y-19960976D02*
X3188452Y-19960976D01*
X3169405Y-19970500D01*
X3159881Y-19980024D01*
X3140833Y-20008595D01*
X3131309Y-20046691D01*
X3131309Y-20122881D01*
X3140833Y-20141929D01*
X3150357Y-20151452D01*
X3169405Y-20160976D01*
X3207500Y-20160976D01*
X3226548Y-20151452D01*
X3236071Y-20141929D01*
X3245595Y-20122881D01*
X3245595Y-20075262D01*
X3236071Y-20056214D01*
X3226548Y-20046691D01*
X3207500Y-20037167D01*
X3169405Y-20037167D01*
X3150357Y-20046691D01*
X3140833Y-20056214D01*
X3131309Y-20075262D01*
X3426548Y-19960976D02*
X3331309Y-19960976D01*
X3321786Y-20056214D01*
X3331309Y-20046691D01*
X3350357Y-20037167D01*
X3397976Y-20037167D01*
X3417024Y-20046691D01*
X3426548Y-20056214D01*
X3436071Y-20075262D01*
X3436071Y-20122881D01*
X3426548Y-20141929D01*
X3417024Y-20151452D01*
X3397976Y-20160976D01*
X3350357Y-20160976D01*
X3331309Y-20151452D01*
X3321786Y-20141929D01*
X3559881Y-19960976D02*
X3578928Y-19960976D01*
X3597976Y-19970500D01*
X3607500Y-19980024D01*
X3617024Y-19999072D01*
X3626548Y-20037167D01*
X3626548Y-20084786D01*
X3617024Y-20122881D01*
X3607500Y-20141929D01*
X3597976Y-20151452D01*
X3578928Y-20160976D01*
X3559881Y-20160976D01*
X3540833Y-20151452D01*
X3531309Y-20141929D01*
X3521786Y-20122881D01*
X3512262Y-20084786D01*
X3512262Y-20037167D01*
X3521786Y-19999072D01*
X3531309Y-19980024D01*
X3540833Y-19970500D01*
X3559881Y-19960976D01*
X3712262Y-20160976D02*
X3712262Y-20027643D01*
X3712262Y-20046691D02*
X3721786Y-20037167D01*
X3740833Y-20027643D01*
X3769405Y-20027643D01*
X3788452Y-20037167D01*
X3797976Y-20056214D01*
X3797976Y-20160976D01*
X3797976Y-20056214D02*
X3807500Y-20037167D01*
X3826548Y-20027643D01*
X3855119Y-20027643D01*
X3874167Y-20037167D01*
X3883690Y-20056214D01*
X3883690Y-20160976D01*
X3978928Y-20160976D02*
X3978928Y-20027643D01*
X3978928Y-20046691D02*
X3988452Y-20037167D01*
X4007500Y-20027643D01*
X4036071Y-20027643D01*
X4055119Y-20037167D01*
X4064643Y-20056214D01*
X4064643Y-20160976D01*
X4064643Y-20056214D02*
X4074167Y-20037167D01*
X4093214Y-20027643D01*
X4121786Y-20027643D01*
X4140833Y-20037167D01*
X4150357Y-20056214D01*
X4150357Y-20160976D01*
X4540833Y-19951452D02*
X4369405Y-20208595D01*
X4797976Y-19960976D02*
X4817024Y-19960976D01*
X4836071Y-19970500D01*
X4845595Y-19980024D01*
X4855119Y-19999072D01*
X4864643Y-20037167D01*
X4864643Y-20084786D01*
X4855119Y-20122881D01*
X4845595Y-20141929D01*
X4836071Y-20151452D01*
X4817024Y-20160976D01*
X4797976Y-20160976D01*
X4778929Y-20151452D01*
X4769405Y-20141929D01*
X4759881Y-20122881D01*
X4750357Y-20084786D01*
X4750357Y-20037167D01*
X4759881Y-19999072D01*
X4769405Y-19980024D01*
X4778929Y-19970500D01*
X4797976Y-19960976D01*
X4950357Y-20141929D02*
X4959881Y-20151452D01*
X4950357Y-20160976D01*
X4940833Y-20151452D01*
X4950357Y-20141929D01*
X4950357Y-20160976D01*
X5083690Y-19960976D02*
X5102738Y-19960976D01*
X5121786Y-19970500D01*
X5131310Y-19980024D01*
X5140833Y-19999072D01*
X5150357Y-20037167D01*
X5150357Y-20084786D01*
X5140833Y-20122881D01*
X5131310Y-20141929D01*
X5121786Y-20151452D01*
X5102738Y-20160976D01*
X5083690Y-20160976D01*
X5064643Y-20151452D01*
X5055119Y-20141929D01*
X5045595Y-20122881D01*
X5036071Y-20084786D01*
X5036071Y-20037167D01*
X5045595Y-19999072D01*
X5055119Y-19980024D01*
X5064643Y-19970500D01*
X5083690Y-19960976D01*
X5226548Y-19980024D02*
X5236071Y-19970500D01*
X5255119Y-19960976D01*
X5302738Y-19960976D01*
X5321786Y-19970500D01*
X5331310Y-19980024D01*
X5340833Y-19999072D01*
X5340833Y-20018119D01*
X5331310Y-20046691D01*
X5217024Y-20160976D01*
X5340833Y-20160976D01*
X5521786Y-19960976D02*
X5426548Y-19960976D01*
X5417024Y-20056214D01*
X5426548Y-20046691D01*
X5445595Y-20037167D01*
X5493214Y-20037167D01*
X5512262Y-20046691D01*
X5521786Y-20056214D01*
X5531310Y-20075262D01*
X5531310Y-20122881D01*
X5521786Y-20141929D01*
X5512262Y-20151452D01*
X5493214Y-20160976D01*
X5445595Y-20160976D01*
X5426548Y-20151452D01*
X5417024Y-20141929D01*
X5702738Y-19960976D02*
X5664643Y-19960976D01*
X5645595Y-19970500D01*
X5636071Y-19980024D01*
X5617024Y-20008595D01*
X5607500Y-20046691D01*
X5607500Y-20122881D01*
X5617024Y-20141929D01*
X5626548Y-20151452D01*
X5645595Y-20160976D01*
X5683690Y-20160976D01*
X5702738Y-20151452D01*
X5712262Y-20141929D01*
X5721786Y-20122881D01*
X5721786Y-20075262D01*
X5712262Y-20056214D01*
X5702738Y-20046691D01*
X5683690Y-20037167D01*
X5645595Y-20037167D01*
X5626548Y-20046691D01*
X5617024Y-20056214D01*
X5607500Y-20075262D01*
X5797976Y-19960976D02*
X5797976Y-19999072D01*
X5874167Y-19960976D02*
X5874167Y-19999072D01*
X6169405Y-20237167D02*
X6159881Y-20227643D01*
X6140833Y-20199072D01*
X6131309Y-20180024D01*
X6121786Y-20151452D01*
X6112262Y-20103833D01*
X6112262Y-20065738D01*
X6121786Y-20018119D01*
X6131309Y-19989548D01*
X6140833Y-19970500D01*
X6159881Y-19941929D01*
X6169405Y-19932405D01*
X6283690Y-19960976D02*
X6302738Y-19960976D01*
X6321786Y-19970500D01*
X6331309Y-19980024D01*
X6340833Y-19999072D01*
X6350357Y-20037167D01*
X6350357Y-20084786D01*
X6340833Y-20122881D01*
X6331309Y-20141929D01*
X6321786Y-20151452D01*
X6302738Y-20160976D01*
X6283690Y-20160976D01*
X6264643Y-20151452D01*
X6255119Y-20141929D01*
X6245595Y-20122881D01*
X6236071Y-20084786D01*
X6236071Y-20037167D01*
X6245595Y-19999072D01*
X6255119Y-19980024D01*
X6264643Y-19970500D01*
X6283690Y-19960976D01*
X6588452Y-20160976D02*
X6588452Y-19960976D01*
X6674167Y-20160976D02*
X6674167Y-20056214D01*
X6664643Y-20037167D01*
X6645595Y-20027643D01*
X6617024Y-20027643D01*
X6597976Y-20037167D01*
X6588452Y-20046691D01*
X6797976Y-20160976D02*
X6778928Y-20151452D01*
X6769405Y-20141929D01*
X6759881Y-20122881D01*
X6759881Y-20065738D01*
X6769405Y-20046691D01*
X6778928Y-20037167D01*
X6797976Y-20027643D01*
X6826548Y-20027643D01*
X6845595Y-20037167D01*
X6855119Y-20046691D01*
X6864643Y-20065738D01*
X6864643Y-20122881D01*
X6855119Y-20141929D01*
X6845595Y-20151452D01*
X6826548Y-20160976D01*
X6797976Y-20160976D01*
X6978928Y-20160976D02*
X6959881Y-20151452D01*
X6950357Y-20132405D01*
X6950357Y-19960976D01*
X7131309Y-20151452D02*
X7112262Y-20160976D01*
X7074167Y-20160976D01*
X7055119Y-20151452D01*
X7045595Y-20132405D01*
X7045595Y-20056214D01*
X7055119Y-20037167D01*
X7074167Y-20027643D01*
X7112262Y-20027643D01*
X7131309Y-20037167D01*
X7140833Y-20056214D01*
X7140833Y-20075262D01*
X7045595Y-20094310D01*
X7217024Y-20151452D02*
X7236071Y-20160976D01*
X7274167Y-20160976D01*
X7293214Y-20151452D01*
X7302738Y-20132405D01*
X7302738Y-20122881D01*
X7293214Y-20103833D01*
X7274167Y-20094310D01*
X7245595Y-20094310D01*
X7226548Y-20084786D01*
X7217024Y-20065738D01*
X7217024Y-20056214D01*
X7226548Y-20037167D01*
X7245595Y-20027643D01*
X7274167Y-20027643D01*
X7293214Y-20037167D01*
X7540833Y-20084786D02*
X7693214Y-20084786D01*
X7617024Y-20160976D02*
X7617024Y-20008595D01*
X8026548Y-20027643D02*
X8026548Y-20160976D01*
X7978928Y-19951452D02*
X7931309Y-20094310D01*
X8055119Y-20094310D01*
X8274167Y-20151452D02*
X8293214Y-20160976D01*
X8331309Y-20160976D01*
X8350357Y-20151452D01*
X8359881Y-20132405D01*
X8359881Y-20122881D01*
X8350357Y-20103833D01*
X8331309Y-20094310D01*
X8302738Y-20094310D01*
X8283690Y-20084786D01*
X8274167Y-20065738D01*
X8274167Y-20056214D01*
X8283690Y-20037167D01*
X8302738Y-20027643D01*
X8331309Y-20027643D01*
X8350357Y-20037167D01*
X8474167Y-20160976D02*
X8455119Y-20151452D01*
X8445595Y-20132405D01*
X8445595Y-19960976D01*
X8578929Y-20160976D02*
X8559881Y-20151452D01*
X8550357Y-20141929D01*
X8540833Y-20122881D01*
X8540833Y-20065738D01*
X8550357Y-20046691D01*
X8559881Y-20037167D01*
X8578929Y-20027643D01*
X8607500Y-20027643D01*
X8626548Y-20037167D01*
X8636071Y-20046691D01*
X8645595Y-20065738D01*
X8645595Y-20122881D01*
X8636071Y-20141929D01*
X8626548Y-20151452D01*
X8607500Y-20160976D01*
X8578929Y-20160976D01*
X8702738Y-20027643D02*
X8778929Y-20027643D01*
X8731310Y-19960976D02*
X8731310Y-20132405D01*
X8740833Y-20151452D01*
X8759881Y-20160976D01*
X8778929Y-20160976D01*
X8836071Y-20151452D02*
X8855119Y-20160976D01*
X8893214Y-20160976D01*
X8912262Y-20151452D01*
X8921786Y-20132405D01*
X8921786Y-20122881D01*
X8912262Y-20103833D01*
X8893214Y-20094310D01*
X8864643Y-20094310D01*
X8845595Y-20084786D01*
X8836071Y-20065738D01*
X8836071Y-20056214D01*
X8845595Y-20037167D01*
X8864643Y-20027643D01*
X8893214Y-20027643D01*
X8912262Y-20037167D01*
X8988452Y-20237167D02*
X8997976Y-20227643D01*
X9017024Y-20199072D01*
X9026548Y-20180024D01*
X9036071Y-20151452D01*
X9045595Y-20103833D01*
X9045595Y-20065738D01*
X9036071Y-20018119D01*
X9026548Y-19989548D01*
X9017024Y-19970500D01*
X8997976Y-19941929D01*
X8988452Y-19932405D01*
D15*
X2581391Y-20373391D02*
X2581391Y-20295609D01*
X2503609Y-20295609D01*
X2503609Y-20373391D01*
X2581391Y-20373391D01*
D11*
X2959881Y-20424976D02*
X2845595Y-20424976D01*
X2902738Y-20424976D02*
X2902738Y-20224976D01*
X2883690Y-20253548D01*
X2864643Y-20272595D01*
X2845595Y-20282119D01*
X3045595Y-20405929D02*
X3055119Y-20415452D01*
X3045595Y-20424976D01*
X3036071Y-20415452D01*
X3045595Y-20405929D01*
X3045595Y-20424976D01*
X3245595Y-20424976D02*
X3131309Y-20424976D01*
X3188452Y-20424976D02*
X3188452Y-20224976D01*
X3169405Y-20253548D01*
X3150357Y-20272595D01*
X3131309Y-20282119D01*
X3369405Y-20224976D02*
X3388452Y-20224976D01*
X3407500Y-20234500D01*
X3417024Y-20244024D01*
X3426548Y-20263072D01*
X3436071Y-20301167D01*
X3436071Y-20348786D01*
X3426548Y-20386881D01*
X3417024Y-20405929D01*
X3407500Y-20415452D01*
X3388452Y-20424976D01*
X3369405Y-20424976D01*
X3350357Y-20415452D01*
X3340833Y-20405929D01*
X3331309Y-20386881D01*
X3321786Y-20348786D01*
X3321786Y-20301167D01*
X3331309Y-20263072D01*
X3340833Y-20244024D01*
X3350357Y-20234500D01*
X3369405Y-20224976D01*
X3559881Y-20224976D02*
X3578928Y-20224976D01*
X3597976Y-20234500D01*
X3607500Y-20244024D01*
X3617024Y-20263072D01*
X3626548Y-20301167D01*
X3626548Y-20348786D01*
X3617024Y-20386881D01*
X3607500Y-20405929D01*
X3597976Y-20415452D01*
X3578928Y-20424976D01*
X3559881Y-20424976D01*
X3540833Y-20415452D01*
X3531309Y-20405929D01*
X3521786Y-20386881D01*
X3512262Y-20348786D01*
X3512262Y-20301167D01*
X3521786Y-20263072D01*
X3531309Y-20244024D01*
X3540833Y-20234500D01*
X3559881Y-20224976D01*
X3712262Y-20424976D02*
X3712262Y-20291643D01*
X3712262Y-20310691D02*
X3721786Y-20301167D01*
X3740833Y-20291643D01*
X3769405Y-20291643D01*
X3788452Y-20301167D01*
X3797976Y-20320214D01*
X3797976Y-20424976D01*
X3797976Y-20320214D02*
X3807500Y-20301167D01*
X3826548Y-20291643D01*
X3855119Y-20291643D01*
X3874167Y-20301167D01*
X3883690Y-20320214D01*
X3883690Y-20424976D01*
X3978928Y-20424976D02*
X3978928Y-20291643D01*
X3978928Y-20310691D02*
X3988452Y-20301167D01*
X4007500Y-20291643D01*
X4036071Y-20291643D01*
X4055119Y-20301167D01*
X4064643Y-20320214D01*
X4064643Y-20424976D01*
X4064643Y-20320214D02*
X4074167Y-20301167D01*
X4093214Y-20291643D01*
X4121786Y-20291643D01*
X4140833Y-20301167D01*
X4150357Y-20320214D01*
X4150357Y-20424976D01*
X4540833Y-20215452D02*
X4369405Y-20472595D01*
X4797976Y-20224976D02*
X4817024Y-20224976D01*
X4836071Y-20234500D01*
X4845595Y-20244024D01*
X4855119Y-20263072D01*
X4864643Y-20301167D01*
X4864643Y-20348786D01*
X4855119Y-20386881D01*
X4845595Y-20405929D01*
X4836071Y-20415452D01*
X4817024Y-20424976D01*
X4797976Y-20424976D01*
X4778929Y-20415452D01*
X4769405Y-20405929D01*
X4759881Y-20386881D01*
X4750357Y-20348786D01*
X4750357Y-20301167D01*
X4759881Y-20263072D01*
X4769405Y-20244024D01*
X4778929Y-20234500D01*
X4797976Y-20224976D01*
X4950357Y-20405929D02*
X4959881Y-20415452D01*
X4950357Y-20424976D01*
X4940833Y-20415452D01*
X4950357Y-20405929D01*
X4950357Y-20424976D01*
X5083690Y-20224976D02*
X5102738Y-20224976D01*
X5121786Y-20234500D01*
X5131310Y-20244024D01*
X5140833Y-20263072D01*
X5150357Y-20301167D01*
X5150357Y-20348786D01*
X5140833Y-20386881D01*
X5131310Y-20405929D01*
X5121786Y-20415452D01*
X5102738Y-20424976D01*
X5083690Y-20424976D01*
X5064643Y-20415452D01*
X5055119Y-20405929D01*
X5045595Y-20386881D01*
X5036071Y-20348786D01*
X5036071Y-20301167D01*
X5045595Y-20263072D01*
X5055119Y-20244024D01*
X5064643Y-20234500D01*
X5083690Y-20224976D01*
X5321786Y-20291643D02*
X5321786Y-20424976D01*
X5274167Y-20215452D02*
X5226548Y-20358310D01*
X5350357Y-20358310D01*
X5407500Y-20224976D02*
X5531310Y-20224976D01*
X5464643Y-20301167D01*
X5493214Y-20301167D01*
X5512262Y-20310691D01*
X5521786Y-20320214D01*
X5531310Y-20339262D01*
X5531310Y-20386881D01*
X5521786Y-20405929D01*
X5512262Y-20415452D01*
X5493214Y-20424976D01*
X5436071Y-20424976D01*
X5417024Y-20415452D01*
X5407500Y-20405929D01*
X5597976Y-20224976D02*
X5721786Y-20224976D01*
X5655119Y-20301167D01*
X5683690Y-20301167D01*
X5702738Y-20310691D01*
X5712262Y-20320214D01*
X5721786Y-20339262D01*
X5721786Y-20386881D01*
X5712262Y-20405929D01*
X5702738Y-20415452D01*
X5683690Y-20424976D01*
X5626548Y-20424976D01*
X5607500Y-20415452D01*
X5597976Y-20405929D01*
X5797976Y-20224976D02*
X5797976Y-20263072D01*
X5874167Y-20224976D02*
X5874167Y-20263072D01*
X6169405Y-20501167D02*
X6159881Y-20491643D01*
X6140833Y-20463072D01*
X6131309Y-20444024D01*
X6121786Y-20415452D01*
X6112262Y-20367833D01*
X6112262Y-20329738D01*
X6121786Y-20282119D01*
X6131309Y-20253548D01*
X6140833Y-20234500D01*
X6159881Y-20205929D01*
X6169405Y-20196405D01*
X6274167Y-20310691D02*
X6255119Y-20301167D01*
X6245595Y-20291643D01*
X6236071Y-20272595D01*
X6236071Y-20263072D01*
X6245595Y-20244024D01*
X6255119Y-20234500D01*
X6274167Y-20224976D01*
X6312262Y-20224976D01*
X6331309Y-20234500D01*
X6340833Y-20244024D01*
X6350357Y-20263072D01*
X6350357Y-20272595D01*
X6340833Y-20291643D01*
X6331309Y-20301167D01*
X6312262Y-20310691D01*
X6274167Y-20310691D01*
X6255119Y-20320214D01*
X6245595Y-20329738D01*
X6236071Y-20348786D01*
X6236071Y-20386881D01*
X6245595Y-20405929D01*
X6255119Y-20415452D01*
X6274167Y-20424976D01*
X6312262Y-20424976D01*
X6331309Y-20415452D01*
X6340833Y-20405929D01*
X6350357Y-20386881D01*
X6350357Y-20348786D01*
X6340833Y-20329738D01*
X6331309Y-20320214D01*
X6312262Y-20310691D01*
X6588452Y-20424976D02*
X6588452Y-20224976D01*
X6674167Y-20424976D02*
X6674167Y-20320214D01*
X6664643Y-20301167D01*
X6645595Y-20291643D01*
X6617024Y-20291643D01*
X6597976Y-20301167D01*
X6588452Y-20310691D01*
X6797976Y-20424976D02*
X6778928Y-20415452D01*
X6769405Y-20405929D01*
X6759881Y-20386881D01*
X6759881Y-20329738D01*
X6769405Y-20310691D01*
X6778928Y-20301167D01*
X6797976Y-20291643D01*
X6826548Y-20291643D01*
X6845595Y-20301167D01*
X6855119Y-20310691D01*
X6864643Y-20329738D01*
X6864643Y-20386881D01*
X6855119Y-20405929D01*
X6845595Y-20415452D01*
X6826548Y-20424976D01*
X6797976Y-20424976D01*
X6978928Y-20424976D02*
X6959881Y-20415452D01*
X6950357Y-20396405D01*
X6950357Y-20224976D01*
X7131309Y-20415452D02*
X7112262Y-20424976D01*
X7074167Y-20424976D01*
X7055119Y-20415452D01*
X7045595Y-20396405D01*
X7045595Y-20320214D01*
X7055119Y-20301167D01*
X7074167Y-20291643D01*
X7112262Y-20291643D01*
X7131309Y-20301167D01*
X7140833Y-20320214D01*
X7140833Y-20339262D01*
X7045595Y-20358310D01*
X7217024Y-20415452D02*
X7236071Y-20424976D01*
X7274167Y-20424976D01*
X7293214Y-20415452D01*
X7302738Y-20396405D01*
X7302738Y-20386881D01*
X7293214Y-20367833D01*
X7274167Y-20358310D01*
X7245595Y-20358310D01*
X7226548Y-20348786D01*
X7217024Y-20329738D01*
X7217024Y-20320214D01*
X7226548Y-20301167D01*
X7245595Y-20291643D01*
X7274167Y-20291643D01*
X7293214Y-20301167D01*
X7369405Y-20501167D02*
X7378928Y-20491643D01*
X7397976Y-20463072D01*
X7407500Y-20444024D01*
X7417024Y-20415452D01*
X7426548Y-20367833D01*
X7426548Y-20329738D01*
X7417024Y-20282119D01*
X7407500Y-20253548D01*
X7397976Y-20234500D01*
X7378928Y-20205929D01*
X7369405Y-20196405D01*
D16*
X2537500Y-20658500D02*
X2597500Y-20598500D01*
X2537500Y-20538500D01*
X2477500Y-20598500D01*
X2537500Y-20658500D01*
D11*
X2959881Y-20688976D02*
X2845595Y-20688976D01*
X2902738Y-20688976D02*
X2902738Y-20488976D01*
X2883690Y-20517548D01*
X2864643Y-20536595D01*
X2845595Y-20546119D01*
X3045595Y-20669929D02*
X3055119Y-20679452D01*
X3045595Y-20688976D01*
X3036071Y-20679452D01*
X3045595Y-20669929D01*
X3045595Y-20688976D01*
X3131309Y-20508024D02*
X3140833Y-20498500D01*
X3159881Y-20488976D01*
X3207500Y-20488976D01*
X3226548Y-20498500D01*
X3236071Y-20508024D01*
X3245595Y-20527072D01*
X3245595Y-20546119D01*
X3236071Y-20574691D01*
X3121786Y-20688976D01*
X3245595Y-20688976D01*
X3369405Y-20488976D02*
X3388452Y-20488976D01*
X3407500Y-20498500D01*
X3417024Y-20508024D01*
X3426548Y-20527072D01*
X3436071Y-20565167D01*
X3436071Y-20612786D01*
X3426548Y-20650881D01*
X3417024Y-20669929D01*
X3407500Y-20679452D01*
X3388452Y-20688976D01*
X3369405Y-20688976D01*
X3350357Y-20679452D01*
X3340833Y-20669929D01*
X3331309Y-20650881D01*
X3321786Y-20612786D01*
X3321786Y-20565167D01*
X3331309Y-20527072D01*
X3340833Y-20508024D01*
X3350357Y-20498500D01*
X3369405Y-20488976D01*
X3559881Y-20488976D02*
X3578928Y-20488976D01*
X3597976Y-20498500D01*
X3607500Y-20508024D01*
X3617024Y-20527072D01*
X3626548Y-20565167D01*
X3626548Y-20612786D01*
X3617024Y-20650881D01*
X3607500Y-20669929D01*
X3597976Y-20679452D01*
X3578928Y-20688976D01*
X3559881Y-20688976D01*
X3540833Y-20679452D01*
X3531309Y-20669929D01*
X3521786Y-20650881D01*
X3512262Y-20612786D01*
X3512262Y-20565167D01*
X3521786Y-20527072D01*
X3531309Y-20508024D01*
X3540833Y-20498500D01*
X3559881Y-20488976D01*
X3712262Y-20688976D02*
X3712262Y-20555643D01*
X3712262Y-20574691D02*
X3721786Y-20565167D01*
X3740833Y-20555643D01*
X3769405Y-20555643D01*
X3788452Y-20565167D01*
X3797976Y-20584214D01*
X3797976Y-20688976D01*
X3797976Y-20584214D02*
X3807500Y-20565167D01*
X3826548Y-20555643D01*
X3855119Y-20555643D01*
X3874167Y-20565167D01*
X3883690Y-20584214D01*
X3883690Y-20688976D01*
X3978928Y-20688976D02*
X3978928Y-20555643D01*
X3978928Y-20574691D02*
X3988452Y-20565167D01*
X4007500Y-20555643D01*
X4036071Y-20555643D01*
X4055119Y-20565167D01*
X4064643Y-20584214D01*
X4064643Y-20688976D01*
X4064643Y-20584214D02*
X4074167Y-20565167D01*
X4093214Y-20555643D01*
X4121786Y-20555643D01*
X4140833Y-20565167D01*
X4150357Y-20584214D01*
X4150357Y-20688976D01*
X4540833Y-20479452D02*
X4369405Y-20736595D01*
X4797976Y-20488976D02*
X4817024Y-20488976D01*
X4836071Y-20498500D01*
X4845595Y-20508024D01*
X4855119Y-20527072D01*
X4864643Y-20565167D01*
X4864643Y-20612786D01*
X4855119Y-20650881D01*
X4845595Y-20669929D01*
X4836071Y-20679452D01*
X4817024Y-20688976D01*
X4797976Y-20688976D01*
X4778929Y-20679452D01*
X4769405Y-20669929D01*
X4759881Y-20650881D01*
X4750357Y-20612786D01*
X4750357Y-20565167D01*
X4759881Y-20527072D01*
X4769405Y-20508024D01*
X4778929Y-20498500D01*
X4797976Y-20488976D01*
X4950357Y-20669929D02*
X4959881Y-20679452D01*
X4950357Y-20688976D01*
X4940833Y-20679452D01*
X4950357Y-20669929D01*
X4950357Y-20688976D01*
X5083690Y-20488976D02*
X5102738Y-20488976D01*
X5121786Y-20498500D01*
X5131310Y-20508024D01*
X5140833Y-20527072D01*
X5150357Y-20565167D01*
X5150357Y-20612786D01*
X5140833Y-20650881D01*
X5131310Y-20669929D01*
X5121786Y-20679452D01*
X5102738Y-20688976D01*
X5083690Y-20688976D01*
X5064643Y-20679452D01*
X5055119Y-20669929D01*
X5045595Y-20650881D01*
X5036071Y-20612786D01*
X5036071Y-20565167D01*
X5045595Y-20527072D01*
X5055119Y-20508024D01*
X5064643Y-20498500D01*
X5083690Y-20488976D01*
X5321786Y-20555643D02*
X5321786Y-20688976D01*
X5274167Y-20479452D02*
X5226548Y-20622310D01*
X5350357Y-20622310D01*
X5407500Y-20488976D02*
X5540833Y-20488976D01*
X5455119Y-20688976D01*
X5607500Y-20508024D02*
X5617024Y-20498500D01*
X5636071Y-20488976D01*
X5683690Y-20488976D01*
X5702738Y-20498500D01*
X5712262Y-20508024D01*
X5721786Y-20527072D01*
X5721786Y-20546119D01*
X5712262Y-20574691D01*
X5597976Y-20688976D01*
X5721786Y-20688976D01*
X5797976Y-20488976D02*
X5797976Y-20527072D01*
X5874167Y-20488976D02*
X5874167Y-20527072D01*
X6169405Y-20765167D02*
X6159881Y-20755643D01*
X6140833Y-20727072D01*
X6131309Y-20708024D01*
X6121786Y-20679452D01*
X6112262Y-20631833D01*
X6112262Y-20593738D01*
X6121786Y-20546119D01*
X6131309Y-20517548D01*
X6140833Y-20498500D01*
X6159881Y-20469929D01*
X6169405Y-20460405D01*
X6350357Y-20688976D02*
X6236071Y-20688976D01*
X6293214Y-20688976D02*
X6293214Y-20488976D01*
X6274167Y-20517548D01*
X6255119Y-20536595D01*
X6236071Y-20546119D01*
X6521786Y-20555643D02*
X6521786Y-20688976D01*
X6474167Y-20479452D02*
X6426548Y-20622310D01*
X6550357Y-20622310D01*
X6664643Y-20488976D02*
X6683690Y-20488976D01*
X6702738Y-20498500D01*
X6712262Y-20508024D01*
X6721786Y-20527072D01*
X6731309Y-20565167D01*
X6731309Y-20612786D01*
X6721786Y-20650881D01*
X6712262Y-20669929D01*
X6702738Y-20679452D01*
X6683690Y-20688976D01*
X6664643Y-20688976D01*
X6645595Y-20679452D01*
X6636071Y-20669929D01*
X6626548Y-20650881D01*
X6617024Y-20612786D01*
X6617024Y-20565167D01*
X6626548Y-20527072D01*
X6636071Y-20508024D01*
X6645595Y-20498500D01*
X6664643Y-20488976D01*
X6969405Y-20688976D02*
X6969405Y-20488976D01*
X7055119Y-20688976D02*
X7055119Y-20584214D01*
X7045595Y-20565167D01*
X7026548Y-20555643D01*
X6997976Y-20555643D01*
X6978928Y-20565167D01*
X6969405Y-20574691D01*
X7178928Y-20688976D02*
X7159881Y-20679452D01*
X7150357Y-20669929D01*
X7140833Y-20650881D01*
X7140833Y-20593738D01*
X7150357Y-20574691D01*
X7159881Y-20565167D01*
X7178928Y-20555643D01*
X7207500Y-20555643D01*
X7226548Y-20565167D01*
X7236071Y-20574691D01*
X7245595Y-20593738D01*
X7245595Y-20650881D01*
X7236071Y-20669929D01*
X7226548Y-20679452D01*
X7207500Y-20688976D01*
X7178928Y-20688976D01*
X7359881Y-20688976D02*
X7340833Y-20679452D01*
X7331309Y-20660405D01*
X7331309Y-20488976D01*
X7512262Y-20679452D02*
X7493214Y-20688976D01*
X7455119Y-20688976D01*
X7436071Y-20679452D01*
X7426548Y-20660405D01*
X7426548Y-20584214D01*
X7436071Y-20565167D01*
X7455119Y-20555643D01*
X7493214Y-20555643D01*
X7512262Y-20565167D01*
X7521786Y-20584214D01*
X7521786Y-20603262D01*
X7426548Y-20622310D01*
X7597976Y-20679452D02*
X7617024Y-20688976D01*
X7655119Y-20688976D01*
X7674167Y-20679452D01*
X7683690Y-20660405D01*
X7683690Y-20650881D01*
X7674167Y-20631833D01*
X7655119Y-20622310D01*
X7626548Y-20622310D01*
X7607500Y-20612786D01*
X7597976Y-20593738D01*
X7597976Y-20584214D01*
X7607500Y-20565167D01*
X7626548Y-20555643D01*
X7655119Y-20555643D01*
X7674167Y-20565167D01*
X7750357Y-20765167D02*
X7759881Y-20755643D01*
X7778928Y-20727072D01*
X7788452Y-20708024D01*
X7797976Y-20679452D01*
X7807500Y-20631833D01*
X7807500Y-20593738D01*
X7797976Y-20546119D01*
X7788452Y-20517548D01*
X7778928Y-20498500D01*
X7759881Y-20469929D01*
X7750357Y-20460405D01*
D17*
X2437500Y-20782500D02*
X2597500Y-20942500D01*
X2597500Y-20782500D02*
X2437500Y-20942500D01*
X2597500Y-20862500D02*
G75*
G03*
X2597500Y-20862500I-80000J0D01*
G01*
D11*
X2959881Y-20952976D02*
X2845595Y-20952976D01*
X2902738Y-20952976D02*
X2902738Y-20752976D01*
X2883690Y-20781548D01*
X2864643Y-20800595D01*
X2845595Y-20810119D01*
X3045595Y-20933929D02*
X3055119Y-20943452D01*
X3045595Y-20952976D01*
X3036071Y-20943452D01*
X3045595Y-20933929D01*
X3045595Y-20952976D01*
X3226548Y-20752976D02*
X3188452Y-20752976D01*
X3169405Y-20762500D01*
X3159881Y-20772024D01*
X3140833Y-20800595D01*
X3131309Y-20838691D01*
X3131309Y-20914881D01*
X3140833Y-20933929D01*
X3150357Y-20943452D01*
X3169405Y-20952976D01*
X3207500Y-20952976D01*
X3226548Y-20943452D01*
X3236071Y-20933929D01*
X3245595Y-20914881D01*
X3245595Y-20867262D01*
X3236071Y-20848214D01*
X3226548Y-20838691D01*
X3207500Y-20829167D01*
X3169405Y-20829167D01*
X3150357Y-20838691D01*
X3140833Y-20848214D01*
X3131309Y-20867262D01*
X3369405Y-20752976D02*
X3388452Y-20752976D01*
X3407500Y-20762500D01*
X3417024Y-20772024D01*
X3426548Y-20791072D01*
X3436071Y-20829167D01*
X3436071Y-20876786D01*
X3426548Y-20914881D01*
X3417024Y-20933929D01*
X3407500Y-20943452D01*
X3388452Y-20952976D01*
X3369405Y-20952976D01*
X3350357Y-20943452D01*
X3340833Y-20933929D01*
X3331309Y-20914881D01*
X3321786Y-20876786D01*
X3321786Y-20829167D01*
X3331309Y-20791072D01*
X3340833Y-20772024D01*
X3350357Y-20762500D01*
X3369405Y-20752976D01*
X3559881Y-20752976D02*
X3578928Y-20752976D01*
X3597976Y-20762500D01*
X3607500Y-20772024D01*
X3617024Y-20791072D01*
X3626548Y-20829167D01*
X3626548Y-20876786D01*
X3617024Y-20914881D01*
X3607500Y-20933929D01*
X3597976Y-20943452D01*
X3578928Y-20952976D01*
X3559881Y-20952976D01*
X3540833Y-20943452D01*
X3531309Y-20933929D01*
X3521786Y-20914881D01*
X3512262Y-20876786D01*
X3512262Y-20829167D01*
X3521786Y-20791072D01*
X3531309Y-20772024D01*
X3540833Y-20762500D01*
X3559881Y-20752976D01*
X3712262Y-20952976D02*
X3712262Y-20819643D01*
X3712262Y-20838691D02*
X3721786Y-20829167D01*
X3740833Y-20819643D01*
X3769405Y-20819643D01*
X3788452Y-20829167D01*
X3797976Y-20848214D01*
X3797976Y-20952976D01*
X3797976Y-20848214D02*
X3807500Y-20829167D01*
X3826548Y-20819643D01*
X3855119Y-20819643D01*
X3874167Y-20829167D01*
X3883690Y-20848214D01*
X3883690Y-20952976D01*
X3978928Y-20952976D02*
X3978928Y-20819643D01*
X3978928Y-20838691D02*
X3988452Y-20829167D01*
X4007500Y-20819643D01*
X4036071Y-20819643D01*
X4055119Y-20829167D01*
X4064643Y-20848214D01*
X4064643Y-20952976D01*
X4064643Y-20848214D02*
X4074167Y-20829167D01*
X4093214Y-20819643D01*
X4121786Y-20819643D01*
X4140833Y-20829167D01*
X4150357Y-20848214D01*
X4150357Y-20952976D01*
X4540833Y-20743452D02*
X4369405Y-21000595D01*
X4797976Y-20752976D02*
X4817024Y-20752976D01*
X4836071Y-20762500D01*
X4845595Y-20772024D01*
X4855119Y-20791072D01*
X4864643Y-20829167D01*
X4864643Y-20876786D01*
X4855119Y-20914881D01*
X4845595Y-20933929D01*
X4836071Y-20943452D01*
X4817024Y-20952976D01*
X4797976Y-20952976D01*
X4778929Y-20943452D01*
X4769405Y-20933929D01*
X4759881Y-20914881D01*
X4750357Y-20876786D01*
X4750357Y-20829167D01*
X4759881Y-20791072D01*
X4769405Y-20772024D01*
X4778929Y-20762500D01*
X4797976Y-20752976D01*
X4950357Y-20933929D02*
X4959881Y-20943452D01*
X4950357Y-20952976D01*
X4940833Y-20943452D01*
X4950357Y-20933929D01*
X4950357Y-20952976D01*
X5083690Y-20752976D02*
X5102738Y-20752976D01*
X5121786Y-20762500D01*
X5131310Y-20772024D01*
X5140833Y-20791072D01*
X5150357Y-20829167D01*
X5150357Y-20876786D01*
X5140833Y-20914881D01*
X5131310Y-20933929D01*
X5121786Y-20943452D01*
X5102738Y-20952976D01*
X5083690Y-20952976D01*
X5064643Y-20943452D01*
X5055119Y-20933929D01*
X5045595Y-20914881D01*
X5036071Y-20876786D01*
X5036071Y-20829167D01*
X5045595Y-20791072D01*
X5055119Y-20772024D01*
X5064643Y-20762500D01*
X5083690Y-20752976D01*
X5321786Y-20752976D02*
X5283690Y-20752976D01*
X5264643Y-20762500D01*
X5255119Y-20772024D01*
X5236071Y-20800595D01*
X5226548Y-20838691D01*
X5226548Y-20914881D01*
X5236071Y-20933929D01*
X5245595Y-20943452D01*
X5264643Y-20952976D01*
X5302738Y-20952976D01*
X5321786Y-20943452D01*
X5331310Y-20933929D01*
X5340833Y-20914881D01*
X5340833Y-20867262D01*
X5331310Y-20848214D01*
X5321786Y-20838691D01*
X5302738Y-20829167D01*
X5264643Y-20829167D01*
X5245595Y-20838691D01*
X5236071Y-20848214D01*
X5226548Y-20867262D01*
X5407500Y-20752976D02*
X5531310Y-20752976D01*
X5464643Y-20829167D01*
X5493214Y-20829167D01*
X5512262Y-20838691D01*
X5521786Y-20848214D01*
X5531310Y-20867262D01*
X5531310Y-20914881D01*
X5521786Y-20933929D01*
X5512262Y-20943452D01*
X5493214Y-20952976D01*
X5436071Y-20952976D01*
X5417024Y-20943452D01*
X5407500Y-20933929D01*
X5655119Y-20752976D02*
X5674167Y-20752976D01*
X5693214Y-20762500D01*
X5702738Y-20772024D01*
X5712262Y-20791072D01*
X5721786Y-20829167D01*
X5721786Y-20876786D01*
X5712262Y-20914881D01*
X5702738Y-20933929D01*
X5693214Y-20943452D01*
X5674167Y-20952976D01*
X5655119Y-20952976D01*
X5636071Y-20943452D01*
X5626548Y-20933929D01*
X5617024Y-20914881D01*
X5607500Y-20876786D01*
X5607500Y-20829167D01*
X5617024Y-20791072D01*
X5626548Y-20772024D01*
X5636071Y-20762500D01*
X5655119Y-20752976D01*
X5797976Y-20752976D02*
X5797976Y-20791072D01*
X5874167Y-20752976D02*
X5874167Y-20791072D01*
X6169405Y-21029167D02*
X6159881Y-21019643D01*
X6140833Y-20991072D01*
X6131309Y-20972024D01*
X6121786Y-20943452D01*
X6112262Y-20895833D01*
X6112262Y-20857738D01*
X6121786Y-20810119D01*
X6131309Y-20781548D01*
X6140833Y-20762500D01*
X6159881Y-20733929D01*
X6169405Y-20724405D01*
X6226548Y-20752976D02*
X6359881Y-20752976D01*
X6274167Y-20952976D01*
X6474167Y-20752976D02*
X6493214Y-20752976D01*
X6512262Y-20762500D01*
X6521786Y-20772024D01*
X6531309Y-20791072D01*
X6540833Y-20829167D01*
X6540833Y-20876786D01*
X6531309Y-20914881D01*
X6521786Y-20933929D01*
X6512262Y-20943452D01*
X6493214Y-20952976D01*
X6474167Y-20952976D01*
X6455119Y-20943452D01*
X6445595Y-20933929D01*
X6436071Y-20914881D01*
X6426548Y-20876786D01*
X6426548Y-20829167D01*
X6436071Y-20791072D01*
X6445595Y-20772024D01*
X6455119Y-20762500D01*
X6474167Y-20752976D01*
X6778928Y-20952976D02*
X6778928Y-20752976D01*
X6864643Y-20952976D02*
X6864643Y-20848214D01*
X6855119Y-20829167D01*
X6836071Y-20819643D01*
X6807500Y-20819643D01*
X6788452Y-20829167D01*
X6778928Y-20838691D01*
X6988452Y-20952976D02*
X6969405Y-20943452D01*
X6959881Y-20933929D01*
X6950357Y-20914881D01*
X6950357Y-20857738D01*
X6959881Y-20838691D01*
X6969405Y-20829167D01*
X6988452Y-20819643D01*
X7017024Y-20819643D01*
X7036071Y-20829167D01*
X7045595Y-20838691D01*
X7055119Y-20857738D01*
X7055119Y-20914881D01*
X7045595Y-20933929D01*
X7036071Y-20943452D01*
X7017024Y-20952976D01*
X6988452Y-20952976D01*
X7169405Y-20952976D02*
X7150357Y-20943452D01*
X7140833Y-20924405D01*
X7140833Y-20752976D01*
X7321786Y-20943452D02*
X7302738Y-20952976D01*
X7264643Y-20952976D01*
X7245595Y-20943452D01*
X7236071Y-20924405D01*
X7236071Y-20848214D01*
X7245595Y-20829167D01*
X7264643Y-20819643D01*
X7302738Y-20819643D01*
X7321786Y-20829167D01*
X7331309Y-20848214D01*
X7331309Y-20867262D01*
X7236071Y-20886310D01*
X7407500Y-20943452D02*
X7426548Y-20952976D01*
X7464643Y-20952976D01*
X7483690Y-20943452D01*
X7493214Y-20924405D01*
X7493214Y-20914881D01*
X7483690Y-20895833D01*
X7464643Y-20886310D01*
X7436071Y-20886310D01*
X7417024Y-20876786D01*
X7407500Y-20857738D01*
X7407500Y-20848214D01*
X7417024Y-20829167D01*
X7436071Y-20819643D01*
X7464643Y-20819643D01*
X7483690Y-20829167D01*
X7559881Y-21029167D02*
X7569405Y-21019643D01*
X7588452Y-20991072D01*
X7597976Y-20972024D01*
X7607500Y-20943452D01*
X7617024Y-20895833D01*
X7617024Y-20857738D01*
X7607500Y-20810119D01*
X7597976Y-20781548D01*
X7588452Y-20762500D01*
X7569405Y-20733929D01*
X7559881Y-20724405D01*
X2397500Y-21042500D02*
X2597500Y-21242500D01*
X2597500Y-21042500D02*
X2397500Y-21242500D01*
X2497500Y-21042500D02*
X2497500Y-21242500D01*
X2397500Y-21142500D02*
X2597500Y-21142500D01*
X2845595Y-21052024D02*
X2855119Y-21042500D01*
X2874167Y-21032976D01*
X2921786Y-21032976D01*
X2940833Y-21042500D01*
X2950357Y-21052024D01*
X2959881Y-21071072D01*
X2959881Y-21090119D01*
X2950357Y-21118691D01*
X2836071Y-21232976D01*
X2959881Y-21232976D01*
X3045595Y-21213929D02*
X3055119Y-21223452D01*
X3045595Y-21232976D01*
X3036071Y-21223452D01*
X3045595Y-21213929D01*
X3045595Y-21232976D01*
X3169405Y-21118691D02*
X3150357Y-21109167D01*
X3140833Y-21099643D01*
X3131309Y-21080595D01*
X3131309Y-21071072D01*
X3140833Y-21052024D01*
X3150357Y-21042500D01*
X3169405Y-21032976D01*
X3207500Y-21032976D01*
X3226548Y-21042500D01*
X3236071Y-21052024D01*
X3245595Y-21071072D01*
X3245595Y-21080595D01*
X3236071Y-21099643D01*
X3226548Y-21109167D01*
X3207500Y-21118691D01*
X3169405Y-21118691D01*
X3150357Y-21128214D01*
X3140833Y-21137738D01*
X3131309Y-21156786D01*
X3131309Y-21194881D01*
X3140833Y-21213929D01*
X3150357Y-21223452D01*
X3169405Y-21232976D01*
X3207500Y-21232976D01*
X3226548Y-21223452D01*
X3236071Y-21213929D01*
X3245595Y-21194881D01*
X3245595Y-21156786D01*
X3236071Y-21137738D01*
X3226548Y-21128214D01*
X3207500Y-21118691D01*
X3369405Y-21032976D02*
X3388452Y-21032976D01*
X3407500Y-21042500D01*
X3417024Y-21052024D01*
X3426548Y-21071072D01*
X3436071Y-21109167D01*
X3436071Y-21156786D01*
X3426548Y-21194881D01*
X3417024Y-21213929D01*
X3407500Y-21223452D01*
X3388452Y-21232976D01*
X3369405Y-21232976D01*
X3350357Y-21223452D01*
X3340833Y-21213929D01*
X3331309Y-21194881D01*
X3321786Y-21156786D01*
X3321786Y-21109167D01*
X3331309Y-21071072D01*
X3340833Y-21052024D01*
X3350357Y-21042500D01*
X3369405Y-21032976D01*
X3559881Y-21032976D02*
X3578928Y-21032976D01*
X3597976Y-21042500D01*
X3607500Y-21052024D01*
X3617024Y-21071072D01*
X3626548Y-21109167D01*
X3626548Y-21156786D01*
X3617024Y-21194881D01*
X3607500Y-21213929D01*
X3597976Y-21223452D01*
X3578928Y-21232976D01*
X3559881Y-21232976D01*
X3540833Y-21223452D01*
X3531309Y-21213929D01*
X3521786Y-21194881D01*
X3512262Y-21156786D01*
X3512262Y-21109167D01*
X3521786Y-21071072D01*
X3531309Y-21052024D01*
X3540833Y-21042500D01*
X3559881Y-21032976D01*
X3712262Y-21232976D02*
X3712262Y-21099643D01*
X3712262Y-21118691D02*
X3721786Y-21109167D01*
X3740833Y-21099643D01*
X3769405Y-21099643D01*
X3788452Y-21109167D01*
X3797976Y-21128214D01*
X3797976Y-21232976D01*
X3797976Y-21128214D02*
X3807500Y-21109167D01*
X3826548Y-21099643D01*
X3855119Y-21099643D01*
X3874167Y-21109167D01*
X3883690Y-21128214D01*
X3883690Y-21232976D01*
X3978928Y-21232976D02*
X3978928Y-21099643D01*
X3978928Y-21118691D02*
X3988452Y-21109167D01*
X4007500Y-21099643D01*
X4036071Y-21099643D01*
X4055119Y-21109167D01*
X4064643Y-21128214D01*
X4064643Y-21232976D01*
X4064643Y-21128214D02*
X4074167Y-21109167D01*
X4093214Y-21099643D01*
X4121786Y-21099643D01*
X4140833Y-21109167D01*
X4150357Y-21128214D01*
X4150357Y-21232976D01*
X4540833Y-21023452D02*
X4369405Y-21280595D01*
X4797976Y-21032976D02*
X4817024Y-21032976D01*
X4836071Y-21042500D01*
X4845595Y-21052024D01*
X4855119Y-21071072D01*
X4864643Y-21109167D01*
X4864643Y-21156786D01*
X4855119Y-21194881D01*
X4845595Y-21213929D01*
X4836071Y-21223452D01*
X4817024Y-21232976D01*
X4797976Y-21232976D01*
X4778929Y-21223452D01*
X4769405Y-21213929D01*
X4759881Y-21194881D01*
X4750357Y-21156786D01*
X4750357Y-21109167D01*
X4759881Y-21071072D01*
X4769405Y-21052024D01*
X4778929Y-21042500D01*
X4797976Y-21032976D01*
X4950357Y-21213929D02*
X4959881Y-21223452D01*
X4950357Y-21232976D01*
X4940833Y-21223452D01*
X4950357Y-21213929D01*
X4950357Y-21232976D01*
X5150357Y-21232976D02*
X5036071Y-21232976D01*
X5093214Y-21232976D02*
X5093214Y-21032976D01*
X5074167Y-21061548D01*
X5055119Y-21080595D01*
X5036071Y-21090119D01*
X5340833Y-21232976D02*
X5226548Y-21232976D01*
X5283690Y-21232976D02*
X5283690Y-21032976D01*
X5264643Y-21061548D01*
X5245595Y-21080595D01*
X5226548Y-21090119D01*
X5464643Y-21032976D02*
X5483690Y-21032976D01*
X5502738Y-21042500D01*
X5512262Y-21052024D01*
X5521786Y-21071072D01*
X5531310Y-21109167D01*
X5531310Y-21156786D01*
X5521786Y-21194881D01*
X5512262Y-21213929D01*
X5502738Y-21223452D01*
X5483690Y-21232976D01*
X5464643Y-21232976D01*
X5445595Y-21223452D01*
X5436071Y-21213929D01*
X5426548Y-21194881D01*
X5417024Y-21156786D01*
X5417024Y-21109167D01*
X5426548Y-21071072D01*
X5436071Y-21052024D01*
X5445595Y-21042500D01*
X5464643Y-21032976D01*
X5607500Y-21052024D02*
X5617024Y-21042500D01*
X5636071Y-21032976D01*
X5683690Y-21032976D01*
X5702738Y-21042500D01*
X5712262Y-21052024D01*
X5721786Y-21071072D01*
X5721786Y-21090119D01*
X5712262Y-21118691D01*
X5597976Y-21232976D01*
X5721786Y-21232976D01*
X5797976Y-21032976D02*
X5797976Y-21071072D01*
X5874167Y-21032976D02*
X5874167Y-21071072D01*
X6169405Y-21309167D02*
X6159881Y-21299643D01*
X6140833Y-21271072D01*
X6131309Y-21252024D01*
X6121786Y-21223452D01*
X6112262Y-21175833D01*
X6112262Y-21137738D01*
X6121786Y-21090119D01*
X6131309Y-21061548D01*
X6140833Y-21042500D01*
X6159881Y-21013929D01*
X6169405Y-21004405D01*
X6236071Y-21052024D02*
X6245595Y-21042500D01*
X6264643Y-21032976D01*
X6312262Y-21032976D01*
X6331309Y-21042500D01*
X6340833Y-21052024D01*
X6350357Y-21071072D01*
X6350357Y-21090119D01*
X6340833Y-21118691D01*
X6226548Y-21232976D01*
X6350357Y-21232976D01*
X6464643Y-21118691D02*
X6445595Y-21109167D01*
X6436071Y-21099643D01*
X6426548Y-21080595D01*
X6426548Y-21071072D01*
X6436071Y-21052024D01*
X6445595Y-21042500D01*
X6464643Y-21032976D01*
X6502738Y-21032976D01*
X6521786Y-21042500D01*
X6531309Y-21052024D01*
X6540833Y-21071072D01*
X6540833Y-21080595D01*
X6531309Y-21099643D01*
X6521786Y-21109167D01*
X6502738Y-21118691D01*
X6464643Y-21118691D01*
X6445595Y-21128214D01*
X6436071Y-21137738D01*
X6426548Y-21156786D01*
X6426548Y-21194881D01*
X6436071Y-21213929D01*
X6445595Y-21223452D01*
X6464643Y-21232976D01*
X6502738Y-21232976D01*
X6521786Y-21223452D01*
X6531309Y-21213929D01*
X6540833Y-21194881D01*
X6540833Y-21156786D01*
X6531309Y-21137738D01*
X6521786Y-21128214D01*
X6502738Y-21118691D01*
X6778928Y-21232976D02*
X6778928Y-21032976D01*
X6864643Y-21232976D02*
X6864643Y-21128214D01*
X6855119Y-21109167D01*
X6836071Y-21099643D01*
X6807500Y-21099643D01*
X6788452Y-21109167D01*
X6778928Y-21118691D01*
X6988452Y-21232976D02*
X6969405Y-21223452D01*
X6959881Y-21213929D01*
X6950357Y-21194881D01*
X6950357Y-21137738D01*
X6959881Y-21118691D01*
X6969405Y-21109167D01*
X6988452Y-21099643D01*
X7017024Y-21099643D01*
X7036071Y-21109167D01*
X7045595Y-21118691D01*
X7055119Y-21137738D01*
X7055119Y-21194881D01*
X7045595Y-21213929D01*
X7036071Y-21223452D01*
X7017024Y-21232976D01*
X6988452Y-21232976D01*
X7169405Y-21232976D02*
X7150357Y-21223452D01*
X7140833Y-21204405D01*
X7140833Y-21032976D01*
X7321786Y-21223452D02*
X7302738Y-21232976D01*
X7264643Y-21232976D01*
X7245595Y-21223452D01*
X7236071Y-21204405D01*
X7236071Y-21128214D01*
X7245595Y-21109167D01*
X7264643Y-21099643D01*
X7302738Y-21099643D01*
X7321786Y-21109167D01*
X7331309Y-21128214D01*
X7331309Y-21147262D01*
X7236071Y-21166310D01*
X7407500Y-21223452D02*
X7426548Y-21232976D01*
X7464643Y-21232976D01*
X7483690Y-21223452D01*
X7493214Y-21204405D01*
X7493214Y-21194881D01*
X7483690Y-21175833D01*
X7464643Y-21166310D01*
X7436071Y-21166310D01*
X7417024Y-21156786D01*
X7407500Y-21137738D01*
X7407500Y-21128214D01*
X7417024Y-21109167D01*
X7436071Y-21099643D01*
X7464643Y-21099643D01*
X7483690Y-21109167D01*
X7559881Y-21309167D02*
X7569405Y-21299643D01*
X7588452Y-21271072D01*
X7597976Y-21252024D01*
X7607500Y-21223452D01*
X7617024Y-21175833D01*
X7617024Y-21137738D01*
X7607500Y-21090119D01*
X7597976Y-21061548D01*
X7588452Y-21042500D01*
X7569405Y-21013929D01*
X7559881Y-21004405D01*
M02*
