G04 #@! TF.GenerationSoftware,KiCad,Pcbnew,(6.0.10)*
G04 #@! TF.CreationDate,2023-02-11T23:58:13+13:00*
G04 #@! TF.ProjectId,orthoCode,6f727468-6f43-46f6-9465-2e6b69636164,rev?*
G04 #@! TF.SameCoordinates,Original*
G04 #@! TF.FileFunction,Soldermask,Top*
G04 #@! TF.FilePolarity,Negative*
%FSLAX46Y46*%
G04 Gerber Fmt 4.6, Leading zero omitted, Abs format (unit mm)*
G04 Created by KiCad (PCBNEW (6.0.10)) date 2023-02-11 23:58:13*
%MOMM*%
%LPD*%
G01*
G04 APERTURE LIST*
G04 Aperture macros list*
%AMRoundRect*
0 Rectangle with rounded corners*
0 $1 Rounding radius*
0 $2 $3 $4 $5 $6 $7 $8 $9 X,Y pos of 4 corners*
0 Add a 4 corners polygon primitive as box body*
4,1,4,$2,$3,$4,$5,$6,$7,$8,$9,$2,$3,0*
0 Add four circle primitives for the rounded corners*
1,1,$1+$1,$2,$3*
1,1,$1+$1,$4,$5*
1,1,$1+$1,$6,$7*
1,1,$1+$1,$8,$9*
0 Add four rect primitives between the rounded corners*
20,1,$1+$1,$2,$3,$4,$5,0*
20,1,$1+$1,$4,$5,$6,$7,0*
20,1,$1+$1,$6,$7,$8,$9,0*
20,1,$1+$1,$8,$9,$2,$3,0*%
%AMRotRect*
0 Rectangle, with rotation*
0 The origin of the aperture is its center*
0 $1 length*
0 $2 width*
0 $3 Rotation angle, in degrees counterclockwise*
0 Add horizontal line*
21,1,$1,$2,0,0,$3*%
G04 Aperture macros list end*
%ADD10C,2.800000*%
%ADD11C,2.000000*%
%ADD12RoundRect,0.250000X0.250000X0.475000X-0.250000X0.475000X-0.250000X-0.475000X0.250000X-0.475000X0*%
%ADD13R,0.450000X0.600000*%
%ADD14C,1.900000*%
%ADD15C,1.250000*%
%ADD16C,5.050000*%
%ADD17C,1.650000*%
%ADD18RoundRect,0.250000X-0.250000X-0.475000X0.250000X-0.475000X0.250000X0.475000X-0.250000X0.475000X0*%
%ADD19RoundRect,0.250000X0.450000X-0.262500X0.450000X0.262500X-0.450000X0.262500X-0.450000X-0.262500X0*%
%ADD20RoundRect,0.250000X0.262500X0.450000X-0.262500X0.450000X-0.262500X-0.450000X0.262500X-0.450000X0*%
%ADD21RoundRect,0.250000X-0.262500X-0.450000X0.262500X-0.450000X0.262500X0.450000X-0.262500X0.450000X0*%
%ADD22R,0.300000X0.700000*%
%ADD23R,1.000000X0.700000*%
%ADD24O,1.200000X2.200000*%
%ADD25O,1.200000X2.700000*%
%ADD26O,1.200000X2.600000*%
%ADD27RoundRect,0.250000X0.475000X-0.250000X0.475000X0.250000X-0.475000X0.250000X-0.475000X-0.250000X0*%
%ADD28RoundRect,0.062500X-0.062500X0.475000X-0.062500X-0.475000X0.062500X-0.475000X0.062500X0.475000X0*%
%ADD29RoundRect,0.062500X-0.475000X0.062500X-0.475000X-0.062500X0.475000X-0.062500X0.475000X0.062500X0*%
%ADD30R,5.200000X5.200000*%
%ADD31RotRect,1.400000X1.200000X45.000000*%
%ADD32RoundRect,0.250000X-0.475000X0.250000X-0.475000X-0.250000X0.475000X-0.250000X0.475000X0.250000X0*%
G04 APERTURE END LIST*
D10*
X184900000Y-134800000D03*
X184900000Y-134800000D03*
X220100000Y-134800000D03*
X220100000Y-134800000D03*
X242000000Y-183000000D03*
X242000000Y-183000000D03*
X274000000Y-147000000D03*
X274000000Y-147000000D03*
X384000000Y-128000000D03*
X384000000Y-128000000D03*
X385000000Y-62000000D03*
X385000000Y-62000000D03*
X224500000Y-62000000D03*
X224500000Y-62000000D03*
X220000000Y-73400000D03*
X220000000Y-73400000D03*
X185000000Y-73400000D03*
X185000000Y-73400000D03*
X180500000Y-62000000D03*
X180500000Y-62000000D03*
X31000000Y-62000000D03*
X31000000Y-62000000D03*
X31000000Y-147000000D03*
X31000000Y-147000000D03*
X126000000Y-147000000D03*
X126000000Y-147000000D03*
X163000000Y-183000000D03*
X163000000Y-183000000D03*
D11*
X213250000Y-107150000D03*
X206750000Y-107150000D03*
X206750000Y-111650000D03*
X213250000Y-111650000D03*
D12*
X195200000Y-98000000D03*
X193300000Y-98000000D03*
X195200000Y-90250000D03*
X193300000Y-90250000D03*
D13*
X202800000Y-141350000D03*
X202800000Y-143450000D03*
X187400000Y-141350000D03*
X187400000Y-143450000D03*
X189600000Y-141350000D03*
X189600000Y-143450000D03*
X191800000Y-141350000D03*
X191800000Y-143450000D03*
X194000000Y-141350000D03*
X194000000Y-143450000D03*
X196200000Y-141350000D03*
X196200000Y-143450000D03*
X198400000Y-141350000D03*
X198400000Y-143450000D03*
X200600000Y-141350000D03*
X200600000Y-143450000D03*
X216000000Y-141350000D03*
X216000000Y-143450000D03*
X213800000Y-141350000D03*
X213800000Y-143450000D03*
X211600000Y-141350000D03*
X211600000Y-143450000D03*
X209400000Y-141350000D03*
X209400000Y-143450000D03*
X207200000Y-141350000D03*
X207200000Y-143450000D03*
X205000000Y-141350000D03*
X205000000Y-143450000D03*
X200600000Y-134950000D03*
X200600000Y-137050000D03*
X198400000Y-134950000D03*
X198400000Y-137050000D03*
X196200000Y-134950000D03*
X196200000Y-137050000D03*
X194000000Y-134950000D03*
X194000000Y-137050000D03*
X191800000Y-134950000D03*
X191800000Y-137050000D03*
X189600000Y-134950000D03*
X189600000Y-137050000D03*
X213800000Y-134950000D03*
X213800000Y-137050000D03*
X211600000Y-134950000D03*
X211600000Y-137050000D03*
X209400000Y-134950000D03*
X209400000Y-137050000D03*
X207200000Y-134950000D03*
X207200000Y-137050000D03*
X205000000Y-134950000D03*
X205000000Y-137050000D03*
X202800000Y-137050000D03*
X202800000Y-134950000D03*
X187400000Y-130850000D03*
X187400000Y-128750000D03*
X189600000Y-130850000D03*
X189600000Y-128750000D03*
X191800000Y-130850000D03*
X191800000Y-128750000D03*
X194000000Y-130850000D03*
X194000000Y-128750000D03*
X196200000Y-130850000D03*
X196200000Y-128750000D03*
X198400000Y-130850000D03*
X198400000Y-128750000D03*
X200600000Y-130850000D03*
X200600000Y-128750000D03*
X202800000Y-130850000D03*
X202800000Y-128750000D03*
X205000000Y-130850000D03*
X205000000Y-128750000D03*
X207200000Y-130850000D03*
X207200000Y-128750000D03*
X209400000Y-128750000D03*
X209400000Y-130850000D03*
X211600000Y-130850000D03*
X211600000Y-128750000D03*
X213800000Y-130850000D03*
X213800000Y-128750000D03*
X216000000Y-130850000D03*
X216000000Y-128750000D03*
X187400000Y-124850000D03*
X187400000Y-122750000D03*
X189600000Y-122750000D03*
X189600000Y-124850000D03*
X191800000Y-124850000D03*
X191800000Y-122750000D03*
X194000000Y-124850000D03*
X194000000Y-122750000D03*
X196200000Y-124850000D03*
X196200000Y-122750000D03*
X198400000Y-124850000D03*
X198400000Y-122750000D03*
X200600000Y-124850000D03*
X200600000Y-122750000D03*
X202800000Y-124850000D03*
X202800000Y-122750000D03*
X205000000Y-124850000D03*
X205000000Y-122750000D03*
X207200000Y-124850000D03*
X207200000Y-122750000D03*
X209400000Y-124850000D03*
X209400000Y-122750000D03*
X211600000Y-124850000D03*
X211600000Y-122750000D03*
X213800000Y-124850000D03*
X213800000Y-122750000D03*
X216000000Y-124850000D03*
X216000000Y-122750000D03*
X218200000Y-124850000D03*
X218200000Y-122750000D03*
X187400000Y-118450000D03*
X187400000Y-116350000D03*
X189600000Y-118450000D03*
X189600000Y-116350000D03*
X191800000Y-118450000D03*
X191800000Y-116350000D03*
X194000000Y-118450000D03*
X194000000Y-116350000D03*
X196200000Y-118450000D03*
X196200000Y-116350000D03*
X198400000Y-118450000D03*
X198400000Y-116350000D03*
X200600000Y-118450000D03*
X200600000Y-116350000D03*
X202800000Y-118450000D03*
X202800000Y-116350000D03*
X205000000Y-118450000D03*
X205000000Y-116350000D03*
X207200000Y-118450000D03*
X207200000Y-116350000D03*
X209400000Y-118450000D03*
X209400000Y-116350000D03*
X211600000Y-118450000D03*
X211600000Y-116350000D03*
X213800000Y-118450000D03*
X213800000Y-116350000D03*
X216000000Y-118450000D03*
X216000000Y-116350000D03*
X218200000Y-118450000D03*
X218200000Y-116350000D03*
D14*
X239548505Y-169618842D03*
X236701495Y-158993658D03*
D15*
X232426038Y-165833282D03*
D16*
X238125000Y-164306250D03*
D17*
X244393613Y-167802961D03*
D15*
X233160387Y-160460133D03*
D14*
X67412500Y-142875000D03*
D15*
X66912500Y-139075000D03*
D16*
X61912500Y-142875000D03*
D14*
X56412500Y-142875000D03*
D17*
X56912500Y-148025000D03*
D15*
X61912500Y-136975000D03*
D14*
X91225000Y-142875000D03*
D16*
X85725000Y-142875000D03*
D15*
X90725000Y-139075000D03*
D14*
X80225000Y-142875000D03*
D15*
X85725000Y-136975000D03*
D17*
X80725000Y-148025000D03*
X104537500Y-148025000D03*
D15*
X109537500Y-136975000D03*
D14*
X104037500Y-142875000D03*
X115037500Y-142875000D03*
D15*
X114537500Y-139075000D03*
D16*
X109537500Y-142875000D03*
D14*
X137375000Y-142875000D03*
D17*
X137875000Y-148025000D03*
D15*
X147875000Y-139075000D03*
X142875000Y-136975000D03*
D16*
X142875000Y-142875000D03*
D14*
X148375000Y-142875000D03*
D17*
X163007077Y-158143703D03*
D14*
X168111005Y-158993658D03*
D16*
X166687500Y-164306250D03*
D14*
X165263995Y-169618842D03*
D15*
X172386462Y-165833282D03*
X169063923Y-170119392D03*
D14*
X187161005Y-163756158D03*
D15*
X183361077Y-163255608D03*
X180038538Y-167541718D03*
D14*
X184313995Y-174381342D03*
D17*
X189417923Y-175231297D03*
D16*
X185737500Y-169068750D03*
D15*
X224039613Y-172914867D03*
D14*
X217651495Y-163756158D03*
D15*
X224773962Y-167541718D03*
D14*
X220498505Y-174381342D03*
D17*
X212806387Y-165572039D03*
D16*
X219075000Y-169068750D03*
D14*
X267437500Y-142875000D03*
X256437500Y-142875000D03*
D15*
X266937500Y-139075000D03*
X261937500Y-136975000D03*
D17*
X256937500Y-148025000D03*
D16*
X261937500Y-142875000D03*
D14*
X280250000Y-142875000D03*
D15*
X285750000Y-136975000D03*
D14*
X291250000Y-142875000D03*
D17*
X280750000Y-148025000D03*
D15*
X290750000Y-139075000D03*
D16*
X285750000Y-142875000D03*
X309562500Y-142875000D03*
D15*
X314562500Y-139075000D03*
X309562500Y-136975000D03*
D14*
X304062500Y-142875000D03*
D17*
X304562500Y-148025000D03*
D14*
X315062500Y-142875000D03*
D15*
X345518750Y-139075000D03*
D16*
X340518750Y-142875000D03*
D14*
X335018750Y-142875000D03*
D15*
X340518750Y-136975000D03*
D17*
X335518750Y-148025000D03*
D14*
X346018750Y-142875000D03*
D15*
X364568750Y-139075000D03*
D14*
X354068750Y-142875000D03*
D15*
X359568750Y-136975000D03*
D14*
X365068750Y-142875000D03*
D16*
X359568750Y-142875000D03*
D17*
X354568750Y-148025000D03*
D16*
X378618750Y-142875000D03*
D15*
X378618750Y-136975000D03*
D14*
X384118750Y-142875000D03*
D15*
X383618750Y-139075000D03*
D17*
X373618750Y-148025000D03*
D14*
X373118750Y-142875000D03*
X87368750Y-123825000D03*
D17*
X87868750Y-128975000D03*
D16*
X92868750Y-123825000D03*
D15*
X97868750Y-120025000D03*
D14*
X98368750Y-123825000D03*
D15*
X92868750Y-117925000D03*
D17*
X106918750Y-128975000D03*
D16*
X111918750Y-123825000D03*
D15*
X116918750Y-120025000D03*
X111918750Y-117925000D03*
D14*
X106418750Y-123825000D03*
X117418750Y-123825000D03*
X136468750Y-123825000D03*
D15*
X135968750Y-120025000D03*
D14*
X125468750Y-123825000D03*
D17*
X125968750Y-128975000D03*
D15*
X130968750Y-117925000D03*
D16*
X130968750Y-123825000D03*
D17*
X145018750Y-128975000D03*
D14*
X144518750Y-123825000D03*
D16*
X150018750Y-123825000D03*
D15*
X150018750Y-117925000D03*
X155018750Y-120025000D03*
D14*
X155518750Y-123825000D03*
D15*
X174068750Y-120025000D03*
D14*
X174568750Y-123825000D03*
X163568750Y-123825000D03*
D16*
X169068750Y-123825000D03*
D17*
X164068750Y-128975000D03*
D15*
X169068750Y-117925000D03*
D16*
X235743750Y-123825000D03*
D15*
X235743750Y-117925000D03*
X240743750Y-120025000D03*
D17*
X230743750Y-128975000D03*
D14*
X241243750Y-123825000D03*
X230243750Y-123825000D03*
D15*
X254793750Y-117925000D03*
D14*
X249293750Y-123825000D03*
D16*
X254793750Y-123825000D03*
D14*
X260293750Y-123825000D03*
D17*
X249793750Y-128975000D03*
D15*
X259793750Y-120025000D03*
D14*
X279343750Y-123825000D03*
D16*
X273843750Y-123825000D03*
D14*
X268343750Y-123825000D03*
D15*
X273843750Y-117925000D03*
X278843750Y-120025000D03*
D17*
X268843750Y-128975000D03*
D15*
X297893750Y-120025000D03*
D16*
X292893750Y-123825000D03*
D15*
X292893750Y-117925000D03*
D14*
X287393750Y-123825000D03*
D17*
X287893750Y-128975000D03*
D14*
X298393750Y-123825000D03*
D15*
X316943750Y-120025000D03*
D16*
X311943750Y-123825000D03*
D14*
X317443750Y-123825000D03*
D15*
X311943750Y-117925000D03*
D17*
X306943750Y-128975000D03*
D14*
X306443750Y-123825000D03*
X354068750Y-123825000D03*
X365068750Y-123825000D03*
D16*
X359568750Y-123825000D03*
D17*
X354568750Y-128975000D03*
D15*
X359568750Y-117925000D03*
X364568750Y-120025000D03*
D14*
X41218750Y-104775000D03*
X30218750Y-104775000D03*
D16*
X35718750Y-104775000D03*
D15*
X40718750Y-100975000D03*
D17*
X30718750Y-109925000D03*
D15*
X35718750Y-98875000D03*
D17*
X61675000Y-109925000D03*
D14*
X72175000Y-104775000D03*
X61175000Y-104775000D03*
D15*
X71675000Y-100975000D03*
D16*
X66675000Y-104775000D03*
D15*
X66675000Y-98875000D03*
X97868750Y-100975000D03*
D17*
X87868750Y-109925000D03*
D14*
X87368750Y-104775000D03*
D16*
X92868750Y-104775000D03*
D15*
X92868750Y-98875000D03*
D14*
X98368750Y-104775000D03*
D15*
X116918750Y-100975000D03*
X111918750Y-98875000D03*
D14*
X117418750Y-104775000D03*
D17*
X106918750Y-109925000D03*
D16*
X111918750Y-104775000D03*
D14*
X106418750Y-104775000D03*
D15*
X135968750Y-100975000D03*
D14*
X125468750Y-104775000D03*
X136468750Y-104775000D03*
D16*
X130968750Y-104775000D03*
D15*
X130968750Y-98875000D03*
D17*
X125968750Y-109925000D03*
D15*
X150018750Y-98875000D03*
D14*
X155518750Y-104775000D03*
D17*
X145018750Y-109925000D03*
D14*
X144518750Y-104775000D03*
D15*
X155018750Y-100975000D03*
D16*
X150018750Y-104775000D03*
D17*
X164068750Y-109925000D03*
D16*
X169068750Y-104775000D03*
D15*
X169068750Y-98875000D03*
D14*
X163568750Y-104775000D03*
X174568750Y-104775000D03*
D15*
X174068750Y-100975000D03*
D14*
X230243750Y-104775000D03*
D17*
X230743750Y-109925000D03*
D14*
X241243750Y-104775000D03*
D15*
X240743750Y-100975000D03*
X235743750Y-98875000D03*
D16*
X235743750Y-104775000D03*
D14*
X249293750Y-104775000D03*
D15*
X254793750Y-98875000D03*
X259793750Y-100975000D03*
D14*
X260293750Y-104775000D03*
D17*
X249793750Y-109925000D03*
D16*
X254793750Y-104775000D03*
D17*
X268843750Y-109925000D03*
D15*
X273843750Y-98875000D03*
D16*
X273843750Y-104775000D03*
D14*
X268343750Y-104775000D03*
D15*
X278843750Y-100975000D03*
D14*
X279343750Y-104775000D03*
X298393750Y-104775000D03*
D15*
X297893750Y-100975000D03*
D16*
X292893750Y-104775000D03*
D17*
X287893750Y-109925000D03*
D14*
X287393750Y-104775000D03*
D15*
X292893750Y-98875000D03*
D17*
X306943750Y-109925000D03*
D15*
X311943750Y-98875000D03*
D14*
X317443750Y-104775000D03*
D15*
X316943750Y-100975000D03*
D14*
X306443750Y-104775000D03*
D16*
X311943750Y-104775000D03*
D15*
X335993750Y-100975000D03*
D14*
X325493750Y-104775000D03*
D16*
X330993750Y-104775000D03*
D15*
X330993750Y-98875000D03*
D14*
X336493750Y-104775000D03*
D17*
X325993750Y-109925000D03*
D14*
X356450000Y-104775000D03*
D17*
X356950000Y-109925000D03*
D16*
X361950000Y-104775000D03*
D15*
X361950000Y-98875000D03*
X366950000Y-100975000D03*
D14*
X367450000Y-104775000D03*
X34981250Y-85725000D03*
D16*
X40481250Y-85725000D03*
D15*
X40481250Y-79825000D03*
D17*
X35481250Y-90875000D03*
D14*
X45981250Y-85725000D03*
D15*
X45481250Y-81925000D03*
D14*
X74556250Y-85725000D03*
D15*
X69056250Y-79825000D03*
D16*
X69056250Y-85725000D03*
D14*
X63556250Y-85725000D03*
D15*
X74056250Y-81925000D03*
D17*
X64056250Y-90875000D03*
D15*
X97868750Y-81925000D03*
D17*
X87868750Y-90875000D03*
D14*
X98368750Y-85725000D03*
X87368750Y-85725000D03*
D15*
X92868750Y-79825000D03*
D16*
X92868750Y-85725000D03*
D14*
X117418750Y-85725000D03*
D15*
X116918750Y-81925000D03*
D14*
X106418750Y-85725000D03*
D15*
X111918750Y-79825000D03*
D16*
X111918750Y-85725000D03*
D17*
X106918750Y-90875000D03*
D15*
X130968750Y-79825000D03*
D17*
X125968750Y-90875000D03*
D14*
X136468750Y-85725000D03*
D15*
X135968750Y-81925000D03*
D14*
X125468750Y-85725000D03*
D16*
X130968750Y-85725000D03*
D14*
X155518750Y-85725000D03*
X144518750Y-85725000D03*
D16*
X150018750Y-85725000D03*
D17*
X145018750Y-90875000D03*
D15*
X155018750Y-81925000D03*
X150018750Y-79825000D03*
X174068750Y-81925000D03*
X169068750Y-79825000D03*
D14*
X163568750Y-85725000D03*
D16*
X169068750Y-85725000D03*
D17*
X164068750Y-90875000D03*
D14*
X174568750Y-85725000D03*
X230243750Y-85725000D03*
D17*
X230743750Y-90875000D03*
D14*
X241243750Y-85725000D03*
D15*
X240743750Y-81925000D03*
D16*
X235743750Y-85725000D03*
D15*
X235743750Y-79825000D03*
D16*
X254793750Y-85725000D03*
D17*
X249793750Y-90875000D03*
D15*
X259793750Y-81925000D03*
X254793750Y-79825000D03*
D14*
X260293750Y-85725000D03*
X249293750Y-85725000D03*
D15*
X278843750Y-81925000D03*
D14*
X268343750Y-85725000D03*
D15*
X273843750Y-79825000D03*
D17*
X268843750Y-90875000D03*
D14*
X279343750Y-85725000D03*
D16*
X273843750Y-85725000D03*
D17*
X287893750Y-90875000D03*
D15*
X297893750Y-81925000D03*
X292893750Y-79825000D03*
D16*
X292893750Y-85725000D03*
D14*
X287393750Y-85725000D03*
X298393750Y-85725000D03*
D16*
X311943750Y-85725000D03*
D14*
X317443750Y-85725000D03*
D17*
X306943750Y-90875000D03*
D14*
X306443750Y-85725000D03*
D15*
X311943750Y-79825000D03*
X316943750Y-81925000D03*
D14*
X341256250Y-85725000D03*
D15*
X335756250Y-79825000D03*
X340756250Y-81925000D03*
D16*
X335756250Y-85725000D03*
D17*
X330756250Y-90875000D03*
D14*
X330256250Y-85725000D03*
X354068750Y-85725000D03*
D15*
X364568750Y-81925000D03*
D14*
X365068750Y-85725000D03*
D16*
X359568750Y-85725000D03*
D17*
X354568750Y-90875000D03*
D15*
X359568750Y-79825000D03*
D14*
X373118750Y-85725000D03*
X384118750Y-85725000D03*
D15*
X383618750Y-81925000D03*
X378618750Y-79825000D03*
D17*
X373618750Y-90875000D03*
D16*
X378618750Y-85725000D03*
D15*
X45243750Y-60775000D03*
D14*
X50743750Y-66675000D03*
X39743750Y-66675000D03*
D15*
X50243750Y-62875000D03*
D17*
X40243750Y-71825000D03*
D16*
X45243750Y-66675000D03*
D15*
X69056250Y-60775000D03*
D14*
X74556250Y-66675000D03*
D16*
X69056250Y-66675000D03*
D14*
X63556250Y-66675000D03*
D15*
X74056250Y-62875000D03*
D17*
X64056250Y-71825000D03*
D15*
X92868750Y-60775000D03*
X97868750Y-62875000D03*
D16*
X92868750Y-66675000D03*
D14*
X87368750Y-66675000D03*
D17*
X87868750Y-71825000D03*
D14*
X98368750Y-66675000D03*
X117418750Y-66675000D03*
X106418750Y-66675000D03*
D15*
X116918750Y-62875000D03*
D17*
X106918750Y-71825000D03*
D16*
X111918750Y-66675000D03*
D15*
X111918750Y-60775000D03*
X135968750Y-62875000D03*
D14*
X125468750Y-66675000D03*
D15*
X130968750Y-60775000D03*
D17*
X125968750Y-71825000D03*
D16*
X130968750Y-66675000D03*
D14*
X136468750Y-66675000D03*
X155518750Y-66675000D03*
D15*
X155018750Y-62875000D03*
D16*
X150018750Y-66675000D03*
D15*
X150018750Y-60775000D03*
D14*
X144518750Y-66675000D03*
D17*
X145018750Y-71825000D03*
D15*
X169068750Y-60775000D03*
D14*
X174568750Y-66675000D03*
D15*
X174068750Y-62875000D03*
D16*
X169068750Y-66675000D03*
D17*
X164068750Y-71825000D03*
D14*
X163568750Y-66675000D03*
X230243750Y-66675000D03*
D15*
X235743750Y-60775000D03*
D16*
X235743750Y-66675000D03*
D14*
X241243750Y-66675000D03*
D15*
X240743750Y-62875000D03*
D17*
X230743750Y-71825000D03*
D14*
X260293750Y-66675000D03*
D17*
X249793750Y-71825000D03*
D14*
X249293750Y-66675000D03*
D15*
X254793750Y-60775000D03*
D16*
X254793750Y-66675000D03*
D15*
X259793750Y-62875000D03*
X278843750Y-62875000D03*
D16*
X273843750Y-66675000D03*
D14*
X279343750Y-66675000D03*
D15*
X273843750Y-60775000D03*
D17*
X268843750Y-71825000D03*
D14*
X268343750Y-66675000D03*
X298393750Y-66675000D03*
D15*
X297893750Y-62875000D03*
D14*
X287393750Y-66675000D03*
D16*
X292893750Y-66675000D03*
D15*
X292893750Y-60775000D03*
D17*
X287893750Y-71825000D03*
D14*
X317443750Y-66675000D03*
D15*
X311943750Y-60775000D03*
D14*
X306443750Y-66675000D03*
D17*
X306943750Y-71825000D03*
D16*
X311943750Y-66675000D03*
D15*
X316943750Y-62875000D03*
X335993750Y-62875000D03*
X330993750Y-60775000D03*
D14*
X336493750Y-66675000D03*
X325493750Y-66675000D03*
D16*
X330993750Y-66675000D03*
D17*
X325993750Y-71825000D03*
D16*
X350043750Y-66675000D03*
D14*
X344543750Y-66675000D03*
D15*
X355043750Y-62875000D03*
D14*
X355543750Y-66675000D03*
D15*
X350043750Y-60775000D03*
D17*
X345043750Y-71825000D03*
X364093750Y-71825000D03*
D16*
X369093750Y-66675000D03*
D15*
X369093750Y-60775000D03*
D14*
X363593750Y-66675000D03*
D15*
X374093750Y-62875000D03*
D14*
X374593750Y-66675000D03*
D11*
X190150000Y-111650000D03*
X196650000Y-111650000D03*
X196650000Y-107150000D03*
X190150000Y-107150000D03*
D16*
X61912500Y-123825000D03*
D14*
X67412500Y-123825000D03*
D15*
X61912500Y-117925000D03*
X66912500Y-120025000D03*
D17*
X56912500Y-128975000D03*
D14*
X56412500Y-123825000D03*
D18*
X210300000Y-91062500D03*
X212200000Y-91062500D03*
X207250000Y-87300000D03*
X209150000Y-87300000D03*
X210300000Y-96812500D03*
X212200000Y-96812500D03*
D19*
X209250000Y-81225000D03*
X209250000Y-79400000D03*
X199500000Y-81225000D03*
X199500000Y-79400000D03*
X206000000Y-85212500D03*
X206000000Y-83387500D03*
X203900000Y-85212500D03*
X203900000Y-83387500D03*
D20*
X207212500Y-80300000D03*
X205387500Y-80300000D03*
X194312500Y-104000000D03*
X192487500Y-104000000D03*
D18*
X202250000Y-87100000D03*
X204150000Y-87100000D03*
D21*
X208887500Y-104200000D03*
X210712500Y-104200000D03*
D22*
X205400000Y-74882500D03*
X204900000Y-74882500D03*
X204400000Y-74882500D03*
X203900000Y-74882500D03*
X203400000Y-74882500D03*
X202900000Y-74882500D03*
X201900000Y-74882500D03*
X201400000Y-74882500D03*
X200900000Y-74882500D03*
X200400000Y-74882500D03*
X199900000Y-74882500D03*
X199400000Y-74882500D03*
D23*
X199300000Y-73582500D03*
D22*
X200150000Y-73582500D03*
X200650000Y-73582500D03*
X201150000Y-73582500D03*
X201650000Y-73582500D03*
X202150000Y-73582500D03*
X202650000Y-73582500D03*
X203150000Y-73582500D03*
X203650000Y-73582500D03*
X204150000Y-73582500D03*
X204650000Y-73582500D03*
D23*
X205500000Y-73582500D03*
D24*
X206720000Y-74472500D03*
X198080000Y-74472500D03*
D25*
X206720000Y-69112500D03*
D26*
X198080000Y-69112500D03*
D27*
X198500000Y-90262500D03*
X198500000Y-88362500D03*
D28*
X206850000Y-90625000D03*
X206350000Y-90625000D03*
X205850000Y-90625000D03*
X205350000Y-90625000D03*
X204850000Y-90625000D03*
X204350000Y-90625000D03*
X203850000Y-90625000D03*
X203350000Y-90625000D03*
X202850000Y-90625000D03*
X202350000Y-90625000D03*
X201850000Y-90625000D03*
D29*
X201012500Y-91462500D03*
X201012500Y-91962500D03*
X201012500Y-92462500D03*
X201012500Y-92962500D03*
X201012500Y-93462500D03*
X201012500Y-93962500D03*
X201012500Y-94462500D03*
X201012500Y-94962500D03*
X201012500Y-95462500D03*
X201012500Y-95962500D03*
X201012500Y-96462500D03*
D28*
X201850000Y-97300000D03*
X202350000Y-97300000D03*
X202850000Y-97300000D03*
X203350000Y-97300000D03*
X203850000Y-97300000D03*
X204350000Y-97300000D03*
X204850000Y-97300000D03*
X205350000Y-97300000D03*
X205850000Y-97300000D03*
X206350000Y-97300000D03*
X206850000Y-97300000D03*
D29*
X207687500Y-96462500D03*
X207687500Y-95962500D03*
X207687500Y-95462500D03*
X207687500Y-94962500D03*
X207687500Y-94462500D03*
X207687500Y-93962500D03*
X207687500Y-93462500D03*
X207687500Y-92962500D03*
X207687500Y-92462500D03*
X207687500Y-91962500D03*
X207687500Y-91462500D03*
D30*
X204350000Y-93962500D03*
D31*
X194723223Y-95578858D03*
X196278858Y-94023223D03*
X195076777Y-92821142D03*
X193521142Y-94376777D03*
D32*
X201800000Y-100450000D03*
X201800000Y-102350000D03*
M02*
