M48
; DRILL file {KiCad (6.0.10)} date Tue Jul  4 23:09:50 2023
; FORMAT={-:-/ absolute / metric / decimal}
; #@! TF.CreationDate,2023-07-04T23:09:50+12:00
; #@! TF.GenerationSoftware,Kicad,Pcbnew,(6.0.10)
; #@! TF.FileFunction,Plated,1,2,PTH
FMAT,2
METRIC
; #@! TA.AperFunction,Plated,PTH,ViaDrill
T1C0.400
; #@! TA.AperFunction,Plated,PTH,ComponentDrill
T2C1.000
; #@! TA.AperFunction,Plated,PTH,ComponentDrill
T3C1.092
; #@! TA.AperFunction,Plated,PTH,ComponentDrill
T4C1.200
; #@! TA.AperFunction,Plated,PTH,ComponentDrill
T5C1.600
; #@! TA.AperFunction,Plated,PTH,ComponentDrill
T6C2.700
%
G90
G05
T1
X192.5Y-133.5
X195.0Y-114.0
X209.0Y-104.0
X225.5Y-93.0
T2
X198.75Y-105.75
X198.75Y-110.25
X205.25Y-105.75
X205.25Y-110.25
T3
X194.38Y-73.017
X194.38Y-75.557
X194.38Y-78.097
X194.38Y-80.637
X194.38Y-83.177
X194.38Y-85.717
X194.38Y-88.257
X194.38Y-90.797
X194.38Y-93.337
X194.38Y-95.877
X194.38Y-98.417
X194.38Y-100.957
X196.92Y-95.877
X199.46Y-95.877
X202.0Y-95.877
X209.62Y-73.017
X209.62Y-75.557
X209.62Y-78.097
X209.62Y-80.637
X209.62Y-83.177
X209.62Y-85.717
X209.62Y-88.257
X209.62Y-90.797
X209.62Y-93.337
X209.62Y-95.877
X209.62Y-98.417
X209.62Y-100.957
T4
X35.719Y-98.875
X40.481Y-79.825
X40.719Y-100.975
X45.244Y-60.775
X45.481Y-81.925
X50.244Y-62.875
X61.912Y-117.925
X61.912Y-136.975
X66.675Y-98.875
X66.912Y-120.025
X66.912Y-139.075
X69.056Y-60.775
X69.056Y-79.825
X71.675Y-100.975
X74.056Y-62.875
X74.056Y-81.925
X85.725Y-136.975
X90.725Y-139.075
X92.869Y-60.775
X92.869Y-79.825
X92.869Y-98.875
X92.869Y-117.925
X97.869Y-62.875
X97.869Y-81.925
X97.869Y-100.975
X97.869Y-120.025
X109.537Y-136.975
X111.919Y-60.775
X111.919Y-79.825
X111.919Y-98.875
X111.919Y-117.925
X114.537Y-139.075
X116.919Y-62.875
X116.919Y-81.925
X116.919Y-100.975
X116.919Y-120.025
X130.969Y-60.775
X130.969Y-79.825
X130.969Y-98.875
X130.969Y-117.925
X135.969Y-62.875
X135.969Y-81.925
X135.969Y-100.975
X135.969Y-120.025
X142.875Y-136.975
X147.875Y-139.075
X150.019Y-60.775
X150.019Y-79.825
X150.019Y-98.875
X150.019Y-117.925
X155.019Y-62.875
X155.019Y-81.925
X155.019Y-100.975
X155.019Y-120.025
X169.064Y-170.119
X169.069Y-60.775
X169.069Y-79.825
X169.069Y-98.875
X169.069Y-117.925
X172.386Y-165.833
X174.069Y-62.875
X174.069Y-81.925
X174.069Y-100.975
X174.069Y-120.025
X180.039Y-167.542
X183.361Y-163.256
X224.04Y-172.915
X224.774Y-167.542
X232.426Y-165.833
X233.16Y-160.46
X235.744Y-60.775
X235.744Y-79.825
X235.744Y-98.875
X235.744Y-117.925
X240.744Y-62.875
X240.744Y-81.925
X240.744Y-100.975
X240.744Y-120.025
X254.794Y-60.775
X254.794Y-79.825
X254.794Y-98.875
X254.794Y-117.925
X259.794Y-62.875
X259.794Y-81.925
X259.794Y-100.975
X259.794Y-120.025
X261.938Y-136.975
X266.938Y-139.075
X273.844Y-60.775
X273.844Y-79.825
X273.844Y-98.875
X273.844Y-117.925
X278.844Y-62.875
X278.844Y-81.925
X278.844Y-100.975
X278.844Y-120.025
X285.75Y-136.975
X290.75Y-139.075
X292.894Y-60.775
X292.894Y-79.825
X292.894Y-98.875
X292.894Y-117.925
X297.894Y-62.875
X297.894Y-81.925
X297.894Y-100.975
X297.894Y-120.025
X309.562Y-136.975
X311.944Y-60.775
X311.944Y-79.825
X311.944Y-98.875
X311.944Y-117.925
X314.562Y-139.075
X316.944Y-62.875
X316.944Y-81.925
X316.944Y-100.975
X316.944Y-120.025
X330.994Y-60.775
X330.994Y-98.875
X335.756Y-79.825
X335.994Y-62.875
X335.994Y-100.975
X340.519Y-136.975
X340.756Y-81.925
X345.519Y-139.075
X350.044Y-60.775
X355.044Y-62.875
X359.569Y-79.825
X359.569Y-117.925
X359.569Y-136.975
X361.95Y-98.875
X364.569Y-81.925
X364.569Y-120.025
X364.569Y-139.075
X366.95Y-100.975
X369.094Y-60.775
X374.094Y-62.875
X378.619Y-79.825
X378.619Y-136.975
X383.619Y-81.925
X383.619Y-139.075
T5
X30.719Y-109.925
X35.481Y-90.875
X40.244Y-71.825
X56.912Y-128.975
X56.912Y-148.025
X61.675Y-109.925
X64.056Y-71.825
X64.056Y-90.875
X80.725Y-148.025
X87.869Y-71.825
X87.869Y-90.875
X87.869Y-109.925
X87.869Y-128.975
X104.537Y-148.025
X106.919Y-71.825
X106.919Y-90.875
X106.919Y-109.925
X106.919Y-128.975
X125.969Y-71.825
X125.969Y-90.875
X125.969Y-109.925
X125.969Y-128.975
X137.875Y-148.025
X145.019Y-71.825
X145.019Y-90.875
X145.019Y-109.925
X145.019Y-128.975
X163.007Y-158.144
X164.069Y-71.825
X164.069Y-90.875
X164.069Y-109.925
X164.069Y-128.975
X189.418Y-175.231
X212.806Y-165.572
X230.744Y-71.825
X230.744Y-90.875
X230.744Y-109.925
X230.744Y-128.975
X244.394Y-167.803
X249.794Y-71.825
X249.794Y-90.875
X249.794Y-109.925
X249.794Y-128.975
X256.938Y-148.025
X268.844Y-71.825
X268.844Y-90.875
X268.844Y-109.925
X268.844Y-128.975
X280.75Y-148.025
X287.894Y-71.825
X287.894Y-90.875
X287.894Y-109.925
X287.894Y-128.975
X304.562Y-148.025
X306.944Y-71.825
X306.944Y-90.875
X306.944Y-109.925
X306.944Y-128.975
X325.994Y-71.825
X325.994Y-109.925
X330.756Y-90.875
X335.519Y-148.025
X345.044Y-71.825
X354.569Y-90.875
X354.569Y-128.975
X354.569Y-148.025
X356.95Y-109.925
X364.094Y-71.825
X373.619Y-90.875
X373.619Y-148.025
T6
X31.0Y-62.0
X31.0Y-147.0
X126.0Y-147.0
X163.0Y-183.0
X180.5Y-62.0
X185.0Y-117.5
X185.0Y-142.5
X220.0Y-117.5
X220.0Y-142.5
X224.5Y-62.0
X242.0Y-183.0
X274.0Y-147.0
X384.0Y-128.0
X385.0Y-62.0
T0
M30
