G04 #@! TF.GenerationSoftware,KiCad,Pcbnew,(6.0.10)*
G04 #@! TF.CreationDate,2023-07-04T23:09:34+12:00*
G04 #@! TF.ProjectId,orthoCode,6f727468-6f43-46f6-9465-2e6b69636164,rev?*
G04 #@! TF.SameCoordinates,Original*
G04 #@! TF.FileFunction,Legend,Bot*
G04 #@! TF.FilePolarity,Positive*
%FSLAX46Y46*%
G04 Gerber Fmt 4.6, Leading zero omitted, Abs format (unit mm)*
G04 Created by KiCad (PCBNEW (6.0.10)) date 2023-07-04 23:09:34*
%MOMM*%
%LPD*%
G01*
G04 APERTURE LIST*
%ADD10C,0.150000*%
%ADD11C,0.381000*%
%ADD12C,0.120000*%
%ADD13C,1.752600*%
%ADD14C,1.900000*%
%ADD15C,5.050000*%
%ADD16C,2.600000*%
%ADD17C,2.200000*%
%ADD18C,4.700000*%
%ADD19R,2.000000X2.000000*%
%ADD20C,2.000000*%
%ADD21R,0.450000X0.600000*%
G04 APERTURE END LIST*
D10*
X197262810Y-82738654D02*
X197186619Y-82738654D01*
X197110429Y-82776750D01*
X197072333Y-82814845D01*
X197034238Y-82891035D01*
X196996143Y-83043416D01*
X196996143Y-83233892D01*
X197034238Y-83386273D01*
X197072333Y-83462464D01*
X197110429Y-83500559D01*
X197186619Y-83538654D01*
X197262810Y-83538654D01*
X197339000Y-83500559D01*
X197377095Y-83462464D01*
X197415190Y-83386273D01*
X197453286Y-83233892D01*
X197453286Y-83043416D01*
X197415190Y-82891035D01*
X197377095Y-82814845D01*
X197339000Y-82776750D01*
X197262810Y-82738654D01*
X196234238Y-83538654D02*
X196691381Y-83538654D01*
X196462810Y-83538654D02*
X196462810Y-82738654D01*
X196539000Y-82852940D01*
X196615190Y-82929130D01*
X196691381Y-82967226D01*
X195967571Y-82738654D02*
X195434238Y-82738654D01*
X195777095Y-83538654D01*
X208064190Y-75156750D02*
X208140381Y-75118654D01*
X208254667Y-75118654D01*
X208368952Y-75156750D01*
X208445143Y-75232940D01*
X208483238Y-75309130D01*
X208521333Y-75461511D01*
X208521333Y-75575797D01*
X208483238Y-75728178D01*
X208445143Y-75804369D01*
X208368952Y-75880559D01*
X208254667Y-75918654D01*
X208178476Y-75918654D01*
X208064190Y-75880559D01*
X208026095Y-75842464D01*
X208026095Y-75575797D01*
X208178476Y-75575797D01*
X207683238Y-75918654D02*
X207683238Y-75118654D01*
X207226095Y-75918654D01*
X207226095Y-75118654D01*
X206845143Y-75918654D02*
X206845143Y-75118654D01*
X206654667Y-75118654D01*
X206540381Y-75156750D01*
X206464190Y-75232940D01*
X206426095Y-75309130D01*
X206388000Y-75461511D01*
X206388000Y-75575797D01*
X206426095Y-75728178D01*
X206464190Y-75804369D01*
X206540381Y-75880559D01*
X206654667Y-75918654D01*
X206845143Y-75918654D01*
X197148523Y-80236750D02*
X197224714Y-80198654D01*
X197339000Y-80198654D01*
X197453285Y-80236750D01*
X197529476Y-80312940D01*
X197567571Y-80389130D01*
X197605666Y-80541511D01*
X197605666Y-80655797D01*
X197567571Y-80808178D01*
X197529476Y-80884369D01*
X197453285Y-80960559D01*
X197339000Y-80998654D01*
X197262809Y-80998654D01*
X197148523Y-80960559D01*
X197110428Y-80922464D01*
X197110428Y-80655797D01*
X197262809Y-80655797D01*
X196767571Y-80998654D02*
X196767571Y-80198654D01*
X196310428Y-80998654D01*
X196310428Y-80198654D01*
X195929476Y-80998654D02*
X195929476Y-80198654D01*
X195739000Y-80198654D01*
X195624714Y-80236750D01*
X195548523Y-80312940D01*
X195510428Y-80389130D01*
X195472333Y-80541511D01*
X195472333Y-80655797D01*
X195510428Y-80808178D01*
X195548523Y-80884369D01*
X195624714Y-80960559D01*
X195739000Y-80998654D01*
X195929476Y-80998654D01*
X208070524Y-93698654D02*
X208527667Y-93698654D01*
X208299095Y-93698654D02*
X208299095Y-92898654D01*
X208375286Y-93012940D01*
X208451476Y-93089130D01*
X208527667Y-93127226D01*
X207308619Y-93698654D02*
X207765762Y-93698654D01*
X207537191Y-93698654D02*
X207537191Y-92898654D01*
X207613381Y-93012940D01*
X207689571Y-93089130D01*
X207765762Y-93127226D01*
X207041952Y-92898654D02*
X206546714Y-92898654D01*
X206813381Y-93203416D01*
X206699095Y-93203416D01*
X206622905Y-93241511D01*
X206584810Y-93279607D01*
X206546714Y-93355797D01*
X206546714Y-93546273D01*
X206584810Y-93622464D01*
X206622905Y-93660559D01*
X206699095Y-93698654D01*
X206927667Y-93698654D01*
X207003857Y-93660559D01*
X207041952Y-93622464D01*
X208337191Y-82738654D02*
X208261000Y-82738654D01*
X208184810Y-82776750D01*
X208146714Y-82814845D01*
X208108619Y-82891035D01*
X208070524Y-83043416D01*
X208070524Y-83233892D01*
X208108619Y-83386273D01*
X208146714Y-83462464D01*
X208184810Y-83500559D01*
X208261000Y-83538654D01*
X208337191Y-83538654D01*
X208413381Y-83500559D01*
X208451476Y-83462464D01*
X208489571Y-83386273D01*
X208527667Y-83233892D01*
X208527667Y-83043416D01*
X208489571Y-82891035D01*
X208451476Y-82814845D01*
X208413381Y-82776750D01*
X208337191Y-82738654D01*
X207803857Y-82738654D02*
X207308619Y-82738654D01*
X207575286Y-83043416D01*
X207461000Y-83043416D01*
X207384810Y-83081511D01*
X207346714Y-83119607D01*
X207308619Y-83195797D01*
X207308619Y-83386273D01*
X207346714Y-83462464D01*
X207384810Y-83500559D01*
X207461000Y-83538654D01*
X207689571Y-83538654D01*
X207765762Y-83500559D01*
X207803857Y-83462464D01*
X206546714Y-83538654D02*
X207003857Y-83538654D01*
X206775286Y-83538654D02*
X206775286Y-82738654D01*
X206851476Y-82852940D01*
X206927667Y-82929130D01*
X207003857Y-82967226D01*
X196996143Y-98778654D02*
X197453286Y-98778654D01*
X197224714Y-98778654D02*
X197224714Y-97978654D01*
X197300905Y-98092940D01*
X197377095Y-98169130D01*
X197453286Y-98207226D01*
X196500905Y-97978654D02*
X196424714Y-97978654D01*
X196348524Y-98016750D01*
X196310429Y-98054845D01*
X196272333Y-98131035D01*
X196234238Y-98283416D01*
X196234238Y-98473892D01*
X196272333Y-98626273D01*
X196310429Y-98702464D01*
X196348524Y-98740559D01*
X196424714Y-98778654D01*
X196500905Y-98778654D01*
X196577095Y-98740559D01*
X196615190Y-98702464D01*
X196653286Y-98626273D01*
X196691381Y-98473892D01*
X196691381Y-98283416D01*
X196653286Y-98131035D01*
X196615190Y-98054845D01*
X196577095Y-98016750D01*
X196500905Y-97978654D01*
X195548524Y-98245321D02*
X195548524Y-98778654D01*
X195739000Y-97940559D02*
X195929476Y-98511988D01*
X195434238Y-98511988D01*
X197262810Y-87848654D02*
X197186619Y-87848654D01*
X197110429Y-87886750D01*
X197072333Y-87924845D01*
X197034238Y-88001035D01*
X196996143Y-88153416D01*
X196996143Y-88343892D01*
X197034238Y-88496273D01*
X197072333Y-88572464D01*
X197110429Y-88610559D01*
X197186619Y-88648654D01*
X197262810Y-88648654D01*
X197339000Y-88610559D01*
X197377095Y-88572464D01*
X197415190Y-88496273D01*
X197453286Y-88343892D01*
X197453286Y-88153416D01*
X197415190Y-88001035D01*
X197377095Y-87924845D01*
X197339000Y-87886750D01*
X197262810Y-87848654D01*
X196691381Y-87924845D02*
X196653286Y-87886750D01*
X196577095Y-87848654D01*
X196386619Y-87848654D01*
X196310429Y-87886750D01*
X196272333Y-87924845D01*
X196234238Y-88001035D01*
X196234238Y-88077226D01*
X196272333Y-88191511D01*
X196729476Y-88648654D01*
X196234238Y-88648654D01*
X195929476Y-87924845D02*
X195891381Y-87886750D01*
X195815190Y-87848654D01*
X195624714Y-87848654D01*
X195548524Y-87886750D01*
X195510429Y-87924845D01*
X195472333Y-88001035D01*
X195472333Y-88077226D01*
X195510429Y-88191511D01*
X195967571Y-88648654D01*
X195472333Y-88648654D01*
X197262810Y-85348654D02*
X197186619Y-85348654D01*
X197110429Y-85386750D01*
X197072333Y-85424845D01*
X197034238Y-85501035D01*
X196996143Y-85653416D01*
X196996143Y-85843892D01*
X197034238Y-85996273D01*
X197072333Y-86072464D01*
X197110429Y-86110559D01*
X197186619Y-86148654D01*
X197262810Y-86148654D01*
X197339000Y-86110559D01*
X197377095Y-86072464D01*
X197415190Y-85996273D01*
X197453286Y-85843892D01*
X197453286Y-85653416D01*
X197415190Y-85501035D01*
X197377095Y-85424845D01*
X197339000Y-85386750D01*
X197262810Y-85348654D01*
X196691381Y-85424845D02*
X196653286Y-85386750D01*
X196577095Y-85348654D01*
X196386619Y-85348654D01*
X196310429Y-85386750D01*
X196272333Y-85424845D01*
X196234238Y-85501035D01*
X196234238Y-85577226D01*
X196272333Y-85691511D01*
X196729476Y-86148654D01*
X196234238Y-86148654D01*
X195739000Y-85348654D02*
X195662810Y-85348654D01*
X195586619Y-85386750D01*
X195548524Y-85424845D01*
X195510429Y-85501035D01*
X195472333Y-85653416D01*
X195472333Y-85843892D01*
X195510429Y-85996273D01*
X195548524Y-86072464D01*
X195586619Y-86110559D01*
X195662810Y-86148654D01*
X195739000Y-86148654D01*
X195815190Y-86110559D01*
X195853286Y-86072464D01*
X195891381Y-85996273D01*
X195929476Y-85843892D01*
X195929476Y-85653416D01*
X195891381Y-85501035D01*
X195853286Y-85424845D01*
X195815190Y-85386750D01*
X195739000Y-85348654D01*
X208070524Y-96238654D02*
X208527667Y-96238654D01*
X208299095Y-96238654D02*
X208299095Y-95438654D01*
X208375286Y-95552940D01*
X208451476Y-95629130D01*
X208527667Y-95667226D01*
X207308619Y-96238654D02*
X207765762Y-96238654D01*
X207537191Y-96238654D02*
X207537191Y-95438654D01*
X207613381Y-95552940D01*
X207689571Y-95629130D01*
X207765762Y-95667226D01*
X206546714Y-96238654D02*
X207003857Y-96238654D01*
X206775286Y-96238654D02*
X206775286Y-95438654D01*
X206851476Y-95552940D01*
X206927667Y-95629130D01*
X207003857Y-95667226D01*
X197262810Y-90348654D02*
X197186619Y-90348654D01*
X197110429Y-90386750D01*
X197072333Y-90424845D01*
X197034238Y-90501035D01*
X196996143Y-90653416D01*
X196996143Y-90843892D01*
X197034238Y-90996273D01*
X197072333Y-91072464D01*
X197110429Y-91110559D01*
X197186619Y-91148654D01*
X197262810Y-91148654D01*
X197339000Y-91110559D01*
X197377095Y-91072464D01*
X197415190Y-90996273D01*
X197453286Y-90843892D01*
X197453286Y-90653416D01*
X197415190Y-90501035D01*
X197377095Y-90424845D01*
X197339000Y-90386750D01*
X197262810Y-90348654D01*
X196691381Y-90424845D02*
X196653286Y-90386750D01*
X196577095Y-90348654D01*
X196386619Y-90348654D01*
X196310429Y-90386750D01*
X196272333Y-90424845D01*
X196234238Y-90501035D01*
X196234238Y-90577226D01*
X196272333Y-90691511D01*
X196729476Y-91148654D01*
X196234238Y-91148654D01*
X195548524Y-90615321D02*
X195548524Y-91148654D01*
X195739000Y-90310559D02*
X195929476Y-90881988D01*
X195434238Y-90881988D01*
X208337191Y-97978654D02*
X208261000Y-97978654D01*
X208184810Y-98016750D01*
X208146714Y-98054845D01*
X208108619Y-98131035D01*
X208070524Y-98283416D01*
X208070524Y-98473892D01*
X208108619Y-98626273D01*
X208146714Y-98702464D01*
X208184810Y-98740559D01*
X208261000Y-98778654D01*
X208337191Y-98778654D01*
X208413381Y-98740559D01*
X208451476Y-98702464D01*
X208489571Y-98626273D01*
X208527667Y-98473892D01*
X208527667Y-98283416D01*
X208489571Y-98131035D01*
X208451476Y-98054845D01*
X208413381Y-98016750D01*
X208337191Y-97978654D01*
X207308619Y-98778654D02*
X207765762Y-98778654D01*
X207537191Y-98778654D02*
X207537191Y-97978654D01*
X207613381Y-98092940D01*
X207689571Y-98169130D01*
X207765762Y-98207226D01*
X206813381Y-97978654D02*
X206737191Y-97978654D01*
X206661000Y-98016750D01*
X206622905Y-98054845D01*
X206584810Y-98131035D01*
X206546714Y-98283416D01*
X206546714Y-98473892D01*
X206584810Y-98626273D01*
X206622905Y-98702464D01*
X206661000Y-98740559D01*
X206737191Y-98778654D01*
X206813381Y-98778654D01*
X206889571Y-98740559D01*
X206927667Y-98702464D01*
X206965762Y-98626273D01*
X207003857Y-98473892D01*
X207003857Y-98283416D01*
X206965762Y-98131035D01*
X206927667Y-98054845D01*
X206889571Y-98016750D01*
X206813381Y-97978654D01*
X208337191Y-85278654D02*
X208261000Y-85278654D01*
X208184810Y-85316750D01*
X208146714Y-85354845D01*
X208108619Y-85431035D01*
X208070524Y-85583416D01*
X208070524Y-85773892D01*
X208108619Y-85926273D01*
X208146714Y-86002464D01*
X208184810Y-86040559D01*
X208261000Y-86078654D01*
X208337191Y-86078654D01*
X208413381Y-86040559D01*
X208451476Y-86002464D01*
X208489571Y-85926273D01*
X208527667Y-85773892D01*
X208527667Y-85583416D01*
X208489571Y-85431035D01*
X208451476Y-85354845D01*
X208413381Y-85316750D01*
X208337191Y-85278654D01*
X207765762Y-85354845D02*
X207727667Y-85316750D01*
X207651476Y-85278654D01*
X207461000Y-85278654D01*
X207384810Y-85316750D01*
X207346714Y-85354845D01*
X207308619Y-85431035D01*
X207308619Y-85507226D01*
X207346714Y-85621511D01*
X207803857Y-86078654D01*
X207308619Y-86078654D01*
X206927667Y-86078654D02*
X206775286Y-86078654D01*
X206699095Y-86040559D01*
X206661000Y-86002464D01*
X206584810Y-85888178D01*
X206546714Y-85735797D01*
X206546714Y-85431035D01*
X206584810Y-85354845D01*
X206622905Y-85316750D01*
X206699095Y-85278654D01*
X206851476Y-85278654D01*
X206927667Y-85316750D01*
X206965762Y-85354845D01*
X207003857Y-85431035D01*
X207003857Y-85621511D01*
X206965762Y-85697702D01*
X206927667Y-85735797D01*
X206851476Y-85773892D01*
X206699095Y-85773892D01*
X206622905Y-85735797D01*
X206584810Y-85697702D01*
X206546714Y-85621511D01*
X208070524Y-91158654D02*
X208527667Y-91158654D01*
X208299095Y-91158654D02*
X208299095Y-90358654D01*
X208375286Y-90472940D01*
X208451476Y-90549130D01*
X208527667Y-90587226D01*
X207308619Y-91158654D02*
X207765762Y-91158654D01*
X207537191Y-91158654D02*
X207537191Y-90358654D01*
X207613381Y-90472940D01*
X207689571Y-90549130D01*
X207765762Y-90587226D01*
X206584810Y-90358654D02*
X206965762Y-90358654D01*
X207003857Y-90739607D01*
X206965762Y-90701511D01*
X206889571Y-90663416D01*
X206699095Y-90663416D01*
X206622905Y-90701511D01*
X206584810Y-90739607D01*
X206546714Y-90815797D01*
X206546714Y-91006273D01*
X206584810Y-91082464D01*
X206622905Y-91120559D01*
X206699095Y-91158654D01*
X206889571Y-91158654D01*
X206965762Y-91120559D01*
X207003857Y-91082464D01*
X197262810Y-72578654D02*
X197186619Y-72578654D01*
X197110429Y-72616750D01*
X197072333Y-72654845D01*
X197034238Y-72731035D01*
X196996143Y-72883416D01*
X196996143Y-73073892D01*
X197034238Y-73226273D01*
X197072333Y-73302464D01*
X197110429Y-73340559D01*
X197186619Y-73378654D01*
X197262810Y-73378654D01*
X197339000Y-73340559D01*
X197377095Y-73302464D01*
X197415190Y-73226273D01*
X197453286Y-73073892D01*
X197453286Y-72883416D01*
X197415190Y-72731035D01*
X197377095Y-72654845D01*
X197339000Y-72616750D01*
X197262810Y-72578654D01*
X196500905Y-72578654D02*
X196424714Y-72578654D01*
X196348524Y-72616750D01*
X196310429Y-72654845D01*
X196272333Y-72731035D01*
X196234238Y-72883416D01*
X196234238Y-73073892D01*
X196272333Y-73226273D01*
X196310429Y-73302464D01*
X196348524Y-73340559D01*
X196424714Y-73378654D01*
X196500905Y-73378654D01*
X196577095Y-73340559D01*
X196615190Y-73302464D01*
X196653286Y-73226273D01*
X196691381Y-73073892D01*
X196691381Y-72883416D01*
X196653286Y-72731035D01*
X196615190Y-72654845D01*
X196577095Y-72616750D01*
X196500905Y-72578654D01*
X195548524Y-72578654D02*
X195700905Y-72578654D01*
X195777095Y-72616750D01*
X195815190Y-72654845D01*
X195891381Y-72769130D01*
X195929476Y-72921511D01*
X195929476Y-73226273D01*
X195891381Y-73302464D01*
X195853286Y-73340559D01*
X195777095Y-73378654D01*
X195624714Y-73378654D01*
X195548524Y-73340559D01*
X195510429Y-73302464D01*
X195472333Y-73226273D01*
X195472333Y-73035797D01*
X195510429Y-72959607D01*
X195548524Y-72921511D01*
X195624714Y-72883416D01*
X195777095Y-72883416D01*
X195853286Y-72921511D01*
X195891381Y-72959607D01*
X195929476Y-73035797D01*
X208603857Y-80198654D02*
X208337191Y-80998654D01*
X208070524Y-80198654D01*
X207346714Y-80922464D02*
X207384810Y-80960559D01*
X207499095Y-80998654D01*
X207575286Y-80998654D01*
X207689571Y-80960559D01*
X207765762Y-80884369D01*
X207803857Y-80808178D01*
X207841952Y-80655797D01*
X207841952Y-80541511D01*
X207803857Y-80389130D01*
X207765762Y-80312940D01*
X207689571Y-80236750D01*
X207575286Y-80198654D01*
X207499095Y-80198654D01*
X207384810Y-80236750D01*
X207346714Y-80274845D01*
X206546714Y-80922464D02*
X206584810Y-80960559D01*
X206699095Y-80998654D01*
X206775286Y-80998654D01*
X206889571Y-80960559D01*
X206965762Y-80884369D01*
X207003857Y-80808178D01*
X207041952Y-80655797D01*
X207041952Y-80541511D01*
X207003857Y-80389130D01*
X206965762Y-80312940D01*
X206889571Y-80236750D01*
X206775286Y-80198654D01*
X206699095Y-80198654D01*
X206584810Y-80236750D01*
X206546714Y-80274845D01*
X208026095Y-73378654D02*
X208292762Y-72997702D01*
X208483238Y-73378654D02*
X208483238Y-72578654D01*
X208178476Y-72578654D01*
X208102286Y-72616750D01*
X208064191Y-72654845D01*
X208026095Y-72731035D01*
X208026095Y-72845321D01*
X208064191Y-72921511D01*
X208102286Y-72959607D01*
X208178476Y-72997702D01*
X208483238Y-72997702D01*
X207721334Y-73150083D02*
X207340381Y-73150083D01*
X207797524Y-73378654D02*
X207530857Y-72578654D01*
X207264191Y-73378654D01*
X207073715Y-72578654D02*
X206883238Y-73378654D01*
X206730857Y-72807226D01*
X206578476Y-73378654D01*
X206388000Y-72578654D01*
X208337191Y-87818654D02*
X208261000Y-87818654D01*
X208184810Y-87856750D01*
X208146714Y-87894845D01*
X208108619Y-87971035D01*
X208070524Y-88123416D01*
X208070524Y-88313892D01*
X208108619Y-88466273D01*
X208146714Y-88542464D01*
X208184810Y-88580559D01*
X208261000Y-88618654D01*
X208337191Y-88618654D01*
X208413381Y-88580559D01*
X208451476Y-88542464D01*
X208489571Y-88466273D01*
X208527667Y-88313892D01*
X208527667Y-88123416D01*
X208489571Y-87971035D01*
X208451476Y-87894845D01*
X208413381Y-87856750D01*
X208337191Y-87818654D01*
X207575286Y-87818654D02*
X207499095Y-87818654D01*
X207422905Y-87856750D01*
X207384810Y-87894845D01*
X207346714Y-87971035D01*
X207308619Y-88123416D01*
X207308619Y-88313892D01*
X207346714Y-88466273D01*
X207384810Y-88542464D01*
X207422905Y-88580559D01*
X207499095Y-88618654D01*
X207575286Y-88618654D01*
X207651476Y-88580559D01*
X207689571Y-88542464D01*
X207727667Y-88466273D01*
X207765762Y-88313892D01*
X207765762Y-88123416D01*
X207727667Y-87971035D01*
X207689571Y-87894845D01*
X207651476Y-87856750D01*
X207575286Y-87818654D01*
X207003857Y-87894845D02*
X206965762Y-87856750D01*
X206889571Y-87818654D01*
X206699095Y-87818654D01*
X206622905Y-87856750D01*
X206584810Y-87894845D01*
X206546714Y-87971035D01*
X206546714Y-88047226D01*
X206584810Y-88161511D01*
X207041952Y-88618654D01*
X206546714Y-88618654D01*
X197148523Y-77696750D02*
X197224714Y-77658654D01*
X197339000Y-77658654D01*
X197453285Y-77696750D01*
X197529476Y-77772940D01*
X197567571Y-77849130D01*
X197605666Y-78001511D01*
X197605666Y-78115797D01*
X197567571Y-78268178D01*
X197529476Y-78344369D01*
X197453285Y-78420559D01*
X197339000Y-78458654D01*
X197262809Y-78458654D01*
X197148523Y-78420559D01*
X197110428Y-78382464D01*
X197110428Y-78115797D01*
X197262809Y-78115797D01*
X196767571Y-78458654D02*
X196767571Y-77658654D01*
X196310428Y-78458654D01*
X196310428Y-77658654D01*
X195929476Y-78458654D02*
X195929476Y-77658654D01*
X195739000Y-77658654D01*
X195624714Y-77696750D01*
X195548523Y-77772940D01*
X195510428Y-77849130D01*
X195472333Y-78001511D01*
X195472333Y-78115797D01*
X195510428Y-78268178D01*
X195548523Y-78344369D01*
X195624714Y-78420559D01*
X195739000Y-78458654D01*
X195929476Y-78458654D01*
X208026095Y-78458654D02*
X208292761Y-78077702D01*
X208483238Y-78458654D02*
X208483238Y-77658654D01*
X208178476Y-77658654D01*
X208102285Y-77696750D01*
X208064190Y-77734845D01*
X208026095Y-77811035D01*
X208026095Y-77925321D01*
X208064190Y-78001511D01*
X208102285Y-78039607D01*
X208178476Y-78077702D01*
X208483238Y-78077702D01*
X207721333Y-78420559D02*
X207607047Y-78458654D01*
X207416571Y-78458654D01*
X207340380Y-78420559D01*
X207302285Y-78382464D01*
X207264190Y-78306273D01*
X207264190Y-78230083D01*
X207302285Y-78153892D01*
X207340380Y-78115797D01*
X207416571Y-78077702D01*
X207568952Y-78039607D01*
X207645142Y-78001511D01*
X207683238Y-77963416D01*
X207721333Y-77887226D01*
X207721333Y-77811035D01*
X207683238Y-77734845D01*
X207645142Y-77696750D01*
X207568952Y-77658654D01*
X207378476Y-77658654D01*
X207264190Y-77696750D01*
X207035619Y-77658654D02*
X206578476Y-77658654D01*
X206807047Y-78458654D02*
X206807047Y-77658654D01*
X197262810Y-75048654D02*
X197186619Y-75048654D01*
X197110429Y-75086750D01*
X197072333Y-75124845D01*
X197034238Y-75201035D01*
X196996143Y-75353416D01*
X196996143Y-75543892D01*
X197034238Y-75696273D01*
X197072333Y-75772464D01*
X197110429Y-75810559D01*
X197186619Y-75848654D01*
X197262810Y-75848654D01*
X197339000Y-75810559D01*
X197377095Y-75772464D01*
X197415190Y-75696273D01*
X197453286Y-75543892D01*
X197453286Y-75353416D01*
X197415190Y-75201035D01*
X197377095Y-75124845D01*
X197339000Y-75086750D01*
X197262810Y-75048654D01*
X196500905Y-75048654D02*
X196424714Y-75048654D01*
X196348524Y-75086750D01*
X196310429Y-75124845D01*
X196272333Y-75201035D01*
X196234238Y-75353416D01*
X196234238Y-75543892D01*
X196272333Y-75696273D01*
X196310429Y-75772464D01*
X196348524Y-75810559D01*
X196424714Y-75848654D01*
X196500905Y-75848654D01*
X196577095Y-75810559D01*
X196615190Y-75772464D01*
X196653286Y-75696273D01*
X196691381Y-75543892D01*
X196691381Y-75353416D01*
X196653286Y-75201035D01*
X196615190Y-75124845D01*
X196577095Y-75086750D01*
X196500905Y-75048654D01*
X195777095Y-75391511D02*
X195853286Y-75353416D01*
X195891381Y-75315321D01*
X195929476Y-75239130D01*
X195929476Y-75201035D01*
X195891381Y-75124845D01*
X195853286Y-75086750D01*
X195777095Y-75048654D01*
X195624714Y-75048654D01*
X195548524Y-75086750D01*
X195510429Y-75124845D01*
X195472333Y-75201035D01*
X195472333Y-75239130D01*
X195510429Y-75315321D01*
X195548524Y-75353416D01*
X195624714Y-75391511D01*
X195777095Y-75391511D01*
X195853286Y-75429607D01*
X195891381Y-75467702D01*
X195929476Y-75543892D01*
X195929476Y-75696273D01*
X195891381Y-75772464D01*
X195853286Y-75810559D01*
X195777095Y-75848654D01*
X195624714Y-75848654D01*
X195548524Y-75810559D01*
X195510429Y-75772464D01*
X195472333Y-75696273D01*
X195472333Y-75543892D01*
X195510429Y-75467702D01*
X195548524Y-75429607D01*
X195624714Y-75391511D01*
X196996143Y-93698654D02*
X197453286Y-93698654D01*
X197224714Y-93698654D02*
X197224714Y-92898654D01*
X197300905Y-93012940D01*
X197377095Y-93089130D01*
X197453286Y-93127226D01*
X196500905Y-92898654D02*
X196424714Y-92898654D01*
X196348524Y-92936750D01*
X196310429Y-92974845D01*
X196272333Y-93051035D01*
X196234238Y-93203416D01*
X196234238Y-93393892D01*
X196272333Y-93546273D01*
X196310429Y-93622464D01*
X196348524Y-93660559D01*
X196424714Y-93698654D01*
X196500905Y-93698654D01*
X196577095Y-93660559D01*
X196615190Y-93622464D01*
X196653286Y-93546273D01*
X196691381Y-93393892D01*
X196691381Y-93203416D01*
X196653286Y-93051035D01*
X196615190Y-92974845D01*
X196577095Y-92936750D01*
X196500905Y-92898654D01*
X195739000Y-92898654D02*
X195662810Y-92898654D01*
X195586619Y-92936750D01*
X195548524Y-92974845D01*
X195510429Y-93051035D01*
X195472333Y-93203416D01*
X195472333Y-93393892D01*
X195510429Y-93546273D01*
X195548524Y-93622464D01*
X195586619Y-93660559D01*
X195662810Y-93698654D01*
X195739000Y-93698654D01*
X195815190Y-93660559D01*
X195853286Y-93622464D01*
X195891381Y-93546273D01*
X195929476Y-93393892D01*
X195929476Y-93203416D01*
X195891381Y-93051035D01*
X195853286Y-92974845D01*
X195815190Y-92936750D01*
X195739000Y-92898654D01*
X238952380Y-178752380D02*
X238952380Y-177752380D01*
X238714285Y-177752380D01*
X238571428Y-177800000D01*
X238476190Y-177895238D01*
X238428571Y-177990476D01*
X238380952Y-178180952D01*
X238380952Y-178323809D01*
X238428571Y-178514285D01*
X238476190Y-178609523D01*
X238571428Y-178704761D01*
X238714285Y-178752380D01*
X238952380Y-178752380D01*
X237428571Y-178752380D02*
X238000000Y-178752380D01*
X237714285Y-178752380D02*
X237714285Y-177752380D01*
X237809523Y-177895238D01*
X237904761Y-177990476D01*
X238000000Y-178038095D01*
X237000000Y-178657142D02*
X236952380Y-178704761D01*
X237000000Y-178752380D01*
X237047619Y-178704761D01*
X237000000Y-178657142D01*
X237000000Y-178752380D01*
X237000000Y-178133333D02*
X236952380Y-178180952D01*
X237000000Y-178228571D01*
X237047619Y-178180952D01*
X237000000Y-178133333D01*
X237000000Y-178228571D01*
X236380952Y-178180952D02*
X236476190Y-178133333D01*
X236523809Y-178085714D01*
X236571428Y-177990476D01*
X236571428Y-177942857D01*
X236523809Y-177847619D01*
X236476190Y-177800000D01*
X236380952Y-177752380D01*
X236190476Y-177752380D01*
X236095238Y-177800000D01*
X236047619Y-177847619D01*
X236000000Y-177942857D01*
X236000000Y-177990476D01*
X236047619Y-178085714D01*
X236095238Y-178133333D01*
X236190476Y-178180952D01*
X236380952Y-178180952D01*
X236476190Y-178228571D01*
X236523809Y-178276190D01*
X236571428Y-178371428D01*
X236571428Y-178561904D01*
X236523809Y-178657142D01*
X236476190Y-178704761D01*
X236380952Y-178752380D01*
X236190476Y-178752380D01*
X236095238Y-178704761D01*
X236047619Y-178657142D01*
X236000000Y-178561904D01*
X236000000Y-178371428D01*
X236047619Y-178276190D01*
X236095238Y-178228571D01*
X236190476Y-178180952D01*
X71452380Y-147852380D02*
X71452380Y-146852380D01*
X71214285Y-146852380D01*
X71071428Y-146900000D01*
X70976190Y-146995238D01*
X70928571Y-147090476D01*
X70880952Y-147280952D01*
X70880952Y-147423809D01*
X70928571Y-147614285D01*
X70976190Y-147709523D01*
X71071428Y-147804761D01*
X71214285Y-147852380D01*
X71452380Y-147852380D01*
X69928571Y-147852380D02*
X70500000Y-147852380D01*
X70214285Y-147852380D02*
X70214285Y-146852380D01*
X70309523Y-146995238D01*
X70404761Y-147090476D01*
X70500000Y-147138095D01*
X69500000Y-147757142D02*
X69452380Y-147804761D01*
X69500000Y-147852380D01*
X69547619Y-147804761D01*
X69500000Y-147757142D01*
X69500000Y-147852380D01*
X69500000Y-147233333D02*
X69452380Y-147280952D01*
X69500000Y-147328571D01*
X69547619Y-147280952D01*
X69500000Y-147233333D01*
X69500000Y-147328571D01*
X68500000Y-147852380D02*
X69071428Y-147852380D01*
X68785714Y-147852380D02*
X68785714Y-146852380D01*
X68880952Y-146995238D01*
X68976190Y-147090476D01*
X69071428Y-147138095D01*
X95452380Y-152302380D02*
X95452380Y-151302380D01*
X95214285Y-151302380D01*
X95071428Y-151350000D01*
X94976190Y-151445238D01*
X94928571Y-151540476D01*
X94880952Y-151730952D01*
X94880952Y-151873809D01*
X94928571Y-152064285D01*
X94976190Y-152159523D01*
X95071428Y-152254761D01*
X95214285Y-152302380D01*
X95452380Y-152302380D01*
X93928571Y-152302380D02*
X94500000Y-152302380D01*
X94214285Y-152302380D02*
X94214285Y-151302380D01*
X94309523Y-151445238D01*
X94404761Y-151540476D01*
X94500000Y-151588095D01*
X93500000Y-152207142D02*
X93452380Y-152254761D01*
X93500000Y-152302380D01*
X93547619Y-152254761D01*
X93500000Y-152207142D01*
X93500000Y-152302380D01*
X93500000Y-151683333D02*
X93452380Y-151730952D01*
X93500000Y-151778571D01*
X93547619Y-151730952D01*
X93500000Y-151683333D01*
X93500000Y-151778571D01*
X93071428Y-151397619D02*
X93023809Y-151350000D01*
X92928571Y-151302380D01*
X92690476Y-151302380D01*
X92595238Y-151350000D01*
X92547619Y-151397619D01*
X92500000Y-151492857D01*
X92500000Y-151588095D01*
X92547619Y-151730952D01*
X93119047Y-152302380D01*
X92500000Y-152302380D01*
X119452380Y-147802380D02*
X119452380Y-146802380D01*
X119214285Y-146802380D01*
X119071428Y-146850000D01*
X118976190Y-146945238D01*
X118928571Y-147040476D01*
X118880952Y-147230952D01*
X118880952Y-147373809D01*
X118928571Y-147564285D01*
X118976190Y-147659523D01*
X119071428Y-147754761D01*
X119214285Y-147802380D01*
X119452380Y-147802380D01*
X117928571Y-147802380D02*
X118500000Y-147802380D01*
X118214285Y-147802380D02*
X118214285Y-146802380D01*
X118309523Y-146945238D01*
X118404761Y-147040476D01*
X118500000Y-147088095D01*
X117500000Y-147707142D02*
X117452380Y-147754761D01*
X117500000Y-147802380D01*
X117547619Y-147754761D01*
X117500000Y-147707142D01*
X117500000Y-147802380D01*
X117500000Y-147183333D02*
X117452380Y-147230952D01*
X117500000Y-147278571D01*
X117547619Y-147230952D01*
X117500000Y-147183333D01*
X117500000Y-147278571D01*
X117119047Y-146802380D02*
X116500000Y-146802380D01*
X116833333Y-147183333D01*
X116690476Y-147183333D01*
X116595238Y-147230952D01*
X116547619Y-147278571D01*
X116500000Y-147373809D01*
X116500000Y-147611904D01*
X116547619Y-147707142D01*
X116595238Y-147754761D01*
X116690476Y-147802380D01*
X116976190Y-147802380D01*
X117071428Y-147754761D01*
X117119047Y-147707142D01*
X152452380Y-152302380D02*
X152452380Y-151302380D01*
X152214285Y-151302380D01*
X152071428Y-151350000D01*
X151976190Y-151445238D01*
X151928571Y-151540476D01*
X151880952Y-151730952D01*
X151880952Y-151873809D01*
X151928571Y-152064285D01*
X151976190Y-152159523D01*
X152071428Y-152254761D01*
X152214285Y-152302380D01*
X152452380Y-152302380D01*
X150928571Y-152302380D02*
X151500000Y-152302380D01*
X151214285Y-152302380D02*
X151214285Y-151302380D01*
X151309523Y-151445238D01*
X151404761Y-151540476D01*
X151500000Y-151588095D01*
X150500000Y-152207142D02*
X150452380Y-152254761D01*
X150500000Y-152302380D01*
X150547619Y-152254761D01*
X150500000Y-152207142D01*
X150500000Y-152302380D01*
X150500000Y-151683333D02*
X150452380Y-151730952D01*
X150500000Y-151778571D01*
X150547619Y-151730952D01*
X150500000Y-151683333D01*
X150500000Y-151778571D01*
X149595238Y-151635714D02*
X149595238Y-152302380D01*
X149833333Y-151254761D02*
X150071428Y-151969047D01*
X149452380Y-151969047D01*
X164002380Y-172252380D02*
X164002380Y-171252380D01*
X163764285Y-171252380D01*
X163621428Y-171300000D01*
X163526190Y-171395238D01*
X163478571Y-171490476D01*
X163430952Y-171680952D01*
X163430952Y-171823809D01*
X163478571Y-172014285D01*
X163526190Y-172109523D01*
X163621428Y-172204761D01*
X163764285Y-172252380D01*
X164002380Y-172252380D01*
X162478571Y-172252380D02*
X163050000Y-172252380D01*
X162764285Y-172252380D02*
X162764285Y-171252380D01*
X162859523Y-171395238D01*
X162954761Y-171490476D01*
X163050000Y-171538095D01*
X162050000Y-172157142D02*
X162002380Y-172204761D01*
X162050000Y-172252380D01*
X162097619Y-172204761D01*
X162050000Y-172157142D01*
X162050000Y-172252380D01*
X162050000Y-171633333D02*
X162002380Y-171680952D01*
X162050000Y-171728571D01*
X162097619Y-171680952D01*
X162050000Y-171633333D01*
X162050000Y-171728571D01*
X161097619Y-171252380D02*
X161573809Y-171252380D01*
X161621428Y-171728571D01*
X161573809Y-171680952D01*
X161478571Y-171633333D01*
X161240476Y-171633333D01*
X161145238Y-171680952D01*
X161097619Y-171728571D01*
X161050000Y-171823809D01*
X161050000Y-172061904D01*
X161097619Y-172157142D01*
X161145238Y-172204761D01*
X161240476Y-172252380D01*
X161478571Y-172252380D01*
X161573809Y-172204761D01*
X161621428Y-172157142D01*
X181952380Y-179752380D02*
X181952380Y-178752380D01*
X181714285Y-178752380D01*
X181571428Y-178800000D01*
X181476190Y-178895238D01*
X181428571Y-178990476D01*
X181380952Y-179180952D01*
X181380952Y-179323809D01*
X181428571Y-179514285D01*
X181476190Y-179609523D01*
X181571428Y-179704761D01*
X181714285Y-179752380D01*
X181952380Y-179752380D01*
X180428571Y-179752380D02*
X181000000Y-179752380D01*
X180714285Y-179752380D02*
X180714285Y-178752380D01*
X180809523Y-178895238D01*
X180904761Y-178990476D01*
X181000000Y-179038095D01*
X180000000Y-179657142D02*
X179952380Y-179704761D01*
X180000000Y-179752380D01*
X180047619Y-179704761D01*
X180000000Y-179657142D01*
X180000000Y-179752380D01*
X180000000Y-179133333D02*
X179952380Y-179180952D01*
X180000000Y-179228571D01*
X180047619Y-179180952D01*
X180000000Y-179133333D01*
X180000000Y-179228571D01*
X179095238Y-178752380D02*
X179285714Y-178752380D01*
X179380952Y-178800000D01*
X179428571Y-178847619D01*
X179523809Y-178990476D01*
X179571428Y-179180952D01*
X179571428Y-179561904D01*
X179523809Y-179657142D01*
X179476190Y-179704761D01*
X179380952Y-179752380D01*
X179190476Y-179752380D01*
X179095238Y-179704761D01*
X179047619Y-179657142D01*
X179000000Y-179561904D01*
X179000000Y-179323809D01*
X179047619Y-179228571D01*
X179095238Y-179180952D01*
X179190476Y-179133333D01*
X179380952Y-179133333D01*
X179476190Y-179180952D01*
X179523809Y-179228571D01*
X179571428Y-179323809D01*
X227452380Y-176752380D02*
X227452380Y-175752380D01*
X227214285Y-175752380D01*
X227071428Y-175800000D01*
X226976190Y-175895238D01*
X226928571Y-175990476D01*
X226880952Y-176180952D01*
X226880952Y-176323809D01*
X226928571Y-176514285D01*
X226976190Y-176609523D01*
X227071428Y-176704761D01*
X227214285Y-176752380D01*
X227452380Y-176752380D01*
X225928571Y-176752380D02*
X226500000Y-176752380D01*
X226214285Y-176752380D02*
X226214285Y-175752380D01*
X226309523Y-175895238D01*
X226404761Y-175990476D01*
X226500000Y-176038095D01*
X225500000Y-176657142D02*
X225452380Y-176704761D01*
X225500000Y-176752380D01*
X225547619Y-176704761D01*
X225500000Y-176657142D01*
X225500000Y-176752380D01*
X225500000Y-176133333D02*
X225452380Y-176180952D01*
X225500000Y-176228571D01*
X225547619Y-176180952D01*
X225500000Y-176133333D01*
X225500000Y-176228571D01*
X225119047Y-175752380D02*
X224452380Y-175752380D01*
X224880952Y-176752380D01*
X271452380Y-152302380D02*
X271452380Y-151302380D01*
X271214285Y-151302380D01*
X271071428Y-151350000D01*
X270976190Y-151445238D01*
X270928571Y-151540476D01*
X270880952Y-151730952D01*
X270880952Y-151873809D01*
X270928571Y-152064285D01*
X270976190Y-152159523D01*
X271071428Y-152254761D01*
X271214285Y-152302380D01*
X271452380Y-152302380D01*
X269928571Y-152302380D02*
X270500000Y-152302380D01*
X270214285Y-152302380D02*
X270214285Y-151302380D01*
X270309523Y-151445238D01*
X270404761Y-151540476D01*
X270500000Y-151588095D01*
X269500000Y-152207142D02*
X269452380Y-152254761D01*
X269500000Y-152302380D01*
X269547619Y-152254761D01*
X269500000Y-152207142D01*
X269500000Y-152302380D01*
X269500000Y-151683333D02*
X269452380Y-151730952D01*
X269500000Y-151778571D01*
X269547619Y-151730952D01*
X269500000Y-151683333D01*
X269500000Y-151778571D01*
X268976190Y-152302380D02*
X268785714Y-152302380D01*
X268690476Y-152254761D01*
X268642857Y-152207142D01*
X268547619Y-152064285D01*
X268500000Y-151873809D01*
X268500000Y-151492857D01*
X268547619Y-151397619D01*
X268595238Y-151350000D01*
X268690476Y-151302380D01*
X268880952Y-151302380D01*
X268976190Y-151350000D01*
X269023809Y-151397619D01*
X269071428Y-151492857D01*
X269071428Y-151730952D01*
X269023809Y-151826190D01*
X268976190Y-151873809D01*
X268880952Y-151921428D01*
X268690476Y-151921428D01*
X268595238Y-151873809D01*
X268547619Y-151826190D01*
X268500000Y-151730952D01*
X295928571Y-147602380D02*
X295928571Y-146602380D01*
X295690476Y-146602380D01*
X295547619Y-146650000D01*
X295452380Y-146745238D01*
X295404761Y-146840476D01*
X295357142Y-147030952D01*
X295357142Y-147173809D01*
X295404761Y-147364285D01*
X295452380Y-147459523D01*
X295547619Y-147554761D01*
X295690476Y-147602380D01*
X295928571Y-147602380D01*
X294404761Y-147602380D02*
X294976190Y-147602380D01*
X294690476Y-147602380D02*
X294690476Y-146602380D01*
X294785714Y-146745238D01*
X294880952Y-146840476D01*
X294976190Y-146888095D01*
X293976190Y-147507142D02*
X293928571Y-147554761D01*
X293976190Y-147602380D01*
X294023809Y-147554761D01*
X293976190Y-147507142D01*
X293976190Y-147602380D01*
X293976190Y-146983333D02*
X293928571Y-147030952D01*
X293976190Y-147078571D01*
X294023809Y-147030952D01*
X293976190Y-146983333D01*
X293976190Y-147078571D01*
X292976190Y-147602380D02*
X293547619Y-147602380D01*
X293261904Y-147602380D02*
X293261904Y-146602380D01*
X293357142Y-146745238D01*
X293452380Y-146840476D01*
X293547619Y-146888095D01*
X292357142Y-146602380D02*
X292261904Y-146602380D01*
X292166666Y-146650000D01*
X292119047Y-146697619D01*
X292071428Y-146792857D01*
X292023809Y-146983333D01*
X292023809Y-147221428D01*
X292071428Y-147411904D01*
X292119047Y-147507142D01*
X292166666Y-147554761D01*
X292261904Y-147602380D01*
X292357142Y-147602380D01*
X292452380Y-147554761D01*
X292500000Y-147507142D01*
X292547619Y-147411904D01*
X292595238Y-147221428D01*
X292595238Y-146983333D01*
X292547619Y-146792857D01*
X292500000Y-146697619D01*
X292452380Y-146650000D01*
X292357142Y-146602380D01*
X319428571Y-152302380D02*
X319428571Y-151302380D01*
X319190476Y-151302380D01*
X319047619Y-151350000D01*
X318952380Y-151445238D01*
X318904761Y-151540476D01*
X318857142Y-151730952D01*
X318857142Y-151873809D01*
X318904761Y-152064285D01*
X318952380Y-152159523D01*
X319047619Y-152254761D01*
X319190476Y-152302380D01*
X319428571Y-152302380D01*
X317904761Y-152302380D02*
X318476190Y-152302380D01*
X318190476Y-152302380D02*
X318190476Y-151302380D01*
X318285714Y-151445238D01*
X318380952Y-151540476D01*
X318476190Y-151588095D01*
X317476190Y-152207142D02*
X317428571Y-152254761D01*
X317476190Y-152302380D01*
X317523809Y-152254761D01*
X317476190Y-152207142D01*
X317476190Y-152302380D01*
X317476190Y-151683333D02*
X317428571Y-151730952D01*
X317476190Y-151778571D01*
X317523809Y-151730952D01*
X317476190Y-151683333D01*
X317476190Y-151778571D01*
X316476190Y-152302380D02*
X317047619Y-152302380D01*
X316761904Y-152302380D02*
X316761904Y-151302380D01*
X316857142Y-151445238D01*
X316952380Y-151540476D01*
X317047619Y-151588095D01*
X315523809Y-152302380D02*
X316095238Y-152302380D01*
X315809523Y-152302380D02*
X315809523Y-151302380D01*
X315904761Y-151445238D01*
X316000000Y-151540476D01*
X316095238Y-151588095D01*
X350428571Y-147602380D02*
X350428571Y-146602380D01*
X350190476Y-146602380D01*
X350047619Y-146650000D01*
X349952380Y-146745238D01*
X349904761Y-146840476D01*
X349857142Y-147030952D01*
X349857142Y-147173809D01*
X349904761Y-147364285D01*
X349952380Y-147459523D01*
X350047619Y-147554761D01*
X350190476Y-147602380D01*
X350428571Y-147602380D01*
X348904761Y-147602380D02*
X349476190Y-147602380D01*
X349190476Y-147602380D02*
X349190476Y-146602380D01*
X349285714Y-146745238D01*
X349380952Y-146840476D01*
X349476190Y-146888095D01*
X348476190Y-147507142D02*
X348428571Y-147554761D01*
X348476190Y-147602380D01*
X348523809Y-147554761D01*
X348476190Y-147507142D01*
X348476190Y-147602380D01*
X348476190Y-146983333D02*
X348428571Y-147030952D01*
X348476190Y-147078571D01*
X348523809Y-147030952D01*
X348476190Y-146983333D01*
X348476190Y-147078571D01*
X347476190Y-147602380D02*
X348047619Y-147602380D01*
X347761904Y-147602380D02*
X347761904Y-146602380D01*
X347857142Y-146745238D01*
X347952380Y-146840476D01*
X348047619Y-146888095D01*
X347095238Y-146697619D02*
X347047619Y-146650000D01*
X346952380Y-146602380D01*
X346714285Y-146602380D01*
X346619047Y-146650000D01*
X346571428Y-146697619D01*
X346523809Y-146792857D01*
X346523809Y-146888095D01*
X346571428Y-147030952D01*
X347142857Y-147602380D01*
X346523809Y-147602380D01*
X369428571Y-152252380D02*
X369428571Y-151252380D01*
X369190476Y-151252380D01*
X369047619Y-151300000D01*
X368952380Y-151395238D01*
X368904761Y-151490476D01*
X368857142Y-151680952D01*
X368857142Y-151823809D01*
X368904761Y-152014285D01*
X368952380Y-152109523D01*
X369047619Y-152204761D01*
X369190476Y-152252380D01*
X369428571Y-152252380D01*
X367904761Y-152252380D02*
X368476190Y-152252380D01*
X368190476Y-152252380D02*
X368190476Y-151252380D01*
X368285714Y-151395238D01*
X368380952Y-151490476D01*
X368476190Y-151538095D01*
X367476190Y-152157142D02*
X367428571Y-152204761D01*
X367476190Y-152252380D01*
X367523809Y-152204761D01*
X367476190Y-152157142D01*
X367476190Y-152252380D01*
X367476190Y-151633333D02*
X367428571Y-151680952D01*
X367476190Y-151728571D01*
X367523809Y-151680952D01*
X367476190Y-151633333D01*
X367476190Y-151728571D01*
X366476190Y-152252380D02*
X367047619Y-152252380D01*
X366761904Y-152252380D02*
X366761904Y-151252380D01*
X366857142Y-151395238D01*
X366952380Y-151490476D01*
X367047619Y-151538095D01*
X366142857Y-151252380D02*
X365523809Y-151252380D01*
X365857142Y-151633333D01*
X365714285Y-151633333D01*
X365619047Y-151680952D01*
X365571428Y-151728571D01*
X365523809Y-151823809D01*
X365523809Y-152061904D01*
X365571428Y-152157142D01*
X365619047Y-152204761D01*
X365714285Y-152252380D01*
X366000000Y-152252380D01*
X366095238Y-152204761D01*
X366142857Y-152157142D01*
X388428571Y-147602380D02*
X388428571Y-146602380D01*
X388190476Y-146602380D01*
X388047619Y-146650000D01*
X387952380Y-146745238D01*
X387904761Y-146840476D01*
X387857142Y-147030952D01*
X387857142Y-147173809D01*
X387904761Y-147364285D01*
X387952380Y-147459523D01*
X388047619Y-147554761D01*
X388190476Y-147602380D01*
X388428571Y-147602380D01*
X386904761Y-147602380D02*
X387476190Y-147602380D01*
X387190476Y-147602380D02*
X387190476Y-146602380D01*
X387285714Y-146745238D01*
X387380952Y-146840476D01*
X387476190Y-146888095D01*
X386476190Y-147507142D02*
X386428571Y-147554761D01*
X386476190Y-147602380D01*
X386523809Y-147554761D01*
X386476190Y-147507142D01*
X386476190Y-147602380D01*
X386476190Y-146983333D02*
X386428571Y-147030952D01*
X386476190Y-147078571D01*
X386523809Y-147030952D01*
X386476190Y-146983333D01*
X386476190Y-147078571D01*
X385476190Y-147602380D02*
X386047619Y-147602380D01*
X385761904Y-147602380D02*
X385761904Y-146602380D01*
X385857142Y-146745238D01*
X385952380Y-146840476D01*
X386047619Y-146888095D01*
X384619047Y-146935714D02*
X384619047Y-147602380D01*
X384857142Y-146554761D02*
X385095238Y-147269047D01*
X384476190Y-147269047D01*
X71452380Y-133202380D02*
X71452380Y-132202380D01*
X71214285Y-132202380D01*
X71071428Y-132250000D01*
X70976190Y-132345238D01*
X70928571Y-132440476D01*
X70880952Y-132630952D01*
X70880952Y-132773809D01*
X70928571Y-132964285D01*
X70976190Y-133059523D01*
X71071428Y-133154761D01*
X71214285Y-133202380D01*
X71452380Y-133202380D01*
X70500000Y-132297619D02*
X70452380Y-132250000D01*
X70357142Y-132202380D01*
X70119047Y-132202380D01*
X70023809Y-132250000D01*
X69976190Y-132297619D01*
X69928571Y-132392857D01*
X69928571Y-132488095D01*
X69976190Y-132630952D01*
X70547619Y-133202380D01*
X69928571Y-133202380D01*
X69500000Y-133107142D02*
X69452380Y-133154761D01*
X69500000Y-133202380D01*
X69547619Y-133154761D01*
X69500000Y-133107142D01*
X69500000Y-133202380D01*
X69500000Y-132583333D02*
X69452380Y-132630952D01*
X69500000Y-132678571D01*
X69547619Y-132630952D01*
X69500000Y-132583333D01*
X69500000Y-132678571D01*
X68500000Y-133202380D02*
X69071428Y-133202380D01*
X68785714Y-133202380D02*
X68785714Y-132202380D01*
X68880952Y-132345238D01*
X68976190Y-132440476D01*
X69071428Y-132488095D01*
X102452380Y-128852380D02*
X102452380Y-127852380D01*
X102214285Y-127852380D01*
X102071428Y-127900000D01*
X101976190Y-127995238D01*
X101928571Y-128090476D01*
X101880952Y-128280952D01*
X101880952Y-128423809D01*
X101928571Y-128614285D01*
X101976190Y-128709523D01*
X102071428Y-128804761D01*
X102214285Y-128852380D01*
X102452380Y-128852380D01*
X101500000Y-127947619D02*
X101452380Y-127900000D01*
X101357142Y-127852380D01*
X101119047Y-127852380D01*
X101023809Y-127900000D01*
X100976190Y-127947619D01*
X100928571Y-128042857D01*
X100928571Y-128138095D01*
X100976190Y-128280952D01*
X101547619Y-128852380D01*
X100928571Y-128852380D01*
X100500000Y-128757142D02*
X100452380Y-128804761D01*
X100500000Y-128852380D01*
X100547619Y-128804761D01*
X100500000Y-128757142D01*
X100500000Y-128852380D01*
X100500000Y-128233333D02*
X100452380Y-128280952D01*
X100500000Y-128328571D01*
X100547619Y-128280952D01*
X100500000Y-128233333D01*
X100500000Y-128328571D01*
X100071428Y-127947619D02*
X100023809Y-127900000D01*
X99928571Y-127852380D01*
X99690476Y-127852380D01*
X99595238Y-127900000D01*
X99547619Y-127947619D01*
X99500000Y-128042857D01*
X99500000Y-128138095D01*
X99547619Y-128280952D01*
X100119047Y-128852380D01*
X99500000Y-128852380D01*
X121402380Y-133152380D02*
X121402380Y-132152380D01*
X121164285Y-132152380D01*
X121021428Y-132200000D01*
X120926190Y-132295238D01*
X120878571Y-132390476D01*
X120830952Y-132580952D01*
X120830952Y-132723809D01*
X120878571Y-132914285D01*
X120926190Y-133009523D01*
X121021428Y-133104761D01*
X121164285Y-133152380D01*
X121402380Y-133152380D01*
X120450000Y-132247619D02*
X120402380Y-132200000D01*
X120307142Y-132152380D01*
X120069047Y-132152380D01*
X119973809Y-132200000D01*
X119926190Y-132247619D01*
X119878571Y-132342857D01*
X119878571Y-132438095D01*
X119926190Y-132580952D01*
X120497619Y-133152380D01*
X119878571Y-133152380D01*
X119450000Y-133057142D02*
X119402380Y-133104761D01*
X119450000Y-133152380D01*
X119497619Y-133104761D01*
X119450000Y-133057142D01*
X119450000Y-133152380D01*
X119450000Y-132533333D02*
X119402380Y-132580952D01*
X119450000Y-132628571D01*
X119497619Y-132580952D01*
X119450000Y-132533333D01*
X119450000Y-132628571D01*
X119069047Y-132152380D02*
X118450000Y-132152380D01*
X118783333Y-132533333D01*
X118640476Y-132533333D01*
X118545238Y-132580952D01*
X118497619Y-132628571D01*
X118450000Y-132723809D01*
X118450000Y-132961904D01*
X118497619Y-133057142D01*
X118545238Y-133104761D01*
X118640476Y-133152380D01*
X118926190Y-133152380D01*
X119021428Y-133104761D01*
X119069047Y-133057142D01*
X140452380Y-128852380D02*
X140452380Y-127852380D01*
X140214285Y-127852380D01*
X140071428Y-127900000D01*
X139976190Y-127995238D01*
X139928571Y-128090476D01*
X139880952Y-128280952D01*
X139880952Y-128423809D01*
X139928571Y-128614285D01*
X139976190Y-128709523D01*
X140071428Y-128804761D01*
X140214285Y-128852380D01*
X140452380Y-128852380D01*
X139500000Y-127947619D02*
X139452380Y-127900000D01*
X139357142Y-127852380D01*
X139119047Y-127852380D01*
X139023809Y-127900000D01*
X138976190Y-127947619D01*
X138928571Y-128042857D01*
X138928571Y-128138095D01*
X138976190Y-128280952D01*
X139547619Y-128852380D01*
X138928571Y-128852380D01*
X138500000Y-128757142D02*
X138452380Y-128804761D01*
X138500000Y-128852380D01*
X138547619Y-128804761D01*
X138500000Y-128757142D01*
X138500000Y-128852380D01*
X138500000Y-128233333D02*
X138452380Y-128280952D01*
X138500000Y-128328571D01*
X138547619Y-128280952D01*
X138500000Y-128233333D01*
X138500000Y-128328571D01*
X137595238Y-128185714D02*
X137595238Y-128852380D01*
X137833333Y-127804761D02*
X138071428Y-128519047D01*
X137452380Y-128519047D01*
X159452380Y-133152380D02*
X159452380Y-132152380D01*
X159214285Y-132152380D01*
X159071428Y-132200000D01*
X158976190Y-132295238D01*
X158928571Y-132390476D01*
X158880952Y-132580952D01*
X158880952Y-132723809D01*
X158928571Y-132914285D01*
X158976190Y-133009523D01*
X159071428Y-133104761D01*
X159214285Y-133152380D01*
X159452380Y-133152380D01*
X158500000Y-132247619D02*
X158452380Y-132200000D01*
X158357142Y-132152380D01*
X158119047Y-132152380D01*
X158023809Y-132200000D01*
X157976190Y-132247619D01*
X157928571Y-132342857D01*
X157928571Y-132438095D01*
X157976190Y-132580952D01*
X158547619Y-133152380D01*
X157928571Y-133152380D01*
X157500000Y-133057142D02*
X157452380Y-133104761D01*
X157500000Y-133152380D01*
X157547619Y-133104761D01*
X157500000Y-133057142D01*
X157500000Y-133152380D01*
X157500000Y-132533333D02*
X157452380Y-132580952D01*
X157500000Y-132628571D01*
X157547619Y-132580952D01*
X157500000Y-132533333D01*
X157500000Y-132628571D01*
X156547619Y-132152380D02*
X157023809Y-132152380D01*
X157071428Y-132628571D01*
X157023809Y-132580952D01*
X156928571Y-132533333D01*
X156690476Y-132533333D01*
X156595238Y-132580952D01*
X156547619Y-132628571D01*
X156500000Y-132723809D01*
X156500000Y-132961904D01*
X156547619Y-133057142D01*
X156595238Y-133104761D01*
X156690476Y-133152380D01*
X156928571Y-133152380D01*
X157023809Y-133104761D01*
X157071428Y-133057142D01*
X178452380Y-128802380D02*
X178452380Y-127802380D01*
X178214285Y-127802380D01*
X178071428Y-127850000D01*
X177976190Y-127945238D01*
X177928571Y-128040476D01*
X177880952Y-128230952D01*
X177880952Y-128373809D01*
X177928571Y-128564285D01*
X177976190Y-128659523D01*
X178071428Y-128754761D01*
X178214285Y-128802380D01*
X178452380Y-128802380D01*
X177500000Y-127897619D02*
X177452380Y-127850000D01*
X177357142Y-127802380D01*
X177119047Y-127802380D01*
X177023809Y-127850000D01*
X176976190Y-127897619D01*
X176928571Y-127992857D01*
X176928571Y-128088095D01*
X176976190Y-128230952D01*
X177547619Y-128802380D01*
X176928571Y-128802380D01*
X176500000Y-128707142D02*
X176452380Y-128754761D01*
X176500000Y-128802380D01*
X176547619Y-128754761D01*
X176500000Y-128707142D01*
X176500000Y-128802380D01*
X176500000Y-128183333D02*
X176452380Y-128230952D01*
X176500000Y-128278571D01*
X176547619Y-128230952D01*
X176500000Y-128183333D01*
X176500000Y-128278571D01*
X175595238Y-127802380D02*
X175785714Y-127802380D01*
X175880952Y-127850000D01*
X175928571Y-127897619D01*
X176023809Y-128040476D01*
X176071428Y-128230952D01*
X176071428Y-128611904D01*
X176023809Y-128707142D01*
X175976190Y-128754761D01*
X175880952Y-128802380D01*
X175690476Y-128802380D01*
X175595238Y-128754761D01*
X175547619Y-128707142D01*
X175500000Y-128611904D01*
X175500000Y-128373809D01*
X175547619Y-128278571D01*
X175595238Y-128230952D01*
X175690476Y-128183333D01*
X175880952Y-128183333D01*
X175976190Y-128230952D01*
X176023809Y-128278571D01*
X176071428Y-128373809D01*
X244952380Y-133202380D02*
X244952380Y-132202380D01*
X244714285Y-132202380D01*
X244571428Y-132250000D01*
X244476190Y-132345238D01*
X244428571Y-132440476D01*
X244380952Y-132630952D01*
X244380952Y-132773809D01*
X244428571Y-132964285D01*
X244476190Y-133059523D01*
X244571428Y-133154761D01*
X244714285Y-133202380D01*
X244952380Y-133202380D01*
X244000000Y-132297619D02*
X243952380Y-132250000D01*
X243857142Y-132202380D01*
X243619047Y-132202380D01*
X243523809Y-132250000D01*
X243476190Y-132297619D01*
X243428571Y-132392857D01*
X243428571Y-132488095D01*
X243476190Y-132630952D01*
X244047619Y-133202380D01*
X243428571Y-133202380D01*
X243000000Y-133107142D02*
X242952380Y-133154761D01*
X243000000Y-133202380D01*
X243047619Y-133154761D01*
X243000000Y-133107142D01*
X243000000Y-133202380D01*
X243000000Y-132583333D02*
X242952380Y-132630952D01*
X243000000Y-132678571D01*
X243047619Y-132630952D01*
X243000000Y-132583333D01*
X243000000Y-132678571D01*
X242619047Y-132202380D02*
X241952380Y-132202380D01*
X242380952Y-133202380D01*
X264452380Y-128852380D02*
X264452380Y-127852380D01*
X264214285Y-127852380D01*
X264071428Y-127900000D01*
X263976190Y-127995238D01*
X263928571Y-128090476D01*
X263880952Y-128280952D01*
X263880952Y-128423809D01*
X263928571Y-128614285D01*
X263976190Y-128709523D01*
X264071428Y-128804761D01*
X264214285Y-128852380D01*
X264452380Y-128852380D01*
X263500000Y-127947619D02*
X263452380Y-127900000D01*
X263357142Y-127852380D01*
X263119047Y-127852380D01*
X263023809Y-127900000D01*
X262976190Y-127947619D01*
X262928571Y-128042857D01*
X262928571Y-128138095D01*
X262976190Y-128280952D01*
X263547619Y-128852380D01*
X262928571Y-128852380D01*
X262500000Y-128757142D02*
X262452380Y-128804761D01*
X262500000Y-128852380D01*
X262547619Y-128804761D01*
X262500000Y-128757142D01*
X262500000Y-128852380D01*
X262500000Y-128233333D02*
X262452380Y-128280952D01*
X262500000Y-128328571D01*
X262547619Y-128280952D01*
X262500000Y-128233333D01*
X262500000Y-128328571D01*
X261880952Y-128280952D02*
X261976190Y-128233333D01*
X262023809Y-128185714D01*
X262071428Y-128090476D01*
X262071428Y-128042857D01*
X262023809Y-127947619D01*
X261976190Y-127900000D01*
X261880952Y-127852380D01*
X261690476Y-127852380D01*
X261595238Y-127900000D01*
X261547619Y-127947619D01*
X261500000Y-128042857D01*
X261500000Y-128090476D01*
X261547619Y-128185714D01*
X261595238Y-128233333D01*
X261690476Y-128280952D01*
X261880952Y-128280952D01*
X261976190Y-128328571D01*
X262023809Y-128376190D01*
X262071428Y-128471428D01*
X262071428Y-128661904D01*
X262023809Y-128757142D01*
X261976190Y-128804761D01*
X261880952Y-128852380D01*
X261690476Y-128852380D01*
X261595238Y-128804761D01*
X261547619Y-128757142D01*
X261500000Y-128661904D01*
X261500000Y-128471428D01*
X261547619Y-128376190D01*
X261595238Y-128328571D01*
X261690476Y-128280952D01*
X283452380Y-133202380D02*
X283452380Y-132202380D01*
X283214285Y-132202380D01*
X283071428Y-132250000D01*
X282976190Y-132345238D01*
X282928571Y-132440476D01*
X282880952Y-132630952D01*
X282880952Y-132773809D01*
X282928571Y-132964285D01*
X282976190Y-133059523D01*
X283071428Y-133154761D01*
X283214285Y-133202380D01*
X283452380Y-133202380D01*
X282500000Y-132297619D02*
X282452380Y-132250000D01*
X282357142Y-132202380D01*
X282119047Y-132202380D01*
X282023809Y-132250000D01*
X281976190Y-132297619D01*
X281928571Y-132392857D01*
X281928571Y-132488095D01*
X281976190Y-132630952D01*
X282547619Y-133202380D01*
X281928571Y-133202380D01*
X281500000Y-133107142D02*
X281452380Y-133154761D01*
X281500000Y-133202380D01*
X281547619Y-133154761D01*
X281500000Y-133107142D01*
X281500000Y-133202380D01*
X281500000Y-132583333D02*
X281452380Y-132630952D01*
X281500000Y-132678571D01*
X281547619Y-132630952D01*
X281500000Y-132583333D01*
X281500000Y-132678571D01*
X280976190Y-133202380D02*
X280785714Y-133202380D01*
X280690476Y-133154761D01*
X280642857Y-133107142D01*
X280547619Y-132964285D01*
X280500000Y-132773809D01*
X280500000Y-132392857D01*
X280547619Y-132297619D01*
X280595238Y-132250000D01*
X280690476Y-132202380D01*
X280880952Y-132202380D01*
X280976190Y-132250000D01*
X281023809Y-132297619D01*
X281071428Y-132392857D01*
X281071428Y-132630952D01*
X281023809Y-132726190D01*
X280976190Y-132773809D01*
X280880952Y-132821428D01*
X280690476Y-132821428D01*
X280595238Y-132773809D01*
X280547619Y-132726190D01*
X280500000Y-132630952D01*
X302928571Y-128852380D02*
X302928571Y-127852380D01*
X302690476Y-127852380D01*
X302547619Y-127900000D01*
X302452380Y-127995238D01*
X302404761Y-128090476D01*
X302357142Y-128280952D01*
X302357142Y-128423809D01*
X302404761Y-128614285D01*
X302452380Y-128709523D01*
X302547619Y-128804761D01*
X302690476Y-128852380D01*
X302928571Y-128852380D01*
X301976190Y-127947619D02*
X301928571Y-127900000D01*
X301833333Y-127852380D01*
X301595238Y-127852380D01*
X301500000Y-127900000D01*
X301452380Y-127947619D01*
X301404761Y-128042857D01*
X301404761Y-128138095D01*
X301452380Y-128280952D01*
X302023809Y-128852380D01*
X301404761Y-128852380D01*
X300976190Y-128757142D02*
X300928571Y-128804761D01*
X300976190Y-128852380D01*
X301023809Y-128804761D01*
X300976190Y-128757142D01*
X300976190Y-128852380D01*
X300976190Y-128233333D02*
X300928571Y-128280952D01*
X300976190Y-128328571D01*
X301023809Y-128280952D01*
X300976190Y-128233333D01*
X300976190Y-128328571D01*
X299976190Y-128852380D02*
X300547619Y-128852380D01*
X300261904Y-128852380D02*
X300261904Y-127852380D01*
X300357142Y-127995238D01*
X300452380Y-128090476D01*
X300547619Y-128138095D01*
X299357142Y-127852380D02*
X299261904Y-127852380D01*
X299166666Y-127900000D01*
X299119047Y-127947619D01*
X299071428Y-128042857D01*
X299023809Y-128233333D01*
X299023809Y-128471428D01*
X299071428Y-128661904D01*
X299119047Y-128757142D01*
X299166666Y-128804761D01*
X299261904Y-128852380D01*
X299357142Y-128852380D01*
X299452380Y-128804761D01*
X299500000Y-128757142D01*
X299547619Y-128661904D01*
X299595238Y-128471428D01*
X299595238Y-128233333D01*
X299547619Y-128042857D01*
X299500000Y-127947619D01*
X299452380Y-127900000D01*
X299357142Y-127852380D01*
X321928571Y-133202380D02*
X321928571Y-132202380D01*
X321690476Y-132202380D01*
X321547619Y-132250000D01*
X321452380Y-132345238D01*
X321404761Y-132440476D01*
X321357142Y-132630952D01*
X321357142Y-132773809D01*
X321404761Y-132964285D01*
X321452380Y-133059523D01*
X321547619Y-133154761D01*
X321690476Y-133202380D01*
X321928571Y-133202380D01*
X320976190Y-132297619D02*
X320928571Y-132250000D01*
X320833333Y-132202380D01*
X320595238Y-132202380D01*
X320500000Y-132250000D01*
X320452380Y-132297619D01*
X320404761Y-132392857D01*
X320404761Y-132488095D01*
X320452380Y-132630952D01*
X321023809Y-133202380D01*
X320404761Y-133202380D01*
X319976190Y-133107142D02*
X319928571Y-133154761D01*
X319976190Y-133202380D01*
X320023809Y-133154761D01*
X319976190Y-133107142D01*
X319976190Y-133202380D01*
X319976190Y-132583333D02*
X319928571Y-132630952D01*
X319976190Y-132678571D01*
X320023809Y-132630952D01*
X319976190Y-132583333D01*
X319976190Y-132678571D01*
X318976190Y-133202380D02*
X319547619Y-133202380D01*
X319261904Y-133202380D02*
X319261904Y-132202380D01*
X319357142Y-132345238D01*
X319452380Y-132440476D01*
X319547619Y-132488095D01*
X318023809Y-133202380D02*
X318595238Y-133202380D01*
X318309523Y-133202380D02*
X318309523Y-132202380D01*
X318404761Y-132345238D01*
X318500000Y-132440476D01*
X318595238Y-132488095D01*
X369478571Y-128852380D02*
X369478571Y-127852380D01*
X369240476Y-127852380D01*
X369097619Y-127900000D01*
X369002380Y-127995238D01*
X368954761Y-128090476D01*
X368907142Y-128280952D01*
X368907142Y-128423809D01*
X368954761Y-128614285D01*
X369002380Y-128709523D01*
X369097619Y-128804761D01*
X369240476Y-128852380D01*
X369478571Y-128852380D01*
X368526190Y-127947619D02*
X368478571Y-127900000D01*
X368383333Y-127852380D01*
X368145238Y-127852380D01*
X368050000Y-127900000D01*
X368002380Y-127947619D01*
X367954761Y-128042857D01*
X367954761Y-128138095D01*
X368002380Y-128280952D01*
X368573809Y-128852380D01*
X367954761Y-128852380D01*
X367526190Y-128757142D02*
X367478571Y-128804761D01*
X367526190Y-128852380D01*
X367573809Y-128804761D01*
X367526190Y-128757142D01*
X367526190Y-128852380D01*
X367526190Y-128233333D02*
X367478571Y-128280952D01*
X367526190Y-128328571D01*
X367573809Y-128280952D01*
X367526190Y-128233333D01*
X367526190Y-128328571D01*
X366526190Y-128852380D02*
X367097619Y-128852380D01*
X366811904Y-128852380D02*
X366811904Y-127852380D01*
X366907142Y-127995238D01*
X367002380Y-128090476D01*
X367097619Y-128138095D01*
X366192857Y-127852380D02*
X365573809Y-127852380D01*
X365907142Y-128233333D01*
X365764285Y-128233333D01*
X365669047Y-128280952D01*
X365621428Y-128328571D01*
X365573809Y-128423809D01*
X365573809Y-128661904D01*
X365621428Y-128757142D01*
X365669047Y-128804761D01*
X365764285Y-128852380D01*
X366050000Y-128852380D01*
X366145238Y-128804761D01*
X366192857Y-128757142D01*
X45452380Y-114352380D02*
X45452380Y-113352380D01*
X45214285Y-113352380D01*
X45071428Y-113400000D01*
X44976190Y-113495238D01*
X44928571Y-113590476D01*
X44880952Y-113780952D01*
X44880952Y-113923809D01*
X44928571Y-114114285D01*
X44976190Y-114209523D01*
X45071428Y-114304761D01*
X45214285Y-114352380D01*
X45452380Y-114352380D01*
X44547619Y-113352380D02*
X43928571Y-113352380D01*
X44261904Y-113733333D01*
X44119047Y-113733333D01*
X44023809Y-113780952D01*
X43976190Y-113828571D01*
X43928571Y-113923809D01*
X43928571Y-114161904D01*
X43976190Y-114257142D01*
X44023809Y-114304761D01*
X44119047Y-114352380D01*
X44404761Y-114352380D01*
X44500000Y-114304761D01*
X44547619Y-114257142D01*
X43499999Y-114257142D02*
X43452380Y-114304761D01*
X43499999Y-114352380D01*
X43547619Y-114304761D01*
X43499999Y-114257142D01*
X43499999Y-114352380D01*
X43499999Y-113733333D02*
X43452380Y-113780952D01*
X43499999Y-113828571D01*
X43547619Y-113780952D01*
X43499999Y-113733333D01*
X43499999Y-113828571D01*
X42833333Y-113352380D02*
X42738095Y-113352380D01*
X42642857Y-113400000D01*
X42595238Y-113447619D01*
X42547619Y-113542857D01*
X42499999Y-113733333D01*
X42499999Y-113971428D01*
X42547619Y-114161904D01*
X42595238Y-114257142D01*
X42642857Y-114304761D01*
X42738095Y-114352380D01*
X42833333Y-114352380D01*
X42928571Y-114304761D01*
X42976190Y-114257142D01*
X43023809Y-114161904D01*
X43071428Y-113971428D01*
X43071428Y-113733333D01*
X43023809Y-113542857D01*
X42976190Y-113447619D01*
X42928571Y-113400000D01*
X42833333Y-113352380D01*
X76452380Y-109852380D02*
X76452380Y-108852380D01*
X76214285Y-108852380D01*
X76071428Y-108900000D01*
X75976190Y-108995238D01*
X75928571Y-109090476D01*
X75880952Y-109280952D01*
X75880952Y-109423809D01*
X75928571Y-109614285D01*
X75976190Y-109709523D01*
X76071428Y-109804761D01*
X76214285Y-109852380D01*
X76452380Y-109852380D01*
X75547619Y-108852380D02*
X74928571Y-108852380D01*
X75261904Y-109233333D01*
X75119047Y-109233333D01*
X75023809Y-109280952D01*
X74976190Y-109328571D01*
X74928571Y-109423809D01*
X74928571Y-109661904D01*
X74976190Y-109757142D01*
X75023809Y-109804761D01*
X75119047Y-109852380D01*
X75404761Y-109852380D01*
X75500000Y-109804761D01*
X75547619Y-109757142D01*
X74500000Y-109757142D02*
X74452380Y-109804761D01*
X74500000Y-109852380D01*
X74547619Y-109804761D01*
X74500000Y-109757142D01*
X74500000Y-109852380D01*
X74500000Y-109233333D02*
X74452380Y-109280952D01*
X74500000Y-109328571D01*
X74547619Y-109280952D01*
X74500000Y-109233333D01*
X74500000Y-109328571D01*
X73500000Y-109852380D02*
X74071428Y-109852380D01*
X73785714Y-109852380D02*
X73785714Y-108852380D01*
X73880952Y-108995238D01*
X73976190Y-109090476D01*
X74071428Y-109138095D01*
X102452380Y-114352380D02*
X102452380Y-113352380D01*
X102214285Y-113352380D01*
X102071428Y-113400000D01*
X101976190Y-113495238D01*
X101928571Y-113590476D01*
X101880952Y-113780952D01*
X101880952Y-113923809D01*
X101928571Y-114114285D01*
X101976190Y-114209523D01*
X102071428Y-114304761D01*
X102214285Y-114352380D01*
X102452380Y-114352380D01*
X101547619Y-113352380D02*
X100928571Y-113352380D01*
X101261904Y-113733333D01*
X101119047Y-113733333D01*
X101023809Y-113780952D01*
X100976190Y-113828571D01*
X100928571Y-113923809D01*
X100928571Y-114161904D01*
X100976190Y-114257142D01*
X101023809Y-114304761D01*
X101119047Y-114352380D01*
X101404761Y-114352380D01*
X101500000Y-114304761D01*
X101547619Y-114257142D01*
X100500000Y-114257142D02*
X100452380Y-114304761D01*
X100500000Y-114352380D01*
X100547619Y-114304761D01*
X100500000Y-114257142D01*
X100500000Y-114352380D01*
X100500000Y-113733333D02*
X100452380Y-113780952D01*
X100500000Y-113828571D01*
X100547619Y-113780952D01*
X100500000Y-113733333D01*
X100500000Y-113828571D01*
X100071428Y-113447619D02*
X100023809Y-113400000D01*
X99928571Y-113352380D01*
X99690476Y-113352380D01*
X99595238Y-113400000D01*
X99547619Y-113447619D01*
X99500000Y-113542857D01*
X99500000Y-113638095D01*
X99547619Y-113780952D01*
X100119047Y-114352380D01*
X99500000Y-114352380D01*
X121452380Y-109802380D02*
X121452380Y-108802380D01*
X121214285Y-108802380D01*
X121071428Y-108850000D01*
X120976190Y-108945238D01*
X120928571Y-109040476D01*
X120880952Y-109230952D01*
X120880952Y-109373809D01*
X120928571Y-109564285D01*
X120976190Y-109659523D01*
X121071428Y-109754761D01*
X121214285Y-109802380D01*
X121452380Y-109802380D01*
X120547619Y-108802380D02*
X119928571Y-108802380D01*
X120261904Y-109183333D01*
X120119047Y-109183333D01*
X120023809Y-109230952D01*
X119976190Y-109278571D01*
X119928571Y-109373809D01*
X119928571Y-109611904D01*
X119976190Y-109707142D01*
X120023809Y-109754761D01*
X120119047Y-109802380D01*
X120404761Y-109802380D01*
X120500000Y-109754761D01*
X120547619Y-109707142D01*
X119500000Y-109707142D02*
X119452380Y-109754761D01*
X119500000Y-109802380D01*
X119547619Y-109754761D01*
X119500000Y-109707142D01*
X119500000Y-109802380D01*
X119500000Y-109183333D02*
X119452380Y-109230952D01*
X119500000Y-109278571D01*
X119547619Y-109230952D01*
X119500000Y-109183333D01*
X119500000Y-109278571D01*
X119119047Y-108802380D02*
X118500000Y-108802380D01*
X118833333Y-109183333D01*
X118690476Y-109183333D01*
X118595238Y-109230952D01*
X118547619Y-109278571D01*
X118500000Y-109373809D01*
X118500000Y-109611904D01*
X118547619Y-109707142D01*
X118595238Y-109754761D01*
X118690476Y-109802380D01*
X118976190Y-109802380D01*
X119071428Y-109754761D01*
X119119047Y-109707142D01*
X140452380Y-114352380D02*
X140452380Y-113352380D01*
X140214285Y-113352380D01*
X140071428Y-113400000D01*
X139976190Y-113495238D01*
X139928571Y-113590476D01*
X139880952Y-113780952D01*
X139880952Y-113923809D01*
X139928571Y-114114285D01*
X139976190Y-114209523D01*
X140071428Y-114304761D01*
X140214285Y-114352380D01*
X140452380Y-114352380D01*
X139547619Y-113352380D02*
X138928571Y-113352380D01*
X139261904Y-113733333D01*
X139119047Y-113733333D01*
X139023809Y-113780952D01*
X138976190Y-113828571D01*
X138928571Y-113923809D01*
X138928571Y-114161904D01*
X138976190Y-114257142D01*
X139023809Y-114304761D01*
X139119047Y-114352380D01*
X139404761Y-114352380D01*
X139500000Y-114304761D01*
X139547619Y-114257142D01*
X138500000Y-114257142D02*
X138452380Y-114304761D01*
X138500000Y-114352380D01*
X138547619Y-114304761D01*
X138500000Y-114257142D01*
X138500000Y-114352380D01*
X138500000Y-113733333D02*
X138452380Y-113780952D01*
X138500000Y-113828571D01*
X138547619Y-113780952D01*
X138500000Y-113733333D01*
X138500000Y-113828571D01*
X137595238Y-113685714D02*
X137595238Y-114352380D01*
X137833333Y-113304761D02*
X138071428Y-114019047D01*
X137452380Y-114019047D01*
X159452380Y-109802380D02*
X159452380Y-108802380D01*
X159214285Y-108802380D01*
X159071428Y-108850000D01*
X158976190Y-108945238D01*
X158928571Y-109040476D01*
X158880952Y-109230952D01*
X158880952Y-109373809D01*
X158928571Y-109564285D01*
X158976190Y-109659523D01*
X159071428Y-109754761D01*
X159214285Y-109802380D01*
X159452380Y-109802380D01*
X158547619Y-108802380D02*
X157928571Y-108802380D01*
X158261904Y-109183333D01*
X158119047Y-109183333D01*
X158023809Y-109230952D01*
X157976190Y-109278571D01*
X157928571Y-109373809D01*
X157928571Y-109611904D01*
X157976190Y-109707142D01*
X158023809Y-109754761D01*
X158119047Y-109802380D01*
X158404761Y-109802380D01*
X158500000Y-109754761D01*
X158547619Y-109707142D01*
X157500000Y-109707142D02*
X157452380Y-109754761D01*
X157500000Y-109802380D01*
X157547619Y-109754761D01*
X157500000Y-109707142D01*
X157500000Y-109802380D01*
X157500000Y-109183333D02*
X157452380Y-109230952D01*
X157500000Y-109278571D01*
X157547619Y-109230952D01*
X157500000Y-109183333D01*
X157500000Y-109278571D01*
X156547619Y-108802380D02*
X157023809Y-108802380D01*
X157071428Y-109278571D01*
X157023809Y-109230952D01*
X156928571Y-109183333D01*
X156690476Y-109183333D01*
X156595238Y-109230952D01*
X156547619Y-109278571D01*
X156500000Y-109373809D01*
X156500000Y-109611904D01*
X156547619Y-109707142D01*
X156595238Y-109754761D01*
X156690476Y-109802380D01*
X156928571Y-109802380D01*
X157023809Y-109754761D01*
X157071428Y-109707142D01*
X178552380Y-114352380D02*
X178552380Y-113352380D01*
X178314285Y-113352380D01*
X178171428Y-113400000D01*
X178076190Y-113495238D01*
X178028571Y-113590476D01*
X177980952Y-113780952D01*
X177980952Y-113923809D01*
X178028571Y-114114285D01*
X178076190Y-114209523D01*
X178171428Y-114304761D01*
X178314285Y-114352380D01*
X178552380Y-114352380D01*
X177647619Y-113352380D02*
X177028571Y-113352380D01*
X177361904Y-113733333D01*
X177219047Y-113733333D01*
X177123809Y-113780952D01*
X177076190Y-113828571D01*
X177028571Y-113923809D01*
X177028571Y-114161904D01*
X177076190Y-114257142D01*
X177123809Y-114304761D01*
X177219047Y-114352380D01*
X177504761Y-114352380D01*
X177600000Y-114304761D01*
X177647619Y-114257142D01*
X176600000Y-114257142D02*
X176552380Y-114304761D01*
X176600000Y-114352380D01*
X176647619Y-114304761D01*
X176600000Y-114257142D01*
X176600000Y-114352380D01*
X176600000Y-113733333D02*
X176552380Y-113780952D01*
X176600000Y-113828571D01*
X176647619Y-113780952D01*
X176600000Y-113733333D01*
X176600000Y-113828571D01*
X175695238Y-113352380D02*
X175885714Y-113352380D01*
X175980952Y-113400000D01*
X176028571Y-113447619D01*
X176123809Y-113590476D01*
X176171428Y-113780952D01*
X176171428Y-114161904D01*
X176123809Y-114257142D01*
X176076190Y-114304761D01*
X175980952Y-114352380D01*
X175790476Y-114352380D01*
X175695238Y-114304761D01*
X175647619Y-114257142D01*
X175600000Y-114161904D01*
X175600000Y-113923809D01*
X175647619Y-113828571D01*
X175695238Y-113780952D01*
X175790476Y-113733333D01*
X175980952Y-113733333D01*
X176076190Y-113780952D01*
X176123809Y-113828571D01*
X176171428Y-113923809D01*
X245452380Y-109802380D02*
X245452380Y-108802380D01*
X245214285Y-108802380D01*
X245071428Y-108850000D01*
X244976190Y-108945238D01*
X244928571Y-109040476D01*
X244880952Y-109230952D01*
X244880952Y-109373809D01*
X244928571Y-109564285D01*
X244976190Y-109659523D01*
X245071428Y-109754761D01*
X245214285Y-109802380D01*
X245452380Y-109802380D01*
X244547619Y-108802380D02*
X243928571Y-108802380D01*
X244261904Y-109183333D01*
X244119047Y-109183333D01*
X244023809Y-109230952D01*
X243976190Y-109278571D01*
X243928571Y-109373809D01*
X243928571Y-109611904D01*
X243976190Y-109707142D01*
X244023809Y-109754761D01*
X244119047Y-109802380D01*
X244404761Y-109802380D01*
X244500000Y-109754761D01*
X244547619Y-109707142D01*
X243500000Y-109707142D02*
X243452380Y-109754761D01*
X243500000Y-109802380D01*
X243547619Y-109754761D01*
X243500000Y-109707142D01*
X243500000Y-109802380D01*
X243500000Y-109183333D02*
X243452380Y-109230952D01*
X243500000Y-109278571D01*
X243547619Y-109230952D01*
X243500000Y-109183333D01*
X243500000Y-109278571D01*
X243119047Y-108802380D02*
X242452380Y-108802380D01*
X242880952Y-109802380D01*
X263952380Y-114352380D02*
X263952380Y-113352380D01*
X263714285Y-113352380D01*
X263571428Y-113400000D01*
X263476190Y-113495238D01*
X263428571Y-113590476D01*
X263380952Y-113780952D01*
X263380952Y-113923809D01*
X263428571Y-114114285D01*
X263476190Y-114209523D01*
X263571428Y-114304761D01*
X263714285Y-114352380D01*
X263952380Y-114352380D01*
X263047619Y-113352380D02*
X262428571Y-113352380D01*
X262761904Y-113733333D01*
X262619047Y-113733333D01*
X262523809Y-113780952D01*
X262476190Y-113828571D01*
X262428571Y-113923809D01*
X262428571Y-114161904D01*
X262476190Y-114257142D01*
X262523809Y-114304761D01*
X262619047Y-114352380D01*
X262904761Y-114352380D01*
X263000000Y-114304761D01*
X263047619Y-114257142D01*
X262000000Y-114257142D02*
X261952380Y-114304761D01*
X262000000Y-114352380D01*
X262047619Y-114304761D01*
X262000000Y-114257142D01*
X262000000Y-114352380D01*
X262000000Y-113733333D02*
X261952380Y-113780952D01*
X262000000Y-113828571D01*
X262047619Y-113780952D01*
X262000000Y-113733333D01*
X262000000Y-113828571D01*
X261380952Y-113780952D02*
X261476190Y-113733333D01*
X261523809Y-113685714D01*
X261571428Y-113590476D01*
X261571428Y-113542857D01*
X261523809Y-113447619D01*
X261476190Y-113400000D01*
X261380952Y-113352380D01*
X261190476Y-113352380D01*
X261095238Y-113400000D01*
X261047619Y-113447619D01*
X261000000Y-113542857D01*
X261000000Y-113590476D01*
X261047619Y-113685714D01*
X261095238Y-113733333D01*
X261190476Y-113780952D01*
X261380952Y-113780952D01*
X261476190Y-113828571D01*
X261523809Y-113876190D01*
X261571428Y-113971428D01*
X261571428Y-114161904D01*
X261523809Y-114257142D01*
X261476190Y-114304761D01*
X261380952Y-114352380D01*
X261190476Y-114352380D01*
X261095238Y-114304761D01*
X261047619Y-114257142D01*
X261000000Y-114161904D01*
X261000000Y-113971428D01*
X261047619Y-113876190D01*
X261095238Y-113828571D01*
X261190476Y-113780952D01*
X282952380Y-109652380D02*
X282952380Y-108652380D01*
X282714285Y-108652380D01*
X282571428Y-108700000D01*
X282476190Y-108795238D01*
X282428571Y-108890476D01*
X282380952Y-109080952D01*
X282380952Y-109223809D01*
X282428571Y-109414285D01*
X282476190Y-109509523D01*
X282571428Y-109604761D01*
X282714285Y-109652380D01*
X282952380Y-109652380D01*
X282047619Y-108652380D02*
X281428571Y-108652380D01*
X281761904Y-109033333D01*
X281619047Y-109033333D01*
X281523809Y-109080952D01*
X281476190Y-109128571D01*
X281428571Y-109223809D01*
X281428571Y-109461904D01*
X281476190Y-109557142D01*
X281523809Y-109604761D01*
X281619047Y-109652380D01*
X281904761Y-109652380D01*
X282000000Y-109604761D01*
X282047619Y-109557142D01*
X281000000Y-109557142D02*
X280952380Y-109604761D01*
X281000000Y-109652380D01*
X281047619Y-109604761D01*
X281000000Y-109557142D01*
X281000000Y-109652380D01*
X281000000Y-109033333D02*
X280952380Y-109080952D01*
X281000000Y-109128571D01*
X281047619Y-109080952D01*
X281000000Y-109033333D01*
X281000000Y-109128571D01*
X280476190Y-109652380D02*
X280285714Y-109652380D01*
X280190476Y-109604761D01*
X280142857Y-109557142D01*
X280047619Y-109414285D01*
X280000000Y-109223809D01*
X280000000Y-108842857D01*
X280047619Y-108747619D01*
X280095238Y-108700000D01*
X280190476Y-108652380D01*
X280380952Y-108652380D01*
X280476190Y-108700000D01*
X280523809Y-108747619D01*
X280571428Y-108842857D01*
X280571428Y-109080952D01*
X280523809Y-109176190D01*
X280476190Y-109223809D01*
X280380952Y-109271428D01*
X280190476Y-109271428D01*
X280095238Y-109223809D01*
X280047619Y-109176190D01*
X280000000Y-109080952D01*
X302928571Y-114352380D02*
X302928571Y-113352380D01*
X302690476Y-113352380D01*
X302547619Y-113400000D01*
X302452380Y-113495238D01*
X302404761Y-113590476D01*
X302357142Y-113780952D01*
X302357142Y-113923809D01*
X302404761Y-114114285D01*
X302452380Y-114209523D01*
X302547619Y-114304761D01*
X302690476Y-114352380D01*
X302928571Y-114352380D01*
X302023809Y-113352380D02*
X301404761Y-113352380D01*
X301738095Y-113733333D01*
X301595238Y-113733333D01*
X301500000Y-113780952D01*
X301452380Y-113828571D01*
X301404761Y-113923809D01*
X301404761Y-114161904D01*
X301452380Y-114257142D01*
X301500000Y-114304761D01*
X301595238Y-114352380D01*
X301880952Y-114352380D01*
X301976190Y-114304761D01*
X302023809Y-114257142D01*
X300976190Y-114257142D02*
X300928571Y-114304761D01*
X300976190Y-114352380D01*
X301023809Y-114304761D01*
X300976190Y-114257142D01*
X300976190Y-114352380D01*
X300976190Y-113733333D02*
X300928571Y-113780952D01*
X300976190Y-113828571D01*
X301023809Y-113780952D01*
X300976190Y-113733333D01*
X300976190Y-113828571D01*
X299976190Y-114352380D02*
X300547619Y-114352380D01*
X300261904Y-114352380D02*
X300261904Y-113352380D01*
X300357142Y-113495238D01*
X300452380Y-113590476D01*
X300547619Y-113638095D01*
X299357142Y-113352380D02*
X299261904Y-113352380D01*
X299166666Y-113400000D01*
X299119047Y-113447619D01*
X299071428Y-113542857D01*
X299023809Y-113733333D01*
X299023809Y-113971428D01*
X299071428Y-114161904D01*
X299119047Y-114257142D01*
X299166666Y-114304761D01*
X299261904Y-114352380D01*
X299357142Y-114352380D01*
X299452380Y-114304761D01*
X299500000Y-114257142D01*
X299547619Y-114161904D01*
X299595238Y-113971428D01*
X299595238Y-113733333D01*
X299547619Y-113542857D01*
X299500000Y-113447619D01*
X299452380Y-113400000D01*
X299357142Y-113352380D01*
X321928571Y-109652380D02*
X321928571Y-108652380D01*
X321690476Y-108652380D01*
X321547619Y-108700000D01*
X321452380Y-108795238D01*
X321404761Y-108890476D01*
X321357142Y-109080952D01*
X321357142Y-109223809D01*
X321404761Y-109414285D01*
X321452380Y-109509523D01*
X321547619Y-109604761D01*
X321690476Y-109652380D01*
X321928571Y-109652380D01*
X321023809Y-108652380D02*
X320404761Y-108652380D01*
X320738095Y-109033333D01*
X320595238Y-109033333D01*
X320500000Y-109080952D01*
X320452380Y-109128571D01*
X320404761Y-109223809D01*
X320404761Y-109461904D01*
X320452380Y-109557142D01*
X320500000Y-109604761D01*
X320595238Y-109652380D01*
X320880952Y-109652380D01*
X320976190Y-109604761D01*
X321023809Y-109557142D01*
X319976190Y-109557142D02*
X319928571Y-109604761D01*
X319976190Y-109652380D01*
X320023809Y-109604761D01*
X319976190Y-109557142D01*
X319976190Y-109652380D01*
X319976190Y-109033333D02*
X319928571Y-109080952D01*
X319976190Y-109128571D01*
X320023809Y-109080952D01*
X319976190Y-109033333D01*
X319976190Y-109128571D01*
X318976190Y-109652380D02*
X319547619Y-109652380D01*
X319261904Y-109652380D02*
X319261904Y-108652380D01*
X319357142Y-108795238D01*
X319452380Y-108890476D01*
X319547619Y-108938095D01*
X318023809Y-109652380D02*
X318595238Y-109652380D01*
X318309523Y-109652380D02*
X318309523Y-108652380D01*
X318404761Y-108795238D01*
X318500000Y-108890476D01*
X318595238Y-108938095D01*
X340928571Y-114452380D02*
X340928571Y-113452380D01*
X340690476Y-113452380D01*
X340547619Y-113500000D01*
X340452380Y-113595238D01*
X340404761Y-113690476D01*
X340357142Y-113880952D01*
X340357142Y-114023809D01*
X340404761Y-114214285D01*
X340452380Y-114309523D01*
X340547619Y-114404761D01*
X340690476Y-114452380D01*
X340928571Y-114452380D01*
X340023809Y-113452380D02*
X339404761Y-113452380D01*
X339738095Y-113833333D01*
X339595238Y-113833333D01*
X339500000Y-113880952D01*
X339452380Y-113928571D01*
X339404761Y-114023809D01*
X339404761Y-114261904D01*
X339452380Y-114357142D01*
X339500000Y-114404761D01*
X339595238Y-114452380D01*
X339880952Y-114452380D01*
X339976190Y-114404761D01*
X340023809Y-114357142D01*
X338976190Y-114357142D02*
X338928571Y-114404761D01*
X338976190Y-114452380D01*
X339023809Y-114404761D01*
X338976190Y-114357142D01*
X338976190Y-114452380D01*
X338976190Y-113833333D02*
X338928571Y-113880952D01*
X338976190Y-113928571D01*
X339023809Y-113880952D01*
X338976190Y-113833333D01*
X338976190Y-113928571D01*
X337976190Y-114452380D02*
X338547619Y-114452380D01*
X338261904Y-114452380D02*
X338261904Y-113452380D01*
X338357142Y-113595238D01*
X338452380Y-113690476D01*
X338547619Y-113738095D01*
X337595238Y-113547619D02*
X337547619Y-113500000D01*
X337452380Y-113452380D01*
X337214285Y-113452380D01*
X337119047Y-113500000D01*
X337071428Y-113547619D01*
X337023809Y-113642857D01*
X337023809Y-113738095D01*
X337071428Y-113880952D01*
X337642857Y-114452380D01*
X337023809Y-114452380D01*
X371928571Y-109652380D02*
X371928571Y-108652380D01*
X371690476Y-108652380D01*
X371547619Y-108700000D01*
X371452380Y-108795238D01*
X371404761Y-108890476D01*
X371357142Y-109080952D01*
X371357142Y-109223809D01*
X371404761Y-109414285D01*
X371452380Y-109509523D01*
X371547619Y-109604761D01*
X371690476Y-109652380D01*
X371928571Y-109652380D01*
X371023809Y-108652380D02*
X370404761Y-108652380D01*
X370738095Y-109033333D01*
X370595238Y-109033333D01*
X370500000Y-109080952D01*
X370452380Y-109128571D01*
X370404761Y-109223809D01*
X370404761Y-109461904D01*
X370452380Y-109557142D01*
X370500000Y-109604761D01*
X370595238Y-109652380D01*
X370880952Y-109652380D01*
X370976190Y-109604761D01*
X371023809Y-109557142D01*
X369976190Y-109557142D02*
X369928571Y-109604761D01*
X369976190Y-109652380D01*
X370023809Y-109604761D01*
X369976190Y-109557142D01*
X369976190Y-109652380D01*
X369976190Y-109033333D02*
X369928571Y-109080952D01*
X369976190Y-109128571D01*
X370023809Y-109080952D01*
X369976190Y-109033333D01*
X369976190Y-109128571D01*
X368976190Y-109652380D02*
X369547619Y-109652380D01*
X369261904Y-109652380D02*
X369261904Y-108652380D01*
X369357142Y-108795238D01*
X369452380Y-108890476D01*
X369547619Y-108938095D01*
X368642857Y-108652380D02*
X368023809Y-108652380D01*
X368357142Y-109033333D01*
X368214285Y-109033333D01*
X368119047Y-109080952D01*
X368071428Y-109128571D01*
X368023809Y-109223809D01*
X368023809Y-109461904D01*
X368071428Y-109557142D01*
X368119047Y-109604761D01*
X368214285Y-109652380D01*
X368500000Y-109652380D01*
X368595238Y-109604761D01*
X368642857Y-109557142D01*
X50452380Y-95352380D02*
X50452380Y-94352380D01*
X50214285Y-94352380D01*
X50071428Y-94400000D01*
X49976190Y-94495238D01*
X49928571Y-94590476D01*
X49880952Y-94780952D01*
X49880952Y-94923809D01*
X49928571Y-95114285D01*
X49976190Y-95209523D01*
X50071428Y-95304761D01*
X50214285Y-95352380D01*
X50452380Y-95352380D01*
X49023809Y-94685714D02*
X49023809Y-95352380D01*
X49261904Y-94304761D02*
X49500000Y-95019047D01*
X48880952Y-95019047D01*
X48499999Y-95257142D02*
X48452380Y-95304761D01*
X48499999Y-95352380D01*
X48547619Y-95304761D01*
X48499999Y-95257142D01*
X48499999Y-95352380D01*
X48499999Y-94733333D02*
X48452380Y-94780952D01*
X48499999Y-94828571D01*
X48547619Y-94780952D01*
X48499999Y-94733333D01*
X48499999Y-94828571D01*
X47833333Y-94352380D02*
X47738095Y-94352380D01*
X47642857Y-94400000D01*
X47595238Y-94447619D01*
X47547619Y-94542857D01*
X47499999Y-94733333D01*
X47499999Y-94971428D01*
X47547619Y-95161904D01*
X47595238Y-95257142D01*
X47642857Y-95304761D01*
X47738095Y-95352380D01*
X47833333Y-95352380D01*
X47928571Y-95304761D01*
X47976190Y-95257142D01*
X48023809Y-95161904D01*
X48071428Y-94971428D01*
X48071428Y-94733333D01*
X48023809Y-94542857D01*
X47976190Y-94447619D01*
X47928571Y-94400000D01*
X47833333Y-94352380D01*
X78452380Y-90952380D02*
X78452380Y-89952380D01*
X78214285Y-89952380D01*
X78071428Y-90000000D01*
X77976190Y-90095238D01*
X77928571Y-90190476D01*
X77880952Y-90380952D01*
X77880952Y-90523809D01*
X77928571Y-90714285D01*
X77976190Y-90809523D01*
X78071428Y-90904761D01*
X78214285Y-90952380D01*
X78452380Y-90952380D01*
X77023809Y-90285714D02*
X77023809Y-90952380D01*
X77261904Y-89904761D02*
X77500000Y-90619047D01*
X76880952Y-90619047D01*
X76500000Y-90857142D02*
X76452380Y-90904761D01*
X76500000Y-90952380D01*
X76547619Y-90904761D01*
X76500000Y-90857142D01*
X76500000Y-90952380D01*
X76500000Y-90333333D02*
X76452380Y-90380952D01*
X76500000Y-90428571D01*
X76547619Y-90380952D01*
X76500000Y-90333333D01*
X76500000Y-90428571D01*
X75500000Y-90952380D02*
X76071428Y-90952380D01*
X75785714Y-90952380D02*
X75785714Y-89952380D01*
X75880952Y-90095238D01*
X75976190Y-90190476D01*
X76071428Y-90238095D01*
X102402380Y-95302380D02*
X102402380Y-94302380D01*
X102164285Y-94302380D01*
X102021428Y-94350000D01*
X101926190Y-94445238D01*
X101878571Y-94540476D01*
X101830952Y-94730952D01*
X101830952Y-94873809D01*
X101878571Y-95064285D01*
X101926190Y-95159523D01*
X102021428Y-95254761D01*
X102164285Y-95302380D01*
X102402380Y-95302380D01*
X100973809Y-94635714D02*
X100973809Y-95302380D01*
X101211904Y-94254761D02*
X101450000Y-94969047D01*
X100830952Y-94969047D01*
X100450000Y-95207142D02*
X100402380Y-95254761D01*
X100450000Y-95302380D01*
X100497619Y-95254761D01*
X100450000Y-95207142D01*
X100450000Y-95302380D01*
X100450000Y-94683333D02*
X100402380Y-94730952D01*
X100450000Y-94778571D01*
X100497619Y-94730952D01*
X100450000Y-94683333D01*
X100450000Y-94778571D01*
X100021428Y-94397619D02*
X99973809Y-94350000D01*
X99878571Y-94302380D01*
X99640476Y-94302380D01*
X99545238Y-94350000D01*
X99497619Y-94397619D01*
X99450000Y-94492857D01*
X99450000Y-94588095D01*
X99497619Y-94730952D01*
X100069047Y-95302380D01*
X99450000Y-95302380D01*
X121452380Y-90952380D02*
X121452380Y-89952380D01*
X121214285Y-89952380D01*
X121071428Y-90000000D01*
X120976190Y-90095238D01*
X120928571Y-90190476D01*
X120880952Y-90380952D01*
X120880952Y-90523809D01*
X120928571Y-90714285D01*
X120976190Y-90809523D01*
X121071428Y-90904761D01*
X121214285Y-90952380D01*
X121452380Y-90952380D01*
X120023809Y-90285714D02*
X120023809Y-90952380D01*
X120261904Y-89904761D02*
X120500000Y-90619047D01*
X119880952Y-90619047D01*
X119500000Y-90857142D02*
X119452380Y-90904761D01*
X119500000Y-90952380D01*
X119547619Y-90904761D01*
X119500000Y-90857142D01*
X119500000Y-90952380D01*
X119500000Y-90333333D02*
X119452380Y-90380952D01*
X119500000Y-90428571D01*
X119547619Y-90380952D01*
X119500000Y-90333333D01*
X119500000Y-90428571D01*
X119119047Y-89952380D02*
X118500000Y-89952380D01*
X118833333Y-90333333D01*
X118690476Y-90333333D01*
X118595238Y-90380952D01*
X118547619Y-90428571D01*
X118500000Y-90523809D01*
X118500000Y-90761904D01*
X118547619Y-90857142D01*
X118595238Y-90904761D01*
X118690476Y-90952380D01*
X118976190Y-90952380D01*
X119071428Y-90904761D01*
X119119047Y-90857142D01*
X140452380Y-95302380D02*
X140452380Y-94302380D01*
X140214285Y-94302380D01*
X140071428Y-94350000D01*
X139976190Y-94445238D01*
X139928571Y-94540476D01*
X139880952Y-94730952D01*
X139880952Y-94873809D01*
X139928571Y-95064285D01*
X139976190Y-95159523D01*
X140071428Y-95254761D01*
X140214285Y-95302380D01*
X140452380Y-95302380D01*
X139023809Y-94635714D02*
X139023809Y-95302380D01*
X139261904Y-94254761D02*
X139500000Y-94969047D01*
X138880952Y-94969047D01*
X138500000Y-95207142D02*
X138452380Y-95254761D01*
X138500000Y-95302380D01*
X138547619Y-95254761D01*
X138500000Y-95207142D01*
X138500000Y-95302380D01*
X138500000Y-94683333D02*
X138452380Y-94730952D01*
X138500000Y-94778571D01*
X138547619Y-94730952D01*
X138500000Y-94683333D01*
X138500000Y-94778571D01*
X137595238Y-94635714D02*
X137595238Y-95302380D01*
X137833333Y-94254761D02*
X138071428Y-94969047D01*
X137452380Y-94969047D01*
X159452380Y-90952380D02*
X159452380Y-89952380D01*
X159214285Y-89952380D01*
X159071428Y-90000000D01*
X158976190Y-90095238D01*
X158928571Y-90190476D01*
X158880952Y-90380952D01*
X158880952Y-90523809D01*
X158928571Y-90714285D01*
X158976190Y-90809523D01*
X159071428Y-90904761D01*
X159214285Y-90952380D01*
X159452380Y-90952380D01*
X158023809Y-90285714D02*
X158023809Y-90952380D01*
X158261904Y-89904761D02*
X158500000Y-90619047D01*
X157880952Y-90619047D01*
X157500000Y-90857142D02*
X157452380Y-90904761D01*
X157500000Y-90952380D01*
X157547619Y-90904761D01*
X157500000Y-90857142D01*
X157500000Y-90952380D01*
X157500000Y-90333333D02*
X157452380Y-90380952D01*
X157500000Y-90428571D01*
X157547619Y-90380952D01*
X157500000Y-90333333D01*
X157500000Y-90428571D01*
X156547619Y-89952380D02*
X157023809Y-89952380D01*
X157071428Y-90428571D01*
X157023809Y-90380952D01*
X156928571Y-90333333D01*
X156690476Y-90333333D01*
X156595238Y-90380952D01*
X156547619Y-90428571D01*
X156500000Y-90523809D01*
X156500000Y-90761904D01*
X156547619Y-90857142D01*
X156595238Y-90904761D01*
X156690476Y-90952380D01*
X156928571Y-90952380D01*
X157023809Y-90904761D01*
X157071428Y-90857142D01*
X177952380Y-95302380D02*
X177952380Y-94302380D01*
X177714285Y-94302380D01*
X177571428Y-94350000D01*
X177476190Y-94445238D01*
X177428571Y-94540476D01*
X177380952Y-94730952D01*
X177380952Y-94873809D01*
X177428571Y-95064285D01*
X177476190Y-95159523D01*
X177571428Y-95254761D01*
X177714285Y-95302380D01*
X177952380Y-95302380D01*
X176523809Y-94635714D02*
X176523809Y-95302380D01*
X176761904Y-94254761D02*
X177000000Y-94969047D01*
X176380952Y-94969047D01*
X176000000Y-95207142D02*
X175952380Y-95254761D01*
X176000000Y-95302380D01*
X176047619Y-95254761D01*
X176000000Y-95207142D01*
X176000000Y-95302380D01*
X176000000Y-94683333D02*
X175952380Y-94730952D01*
X176000000Y-94778571D01*
X176047619Y-94730952D01*
X176000000Y-94683333D01*
X176000000Y-94778571D01*
X175095238Y-94302380D02*
X175285714Y-94302380D01*
X175380952Y-94350000D01*
X175428571Y-94397619D01*
X175523809Y-94540476D01*
X175571428Y-94730952D01*
X175571428Y-95111904D01*
X175523809Y-95207142D01*
X175476190Y-95254761D01*
X175380952Y-95302380D01*
X175190476Y-95302380D01*
X175095238Y-95254761D01*
X175047619Y-95207142D01*
X175000000Y-95111904D01*
X175000000Y-94873809D01*
X175047619Y-94778571D01*
X175095238Y-94730952D01*
X175190476Y-94683333D01*
X175380952Y-94683333D01*
X175476190Y-94730952D01*
X175523809Y-94778571D01*
X175571428Y-94873809D01*
X245452380Y-90452380D02*
X245452380Y-89452380D01*
X245214285Y-89452380D01*
X245071428Y-89500000D01*
X244976190Y-89595238D01*
X244928571Y-89690476D01*
X244880952Y-89880952D01*
X244880952Y-90023809D01*
X244928571Y-90214285D01*
X244976190Y-90309523D01*
X245071428Y-90404761D01*
X245214285Y-90452380D01*
X245452380Y-90452380D01*
X244023809Y-89785714D02*
X244023809Y-90452380D01*
X244261904Y-89404761D02*
X244500000Y-90119047D01*
X243880952Y-90119047D01*
X243500000Y-90357142D02*
X243452380Y-90404761D01*
X243500000Y-90452380D01*
X243547619Y-90404761D01*
X243500000Y-90357142D01*
X243500000Y-90452380D01*
X243500000Y-89833333D02*
X243452380Y-89880952D01*
X243500000Y-89928571D01*
X243547619Y-89880952D01*
X243500000Y-89833333D01*
X243500000Y-89928571D01*
X243119047Y-89452380D02*
X242452380Y-89452380D01*
X242880952Y-90452380D01*
X264452380Y-94852380D02*
X264452380Y-93852380D01*
X264214285Y-93852380D01*
X264071428Y-93900000D01*
X263976190Y-93995238D01*
X263928571Y-94090476D01*
X263880952Y-94280952D01*
X263880952Y-94423809D01*
X263928571Y-94614285D01*
X263976190Y-94709523D01*
X264071428Y-94804761D01*
X264214285Y-94852380D01*
X264452380Y-94852380D01*
X263023809Y-94185714D02*
X263023809Y-94852380D01*
X263261904Y-93804761D02*
X263500000Y-94519047D01*
X262880952Y-94519047D01*
X262500000Y-94757142D02*
X262452380Y-94804761D01*
X262500000Y-94852380D01*
X262547619Y-94804761D01*
X262500000Y-94757142D01*
X262500000Y-94852380D01*
X262500000Y-94233333D02*
X262452380Y-94280952D01*
X262500000Y-94328571D01*
X262547619Y-94280952D01*
X262500000Y-94233333D01*
X262500000Y-94328571D01*
X261880952Y-94280952D02*
X261976190Y-94233333D01*
X262023809Y-94185714D01*
X262071428Y-94090476D01*
X262071428Y-94042857D01*
X262023809Y-93947619D01*
X261976190Y-93900000D01*
X261880952Y-93852380D01*
X261690476Y-93852380D01*
X261595238Y-93900000D01*
X261547619Y-93947619D01*
X261500000Y-94042857D01*
X261500000Y-94090476D01*
X261547619Y-94185714D01*
X261595238Y-94233333D01*
X261690476Y-94280952D01*
X261880952Y-94280952D01*
X261976190Y-94328571D01*
X262023809Y-94376190D01*
X262071428Y-94471428D01*
X262071428Y-94661904D01*
X262023809Y-94757142D01*
X261976190Y-94804761D01*
X261880952Y-94852380D01*
X261690476Y-94852380D01*
X261595238Y-94804761D01*
X261547619Y-94757142D01*
X261500000Y-94661904D01*
X261500000Y-94471428D01*
X261547619Y-94376190D01*
X261595238Y-94328571D01*
X261690476Y-94280952D01*
X283452380Y-90402380D02*
X283452380Y-89402380D01*
X283214285Y-89402380D01*
X283071428Y-89450000D01*
X282976190Y-89545238D01*
X282928571Y-89640476D01*
X282880952Y-89830952D01*
X282880952Y-89973809D01*
X282928571Y-90164285D01*
X282976190Y-90259523D01*
X283071428Y-90354761D01*
X283214285Y-90402380D01*
X283452380Y-90402380D01*
X282023809Y-89735714D02*
X282023809Y-90402380D01*
X282261904Y-89354761D02*
X282500000Y-90069047D01*
X281880952Y-90069047D01*
X281500000Y-90307142D02*
X281452380Y-90354761D01*
X281500000Y-90402380D01*
X281547619Y-90354761D01*
X281500000Y-90307142D01*
X281500000Y-90402380D01*
X281500000Y-89783333D02*
X281452380Y-89830952D01*
X281500000Y-89878571D01*
X281547619Y-89830952D01*
X281500000Y-89783333D01*
X281500000Y-89878571D01*
X280976190Y-90402380D02*
X280785714Y-90402380D01*
X280690476Y-90354761D01*
X280642857Y-90307142D01*
X280547619Y-90164285D01*
X280500000Y-89973809D01*
X280500000Y-89592857D01*
X280547619Y-89497619D01*
X280595238Y-89450000D01*
X280690476Y-89402380D01*
X280880952Y-89402380D01*
X280976190Y-89450000D01*
X281023809Y-89497619D01*
X281071428Y-89592857D01*
X281071428Y-89830952D01*
X281023809Y-89926190D01*
X280976190Y-89973809D01*
X280880952Y-90021428D01*
X280690476Y-90021428D01*
X280595238Y-89973809D01*
X280547619Y-89926190D01*
X280500000Y-89830952D01*
X302978571Y-94852380D02*
X302978571Y-93852380D01*
X302740476Y-93852380D01*
X302597619Y-93900000D01*
X302502380Y-93995238D01*
X302454761Y-94090476D01*
X302407142Y-94280952D01*
X302407142Y-94423809D01*
X302454761Y-94614285D01*
X302502380Y-94709523D01*
X302597619Y-94804761D01*
X302740476Y-94852380D01*
X302978571Y-94852380D01*
X301550000Y-94185714D02*
X301550000Y-94852380D01*
X301788095Y-93804761D02*
X302026190Y-94519047D01*
X301407142Y-94519047D01*
X301026190Y-94757142D02*
X300978571Y-94804761D01*
X301026190Y-94852380D01*
X301073809Y-94804761D01*
X301026190Y-94757142D01*
X301026190Y-94852380D01*
X301026190Y-94233333D02*
X300978571Y-94280952D01*
X301026190Y-94328571D01*
X301073809Y-94280952D01*
X301026190Y-94233333D01*
X301026190Y-94328571D01*
X300026190Y-94852380D02*
X300597619Y-94852380D01*
X300311904Y-94852380D02*
X300311904Y-93852380D01*
X300407142Y-93995238D01*
X300502380Y-94090476D01*
X300597619Y-94138095D01*
X299407142Y-93852380D02*
X299311904Y-93852380D01*
X299216666Y-93900000D01*
X299169047Y-93947619D01*
X299121428Y-94042857D01*
X299073809Y-94233333D01*
X299073809Y-94471428D01*
X299121428Y-94661904D01*
X299169047Y-94757142D01*
X299216666Y-94804761D01*
X299311904Y-94852380D01*
X299407142Y-94852380D01*
X299502380Y-94804761D01*
X299550000Y-94757142D01*
X299597619Y-94661904D01*
X299645238Y-94471428D01*
X299645238Y-94233333D01*
X299597619Y-94042857D01*
X299550000Y-93947619D01*
X299502380Y-93900000D01*
X299407142Y-93852380D01*
X321928571Y-90302380D02*
X321928571Y-89302380D01*
X321690476Y-89302380D01*
X321547619Y-89350000D01*
X321452380Y-89445238D01*
X321404761Y-89540476D01*
X321357142Y-89730952D01*
X321357142Y-89873809D01*
X321404761Y-90064285D01*
X321452380Y-90159523D01*
X321547619Y-90254761D01*
X321690476Y-90302380D01*
X321928571Y-90302380D01*
X320500000Y-89635714D02*
X320500000Y-90302380D01*
X320738095Y-89254761D02*
X320976190Y-89969047D01*
X320357142Y-89969047D01*
X319976190Y-90207142D02*
X319928571Y-90254761D01*
X319976190Y-90302380D01*
X320023809Y-90254761D01*
X319976190Y-90207142D01*
X319976190Y-90302380D01*
X319976190Y-89683333D02*
X319928571Y-89730952D01*
X319976190Y-89778571D01*
X320023809Y-89730952D01*
X319976190Y-89683333D01*
X319976190Y-89778571D01*
X318976190Y-90302380D02*
X319547619Y-90302380D01*
X319261904Y-90302380D02*
X319261904Y-89302380D01*
X319357142Y-89445238D01*
X319452380Y-89540476D01*
X319547619Y-89588095D01*
X318023809Y-90302380D02*
X318595238Y-90302380D01*
X318309523Y-90302380D02*
X318309523Y-89302380D01*
X318404761Y-89445238D01*
X318500000Y-89540476D01*
X318595238Y-89588095D01*
X345928571Y-94802380D02*
X345928571Y-93802380D01*
X345690476Y-93802380D01*
X345547619Y-93850000D01*
X345452380Y-93945238D01*
X345404761Y-94040476D01*
X345357142Y-94230952D01*
X345357142Y-94373809D01*
X345404761Y-94564285D01*
X345452380Y-94659523D01*
X345547619Y-94754761D01*
X345690476Y-94802380D01*
X345928571Y-94802380D01*
X344500000Y-94135714D02*
X344500000Y-94802380D01*
X344738095Y-93754761D02*
X344976190Y-94469047D01*
X344357142Y-94469047D01*
X343976190Y-94707142D02*
X343928571Y-94754761D01*
X343976190Y-94802380D01*
X344023809Y-94754761D01*
X343976190Y-94707142D01*
X343976190Y-94802380D01*
X343976190Y-94183333D02*
X343928571Y-94230952D01*
X343976190Y-94278571D01*
X344023809Y-94230952D01*
X343976190Y-94183333D01*
X343976190Y-94278571D01*
X342976190Y-94802380D02*
X343547619Y-94802380D01*
X343261904Y-94802380D02*
X343261904Y-93802380D01*
X343357142Y-93945238D01*
X343452380Y-94040476D01*
X343547619Y-94088095D01*
X342595238Y-93897619D02*
X342547619Y-93850000D01*
X342452380Y-93802380D01*
X342214285Y-93802380D01*
X342119047Y-93850000D01*
X342071428Y-93897619D01*
X342023809Y-93992857D01*
X342023809Y-94088095D01*
X342071428Y-94230952D01*
X342642857Y-94802380D01*
X342023809Y-94802380D01*
X369478571Y-90352380D02*
X369478571Y-89352380D01*
X369240476Y-89352380D01*
X369097619Y-89400000D01*
X369002380Y-89495238D01*
X368954761Y-89590476D01*
X368907142Y-89780952D01*
X368907142Y-89923809D01*
X368954761Y-90114285D01*
X369002380Y-90209523D01*
X369097619Y-90304761D01*
X369240476Y-90352380D01*
X369478571Y-90352380D01*
X368050000Y-89685714D02*
X368050000Y-90352380D01*
X368288095Y-89304761D02*
X368526190Y-90019047D01*
X367907142Y-90019047D01*
X367526190Y-90257142D02*
X367478571Y-90304761D01*
X367526190Y-90352380D01*
X367573809Y-90304761D01*
X367526190Y-90257142D01*
X367526190Y-90352380D01*
X367526190Y-89733333D02*
X367478571Y-89780952D01*
X367526190Y-89828571D01*
X367573809Y-89780952D01*
X367526190Y-89733333D01*
X367526190Y-89828571D01*
X366526190Y-90352380D02*
X367097619Y-90352380D01*
X366811904Y-90352380D02*
X366811904Y-89352380D01*
X366907142Y-89495238D01*
X367002380Y-89590476D01*
X367097619Y-89638095D01*
X366192857Y-89352380D02*
X365573809Y-89352380D01*
X365907142Y-89733333D01*
X365764285Y-89733333D01*
X365669047Y-89780952D01*
X365621428Y-89828571D01*
X365573809Y-89923809D01*
X365573809Y-90161904D01*
X365621428Y-90257142D01*
X365669047Y-90304761D01*
X365764285Y-90352380D01*
X366050000Y-90352380D01*
X366145238Y-90304761D01*
X366192857Y-90257142D01*
X388428571Y-94752380D02*
X388428571Y-93752380D01*
X388190476Y-93752380D01*
X388047619Y-93800000D01*
X387952380Y-93895238D01*
X387904761Y-93990476D01*
X387857142Y-94180952D01*
X387857142Y-94323809D01*
X387904761Y-94514285D01*
X387952380Y-94609523D01*
X388047619Y-94704761D01*
X388190476Y-94752380D01*
X388428571Y-94752380D01*
X387000000Y-94085714D02*
X387000000Y-94752380D01*
X387238095Y-93704761D02*
X387476190Y-94419047D01*
X386857142Y-94419047D01*
X386476190Y-94657142D02*
X386428571Y-94704761D01*
X386476190Y-94752380D01*
X386523809Y-94704761D01*
X386476190Y-94657142D01*
X386476190Y-94752380D01*
X386476190Y-94133333D02*
X386428571Y-94180952D01*
X386476190Y-94228571D01*
X386523809Y-94180952D01*
X386476190Y-94133333D01*
X386476190Y-94228571D01*
X385476190Y-94752380D02*
X386047619Y-94752380D01*
X385761904Y-94752380D02*
X385761904Y-93752380D01*
X385857142Y-93895238D01*
X385952380Y-93990476D01*
X386047619Y-94038095D01*
X384619047Y-94085714D02*
X384619047Y-94752380D01*
X384857142Y-93704761D02*
X385095238Y-94419047D01*
X384476190Y-94419047D01*
X54952380Y-75852380D02*
X54952380Y-74852380D01*
X54714285Y-74852380D01*
X54571428Y-74900000D01*
X54476190Y-74995238D01*
X54428571Y-75090476D01*
X54380952Y-75280952D01*
X54380952Y-75423809D01*
X54428571Y-75614285D01*
X54476190Y-75709523D01*
X54571428Y-75804761D01*
X54714285Y-75852380D01*
X54952380Y-75852380D01*
X53476190Y-74852380D02*
X53952380Y-74852380D01*
X54000000Y-75328571D01*
X53952380Y-75280952D01*
X53857142Y-75233333D01*
X53619047Y-75233333D01*
X53523809Y-75280952D01*
X53476190Y-75328571D01*
X53428571Y-75423809D01*
X53428571Y-75661904D01*
X53476190Y-75757142D01*
X53523809Y-75804761D01*
X53619047Y-75852380D01*
X53857142Y-75852380D01*
X53952380Y-75804761D01*
X54000000Y-75757142D01*
X52999999Y-75757142D02*
X52952380Y-75804761D01*
X52999999Y-75852380D01*
X53047619Y-75804761D01*
X52999999Y-75757142D01*
X52999999Y-75852380D01*
X52999999Y-75233333D02*
X52952380Y-75280952D01*
X52999999Y-75328571D01*
X53047619Y-75280952D01*
X52999999Y-75233333D01*
X52999999Y-75328571D01*
X52333333Y-74852380D02*
X52238095Y-74852380D01*
X52142857Y-74900000D01*
X52095238Y-74947619D01*
X52047619Y-75042857D01*
X51999999Y-75233333D01*
X51999999Y-75471428D01*
X52047619Y-75661904D01*
X52095238Y-75757142D01*
X52142857Y-75804761D01*
X52238095Y-75852380D01*
X52333333Y-75852380D01*
X52428571Y-75804761D01*
X52476190Y-75757142D01*
X52523809Y-75661904D01*
X52571428Y-75471428D01*
X52571428Y-75233333D01*
X52523809Y-75042857D01*
X52476190Y-74947619D01*
X52428571Y-74900000D01*
X52333333Y-74852380D01*
X78952380Y-71402380D02*
X78952380Y-70402380D01*
X78714285Y-70402380D01*
X78571428Y-70450000D01*
X78476190Y-70545238D01*
X78428571Y-70640476D01*
X78380952Y-70830952D01*
X78380952Y-70973809D01*
X78428571Y-71164285D01*
X78476190Y-71259523D01*
X78571428Y-71354761D01*
X78714285Y-71402380D01*
X78952380Y-71402380D01*
X77476190Y-70402380D02*
X77952380Y-70402380D01*
X78000000Y-70878571D01*
X77952380Y-70830952D01*
X77857142Y-70783333D01*
X77619047Y-70783333D01*
X77523809Y-70830952D01*
X77476190Y-70878571D01*
X77428571Y-70973809D01*
X77428571Y-71211904D01*
X77476190Y-71307142D01*
X77523809Y-71354761D01*
X77619047Y-71402380D01*
X77857142Y-71402380D01*
X77952380Y-71354761D01*
X78000000Y-71307142D01*
X77000000Y-71307142D02*
X76952380Y-71354761D01*
X77000000Y-71402380D01*
X77047619Y-71354761D01*
X77000000Y-71307142D01*
X77000000Y-71402380D01*
X77000000Y-70783333D02*
X76952380Y-70830952D01*
X77000000Y-70878571D01*
X77047619Y-70830952D01*
X77000000Y-70783333D01*
X77000000Y-70878571D01*
X76000000Y-71402380D02*
X76571428Y-71402380D01*
X76285714Y-71402380D02*
X76285714Y-70402380D01*
X76380952Y-70545238D01*
X76476190Y-70640476D01*
X76571428Y-70688095D01*
X102452380Y-75802380D02*
X102452380Y-74802380D01*
X102214285Y-74802380D01*
X102071428Y-74850000D01*
X101976190Y-74945238D01*
X101928571Y-75040476D01*
X101880952Y-75230952D01*
X101880952Y-75373809D01*
X101928571Y-75564285D01*
X101976190Y-75659523D01*
X102071428Y-75754761D01*
X102214285Y-75802380D01*
X102452380Y-75802380D01*
X100976190Y-74802380D02*
X101452380Y-74802380D01*
X101500000Y-75278571D01*
X101452380Y-75230952D01*
X101357142Y-75183333D01*
X101119047Y-75183333D01*
X101023809Y-75230952D01*
X100976190Y-75278571D01*
X100928571Y-75373809D01*
X100928571Y-75611904D01*
X100976190Y-75707142D01*
X101023809Y-75754761D01*
X101119047Y-75802380D01*
X101357142Y-75802380D01*
X101452380Y-75754761D01*
X101500000Y-75707142D01*
X100500000Y-75707142D02*
X100452380Y-75754761D01*
X100500000Y-75802380D01*
X100547619Y-75754761D01*
X100500000Y-75707142D01*
X100500000Y-75802380D01*
X100500000Y-75183333D02*
X100452380Y-75230952D01*
X100500000Y-75278571D01*
X100547619Y-75230952D01*
X100500000Y-75183333D01*
X100500000Y-75278571D01*
X100071428Y-74897619D02*
X100023809Y-74850000D01*
X99928571Y-74802380D01*
X99690476Y-74802380D01*
X99595238Y-74850000D01*
X99547619Y-74897619D01*
X99500000Y-74992857D01*
X99500000Y-75088095D01*
X99547619Y-75230952D01*
X100119047Y-75802380D01*
X99500000Y-75802380D01*
X121402380Y-71452380D02*
X121402380Y-70452380D01*
X121164285Y-70452380D01*
X121021428Y-70500000D01*
X120926190Y-70595238D01*
X120878571Y-70690476D01*
X120830952Y-70880952D01*
X120830952Y-71023809D01*
X120878571Y-71214285D01*
X120926190Y-71309523D01*
X121021428Y-71404761D01*
X121164285Y-71452380D01*
X121402380Y-71452380D01*
X119926190Y-70452380D02*
X120402380Y-70452380D01*
X120450000Y-70928571D01*
X120402380Y-70880952D01*
X120307142Y-70833333D01*
X120069047Y-70833333D01*
X119973809Y-70880952D01*
X119926190Y-70928571D01*
X119878571Y-71023809D01*
X119878571Y-71261904D01*
X119926190Y-71357142D01*
X119973809Y-71404761D01*
X120069047Y-71452380D01*
X120307142Y-71452380D01*
X120402380Y-71404761D01*
X120450000Y-71357142D01*
X119450000Y-71357142D02*
X119402380Y-71404761D01*
X119450000Y-71452380D01*
X119497619Y-71404761D01*
X119450000Y-71357142D01*
X119450000Y-71452380D01*
X119450000Y-70833333D02*
X119402380Y-70880952D01*
X119450000Y-70928571D01*
X119497619Y-70880952D01*
X119450000Y-70833333D01*
X119450000Y-70928571D01*
X119069047Y-70452380D02*
X118450000Y-70452380D01*
X118783333Y-70833333D01*
X118640476Y-70833333D01*
X118545238Y-70880952D01*
X118497619Y-70928571D01*
X118450000Y-71023809D01*
X118450000Y-71261904D01*
X118497619Y-71357142D01*
X118545238Y-71404761D01*
X118640476Y-71452380D01*
X118926190Y-71452380D01*
X119021428Y-71404761D01*
X119069047Y-71357142D01*
X140452380Y-75752380D02*
X140452380Y-74752380D01*
X140214285Y-74752380D01*
X140071428Y-74800000D01*
X139976190Y-74895238D01*
X139928571Y-74990476D01*
X139880952Y-75180952D01*
X139880952Y-75323809D01*
X139928571Y-75514285D01*
X139976190Y-75609523D01*
X140071428Y-75704761D01*
X140214285Y-75752380D01*
X140452380Y-75752380D01*
X138976190Y-74752380D02*
X139452380Y-74752380D01*
X139500000Y-75228571D01*
X139452380Y-75180952D01*
X139357142Y-75133333D01*
X139119047Y-75133333D01*
X139023809Y-75180952D01*
X138976190Y-75228571D01*
X138928571Y-75323809D01*
X138928571Y-75561904D01*
X138976190Y-75657142D01*
X139023809Y-75704761D01*
X139119047Y-75752380D01*
X139357142Y-75752380D01*
X139452380Y-75704761D01*
X139500000Y-75657142D01*
X138500000Y-75657142D02*
X138452380Y-75704761D01*
X138500000Y-75752380D01*
X138547619Y-75704761D01*
X138500000Y-75657142D01*
X138500000Y-75752380D01*
X138500000Y-75133333D02*
X138452380Y-75180952D01*
X138500000Y-75228571D01*
X138547619Y-75180952D01*
X138500000Y-75133333D01*
X138500000Y-75228571D01*
X137595238Y-75085714D02*
X137595238Y-75752380D01*
X137833333Y-74704761D02*
X138071428Y-75419047D01*
X137452380Y-75419047D01*
X159452380Y-71452380D02*
X159452380Y-70452380D01*
X159214285Y-70452380D01*
X159071428Y-70500000D01*
X158976190Y-70595238D01*
X158928571Y-70690476D01*
X158880952Y-70880952D01*
X158880952Y-71023809D01*
X158928571Y-71214285D01*
X158976190Y-71309523D01*
X159071428Y-71404761D01*
X159214285Y-71452380D01*
X159452380Y-71452380D01*
X157976190Y-70452380D02*
X158452380Y-70452380D01*
X158500000Y-70928571D01*
X158452380Y-70880952D01*
X158357142Y-70833333D01*
X158119047Y-70833333D01*
X158023809Y-70880952D01*
X157976190Y-70928571D01*
X157928571Y-71023809D01*
X157928571Y-71261904D01*
X157976190Y-71357142D01*
X158023809Y-71404761D01*
X158119047Y-71452380D01*
X158357142Y-71452380D01*
X158452380Y-71404761D01*
X158500000Y-71357142D01*
X157500000Y-71357142D02*
X157452380Y-71404761D01*
X157500000Y-71452380D01*
X157547619Y-71404761D01*
X157500000Y-71357142D01*
X157500000Y-71452380D01*
X157500000Y-70833333D02*
X157452380Y-70880952D01*
X157500000Y-70928571D01*
X157547619Y-70880952D01*
X157500000Y-70833333D01*
X157500000Y-70928571D01*
X156547619Y-70452380D02*
X157023809Y-70452380D01*
X157071428Y-70928571D01*
X157023809Y-70880952D01*
X156928571Y-70833333D01*
X156690476Y-70833333D01*
X156595238Y-70880952D01*
X156547619Y-70928571D01*
X156500000Y-71023809D01*
X156500000Y-71261904D01*
X156547619Y-71357142D01*
X156595238Y-71404761D01*
X156690476Y-71452380D01*
X156928571Y-71452380D01*
X157023809Y-71404761D01*
X157071428Y-71357142D01*
X178452380Y-75852380D02*
X178452380Y-74852380D01*
X178214285Y-74852380D01*
X178071428Y-74900000D01*
X177976190Y-74995238D01*
X177928571Y-75090476D01*
X177880952Y-75280952D01*
X177880952Y-75423809D01*
X177928571Y-75614285D01*
X177976190Y-75709523D01*
X178071428Y-75804761D01*
X178214285Y-75852380D01*
X178452380Y-75852380D01*
X176976190Y-74852380D02*
X177452380Y-74852380D01*
X177500000Y-75328571D01*
X177452380Y-75280952D01*
X177357142Y-75233333D01*
X177119047Y-75233333D01*
X177023809Y-75280952D01*
X176976190Y-75328571D01*
X176928571Y-75423809D01*
X176928571Y-75661904D01*
X176976190Y-75757142D01*
X177023809Y-75804761D01*
X177119047Y-75852380D01*
X177357142Y-75852380D01*
X177452380Y-75804761D01*
X177500000Y-75757142D01*
X176500000Y-75757142D02*
X176452380Y-75804761D01*
X176500000Y-75852380D01*
X176547619Y-75804761D01*
X176500000Y-75757142D01*
X176500000Y-75852380D01*
X176500000Y-75233333D02*
X176452380Y-75280952D01*
X176500000Y-75328571D01*
X176547619Y-75280952D01*
X176500000Y-75233333D01*
X176500000Y-75328571D01*
X175595238Y-74852380D02*
X175785714Y-74852380D01*
X175880952Y-74900000D01*
X175928571Y-74947619D01*
X176023809Y-75090476D01*
X176071428Y-75280952D01*
X176071428Y-75661904D01*
X176023809Y-75757142D01*
X175976190Y-75804761D01*
X175880952Y-75852380D01*
X175690476Y-75852380D01*
X175595238Y-75804761D01*
X175547619Y-75757142D01*
X175500000Y-75661904D01*
X175500000Y-75423809D01*
X175547619Y-75328571D01*
X175595238Y-75280952D01*
X175690476Y-75233333D01*
X175880952Y-75233333D01*
X175976190Y-75280952D01*
X176023809Y-75328571D01*
X176071428Y-75423809D01*
X245452380Y-71502380D02*
X245452380Y-70502380D01*
X245214285Y-70502380D01*
X245071428Y-70550000D01*
X244976190Y-70645238D01*
X244928571Y-70740476D01*
X244880952Y-70930952D01*
X244880952Y-71073809D01*
X244928571Y-71264285D01*
X244976190Y-71359523D01*
X245071428Y-71454761D01*
X245214285Y-71502380D01*
X245452380Y-71502380D01*
X243976190Y-70502380D02*
X244452380Y-70502380D01*
X244500000Y-70978571D01*
X244452380Y-70930952D01*
X244357142Y-70883333D01*
X244119047Y-70883333D01*
X244023809Y-70930952D01*
X243976190Y-70978571D01*
X243928571Y-71073809D01*
X243928571Y-71311904D01*
X243976190Y-71407142D01*
X244023809Y-71454761D01*
X244119047Y-71502380D01*
X244357142Y-71502380D01*
X244452380Y-71454761D01*
X244500000Y-71407142D01*
X243500000Y-71407142D02*
X243452380Y-71454761D01*
X243500000Y-71502380D01*
X243547619Y-71454761D01*
X243500000Y-71407142D01*
X243500000Y-71502380D01*
X243500000Y-70883333D02*
X243452380Y-70930952D01*
X243500000Y-70978571D01*
X243547619Y-70930952D01*
X243500000Y-70883333D01*
X243500000Y-70978571D01*
X243119047Y-70502380D02*
X242452380Y-70502380D01*
X242880952Y-71502380D01*
X264452380Y-75802380D02*
X264452380Y-74802380D01*
X264214285Y-74802380D01*
X264071428Y-74850000D01*
X263976190Y-74945238D01*
X263928571Y-75040476D01*
X263880952Y-75230952D01*
X263880952Y-75373809D01*
X263928571Y-75564285D01*
X263976190Y-75659523D01*
X264071428Y-75754761D01*
X264214285Y-75802380D01*
X264452380Y-75802380D01*
X262976190Y-74802380D02*
X263452380Y-74802380D01*
X263500000Y-75278571D01*
X263452380Y-75230952D01*
X263357142Y-75183333D01*
X263119047Y-75183333D01*
X263023809Y-75230952D01*
X262976190Y-75278571D01*
X262928571Y-75373809D01*
X262928571Y-75611904D01*
X262976190Y-75707142D01*
X263023809Y-75754761D01*
X263119047Y-75802380D01*
X263357142Y-75802380D01*
X263452380Y-75754761D01*
X263500000Y-75707142D01*
X262500000Y-75707142D02*
X262452380Y-75754761D01*
X262500000Y-75802380D01*
X262547619Y-75754761D01*
X262500000Y-75707142D01*
X262500000Y-75802380D01*
X262500000Y-75183333D02*
X262452380Y-75230952D01*
X262500000Y-75278571D01*
X262547619Y-75230952D01*
X262500000Y-75183333D01*
X262500000Y-75278571D01*
X261880952Y-75230952D02*
X261976190Y-75183333D01*
X262023809Y-75135714D01*
X262071428Y-75040476D01*
X262071428Y-74992857D01*
X262023809Y-74897619D01*
X261976190Y-74850000D01*
X261880952Y-74802380D01*
X261690476Y-74802380D01*
X261595238Y-74850000D01*
X261547619Y-74897619D01*
X261500000Y-74992857D01*
X261500000Y-75040476D01*
X261547619Y-75135714D01*
X261595238Y-75183333D01*
X261690476Y-75230952D01*
X261880952Y-75230952D01*
X261976190Y-75278571D01*
X262023809Y-75326190D01*
X262071428Y-75421428D01*
X262071428Y-75611904D01*
X262023809Y-75707142D01*
X261976190Y-75754761D01*
X261880952Y-75802380D01*
X261690476Y-75802380D01*
X261595238Y-75754761D01*
X261547619Y-75707142D01*
X261500000Y-75611904D01*
X261500000Y-75421428D01*
X261547619Y-75326190D01*
X261595238Y-75278571D01*
X261690476Y-75230952D01*
X283452380Y-71452380D02*
X283452380Y-70452380D01*
X283214285Y-70452380D01*
X283071428Y-70500000D01*
X282976190Y-70595238D01*
X282928571Y-70690476D01*
X282880952Y-70880952D01*
X282880952Y-71023809D01*
X282928571Y-71214285D01*
X282976190Y-71309523D01*
X283071428Y-71404761D01*
X283214285Y-71452380D01*
X283452380Y-71452380D01*
X281976190Y-70452380D02*
X282452380Y-70452380D01*
X282500000Y-70928571D01*
X282452380Y-70880952D01*
X282357142Y-70833333D01*
X282119047Y-70833333D01*
X282023809Y-70880952D01*
X281976190Y-70928571D01*
X281928571Y-71023809D01*
X281928571Y-71261904D01*
X281976190Y-71357142D01*
X282023809Y-71404761D01*
X282119047Y-71452380D01*
X282357142Y-71452380D01*
X282452380Y-71404761D01*
X282500000Y-71357142D01*
X281500000Y-71357142D02*
X281452380Y-71404761D01*
X281500000Y-71452380D01*
X281547619Y-71404761D01*
X281500000Y-71357142D01*
X281500000Y-71452380D01*
X281500000Y-70833333D02*
X281452380Y-70880952D01*
X281500000Y-70928571D01*
X281547619Y-70880952D01*
X281500000Y-70833333D01*
X281500000Y-70928571D01*
X280976190Y-71452380D02*
X280785714Y-71452380D01*
X280690476Y-71404761D01*
X280642857Y-71357142D01*
X280547619Y-71214285D01*
X280500000Y-71023809D01*
X280500000Y-70642857D01*
X280547619Y-70547619D01*
X280595238Y-70500000D01*
X280690476Y-70452380D01*
X280880952Y-70452380D01*
X280976190Y-70500000D01*
X281023809Y-70547619D01*
X281071428Y-70642857D01*
X281071428Y-70880952D01*
X281023809Y-70976190D01*
X280976190Y-71023809D01*
X280880952Y-71071428D01*
X280690476Y-71071428D01*
X280595238Y-71023809D01*
X280547619Y-70976190D01*
X280500000Y-70880952D01*
X302928571Y-75902380D02*
X302928571Y-74902380D01*
X302690476Y-74902380D01*
X302547619Y-74950000D01*
X302452380Y-75045238D01*
X302404761Y-75140476D01*
X302357142Y-75330952D01*
X302357142Y-75473809D01*
X302404761Y-75664285D01*
X302452380Y-75759523D01*
X302547619Y-75854761D01*
X302690476Y-75902380D01*
X302928571Y-75902380D01*
X301452380Y-74902380D02*
X301928571Y-74902380D01*
X301976190Y-75378571D01*
X301928571Y-75330952D01*
X301833333Y-75283333D01*
X301595238Y-75283333D01*
X301500000Y-75330952D01*
X301452380Y-75378571D01*
X301404761Y-75473809D01*
X301404761Y-75711904D01*
X301452380Y-75807142D01*
X301500000Y-75854761D01*
X301595238Y-75902380D01*
X301833333Y-75902380D01*
X301928571Y-75854761D01*
X301976190Y-75807142D01*
X300976190Y-75807142D02*
X300928571Y-75854761D01*
X300976190Y-75902380D01*
X301023809Y-75854761D01*
X300976190Y-75807142D01*
X300976190Y-75902380D01*
X300976190Y-75283333D02*
X300928571Y-75330952D01*
X300976190Y-75378571D01*
X301023809Y-75330952D01*
X300976190Y-75283333D01*
X300976190Y-75378571D01*
X299976190Y-75902380D02*
X300547619Y-75902380D01*
X300261904Y-75902380D02*
X300261904Y-74902380D01*
X300357142Y-75045238D01*
X300452380Y-75140476D01*
X300547619Y-75188095D01*
X299357142Y-74902380D02*
X299261904Y-74902380D01*
X299166666Y-74950000D01*
X299119047Y-74997619D01*
X299071428Y-75092857D01*
X299023809Y-75283333D01*
X299023809Y-75521428D01*
X299071428Y-75711904D01*
X299119047Y-75807142D01*
X299166666Y-75854761D01*
X299261904Y-75902380D01*
X299357142Y-75902380D01*
X299452380Y-75854761D01*
X299500000Y-75807142D01*
X299547619Y-75711904D01*
X299595238Y-75521428D01*
X299595238Y-75283333D01*
X299547619Y-75092857D01*
X299500000Y-74997619D01*
X299452380Y-74950000D01*
X299357142Y-74902380D01*
X321928571Y-71402380D02*
X321928571Y-70402380D01*
X321690476Y-70402380D01*
X321547619Y-70450000D01*
X321452380Y-70545238D01*
X321404761Y-70640476D01*
X321357142Y-70830952D01*
X321357142Y-70973809D01*
X321404761Y-71164285D01*
X321452380Y-71259523D01*
X321547619Y-71354761D01*
X321690476Y-71402380D01*
X321928571Y-71402380D01*
X320452380Y-70402380D02*
X320928571Y-70402380D01*
X320976190Y-70878571D01*
X320928571Y-70830952D01*
X320833333Y-70783333D01*
X320595238Y-70783333D01*
X320500000Y-70830952D01*
X320452380Y-70878571D01*
X320404761Y-70973809D01*
X320404761Y-71211904D01*
X320452380Y-71307142D01*
X320500000Y-71354761D01*
X320595238Y-71402380D01*
X320833333Y-71402380D01*
X320928571Y-71354761D01*
X320976190Y-71307142D01*
X319976190Y-71307142D02*
X319928571Y-71354761D01*
X319976190Y-71402380D01*
X320023809Y-71354761D01*
X319976190Y-71307142D01*
X319976190Y-71402380D01*
X319976190Y-70783333D02*
X319928571Y-70830952D01*
X319976190Y-70878571D01*
X320023809Y-70830952D01*
X319976190Y-70783333D01*
X319976190Y-70878571D01*
X318976190Y-71402380D02*
X319547619Y-71402380D01*
X319261904Y-71402380D02*
X319261904Y-70402380D01*
X319357142Y-70545238D01*
X319452380Y-70640476D01*
X319547619Y-70688095D01*
X318023809Y-71402380D02*
X318595238Y-71402380D01*
X318309523Y-71402380D02*
X318309523Y-70402380D01*
X318404761Y-70545238D01*
X318500000Y-70640476D01*
X318595238Y-70688095D01*
X340928571Y-75852380D02*
X340928571Y-74852380D01*
X340690476Y-74852380D01*
X340547619Y-74900000D01*
X340452380Y-74995238D01*
X340404761Y-75090476D01*
X340357142Y-75280952D01*
X340357142Y-75423809D01*
X340404761Y-75614285D01*
X340452380Y-75709523D01*
X340547619Y-75804761D01*
X340690476Y-75852380D01*
X340928571Y-75852380D01*
X339452380Y-74852380D02*
X339928571Y-74852380D01*
X339976190Y-75328571D01*
X339928571Y-75280952D01*
X339833333Y-75233333D01*
X339595238Y-75233333D01*
X339500000Y-75280952D01*
X339452380Y-75328571D01*
X339404761Y-75423809D01*
X339404761Y-75661904D01*
X339452380Y-75757142D01*
X339500000Y-75804761D01*
X339595238Y-75852380D01*
X339833333Y-75852380D01*
X339928571Y-75804761D01*
X339976190Y-75757142D01*
X338976190Y-75757142D02*
X338928571Y-75804761D01*
X338976190Y-75852380D01*
X339023809Y-75804761D01*
X338976190Y-75757142D01*
X338976190Y-75852380D01*
X338976190Y-75233333D02*
X338928571Y-75280952D01*
X338976190Y-75328571D01*
X339023809Y-75280952D01*
X338976190Y-75233333D01*
X338976190Y-75328571D01*
X337976190Y-75852380D02*
X338547619Y-75852380D01*
X338261904Y-75852380D02*
X338261904Y-74852380D01*
X338357142Y-74995238D01*
X338452380Y-75090476D01*
X338547619Y-75138095D01*
X337595238Y-74947619D02*
X337547619Y-74900000D01*
X337452380Y-74852380D01*
X337214285Y-74852380D01*
X337119047Y-74900000D01*
X337071428Y-74947619D01*
X337023809Y-75042857D01*
X337023809Y-75138095D01*
X337071428Y-75280952D01*
X337642857Y-75852380D01*
X337023809Y-75852380D01*
X359928571Y-71452380D02*
X359928571Y-70452380D01*
X359690476Y-70452380D01*
X359547619Y-70500000D01*
X359452380Y-70595238D01*
X359404761Y-70690476D01*
X359357142Y-70880952D01*
X359357142Y-71023809D01*
X359404761Y-71214285D01*
X359452380Y-71309523D01*
X359547619Y-71404761D01*
X359690476Y-71452380D01*
X359928571Y-71452380D01*
X358452380Y-70452380D02*
X358928571Y-70452380D01*
X358976190Y-70928571D01*
X358928571Y-70880952D01*
X358833333Y-70833333D01*
X358595238Y-70833333D01*
X358500000Y-70880952D01*
X358452380Y-70928571D01*
X358404761Y-71023809D01*
X358404761Y-71261904D01*
X358452380Y-71357142D01*
X358500000Y-71404761D01*
X358595238Y-71452380D01*
X358833333Y-71452380D01*
X358928571Y-71404761D01*
X358976190Y-71357142D01*
X357976190Y-71357142D02*
X357928571Y-71404761D01*
X357976190Y-71452380D01*
X358023809Y-71404761D01*
X357976190Y-71357142D01*
X357976190Y-71452380D01*
X357976190Y-70833333D02*
X357928571Y-70880952D01*
X357976190Y-70928571D01*
X358023809Y-70880952D01*
X357976190Y-70833333D01*
X357976190Y-70928571D01*
X356976190Y-71452380D02*
X357547619Y-71452380D01*
X357261904Y-71452380D02*
X357261904Y-70452380D01*
X357357142Y-70595238D01*
X357452380Y-70690476D01*
X357547619Y-70738095D01*
X356642857Y-70452380D02*
X356023809Y-70452380D01*
X356357142Y-70833333D01*
X356214285Y-70833333D01*
X356119047Y-70880952D01*
X356071428Y-70928571D01*
X356023809Y-71023809D01*
X356023809Y-71261904D01*
X356071428Y-71357142D01*
X356119047Y-71404761D01*
X356214285Y-71452380D01*
X356500000Y-71452380D01*
X356595238Y-71404761D01*
X356642857Y-71357142D01*
X378928571Y-75852380D02*
X378928571Y-74852380D01*
X378690476Y-74852380D01*
X378547619Y-74900000D01*
X378452380Y-74995238D01*
X378404761Y-75090476D01*
X378357142Y-75280952D01*
X378357142Y-75423809D01*
X378404761Y-75614285D01*
X378452380Y-75709523D01*
X378547619Y-75804761D01*
X378690476Y-75852380D01*
X378928571Y-75852380D01*
X377452380Y-74852380D02*
X377928571Y-74852380D01*
X377976190Y-75328571D01*
X377928571Y-75280952D01*
X377833333Y-75233333D01*
X377595238Y-75233333D01*
X377500000Y-75280952D01*
X377452380Y-75328571D01*
X377404761Y-75423809D01*
X377404761Y-75661904D01*
X377452380Y-75757142D01*
X377500000Y-75804761D01*
X377595238Y-75852380D01*
X377833333Y-75852380D01*
X377928571Y-75804761D01*
X377976190Y-75757142D01*
X376976190Y-75757142D02*
X376928571Y-75804761D01*
X376976190Y-75852380D01*
X377023809Y-75804761D01*
X376976190Y-75757142D01*
X376976190Y-75852380D01*
X376976190Y-75233333D02*
X376928571Y-75280952D01*
X376976190Y-75328571D01*
X377023809Y-75280952D01*
X376976190Y-75233333D01*
X376976190Y-75328571D01*
X375976190Y-75852380D02*
X376547619Y-75852380D01*
X376261904Y-75852380D02*
X376261904Y-74852380D01*
X376357142Y-74995238D01*
X376452380Y-75090476D01*
X376547619Y-75138095D01*
X375119047Y-75185714D02*
X375119047Y-75852380D01*
X375357142Y-74804761D02*
X375595238Y-75519047D01*
X374976190Y-75519047D01*
D11*
X193110000Y-102226750D02*
X210890000Y-102226750D01*
X193110000Y-69206750D02*
X193110000Y-102226750D01*
X210890000Y-69206750D02*
X193110000Y-69206750D01*
X210890000Y-102226750D02*
X210890000Y-69206750D01*
D12*
X238350000Y-177500000D02*
X236650000Y-177500000D01*
X238350000Y-177500000D02*
X238350000Y-174950000D01*
X236650000Y-177500000D02*
X236650000Y-174950000D01*
X70850000Y-151000000D02*
X70850000Y-148450000D01*
X70850000Y-151000000D02*
X69150000Y-151000000D01*
X69150000Y-151000000D02*
X69150000Y-148450000D01*
X94850000Y-151000000D02*
X93150000Y-151000000D01*
X94850000Y-151000000D02*
X94850000Y-148450000D01*
X93150000Y-151000000D02*
X93150000Y-148450000D01*
X118850000Y-151000000D02*
X118850000Y-148450000D01*
X118850000Y-151000000D02*
X117150000Y-151000000D01*
X117150000Y-151000000D02*
X117150000Y-148450000D01*
X151850000Y-151000000D02*
X150150000Y-151000000D01*
X150150000Y-151000000D02*
X150150000Y-148450000D01*
X151850000Y-151000000D02*
X151850000Y-148450000D01*
X161650000Y-175500000D02*
X161650000Y-172950000D01*
X163350000Y-175500000D02*
X163350000Y-172950000D01*
X163350000Y-175500000D02*
X161650000Y-175500000D01*
X181350000Y-178500000D02*
X181350000Y-175950000D01*
X181350000Y-178500000D02*
X179650000Y-178500000D01*
X179650000Y-178500000D02*
X179650000Y-175950000D01*
X226850000Y-180000000D02*
X226850000Y-177450000D01*
X226850000Y-180000000D02*
X225150000Y-180000000D01*
X225150000Y-180000000D02*
X225150000Y-177450000D01*
X270850000Y-151000000D02*
X269150000Y-151000000D01*
X270850000Y-151000000D02*
X270850000Y-148450000D01*
X269150000Y-151000000D02*
X269150000Y-148450000D01*
X294850000Y-151000000D02*
X293150000Y-151000000D01*
X293150000Y-151000000D02*
X293150000Y-148450000D01*
X294850000Y-151000000D02*
X294850000Y-148450000D01*
X318350000Y-151000000D02*
X316650000Y-151000000D01*
X316650000Y-151000000D02*
X316650000Y-148450000D01*
X318350000Y-151000000D02*
X318350000Y-148450000D01*
X347650000Y-151000000D02*
X347650000Y-148450000D01*
X349350000Y-151000000D02*
X349350000Y-148450000D01*
X349350000Y-151000000D02*
X347650000Y-151000000D01*
X368350000Y-151000000D02*
X368350000Y-148450000D01*
X366650000Y-151000000D02*
X366650000Y-148450000D01*
X368350000Y-151000000D02*
X366650000Y-151000000D01*
X385650000Y-151000000D02*
X385650000Y-148450000D01*
X387350000Y-151000000D02*
X385650000Y-151000000D01*
X387350000Y-151000000D02*
X387350000Y-148450000D01*
X70850000Y-132000000D02*
X70850000Y-129450000D01*
X70850000Y-132000000D02*
X69150000Y-132000000D01*
X69150000Y-132000000D02*
X69150000Y-129450000D01*
X101850000Y-132000000D02*
X101850000Y-129450000D01*
X100150000Y-132000000D02*
X100150000Y-129450000D01*
X101850000Y-132000000D02*
X100150000Y-132000000D01*
X119150000Y-132000000D02*
X119150000Y-129450000D01*
X120850000Y-132000000D02*
X119150000Y-132000000D01*
X120850000Y-132000000D02*
X120850000Y-129450000D01*
X139850000Y-132000000D02*
X139850000Y-129450000D01*
X138150000Y-132000000D02*
X138150000Y-129450000D01*
X139850000Y-132000000D02*
X138150000Y-132000000D01*
X157150000Y-132000000D02*
X157150000Y-129450000D01*
X158850000Y-132000000D02*
X158850000Y-129450000D01*
X158850000Y-132000000D02*
X157150000Y-132000000D01*
X177850000Y-132000000D02*
X177850000Y-129450000D01*
X177850000Y-132000000D02*
X176150000Y-132000000D01*
X176150000Y-132000000D02*
X176150000Y-129450000D01*
X244350000Y-132000000D02*
X244350000Y-129450000D01*
X244350000Y-132000000D02*
X242650000Y-132000000D01*
X242650000Y-132000000D02*
X242650000Y-129450000D01*
X263850000Y-132000000D02*
X263850000Y-129450000D01*
X262150000Y-132000000D02*
X262150000Y-129450000D01*
X263850000Y-132000000D02*
X262150000Y-132000000D01*
X282850000Y-132000000D02*
X282850000Y-129450000D01*
X281150000Y-132000000D02*
X281150000Y-129450000D01*
X282850000Y-132000000D02*
X281150000Y-132000000D01*
X300150000Y-132000000D02*
X300150000Y-129450000D01*
X301850000Y-132000000D02*
X300150000Y-132000000D01*
X301850000Y-132000000D02*
X301850000Y-129450000D01*
X319150000Y-132000000D02*
X319150000Y-129450000D01*
X320850000Y-132000000D02*
X319150000Y-132000000D01*
X320850000Y-132000000D02*
X320850000Y-129450000D01*
X368350000Y-132000000D02*
X366650000Y-132000000D01*
X366650000Y-132000000D02*
X366650000Y-129450000D01*
X368350000Y-132000000D02*
X368350000Y-129450000D01*
X44850000Y-113000000D02*
X44850000Y-110450000D01*
X43150000Y-113000000D02*
X43150000Y-110450000D01*
X44850000Y-113000000D02*
X43150000Y-113000000D01*
X75850000Y-113000000D02*
X75850000Y-110450000D01*
X75850000Y-113000000D02*
X74150000Y-113000000D01*
X74150000Y-113000000D02*
X74150000Y-110450000D01*
X101850000Y-113000000D02*
X101850000Y-110450000D01*
X100150000Y-113000000D02*
X100150000Y-110450000D01*
X101850000Y-113000000D02*
X100150000Y-113000000D01*
X120850000Y-113000000D02*
X120850000Y-110450000D01*
X120850000Y-113000000D02*
X119150000Y-113000000D01*
X119150000Y-113000000D02*
X119150000Y-110450000D01*
X139850000Y-113000000D02*
X138150000Y-113000000D01*
X139850000Y-113000000D02*
X139850000Y-110450000D01*
X138150000Y-113000000D02*
X138150000Y-110450000D01*
X157150000Y-113000000D02*
X157150000Y-110450000D01*
X158850000Y-113000000D02*
X158850000Y-110450000D01*
X158850000Y-113000000D02*
X157150000Y-113000000D01*
X177850000Y-113000000D02*
X177850000Y-110450000D01*
X177850000Y-113000000D02*
X176150000Y-113000000D01*
X176150000Y-113000000D02*
X176150000Y-110450000D01*
X243150000Y-113000000D02*
X243150000Y-110450000D01*
X244850000Y-113000000D02*
X244850000Y-110450000D01*
X244850000Y-113000000D02*
X243150000Y-113000000D01*
X261650000Y-113000000D02*
X261650000Y-110450000D01*
X263350000Y-113000000D02*
X263350000Y-110450000D01*
X263350000Y-113000000D02*
X261650000Y-113000000D01*
X280650000Y-113000000D02*
X280650000Y-110450000D01*
X282350000Y-113000000D02*
X282350000Y-110450000D01*
X282350000Y-113000000D02*
X280650000Y-113000000D01*
X301850000Y-113000000D02*
X300150000Y-113000000D01*
X300150000Y-113000000D02*
X300150000Y-110450000D01*
X301850000Y-113000000D02*
X301850000Y-110450000D01*
X320850000Y-113000000D02*
X319150000Y-113000000D01*
X319150000Y-113000000D02*
X319150000Y-110450000D01*
X320850000Y-113000000D02*
X320850000Y-110450000D01*
X339850000Y-113000000D02*
X338150000Y-113000000D01*
X339850000Y-113000000D02*
X339850000Y-110450000D01*
X338150000Y-113000000D02*
X338150000Y-110450000D01*
X370850000Y-113000000D02*
X369150000Y-113000000D01*
X369150000Y-113000000D02*
X369150000Y-110450000D01*
X370850000Y-113000000D02*
X370850000Y-110450000D01*
X49850000Y-94000000D02*
X49850000Y-91450000D01*
X48150000Y-94000000D02*
X48150000Y-91450000D01*
X49850000Y-94000000D02*
X48150000Y-94000000D01*
X77850000Y-94000000D02*
X76150000Y-94000000D01*
X77850000Y-94000000D02*
X77850000Y-91450000D01*
X76150000Y-94000000D02*
X76150000Y-91450000D01*
X100150000Y-94000000D02*
X100150000Y-91450000D01*
X101850000Y-94000000D02*
X100150000Y-94000000D01*
X101850000Y-94000000D02*
X101850000Y-91450000D01*
X120850000Y-94000000D02*
X119150000Y-94000000D01*
X119150000Y-94000000D02*
X119150000Y-91450000D01*
X120850000Y-94000000D02*
X120850000Y-91450000D01*
X138150000Y-94000000D02*
X138150000Y-91450000D01*
X139850000Y-94000000D02*
X139850000Y-91450000D01*
X139850000Y-94000000D02*
X138150000Y-94000000D01*
X157150000Y-94000000D02*
X157150000Y-91450000D01*
X158850000Y-94000000D02*
X158850000Y-91450000D01*
X158850000Y-94000000D02*
X157150000Y-94000000D01*
X177350000Y-94000000D02*
X175650000Y-94000000D01*
X177350000Y-94000000D02*
X177350000Y-91450000D01*
X175650000Y-94000000D02*
X175650000Y-91450000D01*
X244850000Y-93500000D02*
X244850000Y-90950000D01*
X243150000Y-93500000D02*
X243150000Y-90950000D01*
X244850000Y-93500000D02*
X243150000Y-93500000D01*
X262150000Y-93500000D02*
X262150000Y-90950000D01*
X263850000Y-93500000D02*
X263850000Y-90950000D01*
X263850000Y-93500000D02*
X262150000Y-93500000D01*
X281150000Y-93500000D02*
X281150000Y-90950000D01*
X282850000Y-93500000D02*
X281150000Y-93500000D01*
X282850000Y-93500000D02*
X282850000Y-90950000D01*
X301850000Y-93500000D02*
X301850000Y-90950000D01*
X301850000Y-93500000D02*
X300150000Y-93500000D01*
X300150000Y-93500000D02*
X300150000Y-90950000D01*
X320850000Y-93500000D02*
X320850000Y-90950000D01*
X319150000Y-93500000D02*
X319150000Y-90950000D01*
X320850000Y-93500000D02*
X319150000Y-93500000D01*
X343150000Y-93500000D02*
X343150000Y-90950000D01*
X344850000Y-93500000D02*
X344850000Y-90950000D01*
X344850000Y-93500000D02*
X343150000Y-93500000D01*
X368350000Y-93500000D02*
X366650000Y-93500000D01*
X366650000Y-93500000D02*
X366650000Y-90950000D01*
X368350000Y-93500000D02*
X368350000Y-90950000D01*
X387350000Y-93500000D02*
X385650000Y-93500000D01*
X385650000Y-93500000D02*
X385650000Y-90950000D01*
X387350000Y-93500000D02*
X387350000Y-90950000D01*
X52650000Y-74500000D02*
X52650000Y-71950000D01*
X54350000Y-74500000D02*
X54350000Y-71950000D01*
X54350000Y-74500000D02*
X52650000Y-74500000D01*
X76650000Y-74500000D02*
X76650000Y-71950000D01*
X78350000Y-74500000D02*
X76650000Y-74500000D01*
X78350000Y-74500000D02*
X78350000Y-71950000D01*
X100150000Y-74500000D02*
X100150000Y-71950000D01*
X101850000Y-74500000D02*
X100150000Y-74500000D01*
X101850000Y-74500000D02*
X101850000Y-71950000D01*
X120850000Y-74500000D02*
X120850000Y-71950000D01*
X119150000Y-74500000D02*
X119150000Y-71950000D01*
X120850000Y-74500000D02*
X119150000Y-74500000D01*
X139850000Y-74500000D02*
X139850000Y-71950000D01*
X139850000Y-74500000D02*
X138150000Y-74500000D01*
X138150000Y-74500000D02*
X138150000Y-71950000D01*
X157150000Y-74500000D02*
X157150000Y-71950000D01*
X158850000Y-74500000D02*
X158850000Y-71950000D01*
X158850000Y-74500000D02*
X157150000Y-74500000D01*
X177850000Y-74500000D02*
X177850000Y-71950000D01*
X176150000Y-74500000D02*
X176150000Y-71950000D01*
X177850000Y-74500000D02*
X176150000Y-74500000D01*
X244850000Y-74500000D02*
X243150000Y-74500000D01*
X244850000Y-74500000D02*
X244850000Y-71950000D01*
X243150000Y-74500000D02*
X243150000Y-71950000D01*
X263850000Y-74500000D02*
X262150000Y-74500000D01*
X263850000Y-74500000D02*
X263850000Y-71950000D01*
X262150000Y-74500000D02*
X262150000Y-71950000D01*
X282850000Y-74500000D02*
X281150000Y-74500000D01*
X281150000Y-74500000D02*
X281150000Y-71950000D01*
X282850000Y-74500000D02*
X282850000Y-71950000D01*
X301850000Y-74500000D02*
X300150000Y-74500000D01*
X301850000Y-74500000D02*
X301850000Y-71950000D01*
X300150000Y-74500000D02*
X300150000Y-71950000D01*
X319150000Y-74500000D02*
X319150000Y-71950000D01*
X320850000Y-74500000D02*
X320850000Y-71950000D01*
X320850000Y-74500000D02*
X319150000Y-74500000D01*
X339850000Y-74500000D02*
X339850000Y-71950000D01*
X338150000Y-74500000D02*
X338150000Y-71950000D01*
X339850000Y-74500000D02*
X338150000Y-74500000D01*
X357150000Y-74500000D02*
X357150000Y-71950000D01*
X358850000Y-74500000D02*
X357150000Y-74500000D01*
X358850000Y-74500000D02*
X358850000Y-71950000D01*
X376150000Y-74500000D02*
X376150000Y-71950000D01*
X377850000Y-74500000D02*
X377850000Y-71950000D01*
X377850000Y-74500000D02*
X376150000Y-74500000D01*
G36*
X251796290Y-133518257D02*
G01*
X251793519Y-133916598D01*
X251788939Y-134274555D01*
X251782183Y-134602050D01*
X251772885Y-134909002D01*
X251760679Y-135205331D01*
X251745200Y-135500960D01*
X251726082Y-135805807D01*
X251702958Y-136129794D01*
X251675464Y-136482840D01*
X251643232Y-136874866D01*
X251542592Y-137942230D01*
X251324232Y-139714833D01*
X251043017Y-141468331D01*
X250697970Y-143207479D01*
X250288108Y-144937031D01*
X249812453Y-146661742D01*
X249270023Y-148386364D01*
X249191750Y-148619452D01*
X248870653Y-149544546D01*
X248546925Y-150424636D01*
X248213845Y-151275988D01*
X247864692Y-152114871D01*
X247492746Y-152957553D01*
X247091284Y-153820301D01*
X246653587Y-154719385D01*
X246206016Y-155600481D01*
X245424491Y-157046237D01*
X244603806Y-158450437D01*
X243736815Y-159824665D01*
X242816371Y-161180507D01*
X241835327Y-162529546D01*
X241317878Y-163207618D01*
X240788405Y-163877546D01*
X240256535Y-164524836D01*
X239713353Y-165159691D01*
X239149946Y-165792317D01*
X238557397Y-166432917D01*
X237926791Y-167091696D01*
X237249213Y-167778859D01*
X237189150Y-167838937D01*
X236732335Y-168292383D01*
X236309465Y-168705133D01*
X235910725Y-169086235D01*
X235526301Y-169444738D01*
X235146377Y-169789688D01*
X234761139Y-170130135D01*
X234360772Y-170475126D01*
X233935461Y-170833709D01*
X232606522Y-171905834D01*
X231141311Y-173004672D01*
X229641387Y-174045872D01*
X228108302Y-175028837D01*
X226543607Y-175952971D01*
X224948853Y-176817676D01*
X223325592Y-177622355D01*
X221675374Y-178366411D01*
X219999752Y-179049248D01*
X218300277Y-179670268D01*
X216578499Y-180228874D01*
X214835971Y-180724470D01*
X213074242Y-181156458D01*
X211294866Y-181524241D01*
X209499392Y-181827223D01*
X207689373Y-182064807D01*
X205866359Y-182236394D01*
X204031902Y-182341390D01*
X202237136Y-182377903D01*
X200423236Y-182347875D01*
X198609292Y-182251144D01*
X196798464Y-182088169D01*
X194993913Y-181859412D01*
X193198799Y-181565330D01*
X191416284Y-181206383D01*
X189649528Y-180783032D01*
X187901692Y-180295736D01*
X186175936Y-179744953D01*
X185534051Y-179521814D01*
X183831012Y-178880633D01*
X182151799Y-178176581D01*
X180498776Y-177411007D01*
X178874308Y-176585257D01*
X177280756Y-175700680D01*
X175720486Y-174758623D01*
X174195861Y-173760435D01*
X172709244Y-172707461D01*
X171263000Y-171601051D01*
X169859492Y-170442551D01*
X168834761Y-169539944D01*
X167495480Y-168282850D01*
X166207415Y-166982612D01*
X164971380Y-165640709D01*
X163788190Y-164258619D01*
X162658658Y-162837822D01*
X161583599Y-161379794D01*
X160563828Y-159886016D01*
X159600157Y-158357966D01*
X158693403Y-156797122D01*
X157844378Y-155204962D01*
X157053897Y-153582966D01*
X156322775Y-151932611D01*
X155651825Y-150255376D01*
X155041862Y-148552741D01*
X154493700Y-146826183D01*
X154008152Y-145077180D01*
X153586035Y-143307213D01*
X153228161Y-141517758D01*
X152935345Y-139710294D01*
X152716638Y-137952394D01*
X152560204Y-136161805D01*
X152468655Y-134361992D01*
X152441829Y-132557086D01*
X152447936Y-132264836D01*
X160324381Y-132264836D01*
X160330987Y-133563287D01*
X160374648Y-134846586D01*
X160455362Y-136093850D01*
X160491700Y-136515490D01*
X160678165Y-138190977D01*
X160930438Y-139849751D01*
X161248408Y-141491414D01*
X161631966Y-143115565D01*
X162081002Y-144721806D01*
X162595407Y-146309736D01*
X163175072Y-147878956D01*
X163819886Y-149429067D01*
X164529741Y-150959668D01*
X164836968Y-151576177D01*
X165629310Y-153059829D01*
X166477953Y-154506601D01*
X167381511Y-155915092D01*
X168338595Y-157283900D01*
X169347817Y-158611624D01*
X170407788Y-159896863D01*
X171517120Y-161138214D01*
X172674426Y-162334278D01*
X173878316Y-163483651D01*
X175127404Y-164584933D01*
X176420299Y-165636722D01*
X177755615Y-166637617D01*
X179131963Y-167586216D01*
X180547954Y-168481118D01*
X182002201Y-169320921D01*
X183493316Y-170104224D01*
X184817889Y-170739515D01*
X186289562Y-171381564D01*
X187770468Y-171960080D01*
X189267194Y-172477327D01*
X190786330Y-172935567D01*
X192334463Y-173337062D01*
X193918182Y-173684075D01*
X194785769Y-173849018D01*
X195906432Y-174035218D01*
X197017081Y-174187769D01*
X198136015Y-174308855D01*
X199281531Y-174400656D01*
X200471925Y-174465352D01*
X200615258Y-174471092D01*
X201353690Y-174490570D01*
X202134283Y-174495818D01*
X202936967Y-174487186D01*
X203741673Y-174465024D01*
X204528331Y-174429681D01*
X205276872Y-174381509D01*
X206343847Y-174287633D01*
X208015783Y-174085546D01*
X209671055Y-173817684D01*
X211309104Y-173484200D01*
X212929371Y-173085250D01*
X214531296Y-172620987D01*
X216114320Y-172091566D01*
X217677882Y-171497141D01*
X219221424Y-170837867D01*
X220744385Y-170113898D01*
X221135886Y-169916704D01*
X221573630Y-169691682D01*
X221979270Y-169477137D01*
X222369455Y-169263944D01*
X222760834Y-169042976D01*
X223170056Y-168805110D01*
X223613770Y-168541219D01*
X223755657Y-168455690D01*
X225171349Y-167558911D01*
X226548220Y-166606993D01*
X227884783Y-165601474D01*
X229179549Y-164543893D01*
X230431032Y-163435787D01*
X231637743Y-162278695D01*
X232798194Y-161074154D01*
X233910899Y-159823703D01*
X234974369Y-158528880D01*
X235987116Y-157191224D01*
X236947654Y-155812271D01*
X237854495Y-154393561D01*
X238706150Y-152936631D01*
X238815685Y-152736270D01*
X238956326Y-152471264D01*
X239114476Y-152167101D01*
X239284636Y-151834790D01*
X239461308Y-151485338D01*
X239638995Y-151129754D01*
X239812196Y-150779045D01*
X239975416Y-150444220D01*
X240123154Y-150136287D01*
X240249912Y-149866253D01*
X240350193Y-149645128D01*
X240701543Y-148827875D01*
X241313314Y-147284500D01*
X241859320Y-145735464D01*
X242340360Y-144177352D01*
X242757234Y-142606752D01*
X243110739Y-141020249D01*
X243401675Y-139414428D01*
X243630842Y-137785877D01*
X243799037Y-136131180D01*
X243907060Y-134446925D01*
X243909005Y-134402592D01*
X243917991Y-134128032D01*
X243924467Y-133802419D01*
X243928522Y-133436567D01*
X243930247Y-133041289D01*
X243929732Y-132627399D01*
X243927067Y-132205710D01*
X243922342Y-131787037D01*
X243915648Y-131382193D01*
X243907074Y-131001991D01*
X243896710Y-130657246D01*
X243884647Y-130358771D01*
X243870975Y-130117380D01*
X243820264Y-129442987D01*
X243702195Y-128190966D01*
X243554898Y-126981025D01*
X243376217Y-125799572D01*
X243163999Y-124633018D01*
X242916089Y-123467771D01*
X242630333Y-122290241D01*
X242624524Y-122267649D01*
X242514162Y-121842994D01*
X242418535Y-121484308D01*
X242337559Y-121191299D01*
X242271148Y-120963674D01*
X242219216Y-120801139D01*
X242181679Y-120703403D01*
X242158450Y-120670173D01*
X242154335Y-120672877D01*
X242110860Y-120711644D01*
X242022735Y-120794238D01*
X241892818Y-120917891D01*
X241723967Y-121079833D01*
X241519042Y-121277294D01*
X241280902Y-121507504D01*
X241012404Y-121767696D01*
X240716409Y-122055099D01*
X240395775Y-122366944D01*
X240053361Y-122700462D01*
X239692025Y-123052883D01*
X239314627Y-123421437D01*
X238924025Y-123803357D01*
X235719519Y-126938539D01*
X235719519Y-133273705D01*
X235719676Y-133992017D01*
X235720162Y-134700184D01*
X235720963Y-135372059D01*
X235722069Y-136005209D01*
X235723466Y-136597203D01*
X235725145Y-137145607D01*
X235727092Y-137647989D01*
X235729296Y-138101916D01*
X235731745Y-138504957D01*
X235734427Y-138854678D01*
X235737330Y-139148647D01*
X235740443Y-139384432D01*
X235743753Y-139559600D01*
X235747249Y-139671719D01*
X235750919Y-139718356D01*
X235763686Y-139789136D01*
X235749602Y-139938854D01*
X235746169Y-139945895D01*
X235718843Y-139982457D01*
X235663998Y-140046331D01*
X235580441Y-140138746D01*
X235466977Y-140260934D01*
X235322411Y-140414123D01*
X235145548Y-140599543D01*
X234935193Y-140818424D01*
X234690153Y-141071996D01*
X234409233Y-141361488D01*
X234091237Y-141688130D01*
X233734972Y-142053152D01*
X233339242Y-142457784D01*
X232902853Y-142903255D01*
X232424610Y-143390796D01*
X231903320Y-143921635D01*
X231337786Y-144497003D01*
X230726815Y-145118130D01*
X230069211Y-145786244D01*
X224421538Y-151522623D01*
X224625013Y-151762715D01*
X224989331Y-152240235D01*
X225313450Y-152770857D01*
X225580153Y-153330134D01*
X225788385Y-153912604D01*
X225937089Y-154512809D01*
X226025212Y-155125290D01*
X226041668Y-155510056D01*
X226051699Y-155744585D01*
X226015494Y-156365237D01*
X225915543Y-156981785D01*
X225750790Y-157588770D01*
X225678881Y-157787583D01*
X225554608Y-158082843D01*
X225407342Y-158393738D01*
X225247309Y-158699980D01*
X225084735Y-158981284D01*
X224929845Y-159217363D01*
X224849478Y-159325344D01*
X224663874Y-159553195D01*
X224450479Y-159793847D01*
X224225560Y-160029908D01*
X224005386Y-160243985D01*
X223806223Y-160418687D01*
X223429597Y-160702273D01*
X222898375Y-161032399D01*
X222345191Y-161302309D01*
X221774561Y-161512466D01*
X221191001Y-161663330D01*
X220599026Y-161755362D01*
X220003152Y-161789022D01*
X219407894Y-161764773D01*
X218817768Y-161683074D01*
X218237288Y-161544386D01*
X217670972Y-161349171D01*
X217123334Y-161097889D01*
X216598890Y-160791001D01*
X216102155Y-160428968D01*
X215637645Y-160012251D01*
X215209876Y-159541310D01*
X214903264Y-159132873D01*
X214575299Y-158597149D01*
X214306464Y-158034197D01*
X214097654Y-157448947D01*
X213949765Y-156846324D01*
X213863694Y-156231256D01*
X213847118Y-155789442D01*
X215417910Y-155789442D01*
X215424484Y-156050661D01*
X215444150Y-156267279D01*
X215508562Y-156628547D01*
X215656557Y-157159251D01*
X215864930Y-157660264D01*
X216135352Y-158135369D01*
X216469493Y-158588346D01*
X216599441Y-158738557D01*
X216989617Y-159119927D01*
X217422238Y-159449456D01*
X217893996Y-159725114D01*
X218401586Y-159944869D01*
X218941701Y-160106691D01*
X218983263Y-160116175D01*
X219273462Y-160165315D01*
X219603076Y-160196657D01*
X219949201Y-160208619D01*
X220288935Y-160199623D01*
X220372357Y-160193725D01*
X220895778Y-160118568D01*
X221400562Y-159981251D01*
X221882439Y-159785544D01*
X222337140Y-159535214D01*
X222760396Y-159234031D01*
X223147938Y-158885764D01*
X223495497Y-158494180D01*
X223798803Y-158063048D01*
X224053588Y-157596137D01*
X224255583Y-157097216D01*
X224400519Y-156570054D01*
X224414975Y-156490080D01*
X224438610Y-156287387D01*
X224454671Y-156044537D01*
X224462999Y-155779453D01*
X224463435Y-155510056D01*
X224455818Y-155254269D01*
X224439988Y-155030015D01*
X224415788Y-154855214D01*
X224294996Y-154374548D01*
X224100880Y-153857942D01*
X223846172Y-153371993D01*
X223530964Y-152916871D01*
X223155348Y-152492749D01*
X223126635Y-152464079D01*
X222705179Y-152093013D01*
X222249238Y-151779219D01*
X221762404Y-151524596D01*
X221248270Y-151331042D01*
X220710428Y-151200456D01*
X220580913Y-151182322D01*
X220351503Y-151164566D01*
X220088899Y-151156403D01*
X219813140Y-151157642D01*
X219544264Y-151168091D01*
X219302310Y-151187556D01*
X219107314Y-151215845D01*
X218698385Y-151316250D01*
X218183414Y-151501608D01*
X217699319Y-151743722D01*
X217250095Y-152038720D01*
X216839736Y-152382728D01*
X216472237Y-152771875D01*
X216151593Y-153202289D01*
X215881797Y-153670097D01*
X215666845Y-154171427D01*
X215510730Y-154702407D01*
X215504066Y-154732666D01*
X215467507Y-154955234D01*
X215440345Y-155220023D01*
X215423505Y-155505328D01*
X215417910Y-155789442D01*
X213847118Y-155789442D01*
X213840336Y-155608670D01*
X213880590Y-154983493D01*
X213985350Y-154360653D01*
X214155512Y-153745077D01*
X214212533Y-153581460D01*
X214460241Y-152997149D01*
X214762515Y-152449226D01*
X215115536Y-151940442D01*
X215515487Y-151473544D01*
X215958549Y-151051280D01*
X216440905Y-150676401D01*
X216958736Y-150351654D01*
X217508225Y-150079788D01*
X218085552Y-149863552D01*
X218686901Y-149705695D01*
X219308453Y-149608965D01*
X219946391Y-149576111D01*
X220405446Y-149592038D01*
X221005636Y-149665206D01*
X221590132Y-149799587D01*
X222167225Y-149997206D01*
X222745207Y-150260090D01*
X222827768Y-150301846D01*
X222978484Y-150376280D01*
X223101897Y-150434865D01*
X223187017Y-150472450D01*
X223222854Y-150483886D01*
X223232000Y-150475228D01*
X223284169Y-150423275D01*
X223380606Y-150326296D01*
X223519196Y-150186437D01*
X223697822Y-150005844D01*
X223914368Y-149786664D01*
X224166719Y-149531042D01*
X224452757Y-149241126D01*
X224770368Y-148919062D01*
X225117434Y-148566996D01*
X225491840Y-148187074D01*
X225891470Y-147781443D01*
X226314208Y-147352249D01*
X226757937Y-146901639D01*
X227220541Y-146431758D01*
X227699905Y-145944753D01*
X228193913Y-145442770D01*
X228700447Y-144927957D01*
X234157487Y-139381181D01*
X234157487Y-128477833D01*
X233724532Y-128897954D01*
X233704501Y-128917417D01*
X233614908Y-129004707D01*
X233480834Y-129135557D01*
X233305287Y-129307024D01*
X233091274Y-129516168D01*
X232841804Y-129760047D01*
X232559882Y-130035718D01*
X232248518Y-130340241D01*
X231910718Y-130670674D01*
X231549490Y-131024075D01*
X231167841Y-131397503D01*
X230768779Y-131788016D01*
X230355312Y-132192672D01*
X229930447Y-132608530D01*
X229497192Y-133032649D01*
X225702805Y-136747223D01*
X225867905Y-136955363D01*
X225914680Y-137015230D01*
X226250182Y-137504489D01*
X226537694Y-138034399D01*
X226774229Y-138595618D01*
X226956797Y-139178803D01*
X227082412Y-139774608D01*
X227148084Y-140373692D01*
X227150185Y-140828193D01*
X227150825Y-140966711D01*
X227148900Y-141002702D01*
X227080501Y-141638707D01*
X226950006Y-142254674D01*
X226760453Y-142847033D01*
X226514880Y-143412211D01*
X226216324Y-143946640D01*
X225867823Y-144446747D01*
X225472414Y-144908963D01*
X225033135Y-145329716D01*
X224553023Y-145705436D01*
X224035116Y-146032553D01*
X223482451Y-146307495D01*
X222898067Y-146526692D01*
X222285000Y-146686574D01*
X221843712Y-146760753D01*
X221223689Y-146809544D01*
X220610767Y-146795132D01*
X220008874Y-146720062D01*
X219421935Y-146586878D01*
X218853874Y-146398124D01*
X218308619Y-146156344D01*
X217790093Y-145864082D01*
X217302224Y-145523883D01*
X216848936Y-145138290D01*
X216434154Y-144709848D01*
X216061806Y-144241101D01*
X215735815Y-143734593D01*
X215460108Y-143192869D01*
X215238610Y-142618471D01*
X215075246Y-142013945D01*
X215047900Y-141876983D01*
X214983781Y-141435129D01*
X214948597Y-140970805D01*
X214945723Y-140738914D01*
X216518858Y-140738914D01*
X216526364Y-141034148D01*
X216546397Y-141306039D01*
X216578963Y-141533193D01*
X216590221Y-141588688D01*
X216736362Y-142123869D01*
X216944272Y-142634601D01*
X217210816Y-143115875D01*
X217532857Y-143562678D01*
X217907261Y-143970000D01*
X218330892Y-144332830D01*
X218522158Y-144466994D01*
X218850212Y-144662014D01*
X219206955Y-144839621D01*
X219568868Y-144988447D01*
X219912433Y-145097127D01*
X219972138Y-145112484D01*
X220118548Y-145147732D01*
X220247584Y-145173047D01*
X220376305Y-145190391D01*
X220521768Y-145201725D01*
X220701031Y-145209008D01*
X220931150Y-145214200D01*
X220956625Y-145214648D01*
X221269731Y-145215719D01*
X221534390Y-145205819D01*
X221768242Y-145182584D01*
X221988931Y-145143652D01*
X222214095Y-145086659D01*
X222461378Y-145009244D01*
X222673198Y-144934311D01*
X222980529Y-144806019D01*
X223265180Y-144658138D01*
X223548407Y-144479174D01*
X223851471Y-144257633D01*
X223858493Y-144252209D01*
X224257419Y-143901020D01*
X224611266Y-143502002D01*
X224916449Y-143061038D01*
X225169384Y-142584014D01*
X225366484Y-142076812D01*
X225504165Y-141545317D01*
X225522662Y-141438512D01*
X225554781Y-141149256D01*
X225570349Y-140828193D01*
X225569190Y-140499310D01*
X225551131Y-140186595D01*
X225515999Y-139914038D01*
X225481594Y-139741185D01*
X225334885Y-139222794D01*
X225130852Y-138732812D01*
X224873858Y-138274773D01*
X224568263Y-137852209D01*
X224218428Y-137468652D01*
X223828715Y-137127635D01*
X223403483Y-136832690D01*
X222947095Y-136587350D01*
X222463911Y-136395148D01*
X221958292Y-136259615D01*
X221434599Y-136184285D01*
X220897193Y-136172690D01*
X220824437Y-136175963D01*
X220358171Y-136219080D01*
X219927405Y-136302035D01*
X219511970Y-136429676D01*
X219091699Y-136606854D01*
X218669997Y-136835960D01*
X218230633Y-137145218D01*
X217832197Y-137504344D01*
X217478274Y-137908664D01*
X217172447Y-138353501D01*
X216918301Y-138834179D01*
X216719419Y-139346024D01*
X216579386Y-139884359D01*
X216571448Y-139927112D01*
X216541405Y-140164001D01*
X216523873Y-140441733D01*
X216518858Y-140738914D01*
X214945723Y-140738914D01*
X214942821Y-140504755D01*
X214966926Y-140057728D01*
X215021384Y-139650470D01*
X215121606Y-139197157D01*
X215313766Y-138586246D01*
X215563556Y-138006348D01*
X215867923Y-137460566D01*
X216223811Y-136952001D01*
X216628168Y-136483755D01*
X217077939Y-136058930D01*
X217570069Y-135680628D01*
X218101504Y-135351951D01*
X218669190Y-135076000D01*
X219270073Y-134855877D01*
X219901099Y-134694685D01*
X220024093Y-134670989D01*
X220150531Y-134650730D01*
X220278119Y-134636212D01*
X220420208Y-134626557D01*
X220590148Y-134620887D01*
X220801288Y-134618323D01*
X221066979Y-134617988D01*
X221302956Y-134618949D01*
X221519268Y-134621871D01*
X221691934Y-134627591D01*
X221833874Y-134636998D01*
X221958009Y-134650980D01*
X222077259Y-134670427D01*
X222204546Y-134696226D01*
X222566191Y-134785429D01*
X223037592Y-134933412D01*
X223493737Y-135111061D01*
X223917269Y-135311461D01*
X224290831Y-135527692D01*
X224526448Y-135680175D01*
X224990732Y-135233336D01*
X225012936Y-135211908D01*
X225104117Y-135123442D01*
X225239984Y-134991196D01*
X225417756Y-134817890D01*
X225634649Y-134606242D01*
X225887884Y-134358972D01*
X226174677Y-134078799D01*
X226492247Y-133768443D01*
X226837813Y-133430622D01*
X227208593Y-133068056D01*
X227601804Y-132683464D01*
X228014666Y-132279565D01*
X228444397Y-131859079D01*
X228888214Y-131424725D01*
X229343336Y-130979221D01*
X229806982Y-130525288D01*
X234158948Y-126264079D01*
X234156717Y-118902822D01*
X234156607Y-118497573D01*
X234156603Y-118471432D01*
X235719519Y-118471432D01*
X235719545Y-118963266D01*
X235719658Y-119595515D01*
X235719854Y-120206774D01*
X235720131Y-120793693D01*
X235720482Y-121352919D01*
X235720905Y-121881100D01*
X235721393Y-122374885D01*
X235721943Y-122830922D01*
X235722549Y-123245858D01*
X235723208Y-123616343D01*
X235723915Y-123939025D01*
X235724666Y-124210551D01*
X235725455Y-124427569D01*
X235726278Y-124586729D01*
X235727131Y-124684678D01*
X235728008Y-124718064D01*
X235735933Y-124710952D01*
X235785983Y-124663097D01*
X235878962Y-124573173D01*
X236011271Y-124444699D01*
X236179306Y-124281193D01*
X236379466Y-124086177D01*
X236608152Y-123863170D01*
X236861760Y-123615690D01*
X237136689Y-123347258D01*
X237429339Y-123061394D01*
X237736108Y-122761616D01*
X238053394Y-122451445D01*
X238377596Y-122134400D01*
X238705114Y-121814001D01*
X239032344Y-121493767D01*
X239355687Y-121177218D01*
X239671540Y-120867873D01*
X239976303Y-120569252D01*
X240266374Y-120284875D01*
X240538151Y-120018261D01*
X240788034Y-119772930D01*
X241628874Y-118947008D01*
X241421179Y-118377448D01*
X241312014Y-118081931D01*
X240766661Y-116704038D01*
X240162352Y-115325839D01*
X239505004Y-113959752D01*
X238800532Y-112618190D01*
X238054855Y-111313570D01*
X237980283Y-111189123D01*
X237870229Y-111007927D01*
X237774281Y-110852928D01*
X237697525Y-110732209D01*
X237645051Y-110653851D01*
X237621945Y-110625936D01*
X237592116Y-110646874D01*
X237516504Y-110707080D01*
X237401062Y-110801647D01*
X237251703Y-110925663D01*
X237074339Y-111074219D01*
X236874885Y-111242404D01*
X236659254Y-111425309D01*
X235719519Y-112224681D01*
X235719519Y-118471432D01*
X234156603Y-118471432D01*
X234156475Y-117673999D01*
X234156499Y-116914774D01*
X234156691Y-116217463D01*
X234157067Y-115579634D01*
X234157641Y-114998850D01*
X234158426Y-114472679D01*
X234159436Y-113998685D01*
X234160685Y-113574435D01*
X234162188Y-113197494D01*
X234163959Y-112865429D01*
X234166010Y-112575804D01*
X234168357Y-112326186D01*
X234171014Y-112114140D01*
X234173994Y-111937233D01*
X234177311Y-111793029D01*
X234180980Y-111679096D01*
X234185014Y-111592997D01*
X234189428Y-111532300D01*
X234194235Y-111494570D01*
X234199450Y-111477372D01*
X234203156Y-111472407D01*
X234226527Y-111446411D01*
X234267690Y-111406175D01*
X234330055Y-111348741D01*
X234417033Y-111271154D01*
X234532035Y-111170458D01*
X234678472Y-111043695D01*
X234859755Y-110887910D01*
X235079294Y-110700146D01*
X235340500Y-110477448D01*
X235646785Y-110216858D01*
X236001559Y-109915421D01*
X236037876Y-109884545D01*
X236224642Y-109724656D01*
X236392107Y-109579490D01*
X236533735Y-109454844D01*
X236642989Y-109356515D01*
X236713335Y-109290300D01*
X236738236Y-109261996D01*
X236736835Y-109255270D01*
X236706678Y-109197517D01*
X236640495Y-109093541D01*
X236542657Y-108949297D01*
X236417538Y-108770738D01*
X236269509Y-108563819D01*
X236102941Y-108334494D01*
X235922207Y-108088717D01*
X235731678Y-107832443D01*
X235535727Y-107571625D01*
X235338726Y-107312218D01*
X235145045Y-107060177D01*
X234959057Y-106821454D01*
X234785135Y-106602005D01*
X234769136Y-106582046D01*
X234595516Y-106367411D01*
X234409247Y-106140304D01*
X234215397Y-105906630D01*
X234019035Y-105672294D01*
X233825230Y-105443201D01*
X233639049Y-105225256D01*
X233465560Y-105024364D01*
X233309833Y-104846431D01*
X233176935Y-104697361D01*
X233071934Y-104583059D01*
X232999899Y-104509431D01*
X232965898Y-104482383D01*
X232959121Y-104488052D01*
X232910976Y-104534466D01*
X232818756Y-104625637D01*
X232684869Y-104759135D01*
X232511722Y-104932536D01*
X232301720Y-105143412D01*
X232057272Y-105389336D01*
X231780784Y-105667881D01*
X231474662Y-105976620D01*
X231141315Y-106313127D01*
X230783148Y-106674974D01*
X230402569Y-107059735D01*
X230001984Y-107464983D01*
X229583801Y-107888291D01*
X229150426Y-108327232D01*
X228704267Y-108779379D01*
X228375860Y-109112327D01*
X227868393Y-109627012D01*
X227405564Y-110096734D01*
X226985397Y-110523538D01*
X226605920Y-110909471D01*
X226265159Y-111256579D01*
X225961140Y-111566908D01*
X225691890Y-111842504D01*
X225455434Y-112085414D01*
X225249798Y-112297684D01*
X225073010Y-112481360D01*
X224923096Y-112638487D01*
X224798081Y-112771113D01*
X224695992Y-112881284D01*
X224614856Y-112971045D01*
X224552698Y-113042443D01*
X224507545Y-113097524D01*
X224477423Y-113138334D01*
X224460359Y-113166920D01*
X224454379Y-113185328D01*
X224453965Y-113193190D01*
X224451607Y-113259951D01*
X224447650Y-113387935D01*
X224442229Y-113572164D01*
X224435477Y-113807659D01*
X224427528Y-114089443D01*
X224418517Y-114412538D01*
X224408578Y-114771966D01*
X224397844Y-115162748D01*
X224386450Y-115579906D01*
X224374529Y-116018464D01*
X224362215Y-116473441D01*
X224349643Y-116939862D01*
X224336947Y-117412746D01*
X224324260Y-117887118D01*
X224311717Y-118357997D01*
X224299451Y-118820407D01*
X224287597Y-119269369D01*
X224276288Y-119699906D01*
X224265659Y-120107038D01*
X224255843Y-120485789D01*
X224246975Y-120831181D01*
X224239188Y-121138234D01*
X224232617Y-121401971D01*
X224227396Y-121617415D01*
X224224794Y-121713397D01*
X224215544Y-121940222D01*
X224203340Y-122120628D01*
X224188747Y-122247454D01*
X224172333Y-122313538D01*
X224153161Y-122344187D01*
X224087117Y-122425550D01*
X224003400Y-122510963D01*
X223977099Y-122537084D01*
X223904033Y-122611046D01*
X223786770Y-122730342D01*
X223627029Y-122893214D01*
X223426527Y-123097904D01*
X223186981Y-123342653D01*
X222910108Y-123625703D01*
X222597627Y-123945295D01*
X222251255Y-124299673D01*
X221872708Y-124687076D01*
X221463706Y-125105747D01*
X221025965Y-125553927D01*
X220561202Y-126029858D01*
X220071136Y-126531783D01*
X219557483Y-127057942D01*
X219021961Y-127606577D01*
X218466288Y-128175930D01*
X217892182Y-128764243D01*
X217301359Y-129369757D01*
X216695537Y-129990715D01*
X216076434Y-130625357D01*
X215445767Y-131271925D01*
X214979603Y-131749854D01*
X214349973Y-132395322D01*
X213730757Y-133030056D01*
X213123804Y-133652162D01*
X212530966Y-134259744D01*
X211954092Y-134850909D01*
X211395031Y-135423762D01*
X210855634Y-135976407D01*
X210337751Y-136506952D01*
X209843231Y-137013501D01*
X209373925Y-137494159D01*
X208931682Y-137947033D01*
X208518353Y-138370227D01*
X208135788Y-138761847D01*
X207785836Y-139119999D01*
X207470347Y-139442788D01*
X207191172Y-139728319D01*
X206950160Y-139974698D01*
X206749161Y-140180030D01*
X206590025Y-140342421D01*
X206474603Y-140459977D01*
X206404744Y-140530802D01*
X205792822Y-141147567D01*
X205894489Y-141277861D01*
X206037671Y-141469863D01*
X206360457Y-141976664D01*
X206633698Y-142518360D01*
X206854724Y-143086185D01*
X207020863Y-143671371D01*
X207129447Y-144265153D01*
X207177804Y-144858764D01*
X207173374Y-145036921D01*
X207163266Y-145443438D01*
X207115349Y-145867501D01*
X206990122Y-146505366D01*
X206805349Y-147114969D01*
X206563556Y-147693446D01*
X206267269Y-148237933D01*
X205919016Y-148745565D01*
X205521324Y-149213479D01*
X205076718Y-149638809D01*
X204587726Y-150018692D01*
X204056874Y-150350263D01*
X203486689Y-150630657D01*
X202879697Y-150857010D01*
X202238426Y-151026458D01*
X202217166Y-151030971D01*
X202071932Y-151060376D01*
X201943958Y-151082250D01*
X201819049Y-151097687D01*
X201683011Y-151107786D01*
X201521650Y-151113641D01*
X201320770Y-151116351D01*
X201066177Y-151117010D01*
X201028908Y-151117001D01*
X200782235Y-151116134D01*
X200587397Y-151113071D01*
X200430200Y-151106717D01*
X200296450Y-151095975D01*
X200171950Y-151079749D01*
X200042508Y-151056942D01*
X199893927Y-151026458D01*
X199860271Y-151019205D01*
X199218166Y-150846325D01*
X198609499Y-150615645D01*
X198036445Y-150328547D01*
X197501182Y-149986414D01*
X197005883Y-149590627D01*
X196552726Y-149142569D01*
X196143886Y-148643623D01*
X196109791Y-148596872D01*
X195768912Y-148068661D01*
X195488129Y-147515016D01*
X195267317Y-146940918D01*
X195106351Y-146351346D01*
X195005108Y-145751279D01*
X194963463Y-145145696D01*
X194967025Y-145024599D01*
X196550155Y-145024599D01*
X196551460Y-145202697D01*
X196561796Y-145488717D01*
X196584795Y-145737056D01*
X196623266Y-145966971D01*
X196680018Y-146197718D01*
X196757859Y-146448552D01*
X196927379Y-146880063D01*
X197179910Y-147358293D01*
X197485409Y-147800843D01*
X197839170Y-148203542D01*
X198236490Y-148562215D01*
X198672664Y-148872689D01*
X199142990Y-149130792D01*
X199642762Y-149332351D01*
X200167277Y-149473192D01*
X200194198Y-149478471D01*
X200388294Y-149508352D01*
X200617171Y-149532950D01*
X200860489Y-149551015D01*
X201097905Y-149561298D01*
X201309077Y-149562546D01*
X201473663Y-149553509D01*
X201844731Y-149498912D01*
X202384434Y-149365644D01*
X202895651Y-149174179D01*
X203374706Y-148927803D01*
X203817922Y-148629799D01*
X204221622Y-148283449D01*
X204582128Y-147892038D01*
X204895765Y-147458848D01*
X205158854Y-146987164D01*
X205367719Y-146480268D01*
X205518683Y-145941444D01*
X205522490Y-145923171D01*
X205547369Y-145754445D01*
X205566016Y-145539681D01*
X205578258Y-145295099D01*
X205583921Y-145036921D01*
X205582832Y-144781366D01*
X205574820Y-144544655D01*
X205559709Y-144343009D01*
X205537329Y-144192647D01*
X205460031Y-143882977D01*
X205274852Y-143342379D01*
X205035067Y-142838873D01*
X204742678Y-142375097D01*
X204399690Y-141953683D01*
X204008106Y-141577269D01*
X203569930Y-141248488D01*
X203087164Y-140969975D01*
X202878935Y-140871083D01*
X202441912Y-140701328D01*
X202002625Y-140585435D01*
X201544058Y-140519475D01*
X201049198Y-140499522D01*
X201026457Y-140499642D01*
X200499445Y-140529773D01*
X200005335Y-140613914D01*
X199533047Y-140754613D01*
X199071503Y-140954419D01*
X198814084Y-141093032D01*
X198347308Y-141400757D01*
X197927252Y-141756269D01*
X197556318Y-142156456D01*
X197236907Y-142598205D01*
X196971421Y-143078406D01*
X196762261Y-143593945D01*
X196611830Y-144141711D01*
X196598441Y-144209316D01*
X196575756Y-144363621D01*
X196560840Y-144541009D01*
X196552653Y-144756372D01*
X196550155Y-145024599D01*
X194967025Y-145024599D01*
X194981292Y-144539577D01*
X195058471Y-143937902D01*
X195194876Y-143345649D01*
X195390382Y-142767799D01*
X195644866Y-142209330D01*
X195958202Y-141675222D01*
X196330268Y-141170455D01*
X196428498Y-141056084D01*
X196605972Y-140864985D01*
X196806454Y-140662836D01*
X197013510Y-140465594D01*
X197210704Y-140289220D01*
X197381598Y-140149670D01*
X197657648Y-139953302D01*
X198166478Y-139650458D01*
X198712817Y-139392560D01*
X199283980Y-139185302D01*
X199867280Y-139034375D01*
X200194170Y-138976777D01*
X200810566Y-138919828D01*
X201431009Y-138927340D01*
X202048850Y-138998050D01*
X202657443Y-139130695D01*
X203250139Y-139324015D01*
X203820292Y-139576747D01*
X204361253Y-139887628D01*
X204654330Y-140077478D01*
X204850615Y-139876907D01*
X204879100Y-139847747D01*
X204955400Y-139769578D01*
X205075943Y-139646054D01*
X205238990Y-139478957D01*
X205442803Y-139270068D01*
X205685644Y-139021169D01*
X205965776Y-138734042D01*
X206281460Y-138410468D01*
X206630957Y-138052229D01*
X207012531Y-137661106D01*
X207424443Y-137238881D01*
X207864954Y-136787336D01*
X208332328Y-136308252D01*
X208824825Y-135803410D01*
X209340707Y-135274593D01*
X209878238Y-134723581D01*
X210435678Y-134152157D01*
X211011290Y-133562102D01*
X211603335Y-132955198D01*
X212210075Y-132333225D01*
X212829773Y-131697967D01*
X213460691Y-131051203D01*
X213952399Y-130547152D01*
X214577636Y-129906241D01*
X215191248Y-129277271D01*
X215791446Y-128662075D01*
X216376439Y-128062487D01*
X216944438Y-127480342D01*
X217493653Y-126917472D01*
X218022294Y-126375712D01*
X218528571Y-125856896D01*
X219010695Y-125362857D01*
X219466876Y-124895429D01*
X219895325Y-124456446D01*
X220294250Y-124047743D01*
X220661863Y-123671152D01*
X220996373Y-123328508D01*
X221295992Y-123021644D01*
X221558928Y-122752394D01*
X221783393Y-122522593D01*
X221967596Y-122334074D01*
X222109748Y-122188671D01*
X222208059Y-122088217D01*
X222260739Y-122034547D01*
X222646997Y-121643024D01*
X222767320Y-117263558D01*
X222769545Y-117182465D01*
X222784195Y-116642252D01*
X222798078Y-116119718D01*
X222811095Y-115619046D01*
X222823151Y-115144422D01*
X222834148Y-114700028D01*
X222843988Y-114290048D01*
X222852576Y-113918668D01*
X222859813Y-113590070D01*
X222865603Y-113308440D01*
X222869849Y-113077960D01*
X222872454Y-112902815D01*
X222873320Y-112787189D01*
X222872351Y-112735265D01*
X222870498Y-112715944D01*
X222868468Y-112591370D01*
X222891712Y-112483857D01*
X222947560Y-112379041D01*
X223043346Y-112262560D01*
X223186400Y-112120054D01*
X223189380Y-112117209D01*
X223242301Y-112065109D01*
X223339793Y-111967717D01*
X223479089Y-111827836D01*
X223657424Y-111648269D01*
X223872032Y-111431818D01*
X224120147Y-111181285D01*
X224399004Y-110899474D01*
X224705836Y-110589186D01*
X225037879Y-110253225D01*
X225392365Y-109894393D01*
X225766531Y-109515492D01*
X226157609Y-109119326D01*
X226562834Y-108708696D01*
X226979441Y-108286406D01*
X227404663Y-107855257D01*
X227835734Y-107418054D01*
X228269890Y-106977597D01*
X228704365Y-106536690D01*
X229136392Y-106098135D01*
X229563205Y-105664734D01*
X229982040Y-105239292D01*
X230390130Y-104824609D01*
X230784710Y-104423489D01*
X231163014Y-104038734D01*
X231522276Y-103673147D01*
X231864258Y-103325036D01*
X231440351Y-102898484D01*
X231432112Y-102890206D01*
X231310710Y-102770305D01*
X231161131Y-102625558D01*
X230990403Y-102462489D01*
X230805551Y-102287620D01*
X230613600Y-102107476D01*
X230421577Y-101928579D01*
X230236507Y-101757453D01*
X230065417Y-101600622D01*
X229915331Y-101464609D01*
X229793277Y-101355938D01*
X229706279Y-101281131D01*
X229661365Y-101246713D01*
X229651017Y-101254403D01*
X229595286Y-101305401D01*
X229491573Y-101403999D01*
X229340022Y-101550053D01*
X229140779Y-101743420D01*
X228893990Y-101983957D01*
X228599799Y-102271520D01*
X228258353Y-102605965D01*
X227869797Y-102987150D01*
X227434275Y-103414931D01*
X226951934Y-103889164D01*
X226422920Y-104409706D01*
X225847376Y-104976415D01*
X225225449Y-105589145D01*
X224557285Y-106247755D01*
X223843028Y-106952100D01*
X223082824Y-107702037D01*
X222276818Y-108497423D01*
X221425156Y-109338114D01*
X220527983Y-110223967D01*
X219585445Y-111154839D01*
X218597687Y-112130585D01*
X217564854Y-113151064D01*
X216487093Y-114216131D01*
X215364547Y-115325642D01*
X214197363Y-116479455D01*
X212985686Y-117677427D01*
X211729662Y-118919413D01*
X210429435Y-120205270D01*
X209085152Y-121534855D01*
X207696958Y-122908025D01*
X185775503Y-144593374D01*
X185988997Y-144902369D01*
X186319915Y-145435071D01*
X186601301Y-146009982D01*
X186818910Y-146603646D01*
X186972227Y-147212405D01*
X187060737Y-147832600D01*
X187083504Y-148449192D01*
X187083924Y-148460570D01*
X187041274Y-149092658D01*
X186932272Y-149725203D01*
X186756402Y-150354546D01*
X186700992Y-150512810D01*
X186452881Y-151093095D01*
X186145537Y-151642585D01*
X185781578Y-152157860D01*
X185363624Y-152635498D01*
X184894293Y-153072077D01*
X184376204Y-153464178D01*
X184234436Y-153555135D01*
X183983002Y-153699410D01*
X183701370Y-153845545D01*
X183410466Y-153983316D01*
X183131217Y-154102500D01*
X182884549Y-154192876D01*
X182294886Y-154353067D01*
X181669886Y-154457152D01*
X181044377Y-154496340D01*
X180422891Y-154471769D01*
X179809960Y-154384573D01*
X179210119Y-154235887D01*
X178627900Y-154026849D01*
X178067835Y-153758592D01*
X177534458Y-153432253D01*
X177032301Y-153048968D01*
X176565898Y-152609871D01*
X176367864Y-152393873D01*
X175975495Y-151897856D01*
X175642119Y-151371420D01*
X175366024Y-150811290D01*
X175145495Y-150214191D01*
X174978818Y-149576848D01*
X174969728Y-149533882D01*
X174941688Y-149393584D01*
X174920864Y-149268497D01*
X174906196Y-149144768D01*
X174896629Y-149008543D01*
X174891104Y-148845970D01*
X174888564Y-148643195D01*
X174887953Y-148386364D01*
X176452014Y-148386364D01*
X176453468Y-148540129D01*
X176472480Y-148912282D01*
X176516050Y-149247514D01*
X176587388Y-149566125D01*
X176689709Y-149888416D01*
X176786518Y-150135346D01*
X177030164Y-150624875D01*
X177326541Y-151077130D01*
X177671127Y-151488537D01*
X178059403Y-151855522D01*
X178486848Y-152174511D01*
X178948943Y-152441932D01*
X179441167Y-152654211D01*
X179959001Y-152807775D01*
X180497923Y-152899050D01*
X180672577Y-152914975D01*
X181142478Y-152925384D01*
X181600315Y-152883626D01*
X182071293Y-152787922D01*
X182294184Y-152725405D01*
X182808910Y-152532594D01*
X183291596Y-152282466D01*
X183738263Y-151978730D01*
X184144932Y-151625094D01*
X184507623Y-151225268D01*
X184822356Y-150782962D01*
X185085154Y-150301885D01*
X185292035Y-149785746D01*
X185388634Y-149441454D01*
X185472486Y-148954007D01*
X185504604Y-148449192D01*
X185484994Y-147942232D01*
X185413665Y-147448351D01*
X185290624Y-146982771D01*
X185278689Y-146947427D01*
X185083752Y-146465815D01*
X184838224Y-146018380D01*
X184536451Y-145596052D01*
X184172776Y-145189759D01*
X184154102Y-145170957D01*
X183742896Y-144803264D01*
X183302511Y-144495740D01*
X182829739Y-144246682D01*
X182321371Y-144054389D01*
X181774198Y-143917157D01*
X181616585Y-143892455D01*
X181337594Y-143867692D01*
X181030225Y-143858118D01*
X180717244Y-143863692D01*
X180421416Y-143884372D01*
X180165508Y-143920116D01*
X179661156Y-144044649D01*
X179147724Y-144235793D01*
X178667027Y-144482898D01*
X178222731Y-144782381D01*
X177818498Y-145130658D01*
X177457993Y-145524148D01*
X177144881Y-145959266D01*
X176882825Y-146432430D01*
X176675489Y-146940057D01*
X176526537Y-147478563D01*
X176498732Y-147620138D01*
X176475953Y-147776471D01*
X176461614Y-147943621D01*
X176454154Y-148140586D01*
X176452014Y-148386364D01*
X174887953Y-148386364D01*
X174887989Y-148309762D01*
X174889024Y-148069133D01*
X174892277Y-147878761D01*
X174898805Y-147724791D01*
X174909666Y-147593372D01*
X174925917Y-147470649D01*
X174948615Y-147342769D01*
X174978818Y-147195879D01*
X175006329Y-147072433D01*
X175186222Y-146442060D01*
X175424433Y-145842680D01*
X175718931Y-145277433D01*
X176067686Y-144749460D01*
X176468666Y-144261903D01*
X176919842Y-143817904D01*
X177419184Y-143420602D01*
X177783677Y-143177970D01*
X178337441Y-142873131D01*
X178910494Y-142632525D01*
X179505971Y-142455092D01*
X180127008Y-142339774D01*
X180776738Y-142285509D01*
X180947559Y-142281868D01*
X181559469Y-142309643D01*
X182167477Y-142399287D01*
X182763091Y-142548351D01*
X183337818Y-142754384D01*
X183883164Y-143014939D01*
X184390637Y-143327565D01*
X184626060Y-143491321D01*
X184922560Y-143213775D01*
X184944399Y-143192694D01*
X185015790Y-143122799D01*
X185133579Y-143006986D01*
X185296666Y-142846344D01*
X185503951Y-142641959D01*
X185754334Y-142394919D01*
X186046714Y-142106313D01*
X186379992Y-141777228D01*
X186753067Y-141408751D01*
X187164840Y-141001971D01*
X187614210Y-140557974D01*
X188100078Y-140077849D01*
X188621342Y-139562683D01*
X189176904Y-139013563D01*
X189765663Y-138431579D01*
X190386519Y-137817816D01*
X191038372Y-137173364D01*
X191720121Y-136499309D01*
X192430668Y-135796739D01*
X193168911Y-135066742D01*
X193933751Y-134310406D01*
X194724087Y-133528818D01*
X195538819Y-132723066D01*
X196376848Y-131894237D01*
X197237074Y-131043420D01*
X198118395Y-130171701D01*
X199019713Y-129280169D01*
X199939927Y-128369912D01*
X200877936Y-127442016D01*
X201832642Y-126497570D01*
X202802944Y-125537661D01*
X203787741Y-124563377D01*
X204785934Y-123575806D01*
X205796422Y-122576035D01*
X206818106Y-121565152D01*
X228417152Y-100194074D01*
X228069873Y-99914850D01*
X228037228Y-99888704D01*
X227857906Y-99747732D01*
X227647186Y-99585623D01*
X227412188Y-99407566D01*
X227160032Y-99218750D01*
X226897837Y-99024364D01*
X226632726Y-98829596D01*
X226371816Y-98639636D01*
X226122229Y-98459672D01*
X225891085Y-98294893D01*
X225685504Y-98150489D01*
X225512605Y-98031648D01*
X225379510Y-97943559D01*
X225293339Y-97891411D01*
X225293157Y-97891329D01*
X225277253Y-97899582D01*
X225240904Y-97929829D01*
X225182858Y-97983369D01*
X225101863Y-98061500D01*
X224996666Y-98165522D01*
X224866015Y-98296734D01*
X224708659Y-98456433D01*
X224523344Y-98645921D01*
X224308819Y-98866494D01*
X224063831Y-99119452D01*
X223787128Y-99406095D01*
X223477459Y-99727720D01*
X223133570Y-100085627D01*
X222754210Y-100481115D01*
X222338127Y-100915483D01*
X221884067Y-101390029D01*
X221390780Y-101906053D01*
X220857012Y-102464853D01*
X220281512Y-103067728D01*
X219663028Y-103715978D01*
X219000306Y-104410901D01*
X218292096Y-105153796D01*
X217731836Y-105741638D01*
X217175051Y-106325936D01*
X216631899Y-106896026D01*
X216104229Y-107449967D01*
X215593885Y-107985818D01*
X215102715Y-108501638D01*
X214632564Y-108995485D01*
X214185279Y-109465418D01*
X213762708Y-109909496D01*
X213366695Y-110325778D01*
X212999087Y-110712323D01*
X212661731Y-111067190D01*
X212356473Y-111388436D01*
X212085160Y-111674122D01*
X211849637Y-111922306D01*
X211651752Y-112131046D01*
X211493350Y-112298402D01*
X211376279Y-112422432D01*
X211302384Y-112501195D01*
X211273511Y-112532750D01*
X211179849Y-112623709D01*
X211020015Y-112708897D01*
X210808572Y-112763071D01*
X210540241Y-112788067D01*
X210508887Y-112788748D01*
X210399986Y-112789344D01*
X210229687Y-112789075D01*
X210002245Y-112787979D01*
X209721917Y-112786098D01*
X209392957Y-112783471D01*
X209019622Y-112780140D01*
X208606168Y-112776144D01*
X208156850Y-112771524D01*
X207675924Y-112766321D01*
X207167645Y-112760574D01*
X206636270Y-112754324D01*
X206086054Y-112747611D01*
X205521252Y-112740476D01*
X200841836Y-112680348D01*
X198831680Y-114801087D01*
X198492188Y-115159227D01*
X198135005Y-115535979D01*
X197769305Y-115921667D01*
X197401991Y-116309014D01*
X197039968Y-116690738D01*
X196690139Y-117059563D01*
X196359408Y-117408207D01*
X196054680Y-117729392D01*
X195782858Y-118015839D01*
X195550847Y-118260268D01*
X195415601Y-118402894D01*
X195134015Y-118701231D01*
X194897316Y-118954261D01*
X194703570Y-119164141D01*
X194550841Y-119333027D01*
X194437195Y-119463076D01*
X194360697Y-119556444D01*
X194319413Y-119615288D01*
X194311408Y-119641764D01*
X194313378Y-119644480D01*
X194674066Y-120196294D01*
X194972600Y-120768172D01*
X195208864Y-121356083D01*
X195382741Y-121955995D01*
X195494118Y-122563879D01*
X195542877Y-123175702D01*
X195537553Y-123408760D01*
X195528903Y-123787433D01*
X195452081Y-124395042D01*
X195312295Y-124994497D01*
X195109429Y-125581767D01*
X194843368Y-126152821D01*
X194513996Y-126703628D01*
X194144904Y-127200698D01*
X193725168Y-127661982D01*
X193269926Y-128070819D01*
X192783480Y-128426788D01*
X192270132Y-128729468D01*
X191734183Y-128978440D01*
X191179936Y-129173281D01*
X190611691Y-129313572D01*
X190033751Y-129398892D01*
X189450417Y-129428820D01*
X188865992Y-129402936D01*
X188284776Y-129320818D01*
X187711072Y-129182047D01*
X187149181Y-128986201D01*
X186603405Y-128732860D01*
X186078046Y-128421603D01*
X185577406Y-128052010D01*
X185105785Y-127623659D01*
X185045011Y-127561742D01*
X184623878Y-127079396D01*
X184259859Y-126563760D01*
X183953926Y-126019347D01*
X183707053Y-125450671D01*
X183520214Y-124862243D01*
X183394379Y-124258578D01*
X183330524Y-123644189D01*
X183330324Y-123506975D01*
X184900318Y-123506975D01*
X184951435Y-124033064D01*
X185063392Y-124548630D01*
X185236026Y-125046799D01*
X185469176Y-125520699D01*
X185588220Y-125717573D01*
X185913977Y-126169196D01*
X186284265Y-126573973D01*
X186694759Y-126928825D01*
X187141135Y-127230673D01*
X187619068Y-127476436D01*
X188124234Y-127663037D01*
X188652308Y-127787394D01*
X188687838Y-127793138D01*
X188918335Y-127818893D01*
X189188039Y-127833966D01*
X189475696Y-127838355D01*
X189760048Y-127832061D01*
X190019843Y-127815083D01*
X190233824Y-127787422D01*
X190433593Y-127746761D01*
X190948752Y-127595815D01*
X191438145Y-127385894D01*
X191897433Y-127121348D01*
X192322276Y-126806531D01*
X192708335Y-126445793D01*
X193051270Y-126043488D01*
X193346743Y-125603966D01*
X193590414Y-125131581D01*
X193777943Y-124630683D01*
X193904992Y-124105624D01*
X193914179Y-124050606D01*
X193948255Y-123745227D01*
X193962432Y-123408760D01*
X193956957Y-123065286D01*
X193932077Y-122738883D01*
X193888040Y-122453629D01*
X193780379Y-122031337D01*
X193588730Y-121509656D01*
X193341886Y-121022914D01*
X193043122Y-120574419D01*
X192695714Y-120167483D01*
X192302936Y-119805413D01*
X191868064Y-119491519D01*
X191394372Y-119229112D01*
X190885136Y-119021499D01*
X190343630Y-118871992D01*
X190289108Y-118861061D01*
X190027927Y-118823847D01*
X189730395Y-118800893D01*
X189417018Y-118792393D01*
X189108304Y-118798537D01*
X188824762Y-118819519D01*
X188586899Y-118855531D01*
X188255098Y-118937082D01*
X187727063Y-119120111D01*
X187231001Y-119359962D01*
X186770891Y-119653605D01*
X186350714Y-119998009D01*
X185974448Y-120390143D01*
X185646075Y-120826978D01*
X185369574Y-121305481D01*
X185307500Y-121434865D01*
X185113632Y-121934309D01*
X184981254Y-122450724D01*
X184910204Y-122977237D01*
X184900318Y-123506975D01*
X183330324Y-123506975D01*
X183329621Y-123023589D01*
X183392642Y-122401291D01*
X183520561Y-121781807D01*
X183714351Y-121169653D01*
X183801755Y-120948354D01*
X184066916Y-120392793D01*
X184384846Y-119875018D01*
X184759694Y-119388749D01*
X185195612Y-118927701D01*
X185425256Y-118716141D01*
X185913280Y-118327276D01*
X186426143Y-117998955D01*
X186970049Y-117727439D01*
X187551204Y-117508991D01*
X187936555Y-117395684D01*
X188343086Y-117304005D01*
X188744411Y-117246733D01*
X189163317Y-117220719D01*
X189622594Y-117222815D01*
X189866503Y-117234676D01*
X190498641Y-117308325D01*
X191105377Y-117444065D01*
X191690832Y-117643204D01*
X192259122Y-117907052D01*
X192814367Y-118236916D01*
X193178925Y-118477687D01*
X193255427Y-118397467D01*
X193280429Y-118371196D01*
X193361390Y-118285910D01*
X193482659Y-118158000D01*
X193640891Y-117991003D01*
X193832738Y-117788456D01*
X194054855Y-117553894D01*
X194303896Y-117290854D01*
X194576516Y-117002872D01*
X194869368Y-116693485D01*
X195179106Y-116366229D01*
X195502384Y-116024640D01*
X195835856Y-115672255D01*
X196176176Y-115312610D01*
X196519999Y-114949242D01*
X196863978Y-114585686D01*
X197204767Y-114225480D01*
X197539020Y-113872159D01*
X197863392Y-113529260D01*
X198174536Y-113200319D01*
X198469106Y-112888873D01*
X198743757Y-112598457D01*
X198995142Y-112332610D01*
X199219915Y-112094865D01*
X199414730Y-111888761D01*
X199576242Y-111717834D01*
X199701105Y-111585618D01*
X199785972Y-111495653D01*
X199827497Y-111451472D01*
X199862613Y-111412356D01*
X199902910Y-111364574D01*
X199938890Y-111321764D01*
X199974165Y-111283699D01*
X200012347Y-111250149D01*
X200057046Y-111220888D01*
X200111874Y-111195687D01*
X200180443Y-111174318D01*
X200266364Y-111156554D01*
X200373250Y-111142167D01*
X200504710Y-111130928D01*
X200664357Y-111122609D01*
X200855802Y-111116984D01*
X201082657Y-111113824D01*
X201348534Y-111112900D01*
X201657043Y-111113985D01*
X202011796Y-111116852D01*
X202416405Y-111121272D01*
X202874481Y-111127017D01*
X203389636Y-111133859D01*
X203965481Y-111141571D01*
X204605628Y-111149924D01*
X204966649Y-111154497D01*
X205507502Y-111161213D01*
X206037056Y-111167634D01*
X206550165Y-111173703D01*
X207041682Y-111179365D01*
X207506462Y-111184566D01*
X207939357Y-111189250D01*
X208335222Y-111193361D01*
X208688910Y-111196845D01*
X208995274Y-111199645D01*
X209249170Y-111201707D01*
X209445449Y-111202975D01*
X209578967Y-111203394D01*
X210349511Y-111203209D01*
X217100491Y-104120909D01*
X217502473Y-103699167D01*
X218053405Y-103121046D01*
X218590811Y-102556997D01*
X219112838Y-102008969D01*
X219617632Y-101478911D01*
X220103342Y-100968770D01*
X220568115Y-100480496D01*
X221010099Y-100016037D01*
X221427440Y-99577341D01*
X221818286Y-99166357D01*
X222180785Y-98785034D01*
X222513084Y-98435320D01*
X222813330Y-98119163D01*
X223079671Y-97838512D01*
X223310254Y-97595315D01*
X223503228Y-97391521D01*
X223656738Y-97229079D01*
X223768932Y-97109937D01*
X223837959Y-97036043D01*
X223861965Y-97009346D01*
X223856396Y-96999277D01*
X223803780Y-96956837D01*
X223701306Y-96887461D01*
X223555359Y-96794973D01*
X223372322Y-96683194D01*
X223158581Y-96555950D01*
X222920519Y-96417061D01*
X222664520Y-96270352D01*
X222396970Y-96119646D01*
X222124252Y-95968765D01*
X221669428Y-95723399D01*
X220223031Y-94992241D01*
X218739564Y-94314686D01*
X217225355Y-93693096D01*
X215686730Y-93129832D01*
X214130017Y-92627254D01*
X212561544Y-92187723D01*
X210987638Y-91813599D01*
X210484232Y-91704692D01*
X210396097Y-91784632D01*
X210393517Y-91786999D01*
X210350830Y-91826765D01*
X210261704Y-91910125D01*
X210128739Y-92034639D01*
X209954536Y-92197868D01*
X209741698Y-92397372D01*
X209492825Y-92630712D01*
X209210518Y-92895447D01*
X208897378Y-93189138D01*
X208556008Y-93509346D01*
X208189007Y-93853630D01*
X207798978Y-94219552D01*
X207388521Y-94604671D01*
X206960239Y-95006547D01*
X206516731Y-95422742D01*
X206060599Y-95850816D01*
X205965485Y-95940083D01*
X205512937Y-96364798D01*
X205074167Y-96776567D01*
X204651729Y-97172995D01*
X204248174Y-97551686D01*
X203866056Y-97910247D01*
X203507928Y-98246280D01*
X203176343Y-98557392D01*
X202873853Y-98841187D01*
X202603012Y-99095270D01*
X202366372Y-99317246D01*
X202166487Y-99504719D01*
X202005909Y-99655295D01*
X201887191Y-99766578D01*
X201812887Y-99836173D01*
X201785549Y-99861685D01*
X201786283Y-99883363D01*
X201815707Y-99952542D01*
X201872088Y-100055465D01*
X201948780Y-100179204D01*
X202219149Y-100641371D01*
X202474649Y-101198874D01*
X202673548Y-101783168D01*
X202813967Y-102385961D01*
X202894025Y-102998959D01*
X202907903Y-103477941D01*
X202911842Y-103613872D01*
X202865538Y-104222406D01*
X202831436Y-104451751D01*
X202692564Y-105086261D01*
X202492317Y-105691891D01*
X202231143Y-106267734D01*
X201909493Y-106812885D01*
X201527815Y-107326438D01*
X201086559Y-107807487D01*
X200708162Y-108152763D01*
X200195149Y-108541584D01*
X199650862Y-108870278D01*
X199076290Y-109138332D01*
X198472421Y-109345233D01*
X197840241Y-109490471D01*
X197619364Y-109521543D01*
X197330398Y-109547083D01*
X197017223Y-109562553D01*
X196702531Y-109567261D01*
X196409013Y-109560518D01*
X196159359Y-109541633D01*
X195968252Y-109516895D01*
X195335359Y-109392600D01*
X194729445Y-109208382D01*
X194153582Y-108967316D01*
X193610846Y-108672474D01*
X193104308Y-108326930D01*
X192637043Y-107933759D01*
X192212125Y-107496033D01*
X191832626Y-107016825D01*
X191501620Y-106499211D01*
X191222181Y-105946262D01*
X190997382Y-105361054D01*
X190830297Y-104746658D01*
X190724000Y-104106150D01*
X190720865Y-104077333D01*
X190704141Y-103832698D01*
X190698482Y-103548909D01*
X190701549Y-103354842D01*
X192276964Y-103354842D01*
X192278337Y-103682196D01*
X192296428Y-103991426D01*
X192331476Y-104258957D01*
X192355372Y-104380385D01*
X192499558Y-104904894D01*
X192702911Y-105402808D01*
X192961282Y-105869936D01*
X193270522Y-106302089D01*
X193626482Y-106695074D01*
X194025013Y-107044701D01*
X194461965Y-107346780D01*
X194933190Y-107597119D01*
X195434538Y-107791527D01*
X195961860Y-107925815D01*
X196099856Y-107947777D01*
X196343968Y-107973380D01*
X196613990Y-107989807D01*
X196886757Y-107996224D01*
X197139102Y-107991798D01*
X197347861Y-107975695D01*
X197713905Y-107914976D01*
X198239662Y-107771115D01*
X198742419Y-107564328D01*
X199219163Y-107296150D01*
X199666880Y-106968117D01*
X200082557Y-106581766D01*
X200191713Y-106464477D01*
X200538160Y-106032102D01*
X200822062Y-105573277D01*
X201043329Y-105088225D01*
X201201871Y-104577169D01*
X201297599Y-104040334D01*
X201330422Y-103477941D01*
X201321892Y-103161813D01*
X201259614Y-102617681D01*
X201136243Y-102102079D01*
X200950878Y-101612823D01*
X200702620Y-101147728D01*
X200390570Y-100704610D01*
X200013826Y-100281285D01*
X199787104Y-100065189D01*
X199353848Y-99719578D01*
X198895341Y-99437006D01*
X198411370Y-99217382D01*
X197901722Y-99060619D01*
X197366185Y-98966626D01*
X196804546Y-98935315D01*
X196647249Y-98937738D01*
X196091294Y-98987126D01*
X195559458Y-99099864D01*
X195052741Y-99275554D01*
X194572141Y-99513796D01*
X194118657Y-99814192D01*
X193693288Y-100176344D01*
X193646573Y-100221538D01*
X193266369Y-100636990D01*
X192948099Y-101079111D01*
X192690120Y-101550858D01*
X192490788Y-102055187D01*
X192348459Y-102595054D01*
X192323408Y-102740048D01*
X192292068Y-103032935D01*
X192276964Y-103354842D01*
X190701549Y-103354842D01*
X190703248Y-103247288D01*
X190717801Y-102949159D01*
X190741500Y-102675843D01*
X190773706Y-102448662D01*
X190918706Y-101828594D01*
X191127121Y-101215986D01*
X191392961Y-100634652D01*
X191713951Y-100088033D01*
X192087818Y-99579571D01*
X192512288Y-99112706D01*
X192985085Y-98690878D01*
X193503938Y-98317529D01*
X193776627Y-98155201D01*
X194194201Y-97944543D01*
X194640714Y-97756800D01*
X195093815Y-97601132D01*
X195531150Y-97486700D01*
X195713935Y-97450373D01*
X196339603Y-97369959D01*
X196967419Y-97355239D01*
X197591856Y-97404992D01*
X198207386Y-97517995D01*
X198808481Y-97693027D01*
X199389614Y-97928867D01*
X199945257Y-98224293D01*
X200469883Y-98578084D01*
X200688562Y-98743003D01*
X200877370Y-98559499D01*
X200881438Y-98555565D01*
X200935245Y-98504339D01*
X201035231Y-98409787D01*
X201178505Y-98274630D01*
X201362175Y-98101586D01*
X201583350Y-97893374D01*
X201839137Y-97652713D01*
X202126645Y-97382323D01*
X202442982Y-97084922D01*
X202785258Y-96763230D01*
X203150579Y-96419965D01*
X203536055Y-96057847D01*
X203938794Y-95679594D01*
X204355903Y-95287927D01*
X204784492Y-94885563D01*
X204884364Y-94791807D01*
X205306620Y-94395303D01*
X205714638Y-94012000D01*
X206105702Y-93644457D01*
X206477097Y-93295231D01*
X206826107Y-92966882D01*
X207150019Y-92661967D01*
X207446116Y-92383045D01*
X207711684Y-92132675D01*
X207944006Y-91913415D01*
X208140369Y-91727823D01*
X208298057Y-91578459D01*
X208414355Y-91467879D01*
X208486547Y-91398643D01*
X208511918Y-91373309D01*
X208501639Y-91367667D01*
X208435625Y-91352670D01*
X208316021Y-91331654D01*
X208151454Y-91305836D01*
X207950555Y-91276433D01*
X207721951Y-91244662D01*
X207474272Y-91211740D01*
X207216147Y-91178883D01*
X206956205Y-91147309D01*
X206703075Y-91118234D01*
X206597646Y-91106638D01*
X205975216Y-91043363D01*
X205372968Y-90991822D01*
X204776284Y-90951264D01*
X204170544Y-90920934D01*
X203541131Y-90900079D01*
X202873425Y-90887947D01*
X202152808Y-90883783D01*
X201576981Y-90885694D01*
X200939640Y-90894326D01*
X200341532Y-90910647D01*
X199767209Y-90935478D01*
X199201222Y-90969638D01*
X198628123Y-91013948D01*
X198032464Y-91069229D01*
X197398797Y-91136302D01*
X197056961Y-91175850D01*
X195423970Y-91405891D01*
X193799622Y-91702493D01*
X192186617Y-92064712D01*
X190587654Y-92491604D01*
X189005435Y-92982226D01*
X187442659Y-93535634D01*
X185902025Y-94150885D01*
X184386235Y-94827035D01*
X182897987Y-95563141D01*
X181439982Y-96358258D01*
X180014920Y-97211444D01*
X179135563Y-97777563D01*
X177756031Y-98729707D01*
X176421063Y-99731255D01*
X175131660Y-100780566D01*
X173888825Y-101875996D01*
X172693559Y-103015906D01*
X171546864Y-104198652D01*
X170449741Y-105422593D01*
X169403192Y-106686088D01*
X168408220Y-107987493D01*
X167465825Y-109325168D01*
X166577010Y-110697471D01*
X165742777Y-112102760D01*
X164964126Y-113539393D01*
X164242061Y-115005728D01*
X163577582Y-116500124D01*
X162971692Y-118020938D01*
X162425392Y-119566530D01*
X161939684Y-121135256D01*
X161515569Y-122725475D01*
X161154051Y-124335546D01*
X160856129Y-125963827D01*
X160622806Y-127608675D01*
X160455085Y-129268449D01*
X160422334Y-129706007D01*
X160354830Y-130972115D01*
X160324381Y-132264836D01*
X152447936Y-132264836D01*
X152479565Y-130751220D01*
X152581702Y-128948524D01*
X152748080Y-127153131D01*
X152978537Y-125369173D01*
X153272913Y-123600781D01*
X153631046Y-121852086D01*
X153681578Y-121629292D01*
X154125938Y-119841056D01*
X154633774Y-118076660D01*
X155204718Y-116336954D01*
X155838405Y-114622786D01*
X156534469Y-112935003D01*
X157292543Y-111274454D01*
X158112262Y-109641988D01*
X158993260Y-108038453D01*
X159935170Y-106464696D01*
X160937626Y-104921566D01*
X161283373Y-104416805D01*
X162358481Y-102927012D01*
X163486336Y-101479412D01*
X164665573Y-100075326D01*
X165894827Y-98716071D01*
X167172735Y-97402967D01*
X168497931Y-96137333D01*
X169869052Y-94920487D01*
X171284733Y-93753750D01*
X172743610Y-92638440D01*
X174244317Y-91575875D01*
X175785492Y-90567376D01*
X176110099Y-90365142D01*
X177670927Y-89440793D01*
X179265096Y-88574604D01*
X180890121Y-87767496D01*
X182543515Y-87020392D01*
X184222793Y-86334215D01*
X185925468Y-85709886D01*
X187649056Y-85148327D01*
X189391070Y-84650462D01*
X191149024Y-84217213D01*
X192920434Y-83849502D01*
X194702812Y-83548250D01*
X195606863Y-83421160D01*
X197433555Y-83215026D01*
X199261344Y-83076133D01*
X201088556Y-83004286D01*
X202913519Y-82999289D01*
X204734561Y-83060947D01*
X206550009Y-83189065D01*
X208358191Y-83383447D01*
X210157434Y-83643897D01*
X211946067Y-83970221D01*
X213722417Y-84362222D01*
X215484812Y-84819706D01*
X217231578Y-85342476D01*
X218961045Y-85930338D01*
X220671539Y-86583096D01*
X221177231Y-86790204D01*
X222827286Y-87513217D01*
X224454356Y-88298703D01*
X226055023Y-89144554D01*
X227625871Y-90048664D01*
X229163483Y-91008923D01*
X230664442Y-92023225D01*
X232125332Y-93089461D01*
X233542736Y-94205523D01*
X234913237Y-95369304D01*
X236029270Y-96383610D01*
X237340975Y-97657427D01*
X238603883Y-98975829D01*
X239816639Y-100336904D01*
X240977888Y-101738741D01*
X242086277Y-103179427D01*
X243140450Y-104657051D01*
X244139053Y-106169702D01*
X245080731Y-107715468D01*
X245964129Y-109292436D01*
X246787893Y-110898696D01*
X247550668Y-112532336D01*
X248251099Y-114191444D01*
X248291535Y-114292792D01*
X248943432Y-116021609D01*
X249528500Y-117762305D01*
X249878796Y-118947008D01*
X250046872Y-119515443D01*
X250498682Y-121281584D01*
X250884063Y-123061292D01*
X251203148Y-124855128D01*
X251456070Y-126663655D01*
X251642964Y-128487433D01*
X251668135Y-128790949D01*
X251696748Y-129151544D01*
X251720901Y-129481052D01*
X251740958Y-129789373D01*
X251757286Y-130086405D01*
X251770251Y-130382050D01*
X251780218Y-130686206D01*
X251787552Y-131008774D01*
X251792620Y-131359652D01*
X251795788Y-131748741D01*
X251797420Y-132185941D01*
X251797882Y-132681150D01*
X251797635Y-133041289D01*
X251797616Y-133069613D01*
X251796290Y-133518257D01*
G37*
D13*
X194380000Y-73016750D03*
X194380000Y-75556750D03*
X194380000Y-78096750D03*
X194380000Y-80636750D03*
X194380000Y-83176750D03*
X194380000Y-85716750D03*
X194380000Y-88256750D03*
X194380000Y-90796750D03*
X194380000Y-93336750D03*
X194380000Y-95876750D03*
X194380000Y-98416750D03*
X194380000Y-100956750D03*
X209620000Y-100956750D03*
X209620000Y-98416750D03*
X209620000Y-95876750D03*
X209620000Y-93336750D03*
X209620000Y-90796750D03*
X209620000Y-88256750D03*
X209620000Y-85716750D03*
X209620000Y-83176750D03*
X209620000Y-80636750D03*
X209620000Y-78096750D03*
X209620000Y-75556750D03*
X209620000Y-73016750D03*
X196920000Y-95876750D03*
X199460000Y-95876750D03*
X202000000Y-95876750D03*
%LPC*%
D14*
X239548505Y-169618842D03*
X236701495Y-158993658D03*
D15*
X238125000Y-164306250D03*
D16*
X244393613Y-167802961D03*
D17*
X232426038Y-165833282D03*
X233160387Y-160460133D03*
D14*
X67412500Y-142875000D03*
D15*
X61912500Y-142875000D03*
D14*
X56412500Y-142875000D03*
D16*
X56912500Y-148025000D03*
D17*
X61912500Y-136975000D03*
X66912500Y-139075000D03*
D14*
X91225000Y-142875000D03*
D15*
X85725000Y-142875000D03*
D16*
X80725000Y-148025000D03*
D14*
X80225000Y-142875000D03*
D17*
X85725000Y-136975000D03*
X90725000Y-139075000D03*
D14*
X104037500Y-142875000D03*
X115037500Y-142875000D03*
D16*
X104537500Y-148025000D03*
D15*
X109537500Y-142875000D03*
D17*
X109537500Y-136975000D03*
X114537500Y-139075000D03*
D14*
X137375000Y-142875000D03*
D15*
X142875000Y-142875000D03*
D14*
X148375000Y-142875000D03*
D16*
X137875000Y-148025000D03*
D17*
X142875000Y-136975000D03*
X147875000Y-139075000D03*
D14*
X168111005Y-158993658D03*
D15*
X166687500Y-164306250D03*
D14*
X165263995Y-169618842D03*
D16*
X163007077Y-158143703D03*
D17*
X172386462Y-165833282D03*
X169063923Y-170119392D03*
D14*
X187161005Y-163756158D03*
D16*
X189417923Y-175231297D03*
D14*
X184313995Y-174381342D03*
D15*
X185737500Y-169068750D03*
D17*
X180038538Y-167541718D03*
X183361077Y-163255608D03*
D14*
X217651495Y-163756158D03*
D16*
X212806387Y-165572039D03*
D14*
X220498505Y-174381342D03*
D15*
X219075000Y-169068750D03*
D17*
X224773962Y-167541718D03*
X224039613Y-172914867D03*
D14*
X267437500Y-142875000D03*
X256437500Y-142875000D03*
D16*
X256937500Y-148025000D03*
D15*
X261937500Y-142875000D03*
D17*
X261937500Y-136975000D03*
X266937500Y-139075000D03*
D14*
X280250000Y-142875000D03*
X291250000Y-142875000D03*
D16*
X280750000Y-148025000D03*
D15*
X285750000Y-142875000D03*
D17*
X285750000Y-136975000D03*
X290750000Y-139075000D03*
D16*
X304562500Y-148025000D03*
D15*
X309562500Y-142875000D03*
D14*
X304062500Y-142875000D03*
X315062500Y-142875000D03*
D17*
X309562500Y-136975000D03*
X314562500Y-139075000D03*
D15*
X340518750Y-142875000D03*
D14*
X335018750Y-142875000D03*
X346018750Y-142875000D03*
D16*
X335518750Y-148025000D03*
D17*
X340518750Y-136975000D03*
X345518750Y-139075000D03*
D14*
X354068750Y-142875000D03*
X365068750Y-142875000D03*
D15*
X359568750Y-142875000D03*
D16*
X354568750Y-148025000D03*
D17*
X359568750Y-136975000D03*
X364568750Y-139075000D03*
D15*
X378618750Y-142875000D03*
D14*
X384118750Y-142875000D03*
D16*
X373618750Y-148025000D03*
D14*
X373118750Y-142875000D03*
D17*
X378618750Y-136975000D03*
X383618750Y-139075000D03*
D14*
X87368750Y-123825000D03*
D16*
X87868750Y-128975000D03*
D15*
X92868750Y-123825000D03*
D14*
X98368750Y-123825000D03*
D17*
X92868750Y-117925000D03*
X97868750Y-120025000D03*
D15*
X111918750Y-123825000D03*
D14*
X106418750Y-123825000D03*
D16*
X106918750Y-128975000D03*
D14*
X117418750Y-123825000D03*
D17*
X111918750Y-117925000D03*
X116918750Y-120025000D03*
D14*
X136468750Y-123825000D03*
X125468750Y-123825000D03*
D16*
X125968750Y-128975000D03*
D15*
X130968750Y-123825000D03*
D17*
X130968750Y-117925000D03*
X135968750Y-120025000D03*
D14*
X144518750Y-123825000D03*
D15*
X150018750Y-123825000D03*
D16*
X145018750Y-128975000D03*
D14*
X155518750Y-123825000D03*
D17*
X150018750Y-117925000D03*
X155018750Y-120025000D03*
D16*
X164068750Y-128975000D03*
D14*
X174568750Y-123825000D03*
X163568750Y-123825000D03*
D15*
X169068750Y-123825000D03*
D17*
X169068750Y-117925000D03*
X174068750Y-120025000D03*
D15*
X235743750Y-123825000D03*
D16*
X230743750Y-128975000D03*
D14*
X241243750Y-123825000D03*
X230243750Y-123825000D03*
D17*
X235743750Y-117925000D03*
X240743750Y-120025000D03*
D14*
X249293750Y-123825000D03*
D15*
X254793750Y-123825000D03*
D14*
X260293750Y-123825000D03*
D16*
X249793750Y-128975000D03*
D17*
X254793750Y-117925000D03*
X259793750Y-120025000D03*
D16*
X268843750Y-128975000D03*
D14*
X279343750Y-123825000D03*
D15*
X273843750Y-123825000D03*
D14*
X268343750Y-123825000D03*
D17*
X273843750Y-117925000D03*
X278843750Y-120025000D03*
D15*
X292893750Y-123825000D03*
D16*
X287893750Y-128975000D03*
D14*
X287393750Y-123825000D03*
X298393750Y-123825000D03*
D17*
X292893750Y-117925000D03*
X297893750Y-120025000D03*
D15*
X311943750Y-123825000D03*
D16*
X306943750Y-128975000D03*
D14*
X317443750Y-123825000D03*
X306443750Y-123825000D03*
D17*
X311943750Y-117925000D03*
X316943750Y-120025000D03*
D14*
X354068750Y-123825000D03*
X365068750Y-123825000D03*
D15*
X359568750Y-123825000D03*
D16*
X354568750Y-128975000D03*
D17*
X359568750Y-117925000D03*
X364568750Y-120025000D03*
D14*
X41218750Y-104775000D03*
X30218750Y-104775000D03*
D15*
X35718750Y-104775000D03*
D16*
X30718750Y-109925000D03*
D17*
X35718750Y-98875000D03*
X40718750Y-100975000D03*
D16*
X61675000Y-109925000D03*
D14*
X72175000Y-104775000D03*
X61175000Y-104775000D03*
D15*
X66675000Y-104775000D03*
D17*
X66675000Y-98875000D03*
X71675000Y-100975000D03*
D14*
X87368750Y-104775000D03*
D16*
X87868750Y-109925000D03*
D15*
X92868750Y-104775000D03*
D14*
X98368750Y-104775000D03*
D17*
X92868750Y-98875000D03*
X97868750Y-100975000D03*
D16*
X106918750Y-109925000D03*
D14*
X117418750Y-104775000D03*
D15*
X111918750Y-104775000D03*
D14*
X106418750Y-104775000D03*
D17*
X111918750Y-98875000D03*
X116918750Y-100975000D03*
D16*
X125968750Y-109925000D03*
D14*
X125468750Y-104775000D03*
X136468750Y-104775000D03*
D15*
X130968750Y-104775000D03*
D17*
X130968750Y-98875000D03*
X135968750Y-100975000D03*
D14*
X155518750Y-104775000D03*
D16*
X145018750Y-109925000D03*
D14*
X144518750Y-104775000D03*
D15*
X150018750Y-104775000D03*
D17*
X150018750Y-98875000D03*
X155018750Y-100975000D03*
D15*
X169068750Y-104775000D03*
D14*
X163568750Y-104775000D03*
D16*
X164068750Y-109925000D03*
D14*
X174568750Y-104775000D03*
D17*
X169068750Y-98875000D03*
X174068750Y-100975000D03*
D14*
X230243750Y-104775000D03*
X241243750Y-104775000D03*
D16*
X230743750Y-109925000D03*
D15*
X235743750Y-104775000D03*
D17*
X235743750Y-98875000D03*
X240743750Y-100975000D03*
D16*
X249793750Y-109925000D03*
D14*
X249293750Y-104775000D03*
X260293750Y-104775000D03*
D15*
X254793750Y-104775000D03*
D17*
X254793750Y-98875000D03*
X259793750Y-100975000D03*
D15*
X273843750Y-104775000D03*
D14*
X268343750Y-104775000D03*
D16*
X268843750Y-109925000D03*
D14*
X279343750Y-104775000D03*
D17*
X273843750Y-98875000D03*
X278843750Y-100975000D03*
D14*
X298393750Y-104775000D03*
D15*
X292893750Y-104775000D03*
D16*
X287893750Y-109925000D03*
D14*
X287393750Y-104775000D03*
D17*
X292893750Y-98875000D03*
X297893750Y-100975000D03*
D16*
X306943750Y-109925000D03*
D14*
X317443750Y-104775000D03*
X306443750Y-104775000D03*
D15*
X311943750Y-104775000D03*
D17*
X311943750Y-98875000D03*
X316943750Y-100975000D03*
D16*
X325993750Y-109925000D03*
D14*
X325493750Y-104775000D03*
D15*
X330993750Y-104775000D03*
D14*
X336493750Y-104775000D03*
D17*
X330993750Y-98875000D03*
X335993750Y-100975000D03*
D14*
X356450000Y-104775000D03*
D16*
X356950000Y-109925000D03*
D15*
X361950000Y-104775000D03*
D14*
X367450000Y-104775000D03*
D17*
X361950000Y-98875000D03*
X366950000Y-100975000D03*
D14*
X34981250Y-85725000D03*
D16*
X35481250Y-90875000D03*
D15*
X40481250Y-85725000D03*
D14*
X45981250Y-85725000D03*
D17*
X40481250Y-79825000D03*
X45481250Y-81925000D03*
D14*
X74556250Y-85725000D03*
D15*
X69056250Y-85725000D03*
D14*
X63556250Y-85725000D03*
D16*
X64056250Y-90875000D03*
D17*
X69056250Y-79825000D03*
X74056250Y-81925000D03*
D14*
X98368750Y-85725000D03*
X87368750Y-85725000D03*
D16*
X87868750Y-90875000D03*
D15*
X92868750Y-85725000D03*
D17*
X92868750Y-79825000D03*
X97868750Y-81925000D03*
D14*
X117418750Y-85725000D03*
D16*
X106918750Y-90875000D03*
D14*
X106418750Y-85725000D03*
D15*
X111918750Y-85725000D03*
D17*
X111918750Y-79825000D03*
X116918750Y-81925000D03*
D16*
X125968750Y-90875000D03*
D14*
X136468750Y-85725000D03*
X125468750Y-85725000D03*
D15*
X130968750Y-85725000D03*
D17*
X130968750Y-79825000D03*
X135968750Y-81925000D03*
D14*
X155518750Y-85725000D03*
D16*
X145018750Y-90875000D03*
D14*
X144518750Y-85725000D03*
D15*
X150018750Y-85725000D03*
D17*
X150018750Y-79825000D03*
X155018750Y-81925000D03*
D14*
X163568750Y-85725000D03*
D16*
X164068750Y-90875000D03*
D15*
X169068750Y-85725000D03*
D14*
X174568750Y-85725000D03*
D17*
X169068750Y-79825000D03*
X174068750Y-81925000D03*
D16*
X230743750Y-90875000D03*
D14*
X230243750Y-85725000D03*
X241243750Y-85725000D03*
D15*
X235743750Y-85725000D03*
D17*
X235743750Y-79825000D03*
X240743750Y-81925000D03*
D15*
X254793750Y-85725000D03*
D14*
X260293750Y-85725000D03*
X249293750Y-85725000D03*
D16*
X249793750Y-90875000D03*
D17*
X254793750Y-79825000D03*
X259793750Y-81925000D03*
D14*
X268343750Y-85725000D03*
X279343750Y-85725000D03*
D16*
X268843750Y-90875000D03*
D15*
X273843750Y-85725000D03*
D17*
X273843750Y-79825000D03*
X278843750Y-81925000D03*
D16*
X287893750Y-90875000D03*
D15*
X292893750Y-85725000D03*
D14*
X287393750Y-85725000D03*
X298393750Y-85725000D03*
D17*
X292893750Y-79825000D03*
X297893750Y-81925000D03*
D15*
X311943750Y-85725000D03*
D14*
X317443750Y-85725000D03*
X306443750Y-85725000D03*
D16*
X306943750Y-90875000D03*
D17*
X311943750Y-79825000D03*
X316943750Y-81925000D03*
D14*
X341256250Y-85725000D03*
D15*
X335756250Y-85725000D03*
D16*
X330756250Y-90875000D03*
D14*
X330256250Y-85725000D03*
D17*
X335756250Y-79825000D03*
X340756250Y-81925000D03*
D14*
X354068750Y-85725000D03*
X365068750Y-85725000D03*
D15*
X359568750Y-85725000D03*
D16*
X354568750Y-90875000D03*
D17*
X359568750Y-79825000D03*
X364568750Y-81925000D03*
D14*
X373118750Y-85725000D03*
X384118750Y-85725000D03*
D16*
X373618750Y-90875000D03*
D15*
X378618750Y-85725000D03*
D17*
X378618750Y-79825000D03*
X383618750Y-81925000D03*
D14*
X50743750Y-66675000D03*
X39743750Y-66675000D03*
D15*
X45243750Y-66675000D03*
D16*
X40243750Y-71825000D03*
D17*
X45243750Y-60775000D03*
X50243750Y-62875000D03*
D14*
X74556250Y-66675000D03*
D15*
X69056250Y-66675000D03*
D14*
X63556250Y-66675000D03*
D16*
X64056250Y-71825000D03*
D17*
X69056250Y-60775000D03*
X74056250Y-62875000D03*
D15*
X92868750Y-66675000D03*
D14*
X87368750Y-66675000D03*
X98368750Y-66675000D03*
D16*
X87868750Y-71825000D03*
D17*
X92868750Y-60775000D03*
X97868750Y-62875000D03*
D14*
X117418750Y-66675000D03*
X106418750Y-66675000D03*
D15*
X111918750Y-66675000D03*
D16*
X106918750Y-71825000D03*
D17*
X111918750Y-60775000D03*
X116918750Y-62875000D03*
D14*
X125468750Y-66675000D03*
D16*
X125968750Y-71825000D03*
D15*
X130968750Y-66675000D03*
D14*
X136468750Y-66675000D03*
D17*
X130968750Y-60775000D03*
X135968750Y-62875000D03*
D14*
X155518750Y-66675000D03*
D15*
X150018750Y-66675000D03*
D14*
X144518750Y-66675000D03*
D16*
X145018750Y-71825000D03*
D17*
X150018750Y-60775000D03*
X155018750Y-62875000D03*
D16*
X164068750Y-71825000D03*
D14*
X174568750Y-66675000D03*
D15*
X169068750Y-66675000D03*
D14*
X163568750Y-66675000D03*
D17*
X169068750Y-60775000D03*
X174068750Y-62875000D03*
D14*
X230243750Y-66675000D03*
D16*
X230743750Y-71825000D03*
D15*
X235743750Y-66675000D03*
D14*
X241243750Y-66675000D03*
D17*
X235743750Y-60775000D03*
X240743750Y-62875000D03*
D14*
X260293750Y-66675000D03*
X249293750Y-66675000D03*
D16*
X249793750Y-71825000D03*
D15*
X254793750Y-66675000D03*
D17*
X254793750Y-60775000D03*
X259793750Y-62875000D03*
D16*
X268843750Y-71825000D03*
D15*
X273843750Y-66675000D03*
D14*
X279343750Y-66675000D03*
X268343750Y-66675000D03*
D17*
X273843750Y-60775000D03*
X278843750Y-62875000D03*
D14*
X298393750Y-66675000D03*
X287393750Y-66675000D03*
D15*
X292893750Y-66675000D03*
D16*
X287893750Y-71825000D03*
D17*
X292893750Y-60775000D03*
X297893750Y-62875000D03*
D14*
X317443750Y-66675000D03*
X306443750Y-66675000D03*
D16*
X306943750Y-71825000D03*
D15*
X311943750Y-66675000D03*
D17*
X311943750Y-60775000D03*
X316943750Y-62875000D03*
D14*
X336493750Y-66675000D03*
X325493750Y-66675000D03*
D15*
X330993750Y-66675000D03*
D16*
X325993750Y-71825000D03*
D17*
X330993750Y-60775000D03*
X335993750Y-62875000D03*
D15*
X350043750Y-66675000D03*
D14*
X344543750Y-66675000D03*
X355543750Y-66675000D03*
D16*
X345043750Y-71825000D03*
D17*
X350043750Y-60775000D03*
X355043750Y-62875000D03*
D15*
X369093750Y-66675000D03*
D16*
X364093750Y-71825000D03*
D14*
X363593750Y-66675000D03*
X374593750Y-66675000D03*
D17*
X369093750Y-60775000D03*
X374093750Y-62875000D03*
D16*
X56912500Y-128975000D03*
D15*
X61912500Y-123825000D03*
D14*
X67412500Y-123825000D03*
X56412500Y-123825000D03*
D17*
X61912500Y-117925000D03*
X66912500Y-120025000D03*
D18*
X180500000Y-62000000D03*
D19*
X198750000Y-105750000D03*
D20*
X205250000Y-105750000D03*
X198750000Y-110250000D03*
X205250000Y-110250000D03*
D18*
X274000000Y-147000000D03*
X185000000Y-142500000D03*
X384000000Y-128000000D03*
X385000000Y-62000000D03*
X163000000Y-183000000D03*
X185000000Y-117500000D03*
X31000000Y-62000000D03*
X220000000Y-117500000D03*
X242000000Y-183000000D03*
D13*
X194380000Y-73016750D03*
X194380000Y-75556750D03*
X194380000Y-78096750D03*
X194380000Y-80636750D03*
X194380000Y-83176750D03*
X194380000Y-85716750D03*
X194380000Y-88256750D03*
X194380000Y-90796750D03*
X194380000Y-93336750D03*
X194380000Y-95876750D03*
X194380000Y-98416750D03*
X194380000Y-100956750D03*
X209620000Y-100956750D03*
X209620000Y-98416750D03*
X209620000Y-95876750D03*
X209620000Y-93336750D03*
X209620000Y-90796750D03*
X209620000Y-88256750D03*
X209620000Y-85716750D03*
X209620000Y-83176750D03*
X209620000Y-80636750D03*
X209620000Y-78096750D03*
X209620000Y-75556750D03*
X209620000Y-73016750D03*
X196920000Y-95876750D03*
X199460000Y-95876750D03*
X202000000Y-95876750D03*
D18*
X31000000Y-147000000D03*
X220000000Y-142500000D03*
X126000000Y-147000000D03*
X224500000Y-62000000D03*
D21*
X237500000Y-177050000D03*
X237500000Y-174950000D03*
X70000000Y-150550000D03*
X70000000Y-148450000D03*
X94000000Y-150550000D03*
X94000000Y-148450000D03*
X118000000Y-150550000D03*
X118000000Y-148450000D03*
X151000000Y-150550000D03*
X151000000Y-148450000D03*
X162500000Y-175050000D03*
X162500000Y-172950000D03*
X180500000Y-178050000D03*
X180500000Y-175950000D03*
X226000000Y-179550000D03*
X226000000Y-177450000D03*
X270000000Y-150550000D03*
X270000000Y-148450000D03*
X294000000Y-150550000D03*
X294000000Y-148450000D03*
X317500000Y-150550000D03*
X317500000Y-148450000D03*
X348500000Y-150550000D03*
X348500000Y-148450000D03*
X367500000Y-150550000D03*
X367500000Y-148450000D03*
X386500000Y-150550000D03*
X386500000Y-148450000D03*
X70000000Y-131550000D03*
X70000000Y-129450000D03*
X101000000Y-131550000D03*
X101000000Y-129450000D03*
X120000000Y-131550000D03*
X120000000Y-129450000D03*
X139000000Y-131550000D03*
X139000000Y-129450000D03*
X158000000Y-131550000D03*
X158000000Y-129450000D03*
X177000000Y-131550000D03*
X177000000Y-129450000D03*
X243500000Y-131550000D03*
X243500000Y-129450000D03*
X263000000Y-131550000D03*
X263000000Y-129450000D03*
X282000000Y-131550000D03*
X282000000Y-129450000D03*
X301000000Y-131550000D03*
X301000000Y-129450000D03*
X320000000Y-131550000D03*
X320000000Y-129450000D03*
X367500000Y-131550000D03*
X367500000Y-129450000D03*
X44000000Y-112550000D03*
X44000000Y-110450000D03*
X75000000Y-112550000D03*
X75000000Y-110450000D03*
X101000000Y-112550000D03*
X101000000Y-110450000D03*
X120000000Y-112550000D03*
X120000000Y-110450000D03*
X139000000Y-112550000D03*
X139000000Y-110450000D03*
X158000000Y-112550000D03*
X158000000Y-110450000D03*
X177000000Y-112550000D03*
X177000000Y-110450000D03*
X244000000Y-112550000D03*
X244000000Y-110450000D03*
X262500000Y-112550000D03*
X262500000Y-110450000D03*
X281500000Y-112550000D03*
X281500000Y-110450000D03*
X301000000Y-112550000D03*
X301000000Y-110450000D03*
X320000000Y-112550000D03*
X320000000Y-110450000D03*
X339000000Y-112550000D03*
X339000000Y-110450000D03*
X370000000Y-112550000D03*
X370000000Y-110450000D03*
X49000000Y-93550000D03*
X49000000Y-91450000D03*
X77000000Y-93550000D03*
X77000000Y-91450000D03*
X101000000Y-93550000D03*
X101000000Y-91450000D03*
X120000000Y-93550000D03*
X120000000Y-91450000D03*
X139000000Y-93550000D03*
X139000000Y-91450000D03*
X158000000Y-93550000D03*
X158000000Y-91450000D03*
X176500000Y-93550000D03*
X176500000Y-91450000D03*
X244000000Y-93050000D03*
X244000000Y-90950000D03*
X263000000Y-93050000D03*
X263000000Y-90950000D03*
X282000000Y-93050000D03*
X282000000Y-90950000D03*
X301000000Y-93050000D03*
X301000000Y-90950000D03*
X320000000Y-93050000D03*
X320000000Y-90950000D03*
X344000000Y-93050000D03*
X344000000Y-90950000D03*
X367500000Y-93050000D03*
X367500000Y-90950000D03*
X386500000Y-93050000D03*
X386500000Y-90950000D03*
X53500000Y-74050000D03*
X53500000Y-71950000D03*
X77500000Y-74050000D03*
X77500000Y-71950000D03*
X101000000Y-74050000D03*
X101000000Y-71950000D03*
X120000000Y-74050000D03*
X120000000Y-71950000D03*
X139000000Y-74050000D03*
X139000000Y-71950000D03*
X158000000Y-74050000D03*
X158000000Y-71950000D03*
X177000000Y-74050000D03*
X177000000Y-71950000D03*
X244000000Y-74050000D03*
X244000000Y-71950000D03*
X263000000Y-74050000D03*
X263000000Y-71950000D03*
X282000000Y-74050000D03*
X282000000Y-71950000D03*
X301000000Y-74050000D03*
X301000000Y-71950000D03*
X320000000Y-74050000D03*
X320000000Y-71950000D03*
X339000000Y-74050000D03*
X339000000Y-71950000D03*
X358000000Y-74050000D03*
X358000000Y-71950000D03*
X377000000Y-74050000D03*
X377000000Y-71950000D03*
M02*
