M48
; DRILL file {KiCad (6.0.10)} date Sat Feb 11 23:58:19 2023
; FORMAT={-:-/ absolute / metric / decimal}
; #@! TF.CreationDate,2023-02-11T23:58:19+13:00
; #@! TF.GenerationSoftware,Kicad,Pcbnew,(6.0.10)
; #@! TF.FileFunction,Plated,1,2,PTH
FMAT,2
METRIC
; #@! TA.AperFunction,Plated,PTH,ViaDrill
T1C0.200
; #@! TA.AperFunction,Plated,PTH,ViaDrill
T2C0.400
; #@! TA.AperFunction,Plated,PTH,ComponentDrill
T3C0.650
; #@! TA.AperFunction,Plated,PTH,ComponentDrill
T4C1.100
; #@! TA.AperFunction,Plated,PTH,ComponentDrill
T5C1.200
; #@! TA.AperFunction,Plated,PTH,ComponentDrill
T6C1.600
; #@! TA.AperFunction,Plated,PTH,ComponentDrill
T7C2.800
%
G90
G05
T1
X197.6Y-91.8
X199.5Y-77.9
X199.7Y-97.5
X199.8Y-91.8
X200.4Y-121.0
X200.9Y-76.1
X201.0Y-139.6
X201.639Y-74.143
X201.9Y-75.5
X202.2Y-98.8
X202.4Y-127.4
X202.6Y-74.2
X202.8Y-101.6
X202.8Y-132.4
X202.9Y-75.7
X203.4Y-76.2
X203.7Y-82.1
X203.8Y-88.6
X203.8Y-101.6
X204.4Y-103.6
X204.5Y-76.7
X204.8Y-105.8
X206.4Y-100.0
X207.4Y-89.0
X208.6Y-90.4
X209.0Y-96.2
X209.2Y-77.3
X213.2Y-95.4
X214.2Y-93.2
X214.2Y-94.6
X225.0Y-84.4
X225.5Y-85.7
X232.2Y-101.2
T2
X163.8Y-113.1
X168.1Y-113.1
X197.4Y-96.4
X197.7Y-97.5
T4
X190.15Y-107.15
X190.15Y-111.65
X196.65Y-107.15
X196.65Y-111.65
X206.75Y-107.15
X206.75Y-111.65
X213.25Y-107.15
X213.25Y-111.65
T5
X35.719Y-98.875
X40.481Y-79.825
X40.719Y-100.975
X45.244Y-60.775
X45.481Y-81.925
X50.244Y-62.875
X61.912Y-117.925
X61.912Y-136.975
X66.675Y-98.875
X66.912Y-120.025
X66.912Y-139.075
X69.056Y-60.775
X69.056Y-79.825
X71.675Y-100.975
X74.056Y-62.875
X74.056Y-81.925
X85.725Y-136.975
X90.725Y-139.075
X92.869Y-60.775
X92.869Y-79.825
X92.869Y-98.875
X92.869Y-117.925
X97.869Y-62.875
X97.869Y-81.925
X97.869Y-100.975
X97.869Y-120.025
X109.537Y-136.975
X111.919Y-60.775
X111.919Y-79.825
X111.919Y-98.875
X111.919Y-117.925
X114.537Y-139.075
X116.919Y-62.875
X116.919Y-81.925
X116.919Y-100.975
X116.919Y-120.025
X130.969Y-60.775
X130.969Y-79.825
X130.969Y-98.875
X130.969Y-117.925
X135.969Y-62.875
X135.969Y-81.925
X135.969Y-100.975
X135.969Y-120.025
X142.875Y-136.975
X147.875Y-139.075
X150.019Y-60.775
X150.019Y-79.825
X150.019Y-98.875
X150.019Y-117.925
X155.019Y-62.875
X155.019Y-81.925
X155.019Y-100.975
X155.019Y-120.025
X169.064Y-170.119
X169.069Y-60.775
X169.069Y-79.825
X169.069Y-98.875
X169.069Y-117.925
X172.386Y-165.833
X174.069Y-62.875
X174.069Y-81.925
X174.069Y-100.975
X174.069Y-120.025
X180.039Y-167.542
X183.361Y-163.256
X224.04Y-172.915
X224.774Y-167.542
X232.426Y-165.833
X233.16Y-160.46
X235.744Y-60.775
X235.744Y-79.825
X235.744Y-98.875
X235.744Y-117.925
X240.744Y-62.875
X240.744Y-81.925
X240.744Y-100.975
X240.744Y-120.025
X254.794Y-60.775
X254.794Y-79.825
X254.794Y-98.875
X254.794Y-117.925
X259.794Y-62.875
X259.794Y-81.925
X259.794Y-100.975
X259.794Y-120.025
X261.938Y-136.975
X266.938Y-139.075
X273.844Y-60.775
X273.844Y-79.825
X273.844Y-98.875
X273.844Y-117.925
X278.844Y-62.875
X278.844Y-81.925
X278.844Y-100.975
X278.844Y-120.025
X285.75Y-136.975
X290.75Y-139.075
X292.894Y-60.775
X292.894Y-79.825
X292.894Y-98.875
X292.894Y-117.925
X297.894Y-62.875
X297.894Y-81.925
X297.894Y-100.975
X297.894Y-120.025
X309.562Y-136.975
X311.944Y-60.775
X311.944Y-79.825
X311.944Y-98.875
X311.944Y-117.925
X314.562Y-139.075
X316.944Y-62.875
X316.944Y-81.925
X316.944Y-100.975
X316.944Y-120.025
X330.994Y-60.775
X330.994Y-98.875
X335.756Y-79.825
X335.994Y-62.875
X335.994Y-100.975
X340.519Y-136.975
X340.756Y-81.925
X345.519Y-139.075
X350.044Y-60.775
X355.044Y-62.875
X359.569Y-79.825
X359.569Y-117.925
X359.569Y-136.975
X361.95Y-98.875
X364.569Y-81.925
X364.569Y-120.025
X364.569Y-139.075
X366.95Y-100.975
X369.094Y-60.775
X374.094Y-62.875
X378.619Y-79.825
X378.619Y-136.975
X383.619Y-81.925
X383.619Y-139.075
T6
X30.719Y-109.925
X35.481Y-90.875
X40.244Y-71.825
X56.912Y-128.975
X56.912Y-148.025
X61.675Y-109.925
X64.056Y-71.825
X64.056Y-90.875
X80.725Y-148.025
X87.869Y-71.825
X87.869Y-90.875
X87.869Y-109.925
X87.869Y-128.975
X104.537Y-148.025
X106.919Y-71.825
X106.919Y-90.875
X106.919Y-109.925
X106.919Y-128.975
X125.969Y-71.825
X125.969Y-90.875
X125.969Y-109.925
X125.969Y-128.975
X137.875Y-148.025
X145.019Y-71.825
X145.019Y-90.875
X145.019Y-109.925
X145.019Y-128.975
X163.007Y-158.144
X164.069Y-71.825
X164.069Y-90.875
X164.069Y-109.925
X164.069Y-128.975
X189.418Y-175.231
X212.806Y-165.572
X230.744Y-71.825
X230.744Y-90.875
X230.744Y-109.925
X230.744Y-128.975
X244.394Y-167.803
X249.794Y-71.825
X249.794Y-90.875
X249.794Y-109.925
X249.794Y-128.975
X256.938Y-148.025
X268.844Y-71.825
X268.844Y-90.875
X268.844Y-109.925
X268.844Y-128.975
X280.75Y-148.025
X287.894Y-71.825
X287.894Y-90.875
X287.894Y-109.925
X287.894Y-128.975
X304.562Y-148.025
X306.944Y-71.825
X306.944Y-90.875
X306.944Y-109.925
X306.944Y-128.975
X325.994Y-71.825
X325.994Y-109.925
X330.756Y-90.875
X335.519Y-148.025
X345.044Y-71.825
X354.569Y-90.875
X354.569Y-128.975
X354.569Y-148.025
X356.95Y-109.925
X364.094Y-71.825
X373.619Y-90.875
X373.619Y-148.025
T7
X31.0Y-62.0
X31.0Y-62.0
X31.0Y-147.0
X31.0Y-147.0
X126.0Y-147.0
X126.0Y-147.0
X163.0Y-183.0
X163.0Y-183.0
X180.5Y-62.0
X180.5Y-62.0
X184.9Y-134.8
X184.9Y-134.8
X185.0Y-73.4
X185.0Y-73.4
X220.0Y-73.4
X220.0Y-73.4
X220.1Y-134.8
X220.1Y-134.8
X224.5Y-62.0
X224.5Y-62.0
X242.0Y-183.0
X242.0Y-183.0
X274.0Y-147.0
X274.0Y-147.0
X384.0Y-128.0
X384.0Y-128.0
X385.0Y-62.0
X385.0Y-62.0
T3
X198.08Y-69.875G85X198.08Y-68.35
G05
X198.08Y-75.01G85X198.08Y-73.935
G05
X206.72Y-69.875G85X206.72Y-68.35
G05
X206.72Y-74.998G85X206.72Y-73.947
G05
T0
M30
