M48
; DRILL file {KiCad 5.1.6-c6e7f7d~87~ubuntu18.04.1} date Wed Sep  2 09:28:47 2020
; FORMAT={-:-/ absolute / metric / decimal}
; #@! TF.CreationDate,2020-09-02T09:28:47+12:00
; #@! TF.GenerationSoftware,Kicad,Pcbnew,5.1.6-c6e7f7d~87~ubuntu18.04.1
; #@! TF.FileFunction,NonPlated,1,2,NPTH
FMAT,2
METRIC
T1C1.702
T2C3.048
T3C3.988
%
G90
G05
T1
X61.595Y-104.775
X71.755Y-104.775
X184.423Y-173.976
X187.052Y-164.162
X280.67Y-142.875
X290.83Y-142.875
X356.87Y-104.775
X367.03Y-104.775
X306.864Y-104.775
X317.024Y-104.775
X104.457Y-142.875
X114.617Y-142.875
X268.764Y-104.775
X278.924Y-104.775
X63.976Y-85.725
X74.136Y-85.725
X125.889Y-123.825
X136.049Y-123.825
X163.989Y-85.725
X174.149Y-85.725
X236.81Y-159.399
X239.44Y-169.213
X287.814Y-85.725
X297.974Y-85.725
X137.795Y-142.875
X147.955Y-142.875
X256.858Y-142.875
X267.017Y-142.875
X373.539Y-85.725
X383.699Y-85.725
X354.489Y-123.825
X364.649Y-123.825
X35.401Y-85.725
X45.561Y-85.725
X163.989Y-123.825
X174.149Y-123.825
X335.439Y-142.875
X345.599Y-142.875
X80.645Y-142.875
X90.805Y-142.875
X87.789Y-104.775
X97.949Y-104.775
X56.832Y-123.825
X66.992Y-123.825
X304.482Y-142.875
X314.642Y-142.875
X106.839Y-104.775
X116.999Y-104.775
X325.914Y-66.675
X336.074Y-66.675
X249.714Y-66.675
X259.874Y-66.675
X344.964Y-66.675
X355.124Y-66.675
X87.789Y-85.725
X97.949Y-85.725
X230.664Y-85.725
X240.824Y-85.725
X230.664Y-66.675
X240.824Y-66.675
X144.939Y-123.825
X155.099Y-123.825
X163.989Y-66.675
X174.149Y-66.675
X287.814Y-104.775
X297.974Y-104.775
X106.839Y-66.675
X116.999Y-66.675
X30.639Y-104.775
X40.799Y-104.775
X306.864Y-85.725
X317.024Y-85.725
X40.164Y-66.675
X50.324Y-66.675
X106.839Y-123.825
X116.999Y-123.825
X249.714Y-104.775
X259.874Y-104.775
X268.764Y-66.675
X278.924Y-66.675
X87.789Y-123.825
X97.949Y-123.825
X230.664Y-104.775
X240.824Y-104.775
X287.814Y-66.675
X297.974Y-66.675
X63.976Y-66.675
X74.136Y-66.675
X144.939Y-104.775
X155.099Y-104.775
X287.814Y-123.825
X297.974Y-123.825
X354.489Y-142.875
X364.649Y-142.875
X330.676Y-85.725
X340.836Y-85.725
X144.939Y-66.675
X155.099Y-66.675
X306.864Y-66.675
X317.024Y-66.675
X249.714Y-123.825
X259.874Y-123.825
X268.764Y-85.725
X278.924Y-85.725
X268.764Y-123.825
X278.924Y-123.825
X106.839Y-85.725
X116.999Y-85.725
X306.864Y-123.825
X317.024Y-123.825
X125.889Y-66.675
X136.049Y-66.675
X125.889Y-104.775
X136.049Y-104.775
X249.714Y-85.725
X259.874Y-85.725
X56.832Y-142.875
X66.992Y-142.875
X325.914Y-104.775
X336.074Y-104.775
X217.76Y-164.162
X220.39Y-173.976
X163.989Y-104.775
X174.149Y-104.775
X373.539Y-142.875
X383.699Y-142.875
X354.489Y-85.725
X364.649Y-85.725
X87.789Y-66.675
X97.949Y-66.675
X125.889Y-85.725
X136.049Y-85.725
X144.939Y-85.725
X155.099Y-85.725
X165.373Y-169.213
X168.002Y-159.399
X364.014Y-66.675
X374.174Y-66.675
X230.664Y-123.825
X240.824Y-123.825
T2
X222.732Y-155.73
X228.912Y-178.792
X156.851Y-174.03
X163.03Y-150.967
X175.901Y-178.792
X182.08Y-155.73
X350.012Y-97.79
X373.888Y-97.79
X241.782Y-150.967
X247.962Y-174.03
X49.974Y-116.84
X73.85Y-116.84
T3
X169.069Y-104.775
X378.619Y-142.875
X359.569Y-85.725
X92.869Y-66.675
X130.969Y-85.725
X150.019Y-85.725
X166.688Y-164.306
X171.571Y-177.974
X177.751Y-154.912
X369.094Y-66.675
X235.744Y-123.825
X66.675Y-104.775
X185.737Y-169.069
X190.621Y-182.737
X196.801Y-159.674
X285.75Y-142.875
X350.012Y-113.03
X361.95Y-104.775
X373.888Y-113.03
X311.944Y-104.775
X109.537Y-142.875
X273.844Y-104.775
X69.056Y-85.725
X130.969Y-123.825
X169.069Y-85.725
X227.062Y-154.912
X233.241Y-177.974
X238.125Y-164.306
X292.894Y-85.725
X142.875Y-142.875
X261.938Y-142.875
X378.619Y-85.725
X359.569Y-123.825
X40.481Y-85.725
X169.069Y-123.825
X340.519Y-142.875
X85.725Y-142.875
X92.869Y-104.775
X49.974Y-132.08
X61.912Y-123.825
X73.85Y-132.08
X309.562Y-142.875
X111.919Y-104.775
X330.994Y-66.675
X254.794Y-66.675
X350.044Y-66.675
X92.869Y-85.725
X235.744Y-85.725
X235.744Y-66.675
X150.019Y-123.825
X169.069Y-66.675
X292.894Y-104.775
X111.919Y-66.675
X35.719Y-104.775
X311.944Y-85.725
X45.244Y-66.675
X111.919Y-123.825
X254.794Y-104.775
X273.844Y-66.675
X92.869Y-123.825
X235.744Y-104.775
X292.894Y-66.675
X69.056Y-66.675
X150.019Y-104.775
X292.894Y-123.825
X359.569Y-142.875
X335.756Y-85.725
X150.019Y-66.675
X311.944Y-66.675
X254.794Y-123.825
X273.844Y-85.725
X273.844Y-123.825
X111.919Y-85.725
X311.944Y-123.825
X130.969Y-66.675
X130.969Y-104.775
X254.794Y-85.725
X61.912Y-142.875
X330.994Y-104.775
X208.012Y-159.674
X214.191Y-182.737
X219.075Y-169.069
T0
M30
