M48
INCH
T1C0.0670
T2C0.1200
T3C0.1570
%
G90
G05
T1
X1.2063Y-4.125
X1.3938Y-3.375
X1.5813Y-2.625
X1.6062Y-4.125
X1.7937Y-3.375
X1.9812Y-2.625
X2.2375Y-4.875
X2.2375Y-5.625
X2.425Y-4.125
X2.5187Y-2.625
X2.5187Y-3.375
X2.6375Y-4.875
X2.6375Y-5.625
X2.825Y-4.125
X2.9187Y-2.625
X2.9187Y-3.375
X3.175Y-5.625
X3.4562Y-2.625
X3.4562Y-3.375
X3.4562Y-4.125
X3.4562Y-4.875
X3.575Y-5.625
X3.8562Y-2.625
X3.8562Y-3.375
X3.8562Y-4.125
X3.8562Y-4.875
X4.1125Y-5.625
X4.2062Y-2.625
X4.2062Y-3.375
X4.2062Y-4.125
X4.2062Y-4.875
X4.5125Y-5.625
X4.6063Y-2.625
X4.6063Y-3.375
X4.6063Y-4.125
X4.6063Y-4.875
X4.9562Y-2.625
X4.9562Y-3.375
X4.9562Y-4.125
X4.9562Y-4.875
X5.3563Y-2.625
X5.3563Y-3.375
X5.3563Y-4.125
X5.3563Y-4.875
X5.425Y-5.625
X5.7062Y-2.625
X5.7062Y-3.375
X5.7062Y-4.125
X5.7062Y-4.875
X5.825Y-5.625
X6.1063Y-2.625
X6.1063Y-3.375
X6.1063Y-4.125
X6.1063Y-4.875
X6.4562Y-2.625
X6.4562Y-3.375
X6.4562Y-4.125
X6.4562Y-4.875
X6.5107Y-6.6619
X6.6143Y-6.2756
X6.8563Y-2.625
X6.8563Y-3.375
X6.8563Y-4.125
X6.8563Y-4.875
X7.2607Y-6.8494
X7.3643Y-6.4631
X8.5732Y-6.4631
X8.6768Y-6.8494
X9.0812Y-2.625
X9.0812Y-3.375
X9.0812Y-4.125
X9.0812Y-4.875
X9.3232Y-6.2756
X9.4268Y-6.6619
X9.4812Y-2.625
X9.4812Y-3.375
X9.4812Y-4.125
X9.4812Y-4.875
X9.8312Y-2.625
X9.8312Y-3.375
X9.8312Y-4.125
X9.8312Y-4.875
X10.1125Y-5.625
X10.2312Y-2.625
X10.2312Y-3.375
X10.2312Y-4.125
X10.2312Y-4.875
X10.5125Y-5.625
X10.5812Y-2.625
X10.5812Y-3.375
X10.5812Y-4.125
X10.5812Y-4.875
X10.9812Y-2.625
X10.9812Y-3.375
X10.9812Y-4.125
X10.9812Y-4.875
X11.05Y-5.625
X11.3312Y-2.625
X11.3312Y-3.375
X11.3312Y-4.125
X11.3312Y-4.875
X11.45Y-5.625
X11.7312Y-2.625
X11.7312Y-3.375
X11.7312Y-4.125
X11.7312Y-4.875
X11.9875Y-5.625
X12.0812Y-2.625
X12.0812Y-3.375
X12.0812Y-4.125
X12.0812Y-4.875
X12.3875Y-5.625
X12.4812Y-2.625
X12.4812Y-3.375
X12.4812Y-4.125
X12.4812Y-4.875
X12.8312Y-2.625
X12.8312Y-4.125
X13.0187Y-3.375
X13.2062Y-5.625
X13.2312Y-2.625
X13.2312Y-4.125
X13.4187Y-3.375
X13.5812Y-2.625
X13.6062Y-5.625
X13.9562Y-3.375
X13.9562Y-4.875
X13.9562Y-5.625
X13.9812Y-2.625
X14.05Y-4.125
X14.3312Y-2.625
X14.3562Y-3.375
X14.3562Y-4.875
X14.3562Y-5.625
X14.45Y-4.125
X14.7062Y-3.375
X14.7062Y-5.625
X14.7312Y-2.625
X15.1062Y-3.375
X15.1062Y-5.625
T2
X1.9675Y-4.6
X2.9075Y-4.6
X6.7065Y-6.9939
X6.9252Y-7.0391
X6.9498Y-6.0859
X7.1685Y-6.1311
X8.769Y-6.1311
X8.9877Y-6.0859
X9.0123Y-7.0391
X9.231Y-6.9939
X13.78Y-3.85
X14.72Y-3.85
T3
X1.4062Y-4.125
X1.5938Y-3.375
X1.7812Y-2.625
X1.9675Y-5.2
X2.4375Y-4.875
X2.4375Y-5.625
X2.625Y-4.125
X2.7188Y-2.625
X2.7188Y-3.375
X2.9075Y-5.2
X3.375Y-5.625
X3.6562Y-2.625
X3.6562Y-3.375
X3.6562Y-4.125
X3.6562Y-4.875
X4.3125Y-5.625
X4.4062Y-2.625
X4.4062Y-3.375
X4.4062Y-4.125
X4.4062Y-4.875
X5.1562Y-2.625
X5.1562Y-3.375
X5.1562Y-4.125
X5.1562Y-4.875
X5.625Y-5.625
X5.9062Y-2.625
X5.9062Y-3.375
X5.9062Y-4.125
X5.9062Y-4.875
X6.1269Y-6.8386
X6.3702Y-5.9306
X6.5625Y-6.4688
X6.6562Y-2.625
X6.6562Y-3.375
X6.6562Y-4.125
X6.6562Y-4.875
X7.3125Y-6.6562
X7.5048Y-7.1944
X7.7481Y-6.2864
X8.1894Y-6.2864
X8.4327Y-7.1944
X8.625Y-6.6562
X9.2812Y-2.625
X9.2812Y-3.375
X9.2812Y-4.125
X9.2812Y-4.875
X9.375Y-6.4688
X9.5673Y-5.9306
X9.8106Y-6.8386
X10.0312Y-2.625
X10.0312Y-3.375
X10.0312Y-4.125
X10.0312Y-4.875
X10.3125Y-5.625
X10.7812Y-2.625
X10.7812Y-3.375
X10.7812Y-4.125
X10.7812Y-4.875
X11.25Y-5.625
X11.5312Y-2.625
X11.5312Y-3.375
X11.5312Y-4.125
X11.5312Y-4.875
X12.1875Y-5.625
X12.2812Y-2.625
X12.2812Y-3.375
X12.2812Y-4.125
X12.2812Y-4.875
X13.0312Y-2.625
X13.0312Y-4.125
X13.2188Y-3.375
X13.4062Y-5.625
X13.78Y-4.45
X13.7812Y-2.625
X14.1562Y-3.375
X14.1562Y-4.875
X14.1562Y-5.625
X14.25Y-4.125
X14.5312Y-2.625
X14.72Y-4.45
X14.9062Y-3.375
X14.9062Y-5.625
T0
M30
