G04 #@! TF.GenerationSoftware,KiCad,Pcbnew,(6.0.10)*
G04 #@! TF.CreationDate,2023-07-04T23:09:34+12:00*
G04 #@! TF.ProjectId,orthoCode,6f727468-6f43-46f6-9465-2e6b69636164,rev?*
G04 #@! TF.SameCoordinates,Original*
G04 #@! TF.FileFunction,Paste,Bot*
G04 #@! TF.FilePolarity,Positive*
%FSLAX46Y46*%
G04 Gerber Fmt 4.6, Leading zero omitted, Abs format (unit mm)*
G04 Created by KiCad (PCBNEW (6.0.10)) date 2023-07-04 23:09:34*
%MOMM*%
%LPD*%
G01*
G04 APERTURE LIST*
%ADD10R,0.450000X0.600000*%
G04 APERTURE END LIST*
D10*
X237500000Y-177050000D03*
X237500000Y-174950000D03*
X70000000Y-150550000D03*
X70000000Y-148450000D03*
X94000000Y-150550000D03*
X94000000Y-148450000D03*
X118000000Y-150550000D03*
X118000000Y-148450000D03*
X151000000Y-150550000D03*
X151000000Y-148450000D03*
X162500000Y-175050000D03*
X162500000Y-172950000D03*
X180500000Y-178050000D03*
X180500000Y-175950000D03*
X226000000Y-179550000D03*
X226000000Y-177450000D03*
X270000000Y-150550000D03*
X270000000Y-148450000D03*
X294000000Y-150550000D03*
X294000000Y-148450000D03*
X317500000Y-150550000D03*
X317500000Y-148450000D03*
X348500000Y-150550000D03*
X348500000Y-148450000D03*
X367500000Y-150550000D03*
X367500000Y-148450000D03*
X386500000Y-150550000D03*
X386500000Y-148450000D03*
X70000000Y-131550000D03*
X70000000Y-129450000D03*
X101000000Y-131550000D03*
X101000000Y-129450000D03*
X120000000Y-131550000D03*
X120000000Y-129450000D03*
X139000000Y-131550000D03*
X139000000Y-129450000D03*
X158000000Y-131550000D03*
X158000000Y-129450000D03*
X177000000Y-131550000D03*
X177000000Y-129450000D03*
X243500000Y-131550000D03*
X243500000Y-129450000D03*
X263000000Y-131550000D03*
X263000000Y-129450000D03*
X282000000Y-131550000D03*
X282000000Y-129450000D03*
X301000000Y-131550000D03*
X301000000Y-129450000D03*
X320000000Y-131550000D03*
X320000000Y-129450000D03*
X367500000Y-131550000D03*
X367500000Y-129450000D03*
X44000000Y-112550000D03*
X44000000Y-110450000D03*
X75000000Y-112550000D03*
X75000000Y-110450000D03*
X101000000Y-112550000D03*
X101000000Y-110450000D03*
X120000000Y-112550000D03*
X120000000Y-110450000D03*
X139000000Y-112550000D03*
X139000000Y-110450000D03*
X158000000Y-112550000D03*
X158000000Y-110450000D03*
X177000000Y-112550000D03*
X177000000Y-110450000D03*
X244000000Y-112550000D03*
X244000000Y-110450000D03*
X262500000Y-112550000D03*
X262500000Y-110450000D03*
X281500000Y-112550000D03*
X281500000Y-110450000D03*
X301000000Y-112550000D03*
X301000000Y-110450000D03*
X320000000Y-112550000D03*
X320000000Y-110450000D03*
X339000000Y-112550000D03*
X339000000Y-110450000D03*
X370000000Y-112550000D03*
X370000000Y-110450000D03*
X49000000Y-93550000D03*
X49000000Y-91450000D03*
X77000000Y-93550000D03*
X77000000Y-91450000D03*
X101000000Y-93550000D03*
X101000000Y-91450000D03*
X120000000Y-93550000D03*
X120000000Y-91450000D03*
X139000000Y-93550000D03*
X139000000Y-91450000D03*
X158000000Y-93550000D03*
X158000000Y-91450000D03*
X176500000Y-93550000D03*
X176500000Y-91450000D03*
X244000000Y-93050000D03*
X244000000Y-90950000D03*
X263000000Y-93050000D03*
X263000000Y-90950000D03*
X282000000Y-93050000D03*
X282000000Y-90950000D03*
X301000000Y-93050000D03*
X301000000Y-90950000D03*
X320000000Y-93050000D03*
X320000000Y-90950000D03*
X344000000Y-93050000D03*
X344000000Y-90950000D03*
X367500000Y-93050000D03*
X367500000Y-90950000D03*
X386500000Y-93050000D03*
X386500000Y-90950000D03*
X53500000Y-74050000D03*
X53500000Y-71950000D03*
X77500000Y-74050000D03*
X77500000Y-71950000D03*
X101000000Y-74050000D03*
X101000000Y-71950000D03*
X120000000Y-74050000D03*
X120000000Y-71950000D03*
X139000000Y-74050000D03*
X139000000Y-71950000D03*
X158000000Y-74050000D03*
X158000000Y-71950000D03*
X177000000Y-74050000D03*
X177000000Y-71950000D03*
X244000000Y-74050000D03*
X244000000Y-71950000D03*
X263000000Y-74050000D03*
X263000000Y-71950000D03*
X282000000Y-74050000D03*
X282000000Y-71950000D03*
X301000000Y-74050000D03*
X301000000Y-71950000D03*
X320000000Y-74050000D03*
X320000000Y-71950000D03*
X339000000Y-74050000D03*
X339000000Y-71950000D03*
X358000000Y-74050000D03*
X358000000Y-71950000D03*
X377000000Y-74050000D03*
X377000000Y-71950000D03*
M02*
