  0
SECTION
  2
HEADER
  9
$ANGBASE
  50
0.0
  9
$ANGDIR
  70
1
  9
$MEASUREMENT
  70
1
  0
ENDSEC
  0
SECTION
  2
TABLES
  0
TABLE
  2
LTYPE
  70
4
  0
LTYPE
  5
40F
  2
CONTINUOUS
  70
0
  3
Solid line
  72
65
  73
0
  40
0.0
  0
LTYPE
  5
410
  2
DASHDOT
 70
0
  3
Dash Dot ____ _ ____ _
 72
65
 73
4
 40
2.0
 49
1.25
 49
-0.25
 49
0.25
 49
-0.25
  0
LTYPE
  5
411
  2
DASHED
 70
0
  3
Dashed __ __ __ __ __
 72
65
 73
2
 40
0.75
 49
0.5
 49
-0.25
  0
LTYPE
  5
43B
  2
DOTTED
 70
0
  3
Dotted .  .  .  .
 72
65
 73
2
 40
0.2
 49
0.0
 49
-0.2
  0
ENDTAB
  0
TABLE
  2
STYLE
  70
4
  0
STYLE
  2
KICAD
  70
0
  40
0
  41
1
  42
1
  50
0
  71
0
  3
isocp.shx
  0
STYLE
  2
KICADB
  70
0
  40
0
  41
1
  42
1
  50
0
  71
0
  3
isocp.shx
  0
STYLE
  2
KICADI
  70
0
  40
0
  41
1
  42
1
  50
15
  71
0
  3
isocp.shx
  0
STYLE
  2
KICADBI
  70
0
  40
0
  41
1
  42
1
  50
15
  71
0
  3
isocp.shx
  0
ENDTAB
  0
TABLE
  2
LAYER
  70
1
  0
LAYER
  2
BLACK
  70
0
  62
7
  6
CONTINUOUS
  0
ENDTAB
  0
ENDSEC
  0
SECTION
  2
ENTITIES
0
LINE
8
BLACK
6
CONTINUOUS
10
290.481
20
-198.033
11
290.166
21
-197.983
0
LINE
8
BLACK
6
CONTINUOUS
10
290.166
20
-197.983
11
289.857
21
-197.901
0
LINE
8
BLACK
6
CONTINUOUS
10
289.857
20
-197.901
11
289.559
21
-197.786
0
LINE
8
BLACK
6
CONTINUOUS
10
289.559
20
-197.786
11
289.275
21
-197.641
0
LINE
8
BLACK
6
CONTINUOUS
10
289.275
20
-197.641
11
289.007
21
-197.468
0
LINE
8
BLACK
6
CONTINUOUS
10
289.007
20
-197.468
11
288.759
21
-197.267
0
LINE
8
BLACK
6
CONTINUOUS
10
288.759
20
-197.267
11
288.533
21
-197.041
0
LINE
8
BLACK
6
CONTINUOUS
10
288.533
20
-197.041
11
288.332
21
-196.793
0
LINE
8
BLACK
6
CONTINUOUS
10
288.332
20
-196.793
11
288.159
21
-196.525
0
LINE
8
BLACK
6
CONTINUOUS
10
288.159
20
-196.525
11
288.014
21
-196.241
0
LINE
8
BLACK
6
CONTINUOUS
10
288.014
20
-196.241
11
287.899
21
-195.943
0
LINE
8
BLACK
6
CONTINUOUS
10
287.899
20
-195.943
11
287.817
21
-195.634
0
LINE
8
BLACK
6
CONTINUOUS
10
287.817
20
-195.634
11
287.767
21
-195.319
0
LINE
8
BLACK
6
CONTINUOUS
10
287.767
20
-195.319
11
287.75
21
-195
0
LINE
8
BLACK
6
CONTINUOUS
10
287.75
20
-195
11
287.75
21
-158
0
LINE
8
BLACK
6
CONTINUOUS
10
287.75
20
-158
11
287.767
21
-157.681
0
LINE
8
BLACK
6
CONTINUOUS
10
287.767
20
-157.681
11
287.817
21
-157.366
0
LINE
8
BLACK
6
CONTINUOUS
10
287.817
20
-157.366
11
287.899
21
-157.057
0
LINE
8
BLACK
6
CONTINUOUS
10
287.899
20
-157.057
11
288.014
21
-156.759
0
LINE
8
BLACK
6
CONTINUOUS
10
288.014
20
-156.759
11
288.159
21
-156.475
0
LINE
8
BLACK
6
CONTINUOUS
10
288.159
20
-156.475
11
288.332
21
-156.207
0
LINE
8
BLACK
6
CONTINUOUS
10
288.332
20
-156.207
11
288.533
21
-155.959
0
LINE
8
BLACK
6
CONTINUOUS
10
288.533
20
-155.959
11
288.759
21
-155.733
0
LINE
8
BLACK
6
CONTINUOUS
10
288.759
20
-155.733
11
289.007
21
-155.532
0
LINE
8
BLACK
6
CONTINUOUS
10
289.007
20
-155.532
11
289.275
21
-155.359
0
LINE
8
BLACK
6
CONTINUOUS
10
289.275
20
-155.359
11
289.559
21
-155.214
0
LINE
8
BLACK
6
CONTINUOUS
10
289.559
20
-155.214
11
289.857
21
-155.099
0
LINE
8
BLACK
6
CONTINUOUS
10
289.857
20
-155.099
11
290.166
21
-155.017
0
LINE
8
BLACK
6
CONTINUOUS
10
290.166
20
-155.017
11
290.481
21
-154.967
0
LINE
8
BLACK
6
CONTINUOUS
10
290.481
20
-154.967
11
290.8
21
-154.95
0
LINE
8
BLACK
6
CONTINUOUS
10
290.8
20
-154.95
11
363.8
21
-154.95
0
LINE
8
BLACK
6
CONTINUOUS
10
363.8
20
-154.95
11
364.119
21
-154.967
0
LINE
8
BLACK
6
CONTINUOUS
10
364.119
20
-154.967
11
364.434
21
-155.017
0
LINE
8
BLACK
6
CONTINUOUS
10
364.434
20
-155.017
11
364.743
21
-155.099
0
LINE
8
BLACK
6
CONTINUOUS
10
364.743
20
-155.099
11
365.041
21
-155.214
0
LINE
8
BLACK
6
CONTINUOUS
10
365.041
20
-155.214
11
365.325
21
-155.359
0
LINE
8
BLACK
6
CONTINUOUS
10
365.325
20
-155.359
11
365.593
21
-155.532
0
LINE
8
BLACK
6
CONTINUOUS
10
365.593
20
-155.532
11
365.841
21
-155.733
0
LINE
8
BLACK
6
CONTINUOUS
10
365.841
20
-155.733
11
366.067
21
-155.959
0
LINE
8
BLACK
6
CONTINUOUS
10
366.067
20
-155.959
11
366.268
21
-156.207
0
LINE
8
BLACK
6
CONTINUOUS
10
366.268
20
-156.207
11
366.441
21
-156.475
0
LINE
8
BLACK
6
CONTINUOUS
10
366.441
20
-156.475
11
366.586
21
-156.759
0
LINE
8
BLACK
6
CONTINUOUS
10
366.586
20
-156.759
11
366.701
21
-157.057
0
LINE
8
BLACK
6
CONTINUOUS
10
366.701
20
-157.057
11
366.783
21
-157.366
0
LINE
8
BLACK
6
CONTINUOUS
10
366.783
20
-157.366
11
366.833
21
-157.681
0
LINE
8
BLACK
6
CONTINUOUS
10
366.833
20
-157.681
11
366.85
21
-158
0
LINE
8
BLACK
6
CONTINUOUS
10
366.85
20
-158
11
366.85
21
-195
0
LINE
8
BLACK
6
CONTINUOUS
10
366.85
20
-195
11
366.833
21
-195.319
0
LINE
8
BLACK
6
CONTINUOUS
10
366.833
20
-195.319
11
366.783
21
-195.634
0
LINE
8
BLACK
6
CONTINUOUS
10
366.783
20
-195.634
11
366.701
21
-195.943
0
LINE
8
BLACK
6
CONTINUOUS
10
366.701
20
-195.943
11
366.586
21
-196.241
0
LINE
8
BLACK
6
CONTINUOUS
10
366.586
20
-196.241
11
366.441
21
-196.525
0
LINE
8
BLACK
6
CONTINUOUS
10
366.441
20
-196.525
11
366.268
21
-196.793
0
LINE
8
BLACK
6
CONTINUOUS
10
366.268
20
-196.793
11
366.067
21
-197.041
0
LINE
8
BLACK
6
CONTINUOUS
10
366.067
20
-197.041
11
365.841
21
-197.267
0
LINE
8
BLACK
6
CONTINUOUS
10
365.841
20
-197.267
11
365.593
21
-197.468
0
LINE
8
BLACK
6
CONTINUOUS
10
365.593
20
-197.468
11
365.325
21
-197.641
0
LINE
8
BLACK
6
CONTINUOUS
10
365.325
20
-197.641
11
365.041
21
-197.786
0
LINE
8
BLACK
6
CONTINUOUS
10
365.041
20
-197.786
11
364.743
21
-197.901
0
LINE
8
BLACK
6
CONTINUOUS
10
364.743
20
-197.901
11
364.434
21
-197.983
0
LINE
8
BLACK
6
CONTINUOUS
10
364.434
20
-197.983
11
364.119
21
-198.033
0
LINE
8
BLACK
6
CONTINUOUS
10
364.119
20
-198.033
11
363.8
21
-198.05
0
LINE
8
BLACK
6
CONTINUOUS
10
363.8
20
-198.05
11
290.8
21
-198.05
0
LINE
8
BLACK
6
CONTINUOUS
10
290.8
20
-198.05
11
290.481
21
-198.033
0
LINE
8
BLACK
6
CONTINUOUS
10
290.79
20
-155.046
11
290.469
21
-155.064
0
LINE
8
BLACK
6
CONTINUOUS
10
290.469
20
-155.064
11
290.143
21
-155.119
0
LINE
8
BLACK
6
CONTINUOUS
10
290.143
20
-155.119
11
289.824
21
-155.211
0
LINE
8
BLACK
6
CONTINUOUS
10
289.824
20
-155.211
11
289.518
21
-155.338
0
LINE
8
BLACK
6
CONTINUOUS
10
289.518
20
-155.338
11
289.228
21
-155.498
0
LINE
8
BLACK
6
CONTINUOUS
10
289.228
20
-155.498
11
288.958
21
-155.69
0
LINE
8
BLACK
6
CONTINUOUS
10
288.958
20
-155.69
11
288.711
21
-155.911
0
LINE
8
BLACK
6
CONTINUOUS
10
288.711
20
-155.911
11
288.49
21
-156.158
0
LINE
8
BLACK
6
CONTINUOUS
10
288.49
20
-156.158
11
288.298
21
-156.428
0
LINE
8
BLACK
6
CONTINUOUS
10
288.298
20
-156.428
11
288.138
21
-156.718
0
LINE
8
BLACK
6
CONTINUOUS
10
288.138
20
-156.718
11
288.011
21
-157.024
0
LINE
8
BLACK
6
CONTINUOUS
10
288.011
20
-157.024
11
287.919
21
-157.343
0
LINE
8
BLACK
6
CONTINUOUS
10
287.919
20
-157.343
11
287.864
21
-157.669
0
LINE
8
BLACK
6
CONTINUOUS
10
287.864
20
-157.669
11
287.846
21
-157.99
0
LINE
8
BLACK
6
CONTINUOUS
10
287.846
20
-157.99
11
287.85
21
-158
0
LINE
8
BLACK
6
CONTINUOUS
10
287.85
20
-158
11
287.85
21
-195
0
LINE
8
BLACK
6
CONTINUOUS
10
287.85
20
-195
11
287.846
21
-195.01
0
LINE
8
BLACK
6
CONTINUOUS
10
287.846
20
-195.01
11
287.864
21
-195.331
0
LINE
8
BLACK
6
CONTINUOUS
10
287.864
20
-195.331
11
287.919
21
-195.657
0
LINE
8
BLACK
6
CONTINUOUS
10
287.919
20
-195.657
11
288.011
21
-195.976
0
LINE
8
BLACK
6
CONTINUOUS
10
288.011
20
-195.976
11
288.138
21
-196.282
0
LINE
8
BLACK
6
CONTINUOUS
10
288.138
20
-196.282
11
288.298
21
-196.572
0
LINE
8
BLACK
6
CONTINUOUS
10
288.298
20
-196.572
11
288.49
21
-196.842
0
LINE
8
BLACK
6
CONTINUOUS
10
288.49
20
-196.842
11
288.711
21
-197.089
0
LINE
8
BLACK
6
CONTINUOUS
10
288.711
20
-197.089
11
288.958
21
-197.31
0
LINE
8
BLACK
6
CONTINUOUS
10
288.958
20
-197.31
11
289.228
21
-197.502
0
LINE
8
BLACK
6
CONTINUOUS
10
289.228
20
-197.502
11
289.518
21
-197.662
0
LINE
8
BLACK
6
CONTINUOUS
10
289.518
20
-197.662
11
289.824
21
-197.789
0
LINE
8
BLACK
6
CONTINUOUS
10
289.824
20
-197.789
11
290.143
21
-197.881
0
LINE
8
BLACK
6
CONTINUOUS
10
290.143
20
-197.881
11
290.469
21
-197.936
0
LINE
8
BLACK
6
CONTINUOUS
10
290.469
20
-197.936
11
290.79
21
-197.954
0
LINE
8
BLACK
6
CONTINUOUS
10
290.79
20
-197.954
11
290.8
21
-197.95
0
LINE
8
BLACK
6
CONTINUOUS
10
290.8
20
-197.95
11
363.8
21
-197.95
0
LINE
8
BLACK
6
CONTINUOUS
10
363.8
20
-197.95
11
363.81
21
-197.954
0
LINE
8
BLACK
6
CONTINUOUS
10
363.81
20
-197.954
11
364.131
21
-197.936
0
LINE
8
BLACK
6
CONTINUOUS
10
364.131
20
-197.936
11
364.457
21
-197.881
0
LINE
8
BLACK
6
CONTINUOUS
10
364.457
20
-197.881
11
364.776
21
-197.789
0
LINE
8
BLACK
6
CONTINUOUS
10
364.776
20
-197.789
11
365.082
21
-197.662
0
LINE
8
BLACK
6
CONTINUOUS
10
365.082
20
-197.662
11
365.372
21
-197.502
0
LINE
8
BLACK
6
CONTINUOUS
10
365.372
20
-197.502
11
365.642
21
-197.31
0
LINE
8
BLACK
6
CONTINUOUS
10
365.642
20
-197.31
11
365.889
21
-197.089
0
LINE
8
BLACK
6
CONTINUOUS
10
365.889
20
-197.089
11
366.11
21
-196.842
0
LINE
8
BLACK
6
CONTINUOUS
10
366.11
20
-196.842
11
366.302
21
-196.572
0
LINE
8
BLACK
6
CONTINUOUS
10
366.302
20
-196.572
11
366.462
21
-196.282
0
LINE
8
BLACK
6
CONTINUOUS
10
366.462
20
-196.282
11
366.589
21
-195.976
0
LINE
8
BLACK
6
CONTINUOUS
10
366.589
20
-195.976
11
366.681
21
-195.657
0
LINE
8
BLACK
6
CONTINUOUS
10
366.681
20
-195.657
11
366.736
21
-195.331
0
LINE
8
BLACK
6
CONTINUOUS
10
366.736
20
-195.331
11
366.754
21
-195.01
0
LINE
8
BLACK
6
CONTINUOUS
10
366.754
20
-195.01
11
366.75
21
-195
0
LINE
8
BLACK
6
CONTINUOUS
10
366.75
20
-195
11
366.75
21
-158
0
LINE
8
BLACK
6
CONTINUOUS
10
366.75
20
-158
11
366.754
21
-157.99
0
LINE
8
BLACK
6
CONTINUOUS
10
366.754
20
-157.99
11
366.736
21
-157.669
0
LINE
8
BLACK
6
CONTINUOUS
10
366.736
20
-157.669
11
366.681
21
-157.343
0
LINE
8
BLACK
6
CONTINUOUS
10
366.681
20
-157.343
11
366.589
21
-157.024
0
LINE
8
BLACK
6
CONTINUOUS
10
366.589
20
-157.024
11
366.462
21
-156.718
0
LINE
8
BLACK
6
CONTINUOUS
10
366.462
20
-156.718
11
366.302
21
-156.428
0
LINE
8
BLACK
6
CONTINUOUS
10
366.302
20
-156.428
11
366.11
21
-156.158
0
LINE
8
BLACK
6
CONTINUOUS
10
366.11
20
-156.158
11
365.889
21
-155.911
0
LINE
8
BLACK
6
CONTINUOUS
10
365.889
20
-155.911
11
365.642
21
-155.69
0
LINE
8
BLACK
6
CONTINUOUS
10
365.642
20
-155.69
11
365.372
21
-155.498
0
LINE
8
BLACK
6
CONTINUOUS
10
365.372
20
-155.498
11
365.082
21
-155.338
0
LINE
8
BLACK
6
CONTINUOUS
10
365.082
20
-155.338
11
364.776
21
-155.211
0
LINE
8
BLACK
6
CONTINUOUS
10
364.776
20
-155.211
11
364.457
21
-155.119
0
LINE
8
BLACK
6
CONTINUOUS
10
364.457
20
-155.119
11
364.131
21
-155.064
0
LINE
8
BLACK
6
CONTINUOUS
10
364.131
20
-155.064
11
363.81
21
-155.046
0
LINE
8
BLACK
6
CONTINUOUS
10
363.81
20
-155.046
11
363.8
21
-155.05
0
LINE
8
BLACK
6
CONTINUOUS
10
363.8
20
-155.05
11
290.8
21
-155.05
0
LINE
8
BLACK
6
CONTINUOUS
10
290.8
20
-155.05
11
290.79
21
-155.046
0
LINE
8
BLACK
6
CONTINUOUS
10
351.674
20
-193.741
11
351.736
21
-193.416
0
LINE
8
BLACK
6
CONTINUOUS
10
351.736
20
-193.416
11
351.838
21
-193.101
0
LINE
8
BLACK
6
CONTINUOUS
10
351.838
20
-193.101
11
351.976
21
-192.8
0
LINE
8
BLACK
6
CONTINUOUS
10
351.976
20
-192.8
11
352.15
21
-192.519
0
LINE
8
BLACK
6
CONTINUOUS
10
352.15
20
-192.519
11
352.356
21
-192.26
0
LINE
8
BLACK
6
CONTINUOUS
10
352.356
20
-192.26
11
352.592
21
-192.028
0
LINE
8
BLACK
6
CONTINUOUS
10
352.592
20
-192.028
11
352.854
21
-191.826
0
LINE
8
BLACK
6
CONTINUOUS
10
352.854
20
-191.826
11
353.139
21
-191.656
0
LINE
8
BLACK
6
CONTINUOUS
10
353.139
20
-191.656
11
353.441
21
-191.522
0
LINE
8
BLACK
6
CONTINUOUS
10
353.441
20
-191.522
11
353.758
21
-191.426
0
LINE
8
BLACK
6
CONTINUOUS
10
353.758
20
-191.426
11
354.084
21
-191.368
0
LINE
8
BLACK
6
CONTINUOUS
10
354.084
20
-191.368
11
354.414
21
-191.35
0
LINE
8
BLACK
6
CONTINUOUS
10
354.414
20
-191.35
11
354.745
21
-191.372
0
LINE
8
BLACK
6
CONTINUOUS
10
354.745
20
-191.372
11
355.07
21
-191.433
0
LINE
8
BLACK
6
CONTINUOUS
10
355.07
20
-191.433
11
355.386
21
-191.533
0
LINE
8
BLACK
6
CONTINUOUS
10
355.386
20
-191.533
11
355.687
21
-191.67
0
LINE
8
BLACK
6
CONTINUOUS
10
355.687
20
-191.67
11
355.969
21
-191.842
0
LINE
8
BLACK
6
CONTINUOUS
10
355.969
20
-191.842
11
356.229
21
-192.047
0
LINE
8
BLACK
6
CONTINUOUS
10
356.229
20
-192.047
11
356.463
21
-192.281
0
LINE
8
BLACK
6
CONTINUOUS
10
356.463
20
-192.281
11
356.666
21
-192.542
0
LINE
8
BLACK
6
CONTINUOUS
10
356.666
20
-192.542
11
356.837
21
-192.826
0
LINE
8
BLACK
6
CONTINUOUS
10
356.837
20
-192.826
11
356.972
21
-193.128
0
LINE
8
BLACK
6
CONTINUOUS
10
356.972
20
-193.128
11
357.071
21
-193.444
0
LINE
8
BLACK
6
CONTINUOUS
10
357.071
20
-193.444
11
357.13
21
-193.77
0
LINE
8
BLACK
6
CONTINUOUS
10
357.13
20
-193.77
11
357.15
21
-194.1
0
LINE
8
BLACK
6
CONTINUOUS
10
357.15
20
-194.1
11
357.149
21
-194.158
0
LINE
8
BLACK
6
CONTINUOUS
10
357.149
20
-194.158
11
357.123
21
-194.487
0
LINE
8
BLACK
6
CONTINUOUS
10
357.123
20
-194.487
11
357.056
21
-194.812
0
LINE
8
BLACK
6
CONTINUOUS
10
357.056
20
-194.812
11
356.952
21
-195.126
0
LINE
8
BLACK
6
CONTINUOUS
10
356.952
20
-195.126
11
356.81
21
-195.425
0
LINE
8
BLACK
6
CONTINUOUS
10
356.81
20
-195.425
11
356.633
21
-195.705
0
LINE
8
BLACK
6
CONTINUOUS
10
356.633
20
-195.705
11
356.424
21
-195.961
0
LINE
8
BLACK
6
CONTINUOUS
10
356.424
20
-195.961
11
356.186
21
-196.191
0
LINE
8
BLACK
6
CONTINUOUS
10
356.186
20
-196.191
11
355.922
21
-196.391
0
LINE
8
BLACK
6
CONTINUOUS
10
355.922
20
-196.391
11
355.636
21
-196.557
0
LINE
8
BLACK
6
CONTINUOUS
10
355.636
20
-196.557
11
355.332
21
-196.687
0
LINE
8
BLACK
6
CONTINUOUS
10
355.332
20
-196.687
11
355.014
21
-196.781
0
LINE
8
BLACK
6
CONTINUOUS
10
355.014
20
-196.781
11
354.687
21
-196.835
0
LINE
8
BLACK
6
CONTINUOUS
10
354.687
20
-196.835
11
354.357
21
-196.85
0
LINE
8
BLACK
6
CONTINUOUS
10
354.357
20
-196.85
11
354.027
21
-196.825
0
LINE
8
BLACK
6
CONTINUOUS
10
354.027
20
-196.825
11
353.702
21
-196.76
0
LINE
8
BLACK
6
CONTINUOUS
10
353.702
20
-196.76
11
353.388
21
-196.657
0
LINE
8
BLACK
6
CONTINUOUS
10
353.388
20
-196.657
11
353.088
21
-196.517
0
LINE
8
BLACK
6
CONTINUOUS
10
353.088
20
-196.517
11
352.807
21
-196.342
0
LINE
8
BLACK
6
CONTINUOUS
10
352.807
20
-196.342
11
352.549
21
-196.134
0
LINE
8
BLACK
6
CONTINUOUS
10
352.549
20
-196.134
11
352.318
21
-195.897
0
LINE
8
BLACK
6
CONTINUOUS
10
352.318
20
-195.897
11
352.117
21
-195.634
0
LINE
8
BLACK
6
CONTINUOUS
10
352.117
20
-195.634
11
351.95
21
-195.348
0
LINE
8
BLACK
6
CONTINUOUS
10
351.95
20
-195.348
11
351.817
21
-195.045
0
LINE
8
BLACK
6
CONTINUOUS
10
351.817
20
-195.045
11
351.723
21
-194.728
0
LINE
8
BLACK
6
CONTINUOUS
10
351.723
20
-194.728
11
351.667
21
-194.402
0
LINE
8
BLACK
6
CONTINUOUS
10
351.667
20
-194.402
11
351.65
21
-194.072
0
LINE
8
BLACK
6
CONTINUOUS
10
351.65
20
-194.072
11
351.65
21
-194.071
0
LINE
8
BLACK
6
CONTINUOUS
10
351.65
20
-194.071
11
351.674
21
-193.741
0
LINE
8
BLACK
6
CONTINUOUS
10
351.815
20
-194.706
11
351.907
21
-195.012
0
LINE
8
BLACK
6
CONTINUOUS
10
351.907
20
-195.012
11
352.035
21
-195.305
0
LINE
8
BLACK
6
CONTINUOUS
10
352.035
20
-195.305
11
352.196
21
-195.581
0
LINE
8
BLACK
6
CONTINUOUS
10
352.196
20
-195.581
11
352.39
21
-195.835
0
LINE
8
BLACK
6
CONTINUOUS
10
352.39
20
-195.835
11
352.613
21
-196.064
0
LINE
8
BLACK
6
CONTINUOUS
10
352.613
20
-196.064
11
352.862
21
-196.264
0
LINE
8
BLACK
6
CONTINUOUS
10
352.862
20
-196.264
11
353.133
21
-196.433
0
LINE
8
BLACK
6
CONTINUOUS
10
353.133
20
-196.433
11
353.423
21
-196.568
0
LINE
8
BLACK
6
CONTINUOUS
10
353.423
20
-196.568
11
353.726
21
-196.668
0
LINE
8
BLACK
6
CONTINUOUS
10
353.726
20
-196.668
11
354.04
21
-196.73
0
LINE
8
BLACK
6
CONTINUOUS
10
354.04
20
-196.73
11
354.358
21
-196.755
0
LINE
8
BLACK
6
CONTINUOUS
10
354.358
20
-196.755
11
354.678
21
-196.74
0
LINE
8
BLACK
6
CONTINUOUS
10
354.678
20
-196.74
11
354.993
21
-196.688
0
LINE
8
BLACK
6
CONTINUOUS
10
354.993
20
-196.688
11
355.299
21
-196.598
0
LINE
8
BLACK
6
CONTINUOUS
10
355.299
20
-196.598
11
355.593
21
-196.472
0
LINE
8
BLACK
6
CONTINUOUS
10
355.593
20
-196.472
11
355.869
21
-196.311
0
LINE
8
BLACK
6
CONTINUOUS
10
355.869
20
-196.311
11
356.124
21
-196.119
0
LINE
8
BLACK
6
CONTINUOUS
10
356.124
20
-196.119
11
356.354
21
-195.897
0
LINE
8
BLACK
6
CONTINUOUS
10
356.354
20
-195.897
11
356.556
21
-195.649
0
LINE
8
BLACK
6
CONTINUOUS
10
356.556
20
-195.649
11
356.726
21
-195.379
0
LINE
8
BLACK
6
CONTINUOUS
10
356.726
20
-195.379
11
356.863
21
-195.09
0
LINE
8
BLACK
6
CONTINUOUS
10
356.863
20
-195.09
11
356.964
21
-194.787
0
LINE
8
BLACK
6
CONTINUOUS
10
356.964
20
-194.787
11
357.028
21
-194.474
0
LINE
8
BLACK
6
CONTINUOUS
10
357.028
20
-194.474
11
357.054
21
-194.156
0
LINE
8
BLACK
6
CONTINUOUS
10
357.054
20
-194.156
11
357.055
21
-194.1
0
LINE
8
BLACK
6
CONTINUOUS
10
357.055
20
-194.1
11
357.036
21
-193.781
0
LINE
8
BLACK
6
CONTINUOUS
10
357.036
20
-193.781
11
356.978
21
-193.467
0
LINE
8
BLACK
6
CONTINUOUS
10
356.978
20
-193.467
11
356.883
21
-193.162
0
LINE
8
BLACK
6
CONTINUOUS
10
356.883
20
-193.162
11
356.753
21
-192.87
0
LINE
8
BLACK
6
CONTINUOUS
10
356.753
20
-192.87
11
356.588
21
-192.596
0
LINE
8
BLACK
6
CONTINUOUS
10
356.588
20
-192.596
11
356.391
21
-192.344
0
LINE
8
BLACK
6
CONTINUOUS
10
356.391
20
-192.344
11
356.166
21
-192.118
0
LINE
8
BLACK
6
CONTINUOUS
10
356.166
20
-192.118
11
355.915
21
-191.92
0
LINE
8
BLACK
6
CONTINUOUS
10
355.915
20
-191.92
11
355.642
21
-191.754
0
LINE
8
BLACK
6
CONTINUOUS
10
355.642
20
-191.754
11
355.351
21
-191.621
0
LINE
8
BLACK
6
CONTINUOUS
10
355.351
20
-191.621
11
355.047
21
-191.525
0
LINE
8
BLACK
6
CONTINUOUS
10
355.047
20
-191.525
11
354.733
21
-191.466
0
LINE
8
BLACK
6
CONTINUOUS
10
354.733
20
-191.466
11
354.414
21
-191.445
0
LINE
8
BLACK
6
CONTINUOUS
10
354.414
20
-191.445
11
354.095
21
-191.463
0
LINE
8
BLACK
6
CONTINUOUS
10
354.095
20
-191.463
11
353.78
21
-191.519
0
LINE
8
BLACK
6
CONTINUOUS
10
353.78
20
-191.519
11
353.475
21
-191.612
0
LINE
8
BLACK
6
CONTINUOUS
10
353.475
20
-191.612
11
353.182
21
-191.741
0
LINE
8
BLACK
6
CONTINUOUS
10
353.182
20
-191.741
11
352.908
21
-191.904
0
LINE
8
BLACK
6
CONTINUOUS
10
352.908
20
-191.904
11
352.655
21
-192.099
0
LINE
8
BLACK
6
CONTINUOUS
10
352.655
20
-192.099
11
352.427
21
-192.324
0
LINE
8
BLACK
6
CONTINUOUS
10
352.427
20
-192.324
11
352.228
21
-192.573
0
LINE
8
BLACK
6
CONTINUOUS
10
352.228
20
-192.573
11
352.06
21
-192.845
0
LINE
8
BLACK
6
CONTINUOUS
10
352.06
20
-192.845
11
351.927
21
-193.136
0
LINE
8
BLACK
6
CONTINUOUS
10
351.927
20
-193.136
11
351.829
21
-193.44
0
LINE
8
BLACK
6
CONTINUOUS
10
351.829
20
-193.44
11
351.768
21
-193.753
0
LINE
8
BLACK
6
CONTINUOUS
10
351.768
20
-193.753
11
351.745
21
-194.072
0
LINE
8
BLACK
6
CONTINUOUS
10
351.745
20
-194.072
11
351.761
21
-194.391
0
LINE
8
BLACK
6
CONTINUOUS
10
351.761
20
-194.391
11
351.815
21
-194.706
0
LINE
8
BLACK
6
CONTINUOUS
10
290.274
20
-193.641
11
290.336
21
-193.316
0
LINE
8
BLACK
6
CONTINUOUS
10
290.336
20
-193.316
11
290.438
21
-193.001
0
LINE
8
BLACK
6
CONTINUOUS
10
290.438
20
-193.001
11
290.576
21
-192.7
0
LINE
8
BLACK
6
CONTINUOUS
10
290.576
20
-192.7
11
290.75
21
-192.419
0
LINE
8
BLACK
6
CONTINUOUS
10
290.75
20
-192.419
11
290.956
21
-192.16
0
LINE
8
BLACK
6
CONTINUOUS
10
290.956
20
-192.16
11
291.192
21
-191.928
0
LINE
8
BLACK
6
CONTINUOUS
10
291.192
20
-191.928
11
291.454
21
-191.726
0
LINE
8
BLACK
6
CONTINUOUS
10
291.454
20
-191.726
11
291.739
21
-191.556
0
LINE
8
BLACK
6
CONTINUOUS
10
291.739
20
-191.556
11
292.041
21
-191.422
0
LINE
8
BLACK
6
CONTINUOUS
10
292.041
20
-191.422
11
292.358
21
-191.326
0
LINE
8
BLACK
6
CONTINUOUS
10
292.358
20
-191.326
11
292.684
21
-191.268
0
LINE
8
BLACK
6
CONTINUOUS
10
292.684
20
-191.268
11
293.014
21
-191.25
0
LINE
8
BLACK
6
CONTINUOUS
10
293.014
20
-191.25
11
293.345
21
-191.272
0
LINE
8
BLACK
6
CONTINUOUS
10
293.345
20
-191.272
11
293.67
21
-191.333
0
LINE
8
BLACK
6
CONTINUOUS
10
293.67
20
-191.333
11
293.986
21
-191.433
0
LINE
8
BLACK
6
CONTINUOUS
10
293.986
20
-191.433
11
294.287
21
-191.57
0
LINE
8
BLACK
6
CONTINUOUS
10
294.287
20
-191.57
11
294.569
21
-191.742
0
LINE
8
BLACK
6
CONTINUOUS
10
294.569
20
-191.742
11
294.829
21
-191.947
0
LINE
8
BLACK
6
CONTINUOUS
10
294.829
20
-191.947
11
295.063
21
-192.181
0
LINE
8
BLACK
6
CONTINUOUS
10
295.063
20
-192.181
11
295.266
21
-192.442
0
LINE
8
BLACK
6
CONTINUOUS
10
295.266
20
-192.442
11
295.437
21
-192.726
0
LINE
8
BLACK
6
CONTINUOUS
10
295.437
20
-192.726
11
295.572
21
-193.028
0
LINE
8
BLACK
6
CONTINUOUS
10
295.572
20
-193.028
11
295.671
21
-193.344
0
LINE
8
BLACK
6
CONTINUOUS
10
295.671
20
-193.344
11
295.73
21
-193.67
0
LINE
8
BLACK
6
CONTINUOUS
10
295.73
20
-193.67
11
295.75
21
-194
0
LINE
8
BLACK
6
CONTINUOUS
10
295.75
20
-194
11
295.749
21
-194.058
0
LINE
8
BLACK
6
CONTINUOUS
10
295.749
20
-194.058
11
295.723
21
-194.387
0
LINE
8
BLACK
6
CONTINUOUS
10
295.723
20
-194.387
11
295.656
21
-194.712
0
LINE
8
BLACK
6
CONTINUOUS
10
295.656
20
-194.712
11
295.552
21
-195.026
0
LINE
8
BLACK
6
CONTINUOUS
10
295.552
20
-195.026
11
295.41
21
-195.325
0
LINE
8
BLACK
6
CONTINUOUS
10
295.41
20
-195.325
11
295.233
21
-195.605
0
LINE
8
BLACK
6
CONTINUOUS
10
295.233
20
-195.605
11
295.024
21
-195.861
0
LINE
8
BLACK
6
CONTINUOUS
10
295.024
20
-195.861
11
294.786
21
-196.091
0
LINE
8
BLACK
6
CONTINUOUS
10
294.786
20
-196.091
11
294.522
21
-196.291
0
LINE
8
BLACK
6
CONTINUOUS
10
294.522
20
-196.291
11
294.236
21
-196.457
0
LINE
8
BLACK
6
CONTINUOUS
10
294.236
20
-196.457
11
293.932
21
-196.587
0
LINE
8
BLACK
6
CONTINUOUS
10
293.932
20
-196.587
11
293.614
21
-196.681
0
LINE
8
BLACK
6
CONTINUOUS
10
293.614
20
-196.681
11
293.287
21
-196.735
0
LINE
8
BLACK
6
CONTINUOUS
10
293.287
20
-196.735
11
292.957
21
-196.75
0
LINE
8
BLACK
6
CONTINUOUS
10
292.957
20
-196.75
11
292.627
21
-196.725
0
LINE
8
BLACK
6
CONTINUOUS
10
292.627
20
-196.725
11
292.302
21
-196.66
0
LINE
8
BLACK
6
CONTINUOUS
10
292.302
20
-196.66
11
291.988
21
-196.557
0
LINE
8
BLACK
6
CONTINUOUS
10
291.988
20
-196.557
11
291.688
21
-196.417
0
LINE
8
BLACK
6
CONTINUOUS
10
291.688
20
-196.417
11
291.407
21
-196.242
0
LINE
8
BLACK
6
CONTINUOUS
10
291.407
20
-196.242
11
291.149
21
-196.034
0
LINE
8
BLACK
6
CONTINUOUS
10
291.149
20
-196.034
11
290.918
21
-195.797
0
LINE
8
BLACK
6
CONTINUOUS
10
290.918
20
-195.797
11
290.717
21
-195.534
0
LINE
8
BLACK
6
CONTINUOUS
10
290.717
20
-195.534
11
290.55
21
-195.248
0
LINE
8
BLACK
6
CONTINUOUS
10
290.55
20
-195.248
11
290.417
21
-194.945
0
LINE
8
BLACK
6
CONTINUOUS
10
290.417
20
-194.945
11
290.323
21
-194.628
0
LINE
8
BLACK
6
CONTINUOUS
10
290.323
20
-194.628
11
290.267
21
-194.302
0
LINE
8
BLACK
6
CONTINUOUS
10
290.267
20
-194.302
11
290.25
21
-193.972
0
LINE
8
BLACK
6
CONTINUOUS
10
290.25
20
-193.972
11
290.25
21
-193.971
0
LINE
8
BLACK
6
CONTINUOUS
10
290.25
20
-193.971
11
290.274
21
-193.641
0
LINE
8
BLACK
6
CONTINUOUS
10
290.415
20
-194.606
11
290.507
21
-194.912
0
LINE
8
BLACK
6
CONTINUOUS
10
290.507
20
-194.912
11
290.635
21
-195.205
0
LINE
8
BLACK
6
CONTINUOUS
10
290.635
20
-195.205
11
290.796
21
-195.481
0
LINE
8
BLACK
6
CONTINUOUS
10
290.796
20
-195.481
11
290.99
21
-195.735
0
LINE
8
BLACK
6
CONTINUOUS
10
290.99
20
-195.735
11
291.213
21
-195.964
0
LINE
8
BLACK
6
CONTINUOUS
10
291.213
20
-195.964
11
291.462
21
-196.164
0
LINE
8
BLACK
6
CONTINUOUS
10
291.462
20
-196.164
11
291.733
21
-196.333
0
LINE
8
BLACK
6
CONTINUOUS
10
291.733
20
-196.333
11
292.023
21
-196.468
0
LINE
8
BLACK
6
CONTINUOUS
10
292.023
20
-196.468
11
292.326
21
-196.568
0
LINE
8
BLACK
6
CONTINUOUS
10
292.326
20
-196.568
11
292.64
21
-196.63
0
LINE
8
BLACK
6
CONTINUOUS
10
292.64
20
-196.63
11
292.958
21
-196.655
0
LINE
8
BLACK
6
CONTINUOUS
10
292.958
20
-196.655
11
293.278
21
-196.64
0
LINE
8
BLACK
6
CONTINUOUS
10
293.278
20
-196.64
11
293.593
21
-196.588
0
LINE
8
BLACK
6
CONTINUOUS
10
293.593
20
-196.588
11
293.899
21
-196.498
0
LINE
8
BLACK
6
CONTINUOUS
10
293.899
20
-196.498
11
294.193
21
-196.372
0
LINE
8
BLACK
6
CONTINUOUS
10
294.193
20
-196.372
11
294.469
21
-196.211
0
LINE
8
BLACK
6
CONTINUOUS
10
294.469
20
-196.211
11
294.724
21
-196.019
0
LINE
8
BLACK
6
CONTINUOUS
10
294.724
20
-196.019
11
294.954
21
-195.797
0
LINE
8
BLACK
6
CONTINUOUS
10
294.954
20
-195.797
11
295.156
21
-195.549
0
LINE
8
BLACK
6
CONTINUOUS
10
295.156
20
-195.549
11
295.326
21
-195.279
0
LINE
8
BLACK
6
CONTINUOUS
10
295.326
20
-195.279
11
295.463
21
-194.99
0
LINE
8
BLACK
6
CONTINUOUS
10
295.463
20
-194.99
11
295.564
21
-194.687
0
LINE
8
BLACK
6
CONTINUOUS
10
295.564
20
-194.687
11
295.628
21
-194.374
0
LINE
8
BLACK
6
CONTINUOUS
10
295.628
20
-194.374
11
295.654
21
-194.056
0
LINE
8
BLACK
6
CONTINUOUS
10
295.654
20
-194.056
11
295.655
21
-194
0
LINE
8
BLACK
6
CONTINUOUS
10
295.655
20
-194
11
295.636
21
-193.681
0
LINE
8
BLACK
6
CONTINUOUS
10
295.636
20
-193.681
11
295.578
21
-193.367
0
LINE
8
BLACK
6
CONTINUOUS
10
295.578
20
-193.367
11
295.483
21
-193.062
0
LINE
8
BLACK
6
CONTINUOUS
10
295.483
20
-193.062
11
295.353
21
-192.77
0
LINE
8
BLACK
6
CONTINUOUS
10
295.353
20
-192.77
11
295.188
21
-192.496
0
LINE
8
BLACK
6
CONTINUOUS
10
295.188
20
-192.496
11
294.991
21
-192.244
0
LINE
8
BLACK
6
CONTINUOUS
10
294.991
20
-192.244
11
294.766
21
-192.018
0
LINE
8
BLACK
6
CONTINUOUS
10
294.766
20
-192.018
11
294.515
21
-191.82
0
LINE
8
BLACK
6
CONTINUOUS
10
294.515
20
-191.82
11
294.242
21
-191.654
0
LINE
8
BLACK
6
CONTINUOUS
10
294.242
20
-191.654
11
293.951
21
-191.521
0
LINE
8
BLACK
6
CONTINUOUS
10
293.951
20
-191.521
11
293.647
21
-191.425
0
LINE
8
BLACK
6
CONTINUOUS
10
293.647
20
-191.425
11
293.333
21
-191.366
0
LINE
8
BLACK
6
CONTINUOUS
10
293.333
20
-191.366
11
293.014
21
-191.345
0
LINE
8
BLACK
6
CONTINUOUS
10
293.014
20
-191.345
11
292.695
21
-191.363
0
LINE
8
BLACK
6
CONTINUOUS
10
292.695
20
-191.363
11
292.38
21
-191.419
0
LINE
8
BLACK
6
CONTINUOUS
10
292.38
20
-191.419
11
292.075
21
-191.512
0
LINE
8
BLACK
6
CONTINUOUS
10
292.075
20
-191.512
11
291.782
21
-191.641
0
LINE
8
BLACK
6
CONTINUOUS
10
291.782
20
-191.641
11
291.508
21
-191.804
0
LINE
8
BLACK
6
CONTINUOUS
10
291.508
20
-191.804
11
291.255
21
-191.999
0
LINE
8
BLACK
6
CONTINUOUS
10
291.255
20
-191.999
11
291.027
21
-192.224
0
LINE
8
BLACK
6
CONTINUOUS
10
291.027
20
-192.224
11
290.828
21
-192.473
0
LINE
8
BLACK
6
CONTINUOUS
10
290.828
20
-192.473
11
290.66
21
-192.745
0
LINE
8
BLACK
6
CONTINUOUS
10
290.66
20
-192.745
11
290.527
21
-193.036
0
LINE
8
BLACK
6
CONTINUOUS
10
290.527
20
-193.036
11
290.429
21
-193.34
0
LINE
8
BLACK
6
CONTINUOUS
10
290.429
20
-193.34
11
290.368
21
-193.653
0
LINE
8
BLACK
6
CONTINUOUS
10
290.368
20
-193.653
11
290.345
21
-193.972
0
LINE
8
BLACK
6
CONTINUOUS
10
290.345
20
-193.972
11
290.361
21
-194.291
0
LINE
8
BLACK
6
CONTINUOUS
10
290.361
20
-194.291
11
290.415
21
-194.606
0
LINE
8
BLACK
6
CONTINUOUS
10
290.274
20
-158.641
11
290.336
21
-158.316
0
LINE
8
BLACK
6
CONTINUOUS
10
290.336
20
-158.316
11
290.438
21
-158.001
0
LINE
8
BLACK
6
CONTINUOUS
10
290.438
20
-158.001
11
290.576
21
-157.7
0
LINE
8
BLACK
6
CONTINUOUS
10
290.576
20
-157.7
11
290.75
21
-157.419
0
LINE
8
BLACK
6
CONTINUOUS
10
290.75
20
-157.419
11
290.956
21
-157.16
0
LINE
8
BLACK
6
CONTINUOUS
10
290.956
20
-157.16
11
291.192
21
-156.928
0
LINE
8
BLACK
6
CONTINUOUS
10
291.192
20
-156.928
11
291.454
21
-156.726
0
LINE
8
BLACK
6
CONTINUOUS
10
291.454
20
-156.726
11
291.739
21
-156.556
0
LINE
8
BLACK
6
CONTINUOUS
10
291.739
20
-156.556
11
292.041
21
-156.422
0
LINE
8
BLACK
6
CONTINUOUS
10
292.041
20
-156.422
11
292.358
21
-156.326
0
LINE
8
BLACK
6
CONTINUOUS
10
292.358
20
-156.326
11
292.684
21
-156.268
0
LINE
8
BLACK
6
CONTINUOUS
10
292.684
20
-156.268
11
293.014
21
-156.25
0
LINE
8
BLACK
6
CONTINUOUS
10
293.014
20
-156.25
11
293.345
21
-156.272
0
LINE
8
BLACK
6
CONTINUOUS
10
293.345
20
-156.272
11
293.67
21
-156.333
0
LINE
8
BLACK
6
CONTINUOUS
10
293.67
20
-156.333
11
293.986
21
-156.433
0
LINE
8
BLACK
6
CONTINUOUS
10
293.986
20
-156.433
11
294.287
21
-156.57
0
LINE
8
BLACK
6
CONTINUOUS
10
294.287
20
-156.57
11
294.569
21
-156.742
0
LINE
8
BLACK
6
CONTINUOUS
10
294.569
20
-156.742
11
294.829
21
-156.947
0
LINE
8
BLACK
6
CONTINUOUS
10
294.829
20
-156.947
11
295.063
21
-157.181
0
LINE
8
BLACK
6
CONTINUOUS
10
295.063
20
-157.181
11
295.266
21
-157.442
0
LINE
8
BLACK
6
CONTINUOUS
10
295.266
20
-157.442
11
295.437
21
-157.726
0
LINE
8
BLACK
6
CONTINUOUS
10
295.437
20
-157.726
11
295.572
21
-158.028
0
LINE
8
BLACK
6
CONTINUOUS
10
295.572
20
-158.028
11
295.671
21
-158.344
0
LINE
8
BLACK
6
CONTINUOUS
10
295.671
20
-158.344
11
295.73
21
-158.67
0
LINE
8
BLACK
6
CONTINUOUS
10
295.73
20
-158.67
11
295.75
21
-159
0
LINE
8
BLACK
6
CONTINUOUS
10
295.75
20
-159
11
295.749
21
-159.058
0
LINE
8
BLACK
6
CONTINUOUS
10
295.749
20
-159.058
11
295.723
21
-159.387
0
LINE
8
BLACK
6
CONTINUOUS
10
295.723
20
-159.387
11
295.656
21
-159.712
0
LINE
8
BLACK
6
CONTINUOUS
10
295.656
20
-159.712
11
295.552
21
-160.026
0
LINE
8
BLACK
6
CONTINUOUS
10
295.552
20
-160.026
11
295.41
21
-160.325
0
LINE
8
BLACK
6
CONTINUOUS
10
295.41
20
-160.325
11
295.233
21
-160.605
0
LINE
8
BLACK
6
CONTINUOUS
10
295.233
20
-160.605
11
295.024
21
-160.861
0
LINE
8
BLACK
6
CONTINUOUS
10
295.024
20
-160.861
11
294.786
21
-161.091
0
LINE
8
BLACK
6
CONTINUOUS
10
294.786
20
-161.091
11
294.522
21
-161.291
0
LINE
8
BLACK
6
CONTINUOUS
10
294.522
20
-161.291
11
294.236
21
-161.457
0
LINE
8
BLACK
6
CONTINUOUS
10
294.236
20
-161.457
11
293.932
21
-161.587
0
LINE
8
BLACK
6
CONTINUOUS
10
293.932
20
-161.587
11
293.614
21
-161.681
0
LINE
8
BLACK
6
CONTINUOUS
10
293.614
20
-161.681
11
293.287
21
-161.735
0
LINE
8
BLACK
6
CONTINUOUS
10
293.287
20
-161.735
11
292.957
21
-161.75
0
LINE
8
BLACK
6
CONTINUOUS
10
292.957
20
-161.75
11
292.627
21
-161.725
0
LINE
8
BLACK
6
CONTINUOUS
10
292.627
20
-161.725
11
292.302
21
-161.66
0
LINE
8
BLACK
6
CONTINUOUS
10
292.302
20
-161.66
11
291.988
21
-161.557
0
LINE
8
BLACK
6
CONTINUOUS
10
291.988
20
-161.557
11
291.688
21
-161.417
0
LINE
8
BLACK
6
CONTINUOUS
10
291.688
20
-161.417
11
291.407
21
-161.242
0
LINE
8
BLACK
6
CONTINUOUS
10
291.407
20
-161.242
11
291.149
21
-161.034
0
LINE
8
BLACK
6
CONTINUOUS
10
291.149
20
-161.034
11
290.918
21
-160.797
0
LINE
8
BLACK
6
CONTINUOUS
10
290.918
20
-160.797
11
290.717
21
-160.534
0
LINE
8
BLACK
6
CONTINUOUS
10
290.717
20
-160.534
11
290.55
21
-160.248
0
LINE
8
BLACK
6
CONTINUOUS
10
290.55
20
-160.248
11
290.417
21
-159.945
0
LINE
8
BLACK
6
CONTINUOUS
10
290.417
20
-159.945
11
290.323
21
-159.628
0
LINE
8
BLACK
6
CONTINUOUS
10
290.323
20
-159.628
11
290.267
21
-159.302
0
LINE
8
BLACK
6
CONTINUOUS
10
290.267
20
-159.302
11
290.25
21
-158.972
0
LINE
8
BLACK
6
CONTINUOUS
10
290.25
20
-158.972
11
290.25
21
-158.971
0
LINE
8
BLACK
6
CONTINUOUS
10
290.25
20
-158.971
11
290.274
21
-158.641
0
LINE
8
BLACK
6
CONTINUOUS
10
290.415
20
-159.606
11
290.507
21
-159.912
0
LINE
8
BLACK
6
CONTINUOUS
10
290.507
20
-159.912
11
290.635
21
-160.205
0
LINE
8
BLACK
6
CONTINUOUS
10
290.635
20
-160.205
11
290.796
21
-160.481
0
LINE
8
BLACK
6
CONTINUOUS
10
290.796
20
-160.481
11
290.99
21
-160.735
0
LINE
8
BLACK
6
CONTINUOUS
10
290.99
20
-160.735
11
291.213
21
-160.964
0
LINE
8
BLACK
6
CONTINUOUS
10
291.213
20
-160.964
11
291.462
21
-161.164
0
LINE
8
BLACK
6
CONTINUOUS
10
291.462
20
-161.164
11
291.733
21
-161.333
0
LINE
8
BLACK
6
CONTINUOUS
10
291.733
20
-161.333
11
292.023
21
-161.468
0
LINE
8
BLACK
6
CONTINUOUS
10
292.023
20
-161.468
11
292.326
21
-161.568
0
LINE
8
BLACK
6
CONTINUOUS
10
292.326
20
-161.568
11
292.64
21
-161.63
0
LINE
8
BLACK
6
CONTINUOUS
10
292.64
20
-161.63
11
292.958
21
-161.655
0
LINE
8
BLACK
6
CONTINUOUS
10
292.958
20
-161.655
11
293.278
21
-161.64
0
LINE
8
BLACK
6
CONTINUOUS
10
293.278
20
-161.64
11
293.593
21
-161.588
0
LINE
8
BLACK
6
CONTINUOUS
10
293.593
20
-161.588
11
293.899
21
-161.498
0
LINE
8
BLACK
6
CONTINUOUS
10
293.899
20
-161.498
11
294.193
21
-161.372
0
LINE
8
BLACK
6
CONTINUOUS
10
294.193
20
-161.372
11
294.469
21
-161.211
0
LINE
8
BLACK
6
CONTINUOUS
10
294.469
20
-161.211
11
294.724
21
-161.019
0
LINE
8
BLACK
6
CONTINUOUS
10
294.724
20
-161.019
11
294.954
21
-160.797
0
LINE
8
BLACK
6
CONTINUOUS
10
294.954
20
-160.797
11
295.156
21
-160.549
0
LINE
8
BLACK
6
CONTINUOUS
10
295.156
20
-160.549
11
295.326
21
-160.279
0
LINE
8
BLACK
6
CONTINUOUS
10
295.326
20
-160.279
11
295.463
21
-159.99
0
LINE
8
BLACK
6
CONTINUOUS
10
295.463
20
-159.99
11
295.564
21
-159.687
0
LINE
8
BLACK
6
CONTINUOUS
10
295.564
20
-159.687
11
295.628
21
-159.374
0
LINE
8
BLACK
6
CONTINUOUS
10
295.628
20
-159.374
11
295.654
21
-159.056
0
LINE
8
BLACK
6
CONTINUOUS
10
295.654
20
-159.056
11
295.655
21
-159
0
LINE
8
BLACK
6
CONTINUOUS
10
295.655
20
-159
11
295.636
21
-158.681
0
LINE
8
BLACK
6
CONTINUOUS
10
295.636
20
-158.681
11
295.578
21
-158.367
0
LINE
8
BLACK
6
CONTINUOUS
10
295.578
20
-158.367
11
295.483
21
-158.062
0
LINE
8
BLACK
6
CONTINUOUS
10
295.483
20
-158.062
11
295.353
21
-157.77
0
LINE
8
BLACK
6
CONTINUOUS
10
295.353
20
-157.77
11
295.188
21
-157.496
0
LINE
8
BLACK
6
CONTINUOUS
10
295.188
20
-157.496
11
294.991
21
-157.244
0
LINE
8
BLACK
6
CONTINUOUS
10
294.991
20
-157.244
11
294.766
21
-157.018
0
LINE
8
BLACK
6
CONTINUOUS
10
294.766
20
-157.018
11
294.515
21
-156.82
0
LINE
8
BLACK
6
CONTINUOUS
10
294.515
20
-156.82
11
294.242
21
-156.654
0
LINE
8
BLACK
6
CONTINUOUS
10
294.242
20
-156.654
11
293.951
21
-156.521
0
LINE
8
BLACK
6
CONTINUOUS
10
293.951
20
-156.521
11
293.647
21
-156.425
0
LINE
8
BLACK
6
CONTINUOUS
10
293.647
20
-156.425
11
293.333
21
-156.366
0
LINE
8
BLACK
6
CONTINUOUS
10
293.333
20
-156.366
11
293.014
21
-156.345
0
LINE
8
BLACK
6
CONTINUOUS
10
293.014
20
-156.345
11
292.695
21
-156.363
0
LINE
8
BLACK
6
CONTINUOUS
10
292.695
20
-156.363
11
292.38
21
-156.419
0
LINE
8
BLACK
6
CONTINUOUS
10
292.38
20
-156.419
11
292.075
21
-156.512
0
LINE
8
BLACK
6
CONTINUOUS
10
292.075
20
-156.512
11
291.782
21
-156.641
0
LINE
8
BLACK
6
CONTINUOUS
10
291.782
20
-156.641
11
291.508
21
-156.804
0
LINE
8
BLACK
6
CONTINUOUS
10
291.508
20
-156.804
11
291.255
21
-156.999
0
LINE
8
BLACK
6
CONTINUOUS
10
291.255
20
-156.999
11
291.027
21
-157.224
0
LINE
8
BLACK
6
CONTINUOUS
10
291.027
20
-157.224
11
290.828
21
-157.473
0
LINE
8
BLACK
6
CONTINUOUS
10
290.828
20
-157.473
11
290.66
21
-157.745
0
LINE
8
BLACK
6
CONTINUOUS
10
290.66
20
-157.745
11
290.527
21
-158.036
0
LINE
8
BLACK
6
CONTINUOUS
10
290.527
20
-158.036
11
290.429
21
-158.34
0
LINE
8
BLACK
6
CONTINUOUS
10
290.429
20
-158.34
11
290.368
21
-158.653
0
LINE
8
BLACK
6
CONTINUOUS
10
290.368
20
-158.653
11
290.345
21
-158.972
0
LINE
8
BLACK
6
CONTINUOUS
10
290.345
20
-158.972
11
290.361
21
-159.291
0
LINE
8
BLACK
6
CONTINUOUS
10
290.361
20
-159.291
11
290.415
21
-159.606
0
LINE
8
BLACK
6
CONTINUOUS
10
351.674
20
-158.541
11
351.736
21
-158.216
0
LINE
8
BLACK
6
CONTINUOUS
10
351.736
20
-158.216
11
351.838
21
-157.901
0
LINE
8
BLACK
6
CONTINUOUS
10
351.838
20
-157.901
11
351.976
21
-157.6
0
LINE
8
BLACK
6
CONTINUOUS
10
351.976
20
-157.6
11
352.15
21
-157.319
0
LINE
8
BLACK
6
CONTINUOUS
10
352.15
20
-157.319
11
352.356
21
-157.06
0
LINE
8
BLACK
6
CONTINUOUS
10
352.356
20
-157.06
11
352.592
21
-156.828
0
LINE
8
BLACK
6
CONTINUOUS
10
352.592
20
-156.828
11
352.854
21
-156.626
0
LINE
8
BLACK
6
CONTINUOUS
10
352.854
20
-156.626
11
353.139
21
-156.456
0
LINE
8
BLACK
6
CONTINUOUS
10
353.139
20
-156.456
11
353.441
21
-156.322
0
LINE
8
BLACK
6
CONTINUOUS
10
353.441
20
-156.322
11
353.758
21
-156.226
0
LINE
8
BLACK
6
CONTINUOUS
10
353.758
20
-156.226
11
354.084
21
-156.168
0
LINE
8
BLACK
6
CONTINUOUS
10
354.084
20
-156.168
11
354.414
21
-156.15
0
LINE
8
BLACK
6
CONTINUOUS
10
354.414
20
-156.15
11
354.745
21
-156.172
0
LINE
8
BLACK
6
CONTINUOUS
10
354.745
20
-156.172
11
355.07
21
-156.233
0
LINE
8
BLACK
6
CONTINUOUS
10
355.07
20
-156.233
11
355.386
21
-156.333
0
LINE
8
BLACK
6
CONTINUOUS
10
355.386
20
-156.333
11
355.687
21
-156.47
0
LINE
8
BLACK
6
CONTINUOUS
10
355.687
20
-156.47
11
355.969
21
-156.642
0
LINE
8
BLACK
6
CONTINUOUS
10
355.969
20
-156.642
11
356.229
21
-156.847
0
LINE
8
BLACK
6
CONTINUOUS
10
356.229
20
-156.847
11
356.463
21
-157.081
0
LINE
8
BLACK
6
CONTINUOUS
10
356.463
20
-157.081
11
356.666
21
-157.342
0
LINE
8
BLACK
6
CONTINUOUS
10
356.666
20
-157.342
11
356.837
21
-157.626
0
LINE
8
BLACK
6
CONTINUOUS
10
356.837
20
-157.626
11
356.972
21
-157.928
0
LINE
8
BLACK
6
CONTINUOUS
10
356.972
20
-157.928
11
357.071
21
-158.244
0
LINE
8
BLACK
6
CONTINUOUS
10
357.071
20
-158.244
11
357.13
21
-158.57
0
LINE
8
BLACK
6
CONTINUOUS
10
357.13
20
-158.57
11
357.15
21
-158.9
0
LINE
8
BLACK
6
CONTINUOUS
10
357.15
20
-158.9
11
357.149
21
-158.958
0
LINE
8
BLACK
6
CONTINUOUS
10
357.149
20
-158.958
11
357.123
21
-159.287
0
LINE
8
BLACK
6
CONTINUOUS
10
357.123
20
-159.287
11
357.056
21
-159.612
0
LINE
8
BLACK
6
CONTINUOUS
10
357.056
20
-159.612
11
356.952
21
-159.926
0
LINE
8
BLACK
6
CONTINUOUS
10
356.952
20
-159.926
11
356.81
21
-160.225
0
LINE
8
BLACK
6
CONTINUOUS
10
356.81
20
-160.225
11
356.633
21
-160.505
0
LINE
8
BLACK
6
CONTINUOUS
10
356.633
20
-160.505
11
356.424
21
-160.761
0
LINE
8
BLACK
6
CONTINUOUS
10
356.424
20
-160.761
11
356.186
21
-160.991
0
LINE
8
BLACK
6
CONTINUOUS
10
356.186
20
-160.991
11
355.922
21
-161.191
0
LINE
8
BLACK
6
CONTINUOUS
10
355.922
20
-161.191
11
355.636
21
-161.357
0
LINE
8
BLACK
6
CONTINUOUS
10
355.636
20
-161.357
11
355.332
21
-161.487
0
LINE
8
BLACK
6
CONTINUOUS
10
355.332
20
-161.487
11
355.014
21
-161.581
0
LINE
8
BLACK
6
CONTINUOUS
10
355.014
20
-161.581
11
354.687
21
-161.635
0
LINE
8
BLACK
6
CONTINUOUS
10
354.687
20
-161.635
11
354.357
21
-161.65
0
LINE
8
BLACK
6
CONTINUOUS
10
354.357
20
-161.65
11
354.027
21
-161.625
0
LINE
8
BLACK
6
CONTINUOUS
10
354.027
20
-161.625
11
353.702
21
-161.56
0
LINE
8
BLACK
6
CONTINUOUS
10
353.702
20
-161.56
11
353.388
21
-161.457
0
LINE
8
BLACK
6
CONTINUOUS
10
353.388
20
-161.457
11
353.088
21
-161.317
0
LINE
8
BLACK
6
CONTINUOUS
10
353.088
20
-161.317
11
352.807
21
-161.142
0
LINE
8
BLACK
6
CONTINUOUS
10
352.807
20
-161.142
11
352.549
21
-160.934
0
LINE
8
BLACK
6
CONTINUOUS
10
352.549
20
-160.934
11
352.318
21
-160.697
0
LINE
8
BLACK
6
CONTINUOUS
10
352.318
20
-160.697
11
352.117
21
-160.434
0
LINE
8
BLACK
6
CONTINUOUS
10
352.117
20
-160.434
11
351.95
21
-160.148
0
LINE
8
BLACK
6
CONTINUOUS
10
351.95
20
-160.148
11
351.817
21
-159.845
0
LINE
8
BLACK
6
CONTINUOUS
10
351.817
20
-159.845
11
351.723
21
-159.528
0
LINE
8
BLACK
6
CONTINUOUS
10
351.723
20
-159.528
11
351.667
21
-159.202
0
LINE
8
BLACK
6
CONTINUOUS
10
351.667
20
-159.202
11
351.65
21
-158.872
0
LINE
8
BLACK
6
CONTINUOUS
10
351.65
20
-158.872
11
351.65
21
-158.871
0
LINE
8
BLACK
6
CONTINUOUS
10
351.65
20
-158.871
11
351.674
21
-158.541
0
LINE
8
BLACK
6
CONTINUOUS
10
351.815
20
-159.506
11
351.907
21
-159.812
0
LINE
8
BLACK
6
CONTINUOUS
10
351.907
20
-159.812
11
352.035
21
-160.105
0
LINE
8
BLACK
6
CONTINUOUS
10
352.035
20
-160.105
11
352.196
21
-160.381
0
LINE
8
BLACK
6
CONTINUOUS
10
352.196
20
-160.381
11
352.39
21
-160.635
0
LINE
8
BLACK
6
CONTINUOUS
10
352.39
20
-160.635
11
352.613
21
-160.864
0
LINE
8
BLACK
6
CONTINUOUS
10
352.613
20
-160.864
11
352.862
21
-161.064
0
LINE
8
BLACK
6
CONTINUOUS
10
352.862
20
-161.064
11
353.133
21
-161.233
0
LINE
8
BLACK
6
CONTINUOUS
10
353.133
20
-161.233
11
353.423
21
-161.368
0
LINE
8
BLACK
6
CONTINUOUS
10
353.423
20
-161.368
11
353.726
21
-161.468
0
LINE
8
BLACK
6
CONTINUOUS
10
353.726
20
-161.468
11
354.04
21
-161.53
0
LINE
8
BLACK
6
CONTINUOUS
10
354.04
20
-161.53
11
354.358
21
-161.555
0
LINE
8
BLACK
6
CONTINUOUS
10
354.358
20
-161.555
11
354.678
21
-161.54
0
LINE
8
BLACK
6
CONTINUOUS
10
354.678
20
-161.54
11
354.993
21
-161.488
0
LINE
8
BLACK
6
CONTINUOUS
10
354.993
20
-161.488
11
355.299
21
-161.398
0
LINE
8
BLACK
6
CONTINUOUS
10
355.299
20
-161.398
11
355.593
21
-161.272
0
LINE
8
BLACK
6
CONTINUOUS
10
355.593
20
-161.272
11
355.869
21
-161.111
0
LINE
8
BLACK
6
CONTINUOUS
10
355.869
20
-161.111
11
356.124
21
-160.919
0
LINE
8
BLACK
6
CONTINUOUS
10
356.124
20
-160.919
11
356.354
21
-160.697
0
LINE
8
BLACK
6
CONTINUOUS
10
356.354
20
-160.697
11
356.556
21
-160.449
0
LINE
8
BLACK
6
CONTINUOUS
10
356.556
20
-160.449
11
356.726
21
-160.179
0
LINE
8
BLACK
6
CONTINUOUS
10
356.726
20
-160.179
11
356.863
21
-159.89
0
LINE
8
BLACK
6
CONTINUOUS
10
356.863
20
-159.89
11
356.964
21
-159.587
0
LINE
8
BLACK
6
CONTINUOUS
10
356.964
20
-159.587
11
357.028
21
-159.274
0
LINE
8
BLACK
6
CONTINUOUS
10
357.028
20
-159.274
11
357.054
21
-158.956
0
LINE
8
BLACK
6
CONTINUOUS
10
357.054
20
-158.956
11
357.055
21
-158.9
0
LINE
8
BLACK
6
CONTINUOUS
10
357.055
20
-158.9
11
357.036
21
-158.581
0
LINE
8
BLACK
6
CONTINUOUS
10
357.036
20
-158.581
11
356.978
21
-158.267
0
LINE
8
BLACK
6
CONTINUOUS
10
356.978
20
-158.267
11
356.883
21
-157.962
0
LINE
8
BLACK
6
CONTINUOUS
10
356.883
20
-157.962
11
356.753
21
-157.67
0
LINE
8
BLACK
6
CONTINUOUS
10
356.753
20
-157.67
11
356.588
21
-157.396
0
LINE
8
BLACK
6
CONTINUOUS
10
356.588
20
-157.396
11
356.391
21
-157.144
0
LINE
8
BLACK
6
CONTINUOUS
10
356.391
20
-157.144
11
356.166
21
-156.918
0
LINE
8
BLACK
6
CONTINUOUS
10
356.166
20
-156.918
11
355.915
21
-156.72
0
LINE
8
BLACK
6
CONTINUOUS
10
355.915
20
-156.72
11
355.642
21
-156.554
0
LINE
8
BLACK
6
CONTINUOUS
10
355.642
20
-156.554
11
355.351
21
-156.421
0
LINE
8
BLACK
6
CONTINUOUS
10
355.351
20
-156.421
11
355.047
21
-156.325
0
LINE
8
BLACK
6
CONTINUOUS
10
355.047
20
-156.325
11
354.733
21
-156.266
0
LINE
8
BLACK
6
CONTINUOUS
10
354.733
20
-156.266
11
354.414
21
-156.245
0
LINE
8
BLACK
6
CONTINUOUS
10
354.414
20
-156.245
11
354.095
21
-156.263
0
LINE
8
BLACK
6
CONTINUOUS
10
354.095
20
-156.263
11
353.78
21
-156.319
0
LINE
8
BLACK
6
CONTINUOUS
10
353.78
20
-156.319
11
353.475
21
-156.412
0
LINE
8
BLACK
6
CONTINUOUS
10
353.475
20
-156.412
11
353.182
21
-156.541
0
LINE
8
BLACK
6
CONTINUOUS
10
353.182
20
-156.541
11
352.908
21
-156.704
0
LINE
8
BLACK
6
CONTINUOUS
10
352.908
20
-156.704
11
352.655
21
-156.899
0
LINE
8
BLACK
6
CONTINUOUS
10
352.655
20
-156.899
11
352.427
21
-157.124
0
LINE
8
BLACK
6
CONTINUOUS
10
352.427
20
-157.124
11
352.228
21
-157.373
0
LINE
8
BLACK
6
CONTINUOUS
10
352.228
20
-157.373
11
352.06
21
-157.645
0
LINE
8
BLACK
6
CONTINUOUS
10
352.06
20
-157.645
11
351.927
21
-157.936
0
LINE
8
BLACK
6
CONTINUOUS
10
351.927
20
-157.936
11
351.829
21
-158.24
0
LINE
8
BLACK
6
CONTINUOUS
10
351.829
20
-158.24
11
351.768
21
-158.553
0
LINE
8
BLACK
6
CONTINUOUS
10
351.768
20
-158.553
11
351.745
21
-158.872
0
LINE
8
BLACK
6
CONTINUOUS
10
351.745
20
-158.872
11
351.761
21
-159.191
0
LINE
8
BLACK
6
CONTINUOUS
10
351.761
20
-159.191
11
351.815
21
-159.506
0
LINE
8
BLACK
6
CONTINUOUS
10
273.99
20
-152.046
11
273.583
21
-152.063
0
LINE
8
BLACK
6
CONTINUOUS
10
273.583
20
-152.063
11
273.169
21
-152.116
0
LINE
8
BLACK
6
CONTINUOUS
10
273.169
20
-152.116
11
272.76
21
-152.203
0
LINE
8
BLACK
6
CONTINUOUS
10
272.76
20
-152.203
11
272.361
21
-152.325
0
LINE
8
BLACK
6
CONTINUOUS
10
272.361
20
-152.325
11
271.973
21
-152.479
0
LINE
8
BLACK
6
CONTINUOUS
10
271.973
20
-152.479
11
271.6
21
-152.666
0
LINE
8
BLACK
6
CONTINUOUS
10
271.6
20
-152.666
11
271.243
21
-152.883
0
LINE
8
BLACK
6
CONTINUOUS
10
271.243
20
-152.883
11
270.906
21
-153.13
0
LINE
8
BLACK
6
CONTINUOUS
10
270.906
20
-153.13
11
270.592
21
-153.404
0
LINE
8
BLACK
6
CONTINUOUS
10
270.592
20
-153.404
11
270.301
21
-153.704
0
LINE
8
BLACK
6
CONTINUOUS
10
270.301
20
-153.704
11
270.043
21
-154.019
0
LINE
8
BLACK
6
CONTINUOUS
10
270.043
20
-154.019
11
270.041
21
-154.029
0
LINE
8
BLACK
6
CONTINUOUS
10
270.041
20
-154.029
11
247.041
21
-187.029
0
LINE
8
BLACK
6
CONTINUOUS
10
247.041
20
-187.029
11
247.04
21
-187.029
0
LINE
8
BLACK
6
CONTINUOUS
10
247.04
20
-187.029
11
247.04
21
-187.03
0
LINE
8
BLACK
6
CONTINUOUS
10
247.04
20
-187.03
11
246.771
21
-187.359
0
LINE
8
BLACK
6
CONTINUOUS
10
246.771
20
-187.359
11
246.474
21
-187.665
0
LINE
8
BLACK
6
CONTINUOUS
10
246.474
20
-187.665
11
246.153
21
-187.944
0
LINE
8
BLACK
6
CONTINUOUS
10
246.153
20
-187.944
11
245.81
21
-188.196
0
LINE
8
BLACK
6
CONTINUOUS
10
245.81
20
-188.196
11
245.447
21
-188.418
0
LINE
8
BLACK
6
CONTINUOUS
10
245.447
20
-188.418
11
245.066
21
-188.608
0
LINE
8
BLACK
6
CONTINUOUS
10
245.066
20
-188.608
11
244.671
21
-188.766
0
LINE
8
BLACK
6
CONTINUOUS
10
244.671
20
-188.766
11
244.264
21
-188.889
0
LINE
8
BLACK
6
CONTINUOUS
10
244.264
20
-188.889
11
243.847
21
-188.978
0
LINE
8
BLACK
6
CONTINUOUS
10
243.847
20
-188.978
11
243.425
21
-189.032
0
LINE
8
BLACK
6
CONTINUOUS
10
243.425
20
-189.032
11
243
21
-189.05
0
LINE
8
BLACK
6
CONTINUOUS
10
243
20
-189.05
11
162
21
-189.05
0
LINE
8
BLACK
6
CONTINUOUS
10
162
20
-189.05
11
161.575
21
-189.032
0
LINE
8
BLACK
6
CONTINUOUS
10
161.575
20
-189.032
11
161.153
21
-188.978
0
LINE
8
BLACK
6
CONTINUOUS
10
161.153
20
-188.978
11
160.736
21
-188.889
0
LINE
8
BLACK
6
CONTINUOUS
10
160.736
20
-188.889
11
160.329
21
-188.766
0
LINE
8
BLACK
6
CONTINUOUS
10
160.329
20
-188.766
11
159.934
21
-188.608
0
LINE
8
BLACK
6
CONTINUOUS
10
159.934
20
-188.608
11
159.553
21
-188.418
0
LINE
8
BLACK
6
CONTINUOUS
10
159.553
20
-188.418
11
159.19
21
-188.196
0
LINE
8
BLACK
6
CONTINUOUS
10
159.19
20
-188.196
11
158.847
21
-187.944
0
LINE
8
BLACK
6
CONTINUOUS
10
158.847
20
-187.944
11
158.526
21
-187.665
0
LINE
8
BLACK
6
CONTINUOUS
10
158.526
20
-187.665
11
158.229
21
-187.359
0
LINE
8
BLACK
6
CONTINUOUS
10
158.229
20
-187.359
11
157.96
21
-187.03
0
LINE
8
BLACK
6
CONTINUOUS
10
157.96
20
-187.03
11
157.96
21
-187.029
0
LINE
8
BLACK
6
CONTINUOUS
10
157.96
20
-187.029
11
157.959
21
-187.029
0
LINE
8
BLACK
6
CONTINUOUS
10
157.959
20
-187.029
11
134.959
21
-154.029
0
LINE
8
BLACK
6
CONTINUOUS
10
134.959
20
-154.029
11
134.957
21
-154.019
0
LINE
8
BLACK
6
CONTINUOUS
10
134.957
20
-154.019
11
134.699
21
-153.704
0
LINE
8
BLACK
6
CONTINUOUS
10
134.699
20
-153.704
11
134.408
21
-153.404
0
LINE
8
BLACK
6
CONTINUOUS
10
134.408
20
-153.404
11
134.094
21
-153.13
0
LINE
8
BLACK
6
CONTINUOUS
10
134.094
20
-153.13
11
133.757
21
-152.883
0
LINE
8
BLACK
6
CONTINUOUS
10
133.757
20
-152.883
11
133.4
21
-152.666
0
LINE
8
BLACK
6
CONTINUOUS
10
133.4
20
-152.666
11
133.027
21
-152.479
0
LINE
8
BLACK
6
CONTINUOUS
10
133.027
20
-152.479
11
132.639
21
-152.325
0
LINE
8
BLACK
6
CONTINUOUS
10
132.639
20
-152.325
11
132.24
21
-152.203
0
LINE
8
BLACK
6
CONTINUOUS
10
132.24
20
-152.203
11
131.831
21
-152.116
0
LINE
8
BLACK
6
CONTINUOUS
10
131.831
20
-152.116
11
131.417
21
-152.063
0
LINE
8
BLACK
6
CONTINUOUS
10
131.417
20
-152.063
11
131.01
21
-152.046
0
LINE
8
BLACK
6
CONTINUOUS
10
131.01
20
-152.046
11
131
21
-152.05
0
LINE
8
BLACK
6
CONTINUOUS
10
131
20
-152.05
11
29
21
-152.05
0
LINE
8
BLACK
6
CONTINUOUS
10
29
20
-152.05
11
28.6812
21
-152.033
0
LINE
8
BLACK
6
CONTINUOUS
10
28.6812
20
-152.033
11
28.3659
21
-151.983
0
LINE
8
BLACK
6
CONTINUOUS
10
28.3659
20
-151.983
11
28.0575
21
-151.901
0
LINE
8
BLACK
6
CONTINUOUS
10
28.0575
20
-151.901
11
27.7595
21
-151.786
0
LINE
8
BLACK
6
CONTINUOUS
10
27.7595
20
-151.786
11
27.475
21
-151.641
0
LINE
8
BLACK
6
CONTINUOUS
10
27.475
20
-151.641
11
27.2073
21
-151.468
0
LINE
8
BLACK
6
CONTINUOUS
10
27.2073
20
-151.468
11
26.9592
21
-151.267
0
LINE
8
BLACK
6
CONTINUOUS
10
26.9592
20
-151.267
11
26.7334
21
-151.041
0
LINE
8
BLACK
6
CONTINUOUS
10
26.7334
20
-151.041
11
26.5325
21
-150.793
0
LINE
8
BLACK
6
CONTINUOUS
10
26.5325
20
-150.793
11
26.3586
21
-150.525
0
LINE
8
BLACK
6
CONTINUOUS
10
26.3586
20
-150.525
11
26.2137
21
-150.241
0
LINE
8
BLACK
6
CONTINUOUS
10
26.2137
20
-150.241
11
26.0993
21
-149.943
0
LINE
8
BLACK
6
CONTINUOUS
10
26.0993
20
-149.943
11
26.0166
21
-149.634
0
LINE
8
BLACK
6
CONTINUOUS
10
26.0166
20
-149.634
11
25.9667
21
-149.319
0
LINE
8
BLACK
6
CONTINUOUS
10
25.9667
20
-149.319
11
25.95
21
-149
0
LINE
8
BLACK
6
CONTINUOUS
10
25.95
20
-149
11
25.95
21
-60.5
0
LINE
8
BLACK
6
CONTINUOUS
10
25.95
20
-60.5
11
25.9667
21
-60.1812
0
LINE
8
BLACK
6
CONTINUOUS
10
25.9667
20
-60.1812
11
26.0166
21
-59.8659
0
LINE
8
BLACK
6
CONTINUOUS
10
26.0166
20
-59.8659
11
26.0993
21
-59.5575
0
LINE
8
BLACK
6
CONTINUOUS
10
26.0993
20
-59.5575
11
26.2137
21
-59.2595
0
LINE
8
BLACK
6
CONTINUOUS
10
26.2137
20
-59.2595
11
26.3586
21
-58.975
0
LINE
8
BLACK
6
CONTINUOUS
10
26.3586
20
-58.975
11
26.5325
21
-58.7073
0
LINE
8
BLACK
6
CONTINUOUS
10
26.5325
20
-58.7073
11
26.7334
21
-58.4592
0
LINE
8
BLACK
6
CONTINUOUS
10
26.7334
20
-58.4592
11
26.9592
21
-58.2334
0
LINE
8
BLACK
6
CONTINUOUS
10
26.9592
20
-58.2334
11
27.2073
21
-58.0325
0
LINE
8
BLACK
6
CONTINUOUS
10
27.2073
20
-58.0325
11
27.475
21
-57.8586
0
LINE
8
BLACK
6
CONTINUOUS
10
27.475
20
-57.8586
11
27.7595
21
-57.7137
0
LINE
8
BLACK
6
CONTINUOUS
10
27.7595
20
-57.7137
11
28.0575
21
-57.5993
0
LINE
8
BLACK
6
CONTINUOUS
10
28.0575
20
-57.5993
11
28.3659
21
-57.5166
0
LINE
8
BLACK
6
CONTINUOUS
10
28.3659
20
-57.5166
11
28.6812
21
-57.4667
0
LINE
8
BLACK
6
CONTINUOUS
10
28.6812
20
-57.4667
11
29
21
-57.45
0
LINE
8
BLACK
6
CONTINUOUS
10
29
20
-57.45
11
387
21
-57.45
0
LINE
8
BLACK
6
CONTINUOUS
10
387
20
-57.45
11
387.319
21
-57.4667
0
LINE
8
BLACK
6
CONTINUOUS
10
387.319
20
-57.4667
11
387.634
21
-57.5166
0
LINE
8
BLACK
6
CONTINUOUS
10
387.634
20
-57.5166
11
387.943
21
-57.5993
0
LINE
8
BLACK
6
CONTINUOUS
10
387.943
20
-57.5993
11
388.241
21
-57.7137
0
LINE
8
BLACK
6
CONTINUOUS
10
388.241
20
-57.7137
11
388.525
21
-57.8586
0
LINE
8
BLACK
6
CONTINUOUS
10
388.525
20
-57.8586
11
388.793
21
-58.0325
0
LINE
8
BLACK
6
CONTINUOUS
10
388.793
20
-58.0325
11
389.041
21
-58.2334
0
LINE
8
BLACK
6
CONTINUOUS
10
389.041
20
-58.2334
11
389.267
21
-58.4592
0
LINE
8
BLACK
6
CONTINUOUS
10
389.267
20
-58.4592
11
389.468
21
-58.7073
0
LINE
8
BLACK
6
CONTINUOUS
10
389.468
20
-58.7073
11
389.641
21
-58.975
0
LINE
8
BLACK
6
CONTINUOUS
10
389.641
20
-58.975
11
389.786
21
-59.2595
0
LINE
8
BLACK
6
CONTINUOUS
10
389.786
20
-59.2595
11
389.901
21
-59.5575
0
LINE
8
BLACK
6
CONTINUOUS
10
389.901
20
-59.5575
11
389.983
21
-59.8659
0
LINE
8
BLACK
6
CONTINUOUS
10
389.983
20
-59.8659
11
390.033
21
-60.1812
0
LINE
8
BLACK
6
CONTINUOUS
10
390.033
20
-60.1812
11
390.05
21
-60.5
0
LINE
8
BLACK
6
CONTINUOUS
10
390.05
20
-60.5
11
390.05
21
-149
0
LINE
8
BLACK
6
CONTINUOUS
10
390.05
20
-149
11
390.033
21
-149.319
0
LINE
8
BLACK
6
CONTINUOUS
10
390.033
20
-149.319
11
389.983
21
-149.634
0
LINE
8
BLACK
6
CONTINUOUS
10
389.983
20
-149.634
11
389.901
21
-149.943
0
LINE
8
BLACK
6
CONTINUOUS
10
389.901
20
-149.943
11
389.786
21
-150.241
0
LINE
8
BLACK
6
CONTINUOUS
10
389.786
20
-150.241
11
389.641
21
-150.525
0
LINE
8
BLACK
6
CONTINUOUS
10
389.641
20
-150.525
11
389.468
21
-150.793
0
LINE
8
BLACK
6
CONTINUOUS
10
389.468
20
-150.793
11
389.267
21
-151.041
0
LINE
8
BLACK
6
CONTINUOUS
10
389.267
20
-151.041
11
389.041
21
-151.267
0
LINE
8
BLACK
6
CONTINUOUS
10
389.041
20
-151.267
11
388.793
21
-151.468
0
LINE
8
BLACK
6
CONTINUOUS
10
388.793
20
-151.468
11
388.525
21
-151.641
0
LINE
8
BLACK
6
CONTINUOUS
10
388.525
20
-151.641
11
388.241
21
-151.786
0
LINE
8
BLACK
6
CONTINUOUS
10
388.241
20
-151.786
11
387.943
21
-151.901
0
LINE
8
BLACK
6
CONTINUOUS
10
387.943
20
-151.901
11
387.634
21
-151.983
0
LINE
8
BLACK
6
CONTINUOUS
10
387.634
20
-151.983
11
387.319
21
-152.033
0
LINE
8
BLACK
6
CONTINUOUS
10
387.319
20
-152.033
11
387
21
-152.05
0
LINE
8
BLACK
6
CONTINUOUS
10
387
20
-152.05
11
274
21
-152.05
0
LINE
8
BLACK
6
CONTINUOUS
10
274
20
-152.05
11
273.99
21
-152.046
0
LINE
8
BLACK
6
CONTINUOUS
10
28.9901
20
-57.5459
11
28.6692
21
-57.5639
0
LINE
8
BLACK
6
CONTINUOUS
10
28.6692
20
-57.5639
11
28.3425
21
-57.6194
0
LINE
8
BLACK
6
CONTINUOUS
10
28.3425
20
-57.6194
11
28.0241
21
-57.7112
0
LINE
8
BLACK
6
CONTINUOUS
10
28.0241
20
-57.7112
11
27.718
21
-57.838
0
LINE
8
BLACK
6
CONTINUOUS
10
27.718
20
-57.838
11
27.428
21
-57.9982
0
LINE
8
BLACK
6
CONTINUOUS
10
27.428
20
-57.9982
11
27.1578
21
-58.19
0
LINE
8
BLACK
6
CONTINUOUS
10
27.1578
20
-58.19
11
26.9107
21
-58.4107
0
LINE
8
BLACK
6
CONTINUOUS
10
26.9107
20
-58.4107
11
26.69
21
-58.6578
0
LINE
8
BLACK
6
CONTINUOUS
10
26.69
20
-58.6578
11
26.4982
21
-58.928
0
LINE
8
BLACK
6
CONTINUOUS
10
26.4982
20
-58.928
11
26.338
21
-59.218
0
LINE
8
BLACK
6
CONTINUOUS
10
26.338
20
-59.218
11
26.2112
21
-59.5241
0
LINE
8
BLACK
6
CONTINUOUS
10
26.2112
20
-59.5241
11
26.1194
21
-59.8425
0
LINE
8
BLACK
6
CONTINUOUS
10
26.1194
20
-59.8425
11
26.0639
21
-60.1692
0
LINE
8
BLACK
6
CONTINUOUS
10
26.0639
20
-60.1692
11
26.0459
21
-60.4901
0
LINE
8
BLACK
6
CONTINUOUS
10
26.0459
20
-60.4901
11
26.05
21
-60.5
0
LINE
8
BLACK
6
CONTINUOUS
10
26.05
20
-60.5
11
26.05
21
-149
0
LINE
8
BLACK
6
CONTINUOUS
10
26.05
20
-149
11
26.0459
21
-149.01
0
LINE
8
BLACK
6
CONTINUOUS
10
26.0459
20
-149.01
11
26.0639
21
-149.331
0
LINE
8
BLACK
6
CONTINUOUS
10
26.0639
20
-149.331
11
26.1194
21
-149.657
0
LINE
8
BLACK
6
CONTINUOUS
10
26.1194
20
-149.657
11
26.2112
21
-149.976
0
LINE
8
BLACK
6
CONTINUOUS
10
26.2112
20
-149.976
11
26.338
21
-150.282
0
LINE
8
BLACK
6
CONTINUOUS
10
26.338
20
-150.282
11
26.4982
21
-150.572
0
LINE
8
BLACK
6
CONTINUOUS
10
26.4982
20
-150.572
11
26.69
21
-150.842
0
LINE
8
BLACK
6
CONTINUOUS
10
26.69
20
-150.842
11
26.9107
21
-151.089
0
LINE
8
BLACK
6
CONTINUOUS
10
26.9107
20
-151.089
11
27.1578
21
-151.31
0
LINE
8
BLACK
6
CONTINUOUS
10
27.1578
20
-151.31
11
27.428
21
-151.502
0
LINE
8
BLACK
6
CONTINUOUS
10
27.428
20
-151.502
11
27.718
21
-151.662
0
LINE
8
BLACK
6
CONTINUOUS
10
27.718
20
-151.662
11
28.0241
21
-151.789
0
LINE
8
BLACK
6
CONTINUOUS
10
28.0241
20
-151.789
11
28.3425
21
-151.881
0
LINE
8
BLACK
6
CONTINUOUS
10
28.3425
20
-151.881
11
28.6692
21
-151.936
0
LINE
8
BLACK
6
CONTINUOUS
10
28.6692
20
-151.936
11
28.9901
21
-151.954
0
LINE
8
BLACK
6
CONTINUOUS
10
28.9901
20
-151.954
11
29
21
-151.95
0
LINE
8
BLACK
6
CONTINUOUS
10
29
20
-151.95
11
131
21
-151.95
0
LINE
8
BLACK
6
CONTINUOUS
10
131
20
-151.95
11
131.425
21
-151.968
0
LINE
8
BLACK
6
CONTINUOUS
10
131.425
20
-151.968
11
131.847
21
-152.022
0
LINE
8
BLACK
6
CONTINUOUS
10
131.847
20
-152.022
11
132.264
21
-152.111
0
LINE
8
BLACK
6
CONTINUOUS
10
132.264
20
-152.111
11
132.671
21
-152.234
0
LINE
8
BLACK
6
CONTINUOUS
10
132.671
20
-152.234
11
133.066
21
-152.392
0
LINE
8
BLACK
6
CONTINUOUS
10
133.066
20
-152.392
11
133.447
21
-152.582
0
LINE
8
BLACK
6
CONTINUOUS
10
133.447
20
-152.582
11
133.81
21
-152.804
0
LINE
8
BLACK
6
CONTINUOUS
10
133.81
20
-152.804
11
134.153
21
-153.056
0
LINE
8
BLACK
6
CONTINUOUS
10
134.153
20
-153.056
11
134.474
21
-153.335
0
LINE
8
BLACK
6
CONTINUOUS
10
134.474
20
-153.335
11
134.771
21
-153.641
0
LINE
8
BLACK
6
CONTINUOUS
10
134.771
20
-153.641
11
135.04
21
-153.97
0
LINE
8
BLACK
6
CONTINUOUS
10
135.04
20
-153.97
11
135.04
21
-153.971
0
LINE
8
BLACK
6
CONTINUOUS
10
135.04
20
-153.971
11
135.041
21
-153.971
0
LINE
8
BLACK
6
CONTINUOUS
10
135.041
20
-153.971
11
158.041
21
-186.971
0
LINE
8
BLACK
6
CONTINUOUS
10
158.041
20
-186.971
11
158.043
21
-186.981
0
LINE
8
BLACK
6
CONTINUOUS
10
158.043
20
-186.981
11
158.301
21
-187.296
0
LINE
8
BLACK
6
CONTINUOUS
10
158.301
20
-187.296
11
158.592
21
-187.596
0
LINE
8
BLACK
6
CONTINUOUS
10
158.592
20
-187.596
11
158.906
21
-187.87
0
LINE
8
BLACK
6
CONTINUOUS
10
158.906
20
-187.87
11
159.243
21
-188.117
0
LINE
8
BLACK
6
CONTINUOUS
10
159.243
20
-188.117
11
159.6
21
-188.334
0
LINE
8
BLACK
6
CONTINUOUS
10
159.6
20
-188.334
11
159.973
21
-188.521
0
LINE
8
BLACK
6
CONTINUOUS
10
159.973
20
-188.521
11
160.361
21
-188.675
0
LINE
8
BLACK
6
CONTINUOUS
10
160.361
20
-188.675
11
160.76
21
-188.797
0
LINE
8
BLACK
6
CONTINUOUS
10
160.76
20
-188.797
11
161.169
21
-188.884
0
LINE
8
BLACK
6
CONTINUOUS
10
161.169
20
-188.884
11
161.583
21
-188.937
0
LINE
8
BLACK
6
CONTINUOUS
10
161.583
20
-188.937
11
161.99
21
-188.954
0
LINE
8
BLACK
6
CONTINUOUS
10
161.99
20
-188.954
11
162
21
-188.95
0
LINE
8
BLACK
6
CONTINUOUS
10
162
20
-188.95
11
243
21
-188.95
0
LINE
8
BLACK
6
CONTINUOUS
10
243
20
-188.95
11
243.01
21
-188.954
0
LINE
8
BLACK
6
CONTINUOUS
10
243.01
20
-188.954
11
243.417
21
-188.937
0
LINE
8
BLACK
6
CONTINUOUS
10
243.417
20
-188.937
11
243.831
21
-188.884
0
LINE
8
BLACK
6
CONTINUOUS
10
243.831
20
-188.884
11
244.24
21
-188.797
0
LINE
8
BLACK
6
CONTINUOUS
10
244.24
20
-188.797
11
244.639
21
-188.675
0
LINE
8
BLACK
6
CONTINUOUS
10
244.639
20
-188.675
11
245.027
21
-188.521
0
LINE
8
BLACK
6
CONTINUOUS
10
245.027
20
-188.521
11
245.4
21
-188.334
0
LINE
8
BLACK
6
CONTINUOUS
10
245.4
20
-188.334
11
245.757
21
-188.117
0
LINE
8
BLACK
6
CONTINUOUS
10
245.757
20
-188.117
11
246.094
21
-187.87
0
LINE
8
BLACK
6
CONTINUOUS
10
246.094
20
-187.87
11
246.408
21
-187.596
0
LINE
8
BLACK
6
CONTINUOUS
10
246.408
20
-187.596
11
246.699
21
-187.296
0
LINE
8
BLACK
6
CONTINUOUS
10
246.699
20
-187.296
11
246.957
21
-186.981
0
LINE
8
BLACK
6
CONTINUOUS
10
246.957
20
-186.981
11
246.959
21
-186.971
0
LINE
8
BLACK
6
CONTINUOUS
10
246.959
20
-186.971
11
269.959
21
-153.971
0
LINE
8
BLACK
6
CONTINUOUS
10
269.959
20
-153.971
11
269.96
21
-153.971
0
LINE
8
BLACK
6
CONTINUOUS
10
269.96
20
-153.971
11
269.96
21
-153.97
0
LINE
8
BLACK
6
CONTINUOUS
10
269.96
20
-153.97
11
270.229
21
-153.641
0
LINE
8
BLACK
6
CONTINUOUS
10
270.229
20
-153.641
11
270.526
21
-153.335
0
LINE
8
BLACK
6
CONTINUOUS
10
270.526
20
-153.335
11
270.847
21
-153.056
0
LINE
8
BLACK
6
CONTINUOUS
10
270.847
20
-153.056
11
271.19
21
-152.804
0
LINE
8
BLACK
6
CONTINUOUS
10
271.19
20
-152.804
11
271.553
21
-152.582
0
LINE
8
BLACK
6
CONTINUOUS
10
271.553
20
-152.582
11
271.934
21
-152.392
0
LINE
8
BLACK
6
CONTINUOUS
10
271.934
20
-152.392
11
272.329
21
-152.234
0
LINE
8
BLACK
6
CONTINUOUS
10
272.329
20
-152.234
11
272.736
21
-152.111
0
LINE
8
BLACK
6
CONTINUOUS
10
272.736
20
-152.111
11
273.153
21
-152.022
0
LINE
8
BLACK
6
CONTINUOUS
10
273.153
20
-152.022
11
273.575
21
-151.968
0
LINE
8
BLACK
6
CONTINUOUS
10
273.575
20
-151.968
11
274
21
-151.95
0
LINE
8
BLACK
6
CONTINUOUS
10
274
20
-151.95
11
387
21
-151.95
0
LINE
8
BLACK
6
CONTINUOUS
10
387
20
-151.95
11
387.01
21
-151.954
0
LINE
8
BLACK
6
CONTINUOUS
10
387.01
20
-151.954
11
387.331
21
-151.936
0
LINE
8
BLACK
6
CONTINUOUS
10
387.331
20
-151.936
11
387.657
21
-151.881
0
LINE
8
BLACK
6
CONTINUOUS
10
387.657
20
-151.881
11
387.976
21
-151.789
0
LINE
8
BLACK
6
CONTINUOUS
10
387.976
20
-151.789
11
388.282
21
-151.662
0
LINE
8
BLACK
6
CONTINUOUS
10
388.282
20
-151.662
11
388.572
21
-151.502
0
LINE
8
BLACK
6
CONTINUOUS
10
388.572
20
-151.502
11
388.842
21
-151.31
0
LINE
8
BLACK
6
CONTINUOUS
10
388.842
20
-151.31
11
389.089
21
-151.089
0
LINE
8
BLACK
6
CONTINUOUS
10
389.089
20
-151.089
11
389.31
21
-150.842
0
LINE
8
BLACK
6
CONTINUOUS
10
389.31
20
-150.842
11
389.502
21
-150.572
0
LINE
8
BLACK
6
CONTINUOUS
10
389.502
20
-150.572
11
389.662
21
-150.282
0
LINE
8
BLACK
6
CONTINUOUS
10
389.662
20
-150.282
11
389.789
21
-149.976
0
LINE
8
BLACK
6
CONTINUOUS
10
389.789
20
-149.976
11
389.881
21
-149.657
0
LINE
8
BLACK
6
CONTINUOUS
10
389.881
20
-149.657
11
389.936
21
-149.331
0
LINE
8
BLACK
6
CONTINUOUS
10
389.936
20
-149.331
11
389.954
21
-149.01
0
LINE
8
BLACK
6
CONTINUOUS
10
389.954
20
-149.01
11
389.95
21
-149
0
LINE
8
BLACK
6
CONTINUOUS
10
389.95
20
-149
11
389.95
21
-60.5
0
LINE
8
BLACK
6
CONTINUOUS
10
389.95
20
-60.5
11
389.954
21
-60.4901
0
LINE
8
BLACK
6
CONTINUOUS
10
389.954
20
-60.4901
11
389.936
21
-60.1692
0
LINE
8
BLACK
6
CONTINUOUS
10
389.936
20
-60.1692
11
389.881
21
-59.8425
0
LINE
8
BLACK
6
CONTINUOUS
10
389.881
20
-59.8425
11
389.789
21
-59.5241
0
LINE
8
BLACK
6
CONTINUOUS
10
389.789
20
-59.5241
11
389.662
21
-59.218
0
LINE
8
BLACK
6
CONTINUOUS
10
389.662
20
-59.218
11
389.502
21
-58.928
0
LINE
8
BLACK
6
CONTINUOUS
10
389.502
20
-58.928
11
389.31
21
-58.6578
0
LINE
8
BLACK
6
CONTINUOUS
10
389.31
20
-58.6578
11
389.089
21
-58.4107
0
LINE
8
BLACK
6
CONTINUOUS
10
389.089
20
-58.4107
11
388.842
21
-58.19
0
LINE
8
BLACK
6
CONTINUOUS
10
388.842
20
-58.19
11
388.572
21
-57.9982
0
LINE
8
BLACK
6
CONTINUOUS
10
388.572
20
-57.9982
11
388.282
21
-57.838
0
LINE
8
BLACK
6
CONTINUOUS
10
388.282
20
-57.838
11
387.976
21
-57.7112
0
LINE
8
BLACK
6
CONTINUOUS
10
387.976
20
-57.7112
11
387.657
21
-57.6194
0
LINE
8
BLACK
6
CONTINUOUS
10
387.657
20
-57.6194
11
387.331
21
-57.5639
0
LINE
8
BLACK
6
CONTINUOUS
10
387.331
20
-57.5639
11
387.01
21
-57.5459
0
LINE
8
BLACK
6
CONTINUOUS
10
387.01
20
-57.5459
11
387
21
-57.55
0
LINE
8
BLACK
6
CONTINUOUS
10
387
20
-57.55
11
29
21
-57.55
0
LINE
8
BLACK
6
CONTINUOUS
10
29
20
-57.55
11
28.9901
21
-57.5459
0
LINE
8
BLACK
6
CONTINUOUS
10
239.036
20
-182.283
11
239.134
21
-181.957
0
LINE
8
BLACK
6
CONTINUOUS
10
239.134
20
-181.957
11
239.268
21
-181.644
0
LINE
8
BLACK
6
CONTINUOUS
10
239.268
20
-181.644
11
239.436
21
-181.348
0
LINE
8
BLACK
6
CONTINUOUS
10
239.436
20
-181.348
11
239.636
21
-181.072
0
LINE
8
BLACK
6
CONTINUOUS
10
239.636
20
-181.072
11
239.866
21
-180.821
0
LINE
8
BLACK
6
CONTINUOUS
10
239.866
20
-180.821
11
240.122
21
-180.597
0
LINE
8
BLACK
6
CONTINUOUS
10
240.122
20
-180.597
11
240.402
21
-180.402
0
LINE
8
BLACK
6
CONTINUOUS
10
240.402
20
-180.402
11
240.701
21
-180.24
0
LINE
8
BLACK
6
CONTINUOUS
10
240.701
20
-180.24
11
241.017
21
-180.113
0
LINE
8
BLACK
6
CONTINUOUS
10
241.017
20
-180.113
11
241.345
21
-180.021
0
LINE
8
BLACK
6
CONTINUOUS
10
241.345
20
-180.021
11
241.681
21
-179.967
0
LINE
8
BLACK
6
CONTINUOUS
10
241.681
20
-179.967
11
242.021
21
-179.95
0
LINE
8
BLACK
6
CONTINUOUS
10
242.021
20
-179.95
11
242.361
21
-179.971
0
LINE
8
BLACK
6
CONTINUOUS
10
242.361
20
-179.971
11
242.696
21
-180.031
0
LINE
8
BLACK
6
CONTINUOUS
10
242.696
20
-180.031
11
243.023
21
-180.127
0
LINE
8
BLACK
6
CONTINUOUS
10
243.023
20
-180.127
11
243.337
21
-180.259
0
LINE
8
BLACK
6
CONTINUOUS
10
243.337
20
-180.259
11
243.634
21
-180.425
0
LINE
8
BLACK
6
CONTINUOUS
10
243.634
20
-180.425
11
243.911
21
-180.623
0
LINE
8
BLACK
6
CONTINUOUS
10
243.911
20
-180.623
11
244.164
21
-180.851
0
LINE
8
BLACK
6
CONTINUOUS
10
244.164
20
-180.851
11
244.39
21
-181.105
0
LINE
8
BLACK
6
CONTINUOUS
10
244.39
20
-181.105
11
244.587
21
-181.384
0
LINE
8
BLACK
6
CONTINUOUS
10
244.587
20
-181.384
11
244.751
21
-181.682
0
LINE
8
BLACK
6
CONTINUOUS
10
244.751
20
-181.682
11
244.88
21
-181.997
0
LINE
8
BLACK
6
CONTINUOUS
10
244.88
20
-181.997
11
244.974
21
-182.324
0
LINE
8
BLACK
6
CONTINUOUS
10
244.974
20
-182.324
11
245.031
21
-182.66
0
LINE
8
BLACK
6
CONTINUOUS
10
245.031
20
-182.66
11
245.05
21
-183
0
LINE
8
BLACK
6
CONTINUOUS
10
245.05
20
-183
11
245.049
21
-183.085
0
LINE
8
BLACK
6
CONTINUOUS
10
245.049
20
-183.085
11
245.02
21
-183.424
0
LINE
8
BLACK
6
CONTINUOUS
10
245.02
20
-183.424
11
244.954
21
-183.759
0
LINE
8
BLACK
6
CONTINUOUS
10
244.954
20
-183.759
11
244.851
21
-184.083
0
LINE
8
BLACK
6
CONTINUOUS
10
244.851
20
-184.083
11
244.713
21
-184.394
0
LINE
8
BLACK
6
CONTINUOUS
10
244.713
20
-184.394
11
244.54
21
-184.688
0
LINE
8
BLACK
6
CONTINUOUS
10
244.54
20
-184.688
11
244.336
21
-184.961
0
LINE
8
BLACK
6
CONTINUOUS
10
244.336
20
-184.961
11
244.103
21
-185.209
0
LINE
8
BLACK
6
CONTINUOUS
10
244.103
20
-185.209
11
243.844
21
-185.429
0
LINE
8
BLACK
6
CONTINUOUS
10
243.844
20
-185.429
11
243.562
21
-185.62
0
LINE
8
BLACK
6
CONTINUOUS
10
243.562
20
-185.62
11
243.26
21
-185.778
0
LINE
8
BLACK
6
CONTINUOUS
10
243.26
20
-185.778
11
242.943
21
-185.901
0
LINE
8
BLACK
6
CONTINUOUS
10
242.943
20
-185.901
11
242.613
21
-185.988
0
LINE
8
BLACK
6
CONTINUOUS
10
242.613
20
-185.988
11
242.276
21
-186.037
0
LINE
8
BLACK
6
CONTINUOUS
10
242.276
20
-186.037
11
241.936
21
-186.049
0
LINE
8
BLACK
6
CONTINUOUS
10
241.936
20
-186.049
11
241.597
21
-186.023
0
LINE
8
BLACK
6
CONTINUOUS
10
241.597
20
-186.023
11
241.262
21
-185.959
0
LINE
8
BLACK
6
CONTINUOUS
10
241.262
20
-185.959
11
240.937
21
-185.859
0
LINE
8
BLACK
6
CONTINUOUS
10
240.937
20
-185.859
11
240.625
21
-185.722
0
LINE
8
BLACK
6
CONTINUOUS
10
240.625
20
-185.722
11
240.33
21
-185.552
0
LINE
8
BLACK
6
CONTINUOUS
10
240.33
20
-185.552
11
240.056
21
-185.35
0
LINE
8
BLACK
6
CONTINUOUS
10
240.056
20
-185.35
11
239.806
21
-185.119
0
LINE
8
BLACK
6
CONTINUOUS
10
239.806
20
-185.119
11
239.584
21
-184.861
0
LINE
8
BLACK
6
CONTINUOUS
10
239.584
20
-184.861
11
239.391
21
-184.58
0
LINE
8
BLACK
6
CONTINUOUS
10
239.391
20
-184.58
11
239.231
21
-184.279
0
LINE
8
BLACK
6
CONTINUOUS
10
239.231
20
-184.279
11
239.106
21
-183.963
0
LINE
8
BLACK
6
CONTINUOUS
10
239.106
20
-183.963
11
239.017
21
-183.634
0
LINE
8
BLACK
6
CONTINUOUS
10
239.017
20
-183.634
11
238.965
21
-183.298
0
LINE
8
BLACK
6
CONTINUOUS
10
238.965
20
-183.298
11
238.95
21
-182.957
0
LINE
8
BLACK
6
CONTINUOUS
10
238.95
20
-182.957
11
238.954
21
-182.907
0
LINE
8
BLACK
6
CONTINUOUS
10
238.954
20
-182.907
11
238.974
21
-182.618
0
LINE
8
BLACK
6
CONTINUOUS
10
238.974
20
-182.618
11
239.036
21
-182.283
0
LINE
8
BLACK
6
CONTINUOUS
10
239.103
20
-183.584
11
239.19
21
-183.913
0
LINE
8
BLACK
6
CONTINUOUS
10
239.19
20
-183.913
11
239.313
21
-184.23
0
LINE
8
BLACK
6
CONTINUOUS
10
239.313
20
-184.23
11
239.472
21
-184.531
0
LINE
8
BLACK
6
CONTINUOUS
10
239.472
20
-184.531
11
239.665
21
-184.811
0
LINE
8
BLACK
6
CONTINUOUS
10
239.665
20
-184.811
11
239.889
21
-185.068
0
LINE
8
BLACK
6
CONTINUOUS
10
239.889
20
-185.068
11
240.14
21
-185.296
0
LINE
8
BLACK
6
CONTINUOUS
10
240.14
20
-185.296
11
240.417
21
-185.495
0
LINE
8
BLACK
6
CONTINUOUS
10
240.417
20
-185.495
11
240.714
21
-185.66
0
LINE
8
BLACK
6
CONTINUOUS
10
240.714
20
-185.66
11
241.028
21
-185.791
0
LINE
8
BLACK
6
CONTINUOUS
10
241.028
20
-185.791
11
241.355
21
-185.884
0
LINE
8
BLACK
6
CONTINUOUS
10
241.355
20
-185.884
11
241.691
21
-185.939
0
LINE
8
BLACK
6
CONTINUOUS
10
241.691
20
-185.939
11
242.031
21
-185.955
0
LINE
8
BLACK
6
CONTINUOUS
10
242.031
20
-185.955
11
242.37
21
-185.932
0
LINE
8
BLACK
6
CONTINUOUS
10
242.37
20
-185.932
11
242.705
21
-185.87
0
LINE
8
BLACK
6
CONTINUOUS
10
242.705
20
-185.87
11
243.03
21
-185.77
0
LINE
8
BLACK
6
CONTINUOUS
10
243.03
20
-185.77
11
243.342
21
-185.633
0
LINE
8
BLACK
6
CONTINUOUS
10
243.342
20
-185.633
11
243.635
21
-185.461
0
LINE
8
BLACK
6
CONTINUOUS
10
243.635
20
-185.461
11
243.907
21
-185.257
0
LINE
8
BLACK
6
CONTINUOUS
10
243.907
20
-185.257
11
244.154
21
-185.023
0
LINE
8
BLACK
6
CONTINUOUS
10
244.154
20
-185.023
11
244.372
21
-184.762
0
LINE
8
BLACK
6
CONTINUOUS
10
244.372
20
-184.762
11
244.559
21
-184.477
0
LINE
8
BLACK
6
CONTINUOUS
10
244.559
20
-184.477
11
244.712
21
-184.174
0
LINE
8
BLACK
6
CONTINUOUS
10
244.712
20
-184.174
11
244.829
21
-183.854
0
LINE
8
BLACK
6
CONTINUOUS
10
244.829
20
-183.854
11
244.908
21
-183.523
0
LINE
8
BLACK
6
CONTINUOUS
10
244.908
20
-183.523
11
244.949
21
-183.186
0
LINE
8
BLACK
6
CONTINUOUS
10
244.949
20
-183.186
11
244.955
21
-183
0
LINE
8
BLACK
6
CONTINUOUS
10
244.955
20
-183
11
244.935
21
-182.66
0
LINE
8
BLACK
6
CONTINUOUS
10
244.935
20
-182.66
11
244.877
21
-182.325
0
LINE
8
BLACK
6
CONTINUOUS
10
244.877
20
-182.325
11
244.78
21
-181.999
0
LINE
8
BLACK
6
CONTINUOUS
10
244.78
20
-181.999
11
244.647
21
-181.686
0
LINE
8
BLACK
6
CONTINUOUS
10
244.647
20
-181.686
11
244.478
21
-181.391
0
LINE
8
BLACK
6
CONTINUOUS
10
244.478
20
-181.391
11
244.277
21
-181.116
0
LINE
8
BLACK
6
CONTINUOUS
10
244.277
20
-181.116
11
244.045
21
-180.867
0
LINE
8
BLACK
6
CONTINUOUS
10
244.045
20
-180.867
11
243.787
21
-180.646
0
LINE
8
BLACK
6
CONTINUOUS
10
243.787
20
-180.646
11
243.504
21
-180.457
0
LINE
8
BLACK
6
CONTINUOUS
10
243.504
20
-180.457
11
243.202
21
-180.3
0
LINE
8
BLACK
6
CONTINUOUS
10
243.202
20
-180.3
11
242.884
21
-180.18
0
LINE
8
BLACK
6
CONTINUOUS
10
242.884
20
-180.18
11
242.554
21
-180.097
0
LINE
8
BLACK
6
CONTINUOUS
10
242.554
20
-180.097
11
242.216
21
-180.053
0
LINE
8
BLACK
6
CONTINUOUS
10
242.216
20
-180.053
11
241.876
21
-180.048
0
LINE
8
BLACK
6
CONTINUOUS
10
241.876
20
-180.048
11
241.538
21
-180.081
0
LINE
8
BLACK
6
CONTINUOUS
10
241.538
20
-180.081
11
241.205
21
-180.154
0
LINE
8
BLACK
6
CONTINUOUS
10
241.205
20
-180.154
11
240.883
21
-180.264
0
LINE
8
BLACK
6
CONTINUOUS
10
240.883
20
-180.264
11
240.576
21
-180.411
0
LINE
8
BLACK
6
CONTINUOUS
10
240.576
20
-180.411
11
240.288
21
-180.591
0
LINE
8
BLACK
6
CONTINUOUS
10
240.288
20
-180.591
11
240.023
21
-180.804
0
LINE
8
BLACK
6
CONTINUOUS
10
240.023
20
-180.804
11
239.783
21
-181.046
0
LINE
8
BLACK
6
CONTINUOUS
10
239.783
20
-181.046
11
239.574
21
-181.314
0
LINE
8
BLACK
6
CONTINUOUS
10
239.574
20
-181.314
11
239.396
21
-181.604
0
LINE
8
BLACK
6
CONTINUOUS
10
239.396
20
-181.604
11
239.253
21
-181.912
0
LINE
8
BLACK
6
CONTINUOUS
10
239.253
20
-181.912
11
239.146
21
-182.235
0
LINE
8
BLACK
6
CONTINUOUS
10
239.146
20
-182.235
11
239.077
21
-182.568
0
LINE
8
BLACK
6
CONTINUOUS
10
239.077
20
-182.568
11
239.046
21
-182.907
0
LINE
8
BLACK
6
CONTINUOUS
10
239.046
20
-182.907
11
239.055
21
-183.247
0
LINE
8
BLACK
6
CONTINUOUS
10
239.055
20
-183.247
11
239.103
21
-183.584
0
LINE
8
BLACK
6
CONTINUOUS
10
160.036
20
-182.283
11
160.134
21
-181.957
0
LINE
8
BLACK
6
CONTINUOUS
10
160.134
20
-181.957
11
160.268
21
-181.644
0
LINE
8
BLACK
6
CONTINUOUS
10
160.268
20
-181.644
11
160.436
21
-181.348
0
LINE
8
BLACK
6
CONTINUOUS
10
160.436
20
-181.348
11
160.636
21
-181.072
0
LINE
8
BLACK
6
CONTINUOUS
10
160.636
20
-181.072
11
160.866
21
-180.821
0
LINE
8
BLACK
6
CONTINUOUS
10
160.866
20
-180.821
11
161.122
21
-180.597
0
LINE
8
BLACK
6
CONTINUOUS
10
161.122
20
-180.597
11
161.402
21
-180.402
0
LINE
8
BLACK
6
CONTINUOUS
10
161.402
20
-180.402
11
161.701
21
-180.24
0
LINE
8
BLACK
6
CONTINUOUS
10
161.701
20
-180.24
11
162.017
21
-180.113
0
LINE
8
BLACK
6
CONTINUOUS
10
162.017
20
-180.113
11
162.345
21
-180.021
0
LINE
8
BLACK
6
CONTINUOUS
10
162.345
20
-180.021
11
162.681
21
-179.967
0
LINE
8
BLACK
6
CONTINUOUS
10
162.681
20
-179.967
11
163.021
21
-179.95
0
LINE
8
BLACK
6
CONTINUOUS
10
163.021
20
-179.95
11
163.361
21
-179.971
0
LINE
8
BLACK
6
CONTINUOUS
10
163.361
20
-179.971
11
163.696
21
-180.031
0
LINE
8
BLACK
6
CONTINUOUS
10
163.696
20
-180.031
11
164.023
21
-180.127
0
LINE
8
BLACK
6
CONTINUOUS
10
164.023
20
-180.127
11
164.337
21
-180.259
0
LINE
8
BLACK
6
CONTINUOUS
10
164.337
20
-180.259
11
164.634
21
-180.425
0
LINE
8
BLACK
6
CONTINUOUS
10
164.634
20
-180.425
11
164.911
21
-180.623
0
LINE
8
BLACK
6
CONTINUOUS
10
164.911
20
-180.623
11
165.164
21
-180.851
0
LINE
8
BLACK
6
CONTINUOUS
10
165.164
20
-180.851
11
165.39
21
-181.105
0
LINE
8
BLACK
6
CONTINUOUS
10
165.39
20
-181.105
11
165.587
21
-181.384
0
LINE
8
BLACK
6
CONTINUOUS
10
165.587
20
-181.384
11
165.751
21
-181.682
0
LINE
8
BLACK
6
CONTINUOUS
10
165.751
20
-181.682
11
165.88
21
-181.997
0
LINE
8
BLACK
6
CONTINUOUS
10
165.88
20
-181.997
11
165.974
21
-182.324
0
LINE
8
BLACK
6
CONTINUOUS
10
165.974
20
-182.324
11
166.031
21
-182.66
0
LINE
8
BLACK
6
CONTINUOUS
10
166.031
20
-182.66
11
166.05
21
-183
0
LINE
8
BLACK
6
CONTINUOUS
10
166.05
20
-183
11
166.049
21
-183.085
0
LINE
8
BLACK
6
CONTINUOUS
10
166.049
20
-183.085
11
166.02
21
-183.424
0
LINE
8
BLACK
6
CONTINUOUS
10
166.02
20
-183.424
11
165.954
21
-183.759
0
LINE
8
BLACK
6
CONTINUOUS
10
165.954
20
-183.759
11
165.851
21
-184.083
0
LINE
8
BLACK
6
CONTINUOUS
10
165.851
20
-184.083
11
165.713
21
-184.394
0
LINE
8
BLACK
6
CONTINUOUS
10
165.713
20
-184.394
11
165.54
21
-184.688
0
LINE
8
BLACK
6
CONTINUOUS
10
165.54
20
-184.688
11
165.336
21
-184.961
0
LINE
8
BLACK
6
CONTINUOUS
10
165.336
20
-184.961
11
165.103
21
-185.209
0
LINE
8
BLACK
6
CONTINUOUS
10
165.103
20
-185.209
11
164.844
21
-185.429
0
LINE
8
BLACK
6
CONTINUOUS
10
164.844
20
-185.429
11
164.562
21
-185.62
0
LINE
8
BLACK
6
CONTINUOUS
10
164.562
20
-185.62
11
164.26
21
-185.778
0
LINE
8
BLACK
6
CONTINUOUS
10
164.26
20
-185.778
11
163.943
21
-185.901
0
LINE
8
BLACK
6
CONTINUOUS
10
163.943
20
-185.901
11
163.613
21
-185.988
0
LINE
8
BLACK
6
CONTINUOUS
10
163.613
20
-185.988
11
163.276
21
-186.037
0
LINE
8
BLACK
6
CONTINUOUS
10
163.276
20
-186.037
11
162.936
21
-186.049
0
LINE
8
BLACK
6
CONTINUOUS
10
162.936
20
-186.049
11
162.597
21
-186.023
0
LINE
8
BLACK
6
CONTINUOUS
10
162.597
20
-186.023
11
162.262
21
-185.959
0
LINE
8
BLACK
6
CONTINUOUS
10
162.262
20
-185.959
11
161.937
21
-185.859
0
LINE
8
BLACK
6
CONTINUOUS
10
161.937
20
-185.859
11
161.625
21
-185.722
0
LINE
8
BLACK
6
CONTINUOUS
10
161.625
20
-185.722
11
161.33
21
-185.552
0
LINE
8
BLACK
6
CONTINUOUS
10
161.33
20
-185.552
11
161.056
21
-185.35
0
LINE
8
BLACK
6
CONTINUOUS
10
161.056
20
-185.35
11
160.806
21
-185.119
0
LINE
8
BLACK
6
CONTINUOUS
10
160.806
20
-185.119
11
160.584
21
-184.861
0
LINE
8
BLACK
6
CONTINUOUS
10
160.584
20
-184.861
11
160.391
21
-184.58
0
LINE
8
BLACK
6
CONTINUOUS
10
160.391
20
-184.58
11
160.231
21
-184.279
0
LINE
8
BLACK
6
CONTINUOUS
10
160.231
20
-184.279
11
160.106
21
-183.963
0
LINE
8
BLACK
6
CONTINUOUS
10
160.106
20
-183.963
11
160.017
21
-183.634
0
LINE
8
BLACK
6
CONTINUOUS
10
160.017
20
-183.634
11
159.965
21
-183.298
0
LINE
8
BLACK
6
CONTINUOUS
10
159.965
20
-183.298
11
159.95
21
-182.957
0
LINE
8
BLACK
6
CONTINUOUS
10
159.95
20
-182.957
11
159.954
21
-182.907
0
LINE
8
BLACK
6
CONTINUOUS
10
159.954
20
-182.907
11
159.974
21
-182.618
0
LINE
8
BLACK
6
CONTINUOUS
10
159.974
20
-182.618
11
160.036
21
-182.283
0
LINE
8
BLACK
6
CONTINUOUS
10
160.103
20
-183.584
11
160.19
21
-183.913
0
LINE
8
BLACK
6
CONTINUOUS
10
160.19
20
-183.913
11
160.313
21
-184.23
0
LINE
8
BLACK
6
CONTINUOUS
10
160.313
20
-184.23
11
160.472
21
-184.531
0
LINE
8
BLACK
6
CONTINUOUS
10
160.472
20
-184.531
11
160.665
21
-184.811
0
LINE
8
BLACK
6
CONTINUOUS
10
160.665
20
-184.811
11
160.889
21
-185.068
0
LINE
8
BLACK
6
CONTINUOUS
10
160.889
20
-185.068
11
161.14
21
-185.296
0
LINE
8
BLACK
6
CONTINUOUS
10
161.14
20
-185.296
11
161.417
21
-185.495
0
LINE
8
BLACK
6
CONTINUOUS
10
161.417
20
-185.495
11
161.714
21
-185.66
0
LINE
8
BLACK
6
CONTINUOUS
10
161.714
20
-185.66
11
162.028
21
-185.791
0
LINE
8
BLACK
6
CONTINUOUS
10
162.028
20
-185.791
11
162.355
21
-185.884
0
LINE
8
BLACK
6
CONTINUOUS
10
162.355
20
-185.884
11
162.691
21
-185.939
0
LINE
8
BLACK
6
CONTINUOUS
10
162.691
20
-185.939
11
163.031
21
-185.955
0
LINE
8
BLACK
6
CONTINUOUS
10
163.031
20
-185.955
11
163.37
21
-185.932
0
LINE
8
BLACK
6
CONTINUOUS
10
163.37
20
-185.932
11
163.705
21
-185.87
0
LINE
8
BLACK
6
CONTINUOUS
10
163.705
20
-185.87
11
164.03
21
-185.77
0
LINE
8
BLACK
6
CONTINUOUS
10
164.03
20
-185.77
11
164.342
21
-185.633
0
LINE
8
BLACK
6
CONTINUOUS
10
164.342
20
-185.633
11
164.635
21
-185.461
0
LINE
8
BLACK
6
CONTINUOUS
10
164.635
20
-185.461
11
164.907
21
-185.257
0
LINE
8
BLACK
6
CONTINUOUS
10
164.907
20
-185.257
11
165.154
21
-185.023
0
LINE
8
BLACK
6
CONTINUOUS
10
165.154
20
-185.023
11
165.372
21
-184.762
0
LINE
8
BLACK
6
CONTINUOUS
10
165.372
20
-184.762
11
165.559
21
-184.477
0
LINE
8
BLACK
6
CONTINUOUS
10
165.559
20
-184.477
11
165.712
21
-184.174
0
LINE
8
BLACK
6
CONTINUOUS
10
165.712
20
-184.174
11
165.829
21
-183.854
0
LINE
8
BLACK
6
CONTINUOUS
10
165.829
20
-183.854
11
165.908
21
-183.523
0
LINE
8
BLACK
6
CONTINUOUS
10
165.908
20
-183.523
11
165.949
21
-183.186
0
LINE
8
BLACK
6
CONTINUOUS
10
165.949
20
-183.186
11
165.955
21
-183
0
LINE
8
BLACK
6
CONTINUOUS
10
165.955
20
-183
11
165.935
21
-182.66
0
LINE
8
BLACK
6
CONTINUOUS
10
165.935
20
-182.66
11
165.877
21
-182.325
0
LINE
8
BLACK
6
CONTINUOUS
10
165.877
20
-182.325
11
165.78
21
-181.999
0
LINE
8
BLACK
6
CONTINUOUS
10
165.78
20
-181.999
11
165.647
21
-181.686
0
LINE
8
BLACK
6
CONTINUOUS
10
165.647
20
-181.686
11
165.478
21
-181.391
0
LINE
8
BLACK
6
CONTINUOUS
10
165.478
20
-181.391
11
165.277
21
-181.116
0
LINE
8
BLACK
6
CONTINUOUS
10
165.277
20
-181.116
11
165.045
21
-180.867
0
LINE
8
BLACK
6
CONTINUOUS
10
165.045
20
-180.867
11
164.787
21
-180.646
0
LINE
8
BLACK
6
CONTINUOUS
10
164.787
20
-180.646
11
164.504
21
-180.457
0
LINE
8
BLACK
6
CONTINUOUS
10
164.504
20
-180.457
11
164.202
21
-180.3
0
LINE
8
BLACK
6
CONTINUOUS
10
164.202
20
-180.3
11
163.884
21
-180.18
0
LINE
8
BLACK
6
CONTINUOUS
10
163.884
20
-180.18
11
163.554
21
-180.097
0
LINE
8
BLACK
6
CONTINUOUS
10
163.554
20
-180.097
11
163.216
21
-180.053
0
LINE
8
BLACK
6
CONTINUOUS
10
163.216
20
-180.053
11
162.876
21
-180.048
0
LINE
8
BLACK
6
CONTINUOUS
10
162.876
20
-180.048
11
162.538
21
-180.081
0
LINE
8
BLACK
6
CONTINUOUS
10
162.538
20
-180.081
11
162.205
21
-180.154
0
LINE
8
BLACK
6
CONTINUOUS
10
162.205
20
-180.154
11
161.883
21
-180.264
0
LINE
8
BLACK
6
CONTINUOUS
10
161.883
20
-180.264
11
161.576
21
-180.411
0
LINE
8
BLACK
6
CONTINUOUS
10
161.576
20
-180.411
11
161.288
21
-180.591
0
LINE
8
BLACK
6
CONTINUOUS
10
161.288
20
-180.591
11
161.023
21
-180.804
0
LINE
8
BLACK
6
CONTINUOUS
10
161.023
20
-180.804
11
160.783
21
-181.046
0
LINE
8
BLACK
6
CONTINUOUS
10
160.783
20
-181.046
11
160.574
21
-181.314
0
LINE
8
BLACK
6
CONTINUOUS
10
160.574
20
-181.314
11
160.396
21
-181.604
0
LINE
8
BLACK
6
CONTINUOUS
10
160.396
20
-181.604
11
160.253
21
-181.912
0
LINE
8
BLACK
6
CONTINUOUS
10
160.253
20
-181.912
11
160.146
21
-182.235
0
LINE
8
BLACK
6
CONTINUOUS
10
160.146
20
-182.235
11
160.077
21
-182.568
0
LINE
8
BLACK
6
CONTINUOUS
10
160.077
20
-182.568
11
160.046
21
-182.907
0
LINE
8
BLACK
6
CONTINUOUS
10
160.046
20
-182.907
11
160.055
21
-183.247
0
LINE
8
BLACK
6
CONTINUOUS
10
160.055
20
-183.247
11
160.103
21
-183.584
0
LINE
8
BLACK
6
CONTINUOUS
10
271.036
20
-146.283
11
271.134
21
-145.957
0
LINE
8
BLACK
6
CONTINUOUS
10
271.134
20
-145.957
11
271.268
21
-145.644
0
LINE
8
BLACK
6
CONTINUOUS
10
271.268
20
-145.644
11
271.436
21
-145.348
0
LINE
8
BLACK
6
CONTINUOUS
10
271.436
20
-145.348
11
271.636
21
-145.072
0
LINE
8
BLACK
6
CONTINUOUS
10
271.636
20
-145.072
11
271.866
21
-144.821
0
LINE
8
BLACK
6
CONTINUOUS
10
271.866
20
-144.821
11
272.122
21
-144.597
0
LINE
8
BLACK
6
CONTINUOUS
10
272.122
20
-144.597
11
272.402
21
-144.402
0
LINE
8
BLACK
6
CONTINUOUS
10
272.402
20
-144.402
11
272.701
21
-144.24
0
LINE
8
BLACK
6
CONTINUOUS
10
272.701
20
-144.24
11
273.017
21
-144.113
0
LINE
8
BLACK
6
CONTINUOUS
10
273.017
20
-144.113
11
273.345
21
-144.021
0
LINE
8
BLACK
6
CONTINUOUS
10
273.345
20
-144.021
11
273.681
21
-143.967
0
LINE
8
BLACK
6
CONTINUOUS
10
273.681
20
-143.967
11
274.021
21
-143.95
0
LINE
8
BLACK
6
CONTINUOUS
10
274.021
20
-143.95
11
274.361
21
-143.971
0
LINE
8
BLACK
6
CONTINUOUS
10
274.361
20
-143.971
11
274.696
21
-144.031
0
LINE
8
BLACK
6
CONTINUOUS
10
274.696
20
-144.031
11
275.023
21
-144.127
0
LINE
8
BLACK
6
CONTINUOUS
10
275.023
20
-144.127
11
275.337
21
-144.259
0
LINE
8
BLACK
6
CONTINUOUS
10
275.337
20
-144.259
11
275.634
21
-144.425
0
LINE
8
BLACK
6
CONTINUOUS
10
275.634
20
-144.425
11
275.911
21
-144.623
0
LINE
8
BLACK
6
CONTINUOUS
10
275.911
20
-144.623
11
276.164
21
-144.851
0
LINE
8
BLACK
6
CONTINUOUS
10
276.164
20
-144.851
11
276.39
21
-145.105
0
LINE
8
BLACK
6
CONTINUOUS
10
276.39
20
-145.105
11
276.587
21
-145.384
0
LINE
8
BLACK
6
CONTINUOUS
10
276.587
20
-145.384
11
276.751
21
-145.682
0
LINE
8
BLACK
6
CONTINUOUS
10
276.751
20
-145.682
11
276.88
21
-145.997
0
LINE
8
BLACK
6
CONTINUOUS
10
276.88
20
-145.997
11
276.974
21
-146.324
0
LINE
8
BLACK
6
CONTINUOUS
10
276.974
20
-146.324
11
277.031
21
-146.66
0
LINE
8
BLACK
6
CONTINUOUS
10
277.031
20
-146.66
11
277.05
21
-147
0
LINE
8
BLACK
6
CONTINUOUS
10
277.05
20
-147
11
277.049
21
-147.085
0
LINE
8
BLACK
6
CONTINUOUS
10
277.049
20
-147.085
11
277.02
21
-147.424
0
LINE
8
BLACK
6
CONTINUOUS
10
277.02
20
-147.424
11
276.954
21
-147.759
0
LINE
8
BLACK
6
CONTINUOUS
10
276.954
20
-147.759
11
276.851
21
-148.083
0
LINE
8
BLACK
6
CONTINUOUS
10
276.851
20
-148.083
11
276.713
21
-148.394
0
LINE
8
BLACK
6
CONTINUOUS
10
276.713
20
-148.394
11
276.54
21
-148.688
0
LINE
8
BLACK
6
CONTINUOUS
10
276.54
20
-148.688
11
276.336
21
-148.961
0
LINE
8
BLACK
6
CONTINUOUS
10
276.336
20
-148.961
11
276.103
21
-149.209
0
LINE
8
BLACK
6
CONTINUOUS
10
276.103
20
-149.209
11
275.844
21
-149.429
0
LINE
8
BLACK
6
CONTINUOUS
10
275.844
20
-149.429
11
275.562
21
-149.62
0
LINE
8
BLACK
6
CONTINUOUS
10
275.562
20
-149.62
11
275.26
21
-149.778
0
LINE
8
BLACK
6
CONTINUOUS
10
275.26
20
-149.778
11
274.943
21
-149.901
0
LINE
8
BLACK
6
CONTINUOUS
10
274.943
20
-149.901
11
274.613
21
-149.988
0
LINE
8
BLACK
6
CONTINUOUS
10
274.613
20
-149.988
11
274.276
21
-150.037
0
LINE
8
BLACK
6
CONTINUOUS
10
274.276
20
-150.037
11
273.936
21
-150.049
0
LINE
8
BLACK
6
CONTINUOUS
10
273.936
20
-150.049
11
273.597
21
-150.023
0
LINE
8
BLACK
6
CONTINUOUS
10
273.597
20
-150.023
11
273.262
21
-149.959
0
LINE
8
BLACK
6
CONTINUOUS
10
273.262
20
-149.959
11
272.937
21
-149.859
0
LINE
8
BLACK
6
CONTINUOUS
10
272.937
20
-149.859
11
272.625
21
-149.722
0
LINE
8
BLACK
6
CONTINUOUS
10
272.625
20
-149.722
11
272.33
21
-149.552
0
LINE
8
BLACK
6
CONTINUOUS
10
272.33
20
-149.552
11
272.056
21
-149.35
0
LINE
8
BLACK
6
CONTINUOUS
10
272.056
20
-149.35
11
271.806
21
-149.119
0
LINE
8
BLACK
6
CONTINUOUS
10
271.806
20
-149.119
11
271.584
21
-148.861
0
LINE
8
BLACK
6
CONTINUOUS
10
271.584
20
-148.861
11
271.391
21
-148.58
0
LINE
8
BLACK
6
CONTINUOUS
10
271.391
20
-148.58
11
271.231
21
-148.279
0
LINE
8
BLACK
6
CONTINUOUS
10
271.231
20
-148.279
11
271.106
21
-147.963
0
LINE
8
BLACK
6
CONTINUOUS
10
271.106
20
-147.963
11
271.017
21
-147.634
0
LINE
8
BLACK
6
CONTINUOUS
10
271.017
20
-147.634
11
270.965
21
-147.298
0
LINE
8
BLACK
6
CONTINUOUS
10
270.965
20
-147.298
11
270.95
21
-146.957
0
LINE
8
BLACK
6
CONTINUOUS
10
270.95
20
-146.957
11
270.954
21
-146.907
0
LINE
8
BLACK
6
CONTINUOUS
10
270.954
20
-146.907
11
270.974
21
-146.618
0
LINE
8
BLACK
6
CONTINUOUS
10
270.974
20
-146.618
11
271.036
21
-146.283
0
LINE
8
BLACK
6
CONTINUOUS
10
271.103
20
-147.584
11
271.19
21
-147.913
0
LINE
8
BLACK
6
CONTINUOUS
10
271.19
20
-147.913
11
271.313
21
-148.23
0
LINE
8
BLACK
6
CONTINUOUS
10
271.313
20
-148.23
11
271.472
21
-148.531
0
LINE
8
BLACK
6
CONTINUOUS
10
271.472
20
-148.531
11
271.665
21
-148.811
0
LINE
8
BLACK
6
CONTINUOUS
10
271.665
20
-148.811
11
271.889
21
-149.068
0
LINE
8
BLACK
6
CONTINUOUS
10
271.889
20
-149.068
11
272.14
21
-149.296
0
LINE
8
BLACK
6
CONTINUOUS
10
272.14
20
-149.296
11
272.417
21
-149.495
0
LINE
8
BLACK
6
CONTINUOUS
10
272.417
20
-149.495
11
272.714
21
-149.66
0
LINE
8
BLACK
6
CONTINUOUS
10
272.714
20
-149.66
11
273.028
21
-149.791
0
LINE
8
BLACK
6
CONTINUOUS
10
273.028
20
-149.791
11
273.355
21
-149.884
0
LINE
8
BLACK
6
CONTINUOUS
10
273.355
20
-149.884
11
273.691
21
-149.939
0
LINE
8
BLACK
6
CONTINUOUS
10
273.691
20
-149.939
11
274.031
21
-149.955
0
LINE
8
BLACK
6
CONTINUOUS
10
274.031
20
-149.955
11
274.37
21
-149.932
0
LINE
8
BLACK
6
CONTINUOUS
10
274.37
20
-149.932
11
274.705
21
-149.87
0
LINE
8
BLACK
6
CONTINUOUS
10
274.705
20
-149.87
11
275.03
21
-149.77
0
LINE
8
BLACK
6
CONTINUOUS
10
275.03
20
-149.77
11
275.342
21
-149.633
0
LINE
8
BLACK
6
CONTINUOUS
10
275.342
20
-149.633
11
275.635
21
-149.461
0
LINE
8
BLACK
6
CONTINUOUS
10
275.635
20
-149.461
11
275.907
21
-149.257
0
LINE
8
BLACK
6
CONTINUOUS
10
275.907
20
-149.257
11
276.154
21
-149.023
0
LINE
8
BLACK
6
CONTINUOUS
10
276.154
20
-149.023
11
276.372
21
-148.762
0
LINE
8
BLACK
6
CONTINUOUS
10
276.372
20
-148.762
11
276.559
21
-148.477
0
LINE
8
BLACK
6
CONTINUOUS
10
276.559
20
-148.477
11
276.712
21
-148.174
0
LINE
8
BLACK
6
CONTINUOUS
10
276.712
20
-148.174
11
276.829
21
-147.854
0
LINE
8
BLACK
6
CONTINUOUS
10
276.829
20
-147.854
11
276.908
21
-147.523
0
LINE
8
BLACK
6
CONTINUOUS
10
276.908
20
-147.523
11
276.949
21
-147.186
0
LINE
8
BLACK
6
CONTINUOUS
10
276.949
20
-147.186
11
276.955
21
-147
0
LINE
8
BLACK
6
CONTINUOUS
10
276.955
20
-147
11
276.935
21
-146.66
0
LINE
8
BLACK
6
CONTINUOUS
10
276.935
20
-146.66
11
276.877
21
-146.325
0
LINE
8
BLACK
6
CONTINUOUS
10
276.877
20
-146.325
11
276.78
21
-145.999
0
LINE
8
BLACK
6
CONTINUOUS
10
276.78
20
-145.999
11
276.647
21
-145.686
0
LINE
8
BLACK
6
CONTINUOUS
10
276.647
20
-145.686
11
276.478
21
-145.391
0
LINE
8
BLACK
6
CONTINUOUS
10
276.478
20
-145.391
11
276.277
21
-145.116
0
LINE
8
BLACK
6
CONTINUOUS
10
276.277
20
-145.116
11
276.045
21
-144.867
0
LINE
8
BLACK
6
CONTINUOUS
10
276.045
20
-144.867
11
275.787
21
-144.646
0
LINE
8
BLACK
6
CONTINUOUS
10
275.787
20
-144.646
11
275.504
21
-144.457
0
LINE
8
BLACK
6
CONTINUOUS
10
275.504
20
-144.457
11
275.202
21
-144.3
0
LINE
8
BLACK
6
CONTINUOUS
10
275.202
20
-144.3
11
274.884
21
-144.18
0
LINE
8
BLACK
6
CONTINUOUS
10
274.884
20
-144.18
11
274.554
21
-144.097
0
LINE
8
BLACK
6
CONTINUOUS
10
274.554
20
-144.097
11
274.216
21
-144.053
0
LINE
8
BLACK
6
CONTINUOUS
10
274.216
20
-144.053
11
273.876
21
-144.048
0
LINE
8
BLACK
6
CONTINUOUS
10
273.876
20
-144.048
11
273.538
21
-144.081
0
LINE
8
BLACK
6
CONTINUOUS
10
273.538
20
-144.081
11
273.205
21
-144.154
0
LINE
8
BLACK
6
CONTINUOUS
10
273.205
20
-144.154
11
272.883
21
-144.264
0
LINE
8
BLACK
6
CONTINUOUS
10
272.883
20
-144.264
11
272.576
21
-144.411
0
LINE
8
BLACK
6
CONTINUOUS
10
272.576
20
-144.411
11
272.288
21
-144.591
0
LINE
8
BLACK
6
CONTINUOUS
10
272.288
20
-144.591
11
272.023
21
-144.804
0
LINE
8
BLACK
6
CONTINUOUS
10
272.023
20
-144.804
11
271.783
21
-145.046
0
LINE
8
BLACK
6
CONTINUOUS
10
271.783
20
-145.046
11
271.574
21
-145.314
0
LINE
8
BLACK
6
CONTINUOUS
10
271.574
20
-145.314
11
271.396
21
-145.604
0
LINE
8
BLACK
6
CONTINUOUS
10
271.396
20
-145.604
11
271.253
21
-145.912
0
LINE
8
BLACK
6
CONTINUOUS
10
271.253
20
-145.912
11
271.146
21
-146.235
0
LINE
8
BLACK
6
CONTINUOUS
10
271.146
20
-146.235
11
271.077
21
-146.568
0
LINE
8
BLACK
6
CONTINUOUS
10
271.077
20
-146.568
11
271.046
21
-146.907
0
LINE
8
BLACK
6
CONTINUOUS
10
271.046
20
-146.907
11
271.055
21
-147.247
0
LINE
8
BLACK
6
CONTINUOUS
10
271.055
20
-147.247
11
271.103
21
-147.584
0
LINE
8
BLACK
6
CONTINUOUS
10
123.036
20
-146.283
11
123.134
21
-145.957
0
LINE
8
BLACK
6
CONTINUOUS
10
123.134
20
-145.957
11
123.268
21
-145.644
0
LINE
8
BLACK
6
CONTINUOUS
10
123.268
20
-145.644
11
123.436
21
-145.348
0
LINE
8
BLACK
6
CONTINUOUS
10
123.436
20
-145.348
11
123.636
21
-145.072
0
LINE
8
BLACK
6
CONTINUOUS
10
123.636
20
-145.072
11
123.866
21
-144.821
0
LINE
8
BLACK
6
CONTINUOUS
10
123.866
20
-144.821
11
124.122
21
-144.597
0
LINE
8
BLACK
6
CONTINUOUS
10
124.122
20
-144.597
11
124.402
21
-144.402
0
LINE
8
BLACK
6
CONTINUOUS
10
124.402
20
-144.402
11
124.701
21
-144.24
0
LINE
8
BLACK
6
CONTINUOUS
10
124.701
20
-144.24
11
125.017
21
-144.113
0
LINE
8
BLACK
6
CONTINUOUS
10
125.017
20
-144.113
11
125.345
21
-144.021
0
LINE
8
BLACK
6
CONTINUOUS
10
125.345
20
-144.021
11
125.681
21
-143.967
0
LINE
8
BLACK
6
CONTINUOUS
10
125.681
20
-143.967
11
126.021
21
-143.95
0
LINE
8
BLACK
6
CONTINUOUS
10
126.021
20
-143.95
11
126.361
21
-143.971
0
LINE
8
BLACK
6
CONTINUOUS
10
126.361
20
-143.971
11
126.696
21
-144.031
0
LINE
8
BLACK
6
CONTINUOUS
10
126.696
20
-144.031
11
127.023
21
-144.127
0
LINE
8
BLACK
6
CONTINUOUS
10
127.023
20
-144.127
11
127.337
21
-144.259
0
LINE
8
BLACK
6
CONTINUOUS
10
127.337
20
-144.259
11
127.634
21
-144.425
0
LINE
8
BLACK
6
CONTINUOUS
10
127.634
20
-144.425
11
127.911
21
-144.623
0
LINE
8
BLACK
6
CONTINUOUS
10
127.911
20
-144.623
11
128.164
21
-144.851
0
LINE
8
BLACK
6
CONTINUOUS
10
128.164
20
-144.851
11
128.39
21
-145.105
0
LINE
8
BLACK
6
CONTINUOUS
10
128.39
20
-145.105
11
128.587
21
-145.384
0
LINE
8
BLACK
6
CONTINUOUS
10
128.587
20
-145.384
11
128.751
21
-145.682
0
LINE
8
BLACK
6
CONTINUOUS
10
128.751
20
-145.682
11
128.88
21
-145.997
0
LINE
8
BLACK
6
CONTINUOUS
10
128.88
20
-145.997
11
128.974
21
-146.324
0
LINE
8
BLACK
6
CONTINUOUS
10
128.974
20
-146.324
11
129.031
21
-146.66
0
LINE
8
BLACK
6
CONTINUOUS
10
129.031
20
-146.66
11
129.05
21
-147
0
LINE
8
BLACK
6
CONTINUOUS
10
129.05
20
-147
11
129.049
21
-147.085
0
LINE
8
BLACK
6
CONTINUOUS
10
129.049
20
-147.085
11
129.02
21
-147.424
0
LINE
8
BLACK
6
CONTINUOUS
10
129.02
20
-147.424
11
128.954
21
-147.759
0
LINE
8
BLACK
6
CONTINUOUS
10
128.954
20
-147.759
11
128.851
21
-148.083
0
LINE
8
BLACK
6
CONTINUOUS
10
128.851
20
-148.083
11
128.713
21
-148.394
0
LINE
8
BLACK
6
CONTINUOUS
10
128.713
20
-148.394
11
128.54
21
-148.688
0
LINE
8
BLACK
6
CONTINUOUS
10
128.54
20
-148.688
11
128.336
21
-148.961
0
LINE
8
BLACK
6
CONTINUOUS
10
128.336
20
-148.961
11
128.103
21
-149.209
0
LINE
8
BLACK
6
CONTINUOUS
10
128.103
20
-149.209
11
127.844
21
-149.429
0
LINE
8
BLACK
6
CONTINUOUS
10
127.844
20
-149.429
11
127.562
21
-149.62
0
LINE
8
BLACK
6
CONTINUOUS
10
127.562
20
-149.62
11
127.26
21
-149.778
0
LINE
8
BLACK
6
CONTINUOUS
10
127.26
20
-149.778
11
126.943
21
-149.901
0
LINE
8
BLACK
6
CONTINUOUS
10
126.943
20
-149.901
11
126.613
21
-149.988
0
LINE
8
BLACK
6
CONTINUOUS
10
126.613
20
-149.988
11
126.276
21
-150.037
0
LINE
8
BLACK
6
CONTINUOUS
10
126.276
20
-150.037
11
125.936
21
-150.049
0
LINE
8
BLACK
6
CONTINUOUS
10
125.936
20
-150.049
11
125.597
21
-150.023
0
LINE
8
BLACK
6
CONTINUOUS
10
125.597
20
-150.023
11
125.262
21
-149.959
0
LINE
8
BLACK
6
CONTINUOUS
10
125.262
20
-149.959
11
124.937
21
-149.859
0
LINE
8
BLACK
6
CONTINUOUS
10
124.937
20
-149.859
11
124.625
21
-149.722
0
LINE
8
BLACK
6
CONTINUOUS
10
124.625
20
-149.722
11
124.33
21
-149.552
0
LINE
8
BLACK
6
CONTINUOUS
10
124.33
20
-149.552
11
124.056
21
-149.35
0
LINE
8
BLACK
6
CONTINUOUS
10
124.056
20
-149.35
11
123.806
21
-149.119
0
LINE
8
BLACK
6
CONTINUOUS
10
123.806
20
-149.119
11
123.584
21
-148.861
0
LINE
8
BLACK
6
CONTINUOUS
10
123.584
20
-148.861
11
123.391
21
-148.58
0
LINE
8
BLACK
6
CONTINUOUS
10
123.391
20
-148.58
11
123.231
21
-148.279
0
LINE
8
BLACK
6
CONTINUOUS
10
123.231
20
-148.279
11
123.106
21
-147.963
0
LINE
8
BLACK
6
CONTINUOUS
10
123.106
20
-147.963
11
123.017
21
-147.634
0
LINE
8
BLACK
6
CONTINUOUS
10
123.017
20
-147.634
11
122.965
21
-147.298
0
LINE
8
BLACK
6
CONTINUOUS
10
122.965
20
-147.298
11
122.95
21
-146.957
0
LINE
8
BLACK
6
CONTINUOUS
10
122.95
20
-146.957
11
122.954
21
-146.907
0
LINE
8
BLACK
6
CONTINUOUS
10
122.954
20
-146.907
11
122.974
21
-146.618
0
LINE
8
BLACK
6
CONTINUOUS
10
122.974
20
-146.618
11
123.036
21
-146.283
0
LINE
8
BLACK
6
CONTINUOUS
10
123.103
20
-147.584
11
123.19
21
-147.913
0
LINE
8
BLACK
6
CONTINUOUS
10
123.19
20
-147.913
11
123.313
21
-148.23
0
LINE
8
BLACK
6
CONTINUOUS
10
123.313
20
-148.23
11
123.472
21
-148.531
0
LINE
8
BLACK
6
CONTINUOUS
10
123.472
20
-148.531
11
123.665
21
-148.811
0
LINE
8
BLACK
6
CONTINUOUS
10
123.665
20
-148.811
11
123.889
21
-149.068
0
LINE
8
BLACK
6
CONTINUOUS
10
123.889
20
-149.068
11
124.14
21
-149.296
0
LINE
8
BLACK
6
CONTINUOUS
10
124.14
20
-149.296
11
124.417
21
-149.495
0
LINE
8
BLACK
6
CONTINUOUS
10
124.417
20
-149.495
11
124.714
21
-149.66
0
LINE
8
BLACK
6
CONTINUOUS
10
124.714
20
-149.66
11
125.028
21
-149.791
0
LINE
8
BLACK
6
CONTINUOUS
10
125.028
20
-149.791
11
125.355
21
-149.884
0
LINE
8
BLACK
6
CONTINUOUS
10
125.355
20
-149.884
11
125.691
21
-149.939
0
LINE
8
BLACK
6
CONTINUOUS
10
125.691
20
-149.939
11
126.031
21
-149.955
0
LINE
8
BLACK
6
CONTINUOUS
10
126.031
20
-149.955
11
126.37
21
-149.932
0
LINE
8
BLACK
6
CONTINUOUS
10
126.37
20
-149.932
11
126.705
21
-149.87
0
LINE
8
BLACK
6
CONTINUOUS
10
126.705
20
-149.87
11
127.03
21
-149.77
0
LINE
8
BLACK
6
CONTINUOUS
10
127.03
20
-149.77
11
127.342
21
-149.633
0
LINE
8
BLACK
6
CONTINUOUS
10
127.342
20
-149.633
11
127.635
21
-149.461
0
LINE
8
BLACK
6
CONTINUOUS
10
127.635
20
-149.461
11
127.907
21
-149.257
0
LINE
8
BLACK
6
CONTINUOUS
10
127.907
20
-149.257
11
128.154
21
-149.023
0
LINE
8
BLACK
6
CONTINUOUS
10
128.154
20
-149.023
11
128.372
21
-148.762
0
LINE
8
BLACK
6
CONTINUOUS
10
128.372
20
-148.762
11
128.559
21
-148.477
0
LINE
8
BLACK
6
CONTINUOUS
10
128.559
20
-148.477
11
128.712
21
-148.174
0
LINE
8
BLACK
6
CONTINUOUS
10
128.712
20
-148.174
11
128.829
21
-147.854
0
LINE
8
BLACK
6
CONTINUOUS
10
128.829
20
-147.854
11
128.908
21
-147.523
0
LINE
8
BLACK
6
CONTINUOUS
10
128.908
20
-147.523
11
128.949
21
-147.186
0
LINE
8
BLACK
6
CONTINUOUS
10
128.949
20
-147.186
11
128.955
21
-147
0
LINE
8
BLACK
6
CONTINUOUS
10
128.955
20
-147
11
128.935
21
-146.66
0
LINE
8
BLACK
6
CONTINUOUS
10
128.935
20
-146.66
11
128.877
21
-146.325
0
LINE
8
BLACK
6
CONTINUOUS
10
128.877
20
-146.325
11
128.78
21
-145.999
0
LINE
8
BLACK
6
CONTINUOUS
10
128.78
20
-145.999
11
128.647
21
-145.686
0
LINE
8
BLACK
6
CONTINUOUS
10
128.647
20
-145.686
11
128.478
21
-145.391
0
LINE
8
BLACK
6
CONTINUOUS
10
128.478
20
-145.391
11
128.277
21
-145.116
0
LINE
8
BLACK
6
CONTINUOUS
10
128.277
20
-145.116
11
128.045
21
-144.867
0
LINE
8
BLACK
6
CONTINUOUS
10
128.045
20
-144.867
11
127.787
21
-144.646
0
LINE
8
BLACK
6
CONTINUOUS
10
127.787
20
-144.646
11
127.504
21
-144.457
0
LINE
8
BLACK
6
CONTINUOUS
10
127.504
20
-144.457
11
127.202
21
-144.3
0
LINE
8
BLACK
6
CONTINUOUS
10
127.202
20
-144.3
11
126.884
21
-144.18
0
LINE
8
BLACK
6
CONTINUOUS
10
126.884
20
-144.18
11
126.554
21
-144.097
0
LINE
8
BLACK
6
CONTINUOUS
10
126.554
20
-144.097
11
126.216
21
-144.053
0
LINE
8
BLACK
6
CONTINUOUS
10
126.216
20
-144.053
11
125.876
21
-144.048
0
LINE
8
BLACK
6
CONTINUOUS
10
125.876
20
-144.048
11
125.538
21
-144.081
0
LINE
8
BLACK
6
CONTINUOUS
10
125.538
20
-144.081
11
125.205
21
-144.154
0
LINE
8
BLACK
6
CONTINUOUS
10
125.205
20
-144.154
11
124.883
21
-144.264
0
LINE
8
BLACK
6
CONTINUOUS
10
124.883
20
-144.264
11
124.576
21
-144.411
0
LINE
8
BLACK
6
CONTINUOUS
10
124.576
20
-144.411
11
124.288
21
-144.591
0
LINE
8
BLACK
6
CONTINUOUS
10
124.288
20
-144.591
11
124.023
21
-144.804
0
LINE
8
BLACK
6
CONTINUOUS
10
124.023
20
-144.804
11
123.783
21
-145.046
0
LINE
8
BLACK
6
CONTINUOUS
10
123.783
20
-145.046
11
123.574
21
-145.314
0
LINE
8
BLACK
6
CONTINUOUS
10
123.574
20
-145.314
11
123.396
21
-145.604
0
LINE
8
BLACK
6
CONTINUOUS
10
123.396
20
-145.604
11
123.253
21
-145.912
0
LINE
8
BLACK
6
CONTINUOUS
10
123.253
20
-145.912
11
123.146
21
-146.235
0
LINE
8
BLACK
6
CONTINUOUS
10
123.146
20
-146.235
11
123.077
21
-146.568
0
LINE
8
BLACK
6
CONTINUOUS
10
123.077
20
-146.568
11
123.046
21
-146.907
0
LINE
8
BLACK
6
CONTINUOUS
10
123.046
20
-146.907
11
123.055
21
-147.247
0
LINE
8
BLACK
6
CONTINUOUS
10
123.055
20
-147.247
11
123.103
21
-147.584
0
LINE
8
BLACK
6
CONTINUOUS
10
28.0355
20
-146.283
11
28.1339
21
-145.957
0
LINE
8
BLACK
6
CONTINUOUS
10
28.1339
20
-145.957
11
28.2681
21
-145.644
0
LINE
8
BLACK
6
CONTINUOUS
10
28.2681
20
-145.644
11
28.4363
21
-145.348
0
LINE
8
BLACK
6
CONTINUOUS
10
28.4363
20
-145.348
11
28.6364
21
-145.072
0
LINE
8
BLACK
6
CONTINUOUS
10
28.6364
20
-145.072
11
28.866
21
-144.821
0
LINE
8
BLACK
6
CONTINUOUS
10
28.866
20
-144.821
11
29.1222
21
-144.597
0
LINE
8
BLACK
6
CONTINUOUS
10
29.1222
20
-144.597
11
29.4018
21
-144.402
0
LINE
8
BLACK
6
CONTINUOUS
10
29.4018
20
-144.402
11
29.7014
21
-144.24
0
LINE
8
BLACK
6
CONTINUOUS
10
29.7014
20
-144.24
11
30.0171
21
-144.113
0
LINE
8
BLACK
6
CONTINUOUS
10
30.0171
20
-144.113
11
30.3451
21
-144.021
0
LINE
8
BLACK
6
CONTINUOUS
10
30.3451
20
-144.021
11
30.6812
21
-143.967
0
LINE
8
BLACK
6
CONTINUOUS
10
30.6812
20
-143.967
11
31.0213
21
-143.95
0
LINE
8
BLACK
6
CONTINUOUS
10
31.0213
20
-143.95
11
31.3611
21
-143.971
0
LINE
8
BLACK
6
CONTINUOUS
10
31.3611
20
-143.971
11
31.6965
21
-144.031
0
LINE
8
BLACK
6
CONTINUOUS
10
31.6965
20
-144.031
11
32.0231
21
-144.127
0
LINE
8
BLACK
6
CONTINUOUS
10
32.0231
20
-144.127
11
32.337
21
-144.259
0
LINE
8
BLACK
6
CONTINUOUS
10
32.337
20
-144.259
11
32.6343
21
-144.425
0
LINE
8
BLACK
6
CONTINUOUS
10
32.6343
20
-144.425
11
32.9111
21
-144.623
0
LINE
8
BLACK
6
CONTINUOUS
10
32.9111
20
-144.623
11
33.1642
21
-144.851
0
LINE
8
BLACK
6
CONTINUOUS
10
33.1642
20
-144.851
11
33.3903
21
-145.105
0
LINE
8
BLACK
6
CONTINUOUS
10
33.3903
20
-145.105
11
33.5865
21
-145.384
0
LINE
8
BLACK
6
CONTINUOUS
10
33.5865
20
-145.384
11
33.7506
21
-145.682
0
LINE
8
BLACK
6
CONTINUOUS
10
33.7506
20
-145.682
11
33.8803
21
-145.997
0
LINE
8
BLACK
6
CONTINUOUS
10
33.8803
20
-145.997
11
33.9742
21
-146.324
0
LINE
8
BLACK
6
CONTINUOUS
10
33.9742
20
-146.324
11
34.031
21
-146.66
0
LINE
8
BLACK
6
CONTINUOUS
10
34.031
20
-146.66
11
34.05
21
-147
0
LINE
8
BLACK
6
CONTINUOUS
10
34.05
20
-147
11
34.0488
21
-147.085
0
LINE
8
BLACK
6
CONTINUOUS
10
34.0488
20
-147.085
11
34.0203
21
-147.424
0
LINE
8
BLACK
6
CONTINUOUS
10
34.0203
20
-147.424
11
33.9542
21
-147.759
0
LINE
8
BLACK
6
CONTINUOUS
10
33.9542
20
-147.759
11
33.8512
21
-148.083
0
LINE
8
BLACK
6
CONTINUOUS
10
33.8512
20
-148.083
11
33.7127
21
-148.394
0
LINE
8
BLACK
6
CONTINUOUS
10
33.7127
20
-148.394
11
33.5404
21
-148.688
0
LINE
8
BLACK
6
CONTINUOUS
10
33.5404
20
-148.688
11
33.3364
21
-148.961
0
LINE
8
BLACK
6
CONTINUOUS
10
33.3364
20
-148.961
11
33.1033
21
-149.209
0
LINE
8
BLACK
6
CONTINUOUS
10
33.1033
20
-149.209
11
32.844
21
-149.429
0
LINE
8
BLACK
6
CONTINUOUS
10
32.844
20
-149.429
11
32.5617
21
-149.62
0
LINE
8
BLACK
6
CONTINUOUS
10
32.5617
20
-149.62
11
32.26
21
-149.778
0
LINE
8
BLACK
6
CONTINUOUS
10
32.26
20
-149.778
11
31.9425
21
-149.901
0
LINE
8
BLACK
6
CONTINUOUS
10
31.9425
20
-149.901
11
31.6133
21
-149.988
0
LINE
8
BLACK
6
CONTINUOUS
10
31.6133
20
-149.988
11
31.2764
21
-150.037
0
LINE
8
BLACK
6
CONTINUOUS
10
31.2764
20
-150.037
11
30.9361
21
-150.049
0
LINE
8
BLACK
6
CONTINUOUS
10
30.9361
20
-150.049
11
30.5966
21
-150.023
0
LINE
8
BLACK
6
CONTINUOUS
10
30.5966
20
-150.023
11
30.2621
21
-149.959
0
LINE
8
BLACK
6
CONTINUOUS
10
30.2621
20
-149.959
11
29.9369
21
-149.859
0
LINE
8
BLACK
6
CONTINUOUS
10
29.9369
20
-149.859
11
29.6248
21
-149.722
0
LINE
8
BLACK
6
CONTINUOUS
10
29.6248
20
-149.722
11
29.3299
21
-149.552
0
LINE
8
BLACK
6
CONTINUOUS
10
29.3299
20
-149.552
11
29.0559
21
-149.35
0
LINE
8
BLACK
6
CONTINUOUS
10
29.0559
20
-149.35
11
28.806
21
-149.119
0
LINE
8
BLACK
6
CONTINUOUS
10
28.806
20
-149.119
11
28.5835
21
-148.861
0
LINE
8
BLACK
6
CONTINUOUS
10
28.5835
20
-148.861
11
28.3911
21
-148.58
0
LINE
8
BLACK
6
CONTINUOUS
10
28.3911
20
-148.58
11
28.2313
21
-148.279
0
LINE
8
BLACK
6
CONTINUOUS
10
28.2313
20
-148.279
11
28.1059
21
-147.963
0
LINE
8
BLACK
6
CONTINUOUS
10
28.1059
20
-147.963
11
28.0166
21
-147.634
0
LINE
8
BLACK
6
CONTINUOUS
10
28.0166
20
-147.634
11
27.9646
21
-147.298
0
LINE
8
BLACK
6
CONTINUOUS
10
27.9646
20
-147.298
11
27.9503
21
-146.957
0
LINE
8
BLACK
6
CONTINUOUS
10
27.9503
20
-146.957
11
27.9538
21
-146.907
0
LINE
8
BLACK
6
CONTINUOUS
10
27.9538
20
-146.907
11
27.974
21
-146.618
0
LINE
8
BLACK
6
CONTINUOUS
10
27.974
20
-146.618
11
28.0355
21
-146.283
0
LINE
8
BLACK
6
CONTINUOUS
10
28.1033
20
-147.584
11
28.1896
21
-147.913
0
LINE
8
BLACK
6
CONTINUOUS
10
28.1896
20
-147.913
11
28.3132
21
-148.23
0
LINE
8
BLACK
6
CONTINUOUS
10
28.3132
20
-148.23
11
28.4724
21
-148.531
0
LINE
8
BLACK
6
CONTINUOUS
10
28.4724
20
-148.531
11
28.6651
21
-148.811
0
LINE
8
BLACK
6
CONTINUOUS
10
28.6651
20
-148.811
11
28.8887
21
-149.068
0
LINE
8
BLACK
6
CONTINUOUS
10
28.8887
20
-149.068
11
29.1404
21
-149.296
0
LINE
8
BLACK
6
CONTINUOUS
10
29.1404
20
-149.296
11
29.4166
21
-149.495
0
LINE
8
BLACK
6
CONTINUOUS
10
29.4166
20
-149.495
11
29.7139
21
-149.66
0
LINE
8
BLACK
6
CONTINUOUS
10
29.7139
20
-149.66
11
30.0282
21
-149.791
0
LINE
8
BLACK
6
CONTINUOUS
10
30.0282
20
-149.791
11
30.3554
21
-149.884
0
LINE
8
BLACK
6
CONTINUOUS
10
30.3554
20
-149.884
11
30.6911
21
-149.939
0
LINE
8
BLACK
6
CONTINUOUS
10
30.6911
20
-149.939
11
31.0309
21
-149.955
0
LINE
8
BLACK
6
CONTINUOUS
10
31.0309
20
-149.955
11
31.3704
21
-149.932
0
LINE
8
BLACK
6
CONTINUOUS
10
31.3704
20
-149.932
11
31.7049
21
-149.87
0
LINE
8
BLACK
6
CONTINUOUS
10
31.7049
20
-149.87
11
32.03
21
-149.77
0
LINE
8
BLACK
6
CONTINUOUS
10
32.03
20
-149.77
11
32.3415
21
-149.633
0
LINE
8
BLACK
6
CONTINUOUS
10
32.3415
20
-149.633
11
32.6353
21
-149.461
0
LINE
8
BLACK
6
CONTINUOUS
10
32.6353
20
-149.461
11
32.9073
21
-149.257
0
LINE
8
BLACK
6
CONTINUOUS
10
32.9073
20
-149.257
11
33.1541
21
-149.023
0
LINE
8
BLACK
6
CONTINUOUS
10
33.1541
20
-149.023
11
33.3723
21
-148.762
0
LINE
8
BLACK
6
CONTINUOUS
10
33.3723
20
-148.762
11
33.5591
21
-148.477
0
LINE
8
BLACK
6
CONTINUOUS
10
33.5591
20
-148.477
11
33.712
21
-148.174
0
LINE
8
BLACK
6
CONTINUOUS
10
33.712
20
-148.174
11
33.8289
21
-147.854
0
LINE
8
BLACK
6
CONTINUOUS
10
33.8289
20
-147.854
11
33.9083
21
-147.523
0
LINE
8
BLACK
6
CONTINUOUS
10
33.9083
20
-147.523
11
33.9492
21
-147.186
0
LINE
8
BLACK
6
CONTINUOUS
10
33.9492
20
-147.186
11
33.955
21
-147
0
LINE
8
BLACK
6
CONTINUOUS
10
33.955
20
-147
11
33.9354
21
-146.66
0
LINE
8
BLACK
6
CONTINUOUS
10
33.9354
20
-146.66
11
33.8769
21
-146.325
0
LINE
8
BLACK
6
CONTINUOUS
10
33.8769
20
-146.325
11
33.7803
21
-145.999
0
LINE
8
BLACK
6
CONTINUOUS
10
33.7803
20
-145.999
11
33.6468
21
-145.686
0
LINE
8
BLACK
6
CONTINUOUS
10
33.6468
20
-145.686
11
33.4783
21
-145.391
0
LINE
8
BLACK
6
CONTINUOUS
10
33.4783
20
-145.391
11
33.2769
21
-145.116
0
LINE
8
BLACK
6
CONTINUOUS
10
33.2769
20
-145.116
11
33.0453
21
-144.867
0
LINE
8
BLACK
6
CONTINUOUS
10
33.0453
20
-144.867
11
32.7866
21
-144.646
0
LINE
8
BLACK
6
CONTINUOUS
10
32.7866
20
-144.646
11
32.5042
21
-144.457
0
LINE
8
BLACK
6
CONTINUOUS
10
32.5042
20
-144.457
11
32.2019
21
-144.3
0
LINE
8
BLACK
6
CONTINUOUS
10
32.2019
20
-144.3
11
31.8837
21
-144.18
0
LINE
8
BLACK
6
CONTINUOUS
10
31.8837
20
-144.18
11
31.5537
21
-144.097
0
LINE
8
BLACK
6
CONTINUOUS
10
31.5537
20
-144.097
11
31.2164
21
-144.053
0
LINE
8
BLACK
6
CONTINUOUS
10
31.2164
20
-144.053
11
30.8763
21
-144.048
0
LINE
8
BLACK
6
CONTINUOUS
10
30.8763
20
-144.048
11
30.5377
21
-144.081
0
LINE
8
BLACK
6
CONTINUOUS
10
30.5377
20
-144.081
11
30.2053
21
-144.154
0
LINE
8
BLACK
6
CONTINUOUS
10
30.2053
20
-144.154
11
29.8835
21
-144.264
0
LINE
8
BLACK
6
CONTINUOUS
10
29.8835
20
-144.264
11
29.5764
21
-144.411
0
LINE
8
BLACK
6
CONTINUOUS
10
29.5764
20
-144.411
11
29.2882
21
-144.591
0
LINE
8
BLACK
6
CONTINUOUS
10
29.2882
20
-144.591
11
29.0227
21
-144.804
0
LINE
8
BLACK
6
CONTINUOUS
10
29.0227
20
-144.804
11
28.7834
21
-145.046
0
LINE
8
BLACK
6
CONTINUOUS
10
28.7834
20
-145.046
11
28.5735
21
-145.314
0
LINE
8
BLACK
6
CONTINUOUS
10
28.5735
20
-145.314
11
28.3957
21
-145.604
0
LINE
8
BLACK
6
CONTINUOUS
10
28.3957
20
-145.604
11
28.2525
21
-145.912
0
LINE
8
BLACK
6
CONTINUOUS
10
28.2525
20
-145.912
11
28.1457
21
-146.235
0
LINE
8
BLACK
6
CONTINUOUS
10
28.1457
20
-146.235
11
28.0767
21
-146.568
0
LINE
8
BLACK
6
CONTINUOUS
10
28.0767
20
-146.568
11
28.0465
21
-146.907
0
LINE
8
BLACK
6
CONTINUOUS
10
28.0465
20
-146.907
11
28.0554
21
-147.247
0
LINE
8
BLACK
6
CONTINUOUS
10
28.0554
20
-147.247
11
28.1033
21
-147.584
0
LINE
8
BLACK
6
CONTINUOUS
10
381.036
20
-127.283
11
381.134
21
-126.957
0
LINE
8
BLACK
6
CONTINUOUS
10
381.134
20
-126.957
11
381.268
21
-126.644
0
LINE
8
BLACK
6
CONTINUOUS
10
381.268
20
-126.644
11
381.436
21
-126.348
0
LINE
8
BLACK
6
CONTINUOUS
10
381.436
20
-126.348
11
381.636
21
-126.072
0
LINE
8
BLACK
6
CONTINUOUS
10
381.636
20
-126.072
11
381.866
21
-125.821
0
LINE
8
BLACK
6
CONTINUOUS
10
381.866
20
-125.821
11
382.122
21
-125.597
0
LINE
8
BLACK
6
CONTINUOUS
10
382.122
20
-125.597
11
382.402
21
-125.402
0
LINE
8
BLACK
6
CONTINUOUS
10
382.402
20
-125.402
11
382.701
21
-125.24
0
LINE
8
BLACK
6
CONTINUOUS
10
382.701
20
-125.24
11
383.017
21
-125.113
0
LINE
8
BLACK
6
CONTINUOUS
10
383.017
20
-125.113
11
383.345
21
-125.021
0
LINE
8
BLACK
6
CONTINUOUS
10
383.345
20
-125.021
11
383.681
21
-124.967
0
LINE
8
BLACK
6
CONTINUOUS
10
383.681
20
-124.967
11
384.021
21
-124.95
0
LINE
8
BLACK
6
CONTINUOUS
10
384.021
20
-124.95
11
384.361
21
-124.971
0
LINE
8
BLACK
6
CONTINUOUS
10
384.361
20
-124.971
11
384.696
21
-125.031
0
LINE
8
BLACK
6
CONTINUOUS
10
384.696
20
-125.031
11
385.023
21
-125.127
0
LINE
8
BLACK
6
CONTINUOUS
10
385.023
20
-125.127
11
385.337
21
-125.259
0
LINE
8
BLACK
6
CONTINUOUS
10
385.337
20
-125.259
11
385.634
21
-125.425
0
LINE
8
BLACK
6
CONTINUOUS
10
385.634
20
-125.425
11
385.911
21
-125.623
0
LINE
8
BLACK
6
CONTINUOUS
10
385.911
20
-125.623
11
386.164
21
-125.851
0
LINE
8
BLACK
6
CONTINUOUS
10
386.164
20
-125.851
11
386.39
21
-126.105
0
LINE
8
BLACK
6
CONTINUOUS
10
386.39
20
-126.105
11
386.587
21
-126.384
0
LINE
8
BLACK
6
CONTINUOUS
10
386.587
20
-126.384
11
386.751
21
-126.682
0
LINE
8
BLACK
6
CONTINUOUS
10
386.751
20
-126.682
11
386.88
21
-126.997
0
LINE
8
BLACK
6
CONTINUOUS
10
386.88
20
-126.997
11
386.974
21
-127.324
0
LINE
8
BLACK
6
CONTINUOUS
10
386.974
20
-127.324
11
387.031
21
-127.66
0
LINE
8
BLACK
6
CONTINUOUS
10
387.031
20
-127.66
11
387.05
21
-128
0
LINE
8
BLACK
6
CONTINUOUS
10
387.05
20
-128
11
387.049
21
-128.085
0
LINE
8
BLACK
6
CONTINUOUS
10
387.049
20
-128.085
11
387.02
21
-128.424
0
LINE
8
BLACK
6
CONTINUOUS
10
387.02
20
-128.424
11
386.954
21
-128.759
0
LINE
8
BLACK
6
CONTINUOUS
10
386.954
20
-128.759
11
386.851
21
-129.083
0
LINE
8
BLACK
6
CONTINUOUS
10
386.851
20
-129.083
11
386.713
21
-129.394
0
LINE
8
BLACK
6
CONTINUOUS
10
386.713
20
-129.394
11
386.54
21
-129.688
0
LINE
8
BLACK
6
CONTINUOUS
10
386.54
20
-129.688
11
386.336
21
-129.961
0
LINE
8
BLACK
6
CONTINUOUS
10
386.336
20
-129.961
11
386.103
21
-130.209
0
LINE
8
BLACK
6
CONTINUOUS
10
386.103
20
-130.209
11
385.844
21
-130.429
0
LINE
8
BLACK
6
CONTINUOUS
10
385.844
20
-130.429
11
385.562
21
-130.62
0
LINE
8
BLACK
6
CONTINUOUS
10
385.562
20
-130.62
11
385.26
21
-130.778
0
LINE
8
BLACK
6
CONTINUOUS
10
385.26
20
-130.778
11
384.943
21
-130.901
0
LINE
8
BLACK
6
CONTINUOUS
10
384.943
20
-130.901
11
384.613
21
-130.988
0
LINE
8
BLACK
6
CONTINUOUS
10
384.613
20
-130.988
11
384.276
21
-131.037
0
LINE
8
BLACK
6
CONTINUOUS
10
384.276
20
-131.037
11
383.936
21
-131.049
0
LINE
8
BLACK
6
CONTINUOUS
10
383.936
20
-131.049
11
383.597
21
-131.023
0
LINE
8
BLACK
6
CONTINUOUS
10
383.597
20
-131.023
11
383.262
21
-130.959
0
LINE
8
BLACK
6
CONTINUOUS
10
383.262
20
-130.959
11
382.937
21
-130.859
0
LINE
8
BLACK
6
CONTINUOUS
10
382.937
20
-130.859
11
382.625
21
-130.722
0
LINE
8
BLACK
6
CONTINUOUS
10
382.625
20
-130.722
11
382.33
21
-130.552
0
LINE
8
BLACK
6
CONTINUOUS
10
382.33
20
-130.552
11
382.056
21
-130.35
0
LINE
8
BLACK
6
CONTINUOUS
10
382.056
20
-130.35
11
381.806
21
-130.119
0
LINE
8
BLACK
6
CONTINUOUS
10
381.806
20
-130.119
11
381.584
21
-129.861
0
LINE
8
BLACK
6
CONTINUOUS
10
381.584
20
-129.861
11
381.391
21
-129.58
0
LINE
8
BLACK
6
CONTINUOUS
10
381.391
20
-129.58
11
381.231
21
-129.279
0
LINE
8
BLACK
6
CONTINUOUS
10
381.231
20
-129.279
11
381.106
21
-128.963
0
LINE
8
BLACK
6
CONTINUOUS
10
381.106
20
-128.963
11
381.017
21
-128.634
0
LINE
8
BLACK
6
CONTINUOUS
10
381.017
20
-128.634
11
380.965
21
-128.298
0
LINE
8
BLACK
6
CONTINUOUS
10
380.965
20
-128.298
11
380.95
21
-127.957
0
LINE
8
BLACK
6
CONTINUOUS
10
380.95
20
-127.957
11
380.954
21
-127.907
0
LINE
8
BLACK
6
CONTINUOUS
10
380.954
20
-127.907
11
380.974
21
-127.618
0
LINE
8
BLACK
6
CONTINUOUS
10
380.974
20
-127.618
11
381.036
21
-127.283
0
LINE
8
BLACK
6
CONTINUOUS
10
381.103
20
-128.584
11
381.19
21
-128.913
0
LINE
8
BLACK
6
CONTINUOUS
10
381.19
20
-128.913
11
381.313
21
-129.23
0
LINE
8
BLACK
6
CONTINUOUS
10
381.313
20
-129.23
11
381.472
21
-129.531
0
LINE
8
BLACK
6
CONTINUOUS
10
381.472
20
-129.531
11
381.665
21
-129.811
0
LINE
8
BLACK
6
CONTINUOUS
10
381.665
20
-129.811
11
381.889
21
-130.068
0
LINE
8
BLACK
6
CONTINUOUS
10
381.889
20
-130.068
11
382.14
21
-130.296
0
LINE
8
BLACK
6
CONTINUOUS
10
382.14
20
-130.296
11
382.417
21
-130.495
0
LINE
8
BLACK
6
CONTINUOUS
10
382.417
20
-130.495
11
382.714
21
-130.66
0
LINE
8
BLACK
6
CONTINUOUS
10
382.714
20
-130.66
11
383.028
21
-130.791
0
LINE
8
BLACK
6
CONTINUOUS
10
383.028
20
-130.791
11
383.355
21
-130.884
0
LINE
8
BLACK
6
CONTINUOUS
10
383.355
20
-130.884
11
383.691
21
-130.939
0
LINE
8
BLACK
6
CONTINUOUS
10
383.691
20
-130.939
11
384.031
21
-130.955
0
LINE
8
BLACK
6
CONTINUOUS
10
384.031
20
-130.955
11
384.37
21
-130.932
0
LINE
8
BLACK
6
CONTINUOUS
10
384.37
20
-130.932
11
384.705
21
-130.87
0
LINE
8
BLACK
6
CONTINUOUS
10
384.705
20
-130.87
11
385.03
21
-130.77
0
LINE
8
BLACK
6
CONTINUOUS
10
385.03
20
-130.77
11
385.342
21
-130.633
0
LINE
8
BLACK
6
CONTINUOUS
10
385.342
20
-130.633
11
385.635
21
-130.461
0
LINE
8
BLACK
6
CONTINUOUS
10
385.635
20
-130.461
11
385.907
21
-130.257
0
LINE
8
BLACK
6
CONTINUOUS
10
385.907
20
-130.257
11
386.154
21
-130.023
0
LINE
8
BLACK
6
CONTINUOUS
10
386.154
20
-130.023
11
386.372
21
-129.762
0
LINE
8
BLACK
6
CONTINUOUS
10
386.372
20
-129.762
11
386.559
21
-129.477
0
LINE
8
BLACK
6
CONTINUOUS
10
386.559
20
-129.477
11
386.712
21
-129.174
0
LINE
8
BLACK
6
CONTINUOUS
10
386.712
20
-129.174
11
386.829
21
-128.854
0
LINE
8
BLACK
6
CONTINUOUS
10
386.829
20
-128.854
11
386.908
21
-128.523
0
LINE
8
BLACK
6
CONTINUOUS
10
386.908
20
-128.523
11
386.949
21
-128.186
0
LINE
8
BLACK
6
CONTINUOUS
10
386.949
20
-128.186
11
386.955
21
-128
0
LINE
8
BLACK
6
CONTINUOUS
10
386.955
20
-128
11
386.935
21
-127.66
0
LINE
8
BLACK
6
CONTINUOUS
10
386.935
20
-127.66
11
386.877
21
-127.325
0
LINE
8
BLACK
6
CONTINUOUS
10
386.877
20
-127.325
11
386.78
21
-126.999
0
LINE
8
BLACK
6
CONTINUOUS
10
386.78
20
-126.999
11
386.647
21
-126.686
0
LINE
8
BLACK
6
CONTINUOUS
10
386.647
20
-126.686
11
386.478
21
-126.391
0
LINE
8
BLACK
6
CONTINUOUS
10
386.478
20
-126.391
11
386.277
21
-126.116
0
LINE
8
BLACK
6
CONTINUOUS
10
386.277
20
-126.116
11
386.045
21
-125.867
0
LINE
8
BLACK
6
CONTINUOUS
10
386.045
20
-125.867
11
385.787
21
-125.646
0
LINE
8
BLACK
6
CONTINUOUS
10
385.787
20
-125.646
11
385.504
21
-125.457
0
LINE
8
BLACK
6
CONTINUOUS
10
385.504
20
-125.457
11
385.202
21
-125.3
0
LINE
8
BLACK
6
CONTINUOUS
10
385.202
20
-125.3
11
384.884
21
-125.18
0
LINE
8
BLACK
6
CONTINUOUS
10
384.884
20
-125.18
11
384.554
21
-125.097
0
LINE
8
BLACK
6
CONTINUOUS
10
384.554
20
-125.097
11
384.216
21
-125.053
0
LINE
8
BLACK
6
CONTINUOUS
10
384.216
20
-125.053
11
383.876
21
-125.048
0
LINE
8
BLACK
6
CONTINUOUS
10
383.876
20
-125.048
11
383.538
21
-125.081
0
LINE
8
BLACK
6
CONTINUOUS
10
383.538
20
-125.081
11
383.205
21
-125.154
0
LINE
8
BLACK
6
CONTINUOUS
10
383.205
20
-125.154
11
382.883
21
-125.264
0
LINE
8
BLACK
6
CONTINUOUS
10
382.883
20
-125.264
11
382.576
21
-125.411
0
LINE
8
BLACK
6
CONTINUOUS
10
382.576
20
-125.411
11
382.288
21
-125.591
0
LINE
8
BLACK
6
CONTINUOUS
10
382.288
20
-125.591
11
382.023
21
-125.804
0
LINE
8
BLACK
6
CONTINUOUS
10
382.023
20
-125.804
11
381.783
21
-126.046
0
LINE
8
BLACK
6
CONTINUOUS
10
381.783
20
-126.046
11
381.574
21
-126.314
0
LINE
8
BLACK
6
CONTINUOUS
10
381.574
20
-126.314
11
381.396
21
-126.604
0
LINE
8
BLACK
6
CONTINUOUS
10
381.396
20
-126.604
11
381.253
21
-126.912
0
LINE
8
BLACK
6
CONTINUOUS
10
381.253
20
-126.912
11
381.146
21
-127.235
0
LINE
8
BLACK
6
CONTINUOUS
10
381.146
20
-127.235
11
381.077
21
-127.568
0
LINE
8
BLACK
6
CONTINUOUS
10
381.077
20
-127.568
11
381.046
21
-127.907
0
LINE
8
BLACK
6
CONTINUOUS
10
381.046
20
-127.907
11
381.055
21
-128.247
0
LINE
8
BLACK
6
CONTINUOUS
10
381.055
20
-128.247
11
381.103
21
-128.584
0
LINE
8
BLACK
6
CONTINUOUS
10
177.536
20
-61.2828
11
177.634
21
-60.9568
0
LINE
8
BLACK
6
CONTINUOUS
10
177.634
20
-60.9568
11
177.768
21
-60.6439
0
LINE
8
BLACK
6
CONTINUOUS
10
177.768
20
-60.6439
11
177.936
21
-60.3478
0
LINE
8
BLACK
6
CONTINUOUS
10
177.936
20
-60.3478
11
178.136
21
-60.0723
0
LINE
8
BLACK
6
CONTINUOUS
10
178.136
20
-60.0723
11
178.366
21
-59.8209
0
LINE
8
BLACK
6
CONTINUOUS
10
178.366
20
-59.8209
11
178.622
21
-59.5966
0
LINE
8
BLACK
6
CONTINUOUS
10
178.622
20
-59.5966
11
178.902
21
-59.4022
0
LINE
8
BLACK
6
CONTINUOUS
10
178.902
20
-59.4022
11
179.201
21
-59.2403
0
LINE
8
BLACK
6
CONTINUOUS
10
179.201
20
-59.2403
11
179.517
21
-59.1127
0
LINE
8
BLACK
6
CONTINUOUS
10
179.517
20
-59.1127
11
179.845
21
-59.0211
0
LINE
8
BLACK
6
CONTINUOUS
10
179.845
20
-59.0211
11
180.181
21
-58.9667
0
LINE
8
BLACK
6
CONTINUOUS
10
180.181
20
-58.9667
11
180.521
21
-58.9501
0
LINE
8
BLACK
6
CONTINUOUS
10
180.521
20
-58.9501
11
180.861
21
-58.9715
0
LINE
8
BLACK
6
CONTINUOUS
10
180.861
20
-58.9715
11
181.196
21
-59.0306
0
LINE
8
BLACK
6
CONTINUOUS
10
181.196
20
-59.0306
11
181.523
21
-59.1267
0
LINE
8
BLACK
6
CONTINUOUS
10
181.523
20
-59.1267
11
181.837
21
-59.2587
0
LINE
8
BLACK
6
CONTINUOUS
10
181.837
20
-59.2587
11
182.134
21
-59.4248
0
LINE
8
BLACK
6
CONTINUOUS
10
182.134
20
-59.4248
11
182.411
21
-59.623
0
LINE
8
BLACK
6
CONTINUOUS
10
182.411
20
-59.623
11
182.664
21
-59.8509
0
LINE
8
BLACK
6
CONTINUOUS
10
182.664
20
-59.8509
11
182.89
21
-60.1055
0
LINE
8
BLACK
6
CONTINUOUS
10
182.89
20
-60.1055
11
183.087
21
-60.3837
0
LINE
8
BLACK
6
CONTINUOUS
10
183.087
20
-60.3837
11
183.251
21
-60.6821
0
LINE
8
BLACK
6
CONTINUOUS
10
183.251
20
-60.6821
11
183.38
21
-60.997
0
LINE
8
BLACK
6
CONTINUOUS
10
183.38
20
-60.997
11
183.474
21
-61.3243
0
LINE
8
BLACK
6
CONTINUOUS
10
183.474
20
-61.3243
11
183.531
21
-61.66
0
LINE
8
BLACK
6
CONTINUOUS
10
183.531
20
-61.66
11
183.55
21
-62
0
LINE
8
BLACK
6
CONTINUOUS
10
183.55
20
-62
11
183.549
21
-62.0852
0
LINE
8
BLACK
6
CONTINUOUS
10
183.549
20
-62.0852
11
183.52
21
-62.4245
0
LINE
8
BLACK
6
CONTINUOUS
10
183.52
20
-62.4245
11
183.454
21
-62.7585
0
LINE
8
BLACK
6
CONTINUOUS
10
183.454
20
-62.7585
11
183.351
21
-63.0831
0
LINE
8
BLACK
6
CONTINUOUS
10
183.351
20
-63.0831
11
183.213
21
-63.3941
0
LINE
8
BLACK
6
CONTINUOUS
10
183.213
20
-63.3941
11
183.04
21
-63.6878
0
LINE
8
BLACK
6
CONTINUOUS
10
183.04
20
-63.6878
11
182.836
21
-63.9605
0
LINE
8
BLACK
6
CONTINUOUS
10
182.836
20
-63.9605
11
182.603
21
-64.2087
0
LINE
8
BLACK
6
CONTINUOUS
10
182.603
20
-64.2087
11
182.344
21
-64.4294
0
LINE
8
BLACK
6
CONTINUOUS
10
182.344
20
-64.4294
11
182.062
21
-64.6198
0
LINE
8
BLACK
6
CONTINUOUS
10
182.062
20
-64.6198
11
181.76
21
-64.7776
0
LINE
8
BLACK
6
CONTINUOUS
10
181.76
20
-64.7776
11
181.443
21
-64.9007
0
LINE
8
BLACK
6
CONTINUOUS
10
181.443
20
-64.9007
11
181.113
21
-64.9877
0
LINE
8
BLACK
6
CONTINUOUS
10
181.113
20
-64.9877
11
180.776
21
-65.0374
0
LINE
8
BLACK
6
CONTINUOUS
10
180.776
20
-65.0374
11
180.436
21
-65.0493
0
LINE
8
BLACK
6
CONTINUOUS
10
180.436
20
-65.0493
11
180.097
21
-65.0232
0
LINE
8
BLACK
6
CONTINUOUS
10
180.097
20
-65.0232
11
179.762
21
-64.9594
0
LINE
8
BLACK
6
CONTINUOUS
10
179.762
20
-64.9594
11
179.437
21
-64.8587
0
LINE
8
BLACK
6
CONTINUOUS
10
179.437
20
-64.8587
11
179.125
21
-64.7224
0
LINE
8
BLACK
6
CONTINUOUS
10
179.125
20
-64.7224
11
178.83
21
-64.5521
0
LINE
8
BLACK
6
CONTINUOUS
10
178.83
20
-64.5521
11
178.556
21
-64.3501
0
LINE
8
BLACK
6
CONTINUOUS
10
178.556
20
-64.3501
11
178.306
21
-64.1187
0
LINE
8
BLACK
6
CONTINUOUS
10
178.306
20
-64.1187
11
178.084
21
-63.8609
0
LINE
8
BLACK
6
CONTINUOUS
10
178.084
20
-63.8609
11
177.891
21
-63.58
0
LINE
8
BLACK
6
CONTINUOUS
10
177.891
20
-63.58
11
177.731
21
-63.2793
0
LINE
8
BLACK
6
CONTINUOUS
10
177.731
20
-63.2793
11
177.606
21
-62.9627
0
LINE
8
BLACK
6
CONTINUOUS
10
177.606
20
-62.9627
11
177.517
21
-62.6341
0
LINE
8
BLACK
6
CONTINUOUS
10
177.517
20
-62.6341
11
177.465
21
-62.2976
0
LINE
8
BLACK
6
CONTINUOUS
10
177.465
20
-62.2976
11
177.45
21
-61.9574
0
LINE
8
BLACK
6
CONTINUOUS
10
177.45
20
-61.9574
11
177.454
21
-61.9072
0
LINE
8
BLACK
6
CONTINUOUS
10
177.454
20
-61.9072
11
177.474
21
-61.6177
0
LINE
8
BLACK
6
CONTINUOUS
10
177.474
20
-61.6177
11
177.536
21
-61.2828
0
LINE
8
BLACK
6
CONTINUOUS
10
177.603
20
-62.5841
11
177.69
21
-62.9131
0
LINE
8
BLACK
6
CONTINUOUS
10
177.69
20
-62.9131
11
177.813
21
-63.2301
0
LINE
8
BLACK
6
CONTINUOUS
10
177.813
20
-63.2301
11
177.972
21
-63.5308
0
LINE
8
BLACK
6
CONTINUOUS
10
177.972
20
-63.5308
11
178.165
21
-63.8111
0
LINE
8
BLACK
6
CONTINUOUS
10
178.165
20
-63.8111
11
178.389
21
-64.0675
0
LINE
8
BLACK
6
CONTINUOUS
10
178.389
20
-64.0675
11
178.64
21
-64.2965
0
LINE
8
BLACK
6
CONTINUOUS
10
178.64
20
-64.2965
11
178.917
21
-64.495
0
LINE
8
BLACK
6
CONTINUOUS
10
178.917
20
-64.495
11
179.214
21
-64.6604
0
LINE
8
BLACK
6
CONTINUOUS
10
179.214
20
-64.6604
11
179.528
21
-64.7906
0
LINE
8
BLACK
6
CONTINUOUS
10
179.528
20
-64.7906
11
179.855
21
-64.8838
0
LINE
8
BLACK
6
CONTINUOUS
10
179.855
20
-64.8838
11
180.191
21
-64.9388
0
LINE
8
BLACK
6
CONTINUOUS
10
180.191
20
-64.9388
11
180.531
21
-64.9548
0
LINE
8
BLACK
6
CONTINUOUS
10
180.531
20
-64.9548
11
180.87
21
-64.9317
0
LINE
8
BLACK
6
CONTINUOUS
10
180.87
20
-64.9317
11
181.205
21
-64.8697
0
LINE
8
BLACK
6
CONTINUOUS
10
181.205
20
-64.8697
11
181.53
21
-64.7697
0
LINE
8
BLACK
6
CONTINUOUS
10
181.53
20
-64.7697
11
181.842
21
-64.6329
0
LINE
8
BLACK
6
CONTINUOUS
10
181.842
20
-64.6329
11
182.135
21
-64.4613
0
LINE
8
BLACK
6
CONTINUOUS
10
182.135
20
-64.4613
11
182.407
21
-64.257
0
LINE
8
BLACK
6
CONTINUOUS
10
182.407
20
-64.257
11
182.654
21
-64.0228
0
LINE
8
BLACK
6
CONTINUOUS
10
182.654
20
-64.0228
11
182.872
21
-63.7618
0
LINE
8
BLACK
6
CONTINUOUS
10
182.872
20
-63.7618
11
183.059
21
-63.4775
0
LINE
8
BLACK
6
CONTINUOUS
10
183.059
20
-63.4775
11
183.212
21
-63.1736
0
LINE
8
BLACK
6
CONTINUOUS
10
183.212
20
-63.1736
11
183.329
21
-62.8541
0
LINE
8
BLACK
6
CONTINUOUS
10
183.329
20
-62.8541
11
183.408
21
-62.5233
0
LINE
8
BLACK
6
CONTINUOUS
10
183.408
20
-62.5233
11
183.449
21
-62.1855
0
LINE
8
BLACK
6
CONTINUOUS
10
183.449
20
-62.1855
11
183.455
21
-62
0
LINE
8
BLACK
6
CONTINUOUS
10
183.455
20
-62
11
183.435
21
-61.6604
0
LINE
8
BLACK
6
CONTINUOUS
10
183.435
20
-61.6604
11
183.377
21
-61.3252
0
LINE
8
BLACK
6
CONTINUOUS
10
183.377
20
-61.3252
11
183.28
21
-60.999
0
LINE
8
BLACK
6
CONTINUOUS
10
183.28
20
-60.999
11
183.147
21
-60.6861
0
LINE
8
BLACK
6
CONTINUOUS
10
183.147
20
-60.6861
11
182.978
21
-60.3906
0
LINE
8
BLACK
6
CONTINUOUS
10
182.978
20
-60.3906
11
182.777
21
-60.1164
0
LINE
8
BLACK
6
CONTINUOUS
10
182.777
20
-60.1164
11
182.545
21
-59.8672
0
LINE
8
BLACK
6
CONTINUOUS
10
182.545
20
-59.8672
11
182.287
21
-59.6463
0
LINE
8
BLACK
6
CONTINUOUS
10
182.287
20
-59.6463
11
182.004
21
-59.4565
0
LINE
8
BLACK
6
CONTINUOUS
10
182.004
20
-59.4565
11
181.702
21
-59.3005
0
LINE
8
BLACK
6
CONTINUOUS
10
181.702
20
-59.3005
11
181.384
21
-59.1802
0
LINE
8
BLACK
6
CONTINUOUS
10
181.384
20
-59.1802
11
181.054
21
-59.0973
0
LINE
8
BLACK
6
CONTINUOUS
10
181.054
20
-59.0973
11
180.716
21
-59.0529
0
LINE
8
BLACK
6
CONTINUOUS
10
180.716
20
-59.0529
11
180.376
21
-59.0476
0
LINE
8
BLACK
6
CONTINUOUS
10
180.376
20
-59.0476
11
180.038
21
-59.0814
0
LINE
8
BLACK
6
CONTINUOUS
10
180.038
20
-59.0814
11
179.705
21
-59.1539
0
LINE
8
BLACK
6
CONTINUOUS
10
179.705
20
-59.1539
11
179.383
21
-59.2641
0
LINE
8
BLACK
6
CONTINUOUS
10
179.383
20
-59.2641
11
179.076
21
-59.4105
0
LINE
8
BLACK
6
CONTINUOUS
10
179.076
20
-59.4105
11
178.788
21
-59.5913
0
LINE
8
BLACK
6
CONTINUOUS
10
178.788
20
-59.5913
11
178.523
21
-59.804
0
LINE
8
BLACK
6
CONTINUOUS
10
178.523
20
-59.804
11
178.283
21
-60.0458
0
LINE
8
BLACK
6
CONTINUOUS
10
178.283
20
-60.0458
11
178.074
21
-60.3135
0
LINE
8
BLACK
6
CONTINUOUS
10
178.074
20
-60.3135
11
177.896
21
-60.6036
0
LINE
8
BLACK
6
CONTINUOUS
10
177.896
20
-60.6036
11
177.753
21
-60.9122
0
LINE
8
BLACK
6
CONTINUOUS
10
177.753
20
-60.9122
11
177.646
21
-61.2352
0
LINE
8
BLACK
6
CONTINUOUS
10
177.646
20
-61.2352
11
177.577
21
-61.5683
0
LINE
8
BLACK
6
CONTINUOUS
10
177.577
20
-61.5683
11
177.546
21
-61.9072
0
LINE
8
BLACK
6
CONTINUOUS
10
177.546
20
-61.9072
11
177.555
21
-62.2473
0
LINE
8
BLACK
6
CONTINUOUS
10
177.555
20
-62.2473
11
177.603
21
-62.5841
0
LINE
8
BLACK
6
CONTINUOUS
10
382.036
20
-61.2828
11
382.134
21
-60.9568
0
LINE
8
BLACK
6
CONTINUOUS
10
382.134
20
-60.9568
11
382.268
21
-60.6439
0
LINE
8
BLACK
6
CONTINUOUS
10
382.268
20
-60.6439
11
382.436
21
-60.3478
0
LINE
8
BLACK
6
CONTINUOUS
10
382.436
20
-60.3478
11
382.636
21
-60.0723
0
LINE
8
BLACK
6
CONTINUOUS
10
382.636
20
-60.0723
11
382.866
21
-59.8209
0
LINE
8
BLACK
6
CONTINUOUS
10
382.866
20
-59.8209
11
383.122
21
-59.5966
0
LINE
8
BLACK
6
CONTINUOUS
10
383.122
20
-59.5966
11
383.402
21
-59.4022
0
LINE
8
BLACK
6
CONTINUOUS
10
383.402
20
-59.4022
11
383.701
21
-59.2403
0
LINE
8
BLACK
6
CONTINUOUS
10
383.701
20
-59.2403
11
384.017
21
-59.1127
0
LINE
8
BLACK
6
CONTINUOUS
10
384.017
20
-59.1127
11
384.345
21
-59.0211
0
LINE
8
BLACK
6
CONTINUOUS
10
384.345
20
-59.0211
11
384.681
21
-58.9667
0
LINE
8
BLACK
6
CONTINUOUS
10
384.681
20
-58.9667
11
385.021
21
-58.9501
0
LINE
8
BLACK
6
CONTINUOUS
10
385.021
20
-58.9501
11
385.361
21
-58.9715
0
LINE
8
BLACK
6
CONTINUOUS
10
385.361
20
-58.9715
11
385.696
21
-59.0306
0
LINE
8
BLACK
6
CONTINUOUS
10
385.696
20
-59.0306
11
386.023
21
-59.1267
0
LINE
8
BLACK
6
CONTINUOUS
10
386.023
20
-59.1267
11
386.337
21
-59.2587
0
LINE
8
BLACK
6
CONTINUOUS
10
386.337
20
-59.2587
11
386.634
21
-59.4248
0
LINE
8
BLACK
6
CONTINUOUS
10
386.634
20
-59.4248
11
386.911
21
-59.623
0
LINE
8
BLACK
6
CONTINUOUS
10
386.911
20
-59.623
11
387.164
21
-59.8509
0
LINE
8
BLACK
6
CONTINUOUS
10
387.164
20
-59.8509
11
387.39
21
-60.1055
0
LINE
8
BLACK
6
CONTINUOUS
10
387.39
20
-60.1055
11
387.587
21
-60.3837
0
LINE
8
BLACK
6
CONTINUOUS
10
387.587
20
-60.3837
11
387.751
21
-60.6821
0
LINE
8
BLACK
6
CONTINUOUS
10
387.751
20
-60.6821
11
387.88
21
-60.997
0
LINE
8
BLACK
6
CONTINUOUS
10
387.88
20
-60.997
11
387.974
21
-61.3243
0
LINE
8
BLACK
6
CONTINUOUS
10
387.974
20
-61.3243
11
388.031
21
-61.66
0
LINE
8
BLACK
6
CONTINUOUS
10
388.031
20
-61.66
11
388.05
21
-62
0
LINE
8
BLACK
6
CONTINUOUS
10
388.05
20
-62
11
388.049
21
-62.0852
0
LINE
8
BLACK
6
CONTINUOUS
10
388.049
20
-62.0852
11
388.02
21
-62.4245
0
LINE
8
BLACK
6
CONTINUOUS
10
388.02
20
-62.4245
11
387.954
21
-62.7585
0
LINE
8
BLACK
6
CONTINUOUS
10
387.954
20
-62.7585
11
387.851
21
-63.0831
0
LINE
8
BLACK
6
CONTINUOUS
10
387.851
20
-63.0831
11
387.713
21
-63.3941
0
LINE
8
BLACK
6
CONTINUOUS
10
387.713
20
-63.3941
11
387.54
21
-63.6878
0
LINE
8
BLACK
6
CONTINUOUS
10
387.54
20
-63.6878
11
387.336
21
-63.9605
0
LINE
8
BLACK
6
CONTINUOUS
10
387.336
20
-63.9605
11
387.103
21
-64.2087
0
LINE
8
BLACK
6
CONTINUOUS
10
387.103
20
-64.2087
11
386.844
21
-64.4294
0
LINE
8
BLACK
6
CONTINUOUS
10
386.844
20
-64.4294
11
386.562
21
-64.6198
0
LINE
8
BLACK
6
CONTINUOUS
10
386.562
20
-64.6198
11
386.26
21
-64.7776
0
LINE
8
BLACK
6
CONTINUOUS
10
386.26
20
-64.7776
11
385.943
21
-64.9007
0
LINE
8
BLACK
6
CONTINUOUS
10
385.943
20
-64.9007
11
385.613
21
-64.9877
0
LINE
8
BLACK
6
CONTINUOUS
10
385.613
20
-64.9877
11
385.276
21
-65.0374
0
LINE
8
BLACK
6
CONTINUOUS
10
385.276
20
-65.0374
11
384.936
21
-65.0493
0
LINE
8
BLACK
6
CONTINUOUS
10
384.936
20
-65.0493
11
384.597
21
-65.0232
0
LINE
8
BLACK
6
CONTINUOUS
10
384.597
20
-65.0232
11
384.262
21
-64.9594
0
LINE
8
BLACK
6
CONTINUOUS
10
384.262
20
-64.9594
11
383.937
21
-64.8587
0
LINE
8
BLACK
6
CONTINUOUS
10
383.937
20
-64.8587
11
383.625
21
-64.7224
0
LINE
8
BLACK
6
CONTINUOUS
10
383.625
20
-64.7224
11
383.33
21
-64.5521
0
LINE
8
BLACK
6
CONTINUOUS
10
383.33
20
-64.5521
11
383.056
21
-64.3501
0
LINE
8
BLACK
6
CONTINUOUS
10
383.056
20
-64.3501
11
382.806
21
-64.1187
0
LINE
8
BLACK
6
CONTINUOUS
10
382.806
20
-64.1187
11
382.584
21
-63.8609
0
LINE
8
BLACK
6
CONTINUOUS
10
382.584
20
-63.8609
11
382.391
21
-63.58
0
LINE
8
BLACK
6
CONTINUOUS
10
382.391
20
-63.58
11
382.231
21
-63.2793
0
LINE
8
BLACK
6
CONTINUOUS
10
382.231
20
-63.2793
11
382.106
21
-62.9627
0
LINE
8
BLACK
6
CONTINUOUS
10
382.106
20
-62.9627
11
382.017
21
-62.6341
0
LINE
8
BLACK
6
CONTINUOUS
10
382.017
20
-62.6341
11
381.965
21
-62.2976
0
LINE
8
BLACK
6
CONTINUOUS
10
381.965
20
-62.2976
11
381.95
21
-61.9574
0
LINE
8
BLACK
6
CONTINUOUS
10
381.95
20
-61.9574
11
381.954
21
-61.9072
0
LINE
8
BLACK
6
CONTINUOUS
10
381.954
20
-61.9072
11
381.974
21
-61.6177
0
LINE
8
BLACK
6
CONTINUOUS
10
381.974
20
-61.6177
11
382.036
21
-61.2828
0
LINE
8
BLACK
6
CONTINUOUS
10
382.103
20
-62.5841
11
382.19
21
-62.9131
0
LINE
8
BLACK
6
CONTINUOUS
10
382.19
20
-62.9131
11
382.313
21
-63.2301
0
LINE
8
BLACK
6
CONTINUOUS
10
382.313
20
-63.2301
11
382.472
21
-63.5308
0
LINE
8
BLACK
6
CONTINUOUS
10
382.472
20
-63.5308
11
382.665
21
-63.8111
0
LINE
8
BLACK
6
CONTINUOUS
10
382.665
20
-63.8111
11
382.889
21
-64.0675
0
LINE
8
BLACK
6
CONTINUOUS
10
382.889
20
-64.0675
11
383.14
21
-64.2965
0
LINE
8
BLACK
6
CONTINUOUS
10
383.14
20
-64.2965
11
383.417
21
-64.495
0
LINE
8
BLACK
6
CONTINUOUS
10
383.417
20
-64.495
11
383.714
21
-64.6604
0
LINE
8
BLACK
6
CONTINUOUS
10
383.714
20
-64.6604
11
384.028
21
-64.7906
0
LINE
8
BLACK
6
CONTINUOUS
10
384.028
20
-64.7906
11
384.355
21
-64.8838
0
LINE
8
BLACK
6
CONTINUOUS
10
384.355
20
-64.8838
11
384.691
21
-64.9388
0
LINE
8
BLACK
6
CONTINUOUS
10
384.691
20
-64.9388
11
385.031
21
-64.9548
0
LINE
8
BLACK
6
CONTINUOUS
10
385.031
20
-64.9548
11
385.37
21
-64.9317
0
LINE
8
BLACK
6
CONTINUOUS
10
385.37
20
-64.9317
11
385.705
21
-64.8697
0
LINE
8
BLACK
6
CONTINUOUS
10
385.705
20
-64.8697
11
386.03
21
-64.7697
0
LINE
8
BLACK
6
CONTINUOUS
10
386.03
20
-64.7697
11
386.342
21
-64.6329
0
LINE
8
BLACK
6
CONTINUOUS
10
386.342
20
-64.6329
11
386.635
21
-64.4613
0
LINE
8
BLACK
6
CONTINUOUS
10
386.635
20
-64.4613
11
386.907
21
-64.257
0
LINE
8
BLACK
6
CONTINUOUS
10
386.907
20
-64.257
11
387.154
21
-64.0228
0
LINE
8
BLACK
6
CONTINUOUS
10
387.154
20
-64.0228
11
387.372
21
-63.7618
0
LINE
8
BLACK
6
CONTINUOUS
10
387.372
20
-63.7618
11
387.559
21
-63.4775
0
LINE
8
BLACK
6
CONTINUOUS
10
387.559
20
-63.4775
11
387.712
21
-63.1736
0
LINE
8
BLACK
6
CONTINUOUS
10
387.712
20
-63.1736
11
387.829
21
-62.8541
0
LINE
8
BLACK
6
CONTINUOUS
10
387.829
20
-62.8541
11
387.908
21
-62.5233
0
LINE
8
BLACK
6
CONTINUOUS
10
387.908
20
-62.5233
11
387.949
21
-62.1855
0
LINE
8
BLACK
6
CONTINUOUS
10
387.949
20
-62.1855
11
387.955
21
-62
0
LINE
8
BLACK
6
CONTINUOUS
10
387.955
20
-62
11
387.935
21
-61.6604
0
LINE
8
BLACK
6
CONTINUOUS
10
387.935
20
-61.6604
11
387.877
21
-61.3252
0
LINE
8
BLACK
6
CONTINUOUS
10
387.877
20
-61.3252
11
387.78
21
-60.999
0
LINE
8
BLACK
6
CONTINUOUS
10
387.78
20
-60.999
11
387.647
21
-60.6861
0
LINE
8
BLACK
6
CONTINUOUS
10
387.647
20
-60.6861
11
387.478
21
-60.3906
0
LINE
8
BLACK
6
CONTINUOUS
10
387.478
20
-60.3906
11
387.277
21
-60.1164
0
LINE
8
BLACK
6
CONTINUOUS
10
387.277
20
-60.1164
11
387.045
21
-59.8672
0
LINE
8
BLACK
6
CONTINUOUS
10
387.045
20
-59.8672
11
386.787
21
-59.6463
0
LINE
8
BLACK
6
CONTINUOUS
10
386.787
20
-59.6463
11
386.504
21
-59.4565
0
LINE
8
BLACK
6
CONTINUOUS
10
386.504
20
-59.4565
11
386.202
21
-59.3005
0
LINE
8
BLACK
6
CONTINUOUS
10
386.202
20
-59.3005
11
385.884
21
-59.1802
0
LINE
8
BLACK
6
CONTINUOUS
10
385.884
20
-59.1802
11
385.554
21
-59.0973
0
LINE
8
BLACK
6
CONTINUOUS
10
385.554
20
-59.0973
11
385.216
21
-59.0529
0
LINE
8
BLACK
6
CONTINUOUS
10
385.216
20
-59.0529
11
384.876
21
-59.0476
0
LINE
8
BLACK
6
CONTINUOUS
10
384.876
20
-59.0476
11
384.538
21
-59.0814
0
LINE
8
BLACK
6
CONTINUOUS
10
384.538
20
-59.0814
11
384.205
21
-59.1539
0
LINE
8
BLACK
6
CONTINUOUS
10
384.205
20
-59.1539
11
383.883
21
-59.2641
0
LINE
8
BLACK
6
CONTINUOUS
10
383.883
20
-59.2641
11
383.576
21
-59.4105
0
LINE
8
BLACK
6
CONTINUOUS
10
383.576
20
-59.4105
11
383.288
21
-59.5913
0
LINE
8
BLACK
6
CONTINUOUS
10
383.288
20
-59.5913
11
383.023
21
-59.804
0
LINE
8
BLACK
6
CONTINUOUS
10
383.023
20
-59.804
11
382.783
21
-60.0458
0
LINE
8
BLACK
6
CONTINUOUS
10
382.783
20
-60.0458
11
382.574
21
-60.3135
0
LINE
8
BLACK
6
CONTINUOUS
10
382.574
20
-60.3135
11
382.396
21
-60.6036
0
LINE
8
BLACK
6
CONTINUOUS
10
382.396
20
-60.6036
11
382.253
21
-60.9122
0
LINE
8
BLACK
6
CONTINUOUS
10
382.253
20
-60.9122
11
382.146
21
-61.2352
0
LINE
8
BLACK
6
CONTINUOUS
10
382.146
20
-61.2352
11
382.077
21
-61.5683
0
LINE
8
BLACK
6
CONTINUOUS
10
382.077
20
-61.5683
11
382.046
21
-61.9072
0
LINE
8
BLACK
6
CONTINUOUS
10
382.046
20
-61.9072
11
382.055
21
-62.2473
0
LINE
8
BLACK
6
CONTINUOUS
10
382.055
20
-62.2473
11
382.103
21
-62.5841
0
LINE
8
BLACK
6
CONTINUOUS
10
221.536
20
-61.2828
11
221.634
21
-60.9568
0
LINE
8
BLACK
6
CONTINUOUS
10
221.634
20
-60.9568
11
221.768
21
-60.6439
0
LINE
8
BLACK
6
CONTINUOUS
10
221.768
20
-60.6439
11
221.936
21
-60.3478
0
LINE
8
BLACK
6
CONTINUOUS
10
221.936
20
-60.3478
11
222.136
21
-60.0723
0
LINE
8
BLACK
6
CONTINUOUS
10
222.136
20
-60.0723
11
222.366
21
-59.8209
0
LINE
8
BLACK
6
CONTINUOUS
10
222.366
20
-59.8209
11
222.622
21
-59.5966
0
LINE
8
BLACK
6
CONTINUOUS
10
222.622
20
-59.5966
11
222.902
21
-59.4022
0
LINE
8
BLACK
6
CONTINUOUS
10
222.902
20
-59.4022
11
223.201
21
-59.2403
0
LINE
8
BLACK
6
CONTINUOUS
10
223.201
20
-59.2403
11
223.517
21
-59.1127
0
LINE
8
BLACK
6
CONTINUOUS
10
223.517
20
-59.1127
11
223.845
21
-59.0211
0
LINE
8
BLACK
6
CONTINUOUS
10
223.845
20
-59.0211
11
224.181
21
-58.9667
0
LINE
8
BLACK
6
CONTINUOUS
10
224.181
20
-58.9667
11
224.521
21
-58.9501
0
LINE
8
BLACK
6
CONTINUOUS
10
224.521
20
-58.9501
11
224.861
21
-58.9715
0
LINE
8
BLACK
6
CONTINUOUS
10
224.861
20
-58.9715
11
225.196
21
-59.0306
0
LINE
8
BLACK
6
CONTINUOUS
10
225.196
20
-59.0306
11
225.523
21
-59.1267
0
LINE
8
BLACK
6
CONTINUOUS
10
225.523
20
-59.1267
11
225.837
21
-59.2587
0
LINE
8
BLACK
6
CONTINUOUS
10
225.837
20
-59.2587
11
226.134
21
-59.4248
0
LINE
8
BLACK
6
CONTINUOUS
10
226.134
20
-59.4248
11
226.411
21
-59.623
0
LINE
8
BLACK
6
CONTINUOUS
10
226.411
20
-59.623
11
226.664
21
-59.8509
0
LINE
8
BLACK
6
CONTINUOUS
10
226.664
20
-59.8509
11
226.89
21
-60.1055
0
LINE
8
BLACK
6
CONTINUOUS
10
226.89
20
-60.1055
11
227.087
21
-60.3837
0
LINE
8
BLACK
6
CONTINUOUS
10
227.087
20
-60.3837
11
227.251
21
-60.6821
0
LINE
8
BLACK
6
CONTINUOUS
10
227.251
20
-60.6821
11
227.38
21
-60.997
0
LINE
8
BLACK
6
CONTINUOUS
10
227.38
20
-60.997
11
227.474
21
-61.3243
0
LINE
8
BLACK
6
CONTINUOUS
10
227.474
20
-61.3243
11
227.531
21
-61.66
0
LINE
8
BLACK
6
CONTINUOUS
10
227.531
20
-61.66
11
227.55
21
-62
0
LINE
8
BLACK
6
CONTINUOUS
10
227.55
20
-62
11
227.549
21
-62.0852
0
LINE
8
BLACK
6
CONTINUOUS
10
227.549
20
-62.0852
11
227.52
21
-62.4245
0
LINE
8
BLACK
6
CONTINUOUS
10
227.52
20
-62.4245
11
227.454
21
-62.7585
0
LINE
8
BLACK
6
CONTINUOUS
10
227.454
20
-62.7585
11
227.351
21
-63.0831
0
LINE
8
BLACK
6
CONTINUOUS
10
227.351
20
-63.0831
11
227.213
21
-63.3941
0
LINE
8
BLACK
6
CONTINUOUS
10
227.213
20
-63.3941
11
227.04
21
-63.6878
0
LINE
8
BLACK
6
CONTINUOUS
10
227.04
20
-63.6878
11
226.836
21
-63.9605
0
LINE
8
BLACK
6
CONTINUOUS
10
226.836
20
-63.9605
11
226.603
21
-64.2087
0
LINE
8
BLACK
6
CONTINUOUS
10
226.603
20
-64.2087
11
226.344
21
-64.4294
0
LINE
8
BLACK
6
CONTINUOUS
10
226.344
20
-64.4294
11
226.062
21
-64.6198
0
LINE
8
BLACK
6
CONTINUOUS
10
226.062
20
-64.6198
11
225.76
21
-64.7776
0
LINE
8
BLACK
6
CONTINUOUS
10
225.76
20
-64.7776
11
225.443
21
-64.9007
0
LINE
8
BLACK
6
CONTINUOUS
10
225.443
20
-64.9007
11
225.113
21
-64.9877
0
LINE
8
BLACK
6
CONTINUOUS
10
225.113
20
-64.9877
11
224.776
21
-65.0374
0
LINE
8
BLACK
6
CONTINUOUS
10
224.776
20
-65.0374
11
224.436
21
-65.0493
0
LINE
8
BLACK
6
CONTINUOUS
10
224.436
20
-65.0493
11
224.097
21
-65.0232
0
LINE
8
BLACK
6
CONTINUOUS
10
224.097
20
-65.0232
11
223.762
21
-64.9594
0
LINE
8
BLACK
6
CONTINUOUS
10
223.762
20
-64.9594
11
223.437
21
-64.8587
0
LINE
8
BLACK
6
CONTINUOUS
10
223.437
20
-64.8587
11
223.125
21
-64.7224
0
LINE
8
BLACK
6
CONTINUOUS
10
223.125
20
-64.7224
11
222.83
21
-64.5521
0
LINE
8
BLACK
6
CONTINUOUS
10
222.83
20
-64.5521
11
222.556
21
-64.3501
0
LINE
8
BLACK
6
CONTINUOUS
10
222.556
20
-64.3501
11
222.306
21
-64.1187
0
LINE
8
BLACK
6
CONTINUOUS
10
222.306
20
-64.1187
11
222.084
21
-63.8609
0
LINE
8
BLACK
6
CONTINUOUS
10
222.084
20
-63.8609
11
221.891
21
-63.58
0
LINE
8
BLACK
6
CONTINUOUS
10
221.891
20
-63.58
11
221.731
21
-63.2793
0
LINE
8
BLACK
6
CONTINUOUS
10
221.731
20
-63.2793
11
221.606
21
-62.9627
0
LINE
8
BLACK
6
CONTINUOUS
10
221.606
20
-62.9627
11
221.517
21
-62.6341
0
LINE
8
BLACK
6
CONTINUOUS
10
221.517
20
-62.6341
11
221.465
21
-62.2976
0
LINE
8
BLACK
6
CONTINUOUS
10
221.465
20
-62.2976
11
221.45
21
-61.9574
0
LINE
8
BLACK
6
CONTINUOUS
10
221.45
20
-61.9574
11
221.454
21
-61.9072
0
LINE
8
BLACK
6
CONTINUOUS
10
221.454
20
-61.9072
11
221.474
21
-61.6177
0
LINE
8
BLACK
6
CONTINUOUS
10
221.474
20
-61.6177
11
221.536
21
-61.2828
0
LINE
8
BLACK
6
CONTINUOUS
10
221.603
20
-62.5841
11
221.69
21
-62.9131
0
LINE
8
BLACK
6
CONTINUOUS
10
221.69
20
-62.9131
11
221.813
21
-63.2301
0
LINE
8
BLACK
6
CONTINUOUS
10
221.813
20
-63.2301
11
221.972
21
-63.5308
0
LINE
8
BLACK
6
CONTINUOUS
10
221.972
20
-63.5308
11
222.165
21
-63.8111
0
LINE
8
BLACK
6
CONTINUOUS
10
222.165
20
-63.8111
11
222.389
21
-64.0675
0
LINE
8
BLACK
6
CONTINUOUS
10
222.389
20
-64.0675
11
222.64
21
-64.2965
0
LINE
8
BLACK
6
CONTINUOUS
10
222.64
20
-64.2965
11
222.917
21
-64.495
0
LINE
8
BLACK
6
CONTINUOUS
10
222.917
20
-64.495
11
223.214
21
-64.6604
0
LINE
8
BLACK
6
CONTINUOUS
10
223.214
20
-64.6604
11
223.528
21
-64.7906
0
LINE
8
BLACK
6
CONTINUOUS
10
223.528
20
-64.7906
11
223.855
21
-64.8838
0
LINE
8
BLACK
6
CONTINUOUS
10
223.855
20
-64.8838
11
224.191
21
-64.9388
0
LINE
8
BLACK
6
CONTINUOUS
10
224.191
20
-64.9388
11
224.531
21
-64.9548
0
LINE
8
BLACK
6
CONTINUOUS
10
224.531
20
-64.9548
11
224.87
21
-64.9317
0
LINE
8
BLACK
6
CONTINUOUS
10
224.87
20
-64.9317
11
225.205
21
-64.8697
0
LINE
8
BLACK
6
CONTINUOUS
10
225.205
20
-64.8697
11
225.53
21
-64.7697
0
LINE
8
BLACK
6
CONTINUOUS
10
225.53
20
-64.7697
11
225.842
21
-64.6329
0
LINE
8
BLACK
6
CONTINUOUS
10
225.842
20
-64.6329
11
226.135
21
-64.4613
0
LINE
8
BLACK
6
CONTINUOUS
10
226.135
20
-64.4613
11
226.407
21
-64.257
0
LINE
8
BLACK
6
CONTINUOUS
10
226.407
20
-64.257
11
226.654
21
-64.0228
0
LINE
8
BLACK
6
CONTINUOUS
10
226.654
20
-64.0228
11
226.872
21
-63.7618
0
LINE
8
BLACK
6
CONTINUOUS
10
226.872
20
-63.7618
11
227.059
21
-63.4775
0
LINE
8
BLACK
6
CONTINUOUS
10
227.059
20
-63.4775
11
227.212
21
-63.1736
0
LINE
8
BLACK
6
CONTINUOUS
10
227.212
20
-63.1736
11
227.329
21
-62.8541
0
LINE
8
BLACK
6
CONTINUOUS
10
227.329
20
-62.8541
11
227.408
21
-62.5233
0
LINE
8
BLACK
6
CONTINUOUS
10
227.408
20
-62.5233
11
227.449
21
-62.1855
0
LINE
8
BLACK
6
CONTINUOUS
10
227.449
20
-62.1855
11
227.455
21
-62
0
LINE
8
BLACK
6
CONTINUOUS
10
227.455
20
-62
11
227.435
21
-61.6604
0
LINE
8
BLACK
6
CONTINUOUS
10
227.435
20
-61.6604
11
227.377
21
-61.3252
0
LINE
8
BLACK
6
CONTINUOUS
10
227.377
20
-61.3252
11
227.28
21
-60.999
0
LINE
8
BLACK
6
CONTINUOUS
10
227.28
20
-60.999
11
227.147
21
-60.6861
0
LINE
8
BLACK
6
CONTINUOUS
10
227.147
20
-60.6861
11
226.978
21
-60.3906
0
LINE
8
BLACK
6
CONTINUOUS
10
226.978
20
-60.3906
11
226.777
21
-60.1164
0
LINE
8
BLACK
6
CONTINUOUS
10
226.777
20
-60.1164
11
226.545
21
-59.8672
0
LINE
8
BLACK
6
CONTINUOUS
10
226.545
20
-59.8672
11
226.287
21
-59.6463
0
LINE
8
BLACK
6
CONTINUOUS
10
226.287
20
-59.6463
11
226.004
21
-59.4565
0
LINE
8
BLACK
6
CONTINUOUS
10
226.004
20
-59.4565
11
225.702
21
-59.3005
0
LINE
8
BLACK
6
CONTINUOUS
10
225.702
20
-59.3005
11
225.384
21
-59.1802
0
LINE
8
BLACK
6
CONTINUOUS
10
225.384
20
-59.1802
11
225.054
21
-59.0973
0
LINE
8
BLACK
6
CONTINUOUS
10
225.054
20
-59.0973
11
224.716
21
-59.0529
0
LINE
8
BLACK
6
CONTINUOUS
10
224.716
20
-59.0529
11
224.376
21
-59.0476
0
LINE
8
BLACK
6
CONTINUOUS
10
224.376
20
-59.0476
11
224.038
21
-59.0814
0
LINE
8
BLACK
6
CONTINUOUS
10
224.038
20
-59.0814
11
223.705
21
-59.1539
0
LINE
8
BLACK
6
CONTINUOUS
10
223.705
20
-59.1539
11
223.383
21
-59.2641
0
LINE
8
BLACK
6
CONTINUOUS
10
223.383
20
-59.2641
11
223.076
21
-59.4105
0
LINE
8
BLACK
6
CONTINUOUS
10
223.076
20
-59.4105
11
222.788
21
-59.5913
0
LINE
8
BLACK
6
CONTINUOUS
10
222.788
20
-59.5913
11
222.523
21
-59.804
0
LINE
8
BLACK
6
CONTINUOUS
10
222.523
20
-59.804
11
222.283
21
-60.0458
0
LINE
8
BLACK
6
CONTINUOUS
10
222.283
20
-60.0458
11
222.074
21
-60.3135
0
LINE
8
BLACK
6
CONTINUOUS
10
222.074
20
-60.3135
11
221.896
21
-60.6036
0
LINE
8
BLACK
6
CONTINUOUS
10
221.896
20
-60.6036
11
221.753
21
-60.9122
0
LINE
8
BLACK
6
CONTINUOUS
10
221.753
20
-60.9122
11
221.646
21
-61.2352
0
LINE
8
BLACK
6
CONTINUOUS
10
221.646
20
-61.2352
11
221.577
21
-61.5683
0
LINE
8
BLACK
6
CONTINUOUS
10
221.577
20
-61.5683
11
221.546
21
-61.9072
0
LINE
8
BLACK
6
CONTINUOUS
10
221.546
20
-61.9072
11
221.555
21
-62.2473
0
LINE
8
BLACK
6
CONTINUOUS
10
221.555
20
-62.2473
11
221.603
21
-62.5841
0
LINE
8
BLACK
6
CONTINUOUS
10
28.0355
20
-61.2828
11
28.1339
21
-60.9568
0
LINE
8
BLACK
6
CONTINUOUS
10
28.1339
20
-60.9568
11
28.2681
21
-60.6439
0
LINE
8
BLACK
6
CONTINUOUS
10
28.2681
20
-60.6439
11
28.4363
21
-60.3478
0
LINE
8
BLACK
6
CONTINUOUS
10
28.4363
20
-60.3478
11
28.6364
21
-60.0723
0
LINE
8
BLACK
6
CONTINUOUS
10
28.6364
20
-60.0723
11
28.866
21
-59.8209
0
LINE
8
BLACK
6
CONTINUOUS
10
28.866
20
-59.8209
11
29.1222
21
-59.5966
0
LINE
8
BLACK
6
CONTINUOUS
10
29.1222
20
-59.5966
11
29.4018
21
-59.4022
0
LINE
8
BLACK
6
CONTINUOUS
10
29.4018
20
-59.4022
11
29.7014
21
-59.2403
0
LINE
8
BLACK
6
CONTINUOUS
10
29.7014
20
-59.2403
11
30.0171
21
-59.1127
0
LINE
8
BLACK
6
CONTINUOUS
10
30.0171
20
-59.1127
11
30.3451
21
-59.0211
0
LINE
8
BLACK
6
CONTINUOUS
10
30.3451
20
-59.0211
11
30.6812
21
-58.9667
0
LINE
8
BLACK
6
CONTINUOUS
10
30.6812
20
-58.9667
11
31.0213
21
-58.9501
0
LINE
8
BLACK
6
CONTINUOUS
10
31.0213
20
-58.9501
11
31.3611
21
-58.9715
0
LINE
8
BLACK
6
CONTINUOUS
10
31.3611
20
-58.9715
11
31.6965
21
-59.0306
0
LINE
8
BLACK
6
CONTINUOUS
10
31.6965
20
-59.0306
11
32.0231
21
-59.1267
0
LINE
8
BLACK
6
CONTINUOUS
10
32.0231
20
-59.1267
11
32.337
21
-59.2587
0
LINE
8
BLACK
6
CONTINUOUS
10
32.337
20
-59.2587
11
32.6343
21
-59.4248
0
LINE
8
BLACK
6
CONTINUOUS
10
32.6343
20
-59.4248
11
32.9111
21
-59.623
0
LINE
8
BLACK
6
CONTINUOUS
10
32.9111
20
-59.623
11
33.1642
21
-59.8509
0
LINE
8
BLACK
6
CONTINUOUS
10
33.1642
20
-59.8509
11
33.3903
21
-60.1055
0
LINE
8
BLACK
6
CONTINUOUS
10
33.3903
20
-60.1055
11
33.5865
21
-60.3837
0
LINE
8
BLACK
6
CONTINUOUS
10
33.5865
20
-60.3837
11
33.7506
21
-60.6821
0
LINE
8
BLACK
6
CONTINUOUS
10
33.7506
20
-60.6821
11
33.8803
21
-60.997
0
LINE
8
BLACK
6
CONTINUOUS
10
33.8803
20
-60.997
11
33.9742
21
-61.3243
0
LINE
8
BLACK
6
CONTINUOUS
10
33.9742
20
-61.3243
11
34.031
21
-61.66
0
LINE
8
BLACK
6
CONTINUOUS
10
34.031
20
-61.66
11
34.05
21
-62
0
LINE
8
BLACK
6
CONTINUOUS
10
34.05
20
-62
11
34.0488
21
-62.0852
0
LINE
8
BLACK
6
CONTINUOUS
10
34.0488
20
-62.0852
11
34.0203
21
-62.4245
0
LINE
8
BLACK
6
CONTINUOUS
10
34.0203
20
-62.4245
11
33.9542
21
-62.7585
0
LINE
8
BLACK
6
CONTINUOUS
10
33.9542
20
-62.7585
11
33.8512
21
-63.0831
0
LINE
8
BLACK
6
CONTINUOUS
10
33.8512
20
-63.0831
11
33.7127
21
-63.3941
0
LINE
8
BLACK
6
CONTINUOUS
10
33.7127
20
-63.3941
11
33.5404
21
-63.6878
0
LINE
8
BLACK
6
CONTINUOUS
10
33.5404
20
-63.6878
11
33.3364
21
-63.9605
0
LINE
8
BLACK
6
CONTINUOUS
10
33.3364
20
-63.9605
11
33.1033
21
-64.2087
0
LINE
8
BLACK
6
CONTINUOUS
10
33.1033
20
-64.2087
11
32.844
21
-64.4294
0
LINE
8
BLACK
6
CONTINUOUS
10
32.844
20
-64.4294
11
32.5617
21
-64.6198
0
LINE
8
BLACK
6
CONTINUOUS
10
32.5617
20
-64.6198
11
32.26
21
-64.7776
0
LINE
8
BLACK
6
CONTINUOUS
10
32.26
20
-64.7776
11
31.9425
21
-64.9007
0
LINE
8
BLACK
6
CONTINUOUS
10
31.9425
20
-64.9007
11
31.6133
21
-64.9877
0
LINE
8
BLACK
6
CONTINUOUS
10
31.6133
20
-64.9877
11
31.2764
21
-65.0374
0
LINE
8
BLACK
6
CONTINUOUS
10
31.2764
20
-65.0374
11
30.9361
21
-65.0493
0
LINE
8
BLACK
6
CONTINUOUS
10
30.9361
20
-65.0493
11
30.5966
21
-65.0232
0
LINE
8
BLACK
6
CONTINUOUS
10
30.5966
20
-65.0232
11
30.2621
21
-64.9594
0
LINE
8
BLACK
6
CONTINUOUS
10
30.2621
20
-64.9594
11
29.9369
21
-64.8587
0
LINE
8
BLACK
6
CONTINUOUS
10
29.9369
20
-64.8587
11
29.6248
21
-64.7224
0
LINE
8
BLACK
6
CONTINUOUS
10
29.6248
20
-64.7224
11
29.3299
21
-64.5521
0
LINE
8
BLACK
6
CONTINUOUS
10
29.3299
20
-64.5521
11
29.0559
21
-64.3501
0
LINE
8
BLACK
6
CONTINUOUS
10
29.0559
20
-64.3501
11
28.806
21
-64.1187
0
LINE
8
BLACK
6
CONTINUOUS
10
28.806
20
-64.1187
11
28.5835
21
-63.8609
0
LINE
8
BLACK
6
CONTINUOUS
10
28.5835
20
-63.8609
11
28.3911
21
-63.58
0
LINE
8
BLACK
6
CONTINUOUS
10
28.3911
20
-63.58
11
28.2313
21
-63.2793
0
LINE
8
BLACK
6
CONTINUOUS
10
28.2313
20
-63.2793
11
28.1059
21
-62.9627
0
LINE
8
BLACK
6
CONTINUOUS
10
28.1059
20
-62.9627
11
28.0166
21
-62.6341
0
LINE
8
BLACK
6
CONTINUOUS
10
28.0166
20
-62.6341
11
27.9646
21
-62.2976
0
LINE
8
BLACK
6
CONTINUOUS
10
27.9646
20
-62.2976
11
27.9503
21
-61.9574
0
LINE
8
BLACK
6
CONTINUOUS
10
27.9503
20
-61.9574
11
27.9538
21
-61.9072
0
LINE
8
BLACK
6
CONTINUOUS
10
27.9538
20
-61.9072
11
27.974
21
-61.6177
0
LINE
8
BLACK
6
CONTINUOUS
10
27.974
20
-61.6177
11
28.0355
21
-61.2828
0
LINE
8
BLACK
6
CONTINUOUS
10
28.1033
20
-62.5841
11
28.1896
21
-62.9131
0
LINE
8
BLACK
6
CONTINUOUS
10
28.1896
20
-62.9131
11
28.3132
21
-63.2301
0
LINE
8
BLACK
6
CONTINUOUS
10
28.3132
20
-63.2301
11
28.4724
21
-63.5308
0
LINE
8
BLACK
6
CONTINUOUS
10
28.4724
20
-63.5308
11
28.6651
21
-63.8111
0
LINE
8
BLACK
6
CONTINUOUS
10
28.6651
20
-63.8111
11
28.8887
21
-64.0675
0
LINE
8
BLACK
6
CONTINUOUS
10
28.8887
20
-64.0675
11
29.1404
21
-64.2965
0
LINE
8
BLACK
6
CONTINUOUS
10
29.1404
20
-64.2965
11
29.4166
21
-64.495
0
LINE
8
BLACK
6
CONTINUOUS
10
29.4166
20
-64.495
11
29.7139
21
-64.6604
0
LINE
8
BLACK
6
CONTINUOUS
10
29.7139
20
-64.6604
11
30.0282
21
-64.7906
0
LINE
8
BLACK
6
CONTINUOUS
10
30.0282
20
-64.7906
11
30.3554
21
-64.8838
0
LINE
8
BLACK
6
CONTINUOUS
10
30.3554
20
-64.8838
11
30.6911
21
-64.9388
0
LINE
8
BLACK
6
CONTINUOUS
10
30.6911
20
-64.9388
11
31.0309
21
-64.9548
0
LINE
8
BLACK
6
CONTINUOUS
10
31.0309
20
-64.9548
11
31.3704
21
-64.9317
0
LINE
8
BLACK
6
CONTINUOUS
10
31.3704
20
-64.9317
11
31.7049
21
-64.8697
0
LINE
8
BLACK
6
CONTINUOUS
10
31.7049
20
-64.8697
11
32.03
21
-64.7697
0
LINE
8
BLACK
6
CONTINUOUS
10
32.03
20
-64.7697
11
32.3415
21
-64.6329
0
LINE
8
BLACK
6
CONTINUOUS
10
32.3415
20
-64.6329
11
32.6353
21
-64.4613
0
LINE
8
BLACK
6
CONTINUOUS
10
32.6353
20
-64.4613
11
32.9073
21
-64.257
0
LINE
8
BLACK
6
CONTINUOUS
10
32.9073
20
-64.257
11
33.1541
21
-64.0228
0
LINE
8
BLACK
6
CONTINUOUS
10
33.1541
20
-64.0228
11
33.3723
21
-63.7618
0
LINE
8
BLACK
6
CONTINUOUS
10
33.3723
20
-63.7618
11
33.5591
21
-63.4775
0
LINE
8
BLACK
6
CONTINUOUS
10
33.5591
20
-63.4775
11
33.712
21
-63.1736
0
LINE
8
BLACK
6
CONTINUOUS
10
33.712
20
-63.1736
11
33.8289
21
-62.8541
0
LINE
8
BLACK
6
CONTINUOUS
10
33.8289
20
-62.8541
11
33.9083
21
-62.5233
0
LINE
8
BLACK
6
CONTINUOUS
10
33.9083
20
-62.5233
11
33.9492
21
-62.1855
0
LINE
8
BLACK
6
CONTINUOUS
10
33.9492
20
-62.1855
11
33.955
21
-62
0
LINE
8
BLACK
6
CONTINUOUS
10
33.955
20
-62
11
33.9354
21
-61.6604
0
LINE
8
BLACK
6
CONTINUOUS
10
33.9354
20
-61.6604
11
33.8769
21
-61.3252
0
LINE
8
BLACK
6
CONTINUOUS
10
33.8769
20
-61.3252
11
33.7803
21
-60.999
0
LINE
8
BLACK
6
CONTINUOUS
10
33.7803
20
-60.999
11
33.6468
21
-60.6861
0
LINE
8
BLACK
6
CONTINUOUS
10
33.6468
20
-60.6861
11
33.4783
21
-60.3906
0
LINE
8
BLACK
6
CONTINUOUS
10
33.4783
20
-60.3906
11
33.2769
21
-60.1164
0
LINE
8
BLACK
6
CONTINUOUS
10
33.2769
20
-60.1164
11
33.0453
21
-59.8672
0
LINE
8
BLACK
6
CONTINUOUS
10
33.0453
20
-59.8672
11
32.7866
21
-59.6463
0
LINE
8
BLACK
6
CONTINUOUS
10
32.7866
20
-59.6463
11
32.5042
21
-59.4565
0
LINE
8
BLACK
6
CONTINUOUS
10
32.5042
20
-59.4565
11
32.2019
21
-59.3005
0
LINE
8
BLACK
6
CONTINUOUS
10
32.2019
20
-59.3005
11
31.8837
21
-59.1802
0
LINE
8
BLACK
6
CONTINUOUS
10
31.8837
20
-59.1802
11
31.5537
21
-59.0973
0
LINE
8
BLACK
6
CONTINUOUS
10
31.5537
20
-59.0973
11
31.2164
21
-59.0529
0
LINE
8
BLACK
6
CONTINUOUS
10
31.2164
20
-59.0529
11
30.8763
21
-59.0476
0
LINE
8
BLACK
6
CONTINUOUS
10
30.8763
20
-59.0476
11
30.5377
21
-59.0814
0
LINE
8
BLACK
6
CONTINUOUS
10
30.5377
20
-59.0814
11
30.2053
21
-59.1539
0
LINE
8
BLACK
6
CONTINUOUS
10
30.2053
20
-59.1539
11
29.8835
21
-59.2641
0
LINE
8
BLACK
6
CONTINUOUS
10
29.8835
20
-59.2641
11
29.5764
21
-59.4105
0
LINE
8
BLACK
6
CONTINUOUS
10
29.5764
20
-59.4105
11
29.2882
21
-59.5913
0
LINE
8
BLACK
6
CONTINUOUS
10
29.2882
20
-59.5913
11
29.0227
21
-59.804
0
LINE
8
BLACK
6
CONTINUOUS
10
29.0227
20
-59.804
11
28.7834
21
-60.0458
0
LINE
8
BLACK
6
CONTINUOUS
10
28.7834
20
-60.0458
11
28.5735
21
-60.3135
0
LINE
8
BLACK
6
CONTINUOUS
10
28.5735
20
-60.3135
11
28.3957
21
-60.6036
0
LINE
8
BLACK
6
CONTINUOUS
10
28.3957
20
-60.6036
11
28.2525
21
-60.9122
0
LINE
8
BLACK
6
CONTINUOUS
10
28.2525
20
-60.9122
11
28.1457
21
-61.2352
0
LINE
8
BLACK
6
CONTINUOUS
10
28.1457
20
-61.2352
11
28.0767
21
-61.5683
0
LINE
8
BLACK
6
CONTINUOUS
10
28.0767
20
-61.5683
11
28.0465
21
-61.9072
0
LINE
8
BLACK
6
CONTINUOUS
10
28.0465
20
-61.9072
11
28.0554
21
-62.2473
0
LINE
8
BLACK
6
CONTINUOUS
10
28.0554
20
-62.2473
11
28.1033
21
-62.5841
  0
ENDSEC
  0
EOF
