  0
SECTION
  2
HEADER
  9
$ANGBASE
  50
0.0
  9
$ANGDIR
  70
1
  9
$MEASUREMENT
  70
1
  0
ENDSEC
  0
SECTION
  2
TABLES
  0
TABLE
  2
LTYPE
  70
4
  0
LTYPE
  5
40F
  2
CONTINUOUS
  70
0
  3
Solid line
  72
65
  73
0
  40
0.0
  0
LTYPE
  5
410
  2
DASHDOT
 70
0
  3
Dash Dot ____ _ ____ _
 72
65
 73
4
 40
2.0
 49
1.25
 49
-0.25
 49
0.25
 49
-0.25
  0
LTYPE
  5
411
  2
DASHED
 70
0
  3
Dashed __ __ __ __ __
 72
65
 73
2
 40
0.75
 49
0.5
 49
-0.25
  0
LTYPE
  5
43B
  2
DOTTED
 70
0
  3
Dotted .  .  .  .
 72
65
 73
2
 40
0.2
 49
0.0
 49
-0.2
  0
ENDTAB
  0
TABLE
  2
STYLE
  70
4
  0
STYLE
  2
KICAD
  70
0
  40
0
  41
1
  42
1
  50
0
  71
0
  3
isocp.shx
  0
STYLE
  2
KICADB
  70
0
  40
0
  41
1
  42
1
  50
0
  71
0
  3
isocp.shx
  0
STYLE
  2
KICADI
  70
0
  40
0
  41
1
  42
1
  50
15
  71
0
  3
isocp.shx
  0
STYLE
  2
KICADBI
  70
0
  40
0
  41
1
  42
1
  50
15
  71
0
  3
isocp.shx
  0
ENDTAB
  0
TABLE
  2
LAYER
  70
1
  0
LAYER
  2
BLACK
  70
0
  62
7
  6
CONTINUOUS
  0
ENDTAB
  0
ENDSEC
  0
SECTION
  2
ENTITIES
0
LINE
8
BLACK
6
CONTINUOUS
10
275.681
20
-199.033
11
275.366
21
-198.983
0
LINE
8
BLACK
6
CONTINUOUS
10
275.366
20
-198.983
11
275.057
21
-198.901
0
LINE
8
BLACK
6
CONTINUOUS
10
275.057
20
-198.901
11
274.759
21
-198.786
0
LINE
8
BLACK
6
CONTINUOUS
10
274.759
20
-198.786
11
274.475
21
-198.641
0
LINE
8
BLACK
6
CONTINUOUS
10
274.475
20
-198.641
11
274.207
21
-198.468
0
LINE
8
BLACK
6
CONTINUOUS
10
274.207
20
-198.468
11
273.959
21
-198.267
0
LINE
8
BLACK
6
CONTINUOUS
10
273.959
20
-198.267
11
273.733
21
-198.041
0
LINE
8
BLACK
6
CONTINUOUS
10
273.733
20
-198.041
11
273.532
21
-197.793
0
LINE
8
BLACK
6
CONTINUOUS
10
273.532
20
-197.793
11
273.359
21
-197.525
0
LINE
8
BLACK
6
CONTINUOUS
10
273.359
20
-197.525
11
273.214
21
-197.241
0
LINE
8
BLACK
6
CONTINUOUS
10
273.214
20
-197.241
11
273.099
21
-196.943
0
LINE
8
BLACK
6
CONTINUOUS
10
273.099
20
-196.943
11
273.017
21
-196.634
0
LINE
8
BLACK
6
CONTINUOUS
10
273.017
20
-196.634
11
272.967
21
-196.319
0
LINE
8
BLACK
6
CONTINUOUS
10
272.967
20
-196.319
11
272.95
21
-196
0
LINE
8
BLACK
6
CONTINUOUS
10
272.95
20
-196
11
272.95
21
-159
0
LINE
8
BLACK
6
CONTINUOUS
10
272.95
20
-159
11
272.967
21
-158.681
0
LINE
8
BLACK
6
CONTINUOUS
10
272.967
20
-158.681
11
273.017
21
-158.366
0
LINE
8
BLACK
6
CONTINUOUS
10
273.017
20
-158.366
11
273.099
21
-158.057
0
LINE
8
BLACK
6
CONTINUOUS
10
273.099
20
-158.057
11
273.214
21
-157.759
0
LINE
8
BLACK
6
CONTINUOUS
10
273.214
20
-157.759
11
273.359
21
-157.475
0
LINE
8
BLACK
6
CONTINUOUS
10
273.359
20
-157.475
11
273.532
21
-157.207
0
LINE
8
BLACK
6
CONTINUOUS
10
273.532
20
-157.207
11
273.733
21
-156.959
0
LINE
8
BLACK
6
CONTINUOUS
10
273.733
20
-156.959
11
273.959
21
-156.733
0
LINE
8
BLACK
6
CONTINUOUS
10
273.959
20
-156.733
11
274.207
21
-156.532
0
LINE
8
BLACK
6
CONTINUOUS
10
274.207
20
-156.532
11
274.475
21
-156.359
0
LINE
8
BLACK
6
CONTINUOUS
10
274.475
20
-156.359
11
274.759
21
-156.214
0
LINE
8
BLACK
6
CONTINUOUS
10
274.759
20
-156.214
11
275.057
21
-156.099
0
LINE
8
BLACK
6
CONTINUOUS
10
275.057
20
-156.099
11
275.366
21
-156.017
0
LINE
8
BLACK
6
CONTINUOUS
10
275.366
20
-156.017
11
275.681
21
-155.967
0
LINE
8
BLACK
6
CONTINUOUS
10
275.681
20
-155.967
11
276
21
-155.95
0
LINE
8
BLACK
6
CONTINUOUS
10
276
20
-155.95
11
315
21
-155.95
0
LINE
8
BLACK
6
CONTINUOUS
10
315
20
-155.95
11
315.319
21
-155.967
0
LINE
8
BLACK
6
CONTINUOUS
10
315.319
20
-155.967
11
315.634
21
-156.017
0
LINE
8
BLACK
6
CONTINUOUS
10
315.634
20
-156.017
11
315.943
21
-156.099
0
LINE
8
BLACK
6
CONTINUOUS
10
315.943
20
-156.099
11
316.241
21
-156.214
0
LINE
8
BLACK
6
CONTINUOUS
10
316.241
20
-156.214
11
316.525
21
-156.359
0
LINE
8
BLACK
6
CONTINUOUS
10
316.525
20
-156.359
11
316.793
21
-156.532
0
LINE
8
BLACK
6
CONTINUOUS
10
316.793
20
-156.532
11
317.041
21
-156.733
0
LINE
8
BLACK
6
CONTINUOUS
10
317.041
20
-156.733
11
317.267
21
-156.959
0
LINE
8
BLACK
6
CONTINUOUS
10
317.267
20
-156.959
11
317.468
21
-157.207
0
LINE
8
BLACK
6
CONTINUOUS
10
317.468
20
-157.207
11
317.641
21
-157.475
0
LINE
8
BLACK
6
CONTINUOUS
10
317.641
20
-157.475
11
317.786
21
-157.759
0
LINE
8
BLACK
6
CONTINUOUS
10
317.786
20
-157.759
11
317.901
21
-158.057
0
LINE
8
BLACK
6
CONTINUOUS
10
317.901
20
-158.057
11
317.983
21
-158.366
0
LINE
8
BLACK
6
CONTINUOUS
10
317.983
20
-158.366
11
318.033
21
-158.681
0
LINE
8
BLACK
6
CONTINUOUS
10
318.033
20
-158.681
11
318.05
21
-159
0
LINE
8
BLACK
6
CONTINUOUS
10
318.05
20
-159
11
318.05
21
-196
0
LINE
8
BLACK
6
CONTINUOUS
10
318.05
20
-196
11
318.033
21
-196.319
0
LINE
8
BLACK
6
CONTINUOUS
10
318.033
20
-196.319
11
317.983
21
-196.634
0
LINE
8
BLACK
6
CONTINUOUS
10
317.983
20
-196.634
11
317.901
21
-196.943
0
LINE
8
BLACK
6
CONTINUOUS
10
317.901
20
-196.943
11
317.786
21
-197.241
0
LINE
8
BLACK
6
CONTINUOUS
10
317.786
20
-197.241
11
317.641
21
-197.525
0
LINE
8
BLACK
6
CONTINUOUS
10
317.641
20
-197.525
11
317.468
21
-197.793
0
LINE
8
BLACK
6
CONTINUOUS
10
317.468
20
-197.793
11
317.267
21
-198.041
0
LINE
8
BLACK
6
CONTINUOUS
10
317.267
20
-198.041
11
317.041
21
-198.267
0
LINE
8
BLACK
6
CONTINUOUS
10
317.041
20
-198.267
11
316.793
21
-198.468
0
LINE
8
BLACK
6
CONTINUOUS
10
316.793
20
-198.468
11
316.525
21
-198.641
0
LINE
8
BLACK
6
CONTINUOUS
10
316.525
20
-198.641
11
316.241
21
-198.786
0
LINE
8
BLACK
6
CONTINUOUS
10
316.241
20
-198.786
11
315.943
21
-198.901
0
LINE
8
BLACK
6
CONTINUOUS
10
315.943
20
-198.901
11
315.634
21
-198.983
0
LINE
8
BLACK
6
CONTINUOUS
10
315.634
20
-198.983
11
315.319
21
-199.033
0
LINE
8
BLACK
6
CONTINUOUS
10
315.319
20
-199.033
11
315
21
-199.05
0
LINE
8
BLACK
6
CONTINUOUS
10
315
20
-199.05
11
276
21
-199.05
0
LINE
8
BLACK
6
CONTINUOUS
10
276
20
-199.05
11
275.681
21
-199.033
0
LINE
8
BLACK
6
CONTINUOUS
10
275.99
20
-156.046
11
275.669
21
-156.064
0
LINE
8
BLACK
6
CONTINUOUS
10
275.669
20
-156.064
11
275.343
21
-156.119
0
LINE
8
BLACK
6
CONTINUOUS
10
275.343
20
-156.119
11
275.024
21
-156.211
0
LINE
8
BLACK
6
CONTINUOUS
10
275.024
20
-156.211
11
274.718
21
-156.338
0
LINE
8
BLACK
6
CONTINUOUS
10
274.718
20
-156.338
11
274.428
21
-156.498
0
LINE
8
BLACK
6
CONTINUOUS
10
274.428
20
-156.498
11
274.158
21
-156.69
0
LINE
8
BLACK
6
CONTINUOUS
10
274.158
20
-156.69
11
273.911
21
-156.911
0
LINE
8
BLACK
6
CONTINUOUS
10
273.911
20
-156.911
11
273.69
21
-157.158
0
LINE
8
BLACK
6
CONTINUOUS
10
273.69
20
-157.158
11
273.498
21
-157.428
0
LINE
8
BLACK
6
CONTINUOUS
10
273.498
20
-157.428
11
273.338
21
-157.718
0
LINE
8
BLACK
6
CONTINUOUS
10
273.338
20
-157.718
11
273.211
21
-158.024
0
LINE
8
BLACK
6
CONTINUOUS
10
273.211
20
-158.024
11
273.119
21
-158.343
0
LINE
8
BLACK
6
CONTINUOUS
10
273.119
20
-158.343
11
273.064
21
-158.669
0
LINE
8
BLACK
6
CONTINUOUS
10
273.064
20
-158.669
11
273.046
21
-158.99
0
LINE
8
BLACK
6
CONTINUOUS
10
273.046
20
-158.99
11
273.05
21
-159
0
LINE
8
BLACK
6
CONTINUOUS
10
273.05
20
-159
11
273.05
21
-196
0
LINE
8
BLACK
6
CONTINUOUS
10
273.05
20
-196
11
273.046
21
-196.01
0
LINE
8
BLACK
6
CONTINUOUS
10
273.046
20
-196.01
11
273.064
21
-196.331
0
LINE
8
BLACK
6
CONTINUOUS
10
273.064
20
-196.331
11
273.119
21
-196.657
0
LINE
8
BLACK
6
CONTINUOUS
10
273.119
20
-196.657
11
273.211
21
-196.976
0
LINE
8
BLACK
6
CONTINUOUS
10
273.211
20
-196.976
11
273.338
21
-197.282
0
LINE
8
BLACK
6
CONTINUOUS
10
273.338
20
-197.282
11
273.498
21
-197.572
0
LINE
8
BLACK
6
CONTINUOUS
10
273.498
20
-197.572
11
273.69
21
-197.842
0
LINE
8
BLACK
6
CONTINUOUS
10
273.69
20
-197.842
11
273.911
21
-198.089
0
LINE
8
BLACK
6
CONTINUOUS
10
273.911
20
-198.089
11
274.158
21
-198.31
0
LINE
8
BLACK
6
CONTINUOUS
10
274.158
20
-198.31
11
274.428
21
-198.502
0
LINE
8
BLACK
6
CONTINUOUS
10
274.428
20
-198.502
11
274.718
21
-198.662
0
LINE
8
BLACK
6
CONTINUOUS
10
274.718
20
-198.662
11
275.024
21
-198.789
0
LINE
8
BLACK
6
CONTINUOUS
10
275.024
20
-198.789
11
275.343
21
-198.881
0
LINE
8
BLACK
6
CONTINUOUS
10
275.343
20
-198.881
11
275.669
21
-198.936
0
LINE
8
BLACK
6
CONTINUOUS
10
275.669
20
-198.936
11
275.99
21
-198.954
0
LINE
8
BLACK
6
CONTINUOUS
10
275.99
20
-198.954
11
276
21
-198.95
0
LINE
8
BLACK
6
CONTINUOUS
10
276
20
-198.95
11
315
21
-198.95
0
LINE
8
BLACK
6
CONTINUOUS
10
315
20
-198.95
11
315.01
21
-198.954
0
LINE
8
BLACK
6
CONTINUOUS
10
315.01
20
-198.954
11
315.331
21
-198.936
0
LINE
8
BLACK
6
CONTINUOUS
10
315.331
20
-198.936
11
315.657
21
-198.881
0
LINE
8
BLACK
6
CONTINUOUS
10
315.657
20
-198.881
11
315.976
21
-198.789
0
LINE
8
BLACK
6
CONTINUOUS
10
315.976
20
-198.789
11
316.282
21
-198.662
0
LINE
8
BLACK
6
CONTINUOUS
10
316.282
20
-198.662
11
316.572
21
-198.502
0
LINE
8
BLACK
6
CONTINUOUS
10
316.572
20
-198.502
11
316.842
21
-198.31
0
LINE
8
BLACK
6
CONTINUOUS
10
316.842
20
-198.31
11
317.089
21
-198.089
0
LINE
8
BLACK
6
CONTINUOUS
10
317.089
20
-198.089
11
317.31
21
-197.842
0
LINE
8
BLACK
6
CONTINUOUS
10
317.31
20
-197.842
11
317.502
21
-197.572
0
LINE
8
BLACK
6
CONTINUOUS
10
317.502
20
-197.572
11
317.662
21
-197.282
0
LINE
8
BLACK
6
CONTINUOUS
10
317.662
20
-197.282
11
317.789
21
-196.976
0
LINE
8
BLACK
6
CONTINUOUS
10
317.789
20
-196.976
11
317.881
21
-196.657
0
LINE
8
BLACK
6
CONTINUOUS
10
317.881
20
-196.657
11
317.936
21
-196.331
0
LINE
8
BLACK
6
CONTINUOUS
10
317.936
20
-196.331
11
317.954
21
-196.01
0
LINE
8
BLACK
6
CONTINUOUS
10
317.954
20
-196.01
11
317.95
21
-196
0
LINE
8
BLACK
6
CONTINUOUS
10
317.95
20
-196
11
317.95
21
-159
0
LINE
8
BLACK
6
CONTINUOUS
10
317.95
20
-159
11
317.954
21
-158.99
0
LINE
8
BLACK
6
CONTINUOUS
10
317.954
20
-158.99
11
317.936
21
-158.669
0
LINE
8
BLACK
6
CONTINUOUS
10
317.936
20
-158.669
11
317.881
21
-158.343
0
LINE
8
BLACK
6
CONTINUOUS
10
317.881
20
-158.343
11
317.789
21
-158.024
0
LINE
8
BLACK
6
CONTINUOUS
10
317.789
20
-158.024
11
317.662
21
-157.718
0
LINE
8
BLACK
6
CONTINUOUS
10
317.662
20
-157.718
11
317.502
21
-157.428
0
LINE
8
BLACK
6
CONTINUOUS
10
317.502
20
-157.428
11
317.31
21
-157.158
0
LINE
8
BLACK
6
CONTINUOUS
10
317.31
20
-157.158
11
317.089
21
-156.911
0
LINE
8
BLACK
6
CONTINUOUS
10
317.089
20
-156.911
11
316.842
21
-156.69
0
LINE
8
BLACK
6
CONTINUOUS
10
316.842
20
-156.69
11
316.572
21
-156.498
0
LINE
8
BLACK
6
CONTINUOUS
10
316.572
20
-156.498
11
316.282
21
-156.338
0
LINE
8
BLACK
6
CONTINUOUS
10
316.282
20
-156.338
11
315.976
21
-156.211
0
LINE
8
BLACK
6
CONTINUOUS
10
315.976
20
-156.211
11
315.657
21
-156.119
0
LINE
8
BLACK
6
CONTINUOUS
10
315.657
20
-156.119
11
315.331
21
-156.064
0
LINE
8
BLACK
6
CONTINUOUS
10
315.331
20
-156.064
11
315.01
21
-156.046
0
LINE
8
BLACK
6
CONTINUOUS
10
315.01
20
-156.046
11
315
21
-156.05
0
LINE
8
BLACK
6
CONTINUOUS
10
315
20
-156.05
11
276
21
-156.05
0
LINE
8
BLACK
6
CONTINUOUS
10
276
20
-156.05
11
275.99
21
-156.046
0
LINE
8
BLACK
6
CONTINUOUS
10
275.036
20
-192.283
11
275.134
21
-191.957
0
LINE
8
BLACK
6
CONTINUOUS
10
275.134
20
-191.957
11
275.268
21
-191.644
0
LINE
8
BLACK
6
CONTINUOUS
10
275.268
20
-191.644
11
275.436
21
-191.348
0
LINE
8
BLACK
6
CONTINUOUS
10
275.436
20
-191.348
11
275.636
21
-191.072
0
LINE
8
BLACK
6
CONTINUOUS
10
275.636
20
-191.072
11
275.866
21
-190.821
0
LINE
8
BLACK
6
CONTINUOUS
10
275.866
20
-190.821
11
276.122
21
-190.597
0
LINE
8
BLACK
6
CONTINUOUS
10
276.122
20
-190.597
11
276.402
21
-190.402
0
LINE
8
BLACK
6
CONTINUOUS
10
276.402
20
-190.402
11
276.701
21
-190.24
0
LINE
8
BLACK
6
CONTINUOUS
10
276.701
20
-190.24
11
277.017
21
-190.113
0
LINE
8
BLACK
6
CONTINUOUS
10
277.017
20
-190.113
11
277.345
21
-190.021
0
LINE
8
BLACK
6
CONTINUOUS
10
277.345
20
-190.021
11
277.681
21
-189.967
0
LINE
8
BLACK
6
CONTINUOUS
10
277.681
20
-189.967
11
278.021
21
-189.95
0
LINE
8
BLACK
6
CONTINUOUS
10
278.021
20
-189.95
11
278.361
21
-189.971
0
LINE
8
BLACK
6
CONTINUOUS
10
278.361
20
-189.971
11
278.696
21
-190.031
0
LINE
8
BLACK
6
CONTINUOUS
10
278.696
20
-190.031
11
279.023
21
-190.127
0
LINE
8
BLACK
6
CONTINUOUS
10
279.023
20
-190.127
11
279.337
21
-190.259
0
LINE
8
BLACK
6
CONTINUOUS
10
279.337
20
-190.259
11
279.634
21
-190.425
0
LINE
8
BLACK
6
CONTINUOUS
10
279.634
20
-190.425
11
279.911
21
-190.623
0
LINE
8
BLACK
6
CONTINUOUS
10
279.911
20
-190.623
11
280.164
21
-190.851
0
LINE
8
BLACK
6
CONTINUOUS
10
280.164
20
-190.851
11
280.39
21
-191.105
0
LINE
8
BLACK
6
CONTINUOUS
10
280.39
20
-191.105
11
280.587
21
-191.384
0
LINE
8
BLACK
6
CONTINUOUS
10
280.587
20
-191.384
11
280.751
21
-191.682
0
LINE
8
BLACK
6
CONTINUOUS
10
280.751
20
-191.682
11
280.88
21
-191.997
0
LINE
8
BLACK
6
CONTINUOUS
10
280.88
20
-191.997
11
280.974
21
-192.324
0
LINE
8
BLACK
6
CONTINUOUS
10
280.974
20
-192.324
11
281.031
21
-192.66
0
LINE
8
BLACK
6
CONTINUOUS
10
281.031
20
-192.66
11
281.05
21
-193
0
LINE
8
BLACK
6
CONTINUOUS
10
281.05
20
-193
11
281.049
21
-193.085
0
LINE
8
BLACK
6
CONTINUOUS
10
281.049
20
-193.085
11
281.02
21
-193.424
0
LINE
8
BLACK
6
CONTINUOUS
10
281.02
20
-193.424
11
280.954
21
-193.759
0
LINE
8
BLACK
6
CONTINUOUS
10
280.954
20
-193.759
11
280.851
21
-194.083
0
LINE
8
BLACK
6
CONTINUOUS
10
280.851
20
-194.083
11
280.713
21
-194.394
0
LINE
8
BLACK
6
CONTINUOUS
10
280.713
20
-194.394
11
280.54
21
-194.688
0
LINE
8
BLACK
6
CONTINUOUS
10
280.54
20
-194.688
11
280.336
21
-194.961
0
LINE
8
BLACK
6
CONTINUOUS
10
280.336
20
-194.961
11
280.103
21
-195.209
0
LINE
8
BLACK
6
CONTINUOUS
10
280.103
20
-195.209
11
279.844
21
-195.429
0
LINE
8
BLACK
6
CONTINUOUS
10
279.844
20
-195.429
11
279.562
21
-195.62
0
LINE
8
BLACK
6
CONTINUOUS
10
279.562
20
-195.62
11
279.26
21
-195.778
0
LINE
8
BLACK
6
CONTINUOUS
10
279.26
20
-195.778
11
278.943
21
-195.901
0
LINE
8
BLACK
6
CONTINUOUS
10
278.943
20
-195.901
11
278.613
21
-195.988
0
LINE
8
BLACK
6
CONTINUOUS
10
278.613
20
-195.988
11
278.276
21
-196.037
0
LINE
8
BLACK
6
CONTINUOUS
10
278.276
20
-196.037
11
277.936
21
-196.049
0
LINE
8
BLACK
6
CONTINUOUS
10
277.936
20
-196.049
11
277.597
21
-196.023
0
LINE
8
BLACK
6
CONTINUOUS
10
277.597
20
-196.023
11
277.262
21
-195.959
0
LINE
8
BLACK
6
CONTINUOUS
10
277.262
20
-195.959
11
276.937
21
-195.859
0
LINE
8
BLACK
6
CONTINUOUS
10
276.937
20
-195.859
11
276.625
21
-195.722
0
LINE
8
BLACK
6
CONTINUOUS
10
276.625
20
-195.722
11
276.33
21
-195.552
0
LINE
8
BLACK
6
CONTINUOUS
10
276.33
20
-195.552
11
276.056
21
-195.35
0
LINE
8
BLACK
6
CONTINUOUS
10
276.056
20
-195.35
11
275.806
21
-195.119
0
LINE
8
BLACK
6
CONTINUOUS
10
275.806
20
-195.119
11
275.584
21
-194.861
0
LINE
8
BLACK
6
CONTINUOUS
10
275.584
20
-194.861
11
275.391
21
-194.58
0
LINE
8
BLACK
6
CONTINUOUS
10
275.391
20
-194.58
11
275.231
21
-194.279
0
LINE
8
BLACK
6
CONTINUOUS
10
275.231
20
-194.279
11
275.106
21
-193.963
0
LINE
8
BLACK
6
CONTINUOUS
10
275.106
20
-193.963
11
275.017
21
-193.634
0
LINE
8
BLACK
6
CONTINUOUS
10
275.017
20
-193.634
11
274.965
21
-193.298
0
LINE
8
BLACK
6
CONTINUOUS
10
274.965
20
-193.298
11
274.95
21
-192.957
0
LINE
8
BLACK
6
CONTINUOUS
10
274.95
20
-192.957
11
274.954
21
-192.907
0
LINE
8
BLACK
6
CONTINUOUS
10
274.954
20
-192.907
11
274.974
21
-192.618
0
LINE
8
BLACK
6
CONTINUOUS
10
274.974
20
-192.618
11
275.036
21
-192.283
0
LINE
8
BLACK
6
CONTINUOUS
10
275.103
20
-193.584
11
275.19
21
-193.913
0
LINE
8
BLACK
6
CONTINUOUS
10
275.19
20
-193.913
11
275.313
21
-194.23
0
LINE
8
BLACK
6
CONTINUOUS
10
275.313
20
-194.23
11
275.472
21
-194.531
0
LINE
8
BLACK
6
CONTINUOUS
10
275.472
20
-194.531
11
275.665
21
-194.811
0
LINE
8
BLACK
6
CONTINUOUS
10
275.665
20
-194.811
11
275.889
21
-195.068
0
LINE
8
BLACK
6
CONTINUOUS
10
275.889
20
-195.068
11
276.14
21
-195.296
0
LINE
8
BLACK
6
CONTINUOUS
10
276.14
20
-195.296
11
276.417
21
-195.495
0
LINE
8
BLACK
6
CONTINUOUS
10
276.417
20
-195.495
11
276.714
21
-195.66
0
LINE
8
BLACK
6
CONTINUOUS
10
276.714
20
-195.66
11
277.028
21
-195.791
0
LINE
8
BLACK
6
CONTINUOUS
10
277.028
20
-195.791
11
277.355
21
-195.884
0
LINE
8
BLACK
6
CONTINUOUS
10
277.355
20
-195.884
11
277.691
21
-195.939
0
LINE
8
BLACK
6
CONTINUOUS
10
277.691
20
-195.939
11
278.031
21
-195.955
0
LINE
8
BLACK
6
CONTINUOUS
10
278.031
20
-195.955
11
278.37
21
-195.932
0
LINE
8
BLACK
6
CONTINUOUS
10
278.37
20
-195.932
11
278.705
21
-195.87
0
LINE
8
BLACK
6
CONTINUOUS
10
278.705
20
-195.87
11
279.03
21
-195.77
0
LINE
8
BLACK
6
CONTINUOUS
10
279.03
20
-195.77
11
279.342
21
-195.633
0
LINE
8
BLACK
6
CONTINUOUS
10
279.342
20
-195.633
11
279.635
21
-195.461
0
LINE
8
BLACK
6
CONTINUOUS
10
279.635
20
-195.461
11
279.907
21
-195.257
0
LINE
8
BLACK
6
CONTINUOUS
10
279.907
20
-195.257
11
280.154
21
-195.023
0
LINE
8
BLACK
6
CONTINUOUS
10
280.154
20
-195.023
11
280.372
21
-194.762
0
LINE
8
BLACK
6
CONTINUOUS
10
280.372
20
-194.762
11
280.559
21
-194.477
0
LINE
8
BLACK
6
CONTINUOUS
10
280.559
20
-194.477
11
280.712
21
-194.174
0
LINE
8
BLACK
6
CONTINUOUS
10
280.712
20
-194.174
11
280.829
21
-193.854
0
LINE
8
BLACK
6
CONTINUOUS
10
280.829
20
-193.854
11
280.908
21
-193.523
0
LINE
8
BLACK
6
CONTINUOUS
10
280.908
20
-193.523
11
280.949
21
-193.186
0
LINE
8
BLACK
6
CONTINUOUS
10
280.949
20
-193.186
11
280.955
21
-193
0
LINE
8
BLACK
6
CONTINUOUS
10
280.955
20
-193
11
280.935
21
-192.66
0
LINE
8
BLACK
6
CONTINUOUS
10
280.935
20
-192.66
11
280.877
21
-192.325
0
LINE
8
BLACK
6
CONTINUOUS
10
280.877
20
-192.325
11
280.78
21
-191.999
0
LINE
8
BLACK
6
CONTINUOUS
10
280.78
20
-191.999
11
280.647
21
-191.686
0
LINE
8
BLACK
6
CONTINUOUS
10
280.647
20
-191.686
11
280.478
21
-191.391
0
LINE
8
BLACK
6
CONTINUOUS
10
280.478
20
-191.391
11
280.277
21
-191.116
0
LINE
8
BLACK
6
CONTINUOUS
10
280.277
20
-191.116
11
280.045
21
-190.867
0
LINE
8
BLACK
6
CONTINUOUS
10
280.045
20
-190.867
11
279.787
21
-190.646
0
LINE
8
BLACK
6
CONTINUOUS
10
279.787
20
-190.646
11
279.504
21
-190.457
0
LINE
8
BLACK
6
CONTINUOUS
10
279.504
20
-190.457
11
279.202
21
-190.3
0
LINE
8
BLACK
6
CONTINUOUS
10
279.202
20
-190.3
11
278.884
21
-190.18
0
LINE
8
BLACK
6
CONTINUOUS
10
278.884
20
-190.18
11
278.554
21
-190.097
0
LINE
8
BLACK
6
CONTINUOUS
10
278.554
20
-190.097
11
278.216
21
-190.053
0
LINE
8
BLACK
6
CONTINUOUS
10
278.216
20
-190.053
11
277.876
21
-190.048
0
LINE
8
BLACK
6
CONTINUOUS
10
277.876
20
-190.048
11
277.538
21
-190.081
0
LINE
8
BLACK
6
CONTINUOUS
10
277.538
20
-190.081
11
277.205
21
-190.154
0
LINE
8
BLACK
6
CONTINUOUS
10
277.205
20
-190.154
11
276.883
21
-190.264
0
LINE
8
BLACK
6
CONTINUOUS
10
276.883
20
-190.264
11
276.576
21
-190.411
0
LINE
8
BLACK
6
CONTINUOUS
10
276.576
20
-190.411
11
276.288
21
-190.591
0
LINE
8
BLACK
6
CONTINUOUS
10
276.288
20
-190.591
11
276.023
21
-190.804
0
LINE
8
BLACK
6
CONTINUOUS
10
276.023
20
-190.804
11
275.783
21
-191.046
0
LINE
8
BLACK
6
CONTINUOUS
10
275.783
20
-191.046
11
275.574
21
-191.314
0
LINE
8
BLACK
6
CONTINUOUS
10
275.574
20
-191.314
11
275.396
21
-191.604
0
LINE
8
BLACK
6
CONTINUOUS
10
275.396
20
-191.604
11
275.253
21
-191.912
0
LINE
8
BLACK
6
CONTINUOUS
10
275.253
20
-191.912
11
275.146
21
-192.235
0
LINE
8
BLACK
6
CONTINUOUS
10
275.146
20
-192.235
11
275.077
21
-192.568
0
LINE
8
BLACK
6
CONTINUOUS
10
275.077
20
-192.568
11
275.046
21
-192.907
0
LINE
8
BLACK
6
CONTINUOUS
10
275.046
20
-192.907
11
275.055
21
-193.247
0
LINE
8
BLACK
6
CONTINUOUS
10
275.055
20
-193.247
11
275.103
21
-193.584
0
LINE
8
BLACK
6
CONTINUOUS
10
310.036
20
-192.283
11
310.134
21
-191.957
0
LINE
8
BLACK
6
CONTINUOUS
10
310.134
20
-191.957
11
310.268
21
-191.644
0
LINE
8
BLACK
6
CONTINUOUS
10
310.268
20
-191.644
11
310.436
21
-191.348
0
LINE
8
BLACK
6
CONTINUOUS
10
310.436
20
-191.348
11
310.636
21
-191.072
0
LINE
8
BLACK
6
CONTINUOUS
10
310.636
20
-191.072
11
310.866
21
-190.821
0
LINE
8
BLACK
6
CONTINUOUS
10
310.866
20
-190.821
11
311.122
21
-190.597
0
LINE
8
BLACK
6
CONTINUOUS
10
311.122
20
-190.597
11
311.402
21
-190.402
0
LINE
8
BLACK
6
CONTINUOUS
10
311.402
20
-190.402
11
311.701
21
-190.24
0
LINE
8
BLACK
6
CONTINUOUS
10
311.701
20
-190.24
11
312.017
21
-190.113
0
LINE
8
BLACK
6
CONTINUOUS
10
312.017
20
-190.113
11
312.345
21
-190.021
0
LINE
8
BLACK
6
CONTINUOUS
10
312.345
20
-190.021
11
312.681
21
-189.967
0
LINE
8
BLACK
6
CONTINUOUS
10
312.681
20
-189.967
11
313.021
21
-189.95
0
LINE
8
BLACK
6
CONTINUOUS
10
313.021
20
-189.95
11
313.361
21
-189.971
0
LINE
8
BLACK
6
CONTINUOUS
10
313.361
20
-189.971
11
313.696
21
-190.031
0
LINE
8
BLACK
6
CONTINUOUS
10
313.696
20
-190.031
11
314.023
21
-190.127
0
LINE
8
BLACK
6
CONTINUOUS
10
314.023
20
-190.127
11
314.337
21
-190.259
0
LINE
8
BLACK
6
CONTINUOUS
10
314.337
20
-190.259
11
314.634
21
-190.425
0
LINE
8
BLACK
6
CONTINUOUS
10
314.634
20
-190.425
11
314.911
21
-190.623
0
LINE
8
BLACK
6
CONTINUOUS
10
314.911
20
-190.623
11
315.164
21
-190.851
0
LINE
8
BLACK
6
CONTINUOUS
10
315.164
20
-190.851
11
315.39
21
-191.105
0
LINE
8
BLACK
6
CONTINUOUS
10
315.39
20
-191.105
11
315.587
21
-191.384
0
LINE
8
BLACK
6
CONTINUOUS
10
315.587
20
-191.384
11
315.751
21
-191.682
0
LINE
8
BLACK
6
CONTINUOUS
10
315.751
20
-191.682
11
315.88
21
-191.997
0
LINE
8
BLACK
6
CONTINUOUS
10
315.88
20
-191.997
11
315.974
21
-192.324
0
LINE
8
BLACK
6
CONTINUOUS
10
315.974
20
-192.324
11
316.031
21
-192.66
0
LINE
8
BLACK
6
CONTINUOUS
10
316.031
20
-192.66
11
316.05
21
-193
0
LINE
8
BLACK
6
CONTINUOUS
10
316.05
20
-193
11
316.049
21
-193.085
0
LINE
8
BLACK
6
CONTINUOUS
10
316.049
20
-193.085
11
316.02
21
-193.424
0
LINE
8
BLACK
6
CONTINUOUS
10
316.02
20
-193.424
11
315.954
21
-193.759
0
LINE
8
BLACK
6
CONTINUOUS
10
315.954
20
-193.759
11
315.851
21
-194.083
0
LINE
8
BLACK
6
CONTINUOUS
10
315.851
20
-194.083
11
315.713
21
-194.394
0
LINE
8
BLACK
6
CONTINUOUS
10
315.713
20
-194.394
11
315.54
21
-194.688
0
LINE
8
BLACK
6
CONTINUOUS
10
315.54
20
-194.688
11
315.336
21
-194.961
0
LINE
8
BLACK
6
CONTINUOUS
10
315.336
20
-194.961
11
315.103
21
-195.209
0
LINE
8
BLACK
6
CONTINUOUS
10
315.103
20
-195.209
11
314.844
21
-195.429
0
LINE
8
BLACK
6
CONTINUOUS
10
314.844
20
-195.429
11
314.562
21
-195.62
0
LINE
8
BLACK
6
CONTINUOUS
10
314.562
20
-195.62
11
314.26
21
-195.778
0
LINE
8
BLACK
6
CONTINUOUS
10
314.26
20
-195.778
11
313.943
21
-195.901
0
LINE
8
BLACK
6
CONTINUOUS
10
313.943
20
-195.901
11
313.613
21
-195.988
0
LINE
8
BLACK
6
CONTINUOUS
10
313.613
20
-195.988
11
313.276
21
-196.037
0
LINE
8
BLACK
6
CONTINUOUS
10
313.276
20
-196.037
11
312.936
21
-196.049
0
LINE
8
BLACK
6
CONTINUOUS
10
312.936
20
-196.049
11
312.597
21
-196.023
0
LINE
8
BLACK
6
CONTINUOUS
10
312.597
20
-196.023
11
312.262
21
-195.959
0
LINE
8
BLACK
6
CONTINUOUS
10
312.262
20
-195.959
11
311.937
21
-195.859
0
LINE
8
BLACK
6
CONTINUOUS
10
311.937
20
-195.859
11
311.625
21
-195.722
0
LINE
8
BLACK
6
CONTINUOUS
10
311.625
20
-195.722
11
311.33
21
-195.552
0
LINE
8
BLACK
6
CONTINUOUS
10
311.33
20
-195.552
11
311.056
21
-195.35
0
LINE
8
BLACK
6
CONTINUOUS
10
311.056
20
-195.35
11
310.806
21
-195.119
0
LINE
8
BLACK
6
CONTINUOUS
10
310.806
20
-195.119
11
310.584
21
-194.861
0
LINE
8
BLACK
6
CONTINUOUS
10
310.584
20
-194.861
11
310.391
21
-194.58
0
LINE
8
BLACK
6
CONTINUOUS
10
310.391
20
-194.58
11
310.231
21
-194.279
0
LINE
8
BLACK
6
CONTINUOUS
10
310.231
20
-194.279
11
310.106
21
-193.963
0
LINE
8
BLACK
6
CONTINUOUS
10
310.106
20
-193.963
11
310.017
21
-193.634
0
LINE
8
BLACK
6
CONTINUOUS
10
310.017
20
-193.634
11
309.965
21
-193.298
0
LINE
8
BLACK
6
CONTINUOUS
10
309.965
20
-193.298
11
309.95
21
-192.957
0
LINE
8
BLACK
6
CONTINUOUS
10
309.95
20
-192.957
11
309.954
21
-192.907
0
LINE
8
BLACK
6
CONTINUOUS
10
309.954
20
-192.907
11
309.974
21
-192.618
0
LINE
8
BLACK
6
CONTINUOUS
10
309.974
20
-192.618
11
310.036
21
-192.283
0
LINE
8
BLACK
6
CONTINUOUS
10
310.103
20
-193.584
11
310.19
21
-193.913
0
LINE
8
BLACK
6
CONTINUOUS
10
310.19
20
-193.913
11
310.313
21
-194.23
0
LINE
8
BLACK
6
CONTINUOUS
10
310.313
20
-194.23
11
310.472
21
-194.531
0
LINE
8
BLACK
6
CONTINUOUS
10
310.472
20
-194.531
11
310.665
21
-194.811
0
LINE
8
BLACK
6
CONTINUOUS
10
310.665
20
-194.811
11
310.889
21
-195.068
0
LINE
8
BLACK
6
CONTINUOUS
10
310.889
20
-195.068
11
311.14
21
-195.296
0
LINE
8
BLACK
6
CONTINUOUS
10
311.14
20
-195.296
11
311.417
21
-195.495
0
LINE
8
BLACK
6
CONTINUOUS
10
311.417
20
-195.495
11
311.714
21
-195.66
0
LINE
8
BLACK
6
CONTINUOUS
10
311.714
20
-195.66
11
312.028
21
-195.791
0
LINE
8
BLACK
6
CONTINUOUS
10
312.028
20
-195.791
11
312.355
21
-195.884
0
LINE
8
BLACK
6
CONTINUOUS
10
312.355
20
-195.884
11
312.691
21
-195.939
0
LINE
8
BLACK
6
CONTINUOUS
10
312.691
20
-195.939
11
313.031
21
-195.955
0
LINE
8
BLACK
6
CONTINUOUS
10
313.031
20
-195.955
11
313.37
21
-195.932
0
LINE
8
BLACK
6
CONTINUOUS
10
313.37
20
-195.932
11
313.705
21
-195.87
0
LINE
8
BLACK
6
CONTINUOUS
10
313.705
20
-195.87
11
314.03
21
-195.77
0
LINE
8
BLACK
6
CONTINUOUS
10
314.03
20
-195.77
11
314.342
21
-195.633
0
LINE
8
BLACK
6
CONTINUOUS
10
314.342
20
-195.633
11
314.635
21
-195.461
0
LINE
8
BLACK
6
CONTINUOUS
10
314.635
20
-195.461
11
314.907
21
-195.257
0
LINE
8
BLACK
6
CONTINUOUS
10
314.907
20
-195.257
11
315.154
21
-195.023
0
LINE
8
BLACK
6
CONTINUOUS
10
315.154
20
-195.023
11
315.372
21
-194.762
0
LINE
8
BLACK
6
CONTINUOUS
10
315.372
20
-194.762
11
315.559
21
-194.477
0
LINE
8
BLACK
6
CONTINUOUS
10
315.559
20
-194.477
11
315.712
21
-194.174
0
LINE
8
BLACK
6
CONTINUOUS
10
315.712
20
-194.174
11
315.829
21
-193.854
0
LINE
8
BLACK
6
CONTINUOUS
10
315.829
20
-193.854
11
315.908
21
-193.523
0
LINE
8
BLACK
6
CONTINUOUS
10
315.908
20
-193.523
11
315.949
21
-193.186
0
LINE
8
BLACK
6
CONTINUOUS
10
315.949
20
-193.186
11
315.955
21
-193
0
LINE
8
BLACK
6
CONTINUOUS
10
315.955
20
-193
11
315.935
21
-192.66
0
LINE
8
BLACK
6
CONTINUOUS
10
315.935
20
-192.66
11
315.877
21
-192.325
0
LINE
8
BLACK
6
CONTINUOUS
10
315.877
20
-192.325
11
315.78
21
-191.999
0
LINE
8
BLACK
6
CONTINUOUS
10
315.78
20
-191.999
11
315.647
21
-191.686
0
LINE
8
BLACK
6
CONTINUOUS
10
315.647
20
-191.686
11
315.478
21
-191.391
0
LINE
8
BLACK
6
CONTINUOUS
10
315.478
20
-191.391
11
315.277
21
-191.116
0
LINE
8
BLACK
6
CONTINUOUS
10
315.277
20
-191.116
11
315.045
21
-190.867
0
LINE
8
BLACK
6
CONTINUOUS
10
315.045
20
-190.867
11
314.787
21
-190.646
0
LINE
8
BLACK
6
CONTINUOUS
10
314.787
20
-190.646
11
314.504
21
-190.457
0
LINE
8
BLACK
6
CONTINUOUS
10
314.504
20
-190.457
11
314.202
21
-190.3
0
LINE
8
BLACK
6
CONTINUOUS
10
314.202
20
-190.3
11
313.884
21
-190.18
0
LINE
8
BLACK
6
CONTINUOUS
10
313.884
20
-190.18
11
313.554
21
-190.097
0
LINE
8
BLACK
6
CONTINUOUS
10
313.554
20
-190.097
11
313.216
21
-190.053
0
LINE
8
BLACK
6
CONTINUOUS
10
313.216
20
-190.053
11
312.876
21
-190.048
0
LINE
8
BLACK
6
CONTINUOUS
10
312.876
20
-190.048
11
312.538
21
-190.081
0
LINE
8
BLACK
6
CONTINUOUS
10
312.538
20
-190.081
11
312.205
21
-190.154
0
LINE
8
BLACK
6
CONTINUOUS
10
312.205
20
-190.154
11
311.883
21
-190.264
0
LINE
8
BLACK
6
CONTINUOUS
10
311.883
20
-190.264
11
311.576
21
-190.411
0
LINE
8
BLACK
6
CONTINUOUS
10
311.576
20
-190.411
11
311.288
21
-190.591
0
LINE
8
BLACK
6
CONTINUOUS
10
311.288
20
-190.591
11
311.023
21
-190.804
0
LINE
8
BLACK
6
CONTINUOUS
10
311.023
20
-190.804
11
310.783
21
-191.046
0
LINE
8
BLACK
6
CONTINUOUS
10
310.783
20
-191.046
11
310.574
21
-191.314
0
LINE
8
BLACK
6
CONTINUOUS
10
310.574
20
-191.314
11
310.396
21
-191.604
0
LINE
8
BLACK
6
CONTINUOUS
10
310.396
20
-191.604
11
310.253
21
-191.912
0
LINE
8
BLACK
6
CONTINUOUS
10
310.253
20
-191.912
11
310.146
21
-192.235
0
LINE
8
BLACK
6
CONTINUOUS
10
310.146
20
-192.235
11
310.077
21
-192.568
0
LINE
8
BLACK
6
CONTINUOUS
10
310.077
20
-192.568
11
310.046
21
-192.907
0
LINE
8
BLACK
6
CONTINUOUS
10
310.046
20
-192.907
11
310.055
21
-193.247
0
LINE
8
BLACK
6
CONTINUOUS
10
310.055
20
-193.247
11
310.103
21
-193.584
0
LINE
8
BLACK
6
CONTINUOUS
10
275.036
20
-161.283
11
275.134
21
-160.957
0
LINE
8
BLACK
6
CONTINUOUS
10
275.134
20
-160.957
11
275.268
21
-160.644
0
LINE
8
BLACK
6
CONTINUOUS
10
275.268
20
-160.644
11
275.436
21
-160.348
0
LINE
8
BLACK
6
CONTINUOUS
10
275.436
20
-160.348
11
275.636
21
-160.072
0
LINE
8
BLACK
6
CONTINUOUS
10
275.636
20
-160.072
11
275.866
21
-159.821
0
LINE
8
BLACK
6
CONTINUOUS
10
275.866
20
-159.821
11
276.122
21
-159.597
0
LINE
8
BLACK
6
CONTINUOUS
10
276.122
20
-159.597
11
276.402
21
-159.402
0
LINE
8
BLACK
6
CONTINUOUS
10
276.402
20
-159.402
11
276.701
21
-159.24
0
LINE
8
BLACK
6
CONTINUOUS
10
276.701
20
-159.24
11
277.017
21
-159.113
0
LINE
8
BLACK
6
CONTINUOUS
10
277.017
20
-159.113
11
277.345
21
-159.021
0
LINE
8
BLACK
6
CONTINUOUS
10
277.345
20
-159.021
11
277.681
21
-158.967
0
LINE
8
BLACK
6
CONTINUOUS
10
277.681
20
-158.967
11
278.021
21
-158.95
0
LINE
8
BLACK
6
CONTINUOUS
10
278.021
20
-158.95
11
278.361
21
-158.971
0
LINE
8
BLACK
6
CONTINUOUS
10
278.361
20
-158.971
11
278.696
21
-159.031
0
LINE
8
BLACK
6
CONTINUOUS
10
278.696
20
-159.031
11
279.023
21
-159.127
0
LINE
8
BLACK
6
CONTINUOUS
10
279.023
20
-159.127
11
279.337
21
-159.259
0
LINE
8
BLACK
6
CONTINUOUS
10
279.337
20
-159.259
11
279.634
21
-159.425
0
LINE
8
BLACK
6
CONTINUOUS
10
279.634
20
-159.425
11
279.911
21
-159.623
0
LINE
8
BLACK
6
CONTINUOUS
10
279.911
20
-159.623
11
280.164
21
-159.851
0
LINE
8
BLACK
6
CONTINUOUS
10
280.164
20
-159.851
11
280.39
21
-160.105
0
LINE
8
BLACK
6
CONTINUOUS
10
280.39
20
-160.105
11
280.587
21
-160.384
0
LINE
8
BLACK
6
CONTINUOUS
10
280.587
20
-160.384
11
280.751
21
-160.682
0
LINE
8
BLACK
6
CONTINUOUS
10
280.751
20
-160.682
11
280.88
21
-160.997
0
LINE
8
BLACK
6
CONTINUOUS
10
280.88
20
-160.997
11
280.974
21
-161.324
0
LINE
8
BLACK
6
CONTINUOUS
10
280.974
20
-161.324
11
281.031
21
-161.66
0
LINE
8
BLACK
6
CONTINUOUS
10
281.031
20
-161.66
11
281.05
21
-162
0
LINE
8
BLACK
6
CONTINUOUS
10
281.05
20
-162
11
281.049
21
-162.085
0
LINE
8
BLACK
6
CONTINUOUS
10
281.049
20
-162.085
11
281.02
21
-162.424
0
LINE
8
BLACK
6
CONTINUOUS
10
281.02
20
-162.424
11
280.954
21
-162.759
0
LINE
8
BLACK
6
CONTINUOUS
10
280.954
20
-162.759
11
280.851
21
-163.083
0
LINE
8
BLACK
6
CONTINUOUS
10
280.851
20
-163.083
11
280.713
21
-163.394
0
LINE
8
BLACK
6
CONTINUOUS
10
280.713
20
-163.394
11
280.54
21
-163.688
0
LINE
8
BLACK
6
CONTINUOUS
10
280.54
20
-163.688
11
280.336
21
-163.961
0
LINE
8
BLACK
6
CONTINUOUS
10
280.336
20
-163.961
11
280.103
21
-164.209
0
LINE
8
BLACK
6
CONTINUOUS
10
280.103
20
-164.209
11
279.844
21
-164.429
0
LINE
8
BLACK
6
CONTINUOUS
10
279.844
20
-164.429
11
279.562
21
-164.62
0
LINE
8
BLACK
6
CONTINUOUS
10
279.562
20
-164.62
11
279.26
21
-164.778
0
LINE
8
BLACK
6
CONTINUOUS
10
279.26
20
-164.778
11
278.943
21
-164.901
0
LINE
8
BLACK
6
CONTINUOUS
10
278.943
20
-164.901
11
278.613
21
-164.988
0
LINE
8
BLACK
6
CONTINUOUS
10
278.613
20
-164.988
11
278.276
21
-165.037
0
LINE
8
BLACK
6
CONTINUOUS
10
278.276
20
-165.037
11
277.936
21
-165.049
0
LINE
8
BLACK
6
CONTINUOUS
10
277.936
20
-165.049
11
277.597
21
-165.023
0
LINE
8
BLACK
6
CONTINUOUS
10
277.597
20
-165.023
11
277.262
21
-164.959
0
LINE
8
BLACK
6
CONTINUOUS
10
277.262
20
-164.959
11
276.937
21
-164.859
0
LINE
8
BLACK
6
CONTINUOUS
10
276.937
20
-164.859
11
276.625
21
-164.722
0
LINE
8
BLACK
6
CONTINUOUS
10
276.625
20
-164.722
11
276.33
21
-164.552
0
LINE
8
BLACK
6
CONTINUOUS
10
276.33
20
-164.552
11
276.056
21
-164.35
0
LINE
8
BLACK
6
CONTINUOUS
10
276.056
20
-164.35
11
275.806
21
-164.119
0
LINE
8
BLACK
6
CONTINUOUS
10
275.806
20
-164.119
11
275.584
21
-163.861
0
LINE
8
BLACK
6
CONTINUOUS
10
275.584
20
-163.861
11
275.391
21
-163.58
0
LINE
8
BLACK
6
CONTINUOUS
10
275.391
20
-163.58
11
275.231
21
-163.279
0
LINE
8
BLACK
6
CONTINUOUS
10
275.231
20
-163.279
11
275.106
21
-162.963
0
LINE
8
BLACK
6
CONTINUOUS
10
275.106
20
-162.963
11
275.017
21
-162.634
0
LINE
8
BLACK
6
CONTINUOUS
10
275.017
20
-162.634
11
274.965
21
-162.298
0
LINE
8
BLACK
6
CONTINUOUS
10
274.965
20
-162.298
11
274.95
21
-161.957
0
LINE
8
BLACK
6
CONTINUOUS
10
274.95
20
-161.957
11
274.954
21
-161.907
0
LINE
8
BLACK
6
CONTINUOUS
10
274.954
20
-161.907
11
274.974
21
-161.618
0
LINE
8
BLACK
6
CONTINUOUS
10
274.974
20
-161.618
11
275.036
21
-161.283
0
LINE
8
BLACK
6
CONTINUOUS
10
275.103
20
-162.584
11
275.19
21
-162.913
0
LINE
8
BLACK
6
CONTINUOUS
10
275.19
20
-162.913
11
275.313
21
-163.23
0
LINE
8
BLACK
6
CONTINUOUS
10
275.313
20
-163.23
11
275.472
21
-163.531
0
LINE
8
BLACK
6
CONTINUOUS
10
275.472
20
-163.531
11
275.665
21
-163.811
0
LINE
8
BLACK
6
CONTINUOUS
10
275.665
20
-163.811
11
275.889
21
-164.068
0
LINE
8
BLACK
6
CONTINUOUS
10
275.889
20
-164.068
11
276.14
21
-164.296
0
LINE
8
BLACK
6
CONTINUOUS
10
276.14
20
-164.296
11
276.417
21
-164.495
0
LINE
8
BLACK
6
CONTINUOUS
10
276.417
20
-164.495
11
276.714
21
-164.66
0
LINE
8
BLACK
6
CONTINUOUS
10
276.714
20
-164.66
11
277.028
21
-164.791
0
LINE
8
BLACK
6
CONTINUOUS
10
277.028
20
-164.791
11
277.355
21
-164.884
0
LINE
8
BLACK
6
CONTINUOUS
10
277.355
20
-164.884
11
277.691
21
-164.939
0
LINE
8
BLACK
6
CONTINUOUS
10
277.691
20
-164.939
11
278.031
21
-164.955
0
LINE
8
BLACK
6
CONTINUOUS
10
278.031
20
-164.955
11
278.37
21
-164.932
0
LINE
8
BLACK
6
CONTINUOUS
10
278.37
20
-164.932
11
278.705
21
-164.87
0
LINE
8
BLACK
6
CONTINUOUS
10
278.705
20
-164.87
11
279.03
21
-164.77
0
LINE
8
BLACK
6
CONTINUOUS
10
279.03
20
-164.77
11
279.342
21
-164.633
0
LINE
8
BLACK
6
CONTINUOUS
10
279.342
20
-164.633
11
279.635
21
-164.461
0
LINE
8
BLACK
6
CONTINUOUS
10
279.635
20
-164.461
11
279.907
21
-164.257
0
LINE
8
BLACK
6
CONTINUOUS
10
279.907
20
-164.257
11
280.154
21
-164.023
0
LINE
8
BLACK
6
CONTINUOUS
10
280.154
20
-164.023
11
280.372
21
-163.762
0
LINE
8
BLACK
6
CONTINUOUS
10
280.372
20
-163.762
11
280.559
21
-163.477
0
LINE
8
BLACK
6
CONTINUOUS
10
280.559
20
-163.477
11
280.712
21
-163.174
0
LINE
8
BLACK
6
CONTINUOUS
10
280.712
20
-163.174
11
280.829
21
-162.854
0
LINE
8
BLACK
6
CONTINUOUS
10
280.829
20
-162.854
11
280.908
21
-162.523
0
LINE
8
BLACK
6
CONTINUOUS
10
280.908
20
-162.523
11
280.949
21
-162.186
0
LINE
8
BLACK
6
CONTINUOUS
10
280.949
20
-162.186
11
280.955
21
-162
0
LINE
8
BLACK
6
CONTINUOUS
10
280.955
20
-162
11
280.935
21
-161.66
0
LINE
8
BLACK
6
CONTINUOUS
10
280.935
20
-161.66
11
280.877
21
-161.325
0
LINE
8
BLACK
6
CONTINUOUS
10
280.877
20
-161.325
11
280.78
21
-160.999
0
LINE
8
BLACK
6
CONTINUOUS
10
280.78
20
-160.999
11
280.647
21
-160.686
0
LINE
8
BLACK
6
CONTINUOUS
10
280.647
20
-160.686
11
280.478
21
-160.391
0
LINE
8
BLACK
6
CONTINUOUS
10
280.478
20
-160.391
11
280.277
21
-160.116
0
LINE
8
BLACK
6
CONTINUOUS
10
280.277
20
-160.116
11
280.045
21
-159.867
0
LINE
8
BLACK
6
CONTINUOUS
10
280.045
20
-159.867
11
279.787
21
-159.646
0
LINE
8
BLACK
6
CONTINUOUS
10
279.787
20
-159.646
11
279.504
21
-159.457
0
LINE
8
BLACK
6
CONTINUOUS
10
279.504
20
-159.457
11
279.202
21
-159.3
0
LINE
8
BLACK
6
CONTINUOUS
10
279.202
20
-159.3
11
278.884
21
-159.18
0
LINE
8
BLACK
6
CONTINUOUS
10
278.884
20
-159.18
11
278.554
21
-159.097
0
LINE
8
BLACK
6
CONTINUOUS
10
278.554
20
-159.097
11
278.216
21
-159.053
0
LINE
8
BLACK
6
CONTINUOUS
10
278.216
20
-159.053
11
277.876
21
-159.048
0
LINE
8
BLACK
6
CONTINUOUS
10
277.876
20
-159.048
11
277.538
21
-159.081
0
LINE
8
BLACK
6
CONTINUOUS
10
277.538
20
-159.081
11
277.205
21
-159.154
0
LINE
8
BLACK
6
CONTINUOUS
10
277.205
20
-159.154
11
276.883
21
-159.264
0
LINE
8
BLACK
6
CONTINUOUS
10
276.883
20
-159.264
11
276.576
21
-159.411
0
LINE
8
BLACK
6
CONTINUOUS
10
276.576
20
-159.411
11
276.288
21
-159.591
0
LINE
8
BLACK
6
CONTINUOUS
10
276.288
20
-159.591
11
276.023
21
-159.804
0
LINE
8
BLACK
6
CONTINUOUS
10
276.023
20
-159.804
11
275.783
21
-160.046
0
LINE
8
BLACK
6
CONTINUOUS
10
275.783
20
-160.046
11
275.574
21
-160.314
0
LINE
8
BLACK
6
CONTINUOUS
10
275.574
20
-160.314
11
275.396
21
-160.604
0
LINE
8
BLACK
6
CONTINUOUS
10
275.396
20
-160.604
11
275.253
21
-160.912
0
LINE
8
BLACK
6
CONTINUOUS
10
275.253
20
-160.912
11
275.146
21
-161.235
0
LINE
8
BLACK
6
CONTINUOUS
10
275.146
20
-161.235
11
275.077
21
-161.568
0
LINE
8
BLACK
6
CONTINUOUS
10
275.077
20
-161.568
11
275.046
21
-161.907
0
LINE
8
BLACK
6
CONTINUOUS
10
275.046
20
-161.907
11
275.055
21
-162.247
0
LINE
8
BLACK
6
CONTINUOUS
10
275.055
20
-162.247
11
275.103
21
-162.584
0
LINE
8
BLACK
6
CONTINUOUS
10
310.036
20
-161.283
11
310.134
21
-160.957
0
LINE
8
BLACK
6
CONTINUOUS
10
310.134
20
-160.957
11
310.268
21
-160.644
0
LINE
8
BLACK
6
CONTINUOUS
10
310.268
20
-160.644
11
310.436
21
-160.348
0
LINE
8
BLACK
6
CONTINUOUS
10
310.436
20
-160.348
11
310.636
21
-160.072
0
LINE
8
BLACK
6
CONTINUOUS
10
310.636
20
-160.072
11
310.866
21
-159.821
0
LINE
8
BLACK
6
CONTINUOUS
10
310.866
20
-159.821
11
311.122
21
-159.597
0
LINE
8
BLACK
6
CONTINUOUS
10
311.122
20
-159.597
11
311.402
21
-159.402
0
LINE
8
BLACK
6
CONTINUOUS
10
311.402
20
-159.402
11
311.701
21
-159.24
0
LINE
8
BLACK
6
CONTINUOUS
10
311.701
20
-159.24
11
312.017
21
-159.113
0
LINE
8
BLACK
6
CONTINUOUS
10
312.017
20
-159.113
11
312.345
21
-159.021
0
LINE
8
BLACK
6
CONTINUOUS
10
312.345
20
-159.021
11
312.681
21
-158.967
0
LINE
8
BLACK
6
CONTINUOUS
10
312.681
20
-158.967
11
313.021
21
-158.95
0
LINE
8
BLACK
6
CONTINUOUS
10
313.021
20
-158.95
11
313.361
21
-158.971
0
LINE
8
BLACK
6
CONTINUOUS
10
313.361
20
-158.971
11
313.696
21
-159.031
0
LINE
8
BLACK
6
CONTINUOUS
10
313.696
20
-159.031
11
314.023
21
-159.127
0
LINE
8
BLACK
6
CONTINUOUS
10
314.023
20
-159.127
11
314.337
21
-159.259
0
LINE
8
BLACK
6
CONTINUOUS
10
314.337
20
-159.259
11
314.634
21
-159.425
0
LINE
8
BLACK
6
CONTINUOUS
10
314.634
20
-159.425
11
314.911
21
-159.623
0
LINE
8
BLACK
6
CONTINUOUS
10
314.911
20
-159.623
11
315.164
21
-159.851
0
LINE
8
BLACK
6
CONTINUOUS
10
315.164
20
-159.851
11
315.39
21
-160.105
0
LINE
8
BLACK
6
CONTINUOUS
10
315.39
20
-160.105
11
315.587
21
-160.384
0
LINE
8
BLACK
6
CONTINUOUS
10
315.587
20
-160.384
11
315.751
21
-160.682
0
LINE
8
BLACK
6
CONTINUOUS
10
315.751
20
-160.682
11
315.88
21
-160.997
0
LINE
8
BLACK
6
CONTINUOUS
10
315.88
20
-160.997
11
315.974
21
-161.324
0
LINE
8
BLACK
6
CONTINUOUS
10
315.974
20
-161.324
11
316.031
21
-161.66
0
LINE
8
BLACK
6
CONTINUOUS
10
316.031
20
-161.66
11
316.05
21
-162
0
LINE
8
BLACK
6
CONTINUOUS
10
316.05
20
-162
11
316.049
21
-162.085
0
LINE
8
BLACK
6
CONTINUOUS
10
316.049
20
-162.085
11
316.02
21
-162.424
0
LINE
8
BLACK
6
CONTINUOUS
10
316.02
20
-162.424
11
315.954
21
-162.759
0
LINE
8
BLACK
6
CONTINUOUS
10
315.954
20
-162.759
11
315.851
21
-163.083
0
LINE
8
BLACK
6
CONTINUOUS
10
315.851
20
-163.083
11
315.713
21
-163.394
0
LINE
8
BLACK
6
CONTINUOUS
10
315.713
20
-163.394
11
315.54
21
-163.688
0
LINE
8
BLACK
6
CONTINUOUS
10
315.54
20
-163.688
11
315.336
21
-163.961
0
LINE
8
BLACK
6
CONTINUOUS
10
315.336
20
-163.961
11
315.103
21
-164.209
0
LINE
8
BLACK
6
CONTINUOUS
10
315.103
20
-164.209
11
314.844
21
-164.429
0
LINE
8
BLACK
6
CONTINUOUS
10
314.844
20
-164.429
11
314.562
21
-164.62
0
LINE
8
BLACK
6
CONTINUOUS
10
314.562
20
-164.62
11
314.26
21
-164.778
0
LINE
8
BLACK
6
CONTINUOUS
10
314.26
20
-164.778
11
313.943
21
-164.901
0
LINE
8
BLACK
6
CONTINUOUS
10
313.943
20
-164.901
11
313.613
21
-164.988
0
LINE
8
BLACK
6
CONTINUOUS
10
313.613
20
-164.988
11
313.276
21
-165.037
0
LINE
8
BLACK
6
CONTINUOUS
10
313.276
20
-165.037
11
312.936
21
-165.049
0
LINE
8
BLACK
6
CONTINUOUS
10
312.936
20
-165.049
11
312.597
21
-165.023
0
LINE
8
BLACK
6
CONTINUOUS
10
312.597
20
-165.023
11
312.262
21
-164.959
0
LINE
8
BLACK
6
CONTINUOUS
10
312.262
20
-164.959
11
311.937
21
-164.859
0
LINE
8
BLACK
6
CONTINUOUS
10
311.937
20
-164.859
11
311.625
21
-164.722
0
LINE
8
BLACK
6
CONTINUOUS
10
311.625
20
-164.722
11
311.33
21
-164.552
0
LINE
8
BLACK
6
CONTINUOUS
10
311.33
20
-164.552
11
311.056
21
-164.35
0
LINE
8
BLACK
6
CONTINUOUS
10
311.056
20
-164.35
11
310.806
21
-164.119
0
LINE
8
BLACK
6
CONTINUOUS
10
310.806
20
-164.119
11
310.584
21
-163.861
0
LINE
8
BLACK
6
CONTINUOUS
10
310.584
20
-163.861
11
310.391
21
-163.58
0
LINE
8
BLACK
6
CONTINUOUS
10
310.391
20
-163.58
11
310.231
21
-163.279
0
LINE
8
BLACK
6
CONTINUOUS
10
310.231
20
-163.279
11
310.106
21
-162.963
0
LINE
8
BLACK
6
CONTINUOUS
10
310.106
20
-162.963
11
310.017
21
-162.634
0
LINE
8
BLACK
6
CONTINUOUS
10
310.017
20
-162.634
11
309.965
21
-162.298
0
LINE
8
BLACK
6
CONTINUOUS
10
309.965
20
-162.298
11
309.95
21
-161.957
0
LINE
8
BLACK
6
CONTINUOUS
10
309.95
20
-161.957
11
309.954
21
-161.907
0
LINE
8
BLACK
6
CONTINUOUS
10
309.954
20
-161.907
11
309.974
21
-161.618
0
LINE
8
BLACK
6
CONTINUOUS
10
309.974
20
-161.618
11
310.036
21
-161.283
0
LINE
8
BLACK
6
CONTINUOUS
10
310.103
20
-162.584
11
310.19
21
-162.913
0
LINE
8
BLACK
6
CONTINUOUS
10
310.19
20
-162.913
11
310.313
21
-163.23
0
LINE
8
BLACK
6
CONTINUOUS
10
310.313
20
-163.23
11
310.472
21
-163.531
0
LINE
8
BLACK
6
CONTINUOUS
10
310.472
20
-163.531
11
310.665
21
-163.811
0
LINE
8
BLACK
6
CONTINUOUS
10
310.665
20
-163.811
11
310.889
21
-164.068
0
LINE
8
BLACK
6
CONTINUOUS
10
310.889
20
-164.068
11
311.14
21
-164.296
0
LINE
8
BLACK
6
CONTINUOUS
10
311.14
20
-164.296
11
311.417
21
-164.495
0
LINE
8
BLACK
6
CONTINUOUS
10
311.417
20
-164.495
11
311.714
21
-164.66
0
LINE
8
BLACK
6
CONTINUOUS
10
311.714
20
-164.66
11
312.028
21
-164.791
0
LINE
8
BLACK
6
CONTINUOUS
10
312.028
20
-164.791
11
312.355
21
-164.884
0
LINE
8
BLACK
6
CONTINUOUS
10
312.355
20
-164.884
11
312.691
21
-164.939
0
LINE
8
BLACK
6
CONTINUOUS
10
312.691
20
-164.939
11
313.031
21
-164.955
0
LINE
8
BLACK
6
CONTINUOUS
10
313.031
20
-164.955
11
313.37
21
-164.932
0
LINE
8
BLACK
6
CONTINUOUS
10
313.37
20
-164.932
11
313.705
21
-164.87
0
LINE
8
BLACK
6
CONTINUOUS
10
313.705
20
-164.87
11
314.03
21
-164.77
0
LINE
8
BLACK
6
CONTINUOUS
10
314.03
20
-164.77
11
314.342
21
-164.633
0
LINE
8
BLACK
6
CONTINUOUS
10
314.342
20
-164.633
11
314.635
21
-164.461
0
LINE
8
BLACK
6
CONTINUOUS
10
314.635
20
-164.461
11
314.907
21
-164.257
0
LINE
8
BLACK
6
CONTINUOUS
10
314.907
20
-164.257
11
315.154
21
-164.023
0
LINE
8
BLACK
6
CONTINUOUS
10
315.154
20
-164.023
11
315.372
21
-163.762
0
LINE
8
BLACK
6
CONTINUOUS
10
315.372
20
-163.762
11
315.559
21
-163.477
0
LINE
8
BLACK
6
CONTINUOUS
10
315.559
20
-163.477
11
315.712
21
-163.174
0
LINE
8
BLACK
6
CONTINUOUS
10
315.712
20
-163.174
11
315.829
21
-162.854
0
LINE
8
BLACK
6
CONTINUOUS
10
315.829
20
-162.854
11
315.908
21
-162.523
0
LINE
8
BLACK
6
CONTINUOUS
10
315.908
20
-162.523
11
315.949
21
-162.186
0
LINE
8
BLACK
6
CONTINUOUS
10
315.949
20
-162.186
11
315.955
21
-162
0
LINE
8
BLACK
6
CONTINUOUS
10
315.955
20
-162
11
315.935
21
-161.66
0
LINE
8
BLACK
6
CONTINUOUS
10
315.935
20
-161.66
11
315.877
21
-161.325
0
LINE
8
BLACK
6
CONTINUOUS
10
315.877
20
-161.325
11
315.78
21
-160.999
0
LINE
8
BLACK
6
CONTINUOUS
10
315.78
20
-160.999
11
315.647
21
-160.686
0
LINE
8
BLACK
6
CONTINUOUS
10
315.647
20
-160.686
11
315.478
21
-160.391
0
LINE
8
BLACK
6
CONTINUOUS
10
315.478
20
-160.391
11
315.277
21
-160.116
0
LINE
8
BLACK
6
CONTINUOUS
10
315.277
20
-160.116
11
315.045
21
-159.867
0
LINE
8
BLACK
6
CONTINUOUS
10
315.045
20
-159.867
11
314.787
21
-159.646
0
LINE
8
BLACK
6
CONTINUOUS
10
314.787
20
-159.646
11
314.504
21
-159.457
0
LINE
8
BLACK
6
CONTINUOUS
10
314.504
20
-159.457
11
314.202
21
-159.3
0
LINE
8
BLACK
6
CONTINUOUS
10
314.202
20
-159.3
11
313.884
21
-159.18
0
LINE
8
BLACK
6
CONTINUOUS
10
313.884
20
-159.18
11
313.554
21
-159.097
0
LINE
8
BLACK
6
CONTINUOUS
10
313.554
20
-159.097
11
313.216
21
-159.053
0
LINE
8
BLACK
6
CONTINUOUS
10
313.216
20
-159.053
11
312.876
21
-159.048
0
LINE
8
BLACK
6
CONTINUOUS
10
312.876
20
-159.048
11
312.538
21
-159.081
0
LINE
8
BLACK
6
CONTINUOUS
10
312.538
20
-159.081
11
312.205
21
-159.154
0
LINE
8
BLACK
6
CONTINUOUS
10
312.205
20
-159.154
11
311.883
21
-159.264
0
LINE
8
BLACK
6
CONTINUOUS
10
311.883
20
-159.264
11
311.576
21
-159.411
0
LINE
8
BLACK
6
CONTINUOUS
10
311.576
20
-159.411
11
311.288
21
-159.591
0
LINE
8
BLACK
6
CONTINUOUS
10
311.288
20
-159.591
11
311.023
21
-159.804
0
LINE
8
BLACK
6
CONTINUOUS
10
311.023
20
-159.804
11
310.783
21
-160.046
0
LINE
8
BLACK
6
CONTINUOUS
10
310.783
20
-160.046
11
310.574
21
-160.314
0
LINE
8
BLACK
6
CONTINUOUS
10
310.574
20
-160.314
11
310.396
21
-160.604
0
LINE
8
BLACK
6
CONTINUOUS
10
310.396
20
-160.604
11
310.253
21
-160.912
0
LINE
8
BLACK
6
CONTINUOUS
10
310.253
20
-160.912
11
310.146
21
-161.235
0
LINE
8
BLACK
6
CONTINUOUS
10
310.146
20
-161.235
11
310.077
21
-161.568
0
LINE
8
BLACK
6
CONTINUOUS
10
310.077
20
-161.568
11
310.046
21
-161.907
0
LINE
8
BLACK
6
CONTINUOUS
10
310.046
20
-161.907
11
310.055
21
-162.247
0
LINE
8
BLACK
6
CONTINUOUS
10
310.055
20
-162.247
11
310.103
21
-162.584
0
LINE
8
BLACK
6
CONTINUOUS
10
273.99
20
-152.046
11
273.583
21
-152.063
0
LINE
8
BLACK
6
CONTINUOUS
10
273.583
20
-152.063
11
273.169
21
-152.116
0
LINE
8
BLACK
6
CONTINUOUS
10
273.169
20
-152.116
11
272.76
21
-152.203
0
LINE
8
BLACK
6
CONTINUOUS
10
272.76
20
-152.203
11
272.361
21
-152.325
0
LINE
8
BLACK
6
CONTINUOUS
10
272.361
20
-152.325
11
271.973
21
-152.479
0
LINE
8
BLACK
6
CONTINUOUS
10
271.973
20
-152.479
11
271.6
21
-152.666
0
LINE
8
BLACK
6
CONTINUOUS
10
271.6
20
-152.666
11
271.243
21
-152.883
0
LINE
8
BLACK
6
CONTINUOUS
10
271.243
20
-152.883
11
270.906
21
-153.13
0
LINE
8
BLACK
6
CONTINUOUS
10
270.906
20
-153.13
11
270.592
21
-153.404
0
LINE
8
BLACK
6
CONTINUOUS
10
270.592
20
-153.404
11
270.301
21
-153.704
0
LINE
8
BLACK
6
CONTINUOUS
10
270.301
20
-153.704
11
270.043
21
-154.019
0
LINE
8
BLACK
6
CONTINUOUS
10
270.043
20
-154.019
11
270.041
21
-154.029
0
LINE
8
BLACK
6
CONTINUOUS
10
270.041
20
-154.029
11
247.041
21
-187.029
0
LINE
8
BLACK
6
CONTINUOUS
10
247.041
20
-187.029
11
247.04
21
-187.029
0
LINE
8
BLACK
6
CONTINUOUS
10
247.04
20
-187.029
11
247.04
21
-187.03
0
LINE
8
BLACK
6
CONTINUOUS
10
247.04
20
-187.03
11
246.771
21
-187.359
0
LINE
8
BLACK
6
CONTINUOUS
10
246.771
20
-187.359
11
246.474
21
-187.665
0
LINE
8
BLACK
6
CONTINUOUS
10
246.474
20
-187.665
11
246.153
21
-187.944
0
LINE
8
BLACK
6
CONTINUOUS
10
246.153
20
-187.944
11
245.81
21
-188.196
0
LINE
8
BLACK
6
CONTINUOUS
10
245.81
20
-188.196
11
245.447
21
-188.418
0
LINE
8
BLACK
6
CONTINUOUS
10
245.447
20
-188.418
11
245.066
21
-188.608
0
LINE
8
BLACK
6
CONTINUOUS
10
245.066
20
-188.608
11
244.671
21
-188.766
0
LINE
8
BLACK
6
CONTINUOUS
10
244.671
20
-188.766
11
244.264
21
-188.889
0
LINE
8
BLACK
6
CONTINUOUS
10
244.264
20
-188.889
11
243.847
21
-188.978
0
LINE
8
BLACK
6
CONTINUOUS
10
243.847
20
-188.978
11
243.425
21
-189.032
0
LINE
8
BLACK
6
CONTINUOUS
10
243.425
20
-189.032
11
243
21
-189.05
0
LINE
8
BLACK
6
CONTINUOUS
10
243
20
-189.05
11
162
21
-189.05
0
LINE
8
BLACK
6
CONTINUOUS
10
162
20
-189.05
11
161.575
21
-189.032
0
LINE
8
BLACK
6
CONTINUOUS
10
161.575
20
-189.032
11
161.153
21
-188.978
0
LINE
8
BLACK
6
CONTINUOUS
10
161.153
20
-188.978
11
160.736
21
-188.889
0
LINE
8
BLACK
6
CONTINUOUS
10
160.736
20
-188.889
11
160.329
21
-188.766
0
LINE
8
BLACK
6
CONTINUOUS
10
160.329
20
-188.766
11
159.934
21
-188.608
0
LINE
8
BLACK
6
CONTINUOUS
10
159.934
20
-188.608
11
159.553
21
-188.418
0
LINE
8
BLACK
6
CONTINUOUS
10
159.553
20
-188.418
11
159.19
21
-188.196
0
LINE
8
BLACK
6
CONTINUOUS
10
159.19
20
-188.196
11
158.847
21
-187.944
0
LINE
8
BLACK
6
CONTINUOUS
10
158.847
20
-187.944
11
158.526
21
-187.665
0
LINE
8
BLACK
6
CONTINUOUS
10
158.526
20
-187.665
11
158.229
21
-187.359
0
LINE
8
BLACK
6
CONTINUOUS
10
158.229
20
-187.359
11
157.96
21
-187.03
0
LINE
8
BLACK
6
CONTINUOUS
10
157.96
20
-187.03
11
157.96
21
-187.029
0
LINE
8
BLACK
6
CONTINUOUS
10
157.96
20
-187.029
11
157.959
21
-187.029
0
LINE
8
BLACK
6
CONTINUOUS
10
157.959
20
-187.029
11
134.959
21
-154.029
0
LINE
8
BLACK
6
CONTINUOUS
10
134.959
20
-154.029
11
134.957
21
-154.019
0
LINE
8
BLACK
6
CONTINUOUS
10
134.957
20
-154.019
11
134.699
21
-153.704
0
LINE
8
BLACK
6
CONTINUOUS
10
134.699
20
-153.704
11
134.408
21
-153.404
0
LINE
8
BLACK
6
CONTINUOUS
10
134.408
20
-153.404
11
134.094
21
-153.13
0
LINE
8
BLACK
6
CONTINUOUS
10
134.094
20
-153.13
11
133.757
21
-152.883
0
LINE
8
BLACK
6
CONTINUOUS
10
133.757
20
-152.883
11
133.4
21
-152.666
0
LINE
8
BLACK
6
CONTINUOUS
10
133.4
20
-152.666
11
133.027
21
-152.479
0
LINE
8
BLACK
6
CONTINUOUS
10
133.027
20
-152.479
11
132.639
21
-152.325
0
LINE
8
BLACK
6
CONTINUOUS
10
132.639
20
-152.325
11
132.24
21
-152.203
0
LINE
8
BLACK
6
CONTINUOUS
10
132.24
20
-152.203
11
131.831
21
-152.116
0
LINE
8
BLACK
6
CONTINUOUS
10
131.831
20
-152.116
11
131.417
21
-152.063
0
LINE
8
BLACK
6
CONTINUOUS
10
131.417
20
-152.063
11
131.01
21
-152.046
0
LINE
8
BLACK
6
CONTINUOUS
10
131.01
20
-152.046
11
131
21
-152.05
0
LINE
8
BLACK
6
CONTINUOUS
10
131
20
-152.05
11
29
21
-152.05
0
LINE
8
BLACK
6
CONTINUOUS
10
29
20
-152.05
11
28.6812
21
-152.033
0
LINE
8
BLACK
6
CONTINUOUS
10
28.6812
20
-152.033
11
28.3659
21
-151.983
0
LINE
8
BLACK
6
CONTINUOUS
10
28.3659
20
-151.983
11
28.0575
21
-151.901
0
LINE
8
BLACK
6
CONTINUOUS
10
28.0575
20
-151.901
11
27.7595
21
-151.786
0
LINE
8
BLACK
6
CONTINUOUS
10
27.7595
20
-151.786
11
27.475
21
-151.641
0
LINE
8
BLACK
6
CONTINUOUS
10
27.475
20
-151.641
11
27.2073
21
-151.468
0
LINE
8
BLACK
6
CONTINUOUS
10
27.2073
20
-151.468
11
26.9592
21
-151.267
0
LINE
8
BLACK
6
CONTINUOUS
10
26.9592
20
-151.267
11
26.7334
21
-151.041
0
LINE
8
BLACK
6
CONTINUOUS
10
26.7334
20
-151.041
11
26.5325
21
-150.793
0
LINE
8
BLACK
6
CONTINUOUS
10
26.5325
20
-150.793
11
26.3586
21
-150.525
0
LINE
8
BLACK
6
CONTINUOUS
10
26.3586
20
-150.525
11
26.2137
21
-150.241
0
LINE
8
BLACK
6
CONTINUOUS
10
26.2137
20
-150.241
11
26.0993
21
-149.943
0
LINE
8
BLACK
6
CONTINUOUS
10
26.0993
20
-149.943
11
26.0166
21
-149.634
0
LINE
8
BLACK
6
CONTINUOUS
10
26.0166
20
-149.634
11
25.9667
21
-149.319
0
LINE
8
BLACK
6
CONTINUOUS
10
25.9667
20
-149.319
11
25.95
21
-149
0
LINE
8
BLACK
6
CONTINUOUS
10
25.95
20
-149
11
25.95
21
-60.5
0
LINE
8
BLACK
6
CONTINUOUS
10
25.95
20
-60.5
11
25.9667
21
-60.1812
0
LINE
8
BLACK
6
CONTINUOUS
10
25.9667
20
-60.1812
11
26.0166
21
-59.8659
0
LINE
8
BLACK
6
CONTINUOUS
10
26.0166
20
-59.8659
11
26.0993
21
-59.5575
0
LINE
8
BLACK
6
CONTINUOUS
10
26.0993
20
-59.5575
11
26.2137
21
-59.2595
0
LINE
8
BLACK
6
CONTINUOUS
10
26.2137
20
-59.2595
11
26.3586
21
-58.975
0
LINE
8
BLACK
6
CONTINUOUS
10
26.3586
20
-58.975
11
26.5325
21
-58.7073
0
LINE
8
BLACK
6
CONTINUOUS
10
26.5325
20
-58.7073
11
26.7334
21
-58.4592
0
LINE
8
BLACK
6
CONTINUOUS
10
26.7334
20
-58.4592
11
26.9592
21
-58.2334
0
LINE
8
BLACK
6
CONTINUOUS
10
26.9592
20
-58.2334
11
27.2073
21
-58.0325
0
LINE
8
BLACK
6
CONTINUOUS
10
27.2073
20
-58.0325
11
27.475
21
-57.8586
0
LINE
8
BLACK
6
CONTINUOUS
10
27.475
20
-57.8586
11
27.7595
21
-57.7137
0
LINE
8
BLACK
6
CONTINUOUS
10
27.7595
20
-57.7137
11
28.0575
21
-57.5993
0
LINE
8
BLACK
6
CONTINUOUS
10
28.0575
20
-57.5993
11
28.3659
21
-57.5166
0
LINE
8
BLACK
6
CONTINUOUS
10
28.3659
20
-57.5166
11
28.6812
21
-57.4667
0
LINE
8
BLACK
6
CONTINUOUS
10
28.6812
20
-57.4667
11
29
21
-57.45
0
LINE
8
BLACK
6
CONTINUOUS
10
29
20
-57.45
11
387
21
-57.45
0
LINE
8
BLACK
6
CONTINUOUS
10
387
20
-57.45
11
387.319
21
-57.4667
0
LINE
8
BLACK
6
CONTINUOUS
10
387.319
20
-57.4667
11
387.634
21
-57.5166
0
LINE
8
BLACK
6
CONTINUOUS
10
387.634
20
-57.5166
11
387.943
21
-57.5993
0
LINE
8
BLACK
6
CONTINUOUS
10
387.943
20
-57.5993
11
388.241
21
-57.7137
0
LINE
8
BLACK
6
CONTINUOUS
10
388.241
20
-57.7137
11
388.525
21
-57.8586
0
LINE
8
BLACK
6
CONTINUOUS
10
388.525
20
-57.8586
11
388.793
21
-58.0325
0
LINE
8
BLACK
6
CONTINUOUS
10
388.793
20
-58.0325
11
389.041
21
-58.2334
0
LINE
8
BLACK
6
CONTINUOUS
10
389.041
20
-58.2334
11
389.267
21
-58.4592
0
LINE
8
BLACK
6
CONTINUOUS
10
389.267
20
-58.4592
11
389.468
21
-58.7073
0
LINE
8
BLACK
6
CONTINUOUS
10
389.468
20
-58.7073
11
389.641
21
-58.975
0
LINE
8
BLACK
6
CONTINUOUS
10
389.641
20
-58.975
11
389.786
21
-59.2595
0
LINE
8
BLACK
6
CONTINUOUS
10
389.786
20
-59.2595
11
389.901
21
-59.5575
0
LINE
8
BLACK
6
CONTINUOUS
10
389.901
20
-59.5575
11
389.983
21
-59.8659
0
LINE
8
BLACK
6
CONTINUOUS
10
389.983
20
-59.8659
11
390.033
21
-60.1812
0
LINE
8
BLACK
6
CONTINUOUS
10
390.033
20
-60.1812
11
390.05
21
-60.5
0
LINE
8
BLACK
6
CONTINUOUS
10
390.05
20
-60.5
11
390.05
21
-149
0
LINE
8
BLACK
6
CONTINUOUS
10
390.05
20
-149
11
390.033
21
-149.319
0
LINE
8
BLACK
6
CONTINUOUS
10
390.033
20
-149.319
11
389.983
21
-149.634
0
LINE
8
BLACK
6
CONTINUOUS
10
389.983
20
-149.634
11
389.901
21
-149.943
0
LINE
8
BLACK
6
CONTINUOUS
10
389.901
20
-149.943
11
389.786
21
-150.241
0
LINE
8
BLACK
6
CONTINUOUS
10
389.786
20
-150.241
11
389.641
21
-150.525
0
LINE
8
BLACK
6
CONTINUOUS
10
389.641
20
-150.525
11
389.468
21
-150.793
0
LINE
8
BLACK
6
CONTINUOUS
10
389.468
20
-150.793
11
389.267
21
-151.041
0
LINE
8
BLACK
6
CONTINUOUS
10
389.267
20
-151.041
11
389.041
21
-151.267
0
LINE
8
BLACK
6
CONTINUOUS
10
389.041
20
-151.267
11
388.793
21
-151.468
0
LINE
8
BLACK
6
CONTINUOUS
10
388.793
20
-151.468
11
388.525
21
-151.641
0
LINE
8
BLACK
6
CONTINUOUS
10
388.525
20
-151.641
11
388.241
21
-151.786
0
LINE
8
BLACK
6
CONTINUOUS
10
388.241
20
-151.786
11
387.943
21
-151.901
0
LINE
8
BLACK
6
CONTINUOUS
10
387.943
20
-151.901
11
387.634
21
-151.983
0
LINE
8
BLACK
6
CONTINUOUS
10
387.634
20
-151.983
11
387.319
21
-152.033
0
LINE
8
BLACK
6
CONTINUOUS
10
387.319
20
-152.033
11
387
21
-152.05
0
LINE
8
BLACK
6
CONTINUOUS
10
387
20
-152.05
11
274
21
-152.05
0
LINE
8
BLACK
6
CONTINUOUS
10
274
20
-152.05
11
273.99
21
-152.046
0
LINE
8
BLACK
6
CONTINUOUS
10
28.9901
20
-57.5459
11
28.6692
21
-57.5639
0
LINE
8
BLACK
6
CONTINUOUS
10
28.6692
20
-57.5639
11
28.3425
21
-57.6194
0
LINE
8
BLACK
6
CONTINUOUS
10
28.3425
20
-57.6194
11
28.0241
21
-57.7112
0
LINE
8
BLACK
6
CONTINUOUS
10
28.0241
20
-57.7112
11
27.718
21
-57.838
0
LINE
8
BLACK
6
CONTINUOUS
10
27.718
20
-57.838
11
27.428
21
-57.9982
0
LINE
8
BLACK
6
CONTINUOUS
10
27.428
20
-57.9982
11
27.1578
21
-58.19
0
LINE
8
BLACK
6
CONTINUOUS
10
27.1578
20
-58.19
11
26.9107
21
-58.4107
0
LINE
8
BLACK
6
CONTINUOUS
10
26.9107
20
-58.4107
11
26.69
21
-58.6578
0
LINE
8
BLACK
6
CONTINUOUS
10
26.69
20
-58.6578
11
26.4982
21
-58.928
0
LINE
8
BLACK
6
CONTINUOUS
10
26.4982
20
-58.928
11
26.338
21
-59.218
0
LINE
8
BLACK
6
CONTINUOUS
10
26.338
20
-59.218
11
26.2112
21
-59.5241
0
LINE
8
BLACK
6
CONTINUOUS
10
26.2112
20
-59.5241
11
26.1194
21
-59.8425
0
LINE
8
BLACK
6
CONTINUOUS
10
26.1194
20
-59.8425
11
26.0639
21
-60.1692
0
LINE
8
BLACK
6
CONTINUOUS
10
26.0639
20
-60.1692
11
26.0459
21
-60.4901
0
LINE
8
BLACK
6
CONTINUOUS
10
26.0459
20
-60.4901
11
26.05
21
-60.5
0
LINE
8
BLACK
6
CONTINUOUS
10
26.05
20
-60.5
11
26.05
21
-149
0
LINE
8
BLACK
6
CONTINUOUS
10
26.05
20
-149
11
26.0459
21
-149.01
0
LINE
8
BLACK
6
CONTINUOUS
10
26.0459
20
-149.01
11
26.0639
21
-149.331
0
LINE
8
BLACK
6
CONTINUOUS
10
26.0639
20
-149.331
11
26.1194
21
-149.657
0
LINE
8
BLACK
6
CONTINUOUS
10
26.1194
20
-149.657
11
26.2112
21
-149.976
0
LINE
8
BLACK
6
CONTINUOUS
10
26.2112
20
-149.976
11
26.338
21
-150.282
0
LINE
8
BLACK
6
CONTINUOUS
10
26.338
20
-150.282
11
26.4982
21
-150.572
0
LINE
8
BLACK
6
CONTINUOUS
10
26.4982
20
-150.572
11
26.69
21
-150.842
0
LINE
8
BLACK
6
CONTINUOUS
10
26.69
20
-150.842
11
26.9107
21
-151.089
0
LINE
8
BLACK
6
CONTINUOUS
10
26.9107
20
-151.089
11
27.1578
21
-151.31
0
LINE
8
BLACK
6
CONTINUOUS
10
27.1578
20
-151.31
11
27.428
21
-151.502
0
LINE
8
BLACK
6
CONTINUOUS
10
27.428
20
-151.502
11
27.718
21
-151.662
0
LINE
8
BLACK
6
CONTINUOUS
10
27.718
20
-151.662
11
28.0241
21
-151.789
0
LINE
8
BLACK
6
CONTINUOUS
10
28.0241
20
-151.789
11
28.3425
21
-151.881
0
LINE
8
BLACK
6
CONTINUOUS
10
28.3425
20
-151.881
11
28.6692
21
-151.936
0
LINE
8
BLACK
6
CONTINUOUS
10
28.6692
20
-151.936
11
28.9901
21
-151.954
0
LINE
8
BLACK
6
CONTINUOUS
10
28.9901
20
-151.954
11
29
21
-151.95
0
LINE
8
BLACK
6
CONTINUOUS
10
29
20
-151.95
11
131
21
-151.95
0
LINE
8
BLACK
6
CONTINUOUS
10
131
20
-151.95
11
131.425
21
-151.968
0
LINE
8
BLACK
6
CONTINUOUS
10
131.425
20
-151.968
11
131.847
21
-152.022
0
LINE
8
BLACK
6
CONTINUOUS
10
131.847
20
-152.022
11
132.264
21
-152.111
0
LINE
8
BLACK
6
CONTINUOUS
10
132.264
20
-152.111
11
132.671
21
-152.234
0
LINE
8
BLACK
6
CONTINUOUS
10
132.671
20
-152.234
11
133.066
21
-152.392
0
LINE
8
BLACK
6
CONTINUOUS
10
133.066
20
-152.392
11
133.447
21
-152.582
0
LINE
8
BLACK
6
CONTINUOUS
10
133.447
20
-152.582
11
133.81
21
-152.804
0
LINE
8
BLACK
6
CONTINUOUS
10
133.81
20
-152.804
11
134.153
21
-153.056
0
LINE
8
BLACK
6
CONTINUOUS
10
134.153
20
-153.056
11
134.474
21
-153.335
0
LINE
8
BLACK
6
CONTINUOUS
10
134.474
20
-153.335
11
134.771
21
-153.641
0
LINE
8
BLACK
6
CONTINUOUS
10
134.771
20
-153.641
11
135.04
21
-153.97
0
LINE
8
BLACK
6
CONTINUOUS
10
135.04
20
-153.97
11
135.04
21
-153.971
0
LINE
8
BLACK
6
CONTINUOUS
10
135.04
20
-153.971
11
135.041
21
-153.971
0
LINE
8
BLACK
6
CONTINUOUS
10
135.041
20
-153.971
11
158.041
21
-186.971
0
LINE
8
BLACK
6
CONTINUOUS
10
158.041
20
-186.971
11
158.043
21
-186.981
0
LINE
8
BLACK
6
CONTINUOUS
10
158.043
20
-186.981
11
158.301
21
-187.296
0
LINE
8
BLACK
6
CONTINUOUS
10
158.301
20
-187.296
11
158.592
21
-187.596
0
LINE
8
BLACK
6
CONTINUOUS
10
158.592
20
-187.596
11
158.906
21
-187.87
0
LINE
8
BLACK
6
CONTINUOUS
10
158.906
20
-187.87
11
159.243
21
-188.117
0
LINE
8
BLACK
6
CONTINUOUS
10
159.243
20
-188.117
11
159.6
21
-188.334
0
LINE
8
BLACK
6
CONTINUOUS
10
159.6
20
-188.334
11
159.973
21
-188.521
0
LINE
8
BLACK
6
CONTINUOUS
10
159.973
20
-188.521
11
160.361
21
-188.675
0
LINE
8
BLACK
6
CONTINUOUS
10
160.361
20
-188.675
11
160.76
21
-188.797
0
LINE
8
BLACK
6
CONTINUOUS
10
160.76
20
-188.797
11
161.169
21
-188.884
0
LINE
8
BLACK
6
CONTINUOUS
10
161.169
20
-188.884
11
161.583
21
-188.937
0
LINE
8
BLACK
6
CONTINUOUS
10
161.583
20
-188.937
11
161.99
21
-188.954
0
LINE
8
BLACK
6
CONTINUOUS
10
161.99
20
-188.954
11
162
21
-188.95
0
LINE
8
BLACK
6
CONTINUOUS
10
162
20
-188.95
11
243
21
-188.95
0
LINE
8
BLACK
6
CONTINUOUS
10
243
20
-188.95
11
243.01
21
-188.954
0
LINE
8
BLACK
6
CONTINUOUS
10
243.01
20
-188.954
11
243.417
21
-188.937
0
LINE
8
BLACK
6
CONTINUOUS
10
243.417
20
-188.937
11
243.831
21
-188.884
0
LINE
8
BLACK
6
CONTINUOUS
10
243.831
20
-188.884
11
244.24
21
-188.797
0
LINE
8
BLACK
6
CONTINUOUS
10
244.24
20
-188.797
11
244.639
21
-188.675
0
LINE
8
BLACK
6
CONTINUOUS
10
244.639
20
-188.675
11
245.027
21
-188.521
0
LINE
8
BLACK
6
CONTINUOUS
10
245.027
20
-188.521
11
245.4
21
-188.334
0
LINE
8
BLACK
6
CONTINUOUS
10
245.4
20
-188.334
11
245.757
21
-188.117
0
LINE
8
BLACK
6
CONTINUOUS
10
245.757
20
-188.117
11
246.094
21
-187.87
0
LINE
8
BLACK
6
CONTINUOUS
10
246.094
20
-187.87
11
246.408
21
-187.596
0
LINE
8
BLACK
6
CONTINUOUS
10
246.408
20
-187.596
11
246.699
21
-187.296
0
LINE
8
BLACK
6
CONTINUOUS
10
246.699
20
-187.296
11
246.957
21
-186.981
0
LINE
8
BLACK
6
CONTINUOUS
10
246.957
20
-186.981
11
246.959
21
-186.971
0
LINE
8
BLACK
6
CONTINUOUS
10
246.959
20
-186.971
11
269.959
21
-153.971
0
LINE
8
BLACK
6
CONTINUOUS
10
269.959
20
-153.971
11
269.96
21
-153.971
0
LINE
8
BLACK
6
CONTINUOUS
10
269.96
20
-153.971
11
269.96
21
-153.97
0
LINE
8
BLACK
6
CONTINUOUS
10
269.96
20
-153.97
11
270.229
21
-153.641
0
LINE
8
BLACK
6
CONTINUOUS
10
270.229
20
-153.641
11
270.526
21
-153.335
0
LINE
8
BLACK
6
CONTINUOUS
10
270.526
20
-153.335
11
270.847
21
-153.056
0
LINE
8
BLACK
6
CONTINUOUS
10
270.847
20
-153.056
11
271.19
21
-152.804
0
LINE
8
BLACK
6
CONTINUOUS
10
271.19
20
-152.804
11
271.553
21
-152.582
0
LINE
8
BLACK
6
CONTINUOUS
10
271.553
20
-152.582
11
271.934
21
-152.392
0
LINE
8
BLACK
6
CONTINUOUS
10
271.934
20
-152.392
11
272.329
21
-152.234
0
LINE
8
BLACK
6
CONTINUOUS
10
272.329
20
-152.234
11
272.736
21
-152.111
0
LINE
8
BLACK
6
CONTINUOUS
10
272.736
20
-152.111
11
273.153
21
-152.022
0
LINE
8
BLACK
6
CONTINUOUS
10
273.153
20
-152.022
11
273.575
21
-151.968
0
LINE
8
BLACK
6
CONTINUOUS
10
273.575
20
-151.968
11
274
21
-151.95
0
LINE
8
BLACK
6
CONTINUOUS
10
274
20
-151.95
11
387
21
-151.95
0
LINE
8
BLACK
6
CONTINUOUS
10
387
20
-151.95
11
387.01
21
-151.954
0
LINE
8
BLACK
6
CONTINUOUS
10
387.01
20
-151.954
11
387.331
21
-151.936
0
LINE
8
BLACK
6
CONTINUOUS
10
387.331
20
-151.936
11
387.657
21
-151.881
0
LINE
8
BLACK
6
CONTINUOUS
10
387.657
20
-151.881
11
387.976
21
-151.789
0
LINE
8
BLACK
6
CONTINUOUS
10
387.976
20
-151.789
11
388.282
21
-151.662
0
LINE
8
BLACK
6
CONTINUOUS
10
388.282
20
-151.662
11
388.572
21
-151.502
0
LINE
8
BLACK
6
CONTINUOUS
10
388.572
20
-151.502
11
388.842
21
-151.31
0
LINE
8
BLACK
6
CONTINUOUS
10
388.842
20
-151.31
11
389.089
21
-151.089
0
LINE
8
BLACK
6
CONTINUOUS
10
389.089
20
-151.089
11
389.31
21
-150.842
0
LINE
8
BLACK
6
CONTINUOUS
10
389.31
20
-150.842
11
389.502
21
-150.572
0
LINE
8
BLACK
6
CONTINUOUS
10
389.502
20
-150.572
11
389.662
21
-150.282
0
LINE
8
BLACK
6
CONTINUOUS
10
389.662
20
-150.282
11
389.789
21
-149.976
0
LINE
8
BLACK
6
CONTINUOUS
10
389.789
20
-149.976
11
389.881
21
-149.657
0
LINE
8
BLACK
6
CONTINUOUS
10
389.881
20
-149.657
11
389.936
21
-149.331
0
LINE
8
BLACK
6
CONTINUOUS
10
389.936
20
-149.331
11
389.954
21
-149.01
0
LINE
8
BLACK
6
CONTINUOUS
10
389.954
20
-149.01
11
389.95
21
-149
0
LINE
8
BLACK
6
CONTINUOUS
10
389.95
20
-149
11
389.95
21
-60.5
0
LINE
8
BLACK
6
CONTINUOUS
10
389.95
20
-60.5
11
389.954
21
-60.4901
0
LINE
8
BLACK
6
CONTINUOUS
10
389.954
20
-60.4901
11
389.936
21
-60.1692
0
LINE
8
BLACK
6
CONTINUOUS
10
389.936
20
-60.1692
11
389.881
21
-59.8425
0
LINE
8
BLACK
6
CONTINUOUS
10
389.881
20
-59.8425
11
389.789
21
-59.5241
0
LINE
8
BLACK
6
CONTINUOUS
10
389.789
20
-59.5241
11
389.662
21
-59.218
0
LINE
8
BLACK
6
CONTINUOUS
10
389.662
20
-59.218
11
389.502
21
-58.928
0
LINE
8
BLACK
6
CONTINUOUS
10
389.502
20
-58.928
11
389.31
21
-58.6578
0
LINE
8
BLACK
6
CONTINUOUS
10
389.31
20
-58.6578
11
389.089
21
-58.4107
0
LINE
8
BLACK
6
CONTINUOUS
10
389.089
20
-58.4107
11
388.842
21
-58.19
0
LINE
8
BLACK
6
CONTINUOUS
10
388.842
20
-58.19
11
388.572
21
-57.9982
0
LINE
8
BLACK
6
CONTINUOUS
10
388.572
20
-57.9982
11
388.282
21
-57.838
0
LINE
8
BLACK
6
CONTINUOUS
10
388.282
20
-57.838
11
387.976
21
-57.7112
0
LINE
8
BLACK
6
CONTINUOUS
10
387.976
20
-57.7112
11
387.657
21
-57.6194
0
LINE
8
BLACK
6
CONTINUOUS
10
387.657
20
-57.6194
11
387.331
21
-57.5639
0
LINE
8
BLACK
6
CONTINUOUS
10
387.331
20
-57.5639
11
387.01
21
-57.5459
0
LINE
8
BLACK
6
CONTINUOUS
10
387.01
20
-57.5459
11
387
21
-57.55
0
LINE
8
BLACK
6
CONTINUOUS
10
387
20
-57.55
11
29
21
-57.55
0
LINE
8
BLACK
6
CONTINUOUS
10
29
20
-57.55
11
28.9901
21
-57.5459
0
LINE
8
BLACK
6
CONTINUOUS
10
160.036
20
-182.283
11
160.134
21
-181.957
0
LINE
8
BLACK
6
CONTINUOUS
10
160.134
20
-181.957
11
160.268
21
-181.644
0
LINE
8
BLACK
6
CONTINUOUS
10
160.268
20
-181.644
11
160.436
21
-181.348
0
LINE
8
BLACK
6
CONTINUOUS
10
160.436
20
-181.348
11
160.636
21
-181.072
0
LINE
8
BLACK
6
CONTINUOUS
10
160.636
20
-181.072
11
160.866
21
-180.821
0
LINE
8
BLACK
6
CONTINUOUS
10
160.866
20
-180.821
11
161.122
21
-180.597
0
LINE
8
BLACK
6
CONTINUOUS
10
161.122
20
-180.597
11
161.402
21
-180.402
0
LINE
8
BLACK
6
CONTINUOUS
10
161.402
20
-180.402
11
161.701
21
-180.24
0
LINE
8
BLACK
6
CONTINUOUS
10
161.701
20
-180.24
11
162.017
21
-180.113
0
LINE
8
BLACK
6
CONTINUOUS
10
162.017
20
-180.113
11
162.345
21
-180.021
0
LINE
8
BLACK
6
CONTINUOUS
10
162.345
20
-180.021
11
162.681
21
-179.967
0
LINE
8
BLACK
6
CONTINUOUS
10
162.681
20
-179.967
11
163.021
21
-179.95
0
LINE
8
BLACK
6
CONTINUOUS
10
163.021
20
-179.95
11
163.361
21
-179.971
0
LINE
8
BLACK
6
CONTINUOUS
10
163.361
20
-179.971
11
163.696
21
-180.031
0
LINE
8
BLACK
6
CONTINUOUS
10
163.696
20
-180.031
11
164.023
21
-180.127
0
LINE
8
BLACK
6
CONTINUOUS
10
164.023
20
-180.127
11
164.337
21
-180.259
0
LINE
8
BLACK
6
CONTINUOUS
10
164.337
20
-180.259
11
164.634
21
-180.425
0
LINE
8
BLACK
6
CONTINUOUS
10
164.634
20
-180.425
11
164.911
21
-180.623
0
LINE
8
BLACK
6
CONTINUOUS
10
164.911
20
-180.623
11
165.164
21
-180.851
0
LINE
8
BLACK
6
CONTINUOUS
10
165.164
20
-180.851
11
165.39
21
-181.105
0
LINE
8
BLACK
6
CONTINUOUS
10
165.39
20
-181.105
11
165.587
21
-181.384
0
LINE
8
BLACK
6
CONTINUOUS
10
165.587
20
-181.384
11
165.751
21
-181.682
0
LINE
8
BLACK
6
CONTINUOUS
10
165.751
20
-181.682
11
165.88
21
-181.997
0
LINE
8
BLACK
6
CONTINUOUS
10
165.88
20
-181.997
11
165.974
21
-182.324
0
LINE
8
BLACK
6
CONTINUOUS
10
165.974
20
-182.324
11
166.031
21
-182.66
0
LINE
8
BLACK
6
CONTINUOUS
10
166.031
20
-182.66
11
166.05
21
-183
0
LINE
8
BLACK
6
CONTINUOUS
10
166.05
20
-183
11
166.049
21
-183.085
0
LINE
8
BLACK
6
CONTINUOUS
10
166.049
20
-183.085
11
166.02
21
-183.424
0
LINE
8
BLACK
6
CONTINUOUS
10
166.02
20
-183.424
11
165.954
21
-183.759
0
LINE
8
BLACK
6
CONTINUOUS
10
165.954
20
-183.759
11
165.851
21
-184.083
0
LINE
8
BLACK
6
CONTINUOUS
10
165.851
20
-184.083
11
165.713
21
-184.394
0
LINE
8
BLACK
6
CONTINUOUS
10
165.713
20
-184.394
11
165.54
21
-184.688
0
LINE
8
BLACK
6
CONTINUOUS
10
165.54
20
-184.688
11
165.336
21
-184.961
0
LINE
8
BLACK
6
CONTINUOUS
10
165.336
20
-184.961
11
165.103
21
-185.209
0
LINE
8
BLACK
6
CONTINUOUS
10
165.103
20
-185.209
11
164.844
21
-185.429
0
LINE
8
BLACK
6
CONTINUOUS
10
164.844
20
-185.429
11
164.562
21
-185.62
0
LINE
8
BLACK
6
CONTINUOUS
10
164.562
20
-185.62
11
164.26
21
-185.778
0
LINE
8
BLACK
6
CONTINUOUS
10
164.26
20
-185.778
11
163.943
21
-185.901
0
LINE
8
BLACK
6
CONTINUOUS
10
163.943
20
-185.901
11
163.613
21
-185.988
0
LINE
8
BLACK
6
CONTINUOUS
10
163.613
20
-185.988
11
163.276
21
-186.037
0
LINE
8
BLACK
6
CONTINUOUS
10
163.276
20
-186.037
11
162.936
21
-186.049
0
LINE
8
BLACK
6
CONTINUOUS
10
162.936
20
-186.049
11
162.597
21
-186.023
0
LINE
8
BLACK
6
CONTINUOUS
10
162.597
20
-186.023
11
162.262
21
-185.959
0
LINE
8
BLACK
6
CONTINUOUS
10
162.262
20
-185.959
11
161.937
21
-185.859
0
LINE
8
BLACK
6
CONTINUOUS
10
161.937
20
-185.859
11
161.625
21
-185.722
0
LINE
8
BLACK
6
CONTINUOUS
10
161.625
20
-185.722
11
161.33
21
-185.552
0
LINE
8
BLACK
6
CONTINUOUS
10
161.33
20
-185.552
11
161.056
21
-185.35
0
LINE
8
BLACK
6
CONTINUOUS
10
161.056
20
-185.35
11
160.806
21
-185.119
0
LINE
8
BLACK
6
CONTINUOUS
10
160.806
20
-185.119
11
160.584
21
-184.861
0
LINE
8
BLACK
6
CONTINUOUS
10
160.584
20
-184.861
11
160.391
21
-184.58
0
LINE
8
BLACK
6
CONTINUOUS
10
160.391
20
-184.58
11
160.231
21
-184.279
0
LINE
8
BLACK
6
CONTINUOUS
10
160.231
20
-184.279
11
160.106
21
-183.963
0
LINE
8
BLACK
6
CONTINUOUS
10
160.106
20
-183.963
11
160.017
21
-183.634
0
LINE
8
BLACK
6
CONTINUOUS
10
160.017
20
-183.634
11
159.965
21
-183.298
0
LINE
8
BLACK
6
CONTINUOUS
10
159.965
20
-183.298
11
159.95
21
-182.957
0
LINE
8
BLACK
6
CONTINUOUS
10
159.95
20
-182.957
11
159.954
21
-182.907
0
LINE
8
BLACK
6
CONTINUOUS
10
159.954
20
-182.907
11
159.974
21
-182.618
0
LINE
8
BLACK
6
CONTINUOUS
10
159.974
20
-182.618
11
160.036
21
-182.283
0
LINE
8
BLACK
6
CONTINUOUS
10
160.103
20
-183.584
11
160.19
21
-183.913
0
LINE
8
BLACK
6
CONTINUOUS
10
160.19
20
-183.913
11
160.313
21
-184.23
0
LINE
8
BLACK
6
CONTINUOUS
10
160.313
20
-184.23
11
160.472
21
-184.531
0
LINE
8
BLACK
6
CONTINUOUS
10
160.472
20
-184.531
11
160.665
21
-184.811
0
LINE
8
BLACK
6
CONTINUOUS
10
160.665
20
-184.811
11
160.889
21
-185.068
0
LINE
8
BLACK
6
CONTINUOUS
10
160.889
20
-185.068
11
161.14
21
-185.296
0
LINE
8
BLACK
6
CONTINUOUS
10
161.14
20
-185.296
11
161.417
21
-185.495
0
LINE
8
BLACK
6
CONTINUOUS
10
161.417
20
-185.495
11
161.714
21
-185.66
0
LINE
8
BLACK
6
CONTINUOUS
10
161.714
20
-185.66
11
162.028
21
-185.791
0
LINE
8
BLACK
6
CONTINUOUS
10
162.028
20
-185.791
11
162.355
21
-185.884
0
LINE
8
BLACK
6
CONTINUOUS
10
162.355
20
-185.884
11
162.691
21
-185.939
0
LINE
8
BLACK
6
CONTINUOUS
10
162.691
20
-185.939
11
163.031
21
-185.955
0
LINE
8
BLACK
6
CONTINUOUS
10
163.031
20
-185.955
11
163.37
21
-185.932
0
LINE
8
BLACK
6
CONTINUOUS
10
163.37
20
-185.932
11
163.705
21
-185.87
0
LINE
8
BLACK
6
CONTINUOUS
10
163.705
20
-185.87
11
164.03
21
-185.77
0
LINE
8
BLACK
6
CONTINUOUS
10
164.03
20
-185.77
11
164.342
21
-185.633
0
LINE
8
BLACK
6
CONTINUOUS
10
164.342
20
-185.633
11
164.635
21
-185.461
0
LINE
8
BLACK
6
CONTINUOUS
10
164.635
20
-185.461
11
164.907
21
-185.257
0
LINE
8
BLACK
6
CONTINUOUS
10
164.907
20
-185.257
11
165.154
21
-185.023
0
LINE
8
BLACK
6
CONTINUOUS
10
165.154
20
-185.023
11
165.372
21
-184.762
0
LINE
8
BLACK
6
CONTINUOUS
10
165.372
20
-184.762
11
165.559
21
-184.477
0
LINE
8
BLACK
6
CONTINUOUS
10
165.559
20
-184.477
11
165.712
21
-184.174
0
LINE
8
BLACK
6
CONTINUOUS
10
165.712
20
-184.174
11
165.829
21
-183.854
0
LINE
8
BLACK
6
CONTINUOUS
10
165.829
20
-183.854
11
165.908
21
-183.523
0
LINE
8
BLACK
6
CONTINUOUS
10
165.908
20
-183.523
11
165.949
21
-183.186
0
LINE
8
BLACK
6
CONTINUOUS
10
165.949
20
-183.186
11
165.955
21
-183
0
LINE
8
BLACK
6
CONTINUOUS
10
165.955
20
-183
11
165.935
21
-182.66
0
LINE
8
BLACK
6
CONTINUOUS
10
165.935
20
-182.66
11
165.877
21
-182.325
0
LINE
8
BLACK
6
CONTINUOUS
10
165.877
20
-182.325
11
165.78
21
-181.999
0
LINE
8
BLACK
6
CONTINUOUS
10
165.78
20
-181.999
11
165.647
21
-181.686
0
LINE
8
BLACK
6
CONTINUOUS
10
165.647
20
-181.686
11
165.478
21
-181.391
0
LINE
8
BLACK
6
CONTINUOUS
10
165.478
20
-181.391
11
165.277
21
-181.116
0
LINE
8
BLACK
6
CONTINUOUS
10
165.277
20
-181.116
11
165.045
21
-180.867
0
LINE
8
BLACK
6
CONTINUOUS
10
165.045
20
-180.867
11
164.787
21
-180.646
0
LINE
8
BLACK
6
CONTINUOUS
10
164.787
20
-180.646
11
164.504
21
-180.457
0
LINE
8
BLACK
6
CONTINUOUS
10
164.504
20
-180.457
11
164.202
21
-180.3
0
LINE
8
BLACK
6
CONTINUOUS
10
164.202
20
-180.3
11
163.884
21
-180.18
0
LINE
8
BLACK
6
CONTINUOUS
10
163.884
20
-180.18
11
163.554
21
-180.097
0
LINE
8
BLACK
6
CONTINUOUS
10
163.554
20
-180.097
11
163.216
21
-180.053
0
LINE
8
BLACK
6
CONTINUOUS
10
163.216
20
-180.053
11
162.876
21
-180.048
0
LINE
8
BLACK
6
CONTINUOUS
10
162.876
20
-180.048
11
162.538
21
-180.081
0
LINE
8
BLACK
6
CONTINUOUS
10
162.538
20
-180.081
11
162.205
21
-180.154
0
LINE
8
BLACK
6
CONTINUOUS
10
162.205
20
-180.154
11
161.883
21
-180.264
0
LINE
8
BLACK
6
CONTINUOUS
10
161.883
20
-180.264
11
161.576
21
-180.411
0
LINE
8
BLACK
6
CONTINUOUS
10
161.576
20
-180.411
11
161.288
21
-180.591
0
LINE
8
BLACK
6
CONTINUOUS
10
161.288
20
-180.591
11
161.023
21
-180.804
0
LINE
8
BLACK
6
CONTINUOUS
10
161.023
20
-180.804
11
160.783
21
-181.046
0
LINE
8
BLACK
6
CONTINUOUS
10
160.783
20
-181.046
11
160.574
21
-181.314
0
LINE
8
BLACK
6
CONTINUOUS
10
160.574
20
-181.314
11
160.396
21
-181.604
0
LINE
8
BLACK
6
CONTINUOUS
10
160.396
20
-181.604
11
160.253
21
-181.912
0
LINE
8
BLACK
6
CONTINUOUS
10
160.253
20
-181.912
11
160.146
21
-182.235
0
LINE
8
BLACK
6
CONTINUOUS
10
160.146
20
-182.235
11
160.077
21
-182.568
0
LINE
8
BLACK
6
CONTINUOUS
10
160.077
20
-182.568
11
160.046
21
-182.907
0
LINE
8
BLACK
6
CONTINUOUS
10
160.046
20
-182.907
11
160.055
21
-183.247
0
LINE
8
BLACK
6
CONTINUOUS
10
160.055
20
-183.247
11
160.103
21
-183.584
0
LINE
8
BLACK
6
CONTINUOUS
10
239.036
20
-182.283
11
239.134
21
-181.957
0
LINE
8
BLACK
6
CONTINUOUS
10
239.134
20
-181.957
11
239.268
21
-181.644
0
LINE
8
BLACK
6
CONTINUOUS
10
239.268
20
-181.644
11
239.436
21
-181.348
0
LINE
8
BLACK
6
CONTINUOUS
10
239.436
20
-181.348
11
239.636
21
-181.072
0
LINE
8
BLACK
6
CONTINUOUS
10
239.636
20
-181.072
11
239.866
21
-180.821
0
LINE
8
BLACK
6
CONTINUOUS
10
239.866
20
-180.821
11
240.122
21
-180.597
0
LINE
8
BLACK
6
CONTINUOUS
10
240.122
20
-180.597
11
240.402
21
-180.402
0
LINE
8
BLACK
6
CONTINUOUS
10
240.402
20
-180.402
11
240.701
21
-180.24
0
LINE
8
BLACK
6
CONTINUOUS
10
240.701
20
-180.24
11
241.017
21
-180.113
0
LINE
8
BLACK
6
CONTINUOUS
10
241.017
20
-180.113
11
241.345
21
-180.021
0
LINE
8
BLACK
6
CONTINUOUS
10
241.345
20
-180.021
11
241.681
21
-179.967
0
LINE
8
BLACK
6
CONTINUOUS
10
241.681
20
-179.967
11
242.021
21
-179.95
0
LINE
8
BLACK
6
CONTINUOUS
10
242.021
20
-179.95
11
242.361
21
-179.971
0
LINE
8
BLACK
6
CONTINUOUS
10
242.361
20
-179.971
11
242.696
21
-180.031
0
LINE
8
BLACK
6
CONTINUOUS
10
242.696
20
-180.031
11
243.023
21
-180.127
0
LINE
8
BLACK
6
CONTINUOUS
10
243.023
20
-180.127
11
243.337
21
-180.259
0
LINE
8
BLACK
6
CONTINUOUS
10
243.337
20
-180.259
11
243.634
21
-180.425
0
LINE
8
BLACK
6
CONTINUOUS
10
243.634
20
-180.425
11
243.911
21
-180.623
0
LINE
8
BLACK
6
CONTINUOUS
10
243.911
20
-180.623
11
244.164
21
-180.851
0
LINE
8
BLACK
6
CONTINUOUS
10
244.164
20
-180.851
11
244.39
21
-181.105
0
LINE
8
BLACK
6
CONTINUOUS
10
244.39
20
-181.105
11
244.587
21
-181.384
0
LINE
8
BLACK
6
CONTINUOUS
10
244.587
20
-181.384
11
244.751
21
-181.682
0
LINE
8
BLACK
6
CONTINUOUS
10
244.751
20
-181.682
11
244.88
21
-181.997
0
LINE
8
BLACK
6
CONTINUOUS
10
244.88
20
-181.997
11
244.974
21
-182.324
0
LINE
8
BLACK
6
CONTINUOUS
10
244.974
20
-182.324
11
245.031
21
-182.66
0
LINE
8
BLACK
6
CONTINUOUS
10
245.031
20
-182.66
11
245.05
21
-183
0
LINE
8
BLACK
6
CONTINUOUS
10
245.05
20
-183
11
245.049
21
-183.085
0
LINE
8
BLACK
6
CONTINUOUS
10
245.049
20
-183.085
11
245.02
21
-183.424
0
LINE
8
BLACK
6
CONTINUOUS
10
245.02
20
-183.424
11
244.954
21
-183.759
0
LINE
8
BLACK
6
CONTINUOUS
10
244.954
20
-183.759
11
244.851
21
-184.083
0
LINE
8
BLACK
6
CONTINUOUS
10
244.851
20
-184.083
11
244.713
21
-184.394
0
LINE
8
BLACK
6
CONTINUOUS
10
244.713
20
-184.394
11
244.54
21
-184.688
0
LINE
8
BLACK
6
CONTINUOUS
10
244.54
20
-184.688
11
244.336
21
-184.961
0
LINE
8
BLACK
6
CONTINUOUS
10
244.336
20
-184.961
11
244.103
21
-185.209
0
LINE
8
BLACK
6
CONTINUOUS
10
244.103
20
-185.209
11
243.844
21
-185.429
0
LINE
8
BLACK
6
CONTINUOUS
10
243.844
20
-185.429
11
243.562
21
-185.62
0
LINE
8
BLACK
6
CONTINUOUS
10
243.562
20
-185.62
11
243.26
21
-185.778
0
LINE
8
BLACK
6
CONTINUOUS
10
243.26
20
-185.778
11
242.943
21
-185.901
0
LINE
8
BLACK
6
CONTINUOUS
10
242.943
20
-185.901
11
242.613
21
-185.988
0
LINE
8
BLACK
6
CONTINUOUS
10
242.613
20
-185.988
11
242.276
21
-186.037
0
LINE
8
BLACK
6
CONTINUOUS
10
242.276
20
-186.037
11
241.936
21
-186.049
0
LINE
8
BLACK
6
CONTINUOUS
10
241.936
20
-186.049
11
241.597
21
-186.023
0
LINE
8
BLACK
6
CONTINUOUS
10
241.597
20
-186.023
11
241.262
21
-185.959
0
LINE
8
BLACK
6
CONTINUOUS
10
241.262
20
-185.959
11
240.937
21
-185.859
0
LINE
8
BLACK
6
CONTINUOUS
10
240.937
20
-185.859
11
240.625
21
-185.722
0
LINE
8
BLACK
6
CONTINUOUS
10
240.625
20
-185.722
11
240.33
21
-185.552
0
LINE
8
BLACK
6
CONTINUOUS
10
240.33
20
-185.552
11
240.056
21
-185.35
0
LINE
8
BLACK
6
CONTINUOUS
10
240.056
20
-185.35
11
239.806
21
-185.119
0
LINE
8
BLACK
6
CONTINUOUS
10
239.806
20
-185.119
11
239.584
21
-184.861
0
LINE
8
BLACK
6
CONTINUOUS
10
239.584
20
-184.861
11
239.391
21
-184.58
0
LINE
8
BLACK
6
CONTINUOUS
10
239.391
20
-184.58
11
239.231
21
-184.279
0
LINE
8
BLACK
6
CONTINUOUS
10
239.231
20
-184.279
11
239.106
21
-183.963
0
LINE
8
BLACK
6
CONTINUOUS
10
239.106
20
-183.963
11
239.017
21
-183.634
0
LINE
8
BLACK
6
CONTINUOUS
10
239.017
20
-183.634
11
238.965
21
-183.298
0
LINE
8
BLACK
6
CONTINUOUS
10
238.965
20
-183.298
11
238.95
21
-182.957
0
LINE
8
BLACK
6
CONTINUOUS
10
238.95
20
-182.957
11
238.954
21
-182.907
0
LINE
8
BLACK
6
CONTINUOUS
10
238.954
20
-182.907
11
238.974
21
-182.618
0
LINE
8
BLACK
6
CONTINUOUS
10
238.974
20
-182.618
11
239.036
21
-182.283
0
LINE
8
BLACK
6
CONTINUOUS
10
239.103
20
-183.584
11
239.19
21
-183.913
0
LINE
8
BLACK
6
CONTINUOUS
10
239.19
20
-183.913
11
239.313
21
-184.23
0
LINE
8
BLACK
6
CONTINUOUS
10
239.313
20
-184.23
11
239.472
21
-184.531
0
LINE
8
BLACK
6
CONTINUOUS
10
239.472
20
-184.531
11
239.665
21
-184.811
0
LINE
8
BLACK
6
CONTINUOUS
10
239.665
20
-184.811
11
239.889
21
-185.068
0
LINE
8
BLACK
6
CONTINUOUS
10
239.889
20
-185.068
11
240.14
21
-185.296
0
LINE
8
BLACK
6
CONTINUOUS
10
240.14
20
-185.296
11
240.417
21
-185.495
0
LINE
8
BLACK
6
CONTINUOUS
10
240.417
20
-185.495
11
240.714
21
-185.66
0
LINE
8
BLACK
6
CONTINUOUS
10
240.714
20
-185.66
11
241.028
21
-185.791
0
LINE
8
BLACK
6
CONTINUOUS
10
241.028
20
-185.791
11
241.355
21
-185.884
0
LINE
8
BLACK
6
CONTINUOUS
10
241.355
20
-185.884
11
241.691
21
-185.939
0
LINE
8
BLACK
6
CONTINUOUS
10
241.691
20
-185.939
11
242.031
21
-185.955
0
LINE
8
BLACK
6
CONTINUOUS
10
242.031
20
-185.955
11
242.37
21
-185.932
0
LINE
8
BLACK
6
CONTINUOUS
10
242.37
20
-185.932
11
242.705
21
-185.87
0
LINE
8
BLACK
6
CONTINUOUS
10
242.705
20
-185.87
11
243.03
21
-185.77
0
LINE
8
BLACK
6
CONTINUOUS
10
243.03
20
-185.77
11
243.342
21
-185.633
0
LINE
8
BLACK
6
CONTINUOUS
10
243.342
20
-185.633
11
243.635
21
-185.461
0
LINE
8
BLACK
6
CONTINUOUS
10
243.635
20
-185.461
11
243.907
21
-185.257
0
LINE
8
BLACK
6
CONTINUOUS
10
243.907
20
-185.257
11
244.154
21
-185.023
0
LINE
8
BLACK
6
CONTINUOUS
10
244.154
20
-185.023
11
244.372
21
-184.762
0
LINE
8
BLACK
6
CONTINUOUS
10
244.372
20
-184.762
11
244.559
21
-184.477
0
LINE
8
BLACK
6
CONTINUOUS
10
244.559
20
-184.477
11
244.712
21
-184.174
0
LINE
8
BLACK
6
CONTINUOUS
10
244.712
20
-184.174
11
244.829
21
-183.854
0
LINE
8
BLACK
6
CONTINUOUS
10
244.829
20
-183.854
11
244.908
21
-183.523
0
LINE
8
BLACK
6
CONTINUOUS
10
244.908
20
-183.523
11
244.949
21
-183.186
0
LINE
8
BLACK
6
CONTINUOUS
10
244.949
20
-183.186
11
244.955
21
-183
0
LINE
8
BLACK
6
CONTINUOUS
10
244.955
20
-183
11
244.935
21
-182.66
0
LINE
8
BLACK
6
CONTINUOUS
10
244.935
20
-182.66
11
244.877
21
-182.325
0
LINE
8
BLACK
6
CONTINUOUS
10
244.877
20
-182.325
11
244.78
21
-181.999
0
LINE
8
BLACK
6
CONTINUOUS
10
244.78
20
-181.999
11
244.647
21
-181.686
0
LINE
8
BLACK
6
CONTINUOUS
10
244.647
20
-181.686
11
244.478
21
-181.391
0
LINE
8
BLACK
6
CONTINUOUS
10
244.478
20
-181.391
11
244.277
21
-181.116
0
LINE
8
BLACK
6
CONTINUOUS
10
244.277
20
-181.116
11
244.045
21
-180.867
0
LINE
8
BLACK
6
CONTINUOUS
10
244.045
20
-180.867
11
243.787
21
-180.646
0
LINE
8
BLACK
6
CONTINUOUS
10
243.787
20
-180.646
11
243.504
21
-180.457
0
LINE
8
BLACK
6
CONTINUOUS
10
243.504
20
-180.457
11
243.202
21
-180.3
0
LINE
8
BLACK
6
CONTINUOUS
10
243.202
20
-180.3
11
242.884
21
-180.18
0
LINE
8
BLACK
6
CONTINUOUS
10
242.884
20
-180.18
11
242.554
21
-180.097
0
LINE
8
BLACK
6
CONTINUOUS
10
242.554
20
-180.097
11
242.216
21
-180.053
0
LINE
8
BLACK
6
CONTINUOUS
10
242.216
20
-180.053
11
241.876
21
-180.048
0
LINE
8
BLACK
6
CONTINUOUS
10
241.876
20
-180.048
11
241.538
21
-180.081
0
LINE
8
BLACK
6
CONTINUOUS
10
241.538
20
-180.081
11
241.205
21
-180.154
0
LINE
8
BLACK
6
CONTINUOUS
10
241.205
20
-180.154
11
240.883
21
-180.264
0
LINE
8
BLACK
6
CONTINUOUS
10
240.883
20
-180.264
11
240.576
21
-180.411
0
LINE
8
BLACK
6
CONTINUOUS
10
240.576
20
-180.411
11
240.288
21
-180.591
0
LINE
8
BLACK
6
CONTINUOUS
10
240.288
20
-180.591
11
240.023
21
-180.804
0
LINE
8
BLACK
6
CONTINUOUS
10
240.023
20
-180.804
11
239.783
21
-181.046
0
LINE
8
BLACK
6
CONTINUOUS
10
239.783
20
-181.046
11
239.574
21
-181.314
0
LINE
8
BLACK
6
CONTINUOUS
10
239.574
20
-181.314
11
239.396
21
-181.604
0
LINE
8
BLACK
6
CONTINUOUS
10
239.396
20
-181.604
11
239.253
21
-181.912
0
LINE
8
BLACK
6
CONTINUOUS
10
239.253
20
-181.912
11
239.146
21
-182.235
0
LINE
8
BLACK
6
CONTINUOUS
10
239.146
20
-182.235
11
239.077
21
-182.568
0
LINE
8
BLACK
6
CONTINUOUS
10
239.077
20
-182.568
11
239.046
21
-182.907
0
LINE
8
BLACK
6
CONTINUOUS
10
239.046
20
-182.907
11
239.055
21
-183.247
0
LINE
8
BLACK
6
CONTINUOUS
10
239.055
20
-183.247
11
239.103
21
-183.584
0
LINE
8
BLACK
6
CONTINUOUS
10
271.036
20
-146.283
11
271.134
21
-145.957
0
LINE
8
BLACK
6
CONTINUOUS
10
271.134
20
-145.957
11
271.268
21
-145.644
0
LINE
8
BLACK
6
CONTINUOUS
10
271.268
20
-145.644
11
271.436
21
-145.348
0
LINE
8
BLACK
6
CONTINUOUS
10
271.436
20
-145.348
11
271.636
21
-145.072
0
LINE
8
BLACK
6
CONTINUOUS
10
271.636
20
-145.072
11
271.866
21
-144.821
0
LINE
8
BLACK
6
CONTINUOUS
10
271.866
20
-144.821
11
272.122
21
-144.597
0
LINE
8
BLACK
6
CONTINUOUS
10
272.122
20
-144.597
11
272.402
21
-144.402
0
LINE
8
BLACK
6
CONTINUOUS
10
272.402
20
-144.402
11
272.701
21
-144.24
0
LINE
8
BLACK
6
CONTINUOUS
10
272.701
20
-144.24
11
273.017
21
-144.113
0
LINE
8
BLACK
6
CONTINUOUS
10
273.017
20
-144.113
11
273.345
21
-144.021
0
LINE
8
BLACK
6
CONTINUOUS
10
273.345
20
-144.021
11
273.681
21
-143.967
0
LINE
8
BLACK
6
CONTINUOUS
10
273.681
20
-143.967
11
274.021
21
-143.95
0
LINE
8
BLACK
6
CONTINUOUS
10
274.021
20
-143.95
11
274.361
21
-143.971
0
LINE
8
BLACK
6
CONTINUOUS
10
274.361
20
-143.971
11
274.696
21
-144.031
0
LINE
8
BLACK
6
CONTINUOUS
10
274.696
20
-144.031
11
275.023
21
-144.127
0
LINE
8
BLACK
6
CONTINUOUS
10
275.023
20
-144.127
11
275.337
21
-144.259
0
LINE
8
BLACK
6
CONTINUOUS
10
275.337
20
-144.259
11
275.634
21
-144.425
0
LINE
8
BLACK
6
CONTINUOUS
10
275.634
20
-144.425
11
275.911
21
-144.623
0
LINE
8
BLACK
6
CONTINUOUS
10
275.911
20
-144.623
11
276.164
21
-144.851
0
LINE
8
BLACK
6
CONTINUOUS
10
276.164
20
-144.851
11
276.39
21
-145.105
0
LINE
8
BLACK
6
CONTINUOUS
10
276.39
20
-145.105
11
276.587
21
-145.384
0
LINE
8
BLACK
6
CONTINUOUS
10
276.587
20
-145.384
11
276.751
21
-145.682
0
LINE
8
BLACK
6
CONTINUOUS
10
276.751
20
-145.682
11
276.88
21
-145.997
0
LINE
8
BLACK
6
CONTINUOUS
10
276.88
20
-145.997
11
276.974
21
-146.324
0
LINE
8
BLACK
6
CONTINUOUS
10
276.974
20
-146.324
11
277.031
21
-146.66
0
LINE
8
BLACK
6
CONTINUOUS
10
277.031
20
-146.66
11
277.05
21
-147
0
LINE
8
BLACK
6
CONTINUOUS
10
277.05
20
-147
11
277.049
21
-147.085
0
LINE
8
BLACK
6
CONTINUOUS
10
277.049
20
-147.085
11
277.02
21
-147.424
0
LINE
8
BLACK
6
CONTINUOUS
10
277.02
20
-147.424
11
276.954
21
-147.759
0
LINE
8
BLACK
6
CONTINUOUS
10
276.954
20
-147.759
11
276.851
21
-148.083
0
LINE
8
BLACK
6
CONTINUOUS
10
276.851
20
-148.083
11
276.713
21
-148.394
0
LINE
8
BLACK
6
CONTINUOUS
10
276.713
20
-148.394
11
276.54
21
-148.688
0
LINE
8
BLACK
6
CONTINUOUS
10
276.54
20
-148.688
11
276.336
21
-148.961
0
LINE
8
BLACK
6
CONTINUOUS
10
276.336
20
-148.961
11
276.103
21
-149.209
0
LINE
8
BLACK
6
CONTINUOUS
10
276.103
20
-149.209
11
275.844
21
-149.429
0
LINE
8
BLACK
6
CONTINUOUS
10
275.844
20
-149.429
11
275.562
21
-149.62
0
LINE
8
BLACK
6
CONTINUOUS
10
275.562
20
-149.62
11
275.26
21
-149.778
0
LINE
8
BLACK
6
CONTINUOUS
10
275.26
20
-149.778
11
274.943
21
-149.901
0
LINE
8
BLACK
6
CONTINUOUS
10
274.943
20
-149.901
11
274.613
21
-149.988
0
LINE
8
BLACK
6
CONTINUOUS
10
274.613
20
-149.988
11
274.276
21
-150.037
0
LINE
8
BLACK
6
CONTINUOUS
10
274.276
20
-150.037
11
273.936
21
-150.049
0
LINE
8
BLACK
6
CONTINUOUS
10
273.936
20
-150.049
11
273.597
21
-150.023
0
LINE
8
BLACK
6
CONTINUOUS
10
273.597
20
-150.023
11
273.262
21
-149.959
0
LINE
8
BLACK
6
CONTINUOUS
10
273.262
20
-149.959
11
272.937
21
-149.859
0
LINE
8
BLACK
6
CONTINUOUS
10
272.937
20
-149.859
11
272.625
21
-149.722
0
LINE
8
BLACK
6
CONTINUOUS
10
272.625
20
-149.722
11
272.33
21
-149.552
0
LINE
8
BLACK
6
CONTINUOUS
10
272.33
20
-149.552
11
272.056
21
-149.35
0
LINE
8
BLACK
6
CONTINUOUS
10
272.056
20
-149.35
11
271.806
21
-149.119
0
LINE
8
BLACK
6
CONTINUOUS
10
271.806
20
-149.119
11
271.584
21
-148.861
0
LINE
8
BLACK
6
CONTINUOUS
10
271.584
20
-148.861
11
271.391
21
-148.58
0
LINE
8
BLACK
6
CONTINUOUS
10
271.391
20
-148.58
11
271.231
21
-148.279
0
LINE
8
BLACK
6
CONTINUOUS
10
271.231
20
-148.279
11
271.106
21
-147.963
0
LINE
8
BLACK
6
CONTINUOUS
10
271.106
20
-147.963
11
271.017
21
-147.634
0
LINE
8
BLACK
6
CONTINUOUS
10
271.017
20
-147.634
11
270.965
21
-147.298
0
LINE
8
BLACK
6
CONTINUOUS
10
270.965
20
-147.298
11
270.95
21
-146.957
0
LINE
8
BLACK
6
CONTINUOUS
10
270.95
20
-146.957
11
270.954
21
-146.907
0
LINE
8
BLACK
6
CONTINUOUS
10
270.954
20
-146.907
11
270.974
21
-146.618
0
LINE
8
BLACK
6
CONTINUOUS
10
270.974
20
-146.618
11
271.036
21
-146.283
0
LINE
8
BLACK
6
CONTINUOUS
10
271.103
20
-147.584
11
271.19
21
-147.913
0
LINE
8
BLACK
6
CONTINUOUS
10
271.19
20
-147.913
11
271.313
21
-148.23
0
LINE
8
BLACK
6
CONTINUOUS
10
271.313
20
-148.23
11
271.472
21
-148.531
0
LINE
8
BLACK
6
CONTINUOUS
10
271.472
20
-148.531
11
271.665
21
-148.811
0
LINE
8
BLACK
6
CONTINUOUS
10
271.665
20
-148.811
11
271.889
21
-149.068
0
LINE
8
BLACK
6
CONTINUOUS
10
271.889
20
-149.068
11
272.14
21
-149.296
0
LINE
8
BLACK
6
CONTINUOUS
10
272.14
20
-149.296
11
272.417
21
-149.495
0
LINE
8
BLACK
6
CONTINUOUS
10
272.417
20
-149.495
11
272.714
21
-149.66
0
LINE
8
BLACK
6
CONTINUOUS
10
272.714
20
-149.66
11
273.028
21
-149.791
0
LINE
8
BLACK
6
CONTINUOUS
10
273.028
20
-149.791
11
273.355
21
-149.884
0
LINE
8
BLACK
6
CONTINUOUS
10
273.355
20
-149.884
11
273.691
21
-149.939
0
LINE
8
BLACK
6
CONTINUOUS
10
273.691
20
-149.939
11
274.031
21
-149.955
0
LINE
8
BLACK
6
CONTINUOUS
10
274.031
20
-149.955
11
274.37
21
-149.932
0
LINE
8
BLACK
6
CONTINUOUS
10
274.37
20
-149.932
11
274.705
21
-149.87
0
LINE
8
BLACK
6
CONTINUOUS
10
274.705
20
-149.87
11
275.03
21
-149.77
0
LINE
8
BLACK
6
CONTINUOUS
10
275.03
20
-149.77
11
275.342
21
-149.633
0
LINE
8
BLACK
6
CONTINUOUS
10
275.342
20
-149.633
11
275.635
21
-149.461
0
LINE
8
BLACK
6
CONTINUOUS
10
275.635
20
-149.461
11
275.907
21
-149.257
0
LINE
8
BLACK
6
CONTINUOUS
10
275.907
20
-149.257
11
276.154
21
-149.023
0
LINE
8
BLACK
6
CONTINUOUS
10
276.154
20
-149.023
11
276.372
21
-148.762
0
LINE
8
BLACK
6
CONTINUOUS
10
276.372
20
-148.762
11
276.559
21
-148.477
0
LINE
8
BLACK
6
CONTINUOUS
10
276.559
20
-148.477
11
276.712
21
-148.174
0
LINE
8
BLACK
6
CONTINUOUS
10
276.712
20
-148.174
11
276.829
21
-147.854
0
LINE
8
BLACK
6
CONTINUOUS
10
276.829
20
-147.854
11
276.908
21
-147.523
0
LINE
8
BLACK
6
CONTINUOUS
10
276.908
20
-147.523
11
276.949
21
-147.186
0
LINE
8
BLACK
6
CONTINUOUS
10
276.949
20
-147.186
11
276.955
21
-147
0
LINE
8
BLACK
6
CONTINUOUS
10
276.955
20
-147
11
276.935
21
-146.66
0
LINE
8
BLACK
6
CONTINUOUS
10
276.935
20
-146.66
11
276.877
21
-146.325
0
LINE
8
BLACK
6
CONTINUOUS
10
276.877
20
-146.325
11
276.78
21
-145.999
0
LINE
8
BLACK
6
CONTINUOUS
10
276.78
20
-145.999
11
276.647
21
-145.686
0
LINE
8
BLACK
6
CONTINUOUS
10
276.647
20
-145.686
11
276.478
21
-145.391
0
LINE
8
BLACK
6
CONTINUOUS
10
276.478
20
-145.391
11
276.277
21
-145.116
0
LINE
8
BLACK
6
CONTINUOUS
10
276.277
20
-145.116
11
276.045
21
-144.867
0
LINE
8
BLACK
6
CONTINUOUS
10
276.045
20
-144.867
11
275.787
21
-144.646
0
LINE
8
BLACK
6
CONTINUOUS
10
275.787
20
-144.646
11
275.504
21
-144.457
0
LINE
8
BLACK
6
CONTINUOUS
10
275.504
20
-144.457
11
275.202
21
-144.3
0
LINE
8
BLACK
6
CONTINUOUS
10
275.202
20
-144.3
11
274.884
21
-144.18
0
LINE
8
BLACK
6
CONTINUOUS
10
274.884
20
-144.18
11
274.554
21
-144.097
0
LINE
8
BLACK
6
CONTINUOUS
10
274.554
20
-144.097
11
274.216
21
-144.053
0
LINE
8
BLACK
6
CONTINUOUS
10
274.216
20
-144.053
11
273.876
21
-144.048
0
LINE
8
BLACK
6
CONTINUOUS
10
273.876
20
-144.048
11
273.538
21
-144.081
0
LINE
8
BLACK
6
CONTINUOUS
10
273.538
20
-144.081
11
273.205
21
-144.154
0
LINE
8
BLACK
6
CONTINUOUS
10
273.205
20
-144.154
11
272.883
21
-144.264
0
LINE
8
BLACK
6
CONTINUOUS
10
272.883
20
-144.264
11
272.576
21
-144.411
0
LINE
8
BLACK
6
CONTINUOUS
10
272.576
20
-144.411
11
272.288
21
-144.591
0
LINE
8
BLACK
6
CONTINUOUS
10
272.288
20
-144.591
11
272.023
21
-144.804
0
LINE
8
BLACK
6
CONTINUOUS
10
272.023
20
-144.804
11
271.783
21
-145.046
0
LINE
8
BLACK
6
CONTINUOUS
10
271.783
20
-145.046
11
271.574
21
-145.314
0
LINE
8
BLACK
6
CONTINUOUS
10
271.574
20
-145.314
11
271.396
21
-145.604
0
LINE
8
BLACK
6
CONTINUOUS
10
271.396
20
-145.604
11
271.253
21
-145.912
0
LINE
8
BLACK
6
CONTINUOUS
10
271.253
20
-145.912
11
271.146
21
-146.235
0
LINE
8
BLACK
6
CONTINUOUS
10
271.146
20
-146.235
11
271.077
21
-146.568
0
LINE
8
BLACK
6
CONTINUOUS
10
271.077
20
-146.568
11
271.046
21
-146.907
0
LINE
8
BLACK
6
CONTINUOUS
10
271.046
20
-146.907
11
271.055
21
-147.247
0
LINE
8
BLACK
6
CONTINUOUS
10
271.055
20
-147.247
11
271.103
21
-147.584
0
LINE
8
BLACK
6
CONTINUOUS
10
28.0355
20
-146.283
11
28.1339
21
-145.957
0
LINE
8
BLACK
6
CONTINUOUS
10
28.1339
20
-145.957
11
28.2681
21
-145.644
0
LINE
8
BLACK
6
CONTINUOUS
10
28.2681
20
-145.644
11
28.4363
21
-145.348
0
LINE
8
BLACK
6
CONTINUOUS
10
28.4363
20
-145.348
11
28.6364
21
-145.072
0
LINE
8
BLACK
6
CONTINUOUS
10
28.6364
20
-145.072
11
28.866
21
-144.821
0
LINE
8
BLACK
6
CONTINUOUS
10
28.866
20
-144.821
11
29.1222
21
-144.597
0
LINE
8
BLACK
6
CONTINUOUS
10
29.1222
20
-144.597
11
29.4018
21
-144.402
0
LINE
8
BLACK
6
CONTINUOUS
10
29.4018
20
-144.402
11
29.7014
21
-144.24
0
LINE
8
BLACK
6
CONTINUOUS
10
29.7014
20
-144.24
11
30.0171
21
-144.113
0
LINE
8
BLACK
6
CONTINUOUS
10
30.0171
20
-144.113
11
30.3451
21
-144.021
0
LINE
8
BLACK
6
CONTINUOUS
10
30.3451
20
-144.021
11
30.6812
21
-143.967
0
LINE
8
BLACK
6
CONTINUOUS
10
30.6812
20
-143.967
11
31.0213
21
-143.95
0
LINE
8
BLACK
6
CONTINUOUS
10
31.0213
20
-143.95
11
31.3611
21
-143.971
0
LINE
8
BLACK
6
CONTINUOUS
10
31.3611
20
-143.971
11
31.6965
21
-144.031
0
LINE
8
BLACK
6
CONTINUOUS
10
31.6965
20
-144.031
11
32.0231
21
-144.127
0
LINE
8
BLACK
6
CONTINUOUS
10
32.0231
20
-144.127
11
32.337
21
-144.259
0
LINE
8
BLACK
6
CONTINUOUS
10
32.337
20
-144.259
11
32.6343
21
-144.425
0
LINE
8
BLACK
6
CONTINUOUS
10
32.6343
20
-144.425
11
32.9111
21
-144.623
0
LINE
8
BLACK
6
CONTINUOUS
10
32.9111
20
-144.623
11
33.1642
21
-144.851
0
LINE
8
BLACK
6
CONTINUOUS
10
33.1642
20
-144.851
11
33.3903
21
-145.105
0
LINE
8
BLACK
6
CONTINUOUS
10
33.3903
20
-145.105
11
33.5865
21
-145.384
0
LINE
8
BLACK
6
CONTINUOUS
10
33.5865
20
-145.384
11
33.7506
21
-145.682
0
LINE
8
BLACK
6
CONTINUOUS
10
33.7506
20
-145.682
11
33.8803
21
-145.997
0
LINE
8
BLACK
6
CONTINUOUS
10
33.8803
20
-145.997
11
33.9742
21
-146.324
0
LINE
8
BLACK
6
CONTINUOUS
10
33.9742
20
-146.324
11
34.031
21
-146.66
0
LINE
8
BLACK
6
CONTINUOUS
10
34.031
20
-146.66
11
34.05
21
-147
0
LINE
8
BLACK
6
CONTINUOUS
10
34.05
20
-147
11
34.0488
21
-147.085
0
LINE
8
BLACK
6
CONTINUOUS
10
34.0488
20
-147.085
11
34.0203
21
-147.424
0
LINE
8
BLACK
6
CONTINUOUS
10
34.0203
20
-147.424
11
33.9542
21
-147.759
0
LINE
8
BLACK
6
CONTINUOUS
10
33.9542
20
-147.759
11
33.8512
21
-148.083
0
LINE
8
BLACK
6
CONTINUOUS
10
33.8512
20
-148.083
11
33.7127
21
-148.394
0
LINE
8
BLACK
6
CONTINUOUS
10
33.7127
20
-148.394
11
33.5404
21
-148.688
0
LINE
8
BLACK
6
CONTINUOUS
10
33.5404
20
-148.688
11
33.3364
21
-148.961
0
LINE
8
BLACK
6
CONTINUOUS
10
33.3364
20
-148.961
11
33.1033
21
-149.209
0
LINE
8
BLACK
6
CONTINUOUS
10
33.1033
20
-149.209
11
32.844
21
-149.429
0
LINE
8
BLACK
6
CONTINUOUS
10
32.844
20
-149.429
11
32.5617
21
-149.62
0
LINE
8
BLACK
6
CONTINUOUS
10
32.5617
20
-149.62
11
32.26
21
-149.778
0
LINE
8
BLACK
6
CONTINUOUS
10
32.26
20
-149.778
11
31.9425
21
-149.901
0
LINE
8
BLACK
6
CONTINUOUS
10
31.9425
20
-149.901
11
31.6133
21
-149.988
0
LINE
8
BLACK
6
CONTINUOUS
10
31.6133
20
-149.988
11
31.2764
21
-150.037
0
LINE
8
BLACK
6
CONTINUOUS
10
31.2764
20
-150.037
11
30.9361
21
-150.049
0
LINE
8
BLACK
6
CONTINUOUS
10
30.9361
20
-150.049
11
30.5966
21
-150.023
0
LINE
8
BLACK
6
CONTINUOUS
10
30.5966
20
-150.023
11
30.2621
21
-149.959
0
LINE
8
BLACK
6
CONTINUOUS
10
30.2621
20
-149.959
11
29.9369
21
-149.859
0
LINE
8
BLACK
6
CONTINUOUS
10
29.9369
20
-149.859
11
29.6248
21
-149.722
0
LINE
8
BLACK
6
CONTINUOUS
10
29.6248
20
-149.722
11
29.3299
21
-149.552
0
LINE
8
BLACK
6
CONTINUOUS
10
29.3299
20
-149.552
11
29.0559
21
-149.35
0
LINE
8
BLACK
6
CONTINUOUS
10
29.0559
20
-149.35
11
28.806
21
-149.119
0
LINE
8
BLACK
6
CONTINUOUS
10
28.806
20
-149.119
11
28.5835
21
-148.861
0
LINE
8
BLACK
6
CONTINUOUS
10
28.5835
20
-148.861
11
28.3911
21
-148.58
0
LINE
8
BLACK
6
CONTINUOUS
10
28.3911
20
-148.58
11
28.2313
21
-148.279
0
LINE
8
BLACK
6
CONTINUOUS
10
28.2313
20
-148.279
11
28.1059
21
-147.963
0
LINE
8
BLACK
6
CONTINUOUS
10
28.1059
20
-147.963
11
28.0166
21
-147.634
0
LINE
8
BLACK
6
CONTINUOUS
10
28.0166
20
-147.634
11
27.9646
21
-147.298
0
LINE
8
BLACK
6
CONTINUOUS
10
27.9646
20
-147.298
11
27.9503
21
-146.957
0
LINE
8
BLACK
6
CONTINUOUS
10
27.9503
20
-146.957
11
27.9538
21
-146.907
0
LINE
8
BLACK
6
CONTINUOUS
10
27.9538
20
-146.907
11
27.974
21
-146.618
0
LINE
8
BLACK
6
CONTINUOUS
10
27.974
20
-146.618
11
28.0355
21
-146.283
0
LINE
8
BLACK
6
CONTINUOUS
10
28.1033
20
-147.584
11
28.1896
21
-147.913
0
LINE
8
BLACK
6
CONTINUOUS
10
28.1896
20
-147.913
11
28.3132
21
-148.23
0
LINE
8
BLACK
6
CONTINUOUS
10
28.3132
20
-148.23
11
28.4724
21
-148.531
0
LINE
8
BLACK
6
CONTINUOUS
10
28.4724
20
-148.531
11
28.6651
21
-148.811
0
LINE
8
BLACK
6
CONTINUOUS
10
28.6651
20
-148.811
11
28.8887
21
-149.068
0
LINE
8
BLACK
6
CONTINUOUS
10
28.8887
20
-149.068
11
29.1404
21
-149.296
0
LINE
8
BLACK
6
CONTINUOUS
10
29.1404
20
-149.296
11
29.4166
21
-149.495
0
LINE
8
BLACK
6
CONTINUOUS
10
29.4166
20
-149.495
11
29.7139
21
-149.66
0
LINE
8
BLACK
6
CONTINUOUS
10
29.7139
20
-149.66
11
30.0282
21
-149.791
0
LINE
8
BLACK
6
CONTINUOUS
10
30.0282
20
-149.791
11
30.3554
21
-149.884
0
LINE
8
BLACK
6
CONTINUOUS
10
30.3554
20
-149.884
11
30.6911
21
-149.939
0
LINE
8
BLACK
6
CONTINUOUS
10
30.6911
20
-149.939
11
31.0309
21
-149.955
0
LINE
8
BLACK
6
CONTINUOUS
10
31.0309
20
-149.955
11
31.3704
21
-149.932
0
LINE
8
BLACK
6
CONTINUOUS
10
31.3704
20
-149.932
11
31.7049
21
-149.87
0
LINE
8
BLACK
6
CONTINUOUS
10
31.7049
20
-149.87
11
32.03
21
-149.77
0
LINE
8
BLACK
6
CONTINUOUS
10
32.03
20
-149.77
11
32.3415
21
-149.633
0
LINE
8
BLACK
6
CONTINUOUS
10
32.3415
20
-149.633
11
32.6353
21
-149.461
0
LINE
8
BLACK
6
CONTINUOUS
10
32.6353
20
-149.461
11
32.9073
21
-149.257
0
LINE
8
BLACK
6
CONTINUOUS
10
32.9073
20
-149.257
11
33.1541
21
-149.023
0
LINE
8
BLACK
6
CONTINUOUS
10
33.1541
20
-149.023
11
33.3723
21
-148.762
0
LINE
8
BLACK
6
CONTINUOUS
10
33.3723
20
-148.762
11
33.5591
21
-148.477
0
LINE
8
BLACK
6
CONTINUOUS
10
33.5591
20
-148.477
11
33.712
21
-148.174
0
LINE
8
BLACK
6
CONTINUOUS
10
33.712
20
-148.174
11
33.8289
21
-147.854
0
LINE
8
BLACK
6
CONTINUOUS
10
33.8289
20
-147.854
11
33.9083
21
-147.523
0
LINE
8
BLACK
6
CONTINUOUS
10
33.9083
20
-147.523
11
33.9492
21
-147.186
0
LINE
8
BLACK
6
CONTINUOUS
10
33.9492
20
-147.186
11
33.955
21
-147
0
LINE
8
BLACK
6
CONTINUOUS
10
33.955
20
-147
11
33.9354
21
-146.66
0
LINE
8
BLACK
6
CONTINUOUS
10
33.9354
20
-146.66
11
33.8769
21
-146.325
0
LINE
8
BLACK
6
CONTINUOUS
10
33.8769
20
-146.325
11
33.7803
21
-145.999
0
LINE
8
BLACK
6
CONTINUOUS
10
33.7803
20
-145.999
11
33.6468
21
-145.686
0
LINE
8
BLACK
6
CONTINUOUS
10
33.6468
20
-145.686
11
33.4783
21
-145.391
0
LINE
8
BLACK
6
CONTINUOUS
10
33.4783
20
-145.391
11
33.2769
21
-145.116
0
LINE
8
BLACK
6
CONTINUOUS
10
33.2769
20
-145.116
11
33.0453
21
-144.867
0
LINE
8
BLACK
6
CONTINUOUS
10
33.0453
20
-144.867
11
32.7866
21
-144.646
0
LINE
8
BLACK
6
CONTINUOUS
10
32.7866
20
-144.646
11
32.5042
21
-144.457
0
LINE
8
BLACK
6
CONTINUOUS
10
32.5042
20
-144.457
11
32.2019
21
-144.3
0
LINE
8
BLACK
6
CONTINUOUS
10
32.2019
20
-144.3
11
31.8837
21
-144.18
0
LINE
8
BLACK
6
CONTINUOUS
10
31.8837
20
-144.18
11
31.5537
21
-144.097
0
LINE
8
BLACK
6
CONTINUOUS
10
31.5537
20
-144.097
11
31.2164
21
-144.053
0
LINE
8
BLACK
6
CONTINUOUS
10
31.2164
20
-144.053
11
30.8763
21
-144.048
0
LINE
8
BLACK
6
CONTINUOUS
10
30.8763
20
-144.048
11
30.5377
21
-144.081
0
LINE
8
BLACK
6
CONTINUOUS
10
30.5377
20
-144.081
11
30.2053
21
-144.154
0
LINE
8
BLACK
6
CONTINUOUS
10
30.2053
20
-144.154
11
29.8835
21
-144.264
0
LINE
8
BLACK
6
CONTINUOUS
10
29.8835
20
-144.264
11
29.5764
21
-144.411
0
LINE
8
BLACK
6
CONTINUOUS
10
29.5764
20
-144.411
11
29.2882
21
-144.591
0
LINE
8
BLACK
6
CONTINUOUS
10
29.2882
20
-144.591
11
29.0227
21
-144.804
0
LINE
8
BLACK
6
CONTINUOUS
10
29.0227
20
-144.804
11
28.7834
21
-145.046
0
LINE
8
BLACK
6
CONTINUOUS
10
28.7834
20
-145.046
11
28.5735
21
-145.314
0
LINE
8
BLACK
6
CONTINUOUS
10
28.5735
20
-145.314
11
28.3957
21
-145.604
0
LINE
8
BLACK
6
CONTINUOUS
10
28.3957
20
-145.604
11
28.2525
21
-145.912
0
LINE
8
BLACK
6
CONTINUOUS
10
28.2525
20
-145.912
11
28.1457
21
-146.235
0
LINE
8
BLACK
6
CONTINUOUS
10
28.1457
20
-146.235
11
28.0767
21
-146.568
0
LINE
8
BLACK
6
CONTINUOUS
10
28.0767
20
-146.568
11
28.0465
21
-146.907
0
LINE
8
BLACK
6
CONTINUOUS
10
28.0465
20
-146.907
11
28.0554
21
-147.247
0
LINE
8
BLACK
6
CONTINUOUS
10
28.0554
20
-147.247
11
28.1033
21
-147.584
0
LINE
8
BLACK
6
CONTINUOUS
10
123.036
20
-146.283
11
123.134
21
-145.957
0
LINE
8
BLACK
6
CONTINUOUS
10
123.134
20
-145.957
11
123.268
21
-145.644
0
LINE
8
BLACK
6
CONTINUOUS
10
123.268
20
-145.644
11
123.436
21
-145.348
0
LINE
8
BLACK
6
CONTINUOUS
10
123.436
20
-145.348
11
123.636
21
-145.072
0
LINE
8
BLACK
6
CONTINUOUS
10
123.636
20
-145.072
11
123.866
21
-144.821
0
LINE
8
BLACK
6
CONTINUOUS
10
123.866
20
-144.821
11
124.122
21
-144.597
0
LINE
8
BLACK
6
CONTINUOUS
10
124.122
20
-144.597
11
124.402
21
-144.402
0
LINE
8
BLACK
6
CONTINUOUS
10
124.402
20
-144.402
11
124.701
21
-144.24
0
LINE
8
BLACK
6
CONTINUOUS
10
124.701
20
-144.24
11
125.017
21
-144.113
0
LINE
8
BLACK
6
CONTINUOUS
10
125.017
20
-144.113
11
125.345
21
-144.021
0
LINE
8
BLACK
6
CONTINUOUS
10
125.345
20
-144.021
11
125.681
21
-143.967
0
LINE
8
BLACK
6
CONTINUOUS
10
125.681
20
-143.967
11
126.021
21
-143.95
0
LINE
8
BLACK
6
CONTINUOUS
10
126.021
20
-143.95
11
126.361
21
-143.971
0
LINE
8
BLACK
6
CONTINUOUS
10
126.361
20
-143.971
11
126.696
21
-144.031
0
LINE
8
BLACK
6
CONTINUOUS
10
126.696
20
-144.031
11
127.023
21
-144.127
0
LINE
8
BLACK
6
CONTINUOUS
10
127.023
20
-144.127
11
127.337
21
-144.259
0
LINE
8
BLACK
6
CONTINUOUS
10
127.337
20
-144.259
11
127.634
21
-144.425
0
LINE
8
BLACK
6
CONTINUOUS
10
127.634
20
-144.425
11
127.911
21
-144.623
0
LINE
8
BLACK
6
CONTINUOUS
10
127.911
20
-144.623
11
128.164
21
-144.851
0
LINE
8
BLACK
6
CONTINUOUS
10
128.164
20
-144.851
11
128.39
21
-145.105
0
LINE
8
BLACK
6
CONTINUOUS
10
128.39
20
-145.105
11
128.587
21
-145.384
0
LINE
8
BLACK
6
CONTINUOUS
10
128.587
20
-145.384
11
128.751
21
-145.682
0
LINE
8
BLACK
6
CONTINUOUS
10
128.751
20
-145.682
11
128.88
21
-145.997
0
LINE
8
BLACK
6
CONTINUOUS
10
128.88
20
-145.997
11
128.974
21
-146.324
0
LINE
8
BLACK
6
CONTINUOUS
10
128.974
20
-146.324
11
129.031
21
-146.66
0
LINE
8
BLACK
6
CONTINUOUS
10
129.031
20
-146.66
11
129.05
21
-147
0
LINE
8
BLACK
6
CONTINUOUS
10
129.05
20
-147
11
129.049
21
-147.085
0
LINE
8
BLACK
6
CONTINUOUS
10
129.049
20
-147.085
11
129.02
21
-147.424
0
LINE
8
BLACK
6
CONTINUOUS
10
129.02
20
-147.424
11
128.954
21
-147.759
0
LINE
8
BLACK
6
CONTINUOUS
10
128.954
20
-147.759
11
128.851
21
-148.083
0
LINE
8
BLACK
6
CONTINUOUS
10
128.851
20
-148.083
11
128.713
21
-148.394
0
LINE
8
BLACK
6
CONTINUOUS
10
128.713
20
-148.394
11
128.54
21
-148.688
0
LINE
8
BLACK
6
CONTINUOUS
10
128.54
20
-148.688
11
128.336
21
-148.961
0
LINE
8
BLACK
6
CONTINUOUS
10
128.336
20
-148.961
11
128.103
21
-149.209
0
LINE
8
BLACK
6
CONTINUOUS
10
128.103
20
-149.209
11
127.844
21
-149.429
0
LINE
8
BLACK
6
CONTINUOUS
10
127.844
20
-149.429
11
127.562
21
-149.62
0
LINE
8
BLACK
6
CONTINUOUS
10
127.562
20
-149.62
11
127.26
21
-149.778
0
LINE
8
BLACK
6
CONTINUOUS
10
127.26
20
-149.778
11
126.943
21
-149.901
0
LINE
8
BLACK
6
CONTINUOUS
10
126.943
20
-149.901
11
126.613
21
-149.988
0
LINE
8
BLACK
6
CONTINUOUS
10
126.613
20
-149.988
11
126.276
21
-150.037
0
LINE
8
BLACK
6
CONTINUOUS
10
126.276
20
-150.037
11
125.936
21
-150.049
0
LINE
8
BLACK
6
CONTINUOUS
10
125.936
20
-150.049
11
125.597
21
-150.023
0
LINE
8
BLACK
6
CONTINUOUS
10
125.597
20
-150.023
11
125.262
21
-149.959
0
LINE
8
BLACK
6
CONTINUOUS
10
125.262
20
-149.959
11
124.937
21
-149.859
0
LINE
8
BLACK
6
CONTINUOUS
10
124.937
20
-149.859
11
124.625
21
-149.722
0
LINE
8
BLACK
6
CONTINUOUS
10
124.625
20
-149.722
11
124.33
21
-149.552
0
LINE
8
BLACK
6
CONTINUOUS
10
124.33
20
-149.552
11
124.056
21
-149.35
0
LINE
8
BLACK
6
CONTINUOUS
10
124.056
20
-149.35
11
123.806
21
-149.119
0
LINE
8
BLACK
6
CONTINUOUS
10
123.806
20
-149.119
11
123.584
21
-148.861
0
LINE
8
BLACK
6
CONTINUOUS
10
123.584
20
-148.861
11
123.391
21
-148.58
0
LINE
8
BLACK
6
CONTINUOUS
10
123.391
20
-148.58
11
123.231
21
-148.279
0
LINE
8
BLACK
6
CONTINUOUS
10
123.231
20
-148.279
11
123.106
21
-147.963
0
LINE
8
BLACK
6
CONTINUOUS
10
123.106
20
-147.963
11
123.017
21
-147.634
0
LINE
8
BLACK
6
CONTINUOUS
10
123.017
20
-147.634
11
122.965
21
-147.298
0
LINE
8
BLACK
6
CONTINUOUS
10
122.965
20
-147.298
11
122.95
21
-146.957
0
LINE
8
BLACK
6
CONTINUOUS
10
122.95
20
-146.957
11
122.954
21
-146.907
0
LINE
8
BLACK
6
CONTINUOUS
10
122.954
20
-146.907
11
122.974
21
-146.618
0
LINE
8
BLACK
6
CONTINUOUS
10
122.974
20
-146.618
11
123.036
21
-146.283
0
LINE
8
BLACK
6
CONTINUOUS
10
123.103
20
-147.584
11
123.19
21
-147.913
0
LINE
8
BLACK
6
CONTINUOUS
10
123.19
20
-147.913
11
123.313
21
-148.23
0
LINE
8
BLACK
6
CONTINUOUS
10
123.313
20
-148.23
11
123.472
21
-148.531
0
LINE
8
BLACK
6
CONTINUOUS
10
123.472
20
-148.531
11
123.665
21
-148.811
0
LINE
8
BLACK
6
CONTINUOUS
10
123.665
20
-148.811
11
123.889
21
-149.068
0
LINE
8
BLACK
6
CONTINUOUS
10
123.889
20
-149.068
11
124.14
21
-149.296
0
LINE
8
BLACK
6
CONTINUOUS
10
124.14
20
-149.296
11
124.417
21
-149.495
0
LINE
8
BLACK
6
CONTINUOUS
10
124.417
20
-149.495
11
124.714
21
-149.66
0
LINE
8
BLACK
6
CONTINUOUS
10
124.714
20
-149.66
11
125.028
21
-149.791
0
LINE
8
BLACK
6
CONTINUOUS
10
125.028
20
-149.791
11
125.355
21
-149.884
0
LINE
8
BLACK
6
CONTINUOUS
10
125.355
20
-149.884
11
125.691
21
-149.939
0
LINE
8
BLACK
6
CONTINUOUS
10
125.691
20
-149.939
11
126.031
21
-149.955
0
LINE
8
BLACK
6
CONTINUOUS
10
126.031
20
-149.955
11
126.37
21
-149.932
0
LINE
8
BLACK
6
CONTINUOUS
10
126.37
20
-149.932
11
126.705
21
-149.87
0
LINE
8
BLACK
6
CONTINUOUS
10
126.705
20
-149.87
11
127.03
21
-149.77
0
LINE
8
BLACK
6
CONTINUOUS
10
127.03
20
-149.77
11
127.342
21
-149.633
0
LINE
8
BLACK
6
CONTINUOUS
10
127.342
20
-149.633
11
127.635
21
-149.461
0
LINE
8
BLACK
6
CONTINUOUS
10
127.635
20
-149.461
11
127.907
21
-149.257
0
LINE
8
BLACK
6
CONTINUOUS
10
127.907
20
-149.257
11
128.154
21
-149.023
0
LINE
8
BLACK
6
CONTINUOUS
10
128.154
20
-149.023
11
128.372
21
-148.762
0
LINE
8
BLACK
6
CONTINUOUS
10
128.372
20
-148.762
11
128.559
21
-148.477
0
LINE
8
BLACK
6
CONTINUOUS
10
128.559
20
-148.477
11
128.712
21
-148.174
0
LINE
8
BLACK
6
CONTINUOUS
10
128.712
20
-148.174
11
128.829
21
-147.854
0
LINE
8
BLACK
6
CONTINUOUS
10
128.829
20
-147.854
11
128.908
21
-147.523
0
LINE
8
BLACK
6
CONTINUOUS
10
128.908
20
-147.523
11
128.949
21
-147.186
0
LINE
8
BLACK
6
CONTINUOUS
10
128.949
20
-147.186
11
128.955
21
-147
0
LINE
8
BLACK
6
CONTINUOUS
10
128.955
20
-147
11
128.935
21
-146.66
0
LINE
8
BLACK
6
CONTINUOUS
10
128.935
20
-146.66
11
128.877
21
-146.325
0
LINE
8
BLACK
6
CONTINUOUS
10
128.877
20
-146.325
11
128.78
21
-145.999
0
LINE
8
BLACK
6
CONTINUOUS
10
128.78
20
-145.999
11
128.647
21
-145.686
0
LINE
8
BLACK
6
CONTINUOUS
10
128.647
20
-145.686
11
128.478
21
-145.391
0
LINE
8
BLACK
6
CONTINUOUS
10
128.478
20
-145.391
11
128.277
21
-145.116
0
LINE
8
BLACK
6
CONTINUOUS
10
128.277
20
-145.116
11
128.045
21
-144.867
0
LINE
8
BLACK
6
CONTINUOUS
10
128.045
20
-144.867
11
127.787
21
-144.646
0
LINE
8
BLACK
6
CONTINUOUS
10
127.787
20
-144.646
11
127.504
21
-144.457
0
LINE
8
BLACK
6
CONTINUOUS
10
127.504
20
-144.457
11
127.202
21
-144.3
0
LINE
8
BLACK
6
CONTINUOUS
10
127.202
20
-144.3
11
126.884
21
-144.18
0
LINE
8
BLACK
6
CONTINUOUS
10
126.884
20
-144.18
11
126.554
21
-144.097
0
LINE
8
BLACK
6
CONTINUOUS
10
126.554
20
-144.097
11
126.216
21
-144.053
0
LINE
8
BLACK
6
CONTINUOUS
10
126.216
20
-144.053
11
125.876
21
-144.048
0
LINE
8
BLACK
6
CONTINUOUS
10
125.876
20
-144.048
11
125.538
21
-144.081
0
LINE
8
BLACK
6
CONTINUOUS
10
125.538
20
-144.081
11
125.205
21
-144.154
0
LINE
8
BLACK
6
CONTINUOUS
10
125.205
20
-144.154
11
124.883
21
-144.264
0
LINE
8
BLACK
6
CONTINUOUS
10
124.883
20
-144.264
11
124.576
21
-144.411
0
LINE
8
BLACK
6
CONTINUOUS
10
124.576
20
-144.411
11
124.288
21
-144.591
0
LINE
8
BLACK
6
CONTINUOUS
10
124.288
20
-144.591
11
124.023
21
-144.804
0
LINE
8
BLACK
6
CONTINUOUS
10
124.023
20
-144.804
11
123.783
21
-145.046
0
LINE
8
BLACK
6
CONTINUOUS
10
123.783
20
-145.046
11
123.574
21
-145.314
0
LINE
8
BLACK
6
CONTINUOUS
10
123.574
20
-145.314
11
123.396
21
-145.604
0
LINE
8
BLACK
6
CONTINUOUS
10
123.396
20
-145.604
11
123.253
21
-145.912
0
LINE
8
BLACK
6
CONTINUOUS
10
123.253
20
-145.912
11
123.146
21
-146.235
0
LINE
8
BLACK
6
CONTINUOUS
10
123.146
20
-146.235
11
123.077
21
-146.568
0
LINE
8
BLACK
6
CONTINUOUS
10
123.077
20
-146.568
11
123.046
21
-146.907
0
LINE
8
BLACK
6
CONTINUOUS
10
123.046
20
-146.907
11
123.055
21
-147.247
0
LINE
8
BLACK
6
CONTINUOUS
10
123.055
20
-147.247
11
123.103
21
-147.584
0
LINE
8
BLACK
6
CONTINUOUS
10
381.036
20
-127.283
11
381.134
21
-126.957
0
LINE
8
BLACK
6
CONTINUOUS
10
381.134
20
-126.957
11
381.268
21
-126.644
0
LINE
8
BLACK
6
CONTINUOUS
10
381.268
20
-126.644
11
381.436
21
-126.348
0
LINE
8
BLACK
6
CONTINUOUS
10
381.436
20
-126.348
11
381.636
21
-126.072
0
LINE
8
BLACK
6
CONTINUOUS
10
381.636
20
-126.072
11
381.866
21
-125.821
0
LINE
8
BLACK
6
CONTINUOUS
10
381.866
20
-125.821
11
382.122
21
-125.597
0
LINE
8
BLACK
6
CONTINUOUS
10
382.122
20
-125.597
11
382.402
21
-125.402
0
LINE
8
BLACK
6
CONTINUOUS
10
382.402
20
-125.402
11
382.701
21
-125.24
0
LINE
8
BLACK
6
CONTINUOUS
10
382.701
20
-125.24
11
383.017
21
-125.113
0
LINE
8
BLACK
6
CONTINUOUS
10
383.017
20
-125.113
11
383.345
21
-125.021
0
LINE
8
BLACK
6
CONTINUOUS
10
383.345
20
-125.021
11
383.681
21
-124.967
0
LINE
8
BLACK
6
CONTINUOUS
10
383.681
20
-124.967
11
384.021
21
-124.95
0
LINE
8
BLACK
6
CONTINUOUS
10
384.021
20
-124.95
11
384.361
21
-124.971
0
LINE
8
BLACK
6
CONTINUOUS
10
384.361
20
-124.971
11
384.696
21
-125.031
0
LINE
8
BLACK
6
CONTINUOUS
10
384.696
20
-125.031
11
385.023
21
-125.127
0
LINE
8
BLACK
6
CONTINUOUS
10
385.023
20
-125.127
11
385.337
21
-125.259
0
LINE
8
BLACK
6
CONTINUOUS
10
385.337
20
-125.259
11
385.634
21
-125.425
0
LINE
8
BLACK
6
CONTINUOUS
10
385.634
20
-125.425
11
385.911
21
-125.623
0
LINE
8
BLACK
6
CONTINUOUS
10
385.911
20
-125.623
11
386.164
21
-125.851
0
LINE
8
BLACK
6
CONTINUOUS
10
386.164
20
-125.851
11
386.39
21
-126.105
0
LINE
8
BLACK
6
CONTINUOUS
10
386.39
20
-126.105
11
386.587
21
-126.384
0
LINE
8
BLACK
6
CONTINUOUS
10
386.587
20
-126.384
11
386.751
21
-126.682
0
LINE
8
BLACK
6
CONTINUOUS
10
386.751
20
-126.682
11
386.88
21
-126.997
0
LINE
8
BLACK
6
CONTINUOUS
10
386.88
20
-126.997
11
386.974
21
-127.324
0
LINE
8
BLACK
6
CONTINUOUS
10
386.974
20
-127.324
11
387.031
21
-127.66
0
LINE
8
BLACK
6
CONTINUOUS
10
387.031
20
-127.66
11
387.05
21
-128
0
LINE
8
BLACK
6
CONTINUOUS
10
387.05
20
-128
11
387.049
21
-128.085
0
LINE
8
BLACK
6
CONTINUOUS
10
387.049
20
-128.085
11
387.02
21
-128.424
0
LINE
8
BLACK
6
CONTINUOUS
10
387.02
20
-128.424
11
386.954
21
-128.759
0
LINE
8
BLACK
6
CONTINUOUS
10
386.954
20
-128.759
11
386.851
21
-129.083
0
LINE
8
BLACK
6
CONTINUOUS
10
386.851
20
-129.083
11
386.713
21
-129.394
0
LINE
8
BLACK
6
CONTINUOUS
10
386.713
20
-129.394
11
386.54
21
-129.688
0
LINE
8
BLACK
6
CONTINUOUS
10
386.54
20
-129.688
11
386.336
21
-129.961
0
LINE
8
BLACK
6
CONTINUOUS
10
386.336
20
-129.961
11
386.103
21
-130.209
0
LINE
8
BLACK
6
CONTINUOUS
10
386.103
20
-130.209
11
385.844
21
-130.429
0
LINE
8
BLACK
6
CONTINUOUS
10
385.844
20
-130.429
11
385.562
21
-130.62
0
LINE
8
BLACK
6
CONTINUOUS
10
385.562
20
-130.62
11
385.26
21
-130.778
0
LINE
8
BLACK
6
CONTINUOUS
10
385.26
20
-130.778
11
384.943
21
-130.901
0
LINE
8
BLACK
6
CONTINUOUS
10
384.943
20
-130.901
11
384.613
21
-130.988
0
LINE
8
BLACK
6
CONTINUOUS
10
384.613
20
-130.988
11
384.276
21
-131.037
0
LINE
8
BLACK
6
CONTINUOUS
10
384.276
20
-131.037
11
383.936
21
-131.049
0
LINE
8
BLACK
6
CONTINUOUS
10
383.936
20
-131.049
11
383.597
21
-131.023
0
LINE
8
BLACK
6
CONTINUOUS
10
383.597
20
-131.023
11
383.262
21
-130.959
0
LINE
8
BLACK
6
CONTINUOUS
10
383.262
20
-130.959
11
382.937
21
-130.859
0
LINE
8
BLACK
6
CONTINUOUS
10
382.937
20
-130.859
11
382.625
21
-130.722
0
LINE
8
BLACK
6
CONTINUOUS
10
382.625
20
-130.722
11
382.33
21
-130.552
0
LINE
8
BLACK
6
CONTINUOUS
10
382.33
20
-130.552
11
382.056
21
-130.35
0
LINE
8
BLACK
6
CONTINUOUS
10
382.056
20
-130.35
11
381.806
21
-130.119
0
LINE
8
BLACK
6
CONTINUOUS
10
381.806
20
-130.119
11
381.584
21
-129.861
0
LINE
8
BLACK
6
CONTINUOUS
10
381.584
20
-129.861
11
381.391
21
-129.58
0
LINE
8
BLACK
6
CONTINUOUS
10
381.391
20
-129.58
11
381.231
21
-129.279
0
LINE
8
BLACK
6
CONTINUOUS
10
381.231
20
-129.279
11
381.106
21
-128.963
0
LINE
8
BLACK
6
CONTINUOUS
10
381.106
20
-128.963
11
381.017
21
-128.634
0
LINE
8
BLACK
6
CONTINUOUS
10
381.017
20
-128.634
11
380.965
21
-128.298
0
LINE
8
BLACK
6
CONTINUOUS
10
380.965
20
-128.298
11
380.95
21
-127.957
0
LINE
8
BLACK
6
CONTINUOUS
10
380.95
20
-127.957
11
380.954
21
-127.907
0
LINE
8
BLACK
6
CONTINUOUS
10
380.954
20
-127.907
11
380.974
21
-127.618
0
LINE
8
BLACK
6
CONTINUOUS
10
380.974
20
-127.618
11
381.036
21
-127.283
0
LINE
8
BLACK
6
CONTINUOUS
10
381.103
20
-128.584
11
381.19
21
-128.913
0
LINE
8
BLACK
6
CONTINUOUS
10
381.19
20
-128.913
11
381.313
21
-129.23
0
LINE
8
BLACK
6
CONTINUOUS
10
381.313
20
-129.23
11
381.472
21
-129.531
0
LINE
8
BLACK
6
CONTINUOUS
10
381.472
20
-129.531
11
381.665
21
-129.811
0
LINE
8
BLACK
6
CONTINUOUS
10
381.665
20
-129.811
11
381.889
21
-130.068
0
LINE
8
BLACK
6
CONTINUOUS
10
381.889
20
-130.068
11
382.14
21
-130.296
0
LINE
8
BLACK
6
CONTINUOUS
10
382.14
20
-130.296
11
382.417
21
-130.495
0
LINE
8
BLACK
6
CONTINUOUS
10
382.417
20
-130.495
11
382.714
21
-130.66
0
LINE
8
BLACK
6
CONTINUOUS
10
382.714
20
-130.66
11
383.028
21
-130.791
0
LINE
8
BLACK
6
CONTINUOUS
10
383.028
20
-130.791
11
383.355
21
-130.884
0
LINE
8
BLACK
6
CONTINUOUS
10
383.355
20
-130.884
11
383.691
21
-130.939
0
LINE
8
BLACK
6
CONTINUOUS
10
383.691
20
-130.939
11
384.031
21
-130.955
0
LINE
8
BLACK
6
CONTINUOUS
10
384.031
20
-130.955
11
384.37
21
-130.932
0
LINE
8
BLACK
6
CONTINUOUS
10
384.37
20
-130.932
11
384.705
21
-130.87
0
LINE
8
BLACK
6
CONTINUOUS
10
384.705
20
-130.87
11
385.03
21
-130.77
0
LINE
8
BLACK
6
CONTINUOUS
10
385.03
20
-130.77
11
385.342
21
-130.633
0
LINE
8
BLACK
6
CONTINUOUS
10
385.342
20
-130.633
11
385.635
21
-130.461
0
LINE
8
BLACK
6
CONTINUOUS
10
385.635
20
-130.461
11
385.907
21
-130.257
0
LINE
8
BLACK
6
CONTINUOUS
10
385.907
20
-130.257
11
386.154
21
-130.023
0
LINE
8
BLACK
6
CONTINUOUS
10
386.154
20
-130.023
11
386.372
21
-129.762
0
LINE
8
BLACK
6
CONTINUOUS
10
386.372
20
-129.762
11
386.559
21
-129.477
0
LINE
8
BLACK
6
CONTINUOUS
10
386.559
20
-129.477
11
386.712
21
-129.174
0
LINE
8
BLACK
6
CONTINUOUS
10
386.712
20
-129.174
11
386.829
21
-128.854
0
LINE
8
BLACK
6
CONTINUOUS
10
386.829
20
-128.854
11
386.908
21
-128.523
0
LINE
8
BLACK
6
CONTINUOUS
10
386.908
20
-128.523
11
386.949
21
-128.186
0
LINE
8
BLACK
6
CONTINUOUS
10
386.949
20
-128.186
11
386.955
21
-128
0
LINE
8
BLACK
6
CONTINUOUS
10
386.955
20
-128
11
386.935
21
-127.66
0
LINE
8
BLACK
6
CONTINUOUS
10
386.935
20
-127.66
11
386.877
21
-127.325
0
LINE
8
BLACK
6
CONTINUOUS
10
386.877
20
-127.325
11
386.78
21
-126.999
0
LINE
8
BLACK
6
CONTINUOUS
10
386.78
20
-126.999
11
386.647
21
-126.686
0
LINE
8
BLACK
6
CONTINUOUS
10
386.647
20
-126.686
11
386.478
21
-126.391
0
LINE
8
BLACK
6
CONTINUOUS
10
386.478
20
-126.391
11
386.277
21
-126.116
0
LINE
8
BLACK
6
CONTINUOUS
10
386.277
20
-126.116
11
386.045
21
-125.867
0
LINE
8
BLACK
6
CONTINUOUS
10
386.045
20
-125.867
11
385.787
21
-125.646
0
LINE
8
BLACK
6
CONTINUOUS
10
385.787
20
-125.646
11
385.504
21
-125.457
0
LINE
8
BLACK
6
CONTINUOUS
10
385.504
20
-125.457
11
385.202
21
-125.3
0
LINE
8
BLACK
6
CONTINUOUS
10
385.202
20
-125.3
11
384.884
21
-125.18
0
LINE
8
BLACK
6
CONTINUOUS
10
384.884
20
-125.18
11
384.554
21
-125.097
0
LINE
8
BLACK
6
CONTINUOUS
10
384.554
20
-125.097
11
384.216
21
-125.053
0
LINE
8
BLACK
6
CONTINUOUS
10
384.216
20
-125.053
11
383.876
21
-125.048
0
LINE
8
BLACK
6
CONTINUOUS
10
383.876
20
-125.048
11
383.538
21
-125.081
0
LINE
8
BLACK
6
CONTINUOUS
10
383.538
20
-125.081
11
383.205
21
-125.154
0
LINE
8
BLACK
6
CONTINUOUS
10
383.205
20
-125.154
11
382.883
21
-125.264
0
LINE
8
BLACK
6
CONTINUOUS
10
382.883
20
-125.264
11
382.576
21
-125.411
0
LINE
8
BLACK
6
CONTINUOUS
10
382.576
20
-125.411
11
382.288
21
-125.591
0
LINE
8
BLACK
6
CONTINUOUS
10
382.288
20
-125.591
11
382.023
21
-125.804
0
LINE
8
BLACK
6
CONTINUOUS
10
382.023
20
-125.804
11
381.783
21
-126.046
0
LINE
8
BLACK
6
CONTINUOUS
10
381.783
20
-126.046
11
381.574
21
-126.314
0
LINE
8
BLACK
6
CONTINUOUS
10
381.574
20
-126.314
11
381.396
21
-126.604
0
LINE
8
BLACK
6
CONTINUOUS
10
381.396
20
-126.604
11
381.253
21
-126.912
0
LINE
8
BLACK
6
CONTINUOUS
10
381.253
20
-126.912
11
381.146
21
-127.235
0
LINE
8
BLACK
6
CONTINUOUS
10
381.146
20
-127.235
11
381.077
21
-127.568
0
LINE
8
BLACK
6
CONTINUOUS
10
381.077
20
-127.568
11
381.046
21
-127.907
0
LINE
8
BLACK
6
CONTINUOUS
10
381.046
20
-127.907
11
381.055
21
-128.247
0
LINE
8
BLACK
6
CONTINUOUS
10
381.055
20
-128.247
11
381.103
21
-128.584
0
LINE
8
BLACK
6
CONTINUOUS
10
177.536
20
-61.2828
11
177.634
21
-60.9568
0
LINE
8
BLACK
6
CONTINUOUS
10
177.634
20
-60.9568
11
177.768
21
-60.6439
0
LINE
8
BLACK
6
CONTINUOUS
10
177.768
20
-60.6439
11
177.936
21
-60.3478
0
LINE
8
BLACK
6
CONTINUOUS
10
177.936
20
-60.3478
11
178.136
21
-60.0723
0
LINE
8
BLACK
6
CONTINUOUS
10
178.136
20
-60.0723
11
178.366
21
-59.8209
0
LINE
8
BLACK
6
CONTINUOUS
10
178.366
20
-59.8209
11
178.622
21
-59.5966
0
LINE
8
BLACK
6
CONTINUOUS
10
178.622
20
-59.5966
11
178.902
21
-59.4022
0
LINE
8
BLACK
6
CONTINUOUS
10
178.902
20
-59.4022
11
179.201
21
-59.2403
0
LINE
8
BLACK
6
CONTINUOUS
10
179.201
20
-59.2403
11
179.517
21
-59.1127
0
LINE
8
BLACK
6
CONTINUOUS
10
179.517
20
-59.1127
11
179.845
21
-59.0211
0
LINE
8
BLACK
6
CONTINUOUS
10
179.845
20
-59.0211
11
180.181
21
-58.9667
0
LINE
8
BLACK
6
CONTINUOUS
10
180.181
20
-58.9667
11
180.521
21
-58.9501
0
LINE
8
BLACK
6
CONTINUOUS
10
180.521
20
-58.9501
11
180.861
21
-58.9715
0
LINE
8
BLACK
6
CONTINUOUS
10
180.861
20
-58.9715
11
181.196
21
-59.0306
0
LINE
8
BLACK
6
CONTINUOUS
10
181.196
20
-59.0306
11
181.523
21
-59.1267
0
LINE
8
BLACK
6
CONTINUOUS
10
181.523
20
-59.1267
11
181.837
21
-59.2587
0
LINE
8
BLACK
6
CONTINUOUS
10
181.837
20
-59.2587
11
182.134
21
-59.4248
0
LINE
8
BLACK
6
CONTINUOUS
10
182.134
20
-59.4248
11
182.411
21
-59.623
0
LINE
8
BLACK
6
CONTINUOUS
10
182.411
20
-59.623
11
182.664
21
-59.8509
0
LINE
8
BLACK
6
CONTINUOUS
10
182.664
20
-59.8509
11
182.89
21
-60.1055
0
LINE
8
BLACK
6
CONTINUOUS
10
182.89
20
-60.1055
11
183.087
21
-60.3837
0
LINE
8
BLACK
6
CONTINUOUS
10
183.087
20
-60.3837
11
183.251
21
-60.6821
0
LINE
8
BLACK
6
CONTINUOUS
10
183.251
20
-60.6821
11
183.38
21
-60.997
0
LINE
8
BLACK
6
CONTINUOUS
10
183.38
20
-60.997
11
183.474
21
-61.3243
0
LINE
8
BLACK
6
CONTINUOUS
10
183.474
20
-61.3243
11
183.531
21
-61.66
0
LINE
8
BLACK
6
CONTINUOUS
10
183.531
20
-61.66
11
183.55
21
-62
0
LINE
8
BLACK
6
CONTINUOUS
10
183.55
20
-62
11
183.549
21
-62.0852
0
LINE
8
BLACK
6
CONTINUOUS
10
183.549
20
-62.0852
11
183.52
21
-62.4245
0
LINE
8
BLACK
6
CONTINUOUS
10
183.52
20
-62.4245
11
183.454
21
-62.7585
0
LINE
8
BLACK
6
CONTINUOUS
10
183.454
20
-62.7585
11
183.351
21
-63.0831
0
LINE
8
BLACK
6
CONTINUOUS
10
183.351
20
-63.0831
11
183.213
21
-63.3941
0
LINE
8
BLACK
6
CONTINUOUS
10
183.213
20
-63.3941
11
183.04
21
-63.6878
0
LINE
8
BLACK
6
CONTINUOUS
10
183.04
20
-63.6878
11
182.836
21
-63.9605
0
LINE
8
BLACK
6
CONTINUOUS
10
182.836
20
-63.9605
11
182.603
21
-64.2087
0
LINE
8
BLACK
6
CONTINUOUS
10
182.603
20
-64.2087
11
182.344
21
-64.4294
0
LINE
8
BLACK
6
CONTINUOUS
10
182.344
20
-64.4294
11
182.062
21
-64.6198
0
LINE
8
BLACK
6
CONTINUOUS
10
182.062
20
-64.6198
11
181.76
21
-64.7776
0
LINE
8
BLACK
6
CONTINUOUS
10
181.76
20
-64.7776
11
181.443
21
-64.9007
0
LINE
8
BLACK
6
CONTINUOUS
10
181.443
20
-64.9007
11
181.113
21
-64.9877
0
LINE
8
BLACK
6
CONTINUOUS
10
181.113
20
-64.9877
11
180.776
21
-65.0374
0
LINE
8
BLACK
6
CONTINUOUS
10
180.776
20
-65.0374
11
180.436
21
-65.0493
0
LINE
8
BLACK
6
CONTINUOUS
10
180.436
20
-65.0493
11
180.097
21
-65.0232
0
LINE
8
BLACK
6
CONTINUOUS
10
180.097
20
-65.0232
11
179.762
21
-64.9594
0
LINE
8
BLACK
6
CONTINUOUS
10
179.762
20
-64.9594
11
179.437
21
-64.8587
0
LINE
8
BLACK
6
CONTINUOUS
10
179.437
20
-64.8587
11
179.125
21
-64.7224
0
LINE
8
BLACK
6
CONTINUOUS
10
179.125
20
-64.7224
11
178.83
21
-64.5521
0
LINE
8
BLACK
6
CONTINUOUS
10
178.83
20
-64.5521
11
178.556
21
-64.3501
0
LINE
8
BLACK
6
CONTINUOUS
10
178.556
20
-64.3501
11
178.306
21
-64.1187
0
LINE
8
BLACK
6
CONTINUOUS
10
178.306
20
-64.1187
11
178.084
21
-63.8609
0
LINE
8
BLACK
6
CONTINUOUS
10
178.084
20
-63.8609
11
177.891
21
-63.58
0
LINE
8
BLACK
6
CONTINUOUS
10
177.891
20
-63.58
11
177.731
21
-63.2793
0
LINE
8
BLACK
6
CONTINUOUS
10
177.731
20
-63.2793
11
177.606
21
-62.9627
0
LINE
8
BLACK
6
CONTINUOUS
10
177.606
20
-62.9627
11
177.517
21
-62.6341
0
LINE
8
BLACK
6
CONTINUOUS
10
177.517
20
-62.6341
11
177.465
21
-62.2976
0
LINE
8
BLACK
6
CONTINUOUS
10
177.465
20
-62.2976
11
177.45
21
-61.9574
0
LINE
8
BLACK
6
CONTINUOUS
10
177.45
20
-61.9574
11
177.454
21
-61.9072
0
LINE
8
BLACK
6
CONTINUOUS
10
177.454
20
-61.9072
11
177.474
21
-61.6177
0
LINE
8
BLACK
6
CONTINUOUS
10
177.474
20
-61.6177
11
177.536
21
-61.2828
0
LINE
8
BLACK
6
CONTINUOUS
10
177.603
20
-62.5841
11
177.69
21
-62.9131
0
LINE
8
BLACK
6
CONTINUOUS
10
177.69
20
-62.9131
11
177.813
21
-63.2301
0
LINE
8
BLACK
6
CONTINUOUS
10
177.813
20
-63.2301
11
177.972
21
-63.5308
0
LINE
8
BLACK
6
CONTINUOUS
10
177.972
20
-63.5308
11
178.165
21
-63.8111
0
LINE
8
BLACK
6
CONTINUOUS
10
178.165
20
-63.8111
11
178.389
21
-64.0675
0
LINE
8
BLACK
6
CONTINUOUS
10
178.389
20
-64.0675
11
178.64
21
-64.2965
0
LINE
8
BLACK
6
CONTINUOUS
10
178.64
20
-64.2965
11
178.917
21
-64.495
0
LINE
8
BLACK
6
CONTINUOUS
10
178.917
20
-64.495
11
179.214
21
-64.6604
0
LINE
8
BLACK
6
CONTINUOUS
10
179.214
20
-64.6604
11
179.528
21
-64.7906
0
LINE
8
BLACK
6
CONTINUOUS
10
179.528
20
-64.7906
11
179.855
21
-64.8838
0
LINE
8
BLACK
6
CONTINUOUS
10
179.855
20
-64.8838
11
180.191
21
-64.9388
0
LINE
8
BLACK
6
CONTINUOUS
10
180.191
20
-64.9388
11
180.531
21
-64.9548
0
LINE
8
BLACK
6
CONTINUOUS
10
180.531
20
-64.9548
11
180.87
21
-64.9317
0
LINE
8
BLACK
6
CONTINUOUS
10
180.87
20
-64.9317
11
181.205
21
-64.8697
0
LINE
8
BLACK
6
CONTINUOUS
10
181.205
20
-64.8697
11
181.53
21
-64.7697
0
LINE
8
BLACK
6
CONTINUOUS
10
181.53
20
-64.7697
11
181.842
21
-64.6329
0
LINE
8
BLACK
6
CONTINUOUS
10
181.842
20
-64.6329
11
182.135
21
-64.4613
0
LINE
8
BLACK
6
CONTINUOUS
10
182.135
20
-64.4613
11
182.407
21
-64.257
0
LINE
8
BLACK
6
CONTINUOUS
10
182.407
20
-64.257
11
182.654
21
-64.0228
0
LINE
8
BLACK
6
CONTINUOUS
10
182.654
20
-64.0228
11
182.872
21
-63.7618
0
LINE
8
BLACK
6
CONTINUOUS
10
182.872
20
-63.7618
11
183.059
21
-63.4775
0
LINE
8
BLACK
6
CONTINUOUS
10
183.059
20
-63.4775
11
183.212
21
-63.1736
0
LINE
8
BLACK
6
CONTINUOUS
10
183.212
20
-63.1736
11
183.329
21
-62.8541
0
LINE
8
BLACK
6
CONTINUOUS
10
183.329
20
-62.8541
11
183.408
21
-62.5233
0
LINE
8
BLACK
6
CONTINUOUS
10
183.408
20
-62.5233
11
183.449
21
-62.1855
0
LINE
8
BLACK
6
CONTINUOUS
10
183.449
20
-62.1855
11
183.455
21
-62
0
LINE
8
BLACK
6
CONTINUOUS
10
183.455
20
-62
11
183.435
21
-61.6604
0
LINE
8
BLACK
6
CONTINUOUS
10
183.435
20
-61.6604
11
183.377
21
-61.3252
0
LINE
8
BLACK
6
CONTINUOUS
10
183.377
20
-61.3252
11
183.28
21
-60.999
0
LINE
8
BLACK
6
CONTINUOUS
10
183.28
20
-60.999
11
183.147
21
-60.6861
0
LINE
8
BLACK
6
CONTINUOUS
10
183.147
20
-60.6861
11
182.978
21
-60.3906
0
LINE
8
BLACK
6
CONTINUOUS
10
182.978
20
-60.3906
11
182.777
21
-60.1164
0
LINE
8
BLACK
6
CONTINUOUS
10
182.777
20
-60.1164
11
182.545
21
-59.8672
0
LINE
8
BLACK
6
CONTINUOUS
10
182.545
20
-59.8672
11
182.287
21
-59.6463
0
LINE
8
BLACK
6
CONTINUOUS
10
182.287
20
-59.6463
11
182.004
21
-59.4565
0
LINE
8
BLACK
6
CONTINUOUS
10
182.004
20
-59.4565
11
181.702
21
-59.3005
0
LINE
8
BLACK
6
CONTINUOUS
10
181.702
20
-59.3005
11
181.384
21
-59.1802
0
LINE
8
BLACK
6
CONTINUOUS
10
181.384
20
-59.1802
11
181.054
21
-59.0973
0
LINE
8
BLACK
6
CONTINUOUS
10
181.054
20
-59.0973
11
180.716
21
-59.0529
0
LINE
8
BLACK
6
CONTINUOUS
10
180.716
20
-59.0529
11
180.376
21
-59.0476
0
LINE
8
BLACK
6
CONTINUOUS
10
180.376
20
-59.0476
11
180.038
21
-59.0814
0
LINE
8
BLACK
6
CONTINUOUS
10
180.038
20
-59.0814
11
179.705
21
-59.1539
0
LINE
8
BLACK
6
CONTINUOUS
10
179.705
20
-59.1539
11
179.383
21
-59.2641
0
LINE
8
BLACK
6
CONTINUOUS
10
179.383
20
-59.2641
11
179.076
21
-59.4105
0
LINE
8
BLACK
6
CONTINUOUS
10
179.076
20
-59.4105
11
178.788
21
-59.5913
0
LINE
8
BLACK
6
CONTINUOUS
10
178.788
20
-59.5913
11
178.523
21
-59.804
0
LINE
8
BLACK
6
CONTINUOUS
10
178.523
20
-59.804
11
178.283
21
-60.0458
0
LINE
8
BLACK
6
CONTINUOUS
10
178.283
20
-60.0458
11
178.074
21
-60.3135
0
LINE
8
BLACK
6
CONTINUOUS
10
178.074
20
-60.3135
11
177.896
21
-60.6036
0
LINE
8
BLACK
6
CONTINUOUS
10
177.896
20
-60.6036
11
177.753
21
-60.9122
0
LINE
8
BLACK
6
CONTINUOUS
10
177.753
20
-60.9122
11
177.646
21
-61.2352
0
LINE
8
BLACK
6
CONTINUOUS
10
177.646
20
-61.2352
11
177.577
21
-61.5683
0
LINE
8
BLACK
6
CONTINUOUS
10
177.577
20
-61.5683
11
177.546
21
-61.9072
0
LINE
8
BLACK
6
CONTINUOUS
10
177.546
20
-61.9072
11
177.555
21
-62.2473
0
LINE
8
BLACK
6
CONTINUOUS
10
177.555
20
-62.2473
11
177.603
21
-62.5841
0
LINE
8
BLACK
6
CONTINUOUS
10
382.036
20
-61.2828
11
382.134
21
-60.9568
0
LINE
8
BLACK
6
CONTINUOUS
10
382.134
20
-60.9568
11
382.268
21
-60.6439
0
LINE
8
BLACK
6
CONTINUOUS
10
382.268
20
-60.6439
11
382.436
21
-60.3478
0
LINE
8
BLACK
6
CONTINUOUS
10
382.436
20
-60.3478
11
382.636
21
-60.0723
0
LINE
8
BLACK
6
CONTINUOUS
10
382.636
20
-60.0723
11
382.866
21
-59.8209
0
LINE
8
BLACK
6
CONTINUOUS
10
382.866
20
-59.8209
11
383.122
21
-59.5966
0
LINE
8
BLACK
6
CONTINUOUS
10
383.122
20
-59.5966
11
383.402
21
-59.4022
0
LINE
8
BLACK
6
CONTINUOUS
10
383.402
20
-59.4022
11
383.701
21
-59.2403
0
LINE
8
BLACK
6
CONTINUOUS
10
383.701
20
-59.2403
11
384.017
21
-59.1127
0
LINE
8
BLACK
6
CONTINUOUS
10
384.017
20
-59.1127
11
384.345
21
-59.0211
0
LINE
8
BLACK
6
CONTINUOUS
10
384.345
20
-59.0211
11
384.681
21
-58.9667
0
LINE
8
BLACK
6
CONTINUOUS
10
384.681
20
-58.9667
11
385.021
21
-58.9501
0
LINE
8
BLACK
6
CONTINUOUS
10
385.021
20
-58.9501
11
385.361
21
-58.9715
0
LINE
8
BLACK
6
CONTINUOUS
10
385.361
20
-58.9715
11
385.696
21
-59.0306
0
LINE
8
BLACK
6
CONTINUOUS
10
385.696
20
-59.0306
11
386.023
21
-59.1267
0
LINE
8
BLACK
6
CONTINUOUS
10
386.023
20
-59.1267
11
386.337
21
-59.2587
0
LINE
8
BLACK
6
CONTINUOUS
10
386.337
20
-59.2587
11
386.634
21
-59.4248
0
LINE
8
BLACK
6
CONTINUOUS
10
386.634
20
-59.4248
11
386.911
21
-59.623
0
LINE
8
BLACK
6
CONTINUOUS
10
386.911
20
-59.623
11
387.164
21
-59.8509
0
LINE
8
BLACK
6
CONTINUOUS
10
387.164
20
-59.8509
11
387.39
21
-60.1055
0
LINE
8
BLACK
6
CONTINUOUS
10
387.39
20
-60.1055
11
387.587
21
-60.3837
0
LINE
8
BLACK
6
CONTINUOUS
10
387.587
20
-60.3837
11
387.751
21
-60.6821
0
LINE
8
BLACK
6
CONTINUOUS
10
387.751
20
-60.6821
11
387.88
21
-60.997
0
LINE
8
BLACK
6
CONTINUOUS
10
387.88
20
-60.997
11
387.974
21
-61.3243
0
LINE
8
BLACK
6
CONTINUOUS
10
387.974
20
-61.3243
11
388.031
21
-61.66
0
LINE
8
BLACK
6
CONTINUOUS
10
388.031
20
-61.66
11
388.05
21
-62
0
LINE
8
BLACK
6
CONTINUOUS
10
388.05
20
-62
11
388.049
21
-62.0852
0
LINE
8
BLACK
6
CONTINUOUS
10
388.049
20
-62.0852
11
388.02
21
-62.4245
0
LINE
8
BLACK
6
CONTINUOUS
10
388.02
20
-62.4245
11
387.954
21
-62.7585
0
LINE
8
BLACK
6
CONTINUOUS
10
387.954
20
-62.7585
11
387.851
21
-63.0831
0
LINE
8
BLACK
6
CONTINUOUS
10
387.851
20
-63.0831
11
387.713
21
-63.3941
0
LINE
8
BLACK
6
CONTINUOUS
10
387.713
20
-63.3941
11
387.54
21
-63.6878
0
LINE
8
BLACK
6
CONTINUOUS
10
387.54
20
-63.6878
11
387.336
21
-63.9605
0
LINE
8
BLACK
6
CONTINUOUS
10
387.336
20
-63.9605
11
387.103
21
-64.2087
0
LINE
8
BLACK
6
CONTINUOUS
10
387.103
20
-64.2087
11
386.844
21
-64.4294
0
LINE
8
BLACK
6
CONTINUOUS
10
386.844
20
-64.4294
11
386.562
21
-64.6198
0
LINE
8
BLACK
6
CONTINUOUS
10
386.562
20
-64.6198
11
386.26
21
-64.7776
0
LINE
8
BLACK
6
CONTINUOUS
10
386.26
20
-64.7776
11
385.943
21
-64.9007
0
LINE
8
BLACK
6
CONTINUOUS
10
385.943
20
-64.9007
11
385.613
21
-64.9877
0
LINE
8
BLACK
6
CONTINUOUS
10
385.613
20
-64.9877
11
385.276
21
-65.0374
0
LINE
8
BLACK
6
CONTINUOUS
10
385.276
20
-65.0374
11
384.936
21
-65.0493
0
LINE
8
BLACK
6
CONTINUOUS
10
384.936
20
-65.0493
11
384.597
21
-65.0232
0
LINE
8
BLACK
6
CONTINUOUS
10
384.597
20
-65.0232
11
384.262
21
-64.9594
0
LINE
8
BLACK
6
CONTINUOUS
10
384.262
20
-64.9594
11
383.937
21
-64.8587
0
LINE
8
BLACK
6
CONTINUOUS
10
383.937
20
-64.8587
11
383.625
21
-64.7224
0
LINE
8
BLACK
6
CONTINUOUS
10
383.625
20
-64.7224
11
383.33
21
-64.5521
0
LINE
8
BLACK
6
CONTINUOUS
10
383.33
20
-64.5521
11
383.056
21
-64.3501
0
LINE
8
BLACK
6
CONTINUOUS
10
383.056
20
-64.3501
11
382.806
21
-64.1187
0
LINE
8
BLACK
6
CONTINUOUS
10
382.806
20
-64.1187
11
382.584
21
-63.8609
0
LINE
8
BLACK
6
CONTINUOUS
10
382.584
20
-63.8609
11
382.391
21
-63.58
0
LINE
8
BLACK
6
CONTINUOUS
10
382.391
20
-63.58
11
382.231
21
-63.2793
0
LINE
8
BLACK
6
CONTINUOUS
10
382.231
20
-63.2793
11
382.106
21
-62.9627
0
LINE
8
BLACK
6
CONTINUOUS
10
382.106
20
-62.9627
11
382.017
21
-62.6341
0
LINE
8
BLACK
6
CONTINUOUS
10
382.017
20
-62.6341
11
381.965
21
-62.2976
0
LINE
8
BLACK
6
CONTINUOUS
10
381.965
20
-62.2976
11
381.95
21
-61.9574
0
LINE
8
BLACK
6
CONTINUOUS
10
381.95
20
-61.9574
11
381.954
21
-61.9072
0
LINE
8
BLACK
6
CONTINUOUS
10
381.954
20
-61.9072
11
381.974
21
-61.6177
0
LINE
8
BLACK
6
CONTINUOUS
10
381.974
20
-61.6177
11
382.036
21
-61.2828
0
LINE
8
BLACK
6
CONTINUOUS
10
382.103
20
-62.5841
11
382.19
21
-62.9131
0
LINE
8
BLACK
6
CONTINUOUS
10
382.19
20
-62.9131
11
382.313
21
-63.2301
0
LINE
8
BLACK
6
CONTINUOUS
10
382.313
20
-63.2301
11
382.472
21
-63.5308
0
LINE
8
BLACK
6
CONTINUOUS
10
382.472
20
-63.5308
11
382.665
21
-63.8111
0
LINE
8
BLACK
6
CONTINUOUS
10
382.665
20
-63.8111
11
382.889
21
-64.0675
0
LINE
8
BLACK
6
CONTINUOUS
10
382.889
20
-64.0675
11
383.14
21
-64.2965
0
LINE
8
BLACK
6
CONTINUOUS
10
383.14
20
-64.2965
11
383.417
21
-64.495
0
LINE
8
BLACK
6
CONTINUOUS
10
383.417
20
-64.495
11
383.714
21
-64.6604
0
LINE
8
BLACK
6
CONTINUOUS
10
383.714
20
-64.6604
11
384.028
21
-64.7906
0
LINE
8
BLACK
6
CONTINUOUS
10
384.028
20
-64.7906
11
384.355
21
-64.8838
0
LINE
8
BLACK
6
CONTINUOUS
10
384.355
20
-64.8838
11
384.691
21
-64.9388
0
LINE
8
BLACK
6
CONTINUOUS
10
384.691
20
-64.9388
11
385.031
21
-64.9548
0
LINE
8
BLACK
6
CONTINUOUS
10
385.031
20
-64.9548
11
385.37
21
-64.9317
0
LINE
8
BLACK
6
CONTINUOUS
10
385.37
20
-64.9317
11
385.705
21
-64.8697
0
LINE
8
BLACK
6
CONTINUOUS
10
385.705
20
-64.8697
11
386.03
21
-64.7697
0
LINE
8
BLACK
6
CONTINUOUS
10
386.03
20
-64.7697
11
386.342
21
-64.6329
0
LINE
8
BLACK
6
CONTINUOUS
10
386.342
20
-64.6329
11
386.635
21
-64.4613
0
LINE
8
BLACK
6
CONTINUOUS
10
386.635
20
-64.4613
11
386.907
21
-64.257
0
LINE
8
BLACK
6
CONTINUOUS
10
386.907
20
-64.257
11
387.154
21
-64.0228
0
LINE
8
BLACK
6
CONTINUOUS
10
387.154
20
-64.0228
11
387.372
21
-63.7618
0
LINE
8
BLACK
6
CONTINUOUS
10
387.372
20
-63.7618
11
387.559
21
-63.4775
0
LINE
8
BLACK
6
CONTINUOUS
10
387.559
20
-63.4775
11
387.712
21
-63.1736
0
LINE
8
BLACK
6
CONTINUOUS
10
387.712
20
-63.1736
11
387.829
21
-62.8541
0
LINE
8
BLACK
6
CONTINUOUS
10
387.829
20
-62.8541
11
387.908
21
-62.5233
0
LINE
8
BLACK
6
CONTINUOUS
10
387.908
20
-62.5233
11
387.949
21
-62.1855
0
LINE
8
BLACK
6
CONTINUOUS
10
387.949
20
-62.1855
11
387.955
21
-62
0
LINE
8
BLACK
6
CONTINUOUS
10
387.955
20
-62
11
387.935
21
-61.6604
0
LINE
8
BLACK
6
CONTINUOUS
10
387.935
20
-61.6604
11
387.877
21
-61.3252
0
LINE
8
BLACK
6
CONTINUOUS
10
387.877
20
-61.3252
11
387.78
21
-60.999
0
LINE
8
BLACK
6
CONTINUOUS
10
387.78
20
-60.999
11
387.647
21
-60.6861
0
LINE
8
BLACK
6
CONTINUOUS
10
387.647
20
-60.6861
11
387.478
21
-60.3906
0
LINE
8
BLACK
6
CONTINUOUS
10
387.478
20
-60.3906
11
387.277
21
-60.1164
0
LINE
8
BLACK
6
CONTINUOUS
10
387.277
20
-60.1164
11
387.045
21
-59.8672
0
LINE
8
BLACK
6
CONTINUOUS
10
387.045
20
-59.8672
11
386.787
21
-59.6463
0
LINE
8
BLACK
6
CONTINUOUS
10
386.787
20
-59.6463
11
386.504
21
-59.4565
0
LINE
8
BLACK
6
CONTINUOUS
10
386.504
20
-59.4565
11
386.202
21
-59.3005
0
LINE
8
BLACK
6
CONTINUOUS
10
386.202
20
-59.3005
11
385.884
21
-59.1802
0
LINE
8
BLACK
6
CONTINUOUS
10
385.884
20
-59.1802
11
385.554
21
-59.0973
0
LINE
8
BLACK
6
CONTINUOUS
10
385.554
20
-59.0973
11
385.216
21
-59.0529
0
LINE
8
BLACK
6
CONTINUOUS
10
385.216
20
-59.0529
11
384.876
21
-59.0476
0
LINE
8
BLACK
6
CONTINUOUS
10
384.876
20
-59.0476
11
384.538
21
-59.0814
0
LINE
8
BLACK
6
CONTINUOUS
10
384.538
20
-59.0814
11
384.205
21
-59.1539
0
LINE
8
BLACK
6
CONTINUOUS
10
384.205
20
-59.1539
11
383.883
21
-59.2641
0
LINE
8
BLACK
6
CONTINUOUS
10
383.883
20
-59.2641
11
383.576
21
-59.4105
0
LINE
8
BLACK
6
CONTINUOUS
10
383.576
20
-59.4105
11
383.288
21
-59.5913
0
LINE
8
BLACK
6
CONTINUOUS
10
383.288
20
-59.5913
11
383.023
21
-59.804
0
LINE
8
BLACK
6
CONTINUOUS
10
383.023
20
-59.804
11
382.783
21
-60.0458
0
LINE
8
BLACK
6
CONTINUOUS
10
382.783
20
-60.0458
11
382.574
21
-60.3135
0
LINE
8
BLACK
6
CONTINUOUS
10
382.574
20
-60.3135
11
382.396
21
-60.6036
0
LINE
8
BLACK
6
CONTINUOUS
10
382.396
20
-60.6036
11
382.253
21
-60.9122
0
LINE
8
BLACK
6
CONTINUOUS
10
382.253
20
-60.9122
11
382.146
21
-61.2352
0
LINE
8
BLACK
6
CONTINUOUS
10
382.146
20
-61.2352
11
382.077
21
-61.5683
0
LINE
8
BLACK
6
CONTINUOUS
10
382.077
20
-61.5683
11
382.046
21
-61.9072
0
LINE
8
BLACK
6
CONTINUOUS
10
382.046
20
-61.9072
11
382.055
21
-62.2473
0
LINE
8
BLACK
6
CONTINUOUS
10
382.055
20
-62.2473
11
382.103
21
-62.5841
0
LINE
8
BLACK
6
CONTINUOUS
10
28.0355
20
-61.2828
11
28.1339
21
-60.9568
0
LINE
8
BLACK
6
CONTINUOUS
10
28.1339
20
-60.9568
11
28.2681
21
-60.6439
0
LINE
8
BLACK
6
CONTINUOUS
10
28.2681
20
-60.6439
11
28.4363
21
-60.3478
0
LINE
8
BLACK
6
CONTINUOUS
10
28.4363
20
-60.3478
11
28.6364
21
-60.0723
0
LINE
8
BLACK
6
CONTINUOUS
10
28.6364
20
-60.0723
11
28.866
21
-59.8209
0
LINE
8
BLACK
6
CONTINUOUS
10
28.866
20
-59.8209
11
29.1222
21
-59.5966
0
LINE
8
BLACK
6
CONTINUOUS
10
29.1222
20
-59.5966
11
29.4018
21
-59.4022
0
LINE
8
BLACK
6
CONTINUOUS
10
29.4018
20
-59.4022
11
29.7014
21
-59.2403
0
LINE
8
BLACK
6
CONTINUOUS
10
29.7014
20
-59.2403
11
30.0171
21
-59.1127
0
LINE
8
BLACK
6
CONTINUOUS
10
30.0171
20
-59.1127
11
30.3451
21
-59.0211
0
LINE
8
BLACK
6
CONTINUOUS
10
30.3451
20
-59.0211
11
30.6812
21
-58.9667
0
LINE
8
BLACK
6
CONTINUOUS
10
30.6812
20
-58.9667
11
31.0213
21
-58.9501
0
LINE
8
BLACK
6
CONTINUOUS
10
31.0213
20
-58.9501
11
31.3611
21
-58.9715
0
LINE
8
BLACK
6
CONTINUOUS
10
31.3611
20
-58.9715
11
31.6965
21
-59.0306
0
LINE
8
BLACK
6
CONTINUOUS
10
31.6965
20
-59.0306
11
32.0231
21
-59.1267
0
LINE
8
BLACK
6
CONTINUOUS
10
32.0231
20
-59.1267
11
32.337
21
-59.2587
0
LINE
8
BLACK
6
CONTINUOUS
10
32.337
20
-59.2587
11
32.6343
21
-59.4248
0
LINE
8
BLACK
6
CONTINUOUS
10
32.6343
20
-59.4248
11
32.9111
21
-59.623
0
LINE
8
BLACK
6
CONTINUOUS
10
32.9111
20
-59.623
11
33.1642
21
-59.8509
0
LINE
8
BLACK
6
CONTINUOUS
10
33.1642
20
-59.8509
11
33.3903
21
-60.1055
0
LINE
8
BLACK
6
CONTINUOUS
10
33.3903
20
-60.1055
11
33.5865
21
-60.3837
0
LINE
8
BLACK
6
CONTINUOUS
10
33.5865
20
-60.3837
11
33.7506
21
-60.6821
0
LINE
8
BLACK
6
CONTINUOUS
10
33.7506
20
-60.6821
11
33.8803
21
-60.997
0
LINE
8
BLACK
6
CONTINUOUS
10
33.8803
20
-60.997
11
33.9742
21
-61.3243
0
LINE
8
BLACK
6
CONTINUOUS
10
33.9742
20
-61.3243
11
34.031
21
-61.66
0
LINE
8
BLACK
6
CONTINUOUS
10
34.031
20
-61.66
11
34.05
21
-62
0
LINE
8
BLACK
6
CONTINUOUS
10
34.05
20
-62
11
34.0488
21
-62.0852
0
LINE
8
BLACK
6
CONTINUOUS
10
34.0488
20
-62.0852
11
34.0203
21
-62.4245
0
LINE
8
BLACK
6
CONTINUOUS
10
34.0203
20
-62.4245
11
33.9542
21
-62.7585
0
LINE
8
BLACK
6
CONTINUOUS
10
33.9542
20
-62.7585
11
33.8512
21
-63.0831
0
LINE
8
BLACK
6
CONTINUOUS
10
33.8512
20
-63.0831
11
33.7127
21
-63.3941
0
LINE
8
BLACK
6
CONTINUOUS
10
33.7127
20
-63.3941
11
33.5404
21
-63.6878
0
LINE
8
BLACK
6
CONTINUOUS
10
33.5404
20
-63.6878
11
33.3364
21
-63.9605
0
LINE
8
BLACK
6
CONTINUOUS
10
33.3364
20
-63.9605
11
33.1033
21
-64.2087
0
LINE
8
BLACK
6
CONTINUOUS
10
33.1033
20
-64.2087
11
32.844
21
-64.4294
0
LINE
8
BLACK
6
CONTINUOUS
10
32.844
20
-64.4294
11
32.5617
21
-64.6198
0
LINE
8
BLACK
6
CONTINUOUS
10
32.5617
20
-64.6198
11
32.26
21
-64.7776
0
LINE
8
BLACK
6
CONTINUOUS
10
32.26
20
-64.7776
11
31.9425
21
-64.9007
0
LINE
8
BLACK
6
CONTINUOUS
10
31.9425
20
-64.9007
11
31.6133
21
-64.9877
0
LINE
8
BLACK
6
CONTINUOUS
10
31.6133
20
-64.9877
11
31.2764
21
-65.0374
0
LINE
8
BLACK
6
CONTINUOUS
10
31.2764
20
-65.0374
11
30.9361
21
-65.0493
0
LINE
8
BLACK
6
CONTINUOUS
10
30.9361
20
-65.0493
11
30.5966
21
-65.0232
0
LINE
8
BLACK
6
CONTINUOUS
10
30.5966
20
-65.0232
11
30.2621
21
-64.9594
0
LINE
8
BLACK
6
CONTINUOUS
10
30.2621
20
-64.9594
11
29.9369
21
-64.8587
0
LINE
8
BLACK
6
CONTINUOUS
10
29.9369
20
-64.8587
11
29.6248
21
-64.7224
0
LINE
8
BLACK
6
CONTINUOUS
10
29.6248
20
-64.7224
11
29.3299
21
-64.5521
0
LINE
8
BLACK
6
CONTINUOUS
10
29.3299
20
-64.5521
11
29.0559
21
-64.3501
0
LINE
8
BLACK
6
CONTINUOUS
10
29.0559
20
-64.3501
11
28.806
21
-64.1187
0
LINE
8
BLACK
6
CONTINUOUS
10
28.806
20
-64.1187
11
28.5835
21
-63.8609
0
LINE
8
BLACK
6
CONTINUOUS
10
28.5835
20
-63.8609
11
28.3911
21
-63.58
0
LINE
8
BLACK
6
CONTINUOUS
10
28.3911
20
-63.58
11
28.2313
21
-63.2793
0
LINE
8
BLACK
6
CONTINUOUS
10
28.2313
20
-63.2793
11
28.1059
21
-62.9627
0
LINE
8
BLACK
6
CONTINUOUS
10
28.1059
20
-62.9627
11
28.0166
21
-62.6341
0
LINE
8
BLACK
6
CONTINUOUS
10
28.0166
20
-62.6341
11
27.9646
21
-62.2976
0
LINE
8
BLACK
6
CONTINUOUS
10
27.9646
20
-62.2976
11
27.9503
21
-61.9574
0
LINE
8
BLACK
6
CONTINUOUS
10
27.9503
20
-61.9574
11
27.9538
21
-61.9072
0
LINE
8
BLACK
6
CONTINUOUS
10
27.9538
20
-61.9072
11
27.974
21
-61.6177
0
LINE
8
BLACK
6
CONTINUOUS
10
27.974
20
-61.6177
11
28.0355
21
-61.2828
0
LINE
8
BLACK
6
CONTINUOUS
10
28.1033
20
-62.5841
11
28.1896
21
-62.9131
0
LINE
8
BLACK
6
CONTINUOUS
10
28.1896
20
-62.9131
11
28.3132
21
-63.2301
0
LINE
8
BLACK
6
CONTINUOUS
10
28.3132
20
-63.2301
11
28.4724
21
-63.5308
0
LINE
8
BLACK
6
CONTINUOUS
10
28.4724
20
-63.5308
11
28.6651
21
-63.8111
0
LINE
8
BLACK
6
CONTINUOUS
10
28.6651
20
-63.8111
11
28.8887
21
-64.0675
0
LINE
8
BLACK
6
CONTINUOUS
10
28.8887
20
-64.0675
11
29.1404
21
-64.2965
0
LINE
8
BLACK
6
CONTINUOUS
10
29.1404
20
-64.2965
11
29.4166
21
-64.495
0
LINE
8
BLACK
6
CONTINUOUS
10
29.4166
20
-64.495
11
29.7139
21
-64.6604
0
LINE
8
BLACK
6
CONTINUOUS
10
29.7139
20
-64.6604
11
30.0282
21
-64.7906
0
LINE
8
BLACK
6
CONTINUOUS
10
30.0282
20
-64.7906
11
30.3554
21
-64.8838
0
LINE
8
BLACK
6
CONTINUOUS
10
30.3554
20
-64.8838
11
30.6911
21
-64.9388
0
LINE
8
BLACK
6
CONTINUOUS
10
30.6911
20
-64.9388
11
31.0309
21
-64.9548
0
LINE
8
BLACK
6
CONTINUOUS
10
31.0309
20
-64.9548
11
31.3704
21
-64.9317
0
LINE
8
BLACK
6
CONTINUOUS
10
31.3704
20
-64.9317
11
31.7049
21
-64.8697
0
LINE
8
BLACK
6
CONTINUOUS
10
31.7049
20
-64.8697
11
32.03
21
-64.7697
0
LINE
8
BLACK
6
CONTINUOUS
10
32.03
20
-64.7697
11
32.3415
21
-64.6329
0
LINE
8
BLACK
6
CONTINUOUS
10
32.3415
20
-64.6329
11
32.6353
21
-64.4613
0
LINE
8
BLACK
6
CONTINUOUS
10
32.6353
20
-64.4613
11
32.9073
21
-64.257
0
LINE
8
BLACK
6
CONTINUOUS
10
32.9073
20
-64.257
11
33.1541
21
-64.0228
0
LINE
8
BLACK
6
CONTINUOUS
10
33.1541
20
-64.0228
11
33.3723
21
-63.7618
0
LINE
8
BLACK
6
CONTINUOUS
10
33.3723
20
-63.7618
11
33.5591
21
-63.4775
0
LINE
8
BLACK
6
CONTINUOUS
10
33.5591
20
-63.4775
11
33.712
21
-63.1736
0
LINE
8
BLACK
6
CONTINUOUS
10
33.712
20
-63.1736
11
33.8289
21
-62.8541
0
LINE
8
BLACK
6
CONTINUOUS
10
33.8289
20
-62.8541
11
33.9083
21
-62.5233
0
LINE
8
BLACK
6
CONTINUOUS
10
33.9083
20
-62.5233
11
33.9492
21
-62.1855
0
LINE
8
BLACK
6
CONTINUOUS
10
33.9492
20
-62.1855
11
33.955
21
-62
0
LINE
8
BLACK
6
CONTINUOUS
10
33.955
20
-62
11
33.9354
21
-61.6604
0
LINE
8
BLACK
6
CONTINUOUS
10
33.9354
20
-61.6604
11
33.8769
21
-61.3252
0
LINE
8
BLACK
6
CONTINUOUS
10
33.8769
20
-61.3252
11
33.7803
21
-60.999
0
LINE
8
BLACK
6
CONTINUOUS
10
33.7803
20
-60.999
11
33.6468
21
-60.6861
0
LINE
8
BLACK
6
CONTINUOUS
10
33.6468
20
-60.6861
11
33.4783
21
-60.3906
0
LINE
8
BLACK
6
CONTINUOUS
10
33.4783
20
-60.3906
11
33.2769
21
-60.1164
0
LINE
8
BLACK
6
CONTINUOUS
10
33.2769
20
-60.1164
11
33.0453
21
-59.8672
0
LINE
8
BLACK
6
CONTINUOUS
10
33.0453
20
-59.8672
11
32.7866
21
-59.6463
0
LINE
8
BLACK
6
CONTINUOUS
10
32.7866
20
-59.6463
11
32.5042
21
-59.4565
0
LINE
8
BLACK
6
CONTINUOUS
10
32.5042
20
-59.4565
11
32.2019
21
-59.3005
0
LINE
8
BLACK
6
CONTINUOUS
10
32.2019
20
-59.3005
11
31.8837
21
-59.1802
0
LINE
8
BLACK
6
CONTINUOUS
10
31.8837
20
-59.1802
11
31.5537
21
-59.0973
0
LINE
8
BLACK
6
CONTINUOUS
10
31.5537
20
-59.0973
11
31.2164
21
-59.0529
0
LINE
8
BLACK
6
CONTINUOUS
10
31.2164
20
-59.0529
11
30.8763
21
-59.0476
0
LINE
8
BLACK
6
CONTINUOUS
10
30.8763
20
-59.0476
11
30.5377
21
-59.0814
0
LINE
8
BLACK
6
CONTINUOUS
10
30.5377
20
-59.0814
11
30.2053
21
-59.1539
0
LINE
8
BLACK
6
CONTINUOUS
10
30.2053
20
-59.1539
11
29.8835
21
-59.2641
0
LINE
8
BLACK
6
CONTINUOUS
10
29.8835
20
-59.2641
11
29.5764
21
-59.4105
0
LINE
8
BLACK
6
CONTINUOUS
10
29.5764
20
-59.4105
11
29.2882
21
-59.5913
0
LINE
8
BLACK
6
CONTINUOUS
10
29.2882
20
-59.5913
11
29.0227
21
-59.804
0
LINE
8
BLACK
6
CONTINUOUS
10
29.0227
20
-59.804
11
28.7834
21
-60.0458
0
LINE
8
BLACK
6
CONTINUOUS
10
28.7834
20
-60.0458
11
28.5735
21
-60.3135
0
LINE
8
BLACK
6
CONTINUOUS
10
28.5735
20
-60.3135
11
28.3957
21
-60.6036
0
LINE
8
BLACK
6
CONTINUOUS
10
28.3957
20
-60.6036
11
28.2525
21
-60.9122
0
LINE
8
BLACK
6
CONTINUOUS
10
28.2525
20
-60.9122
11
28.1457
21
-61.2352
0
LINE
8
BLACK
6
CONTINUOUS
10
28.1457
20
-61.2352
11
28.0767
21
-61.5683
0
LINE
8
BLACK
6
CONTINUOUS
10
28.0767
20
-61.5683
11
28.0465
21
-61.9072
0
LINE
8
BLACK
6
CONTINUOUS
10
28.0465
20
-61.9072
11
28.0554
21
-62.2473
0
LINE
8
BLACK
6
CONTINUOUS
10
28.0554
20
-62.2473
11
28.1033
21
-62.5841
0
LINE
8
BLACK
6
CONTINUOUS
10
221.536
20
-61.2828
11
221.634
21
-60.9568
0
LINE
8
BLACK
6
CONTINUOUS
10
221.634
20
-60.9568
11
221.768
21
-60.6439
0
LINE
8
BLACK
6
CONTINUOUS
10
221.768
20
-60.6439
11
221.936
21
-60.3478
0
LINE
8
BLACK
6
CONTINUOUS
10
221.936
20
-60.3478
11
222.136
21
-60.0723
0
LINE
8
BLACK
6
CONTINUOUS
10
222.136
20
-60.0723
11
222.366
21
-59.8209
0
LINE
8
BLACK
6
CONTINUOUS
10
222.366
20
-59.8209
11
222.622
21
-59.5966
0
LINE
8
BLACK
6
CONTINUOUS
10
222.622
20
-59.5966
11
222.902
21
-59.4022
0
LINE
8
BLACK
6
CONTINUOUS
10
222.902
20
-59.4022
11
223.201
21
-59.2403
0
LINE
8
BLACK
6
CONTINUOUS
10
223.201
20
-59.2403
11
223.517
21
-59.1127
0
LINE
8
BLACK
6
CONTINUOUS
10
223.517
20
-59.1127
11
223.845
21
-59.0211
0
LINE
8
BLACK
6
CONTINUOUS
10
223.845
20
-59.0211
11
224.181
21
-58.9667
0
LINE
8
BLACK
6
CONTINUOUS
10
224.181
20
-58.9667
11
224.521
21
-58.9501
0
LINE
8
BLACK
6
CONTINUOUS
10
224.521
20
-58.9501
11
224.861
21
-58.9715
0
LINE
8
BLACK
6
CONTINUOUS
10
224.861
20
-58.9715
11
225.196
21
-59.0306
0
LINE
8
BLACK
6
CONTINUOUS
10
225.196
20
-59.0306
11
225.523
21
-59.1267
0
LINE
8
BLACK
6
CONTINUOUS
10
225.523
20
-59.1267
11
225.837
21
-59.2587
0
LINE
8
BLACK
6
CONTINUOUS
10
225.837
20
-59.2587
11
226.134
21
-59.4248
0
LINE
8
BLACK
6
CONTINUOUS
10
226.134
20
-59.4248
11
226.411
21
-59.623
0
LINE
8
BLACK
6
CONTINUOUS
10
226.411
20
-59.623
11
226.664
21
-59.8509
0
LINE
8
BLACK
6
CONTINUOUS
10
226.664
20
-59.8509
11
226.89
21
-60.1055
0
LINE
8
BLACK
6
CONTINUOUS
10
226.89
20
-60.1055
11
227.087
21
-60.3837
0
LINE
8
BLACK
6
CONTINUOUS
10
227.087
20
-60.3837
11
227.251
21
-60.6821
0
LINE
8
BLACK
6
CONTINUOUS
10
227.251
20
-60.6821
11
227.38
21
-60.997
0
LINE
8
BLACK
6
CONTINUOUS
10
227.38
20
-60.997
11
227.474
21
-61.3243
0
LINE
8
BLACK
6
CONTINUOUS
10
227.474
20
-61.3243
11
227.531
21
-61.66
0
LINE
8
BLACK
6
CONTINUOUS
10
227.531
20
-61.66
11
227.55
21
-62
0
LINE
8
BLACK
6
CONTINUOUS
10
227.55
20
-62
11
227.549
21
-62.0852
0
LINE
8
BLACK
6
CONTINUOUS
10
227.549
20
-62.0852
11
227.52
21
-62.4245
0
LINE
8
BLACK
6
CONTINUOUS
10
227.52
20
-62.4245
11
227.454
21
-62.7585
0
LINE
8
BLACK
6
CONTINUOUS
10
227.454
20
-62.7585
11
227.351
21
-63.0831
0
LINE
8
BLACK
6
CONTINUOUS
10
227.351
20
-63.0831
11
227.213
21
-63.3941
0
LINE
8
BLACK
6
CONTINUOUS
10
227.213
20
-63.3941
11
227.04
21
-63.6878
0
LINE
8
BLACK
6
CONTINUOUS
10
227.04
20
-63.6878
11
226.836
21
-63.9605
0
LINE
8
BLACK
6
CONTINUOUS
10
226.836
20
-63.9605
11
226.603
21
-64.2087
0
LINE
8
BLACK
6
CONTINUOUS
10
226.603
20
-64.2087
11
226.344
21
-64.4294
0
LINE
8
BLACK
6
CONTINUOUS
10
226.344
20
-64.4294
11
226.062
21
-64.6198
0
LINE
8
BLACK
6
CONTINUOUS
10
226.062
20
-64.6198
11
225.76
21
-64.7776
0
LINE
8
BLACK
6
CONTINUOUS
10
225.76
20
-64.7776
11
225.443
21
-64.9007
0
LINE
8
BLACK
6
CONTINUOUS
10
225.443
20
-64.9007
11
225.113
21
-64.9877
0
LINE
8
BLACK
6
CONTINUOUS
10
225.113
20
-64.9877
11
224.776
21
-65.0374
0
LINE
8
BLACK
6
CONTINUOUS
10
224.776
20
-65.0374
11
224.436
21
-65.0493
0
LINE
8
BLACK
6
CONTINUOUS
10
224.436
20
-65.0493
11
224.097
21
-65.0232
0
LINE
8
BLACK
6
CONTINUOUS
10
224.097
20
-65.0232
11
223.762
21
-64.9594
0
LINE
8
BLACK
6
CONTINUOUS
10
223.762
20
-64.9594
11
223.437
21
-64.8587
0
LINE
8
BLACK
6
CONTINUOUS
10
223.437
20
-64.8587
11
223.125
21
-64.7224
0
LINE
8
BLACK
6
CONTINUOUS
10
223.125
20
-64.7224
11
222.83
21
-64.5521
0
LINE
8
BLACK
6
CONTINUOUS
10
222.83
20
-64.5521
11
222.556
21
-64.3501
0
LINE
8
BLACK
6
CONTINUOUS
10
222.556
20
-64.3501
11
222.306
21
-64.1187
0
LINE
8
BLACK
6
CONTINUOUS
10
222.306
20
-64.1187
11
222.084
21
-63.8609
0
LINE
8
BLACK
6
CONTINUOUS
10
222.084
20
-63.8609
11
221.891
21
-63.58
0
LINE
8
BLACK
6
CONTINUOUS
10
221.891
20
-63.58
11
221.731
21
-63.2793
0
LINE
8
BLACK
6
CONTINUOUS
10
221.731
20
-63.2793
11
221.606
21
-62.9627
0
LINE
8
BLACK
6
CONTINUOUS
10
221.606
20
-62.9627
11
221.517
21
-62.6341
0
LINE
8
BLACK
6
CONTINUOUS
10
221.517
20
-62.6341
11
221.465
21
-62.2976
0
LINE
8
BLACK
6
CONTINUOUS
10
221.465
20
-62.2976
11
221.45
21
-61.9574
0
LINE
8
BLACK
6
CONTINUOUS
10
221.45
20
-61.9574
11
221.454
21
-61.9072
0
LINE
8
BLACK
6
CONTINUOUS
10
221.454
20
-61.9072
11
221.474
21
-61.6177
0
LINE
8
BLACK
6
CONTINUOUS
10
221.474
20
-61.6177
11
221.536
21
-61.2828
0
LINE
8
BLACK
6
CONTINUOUS
10
221.603
20
-62.5841
11
221.69
21
-62.9131
0
LINE
8
BLACK
6
CONTINUOUS
10
221.69
20
-62.9131
11
221.813
21
-63.2301
0
LINE
8
BLACK
6
CONTINUOUS
10
221.813
20
-63.2301
11
221.972
21
-63.5308
0
LINE
8
BLACK
6
CONTINUOUS
10
221.972
20
-63.5308
11
222.165
21
-63.8111
0
LINE
8
BLACK
6
CONTINUOUS
10
222.165
20
-63.8111
11
222.389
21
-64.0675
0
LINE
8
BLACK
6
CONTINUOUS
10
222.389
20
-64.0675
11
222.64
21
-64.2965
0
LINE
8
BLACK
6
CONTINUOUS
10
222.64
20
-64.2965
11
222.917
21
-64.495
0
LINE
8
BLACK
6
CONTINUOUS
10
222.917
20
-64.495
11
223.214
21
-64.6604
0
LINE
8
BLACK
6
CONTINUOUS
10
223.214
20
-64.6604
11
223.528
21
-64.7906
0
LINE
8
BLACK
6
CONTINUOUS
10
223.528
20
-64.7906
11
223.855
21
-64.8838
0
LINE
8
BLACK
6
CONTINUOUS
10
223.855
20
-64.8838
11
224.191
21
-64.9388
0
LINE
8
BLACK
6
CONTINUOUS
10
224.191
20
-64.9388
11
224.531
21
-64.9548
0
LINE
8
BLACK
6
CONTINUOUS
10
224.531
20
-64.9548
11
224.87
21
-64.9317
0
LINE
8
BLACK
6
CONTINUOUS
10
224.87
20
-64.9317
11
225.205
21
-64.8697
0
LINE
8
BLACK
6
CONTINUOUS
10
225.205
20
-64.8697
11
225.53
21
-64.7697
0
LINE
8
BLACK
6
CONTINUOUS
10
225.53
20
-64.7697
11
225.842
21
-64.6329
0
LINE
8
BLACK
6
CONTINUOUS
10
225.842
20
-64.6329
11
226.135
21
-64.4613
0
LINE
8
BLACK
6
CONTINUOUS
10
226.135
20
-64.4613
11
226.407
21
-64.257
0
LINE
8
BLACK
6
CONTINUOUS
10
226.407
20
-64.257
11
226.654
21
-64.0228
0
LINE
8
BLACK
6
CONTINUOUS
10
226.654
20
-64.0228
11
226.872
21
-63.7618
0
LINE
8
BLACK
6
CONTINUOUS
10
226.872
20
-63.7618
11
227.059
21
-63.4775
0
LINE
8
BLACK
6
CONTINUOUS
10
227.059
20
-63.4775
11
227.212
21
-63.1736
0
LINE
8
BLACK
6
CONTINUOUS
10
227.212
20
-63.1736
11
227.329
21
-62.8541
0
LINE
8
BLACK
6
CONTINUOUS
10
227.329
20
-62.8541
11
227.408
21
-62.5233
0
LINE
8
BLACK
6
CONTINUOUS
10
227.408
20
-62.5233
11
227.449
21
-62.1855
0
LINE
8
BLACK
6
CONTINUOUS
10
227.449
20
-62.1855
11
227.455
21
-62
0
LINE
8
BLACK
6
CONTINUOUS
10
227.455
20
-62
11
227.435
21
-61.6604
0
LINE
8
BLACK
6
CONTINUOUS
10
227.435
20
-61.6604
11
227.377
21
-61.3252
0
LINE
8
BLACK
6
CONTINUOUS
10
227.377
20
-61.3252
11
227.28
21
-60.999
0
LINE
8
BLACK
6
CONTINUOUS
10
227.28
20
-60.999
11
227.147
21
-60.6861
0
LINE
8
BLACK
6
CONTINUOUS
10
227.147
20
-60.6861
11
226.978
21
-60.3906
0
LINE
8
BLACK
6
CONTINUOUS
10
226.978
20
-60.3906
11
226.777
21
-60.1164
0
LINE
8
BLACK
6
CONTINUOUS
10
226.777
20
-60.1164
11
226.545
21
-59.8672
0
LINE
8
BLACK
6
CONTINUOUS
10
226.545
20
-59.8672
11
226.287
21
-59.6463
0
LINE
8
BLACK
6
CONTINUOUS
10
226.287
20
-59.6463
11
226.004
21
-59.4565
0
LINE
8
BLACK
6
CONTINUOUS
10
226.004
20
-59.4565
11
225.702
21
-59.3005
0
LINE
8
BLACK
6
CONTINUOUS
10
225.702
20
-59.3005
11
225.384
21
-59.1802
0
LINE
8
BLACK
6
CONTINUOUS
10
225.384
20
-59.1802
11
225.054
21
-59.0973
0
LINE
8
BLACK
6
CONTINUOUS
10
225.054
20
-59.0973
11
224.716
21
-59.0529
0
LINE
8
BLACK
6
CONTINUOUS
10
224.716
20
-59.0529
11
224.376
21
-59.0476
0
LINE
8
BLACK
6
CONTINUOUS
10
224.376
20
-59.0476
11
224.038
21
-59.0814
0
LINE
8
BLACK
6
CONTINUOUS
10
224.038
20
-59.0814
11
223.705
21
-59.1539
0
LINE
8
BLACK
6
CONTINUOUS
10
223.705
20
-59.1539
11
223.383
21
-59.2641
0
LINE
8
BLACK
6
CONTINUOUS
10
223.383
20
-59.2641
11
223.076
21
-59.4105
0
LINE
8
BLACK
6
CONTINUOUS
10
223.076
20
-59.4105
11
222.788
21
-59.5913
0
LINE
8
BLACK
6
CONTINUOUS
10
222.788
20
-59.5913
11
222.523
21
-59.804
0
LINE
8
BLACK
6
CONTINUOUS
10
222.523
20
-59.804
11
222.283
21
-60.0458
0
LINE
8
BLACK
6
CONTINUOUS
10
222.283
20
-60.0458
11
222.074
21
-60.3135
0
LINE
8
BLACK
6
CONTINUOUS
10
222.074
20
-60.3135
11
221.896
21
-60.6036
0
LINE
8
BLACK
6
CONTINUOUS
10
221.896
20
-60.6036
11
221.753
21
-60.9122
0
LINE
8
BLACK
6
CONTINUOUS
10
221.753
20
-60.9122
11
221.646
21
-61.2352
0
LINE
8
BLACK
6
CONTINUOUS
10
221.646
20
-61.2352
11
221.577
21
-61.5683
0
LINE
8
BLACK
6
CONTINUOUS
10
221.577
20
-61.5683
11
221.546
21
-61.9072
0
LINE
8
BLACK
6
CONTINUOUS
10
221.546
20
-61.9072
11
221.555
21
-62.2473
0
LINE
8
BLACK
6
CONTINUOUS
10
221.555
20
-62.2473
11
221.603
21
-62.5841
  0
ENDSEC
  0
EOF
