0
SECTION
2
HEADER
9
$INSUNITS
70
4
9
$ACADVER
1
AC1014
9
$HANDSEED
5
FFFF
0
ENDSEC
0
SECTION
2
TABLES
0
TABLE
2
VPORT
5
8
100
AcDbSymbolTable
0
ENDTAB
0
TABLE
2
LTYPE
5
5
100
AcDbSymbolTable
0
LTYPE
5
14
100
AcDbSymbolTableRecord
100
AcDbLinetypeTableRecord
2
BYBLOCK
70
0
0
LTYPE
5
15
100
AcDbSymbolTableRecord
100
AcDbLinetypeTableRecord
2
BYLAYER
70
0
0
ENDTAB
0
TABLE
2
LAYER
5
2
100
AcDbSymbolTable
70
2
0
LAYER
5
50
100
AcDbSymbolTableRecord
100
AcDbLayerTableRecord
2
0
70
0
6
CONTINUOUS
0
ENDTAB
0
TABLE
2
STYLE
5
3
100
AcDbSymbolTable
70
1
0
STYLE
5
11
100
AcDbSymbolTableRecord
100
AcDbTextStyleTableRecord
2
STANDARD
70
0
0
ENDTAB
0
TABLE
2
VIEW
5
6
100
AcDbSymbolTable
70
0
0
ENDTAB
0
TABLE
2
UCS
5
7
100
AcDbSymbolTable
70
0
0
ENDTAB
0
TABLE
2
APPID
5
9
100
AcDbSymbolTable
70
2
0
APPID
5
12
100
AcDbSymbolTableRecord
100
AcDbRegAppTableRecord
2
ACAD
70
0
0
ENDTAB
0
TABLE
2
DIMSTYLE
5
A
100
AcDbSymbolTable
70
1
0
ENDTAB
0
TABLE
2
BLOCK_RECORD
5
1
100
AcDbSymbolTable
70
1
0
BLOCK_RECORD
5
1F
100
AcDbSymbolTableRecord
100
AcDbBlockTableRecord
2
*MODEL_SPACE
0
BLOCK_RECORD
5
1B
100
AcDbSymbolTableRecord
100
AcDbBlockTableRecord
2
*PAPER_SPACE
0
ENDTAB
0
ENDSEC
0
SECTION
2
BLOCKS
0
BLOCK
5
20
100
AcDbEntity
100
AcDbBlockBegin
2
*MODEL_SPACE
0
ENDBLK
5
21
100
AcDbEntity
100
AcDbBlockEnd
0
BLOCK
5
1C
100
AcDbEntity
100
AcDbBlockBegin
2
*PAPER_SPACE
0
ENDBLK
5
1D
100
AcDbEntity
100
AcDbBlockEnd
0
ENDSEC
0
SECTION
2
ENTITIES
0
LWPOLYLINE
5
100
100
AcDbEntity
8
0
100
AcDbPolyline
90
32
70
1
43
0.0
10
170
20
0
10
170
20
10
10
-1.8540724511240114e-13
20
10
42
0.41421356237309553
10
-5.000000000000183
20
5
10
-5.0000000000000071
20
-130.00027680130677
42
0.41421356237309415
10
0
20
-135.0002768013068
10
100.35437140309418
20
-135.00027680130665
42
-0.25859366620263824
10
104.59437426321
20
-137.35030024552171
10
126.71793869087345
20
-172.74834036948963
42
0.2585936662026504
10
130.95794155098926
20
-175.09836381370474
10
229.66725523847191
20
-175.09836381370457
42
0.25859214402183939
10
233.90724297486784
20
-172.74836456751811
10
256.03128697459465
20
-137.35000662239929
42
-0.25859214402184511
10
260.27127471099055
20
-135.00000737621281
10
370
20
-135.00000737621278
42
0.41421356237310125
10
375
20
-130.00000737621278
10
375
20
5.0000000000000009
42
0.41421356237310214
10
370
20
9.9999999999999805
10
190
20
10
10
190
20
0
10
365
20
-2.1649348980190553e-14
42
-0.41421356237310214
10
370
20
-5
10
370
20
-120
42
-0.41421356237310125
10
365
20
-125
10
255
20
-125
10
230
20
-165
10
130
20
-165
10
105
20
-125
10
4.9999999999999991
20
-125
42
-0.41421356237309326
10
0
20
-120
10
-5.5511151231257827e-16
20
-4.9999999999999991
42
-0.41421356237309515
10
5
20
0
0
CIRCLE
5
101
100
AcDbEntity
8
0
100
AcDbCircle
10
92.5
20
5
30
0
40
1.5000000000000071
210
0
220
0
230
1
0
CIRCLE
5
102
100
AcDbEntity
8
0
100
AcDbCircle
10
17.5
20
5
30
0
40
1.5000000000000011
210
0
220
0
230
1
0
CIRCLE
5
103
100
AcDbEntity
8
0
100
AcDbCircle
10
162.5
20
5
30
0
40
1.5000000000000067
210
0
220
0
230
1
0
CIRCLE
5
104
100
AcDbEntity
8
0
100
AcDbCircle
10
197.5
20
5
30
0
40
1.4999999999999891
210
0
220
0
230
1
0
CIRCLE
5
105
100
AcDbEntity
8
0
100
AcDbCircle
10
277.5
20
5
30
0
40
1.4999999999999858
210
0
220
0
230
1
0
CIRCLE
5
106
100
AcDbEntity
8
0
100
AcDbCircle
10
347.5
20
5
30
0
40
1.5000000000000091
210
0
220
0
230
1
0
CIRCLE
5
107
100
AcDbEntity
8
0
100
AcDbCircle
10
352.5
20
-130
30
0
40
1.5000000000000115
210
0
220
0
230
1
0
CIRCLE
5
108
100
AcDbEntity
8
0
100
AcDbCircle
10
277.5
20
-130
30
0
40
1.499999999999986
210
0
220
0
230
1
0
CIRCLE
5
109
100
AcDbEntity
8
0
100
AcDbCircle
10
220
20
-170
30
0
40
1.4999999999999889
210
0
220
0
230
1
0
CIRCLE
5
110
100
AcDbEntity
8
0
100
AcDbCircle
10
140
20
-170
30
0
40
1.5000000000000113
210
0
220
0
230
1
0
CIRCLE
5
111
100
AcDbEntity
8
0
100
AcDbCircle
10
92.5
20
-130
30
0
40
1.4999999999999978
210
0
220
0
230
1
0
CIRCLE
5
112
100
AcDbEntity
8
0
100
AcDbCircle
10
17.5
20
-130
30
0
40
1.5000000000000009
210
0
220
0
230
1
0
ENDSEC
0
SECTION
2
OBJECTS
0
DICTIONARY
5
C
100
AcDbDictionary
3
ACAD_GROUP
350
D
3
ACAD_MLINESTYLE
350
17
0
DICTIONARY
5
D
100
AcDbDictionary
0
DICTIONARY
5
1A
330
C
100
AcDbDictionary
0
DICTIONARY
5
17
100
AcDbDictionary
0
ENDSEC
0
EOF
