0
SECTION
2
HEADER
9
$INSUNITS
70
4
9
$ACADVER
1
AC1014
9
$HANDSEED
5
FFFF
0
ENDSEC
0
SECTION
2
TABLES
0
TABLE
2
VPORT
5
8
100
AcDbSymbolTable
0
ENDTAB
0
TABLE
2
LTYPE
5
5
100
AcDbSymbolTable
0
LTYPE
5
14
100
AcDbSymbolTableRecord
100
AcDbLinetypeTableRecord
2
BYBLOCK
70
0
0
LTYPE
5
15
100
AcDbSymbolTableRecord
100
AcDbLinetypeTableRecord
2
BYLAYER
70
0
0
ENDTAB
0
TABLE
2
LAYER
5
2
100
AcDbSymbolTable
70
2
0
LAYER
5
50
100
AcDbSymbolTableRecord
100
AcDbLayerTableRecord
2
0
70
0
6
CONTINUOUS
0
ENDTAB
0
TABLE
2
STYLE
5
3
100
AcDbSymbolTable
70
1
0
STYLE
5
11
100
AcDbSymbolTableRecord
100
AcDbTextStyleTableRecord
2
STANDARD
70
0
0
ENDTAB
0
TABLE
2
VIEW
5
6
100
AcDbSymbolTable
70
0
0
ENDTAB
0
TABLE
2
UCS
5
7
100
AcDbSymbolTable
70
0
0
ENDTAB
0
TABLE
2
APPID
5
9
100
AcDbSymbolTable
70
2
0
APPID
5
12
100
AcDbSymbolTableRecord
100
AcDbRegAppTableRecord
2
ACAD
70
0
0
ENDTAB
0
TABLE
2
DIMSTYLE
5
A
100
AcDbSymbolTable
70
1
0
ENDTAB
0
TABLE
2
BLOCK_RECORD
5
1
100
AcDbSymbolTable
70
1
0
BLOCK_RECORD
5
1F
100
AcDbSymbolTableRecord
100
AcDbBlockTableRecord
2
*MODEL_SPACE
0
BLOCK_RECORD
5
1B
100
AcDbSymbolTableRecord
100
AcDbBlockTableRecord
2
*PAPER_SPACE
0
ENDTAB
0
ENDSEC
0
SECTION
2
BLOCKS
0
BLOCK
5
20
100
AcDbEntity
100
AcDbBlockBegin
2
*MODEL_SPACE
0
ENDBLK
5
21
100
AcDbEntity
100
AcDbBlockEnd
0
BLOCK
5
1C
100
AcDbEntity
100
AcDbBlockBegin
2
*PAPER_SPACE
0
ENDBLK
5
1D
100
AcDbEntity
100
AcDbBlockEnd
0
ENDSEC
0
SECTION
2
ENTITIES
0
LWPOLYLINE
5
100
100
AcDbEntity
8
0
100
AcDbPolyline
90
32
70
1
43
0.0
10
170
20
0
10
170
20
10.00000000000002
10
-4.747053798287464e-15
20
10.000000000000009
42
0.41421356237309503
10
-5
20
5.0000000000000178
10
-5
20
-129.99999999999997
42
0.41421356237309503
10
1.7763568394002505e-14
20
-135
10
100.35376179246462
20
-134.99999999999997
42
-0.25859252483733369
10
104.59375331249008
20
-137.3500052999841
10
126.71795460742334
20
-172.74872737187732
42
0.2585925248373348
10
130.95794612744879
20
-175.0987326718614
10
229.61402496706484
20
-175.0987326718614
42
0.25859252483733047
10
233.85401648709032
20
-172.74872737187732
10
255.97821778202353
20
-137.35000529998413
42
-0.25859252483733192
10
260.21820930204899
20
-135.00000000000003
10
370
20
-135
42
0.41421356237309503
10
375
20
-130.00000000000003
10
375
20
5.0000000000000933
42
0.41421356237309503
10
370.00000000000006
20
10.000000000000021
10
190
20
10.000000000000025
10
190
20
0
10
365
20
-2.1094237467877974e-14
42
-0.41421356237310203
10
370
20
-5
10
370
20
-120
42
-0.41421356237310125
10
365
20
-125
10
255
20
-125
10
230
20
-165
10
130
20
-165
10
105
20
-125
10
5
20
-125
42
-0.41421356237309331
10
0
20
-120
10
0
20
-5
42
-0.41421356237309559
10
5
20
0
0
CIRCLE
5
101
100
AcDbEntity
8
0
100
AcDbCircle
10
197.5
20
5
30
0
40
1.5000000000000113
210
0
220
0
230
1
0
CIRCLE
5
102
100
AcDbEntity
8
0
100
AcDbCircle
10
277.5
20
5
30
0
40
1.5000000000000113
210
0
220
0
230
1
0
CIRCLE
5
103
100
AcDbEntity
8
0
100
AcDbCircle
10
347.5
20
5
30
0
40
1.5000000000000222
210
0
220
0
230
1
0
CIRCLE
5
104
100
AcDbEntity
8
0
100
AcDbCircle
10
352.5
20
-130
30
0
40
1.5000000000000071
210
0
220
0
230
1
0
CIRCLE
5
105
100
AcDbEntity
8
0
100
AcDbCircle
10
277.5
20
-130
30
0
40
1.4999999999999911
210
0
220
0
230
1
0
CIRCLE
5
106
100
AcDbEntity
8
0
100
AcDbCircle
10
220
20
-170
30
0
40
1.4999999999999849
210
0
220
0
230
1
0
CIRCLE
5
107
100
AcDbEntity
8
0
100
AcDbCircle
10
140
20
-170
30
0
40
1.4999999999999978
210
0
220
0
230
1
0
CIRCLE
5
108
100
AcDbEntity
8
0
100
AcDbCircle
10
17.5
20
-130
30
0
40
1.4999999999999987
210
0
220
0
230
1
0
CIRCLE
5
109
100
AcDbEntity
8
0
100
AcDbCircle
10
92.5
20
-130
30
0
40
1.4999999999999971
210
0
220
0
230
1
0
CIRCLE
5
110
100
AcDbEntity
8
0
100
AcDbCircle
10
162.5
20
5
30
0
40
1.4999999999999951
210
0
220
0
230
1
0
CIRCLE
5
111
100
AcDbEntity
8
0
100
AcDbCircle
10
92.5
20
5
30
0
40
1.5000000000000033
210
0
220
0
230
1
0
CIRCLE
5
112
100
AcDbEntity
8
0
100
AcDbCircle
10
17.5
20
5
30
0
40
1.5000000000000009
210
0
220
0
230
1
0
LWPOLYLINE
5
113
100
AcDbEntity
8
0
100
AcDbPolyline
90
16
70
1
43
0.0
10
357.66846012214353
20
-4.9895000755402741
10
37.668460122143571
20
-4.989500075540251
42
0.41421356237309592
10
32.668460122143564
20
-9.9895000755402528
10
32.668460122143571
20
-15.010700314864881
42
0.41421356237309437
10
37.668460122143586
20
-20.010700314864877
10
155.00453644282243
20
-20.010700314864884
42
-0.41421356237309453
10
160.00453644282243
20
-25.010700314864884
10
160.00453644282243
20
-111.65309910691602
42
0.41421356237309398
10
165.00453644282243
20
-116.65309910691599
10
195.00501421976892
20
-116.65309910691597
42
0.41421356237309398
10
200.00501421976892
20
-111.65309910691599
10
200.00501421976892
20
-24.989343090570735
42
-0.41421356237309426
10
205.00501421976892
20
-19.989343090570749
10
357.66846012214353
20
-19.989343090570685
42
0.41421356237310203
10
362.66846012214353
20
-14.989343090570685
10
362.66846012214353
20
-9.989500075540251
42
0.41421356237310197
0
CIRCLE
5
114
100
AcDbEntity
8
0
100
AcDbCircle
10
180
20
-112.5
30
0
40
1.5000000000000138
210
0
220
0
230
1
0
CIRCLE
5
115
100
AcDbEntity
8
0
100
AcDbCircle
10
37.5
20
-12.5
30
0
40
1.4999999999999989
210
0
220
0
230
1
0
CIRCLE
5
116
100
AcDbEntity
8
0
100
AcDbCircle
10
162.5
20
-12.5
30
0
40
1.4999999999999925
210
0
220
0
230
1
0
CIRCLE
5
117
100
AcDbEntity
8
0
100
AcDbCircle
10
197.5
20
-12.5
30
0
40
1.5000000000000011
210
0
220
0
230
1
0
CIRCLE
5
118
100
AcDbEntity
8
0
100
AcDbCircle
10
357.5
20
-12.5
30
0
40
1.5000000000000067
210
0
220
0
230
1
0
ARC
5
119
100
AcDbEntity
8
0
100
AcDbCircle
10
195.00501421976892
20
-111.65309910691597
30
0
40
5.0000000000000178
210
0
220
0
230
1
100
AcDbArc
50
270
51
360
0
ENDSEC
0
SECTION
2
OBJECTS
0
DICTIONARY
5
C
100
AcDbDictionary
3
ACAD_GROUP
350
D
3
ACAD_MLINESTYLE
350
17
0
DICTIONARY
5
D
100
AcDbDictionary
0
DICTIONARY
5
1A
330
C
100
AcDbDictionary
0
DICTIONARY
5
17
100
AcDbDictionary
0
ENDSEC
0
EOF
