<?xml version="1.0" standalone="no"?>
 <!DOCTYPE svg PUBLIC "-//W3C//DTD SVG 1.1//EN" 
 "http://www.w3.org/Graphics/SVG/1.1/DTD/svg11.dtd"> 
<svg
  xmlns:svg="http://www.w3.org/2000/svg"
  xmlns="http://www.w3.org/2000/svg"
  xmlns:xlink="http://www.w3.org/1999/xlink"
  version="1.1"
  width="39.743380cm" height="17.802860cm" viewBox="0 0 156470 70090">
<title>SVG Picture created as orthoCode-Eco1_User.svg date 2020/09/03 16:19:05 </title>
  <desc>Picture generated by PCBNEW </desc>
<g style="fill:#000000; fill-opacity:1;stroke:#000000; stroke-opacity:1;
stroke-linecap:round; stroke-linejoin:round;"
 transform="translate(0 0) scale(1 1)">
</g>
<g style="fill:#000000; fill-opacity:0.0; 
stroke:#000000; stroke-width:-0.000393701; stroke-opacity:1; 
stroke-linecap:round; stroke-linejoin:round;">
</g>
<g style="fill:#000000; fill-opacity:0.0; 
stroke:#000000; stroke-width:59.0551; stroke-opacity:1; 
stroke-linecap:round; stroke-linejoin:round;">
<path d="M3432 51754
L3432 2542
" />
<path d="M46739 53723
L5400 53723
" />
<path d="M56581 69471
L46739 53723
" />
<path d="M95951 69471
L56581 69471
" />
<path d="M105794 53723
L95951 69471
" />
<path d="M151070 53723
L105794 53723
" />
<path d="M153038 2542
L153038 51754
" />
<path d="M5400 573
L151070 573
" />
<path d="M153039 2542.32 A1968.5 1968.5 0.0 0 0 151070 573.819" />
<path d="M151070 53723.4 A1968.5 1968.5 0.0 0 0 153039 51754.9" />
<path d="M3432.23 51754.9 A1968.5 1968.5 0.0 0 0 5400.73 53723.4" />
<path d="M5400.73 573.819 A1968.5 1968.5 0.0 0 0 3432.23 2542.32" />
</g>
<g style="fill:#000000; fill-opacity:0.0; 
stroke:#000000; stroke-width:47.2441; stroke-opacity:1; 
stroke-linecap:round; stroke-linejoin:round;">
<circle cx="76266.9" cy="46833.7" r="472.441" /> 
<circle cx="124495" cy="46833.7" r="472.441" /> 
<circle cx="76266.9" cy="57660.4" r="472.441" /> 
<circle cx="45755.1" cy="46833.7" r="472.441" /> 
<circle cx="10322" cy="46833.7" r="472.441" /> 
<circle cx="20164.5" cy="7463.58" r="472.441" /> 
<circle cx="69377.1" cy="7463.58" r="472.441" /> 
<circle cx="67408.6" cy="27148.6" r="472.441" /> 
<circle cx="85125.1" cy="27148.6" r="472.441" /> 
<circle cx="83156.6" cy="7463.58" r="472.441" /> 
<circle cx="146149" cy="7463.58" r="472.441" /> 
<circle cx="144180" cy="40928.1" r="472.441" /> 
<circle cx="124495" cy="46833.7" r="472.441" /> 
<circle cx="114653" cy="52739.2" r="472.441" /> 
<circle cx="93983.4" cy="68487.2" r="472.441" /> 
<circle cx="58550.3" cy="68487.2" r="472.441" /> 
<circle cx="41818.1" cy="52739.2" r="472.441" /> 
<circle cx="12290.5" cy="52739.2" r="472.441" /> 
<circle cx="4416.48" cy="44865.2" r="472.441" /> 
<circle cx="4416.48" cy="9432.09" r="472.441" /> 
<circle cx="12290.5" cy="1558.07" r="472.441" /> 
<circle cx="41818.1" cy="1558.07" r="472.441" /> 
<circle cx="69377.1" cy="1558.07" r="472.441" /> 
<circle cx="83156.6" cy="1558.07" r="472.441" /> 
<circle cx="114653" cy="1558.07" r="472.441" /> 
<circle cx="142212" cy="1558.07" r="472.441" /> 
<circle cx="152054" cy="9432.09" r="472.441" /> 
<circle cx="144180" cy="52739.2" r="472.441" /> 
<circle cx="152054" cy="44865.2" r="472.441" /> 
<g >
</g>
<g >
</g>
<g >
</g>
<g >
</g>
<g >
</g>
<g >
</g>
<g >
</g>
<g >
</g>
<g >
</g>
<g >
</g>
<g >
</g>
<g >
</g>
<g >
</g>
<g >
</g>
<g >
</g>
<g >
</g>
<g >
</g>
<g >
</g>
<g >
</g>
<g >
</g>
<g >
</g>
<g >
</g>
<g >
</g>
<g >
</g>
<g >
</g>
<g >
</g>
<g >
</g>
<g >
</g>
<g >
</g>
<g >
</g>
<g >
</g>
<g >
</g>
<g >
</g>
<g >
</g>
<g >
</g>
<g >
</g>
<g >
</g>
<g >
</g>
<g >
</g>
<g >
</g>
<g >
</g>
<g >
</g>
<g >
</g>
<g >
</g>
<g >
</g>
<g >
</g>
<g >
</g>
<g >
</g>
<g >
</g>
<g >
</g>
<g >
</g>
<g >
</g>
<g >
</g>
<g >
</g>
<g >
</g>
<g >
</g>
<g >
</g>
<g >
</g>
<g >
</g>
<g >
</g>
<g >
</g>
<g >
</g>
<g >
</g>
<g >
</g>
<g >
</g>
<g >
</g>
<g >
</g>
<g >
</g>
<g >
</g>
<g >
</g>
<g >
</g>
<g >
</g>
<g >
</g>
<g >
</g>
<g >
</g>
<g >
</g>
<g >
</g>
<g >
</g>
<g >
</g>
<g >
</g>
<g >
</g>
<g >
</g>
<g >
</g>
<g >
</g>
<g >
</g>
<g >
</g>
<g >
</g>
<g >
</g>
<g >
</g>
<g >
</g>
<g >
</g>
<g >
</g>
<g >
</g>
<g >
</g>
<g >
</g>
<g >
</g>
<g >
</g>
<g >
</g>
<g >
</g>
<g >
</g>
<g >
</g>
<g >
</g>
<g >
</g>
<g >
</g>
<g >
</g>
<g >
</g>
<g >
</g>
<g >
</g>
<g >
</g>
<g >
</g>
<g >
</g>
<g >
</g>
<g >
</g>
<g >
</g>
<g >
</g>
<g >
</g>
<g >
</g>
<g >
</g>
<g >
</g>
<g >
</g>
<g >
</g>
<g >
</g>
<g >
</g>
<g >
</g>
<g >
</g>
<g >
</g>
<g >
</g>
<g >
</g>
<g >
</g>
<g >
</g>
<g >
</g>
<g >
</g>
<g >
</g>
<g >
</g>
<g >
</g>
<g >
</g>
<g >
</g>
<g >
</g>
<g >
</g>
<g >
</g>
<g >
</g>
<g >
</g>
<g >
</g>
<g >
</g>
<g >
</g>
<g >
</g>
<g >
</g>
<g >
</g>
<g >
</g>
<g >
</g>
<g >
</g>
<g >
</g>
<g >
</g>
<g >
</g>
<g >
</g>
<g >
</g>
<g >
</g>
<g >
</g>
<g >
</g>
<g >
</g>
<g >
</g>
<g >
</g>
<g >
</g>
<g >
</g>
<g >
</g>
<g >
</g>
<g >
</g>
<g >
</g>
<g >
</g>
<g >
</g>
<g >
</g>
<g >
</g>
<g >
</g>
<g >
</g>
<g >
</g>
<g >
</g>
<g >
</g>
<g >
</g>
<g >
</g>
<g >
</g>
<g >
</g>
<g >
</g>
<g >
</g>
<g >
</g>
<g >
</g>
<g >
</g>
<g >
</g>
<g >
</g>
<g >
</g>
<g >
</g>
<g >
</g>
<g >
</g>
<g >
</g>
<g >
</g>
<g >
</g>
<g >
</g>
<g >
</g>
<g >
</g>
<g >
</g>
<g >
</g>
<g >
</g>
<g >
</g>
<g >
</g>
<g >
</g>
<g >
</g>
<g >
</g>
<g >
</g>
<g >
</g>
<g >
</g>
<g >
</g>
<g >
</g>
<g >
</g>
<g >
</g>
<g >
</g>
<g >
</g>
<g >
</g>
<g >
</g>
<g >
</g>
<g >
</g>
<g >
</g>
<g >
</g>
<g >
</g>
<g >
</g>
</g> 
</svg>
