<?xml version="1.0" standalone="no"?>
 <!DOCTYPE svg PUBLIC "-//W3C//DTD SVG 1.1//EN" 
 "http://www.w3.org/Graphics/SVG/1.1/DTD/svg11.dtd"> 
<svg
  xmlns:svg="http://www.w3.org/2000/svg"
  xmlns="http://www.w3.org/2000/svg"
  xmlns:xlink="http://www.w3.org/1999/xlink"
  version="1.1"
  width="39.743380cm" height="17.802860cm" viewBox="0 0 156470 70090">
<title>SVG Picture created as orthoCode-Eco2_User.svg date 2020/09/03 16:19:05 </title>
  <desc>Picture generated by PCBNEW </desc>
<g style="fill:#000000; fill-opacity:1;stroke:#000000; stroke-opacity:1;
stroke-linecap:round; stroke-linejoin:round;"
 transform="translate(0 0) scale(1 1)">
</g>
<g style="fill:#000000; fill-opacity:0.0; 
stroke:#000000; stroke-width:-0.000393701; stroke-opacity:1; 
stroke-linecap:round; stroke-linejoin:round;">
</g>
<g style="fill:#000000; fill-opacity:0.0; 
stroke:#000000; stroke-width:59.0551; stroke-opacity:1; 
stroke-linecap:round; stroke-linejoin:round;">
<circle cx="76266.9" cy="46833.7" r="1391.94" /> 
<path d="M10321 12384
L11306 12384
" />
<path d="M10321 4510
L10321 12384
" />
<path d="M18196 4510
L10321 4510
" />
<path d="M18196 12384
L18196 4510
" />
<path d="M11306 12384
L18196 12384
" />
<path d="M26070 10416
L67408 10416
" />
<path d="M26070 4510
L26070 10416
" />
<path d="M67408 4510
L26070 4510
" />
<path d="M67408 10416
L67408 4510
" />
<path d="M130400 4510
L85125 4510
" />
<path d="M130400 10416
L130400 4510
" />
<path d="M85125 10416
L130400 10416
" />
<path d="M85125 4510
L85125 10416
" />
<path d="M46739 53723
L56581 69471
" />
<path d="M5400 53723
L46739 53723
" />
<path d="M3432 2542
L3432 51754
" />
<path d="M151070 573
L5400 573
" />
<path d="M3432.23 51754.9 A1968.5 1968.5 0.0 0 0 5400.73 53723.4" />
<path d="M5400.73 573.819 A1968.5 1968.5 0.0 0 0 3432.23 2542.32" />
<path d="M153039 2542.32 A1968.5 1968.5 0.0 0 0 151070 573.819" />
<path d="M153038 51754
L153038 2542
" />
<path d="M151070 53723.4 A1968.5 1968.5 0.0 0 0 153039 51754.9" />
<path d="M105794 53723
L151070 53723
" />
<path d="M95951 69471
L105794 53723
" />
<path d="M56581 69471
L95951 69471
" />
<path d="M83156 12384
L69377 12384
" />
<path d="M83156.6 44865.2 A984.252 984.252 0.0 0 0 84140.9 43880.9" />
<path d="M68392.9 43880.9 A984.252 984.252 0.0 0 0 69377.1 44865.2" />
<path d="M69377.1 12384.8 A984.252 984.252 0.0 0 0 68392.9 13369.1" />
<path d="M84140.9 13369.1 A984.252 984.252 0.0 0 0 83156.6 12384.8" />
<path d="M68392 43880
L68392 13369
" />
<path d="M83156 44865
L69377 44865
" />
<path d="M84140 13369
L84140 43880
" />
<circle cx="76266.9" cy="57660.4" r="1391.94" /> 
<circle cx="45755.1" cy="46833.7" r="1391.94" /> 
<circle cx="10322" cy="46833.7" r="1391.94" /> 
<circle cx="20164.5" cy="7463.58" r="1391.94" /> 
<circle cx="69377.1" cy="7463.58" r="1391.94" /> 
<circle cx="67408.6" cy="27148.6" r="1391.94" /> 
<circle cx="85125.1" cy="27148.6" r="1391.94" /> 
<circle cx="83156.6" cy="7463.58" r="1391.94" /> 
<circle cx="146149" cy="7463.58" r="1391.94" /> 
<circle cx="144180" cy="40928.1" r="1391.94" /> 
<circle cx="124495" cy="46833.7" r="1391.94" /> 
</g>
<g style="fill:#000000; fill-opacity:0.0; 
stroke:#000000; stroke-width:60; stroke-opacity:1; 
stroke-linecap:round; stroke-linejoin:round;">
<path d="M65535 52490
L64112 57802
" />
<path d="M64112 57802
L63310 57587
" />
<path d="M63310 57587
L63144 58205
" />
<path d="M63144 58205
L63453 58288
" />
<path d="M63453 58288
L62775 60819
" />
<path d="M62775 60819
L61481 60472
" />
<path d="M61481 60472
L61393 60801
" />
<path d="M61393 60801
L60330 60516
" />
<path d="M60330 60516
L60418 60187
" />
<path d="M60418 60187
L58100 59566
" />
<path d="M58100 59566
L58206 59170
" />
<path d="M58206 59170
L57762 59051
" />
<path d="M57762 59051
L58228 57313
" />
<path d="M58228 57313
L58672 57432
" />
<path d="M58672 57432
L58778 57036
" />
<path d="M58778 57036
L59078 57116
" />
<path d="M59078 57116
L59243 56498
" />
<path d="M59243 56498
L58799 56379
" />
<path d="M58799 56379
L60222 51066
" />
<path d="M60222 51066
L60667 51185
" />
<path d="M60667 51185
L60832 50567
" />
<path d="M60832 50567
L60533 50487
" />
<path d="M60533 50487
L60639 50091
" />
<path d="M60639 50091
L60195 49972
" />
<path d="M60195 49972
L60661 48233
" />
<path d="M60661 48233
L61105 48352
" />
<path d="M61105 48352
L61211 47956
" />
<path d="M61211 47956
L63529 48577
" />
<path d="M63529 48577
L63617 48249
" />
<path d="M63617 48249
L64680 48533
" />
<path d="M64680 48533
L64592 48862
" />
<path d="M64592 48862
L65886 49209
" />
<path d="M65886 49209
L65208 51739
" />
<path d="M65208 51739
L64899 51656
" />
<path d="M64899 51656
L64733 52275
" />
<path d="M64733 52275
L65535 52490
" />
</g>
<g style="fill:#000000; fill-opacity:0.0; 
stroke:#000000; stroke-width:47.2441; stroke-opacity:1; 
stroke-linecap:round; stroke-linejoin:round;">
<circle cx="114653" cy="52739.2" r="472.441" /> 
<circle cx="144180" cy="52739.2" r="472.441" /> 
<circle cx="152054" cy="44865.2" r="472.441" /> 
<circle cx="152054" cy="9432.09" r="472.441" /> 
<circle cx="142212" cy="1558.07" r="472.441" /> 
<circle cx="114653" cy="1558.07" r="472.441" /> 
<circle cx="93983.4" cy="68487.2" r="472.441" /> 
<circle cx="58550.3" cy="68487.2" r="472.441" /> 
<circle cx="41818.1" cy="52739.2" r="472.441" /> 
<circle cx="12290.5" cy="52739.2" r="472.441" /> 
<circle cx="4416.48" cy="44865.2" r="472.441" /> 
<circle cx="4416.48" cy="9432.09" r="472.441" /> 
<circle cx="12290.5" cy="1558.07" r="472.441" /> 
<circle cx="41818.1" cy="1558.07" r="472.441" /> 
<circle cx="69377.1" cy="1558.07" r="472.441" /> 
<circle cx="83156.6" cy="1558.07" r="472.441" /> 
</g>
<g style="fill:#000000; fill-opacity:0.0; 
stroke:#000000; stroke-width:60; stroke-opacity:1; 
stroke-linecap:round; stroke-linejoin:round;">
<path d="M88347 57802
L86924 52490
" />
<path d="M86924 52490
L87726 52275
" />
<path d="M87726 52275
L87560 51656
" />
<path d="M87560 51656
L87251 51739
" />
<path d="M87251 51739
L86573 49209
" />
<path d="M86573 49209
L87867 48862
" />
<path d="M87867 48862
L87779 48533
" />
<path d="M87779 48533
L88842 48249
" />
<path d="M88842 48249
L88930 48577
" />
<path d="M88930 48577
L91248 47956
" />
<path d="M91248 47956
L91354 48352
" />
<path d="M91354 48352
L91798 48233
" />
<path d="M91798 48233
L92264 49972
" />
<path d="M92264 49972
L91820 50091
" />
<path d="M91820 50091
L91926 50487
" />
<path d="M91926 50487
L91627 50567
" />
<path d="M91627 50567
L91792 51185
" />
<path d="M91792 51185
L92237 51066
" />
<path d="M92237 51066
L93660 56379
" />
<path d="M93660 56379
L93216 56498
" />
<path d="M93216 56498
L93381 57116
" />
<path d="M93381 57116
L93681 57036
" />
<path d="M93681 57036
L93787 57432
" />
<path d="M93787 57432
L94231 57313
" />
<path d="M94231 57313
L94697 59051
" />
<path d="M94697 59051
L94253 59170
" />
<path d="M94253 59170
L94359 59566
" />
<path d="M94359 59566
L92041 60187
" />
<path d="M92041 60187
L92129 60516
" />
<path d="M92129 60516
L91066 60801
" />
<path d="M91066 60801
L90978 60472
" />
<path d="M90978 60472
L89684 60819
" />
<path d="M89684 60819
L89006 58288
" />
<path d="M89006 58288
L89315 58205
" />
<path d="M89315 58205
L89149 57587
" />
<path d="M89149 57587
L88347 57802
" />
<path d="M84737 52941
L86160 58254
" />
<path d="M86160 58254
L85358 58468
" />
<path d="M85358 58468
L85524 59087
" />
<path d="M85524 59087
L85833 59004
" />
<path d="M85833 59004
L86511 61535
" />
<path d="M86511 61535
L85217 61881
" />
<path d="M85217 61881
L85305 62210
" />
<path d="M85305 62210
L84242 62494
" />
<path d="M84242 62494
L84154 62166
" />
<path d="M84154 62166
L81836 62787
" />
<path d="M81836 62787
L81730 62391
" />
<path d="M81730 62391
L81286 62510
" />
<path d="M81286 62510
L80820 60772
" />
<path d="M80820 60772
L81264 60652
" />
<path d="M81264 60652
L81158 60256
" />
<path d="M81158 60256
L81457 60176
" />
<path d="M81457 60176
L81292 59558
" />
<path d="M81292 59558
L80847 59677
" />
<path d="M80847 59677
L79424 54365
" />
<path d="M79424 54365
L79868 54245
" />
<path d="M79868 54245
L79703 53627
" />
<path d="M79703 53627
L79403 53707
" />
<path d="M79403 53707
L79297 53311
" />
<path d="M79297 53311
L78853 53431
" />
<path d="M78853 53431
L78387 51692
" />
<path d="M78387 51692
L78831 51573
" />
<path d="M78831 51573
L78725 51177
" />
<path d="M78725 51177
L81043 50556
" />
<path d="M81043 50556
L80955 50227
" />
<path d="M80955 50227
L82018 49942
" />
<path d="M82018 49942
L82106 50271
" />
<path d="M82106 50271
L83400 49924
" />
<path d="M83400 49924
L84078 52455
" />
<path d="M84078 52455
L83769 52538
" />
<path d="M83769 52538
L83935 53156
" />
<path d="M83935 53156
L84737 52941
" />
<path d="M50042 43247
L55542 43247
" />
<path d="M55542 43247
L55542 48747
" />
<path d="M55542 48747
L50042 48747
" />
<path d="M50042 48747
L50042 43247
" />
<path d="M18167 43247
L23667 43247
" />
<path d="M23667 43247
L23667 48747
" />
<path d="M23667 48747
L18167 48747
" />
<path d="M18167 48747
L18167 43247
" />
<path d="M27542 43247
L33042 43247
" />
<path d="M33042 43247
L33042 48747
" />
<path d="M33042 48747
L27542 48747
" />
<path d="M27542 48747
L27542 43247
" />
<path d="M36917 48747
L36917 43247
" />
<path d="M42417 48747
L36917 48747
" />
<path d="M42417 43247
L42417 48747
" />
<path d="M36917 43247
L42417 43247
" />
<path d="M66299 58254
L67722 52941
" />
<path d="M67722 52941
L68524 53156
" />
<path d="M68524 53156
L68690 52538
" />
<path d="M68690 52538
L68381 52455
" />
<path d="M68381 52455
L69059 49924
" />
<path d="M69059 49924
L70353 50271
" />
<path d="M70353 50271
L70441 49942
" />
<path d="M70441 49942
L71504 50227
" />
<path d="M71504 50227
L71416 50556
" />
<path d="M71416 50556
L73734 51177
" />
<path d="M73734 51177
L73628 51573
" />
<path d="M73628 51573
L74072 51692
" />
<path d="M74072 51692
L73606 53431
" />
<path d="M73606 53431
L73162 53311
" />
<path d="M73162 53311
L73056 53707
" />
<path d="M73056 53707
L72756 53627
" />
<path d="M72756 53627
L72591 54245
" />
<path d="M72591 54245
L73035 54365
" />
<path d="M73035 54365
L71612 59677
" />
<path d="M71612 59677
L71167 59558
" />
<path d="M71167 59558
L71002 60176
" />
<path d="M71002 60176
L71301 60256
" />
<path d="M71301 60256
L71195 60652
" />
<path d="M71195 60652
L71639 60772
" />
<path d="M71639 60772
L71173 62510
" />
<path d="M71173 62510
L70729 62391
" />
<path d="M70729 62391
L70623 62787
" />
<path d="M70623 62787
L68305 62166
" />
<path d="M68305 62166
L68217 62494
" />
<path d="M68217 62494
L67154 62210
" />
<path d="M67154 62210
L67242 61881
" />
<path d="M67242 61881
L65948 61535
" />
<path d="M65948 61535
L66626 59004
" />
<path d="M66626 59004
L66935 59087
" />
<path d="M66935 59087
L67101 58468
" />
<path d="M67101 58468
L66299 58254
" />
<path d="M96917 43247
L102417 43247
" />
<path d="M102417 43247
L102417 48747
" />
<path d="M102417 48747
L96917 48747
" />
<path d="M96917 48747
L96917 43247
" />
<path d="M106292 48747
L106292 43247
" />
<path d="M111792 48747
L106292 48747
" />
<path d="M111792 43247
L111792 48747
" />
<path d="M106292 43247
L111792 43247
" />
<path d="M115667 43247
L121167 43247
" />
<path d="M121167 43247
L121167 48747
" />
<path d="M121167 48747
L115667 48747
" />
<path d="M115667 48747
L115667 43247
" />
<path d="M127854 43247
L133354 43247
" />
<path d="M133354 43247
L133354 48747
" />
<path d="M133354 48747
L127854 48747
" />
<path d="M127854 48747
L127854 43247
" />
<path d="M135354 43247
L140854 43247
" />
<path d="M140854 43247
L140854 48747
" />
<path d="M140854 48747
L135354 48747
" />
<path d="M135354 48747
L135354 43247
" />
<path d="M142854 43247
L148354 43247
" />
<path d="M148354 43247
L148354 48747
" />
<path d="M148354 48747
L142854 48747
" />
<path d="M142854 48747
L142854 43247
" />
<path d="M30354 35747
L35854 35747
" />
<path d="M35854 35747
L35854 41247
" />
<path d="M35854 41247
L30354 41247
" />
<path d="M30354 41247
L30354 35747
" />
<path d="M37854 35747
L43354 35747
" />
<path d="M43354 35747
L43354 41247
" />
<path d="M43354 41247
L37854 41247
" />
<path d="M37854 41247
L37854 35747
" />
<path d="M45354 41247
L45354 35747
" />
<path d="M50854 41247
L45354 41247
" />
<path d="M50854 35747
L50854 41247
" />
<path d="M45354 35747
L50854 35747
" />
<path d="M52854 41247
L52854 35747
" />
<path d="M58354 41247
L52854 41247
" />
<path d="M58354 35747
L58354 41247
" />
<path d="M52854 35747
L58354 35747
" />
<path d="M60354 41247
L60354 35747
" />
<path d="M65854 41247
L60354 41247
" />
<path d="M65854 35747
L65854 41247
" />
<path d="M60354 35747
L65854 35747
" />
<path d="M86604 35747
L92104 35747
" />
<path d="M92104 35747
L92104 41247
" />
<path d="M92104 41247
L86604 41247
" />
<path d="M86604 41247
L86604 35747
" />
<path d="M94104 35747
L99604 35747
" />
<path d="M99604 35747
L99604 41247
" />
<path d="M99604 41247
L94104 41247
" />
<path d="M94104 41247
L94104 35747
" />
<path d="M101604 41247
L101604 35747
" />
<path d="M107104 41247
L101604 41247
" />
<path d="M107104 35747
L107104 41247
" />
<path d="M101604 35747
L107104 35747
" />
<path d="M109104 41247
L109104 35747
" />
<path d="M114604 41247
L109104 41247
" />
<path d="M114604 35747
L114604 41247
" />
<path d="M109104 35747
L114604 35747
" />
<path d="M116604 35747
L122104 35747
" />
<path d="M122104 35747
L122104 41247
" />
<path d="M122104 41247
L116604 41247
" />
<path d="M116604 41247
L116604 35747
" />
<path d="M135354 41247
L135354 35747
" />
<path d="M140854 41247
L135354 41247
" />
<path d="M140854 35747
L140854 41247
" />
<path d="M135354 35747
L140854 35747
" />
<path d="M7854 28247
L13354 28247
" />
<path d="M13354 28247
L13354 33747
" />
<path d="M13354 33747
L7854 33747
" />
<path d="M7854 33747
L7854 28247
" />
<path d="M20042 28247
L25542 28247
" />
<path d="M25542 28247
L25542 33747
" />
<path d="M25542 33747
L20042 33747
" />
<path d="M20042 33747
L20042 28247
" />
<path d="M30354 28247
L35854 28247
" />
<path d="M35854 28247
L35854 33747
" />
<path d="M35854 33747
L30354 33747
" />
<path d="M30354 33747
L30354 28247
" />
<path d="M37854 28247
L43354 28247
" />
<path d="M43354 28247
L43354 33747
" />
<path d="M43354 33747
L37854 33747
" />
<path d="M37854 33747
L37854 28247
" />
<path d="M45354 28247
L50854 28247
" />
<path d="M50854 28247
L50854 33747
" />
<path d="M50854 33747
L45354 33747
" />
<path d="M45354 33747
L45354 28247
" />
<path d="M52854 33747
L52854 28247
" />
<path d="M58354 33747
L52854 33747
" />
<path d="M58354 28247
L58354 33747
" />
<path d="M52854 28247
L58354 28247
" />
<path d="M60354 33747
L60354 28247
" />
<path d="M65854 33747
L60354 33747
" />
<path d="M65854 28247
L65854 33747
" />
<path d="M60354 28247
L65854 28247
" />
<path d="M86604 33747
L86604 28247
" />
<path d="M92104 33747
L86604 33747
" />
<path d="M92104 28247
L92104 33747
" />
<path d="M86604 28247
L92104 28247
" />
<path d="M94104 33747
L94104 28247
" />
<path d="M99604 33747
L94104 33747
" />
<path d="M99604 28247
L99604 33747
" />
<path d="M94104 28247
L99604 28247
" />
<path d="M101604 33747
L101604 28247
" />
<path d="M107104 33747
L101604 33747
" />
<path d="M107104 28247
L107104 33747
" />
<path d="M101604 28247
L107104 28247
" />
<path d="M109104 28247
L114604 28247
" />
<path d="M114604 28247
L114604 33747
" />
<path d="M114604 33747
L109104 33747
" />
<path d="M109104 33747
L109104 28247
" />
<path d="M116604 28247
L122104 28247
" />
<path d="M122104 28247
L122104 33747
" />
<path d="M122104 33747
L116604 33747
" />
<path d="M116604 33747
L116604 28247
" />
<path d="M124104 33747
L124104 28247
" />
<path d="M129604 33747
L124104 33747
" />
<path d="M129604 28247
L129604 33747
" />
<path d="M124104 28247
L129604 28247
" />
<path d="M136292 29077
L136292 28247
" />
<path d="M135652 29077
L136292 29077
" />
<path d="M135652 28757
L135652 29077
" />
<path d="M133032 28757
L135652 28757
" />
<path d="M133032 30097
L133032 28757
" />
<path d="M132692 30097
L133032 30097
" />
<path d="M132692 31197
L132692 30097
" />
<path d="M133032 31197
L132692 31197
" />
<path d="M133032 33597
L133032 31197
" />
<path d="M133442 33597
L133032 33597
" />
<path d="M133442 34057
L133442 33597
" />
<path d="M135242 34057
L133442 34057
" />
<path d="M135242 33597
L135242 34057
" />
<path d="M135652 33597
L135242 33597
" />
<path d="M135652 33287
L135652 33597
" />
<path d="M136292 33287
L135652 33287
" />
<path d="M136292 33747
L136292 33287
" />
<path d="M141792 33747
L136292 33747
" />
<path d="M141792 33287
L141792 33747
" />
<path d="M142432 33287
L141792 33287
" />
<path d="M142432 33597
L142432 33287
" />
<path d="M142842 33597
L142432 33597
" />
<path d="M142842 34057
L142842 33597
" />
<path d="M144642 34057
L142842 34057
" />
<path d="M144642 33597
L144642 34057
" />
<path d="M145052 33597
L144642 33597
" />
<path d="M145052 31197
L145052 33597
" />
<path d="M145392 31197
L145052 31197
" />
<path d="M145392 30097
L145392 31197
" />
<path d="M145052 30097
L145392 30097
" />
<path d="M145052 28757
L145052 30097
" />
<path d="M142432 28757
L145052 28757
" />
<path d="M142432 29077
L142432 28757
" />
<path d="M141792 29077
L142432 29077
" />
<path d="M141792 28247
L141792 29077
" />
<path d="M136292 28247
L141792 28247
" />
<path d="M9729 26247
L9729 20747
" />
<path d="M15229 26247
L9729 26247
" />
<path d="M15229 20747
L15229 26247
" />
<path d="M9729 20747
L15229 20747
" />
<path d="M20979 20747
L26479 20747
" />
<path d="M26479 20747
L26479 26247
" />
<path d="M26479 26247
L20979 26247
" />
<path d="M20979 26247
L20979 20747
" />
<path d="M30354 20747
L35854 20747
" />
<path d="M35854 20747
L35854 26247
" />
<path d="M35854 26247
L30354 26247
" />
<path d="M30354 26247
L30354 20747
" />
<path d="M37854 26247
L37854 20747
" />
<path d="M43354 26247
L37854 26247
" />
<path d="M43354 20747
L43354 26247
" />
<path d="M37854 20747
L43354 20747
" />
<path d="M45354 20747
L50854 20747
" />
<path d="M50854 20747
L50854 26247
" />
<path d="M50854 26247
L45354 26247
" />
<path d="M45354 26247
L45354 20747
" />
<path d="M52854 26247
L52854 20747
" />
<path d="M58354 26247
L52854 26247
" />
<path d="M58354 20747
L58354 26247
" />
<path d="M52854 20747
L58354 20747
" />
<path d="M60354 26247
L60354 20747
" />
<path d="M65854 26247
L60354 26247
" />
<path d="M65854 20747
L65854 26247
" />
<path d="M60354 20747
L65854 20747
" />
<path d="M86604 26247
L86604 20747
" />
<path d="M92104 26247
L86604 26247
" />
<path d="M92104 20747
L92104 26247
" />
<path d="M86604 20747
L92104 20747
" />
<path d="M94104 20747
L99604 20747
" />
<path d="M99604 20747
L99604 26247
" />
<path d="M99604 26247
L94104 26247
" />
<path d="M94104 26247
L94104 20747
" />
<path d="M101604 20747
L107104 20747
" />
<path d="M107104 20747
L107104 26247
" />
<path d="M107104 26247
L101604 26247
" />
<path d="M101604 26247
L101604 20747
" />
<path d="M109104 26247
L109104 20747
" />
<path d="M114604 26247
L109104 26247
" />
<path d="M114604 20747
L114604 26247
" />
<path d="M109104 20747
L114604 20747
" />
<path d="M116604 26247
L116604 20747
" />
<path d="M122104 26247
L116604 26247
" />
<path d="M122104 20747
L122104 26247
" />
<path d="M116604 20747
L122104 20747
" />
<path d="M125979 26247
L125979 20747
" />
<path d="M131479 26247
L125979 26247
" />
<path d="M131479 20747
L131479 26247
" />
<path d="M125979 20747
L131479 20747
" />
<path d="M135354 20747
L140854 20747
" />
<path d="M140854 20747
L140854 26247
" />
<path d="M140854 26247
L135354 26247
" />
<path d="M135354 26247
L135354 20747
" />
<path d="M142854 20747
L148354 20747
" />
<path d="M148354 20747
L148354 26247
" />
<path d="M148354 26247
L142854 26247
" />
<path d="M142854 26247
L142854 20747
" />
<path d="M11604 13247
L17104 13247
" />
<path d="M17104 13247
L17104 18747
" />
<path d="M17104 18747
L11604 18747
" />
<path d="M11604 18747
L11604 13247
" />
<path d="M20979 18747
L20979 13247
" />
<path d="M26479 18747
L20979 18747
" />
<path d="M26479 13247
L26479 18747
" />
<path d="M20979 13247
L26479 13247
" />
<path d="M30354 18747
L30354 13247
" />
<path d="M35854 18747
L30354 18747
" />
<path d="M35854 13247
L35854 18747
" />
<path d="M30354 13247
L35854 13247
" />
<path d="M37854 18747
L37854 13247
" />
<path d="M43354 18747
L37854 18747
" />
<path d="M43354 13247
L43354 18747
" />
<path d="M37854 13247
L43354 13247
" />
<path d="M45354 18747
L45354 13247
" />
<path d="M50854 18747
L45354 18747
" />
<path d="M50854 13247
L50854 18747
" />
<path d="M45354 13247
L50854 13247
" />
<path d="M52854 18747
L52854 13247
" />
<path d="M58354 18747
L52854 18747
" />
<path d="M58354 13247
L58354 18747
" />
<path d="M52854 13247
L58354 13247
" />
<path d="M60354 13247
L65854 13247
" />
<path d="M65854 13247
L65854 18747
" />
<path d="M65854 18747
L60354 18747
" />
<path d="M60354 18747
L60354 13247
" />
<path d="M86604 18747
L86604 13247
" />
<path d="M92104 18747
L86604 18747
" />
<path d="M92104 13247
L92104 18747
" />
<path d="M86604 13247
L92104 13247
" />
<path d="M94104 18747
L94104 13247
" />
<path d="M99604 18747
L94104 18747
" />
<path d="M99604 13247
L99604 18747
" />
<path d="M94104 13247
L99604 13247
" />
<path d="M101604 13247
L107104 13247
" />
<path d="M107104 13247
L107104 18747
" />
<path d="M107104 18747
L101604 18747
" />
<path d="M101604 18747
L101604 13247
" />
<path d="M109104 13247
L114604 13247
" />
<path d="M114604 13247
L114604 18747
" />
<path d="M114604 18747
L109104 18747
" />
<path d="M109104 18747
L109104 13247
" />
<path d="M116604 13247
L122104 13247
" />
<path d="M122104 13247
L122104 18747
" />
<path d="M122104 18747
L116604 18747
" />
<path d="M116604 18747
L116604 13247
" />
<path d="M124104 18747
L124104 13247
" />
<path d="M129604 18747
L124104 18747
" />
<path d="M129604 13247
L129604 18747
" />
<path d="M124104 13247
L129604 13247
" />
<path d="M131604 13247
L137104 13247
" />
<path d="M137104 13247
L137104 18747
" />
<path d="M137104 18747
L131604 18747
" />
<path d="M131604 18747
L131604 13247
" />
<path d="M139104 13247
L144604 13247
" />
<path d="M144604 13247
L144604 18747
" />
<path d="M144604 18747
L139104 18747
" />
<path d="M139104 18747
L139104 13247
" />
<path d="M18167 35747
L23667 35747
" />
<path d="M23667 35747
L23667 36577
" />
<path d="M23667 36577
L24307 36577
" />
<path d="M24307 36577
L24307 36257
" />
<path d="M24307 36257
L26927 36257
" />
<path d="M26927 36257
L26927 37597
" />
<path d="M26927 37597
L27267 37597
" />
<path d="M27267 37597
L27267 38697
" />
<path d="M27267 38697
L26927 38697
" />
<path d="M26927 38697
L26927 41097
" />
<path d="M26927 41097
L26517 41097
" />
<path d="M26517 41097
L26517 41557
" />
<path d="M26517 41557
L24717 41557
" />
<path d="M24717 41557
L24717 41097
" />
<path d="M24717 41097
L24307 41097
" />
<path d="M24307 41097
L24307 40787
" />
<path d="M24307 40787
L23667 40787
" />
<path d="M23667 40787
L23667 41247
" />
<path d="M23667 41247
L18167 41247
" />
<path d="M18167 41247
L18167 40787
" />
<path d="M18167 40787
L17527 40787
" />
<path d="M17527 40787
L17527 41097
" />
<path d="M17527 41097
L17117 41097
" />
<path d="M17117 41097
L17117 41557
" />
<path d="M17117 41557
L15317 41557
" />
<path d="M15317 41557
L15317 41097
" />
<path d="M15317 41097
L14907 41097
" />
<path d="M14907 41097
L14907 38697
" />
<path d="M14907 38697
L14567 38697
" />
<path d="M14567 38697
L14567 37597
" />
<path d="M14567 37597
L14907 37597
" />
<path d="M14907 37597
L14907 36257
" />
<path d="M14907 36257
L17527 36257
" />
<path d="M17527 36257
L17527 36577
" />
<path d="M17527 36577
L18167 36577
" />
<path d="M18167 36577
L18167 35747
" />
<g >
</g>
<g >
</g>
<g >
</g>
<g >
</g>
<g >
</g>
<g >
</g>
<g >
</g>
<g >
</g>
<g >
</g>
<g >
</g>
<g >
</g>
<g >
</g>
<g >
</g>
<g >
</g>
<g >
</g>
<g >
</g>
<g >
</g>
<g >
</g>
<g >
</g>
<g >
</g>
<g >
</g>
<g >
</g>
<g >
</g>
<g >
</g>
<g >
</g>
<g >
</g>
<g >
</g>
<g >
</g>
<g >
</g>
<g >
</g>
<g >
</g>
<g >
</g>
<g >
</g>
<g >
</g>
<g >
</g>
<g >
</g>
<g >
</g>
<g >
</g>
<g >
</g>
<g >
</g>
<g >
</g>
<g >
</g>
<g >
</g>
<g >
</g>
<g >
</g>
<g >
</g>
<g >
</g>
<g >
</g>
<g >
</g>
<g >
</g>
<g >
</g>
<g >
</g>
<g >
</g>
<g >
</g>
<g >
</g>
<g >
</g>
<g >
</g>
<g >
</g>
<g >
</g>
<g >
</g>
<g >
</g>
<g >
</g>
<g >
</g>
<g >
</g>
<g >
</g>
<g >
</g>
<g >
</g>
<g >
</g>
<g >
</g>
<g >
</g>
<g >
</g>
<g >
</g>
<g >
</g>
<g >
</g>
<g >
</g>
<g >
</g>
<g >
</g>
<g >
</g>
<g >
</g>
<g >
</g>
<g >
</g>
<g >
</g>
<g >
</g>
<g >
</g>
<g >
</g>
<g >
</g>
<g >
</g>
<g >
</g>
<g >
</g>
<g >
</g>
<g >
</g>
<g >
</g>
<g >
</g>
<g >
</g>
<g >
</g>
<g >
</g>
<g >
</g>
<g >
</g>
<g >
</g>
<g >
</g>
<g >
</g>
<g >
</g>
<g >
</g>
<g >
</g>
<g >
</g>
<g >
</g>
<g >
</g>
<g >
</g>
<g >
</g>
<g >
</g>
<g >
</g>
<g >
</g>
<g >
</g>
<g >
</g>
<g >
</g>
<g >
</g>
<g >
</g>
<g >
</g>
<g >
</g>
<g >
</g>
<g >
</g>
<g >
</g>
<g >
</g>
<g >
</g>
<g >
</g>
<g >
</g>
<g >
</g>
<g >
</g>
<g >
</g>
<g >
</g>
<g >
</g>
<g >
</g>
<g >
</g>
<g >
</g>
<g >
</g>
<g >
</g>
<g >
</g>
<g >
</g>
<g >
</g>
<g >
</g>
<g >
</g>
<g >
</g>
<g >
</g>
<g >
</g>
<g >
</g>
<g >
</g>
<g >
</g>
<g >
</g>
<g >
</g>
<g >
</g>
<g >
</g>
<g >
</g>
<g >
</g>
<g >
</g>
<g >
</g>
<g >
</g>
<g >
</g>
<g >
</g>
<g >
</g>
<g >
</g>
<g >
</g>
<g >
</g>
<g >
</g>
<g >
</g>
<g >
</g>
<g >
</g>
<g >
</g>
<g >
</g>
<g >
</g>
<g >
</g>
<g >
</g>
<g >
</g>
<g >
</g>
<g >
</g>
<g >
</g>
<g >
</g>
<g >
</g>
<g >
</g>
<g >
</g>
<g >
</g>
<g >
</g>
<g >
</g>
<g >
</g>
<g >
</g>
<g >
</g>
<g >
</g>
<g >
</g>
<g >
</g>
<g >
</g>
<g >
</g>
<g >
</g>
<g >
</g>
<g >
</g>
<g >
</g>
<g >
</g>
<g >
</g>
<g >
</g>
<g >
</g>
<g >
</g>
<g >
</g>
<g >
</g>
<g >
</g>
<g >
</g>
<g >
</g>
<g >
</g>
<g >
</g>
<g >
</g>
<g >
</g>
<g >
</g>
<g >
</g>
<g >
</g>
<g >
</g>
<g >
</g>
<g >
</g>
<g >
</g>
<g >
</g>
<g >
</g>
<g >
</g>
<g >
</g>
<g >
</g>
<g >
</g>
<g >
</g>
<g >
</g>
</g> 
</svg>
