  0
SECTION
  2
HEADER
  9
$ACADVER
  1
AC1014
  9
$HANDSEED
  5
FFFF
  9
$MEASUREMENT
 70
     1
  0
ENDSEC
  0
SECTION
  2
TABLES
  0
TABLE
  2
VPORT
  5
8
330
0
100
AcDbSymbolTable
 70
     4
  0
VPORT
  5
2E
330
8
100
AcDbSymbolTableRecord
100
AcDbViewportTableRecord
  2
*ACTIVE
 70
     0
 10
0.0
 20
0.0
 11
1.0
 21
1.0
 12
210.0
 22
148.5
 13
0.0
 23
0.0
 14
10.0
 24
10.0
 15
10.0
 25
10.0
 16
0.0
 26
0.0
 36
1.0
 17
0.0
 27
0.0
 37
0.0
 40
341.0
 41
1.24
 42
50.0
 43
0.0
 44
0.0
 50
0.0
 51
0.0
 71
     0
 72
   100
 73
     1
 74
     3
 75
     0
 76
     0
 77
     0
 78
     0
  0
ENDTAB
  0
TABLE
  2
LTYPE
  5
5
330
0
100
AcDbSymbolTable
 70
     1
  0
LTYPE
  5
14
330
5
100
AcDbSymbolTableRecord
100
AcDbLinetypeTableRecord
  2
BYBLOCK
 70
     0
  3

 72
    65
 73
     0
 40
0.0
  0
LTYPE
  5
15
330
5
100
AcDbSymbolTableRecord
100
AcDbLinetypeTableRecord
  2
BYLAYER
 70
     0
  3

 72
    65
 73
     0
 40
0.0
  0
LTYPE
  5
16
330
5
100
AcDbSymbolTableRecord
100
AcDbLinetypeTableRecord
  2
CONTINUOUS
 70
     0
  3
Solid line
 72
    65
 73
     0
 40
0.0
  0
ENDTAB
  0
TABLE
  2
LAYER
  5
2
100
AcDbSymbolTable
 70
1
  0
LAYER
  5
50
100
AcDbSymbolTableRecord
100
AcDbLayerTableRecord
  2
0
 70
0
  6
CONTINUOUS
  0
ENDTAB
  0
TABLE
  2
STYLE
  5
3
330
0
100
AcDbSymbolTable
 70
     1
  0
STYLE
  5
11
330
3
100
AcDbSymbolTableRecord
100
AcDbTextStyleTableRecord
  2
STANDARD
 70
     0
 40
0.0
 41
1.0
 50
0.0
 71
     0
 42
2.5
  3
txt
  4

  0
ENDTAB
  0
TABLE
  2
VIEW
  5
6
330
0
100
AcDbSymbolTable
 70
     0
  0
ENDTAB
  0
TABLE
  2
UCS
  5
7
330
0
100
AcDbSymbolTable
 70
     0
  0
ENDTAB
  0
TABLE
  2
APPID
  5
9
330
0
100
AcDbSymbolTable
 70
     2
  0
APPID
  5
12
330
9
100
AcDbSymbolTableRecord
100
AcDbRegAppTableRecord
  2
ACAD
 70
     0
  0
ENDTAB
  0
TABLE
  2
DIMSTYLE
  5
A
330
0
100
AcDbSymbolTable
 70
     1
  0
DIMSTYLE
105
27
330
A
100
AcDbSymbolTableRecord
100
AcDbDimStyleTableRecord
  2
ISO-25
 70
     0
  3

  4

  5

  6

  7

 40
1.0
 41
2.5
 42
0.625
 43
3.75
 44
1.25
 45
0.0
 46
0.0
 47
0.0
 48
0.0
140
2.5
141
2.5
142
0.0
143
0.03937007874016
144
1.0
145
0.0
146
1.0
147
0.625
 71
     0
 72
     0
 73
     0
 74
     0
 75
     0
 76
     0
 77
     1
 78
     8
170
     0
171
     3
172
     1
173
     0
174
     0
175
     0
176
     0
177
     0
178
     0
270
     2
271
     2
272
     2
273
     2
274
     3
340
11
275
     0
280
     0
281
     0
282
     0
283
     0
284
     8
285
     0
286
     0
287
     3
288
     0
  0
ENDTAB
  0
TABLE
  2
BLOCK_RECORD
  5
1
330
0
100
AcDbSymbolTable
 70
     1
  0
BLOCK_RECORD
  5
1F
330
1
100
AcDbSymbolTableRecord
100
AcDbBlockTableRecord
  2
*MODEL_SPACE
  0
BLOCK_RECORD
  5
1B
330
1
100
AcDbSymbolTableRecord
100
AcDbBlockTableRecord
  2
*PAPER_SPACE
  0
ENDTAB
  0
ENDSEC
  0
SECTION
  2
BLOCKS
  0
BLOCK
  5
20
330
1F
100
AcDbEntity
  8
0
100
AcDbBlockBegin
  2
*MODEL_SPACE
 70
     0
 10
0.0
 20
0.0
 30
0.0
  3
*MODEL_SPACE
  1

  0
ENDBLK
  5
21
330
1F
100
AcDbEntity
  8
0
100
AcDbBlockEnd
  0
BLOCK
  5
1C
330
1B
100
AcDbEntity
 67
     1
  8
0
100
AcDbBlockBegin
  2
*PAPER_SPACE
  1

  0
ENDBLK
  5
1D
330
1B
100
AcDbEntity
 67
     1
  8
0
100
AcDbBlockEnd
  0
ENDSEC
  0
SECTION
  2
ENTITIES
  0
SPLINE
  5
100
100
AcDbEntity
  8
0
 62
7
100
AcDbSpline
 70
8
 71
3
 72
8
 73
4
 74
0
 40
0
 40
0
 40
0
 40
0
 40
1
 40
1
 40
1
 40
1
 10
188.611174
 20
-115.895724
 30
0.0
 10
188.611174
 20
-117.848342
 30
0.0
 10
187.028264
 20
-119.431251
 30
0.0
 10
185.075647
 20
-119.431251
 30
0.0
  0
SPLINE
  5
101
100
AcDbEntity
  8
0
 62
7
100
AcDbSpline
 70
8
 71
3
 72
8
 73
4
 74
0
 40
0
 40
0
 40
0
 40
0
 40
1
 40
1
 40
1
 40
1
 10
185.075647
 20
-119.431251
 30
0.0
 10
183.123029
 20
-119.431251
 30
0.0
 10
181.540119
 20
-117.848342
 30
0.0
 10
181.540119
 20
-115.895724
 30
0.0
  0
SPLINE
  5
102
100
AcDbEntity
  8
0
 62
7
100
AcDbSpline
 70
8
 71
3
 72
8
 73
4
 74
0
 40
0
 40
0
 40
0
 40
0
 40
1
 40
1
 40
1
 40
1
 10
181.540119
 20
-115.895724
 30
0.0
 10
181.540119
 20
-113.943106
 30
0.0
 10
183.123029
 20
-112.360197
 30
0.0
 10
185.075647
 20
-112.360197
 30
0.0
  0
SPLINE
  5
103
100
AcDbEntity
  8
0
 62
7
100
AcDbSpline
 70
8
 71
3
 72
8
 73
4
 74
0
 40
0
 40
0
 40
0
 40
0
 40
1
 40
1
 40
1
 40
1
 10
185.075647
 20
-112.360197
 30
0.0
 10
187.028264
 20
-112.360197
 30
0.0
 10
188.611174
 20
-113.943106
 30
0.0
 10
188.611174
 20
-115.895724
 30
0.0
  0
LWPOLYLINE
  5
104
100
AcDbEntity
  8
0
 62
7
100
AcDbPolyline
 90
1
 70
1
 10
188.611174
 20
-115.895724
 30
0.0
  0
LWPOLYLINE
  5
105
100
AcDbEntity
  8
0
 62
7
100
AcDbPolyline
 90
2
 70
0
 10
17.573067
 20
-28.393490
 30
0.0
 10
20.074967
 20
-28.393490
 30
0.0
  0
LWPOLYLINE
  5
106
100
AcDbEntity
  8
0
 62
7
100
AcDbPolyline
 90
2
 70
0
 10
17.573067
 20
-8.393530
 30
0.0
 10
17.573067
 20
-28.393490
 30
0.0
  0
LWPOLYLINE
  5
107
100
AcDbEntity
  8
0
 62
7
100
AcDbPolyline
 90
2
 70
0
 10
37.575567
 20
-8.393530
 30
0.0
 10
17.573067
 20
-8.393530
 30
0.0
  0
LWPOLYLINE
  5
108
100
AcDbEntity
  8
0
 62
7
100
AcDbPolyline
 90
2
 70
0
 10
37.575567
 20
-28.393490
 30
0.0
 10
37.575567
 20
-8.393530
 30
0.0
  0
LWPOLYLINE
  5
109
100
AcDbEntity
  8
0
 62
7
100
AcDbPolyline
 90
2
 70
0
 10
20.074967
 20
-28.393490
 30
0.0
 10
37.575567
 20
-28.393490
 30
0.0
  0
LWPOLYLINE
  5
10a
100
AcDbEntity
  8
0
 62
7
100
AcDbPolyline
 90
2
 70
0
 10
57.575527
 20
-23.394770
 30
0.0
 10
162.574046
 20
-23.394770
 30
0.0
  0
LWPOLYLINE
  5
10b
100
AcDbEntity
  8
0
 62
7
100
AcDbPolyline
 90
2
 70
0
 10
57.575527
 20
-8.393530
 30
0.0
 10
57.575527
 20
-23.394770
 30
0.0
  0
LWPOLYLINE
  5
10c
100
AcDbEntity
  8
0
 62
7
100
AcDbPolyline
 90
2
 70
0
 10
162.574046
 20
-8.393530
 30
0.0
 10
57.575527
 20
-8.393530
 30
0.0
  0
LWPOLYLINE
  5
10d
100
AcDbEntity
  8
0
 62
7
100
AcDbPolyline
 90
2
 70
0
 10
162.574046
 20
-23.394770
 30
0.0
 10
162.574046
 20
-8.393530
 30
0.0
  0
LWPOLYLINE
  5
10e
100
AcDbEntity
  8
0
 62
7
100
AcDbPolyline
 90
2
 70
0
 10
322.573724
 20
-8.393530
 30
0.0
 10
207.575225
 20
-8.393530
 30
0.0
  0
LWPOLYLINE
  5
10f
100
AcDbEntity
  8
0
 62
7
100
AcDbPolyline
 90
2
 70
0
 10
322.573724
 20
-23.394770
 30
0.0
 10
322.573724
 20
-8.393530
 30
0.0
  0
LWPOLYLINE
  5
110
100
AcDbEntity
  8
0
 62
7
100
AcDbPolyline
 90
2
 70
0
 10
207.575225
 20
-23.394770
 30
0.0
 10
322.573724
 20
-23.394770
 30
0.0
  0
LWPOLYLINE
  5
111
100
AcDbEntity
  8
0
 62
7
100
AcDbPolyline
 90
2
 70
0
 10
207.575225
 20
-8.393530
 30
0.0
 10
207.575225
 20
-23.394770
 30
0.0
  0
LWPOLYLINE
  5
112
100
AcDbEntity
  8
0
 62
7
100
AcDbPolyline
 90
2
 70
0
 10
110.074786
 20
-133.394548
 30
0.0
 10
135.073466
 20
-173.394468
 30
0.0
  0
LWPOLYLINE
  5
113
100
AcDbEntity
  8
0
 62
7
100
AcDbPolyline
 90
2
 70
0
 10
5.073727
 20
-133.394548
 30
0.0
 10
110.074786
 20
-133.394548
 30
0.0
  0
LWPOLYLINE
  5
114
100
AcDbEntity
  8
0
 62
7
100
AcDbPolyline
 90
2
 70
0
 10
0.075007
 20
-3.394810
 30
0.0
 10
0.075007
 20
-128.393289
 30
0.0
  0
SPLINE
  5
115
100
AcDbEntity
  8
0
 62
7
100
AcDbSpline
 70
8
 71
3
 72
8
 73
4
 74
0
 40
0
 40
0
 40
0
 40
0
 40
1
 40
1
 40
1
 40
1
 10
0.075592
 20
-128.395575
 30
0.0
 10
0.075592
 20
-129.721654
 30
0.0
 10
0.602375
 20
-130.993421
 30
0.0
 10
1.540055
 20
-131.931101
 30
0.0
  0
SPLINE
  5
116
100
AcDbEntity
  8
0
 62
7
100
AcDbSpline
 70
8
 71
3
 72
8
 73
4
 74
0
 40
0
 40
0
 40
0
 40
0
 40
1
 40
1
 40
1
 40
1
 10
1.540055
 20
-131.931101
 30
0.0
 10
2.477735
 20
-132.868781
 30
0.0
 10
3.749502
 20
-133.395564
 30
0.0
 10
5.075582
 20
-133.395564
 30
0.0
  0
SPLINE
  5
117
100
AcDbEntity
  8
0
 62
7
100
AcDbSpline
 70
8
 71
3
 72
8
 73
4
 74
0
 40
0
 40
0
 40
0
 40
0
 40
1
 40
1
 40
1
 40
1
 10
5.075582
 20
1.604370
 30
0.0
 10
3.749501
 20
1.604370
 30
0.0
 10
2.477734
 20
1.077586
 30
0.0
 10
1.540054
 20
0.139906
 30
0.0
  0
SPLINE
  5
118
100
AcDbEntity
  8
0
 62
7
100
AcDbSpline
 70
8
 71
3
 72
8
 73
4
 74
0
 40
0
 40
0
 40
0
 40
0
 40
1
 40
1
 40
1
 40
1
 10
1.540054
 20
0.139906
 30
0.0
 10
0.602374
 20
-0.797775
 30
0.0
 10
0.075591
 20
-2.069542
 30
0.0
 10
0.075592
 20
-3.395623
 30
0.0
  0
SPLINE
  5
119
100
AcDbEntity
  8
0
 62
7
100
AcDbSpline
 70
8
 71
3
 72
8
 73
4
 74
0
 40
0
 40
0
 40
0
 40
0
 40
1
 40
1
 40
1
 40
1
 10
380.076784
 20
-3.395623
 30
0.0
 10
380.076784
 20
-2.069322
 30
0.0
 10
379.549827
 20
-0.797362
 30
0.0
 10
378.611873
 20
0.140355
 30
0.0
  0
SPLINE
  5
11a
100
AcDbEntity
  8
0
 62
7
100
AcDbSpline
 70
8
 71
3
 72
8
 73
4
 74
0
 40
0
 40
0
 40
0
 40
0
 40
1
 40
1
 40
1
 40
1
 10
378.611873
 20
0.140355
 30
0.0
 10
377.673918
 20
1.078072
 30
0.0
 10
376.401824
 20
1.604707
 30
0.0
 10
375.075524
 20
1.604370
 30
0.0
  0
LWPOLYLINE
  5
11b
100
AcDbEntity
  8
0
 62
7
100
AcDbPolyline
 90
2
 70
0
 10
375.075524
 20
1.606450
 30
0.0
 10
5.073727
 20
1.606450
 30
0.0
  0
SPLINE
  5
11c
100
AcDbEntity
  8
0
 62
7
100
AcDbSpline
 70
8
 71
3
 72
8
 73
4
 74
0
 40
0
 40
0
 40
0
 40
0
 40
1
 40
1
 40
1
 40
1
 10
375.075524
 20
-133.395564
 30
0.0
 10
376.401824
 20
-133.395901
 30
0.0
 10
377.673917
 20
-132.869267
 30
0.0
 10
378.611872
 20
-131.931550
 30
0.0
  0
SPLINE
  5
11d
100
AcDbEntity
  8
0
 62
7
100
AcDbSpline
 70
8
 71
3
 72
8
 73
4
 74
0
 40
0
 40
0
 40
0
 40
0
 40
1
 40
1
 40
1
 40
1
 10
378.611872
 20
-131.931550
 30
0.0
 10
379.549826
 20
-130.993834
 30
0.0
 10
380.076784
 20
-129.721874
 30
0.0
 10
380.076784
 20
-128.395575
 30
0.0
  0
LWPOLYLINE
  5
11e
100
AcDbEntity
  8
0
 62
7
100
AcDbPolyline
 90
2
 70
0
 10
380.074244
 20
-128.393289
 30
0.0
 10
380.074244
 20
-3.394810
 30
0.0
  0
LWPOLYLINE
  5
11f
100
AcDbEntity
  8
0
 62
7
100
AcDbPolyline
 90
2
 70
0
 10
260.074485
 20
-133.394548
 30
0.0
 10
375.075524
 20
-133.394548
 30
0.0
  0
LWPOLYLINE
  5
120
100
AcDbEntity
  8
0
 62
7
100
AcDbPolyline
 90
2
 70
0
 10
235.073265
 20
-173.394468
 30
0.0
 10
260.074485
 20
-133.394548
 30
0.0
  0
LWPOLYLINE
  5
121
100
AcDbEntity
  8
0
 62
7
100
AcDbPolyline
 90
2
 70
0
 10
135.073466
 20
-173.394468
 30
0.0
 10
235.073265
 20
-173.394468
 30
0.0
  0
SPLINE
  5
122
100
AcDbEntity
  8
0
 62
7
100
AcDbSpline
 70
8
 71
3
 72
8
 73
4
 74
0
 40
0
 40
0
 40
0
 40
0
 40
1
 40
1
 40
1
 40
1
 10
202.575489
 20
-110.895737
 30
0.0
 10
203.238573
 20
-110.895769
 30
0.0
 10
203.874508
 20
-110.632374
 30
0.0
 10
204.343378
 20
-110.163504
 30
0.0
  0
SPLINE
  5
123
100
AcDbEntity
  8
0
 62
7
100
AcDbSpline
 70
8
 71
3
 72
8
 73
4
 74
0
 40
0
 40
0
 40
0
 40
0
 40
1
 40
1
 40
1
 40
1
 10
204.343378
 20
-110.163504
 30
0.0
 10
204.812249
 20
-109.694633
 30
0.0
 10
205.075644
 20
-109.058698
 30
0.0
 10
205.075611
 20
-108.395615
 30
0.0
  0
SPLINE
  5
124
100
AcDbEntity
  8
0
 62
7
100
AcDbSpline
 70
8
 71
3
 72
8
 73
4
 74
0
 40
0
 40
0
 40
0
 40
0
 40
1
 40
1
 40
1
 40
1
 10
165.075692
 20
-108.395615
 30
0.0
 10
165.075625
 20
-109.776323
 30
0.0
 10
166.194852
 20
-110.895664
 30
0.0
 10
167.575560
 20
-110.895737
 30
0.0
  0
SPLINE
  5
125
100
AcDbEntity
  8
0
 62
7
100
AcDbSpline
 70
8
 71
3
 72
8
 73
4
 74
0
 40
0
 40
0
 40
0
 40
0
 40
1
 40
1
 40
1
 40
1
 10
167.575560
 20
-28.395522
 30
0.0
 10
166.194852
 20
-28.395594
 30
0.0
 10
165.075625
 20
-29.514936
 30
0.0
 10
165.075692
 20
-30.895644
 30
0.0
  0
SPLINE
  5
126
100
AcDbEntity
  8
0
 62
7
100
AcDbSpline
 70
8
 71
3
 72
8
 73
4
 74
0
 40
0
 40
0
 40
0
 40
0
 40
1
 40
1
 40
1
 40
1
 10
205.075611
 20
-30.895644
 30
0.0
 10
205.075644
 20
-30.232560
 30
0.0
 10
204.812249
 20
-29.596625
 30
0.0
 10
204.343378
 20
-29.127755
 30
0.0
  0
SPLINE
  5
127
100
AcDbEntity
  8
0
 62
7
100
AcDbSpline
 70
8
 71
3
 72
8
 73
4
 74
0
 40
0
 40
0
 40
0
 40
0
 40
1
 40
1
 40
1
 40
1
 10
204.343378
 20
-29.127755
 30
0.0
 10
203.874508
 20
-28.658884
 30
0.0
 10
203.238573
 20
-28.395489
 30
0.0
 10
202.575489
 20
-28.395522
 30
0.0
  0
LWPOLYLINE
  5
128
100
AcDbEntity
  8
0
 62
7
100
AcDbPolyline
 90
2
 70
0
 10
202.573965
 20
-28.393490
 30
0.0
 10
167.575306
 20
-28.393490
 30
0.0
  0
LWPOLYLINE
  5
129
100
AcDbEntity
  8
0
 62
7
100
AcDbPolyline
 90
2
 70
0
 10
165.073406
 20
-108.393329
 30
0.0
 10
165.073406
 20
-30.895390
 30
0.0
  0
LWPOLYLINE
  5
12a
100
AcDbEntity
  8
0
 62
7
100
AcDbPolyline
 90
2
 70
0
 10
202.573965
 20
-110.895229
 30
0.0
 10
167.575306
 20
-110.895229
 30
0.0
  0
SPLINE
  5
12b
100
AcDbEntity
  8
0
 62
7
100
AcDbSpline
 70
8
 71
3
 72
8
 73
4
 74
0
 40
0
 40
0
 40
0
 40
0
 40
1
 40
1
 40
1
 40
1
 10
188.611174
 20
-143.395539
 30
0.0
 10
188.611174
 20
-145.348157
 30
0.0
 10
187.028264
 20
-146.931066
 30
0.0
 10
185.075647
 20
-146.931066
 30
0.0
  0
SPLINE
  5
12c
100
AcDbEntity
  8
0
 62
7
100
AcDbSpline
 70
8
 71
3
 72
8
 73
4
 74
0
 40
0
 40
0
 40
0
 40
0
 40
1
 40
1
 40
1
 40
1
 10
185.075647
 20
-146.931066
 30
0.0
 10
183.123029
 20
-146.931066
 30
0.0
 10
181.540119
 20
-145.348157
 30
0.0
 10
181.540119
 20
-143.395539
 30
0.0
  0
SPLINE
  5
12d
100
AcDbEntity
  8
0
 62
7
100
AcDbSpline
 70
8
 71
3
 72
8
 73
4
 74
0
 40
0
 40
0
 40
0
 40
0
 40
1
 40
1
 40
1
 40
1
 10
181.540119
 20
-143.395539
 30
0.0
 10
181.540119
 20
-141.442922
 30
0.0
 10
183.123029
 20
-139.860012
 30
0.0
 10
185.075647
 20
-139.860012
 30
0.0
  0
SPLINE
  5
12e
100
AcDbEntity
  8
0
 62
7
100
AcDbSpline
 70
8
 71
3
 72
8
 73
4
 74
0
 40
0
 40
0
 40
0
 40
0
 40
1
 40
1
 40
1
 40
1
 10
185.075647
 20
-139.860012
 30
0.0
 10
187.028264
 20
-139.860012
 30
0.0
 10
188.611174
 20
-141.442922
 30
0.0
 10
188.611174
 20
-143.395539
 30
0.0
  0
LWPOLYLINE
  5
12f
100
AcDbEntity
  8
0
 62
7
100
AcDbPolyline
 90
2
 70
0
 10
205.073325
 20
-30.895390
 30
0.0
 10
205.073325
 20
-108.393329
 30
0.0
  0
SPLINE
  5
130
100
AcDbEntity
  8
0
 62
7
100
AcDbSpline
 70
8
 71
3
 72
8
 73
4
 74
0
 40
0
 40
0
 40
0
 40
0
 40
1
 40
1
 40
1
 40
1
 10
111.111213
 20
-115.895724
 30
0.0
 10
111.111213
 20
-117.158846
 30
0.0
 10
110.437345
 20
-118.326019
 30
0.0
 10
109.343449
 20
-118.957581
 30
0.0
  0
SPLINE
  5
131
100
AcDbEntity
  8
0
 62
7
100
AcDbSpline
 70
8
 71
3
 72
8
 73
4
 74
0
 40
0
 40
0
 40
0
 40
0
 40
1
 40
1
 40
1
 40
1
 10
109.343449
 20
-118.957581
 30
0.0
 10
108.249553
 20
-119.589142
 30
0.0
 10
106.901818
 20
-119.589142
 30
0.0
 10
105.807922
 20
-118.957581
 30
0.0
  0
SPLINE
  5
132
100
AcDbEntity
  8
0
 62
7
100
AcDbSpline
 70
8
 71
3
 72
8
 73
4
 74
0
 40
0
 40
0
 40
0
 40
0
 40
1
 40
1
 40
1
 40
1
 10
105.807922
 20
-118.957581
 30
0.0
 10
104.714026
 20
-118.326019
 30
0.0
 10
104.040158
 20
-117.158846
 30
0.0
 10
104.040158
 20
-115.895724
 30
0.0
  0
SPLINE
  5
133
100
AcDbEntity
  8
0
 62
7
100
AcDbSpline
 70
8
 71
3
 72
8
 73
4
 74
0
 40
0
 40
0
 40
0
 40
0
 40
1
 40
1
 40
1
 40
1
 10
104.040158
 20
-115.895724
 30
0.0
 10
104.040158
 20
-114.632602
 30
0.0
 10
104.714026
 20
-113.465429
 30
0.0
 10
105.807922
 20
-112.833868
 30
0.0
  0
SPLINE
  5
134
100
AcDbEntity
  8
0
 62
7
100
AcDbSpline
 70
8
 71
3
 72
8
 73
4
 74
0
 40
0
 40
0
 40
0
 40
0
 40
1
 40
1
 40
1
 40
1
 10
105.807922
 20
-112.833868
 30
0.0
 10
106.901818
 20
-112.202307
 30
0.0
 10
108.249553
 20
-112.202307
 30
0.0
 10
109.343449
 20
-112.833868
 30
0.0
  0
SPLINE
  5
135
100
AcDbEntity
  8
0
 62
7
100
AcDbSpline
 70
8
 71
3
 72
8
 73
4
 74
0
 40
0
 40
0
 40
0
 40
0
 40
1
 40
1
 40
1
 40
1
 10
109.343449
 20
-112.833868
 30
0.0
 10
110.437345
 20
-113.465429
 30
0.0
 10
111.111213
 20
-114.632602
 30
0.0
 10
111.111213
 20
-115.895724
 30
0.0
  0
LWPOLYLINE
  5
136
100
AcDbEntity
  8
0
 62
7
100
AcDbPolyline
 90
1
 70
1
 10
188.611174
 20
-143.395539
 30
0.0
  0
SPLINE
  5
137
100
AcDbEntity
  8
0
 62
7
100
AcDbSpline
 70
8
 71
3
 72
8
 73
4
 74
0
 40
0
 40
0
 40
0
 40
0
 40
1
 40
1
 40
1
 40
1
 10
21.111135
 20
-115.895724
 30
0.0
 10
21.111135
 20
-117.848342
 30
0.0
 10
19.528225
 20
-119.431251
 30
0.0
 10
17.575607
 20
-119.431251
 30
0.0
  0
SPLINE
  5
138
100
AcDbEntity
  8
0
 62
7
100
AcDbSpline
 70
8
 71
3
 72
8
 73
4
 74
0
 40
0
 40
0
 40
0
 40
0
 40
1
 40
1
 40
1
 40
1
 10
17.575607
 20
-119.431251
 30
0.0
 10
15.622990
 20
-119.431251
 30
0.0
 10
14.040080
 20
-117.848342
 30
0.0
 10
14.040080
 20
-115.895724
 30
0.0
  0
SPLINE
  5
139
100
AcDbEntity
  8
0
 62
7
100
AcDbSpline
 70
8
 71
3
 72
8
 73
4
 74
0
 40
0
 40
0
 40
0
 40
0
 40
1
 40
1
 40
1
 40
1
 10
14.040080
 20
-115.895724
 30
0.0
 10
14.040080
 20
-114.632602
 30
0.0
 10
14.713948
 20
-113.465429
 30
0.0
 10
15.807844
 20
-112.833868
 30
0.0
  0
SPLINE
  5
13a
100
AcDbEntity
  8
0
 62
7
100
AcDbSpline
 70
8
 71
3
 72
8
 73
4
 74
0
 40
0
 40
0
 40
0
 40
0
 40
1
 40
1
 40
1
 40
1
 10
15.807844
 20
-112.833868
 30
0.0
 10
16.901740
 20
-112.202307
 30
0.0
 10
18.249475
 20
-112.202307
 30
0.0
 10
19.343371
 20
-112.833868
 30
0.0
  0
SPLINE
  5
13b
100
AcDbEntity
  8
0
 62
7
100
AcDbSpline
 70
8
 71
3
 72
8
 73
4
 74
0
 40
0
 40
0
 40
0
 40
0
 40
1
 40
1
 40
1
 40
1
 10
19.343371
 20
-112.833868
 30
0.0
 10
20.437267
 20
-113.465429
 30
0.0
 10
21.111135
 20
-114.632602
 30
0.0
 10
21.111135
 20
-115.895724
 30
0.0
  0
LWPOLYLINE
  5
13c
100
AcDbEntity
  8
0
 62
7
100
AcDbPolyline
 90
1
 70
1
 10
111.111213
 20
-115.895724
 30
0.0
  0
SPLINE
  5
13d
100
AcDbEntity
  8
0
 62
7
100
AcDbSpline
 70
8
 71
3
 72
8
 73
4
 74
0
 40
0
 40
0
 40
0
 40
0
 40
1
 40
1
 40
1
 40
1
 10
46.111084
 20
-15.895623
 30
0.0
 10
46.111084
 20
-17.848241
 30
0.0
 10
44.528175
 20
-19.431150
 30
0.0
 10
42.575557
 20
-19.431150
 30
0.0
  0
SPLINE
  5
13e
100
AcDbEntity
  8
0
 62
7
100
AcDbSpline
 70
8
 71
3
 72
8
 73
4
 74
0
 40
0
 40
0
 40
0
 40
0
 40
1
 40
1
 40
1
 40
1
 10
42.575557
 20
-19.431150
 30
0.0
 10
40.622939
 20
-19.431150
 30
0.0
 10
39.040030
 20
-17.848241
 30
0.0
 10
39.040030
 20
-15.895623
 30
0.0
  0
SPLINE
  5
13f
100
AcDbEntity
  8
0
 62
7
100
AcDbSpline
 70
8
 71
3
 72
8
 73
4
 74
0
 40
0
 40
0
 40
0
 40
0
 40
1
 40
1
 40
1
 40
1
 10
39.040030
 20
-15.895623
 30
0.0
 10
39.040030
 20
-14.632501
 30
0.0
 10
39.713897
 20
-13.465328
 30
0.0
 10
40.807793
 20
-12.833767
 30
0.0
  0
SPLINE
  5
140
100
AcDbEntity
  8
0
 62
7
100
AcDbSpline
 70
8
 71
3
 72
8
 73
4
 74
0
 40
0
 40
0
 40
0
 40
0
 40
1
 40
1
 40
1
 40
1
 10
40.807793
 20
-12.833767
 30
0.0
 10
41.901689
 20
-12.202206
 30
0.0
 10
43.249425
 20
-12.202206
 30
0.0
 10
44.343321
 20
-12.833767
 30
0.0
  0
SPLINE
  5
141
100
AcDbEntity
  8
0
 62
7
100
AcDbSpline
 70
8
 71
3
 72
8
 73
4
 74
0
 40
0
 40
0
 40
0
 40
0
 40
1
 40
1
 40
1
 40
1
 10
44.343321
 20
-12.833767
 30
0.0
 10
45.437217
 20
-13.465328
 30
0.0
 10
46.111084
 20
-14.632501
 30
0.0
 10
46.111084
 20
-15.895623
 30
0.0
  0
LWPOLYLINE
  5
142
100
AcDbEntity
  8
0
 62
7
100
AcDbPolyline
 90
1
 70
1
 10
21.111135
 20
-115.895724
 30
0.0
  0
SPLINE
  5
143
100
AcDbEntity
  8
0
 62
7
100
AcDbSpline
 70
8
 71
3
 72
8
 73
4
 74
0
 40
0
 40
0
 40
0
 40
0
 40
1
 40
1
 40
1
 40
1
 10
171.111092
 20
-15.895623
 30
0.0
 10
171.111092
 20
-17.848241
 30
0.0
 10
169.528183
 20
-19.431150
 30
0.0
 10
167.575565
 20
-19.431150
 30
0.0
  0
SPLINE
  5
144
100
AcDbEntity
  8
0
 62
7
100
AcDbSpline
 70
8
 71
3
 72
8
 73
4
 74
0
 40
0
 40
0
 40
0
 40
0
 40
1
 40
1
 40
1
 40
1
 10
167.575565
 20
-19.431150
 30
0.0
 10
165.622947
 20
-19.431150
 30
0.0
 10
164.040038
 20
-17.848241
 30
0.0
 10
164.040038
 20
-15.895623
 30
0.0
  0
SPLINE
  5
145
100
AcDbEntity
  8
0
 62
7
100
AcDbSpline
 70
8
 71
3
 72
8
 73
4
 74
0
 40
0
 40
0
 40
0
 40
0
 40
1
 40
1
 40
1
 40
1
 10
164.040038
 20
-15.895623
 30
0.0
 10
164.040038
 20
-13.943005
 30
0.0
 10
165.622947
 20
-12.360096
 30
0.0
 10
167.575565
 20
-12.360096
 30
0.0
  0
SPLINE
  5
146
100
AcDbEntity
  8
0
 62
7
100
AcDbSpline
 70
8
 71
3
 72
8
 73
4
 74
0
 40
0
 40
0
 40
0
 40
0
 40
1
 40
1
 40
1
 40
1
 10
167.575565
 20
-12.360096
 30
0.0
 10
169.528183
 20
-12.360096
 30
0.0
 10
171.111092
 20
-13.943005
 30
0.0
 10
171.111092
 20
-15.895623
 30
0.0
  0
LWPOLYLINE
  5
147
100
AcDbEntity
  8
0
 62
7
100
AcDbPolyline
 90
1
 70
1
 10
46.111084
 20
-15.895623
 30
0.0
  0
SPLINE
  5
148
100
AcDbEntity
  8
0
 62
7
100
AcDbSpline
 70
8
 71
3
 72
8
 73
4
 74
0
 40
0
 40
0
 40
0
 40
0
 40
1
 40
1
 40
1
 40
1
 10
166.111102
 20
-65.895573
 30
0.0
 10
166.111102
 20
-67.848191
 30
0.0
 10
164.528193
 20
-69.431100
 30
0.0
 10
162.575575
 20
-69.431100
 30
0.0
  0
SPLINE
  5
149
100
AcDbEntity
  8
0
 62
7
100
AcDbSpline
 70
8
 71
3
 72
8
 73
4
 74
0
 40
0
 40
0
 40
0
 40
0
 40
1
 40
1
 40
1
 40
1
 10
162.575575
 20
-69.431100
 30
0.0
 10
160.622957
 20
-69.431100
 30
0.0
 10
159.040048
 20
-67.848191
 30
0.0
 10
159.040048
 20
-65.895573
 30
0.0
  0
SPLINE
  5
14a
100
AcDbEntity
  8
0
 62
7
100
AcDbSpline
 70
8
 71
3
 72
8
 73
4
 74
0
 40
0
 40
0
 40
0
 40
0
 40
1
 40
1
 40
1
 40
1
 10
159.040048
 20
-65.895573
 30
0.0
 10
159.040048
 20
-63.942955
 30
0.0
 10
160.622957
 20
-62.360046
 30
0.0
 10
162.575575
 20
-62.360046
 30
0.0
  0
SPLINE
  5
14b
100
AcDbEntity
  8
0
 62
7
100
AcDbSpline
 70
8
 71
3
 72
8
 73
4
 74
0
 40
0
 40
0
 40
0
 40
0
 40
1
 40
1
 40
1
 40
1
 10
162.575575
 20
-62.360046
 30
0.0
 10
164.528193
 20
-62.360046
 30
0.0
 10
166.111102
 20
-63.942955
 30
0.0
 10
166.111102
 20
-65.895573
 30
0.0
  0
LWPOLYLINE
  5
14c
100
AcDbEntity
  8
0
 62
7
100
AcDbPolyline
 90
1
 70
1
 10
171.111092
 20
-15.895623
 30
0.0
  0
SPLINE
  5
14d
100
AcDbEntity
  8
0
 62
7
100
AcDbSpline
 70
8
 71
3
 72
8
 73
4
 74
0
 40
0
 40
0
 40
0
 40
0
 40
1
 40
1
 40
1
 40
1
 10
211.111012
 20
-65.895573
 30
0.0
 10
211.111012
 20
-67.848191
 30
0.0
 10
209.528102
 20
-69.431100
 30
0.0
 10
207.575485
 20
-69.431100
 30
0.0
  0
SPLINE
  5
14e
100
AcDbEntity
  8
0
 62
7
100
AcDbSpline
 70
8
 71
3
 72
8
 73
4
 74
0
 40
0
 40
0
 40
0
 40
0
 40
1
 40
1
 40
1
 40
1
 10
207.575485
 20
-69.431100
 30
0.0
 10
205.622867
 20
-69.431100
 30
0.0
 10
204.039957
 20
-67.848191
 30
0.0
 10
204.039957
 20
-65.895573
 30
0.0
  0
SPLINE
  5
14f
100
AcDbEntity
  8
0
 62
7
100
AcDbSpline
 70
8
 71
3
 72
8
 73
4
 74
0
 40
0
 40
0
 40
0
 40
0
 40
1
 40
1
 40
1
 40
1
 10
204.039957
 20
-65.895573
 30
0.0
 10
204.039957
 20
-64.632451
 30
0.0
 10
204.713825
 20
-63.465278
 30
0.0
 10
205.807721
 20
-62.833717
 30
0.0
  0
SPLINE
  5
150
100
AcDbEntity
  8
0
 62
7
100
AcDbSpline
 70
8
 71
3
 72
8
 73
4
 74
0
 40
0
 40
0
 40
0
 40
0
 40
1
 40
1
 40
1
 40
1
 10
205.807721
 20
-62.833717
 30
0.0
 10
206.901617
 20
-62.202156
 30
0.0
 10
208.249352
 20
-62.202156
 30
0.0
 10
209.343248
 20
-62.833717
 30
0.0
  0
SPLINE
  5
151
100
AcDbEntity
  8
0
 62
7
100
AcDbSpline
 70
8
 71
3
 72
8
 73
4
 74
0
 40
0
 40
0
 40
0
 40
0
 40
1
 40
1
 40
1
 40
1
 10
209.343248
 20
-62.833717
 30
0.0
 10
210.437144
 20
-63.465278
 30
0.0
 10
211.111012
 20
-64.632451
 30
0.0
 10
211.111012
 20
-65.895573
 30
0.0
  0
LWPOLYLINE
  5
152
100
AcDbEntity
  8
0
 62
7
100
AcDbPolyline
 90
1
 70
1
 10
166.111102
 20
-65.895573
 30
0.0
  0
SPLINE
  5
153
100
AcDbEntity
  8
0
 62
7
100
AcDbSpline
 70
8
 71
3
 72
8
 73
4
 74
0
 40
0
 40
0
 40
0
 40
0
 40
1
 40
1
 40
1
 40
1
 10
206.111022
 20
-15.895623
 30
0.0
 10
206.111022
 20
-17.158745
 30
0.0
 10
205.437154
 20
-18.325918
 30
0.0
 10
204.343258
 20
-18.957480
 30
0.0
  0
SPLINE
  5
154
100
AcDbEntity
  8
0
 62
7
100
AcDbSpline
 70
8
 71
3
 72
8
 73
4
 74
0
 40
0
 40
0
 40
0
 40
0
 40
1
 40
1
 40
1
 40
1
 10
204.343258
 20
-18.957480
 30
0.0
 10
203.249362
 20
-19.589041
 30
0.0
 10
201.901627
 20
-19.589041
 30
0.0
 10
200.807731
 20
-18.957480
 30
0.0
  0
SPLINE
  5
155
100
AcDbEntity
  8
0
 62
7
100
AcDbSpline
 70
8
 71
3
 72
8
 73
4
 74
0
 40
0
 40
0
 40
0
 40
0
 40
1
 40
1
 40
1
 40
1
 10
200.807731
 20
-18.957480
 30
0.0
 10
199.713835
 20
-18.325918
 30
0.0
 10
199.039967
 20
-17.158745
 30
0.0
 10
199.039967
 20
-15.895623
 30
0.0
  0
SPLINE
  5
156
100
AcDbEntity
  8
0
 62
7
100
AcDbSpline
 70
8
 71
3
 72
8
 73
4
 74
0
 40
0
 40
0
 40
0
 40
0
 40
1
 40
1
 40
1
 40
1
 10
199.039967
 20
-15.895623
 30
0.0
 10
199.039967
 20
-14.632501
 30
0.0
 10
199.713835
 20
-13.465328
 30
0.0
 10
200.807731
 20
-12.833767
 30
0.0
  0
SPLINE
  5
157
100
AcDbEntity
  8
0
 62
7
100
AcDbSpline
 70
8
 71
3
 72
8
 73
4
 74
0
 40
0
 40
0
 40
0
 40
0
 40
1
 40
1
 40
1
 40
1
 10
200.807731
 20
-12.833767
 30
0.0
 10
201.901627
 20
-12.202206
 30
0.0
 10
203.249362
 20
-12.202206
 30
0.0
 10
204.343258
 20
-12.833767
 30
0.0
  0
SPLINE
  5
158
100
AcDbEntity
  8
0
 62
7
100
AcDbSpline
 70
8
 71
3
 72
8
 73
4
 74
0
 40
0
 40
0
 40
0
 40
0
 40
1
 40
1
 40
1
 40
1
 10
204.343258
 20
-12.833767
 30
0.0
 10
205.437154
 20
-13.465328
 30
0.0
 10
206.111022
 20
-14.632501
 30
0.0
 10
206.111022
 20
-15.895623
 30
0.0
  0
LWPOLYLINE
  5
159
100
AcDbEntity
  8
0
 62
7
100
AcDbPolyline
 90
1
 70
1
 10
211.111012
 20
-65.895573
 30
0.0
  0
SPLINE
  5
15a
100
AcDbEntity
  8
0
 62
7
100
AcDbSpline
 70
8
 71
3
 72
8
 73
4
 74
0
 40
0
 40
0
 40
0
 40
0
 40
1
 40
1
 40
1
 40
1
 10
366.111711
 20
-15.895623
 30
0.0
 10
366.111711
 20
-17.158745
 30
0.0
 10
365.437844
 20
-18.325918
 30
0.0
 10
364.343948
 20
-18.957480
 30
0.0
  0
SPLINE
  5
15b
100
AcDbEntity
  8
0
 62
7
100
AcDbSpline
 70
8
 71
3
 72
8
 73
4
 74
0
 40
0
 40
0
 40
0
 40
0
 40
1
 40
1
 40
1
 40
1
 10
364.343948
 20
-18.957480
 30
0.0
 10
363.250052
 20
-19.589041
 30
0.0
 10
361.902316
 20
-19.589041
 30
0.0
 10
360.808420
 20
-18.957480
 30
0.0
  0
SPLINE
  5
15c
100
AcDbEntity
  8
0
 62
7
100
AcDbSpline
 70
8
 71
3
 72
8
 73
4
 74
0
 40
0
 40
0
 40
0
 40
0
 40
1
 40
1
 40
1
 40
1
 10
360.808420
 20
-18.957480
 30
0.0
 10
359.714524
 20
-18.325918
 30
0.0
 10
359.040657
 20
-17.158745
 30
0.0
 10
359.040657
 20
-15.895623
 30
0.0
  0
SPLINE
  5
15d
100
AcDbEntity
  8
0
 62
7
100
AcDbSpline
 70
8
 71
3
 72
8
 73
4
 74
0
 40
0
 40
0
 40
0
 40
0
 40
1
 40
1
 40
1
 40
1
 10
359.040657
 20
-15.895623
 30
0.0
 10
359.040657
 20
-14.632501
 30
0.0
 10
359.714524
 20
-13.465328
 30
0.0
 10
360.808420
 20
-12.833767
 30
0.0
  0
SPLINE
  5
15e
100
AcDbEntity
  8
0
 62
7
100
AcDbSpline
 70
8
 71
3
 72
8
 73
4
 74
0
 40
0
 40
0
 40
0
 40
0
 40
1
 40
1
 40
1
 40
1
 10
360.808420
 20
-12.833767
 30
0.0
 10
361.902316
 20
-12.202206
 30
0.0
 10
363.250052
 20
-12.202206
 30
0.0
 10
364.343948
 20
-12.833767
 30
0.0
  0
SPLINE
  5
15f
100
AcDbEntity
  8
0
 62
7
100
AcDbSpline
 70
8
 71
3
 72
8
 73
4
 74
0
 40
0
 40
0
 40
0
 40
0
 40
1
 40
1
 40
1
 40
1
 10
364.343948
 20
-12.833767
 30
0.0
 10
365.437844
 20
-13.465328
 30
0.0
 10
366.111711
 20
-14.632501
 30
0.0
 10
366.111711
 20
-15.895623
 30
0.0
  0
LWPOLYLINE
  5
160
100
AcDbEntity
  8
0
 62
7
100
AcDbPolyline
 90
1
 70
1
 10
206.111022
 20
-15.895623
 30
0.0
  0
SPLINE
  5
161
100
AcDbEntity
  8
0
 62
7
100
AcDbSpline
 70
8
 71
3
 72
8
 73
4
 74
0
 40
0
 40
0
 40
0
 40
0
 40
1
 40
1
 40
1
 40
1
 10
361.110451
 20
-100.895508
 30
0.0
 10
361.110451
 20
-102.158630
 30
0.0
 10
360.436584
 20
-103.325803
 30
0.0
 10
359.342688
 20
-103.957364
 30
0.0
  0
SPLINE
  5
162
100
AcDbEntity
  8
0
 62
7
100
AcDbSpline
 70
8
 71
3
 72
8
 73
4
 74
0
 40
0
 40
0
 40
0
 40
0
 40
1
 40
1
 40
1
 40
1
 10
359.342688
 20
-103.957364
 30
0.0
 10
358.248792
 20
-104.588925
 30
0.0
 10
356.901056
 20
-104.588925
 30
0.0
 10
355.807160
 20
-103.957364
 30
0.0
  0
SPLINE
  5
163
100
AcDbEntity
  8
0
 62
7
100
AcDbSpline
 70
8
 71
3
 72
8
 73
4
 74
0
 40
0
 40
0
 40
0
 40
0
 40
1
 40
1
 40
1
 40
1
 10
355.807160
 20
-103.957364
 30
0.0
 10
354.713264
 20
-103.325803
 30
0.0
 10
354.039397
 20
-102.158630
 30
0.0
 10
354.039397
 20
-100.895508
 30
0.0
  0
SPLINE
  5
164
100
AcDbEntity
  8
0
 62
7
100
AcDbSpline
 70
8
 71
3
 72
8
 73
4
 74
0
 40
0
 40
0
 40
0
 40
0
 40
1
 40
1
 40
1
 40
1
 10
354.039397
 20
-100.895508
 30
0.0
 10
354.039397
 20
-99.632386
 30
0.0
 10
354.713264
 20
-98.465213
 30
0.0
 10
355.807160
 20
-97.833651
 30
0.0
  0
SPLINE
  5
165
100
AcDbEntity
  8
0
 62
7
100
AcDbSpline
 70
8
 71
3
 72
8
 73
4
 74
0
 40
0
 40
0
 40
0
 40
0
 40
1
 40
1
 40
1
 40
1
 10
355.807160
 20
-97.833651
 30
0.0
 10
356.901056
 20
-97.202090
 30
0.0
 10
358.248792
 20
-97.202090
 30
0.0
 10
359.342688
 20
-97.833651
 30
0.0
  0
SPLINE
  5
166
100
AcDbEntity
  8
0
 62
7
100
AcDbSpline
 70
8
 71
3
 72
8
 73
4
 74
0
 40
0
 40
0
 40
0
 40
0
 40
1
 40
1
 40
1
 40
1
 10
359.342688
 20
-97.833651
 30
0.0
 10
360.436584
 20
-98.465213
 30
0.0
 10
361.110451
 20
-99.632386
 30
0.0
 10
361.110451
 20
-100.895508
 30
0.0
  0
LWPOLYLINE
  5
167
100
AcDbEntity
  8
0
 62
7
100
AcDbPolyline
 90
1
 70
1
 10
366.111711
 20
-15.895623
 30
0.0
  0
SPLINE
  5
168
100
AcDbEntity
  8
0
 62
7
100
AcDbSpline
 70
8
 71
3
 72
8
 73
4
 74
0
 40
0
 40
0
 40
0
 40
0
 40
1
 40
1
 40
1
 40
1
 10
311.110552
 20
-115.895724
 30
0.0
 10
311.110552
 20
-117.158846
 30
0.0
 10
310.436684
 20
-118.326019
 30
0.0
 10
309.342788
 20
-118.957581
 30
0.0
  0
SPLINE
  5
169
100
AcDbEntity
  8
0
 62
7
100
AcDbSpline
 70
8
 71
3
 72
8
 73
4
 74
0
 40
0
 40
0
 40
0
 40
0
 40
1
 40
1
 40
1
 40
1
 10
309.342788
 20
-118.957581
 30
0.0
 10
308.248892
 20
-119.589142
 30
0.0
 10
306.901157
 20
-119.589142
 30
0.0
 10
305.807261
 20
-118.957581
 30
0.0
  0
SPLINE
  5
16a
100
AcDbEntity
  8
0
 62
7
100
AcDbSpline
 70
8
 71
3
 72
8
 73
4
 74
0
 40
0
 40
0
 40
0
 40
0
 40
1
 40
1
 40
1
 40
1
 10
305.807261
 20
-118.957581
 30
0.0
 10
304.713365
 20
-118.326019
 30
0.0
 10
304.039497
 20
-117.158846
 30
0.0
 10
304.039497
 20
-115.895724
 30
0.0
  0
SPLINE
  5
16b
100
AcDbEntity
  8
0
 62
7
100
AcDbSpline
 70
8
 71
3
 72
8
 73
4
 74
0
 40
0
 40
0
 40
0
 40
0
 40
1
 40
1
 40
1
 40
1
 10
304.039497
 20
-115.895724
 30
0.0
 10
304.039497
 20
-114.632602
 30
0.0
 10
304.713365
 20
-113.465429
 30
0.0
 10
305.807261
 20
-112.833868
 30
0.0
  0
SPLINE
  5
16c
100
AcDbEntity
  8
0
 62
7
100
AcDbSpline
 70
8
 71
3
 72
8
 73
4
 74
0
 40
0
 40
0
 40
0
 40
0
 40
1
 40
1
 40
1
 40
1
 10
305.807261
 20
-112.833868
 30
0.0
 10
306.901157
 20
-112.202307
 30
0.0
 10
308.248892
 20
-112.202307
 30
0.0
 10
309.342788
 20
-112.833868
 30
0.0
  0
SPLINE
  5
16d
100
AcDbEntity
  8
0
 62
7
100
AcDbSpline
 70
8
 71
3
 72
8
 73
4
 74
0
 40
0
 40
0
 40
0
 40
0
 40
1
 40
1
 40
1
 40
1
 10
309.342788
 20
-112.833868
 30
0.0
 10
310.436684
 20
-113.465429
 30
0.0
 10
311.110552
 20
-114.632602
 30
0.0
 10
311.110552
 20
-115.895724
 30
0.0
  0
LWPOLYLINE
  5
16e
100
AcDbEntity
  8
0
 62
7
100
AcDbPolyline
 90
1
 70
1
 10
361.110451
 20
-100.895508
 30
0.0
  0
LWPOLYLINE
  5
16f
100
AcDbEntity
  8
0
 62
7
100
AcDbPolyline
 90
1
 70
1
 10
311.110552
 20
-115.895724
 30
0.0
  0
SPLINE
  5
170
100
AcDbEntity
  8
0
 62
7
100
AcDbSpline
 70
8
 71
3
 72
8
 73
4
 74
0
 40
0
 40
0
 40
0
 40
0
 40
1
 40
1
 40
1
 40
1
 10
283.776345
 20
-130.895694
 30
0.0
 10
283.776345
 20
-131.324413
 30
0.0
 10
283.547626
 20
-131.720565
 30
0.0
 10
283.176345
 20
-131.934925
 30
0.0
  0
SPLINE
  5
171
100
AcDbEntity
  8
0
 62
7
100
AcDbSpline
 70
8
 71
3
 72
8
 73
4
 74
0
 40
0
 40
0
 40
0
 40
0
 40
1
 40
1
 40
1
 40
1
 10
283.176345
 20
-131.934925
 30
0.0
 10
282.805063
 20
-132.149284
 30
0.0
 10
282.347626
 20
-132.149284
 30
0.0
 10
281.976345
 20
-131.934925
 30
0.0
  0
SPLINE
  5
172
100
AcDbEntity
  8
0
 62
7
100
AcDbSpline
 70
8
 71
3
 72
8
 73
4
 74
0
 40
0
 40
0
 40
0
 40
0
 40
1
 40
1
 40
1
 40
1
 10
281.976345
 20
-131.934925
 30
0.0
 10
281.605063
 20
-131.720565
 30
0.0
 10
281.376345
 20
-131.324413
 30
0.0
 10
281.376345
 20
-130.895694
 30
0.0
  0
SPLINE
  5
173
100
AcDbEntity
  8
0
 62
7
100
AcDbSpline
 70
8
 71
3
 72
8
 73
4
 74
0
 40
0
 40
0
 40
0
 40
0
 40
1
 40
1
 40
1
 40
1
 10
281.376345
 20
-130.895694
 30
0.0
 10
281.376345
 20
-130.466975
 30
0.0
 10
281.605063
 20
-130.070823
 30
0.0
 10
281.976345
 20
-129.856463
 30
0.0
  0
SPLINE
  5
174
100
AcDbEntity
  8
0
 62
7
100
AcDbSpline
 70
8
 71
3
 72
8
 73
4
 74
0
 40
0
 40
0
 40
0
 40
0
 40
1
 40
1
 40
1
 40
1
 10
281.976345
 20
-129.856463
 30
0.0
 10
282.347626
 20
-129.642104
 30
0.0
 10
282.805063
 20
-129.642104
 30
0.0
 10
283.176345
 20
-129.856463
 30
0.0
  0
SPLINE
  5
175
100
AcDbEntity
  8
0
 62
7
100
AcDbSpline
 70
8
 71
3
 72
8
 73
4
 74
0
 40
0
 40
0
 40
0
 40
0
 40
1
 40
1
 40
1
 40
1
 10
283.176345
 20
-129.856463
 30
0.0
 10
283.547626
 20
-130.070823
 30
0.0
 10
283.776345
 20
-130.466975
 30
0.0
 10
283.776345
 20
-130.895694
 30
0.0
  0
LWPOLYLINE
  5
176
100
AcDbEntity
  8
0
 62
7
100
AcDbPolyline
 90
36
 70
1
 10
157.816626
 20
-130.262729
 30
0.0
 10
154.202206
 20
-143.755208
 30
0.0
 10
152.165126
 20
-143.209108
 30
0.0
 10
151.743486
 20
-144.778828
 30
0.0
 10
152.528346
 20
-144.989648
 30
0.0
 10
150.806226
 20
-151.418388
 30
0.0
 10
147.519466
 20
-150.537008
 30
0.0
 10
147.295946
 20
-151.372668
 30
0.0
 10
144.595926
 20
-150.648768
 30
0.0
 10
144.819446
 20
-149.813108
 30
0.0
 10
138.931726
 20
-148.235768
 30
0.0
 10
139.200966
 20
-147.229928
 30
0.0
 10
138.073206
 20
-146.927668
 30
0.0
 10
139.256846
 20
-142.513148
 30
0.0
 10
140.384606
 20
-142.815408
 30
0.0
 10
140.653846
 20
-141.809568
 30
0.0
 10
141.415846
 20
-142.012768
 30
0.0
 10
141.834946
 20
-140.443048
 30
0.0
 10
140.707186
 20
-140.140788
 30
0.0
 10
144.321606
 20
-126.645769
 30
0.0
 10
145.451906
 20
-126.948029
 30
0.0
 10
145.871006
 20
-125.378309
 30
0.0
 10
145.111546
 20
-125.175109
 30
0.0
 10
145.380786
 20
-124.169269
 30
0.0
 10
144.253026
 20
-123.867009
 30
0.0
 10
145.436666
 20
-119.449949
 30
0.0
 10
146.564426
 20
-119.752209
 30
0.0
 10
146.833666
 20
-118.746369
 30
0.0
 10
152.721386
 20
-120.323709
 30
0.0
 10
152.944906
 20
-119.490589
 30
0.0
 10
155.644926
 20
-120.211949
 30
0.0
 10
155.421406
 20
-121.047609
 30
0.0
 10
158.708166
 20
-121.928989
 30
0.0
 10
156.986046
 20
-128.355189
 30
0.0
 10
156.201186
 20
-128.144369
 30
0.0
 10
155.779546
 20
-129.716629
 30
0.0
  0
SPLINE
  5
177
100
AcDbEntity
  8
0
 62
7
100
AcDbSpline
 70
8
 71
3
 72
8
 73
4
 74
0
 40
0
 40
0
 40
0
 40
0
 40
1
 40
1
 40
1
 40
1
 10
358.774924
 20
-130.895694
 30
0.0
 10
358.774924
 20
-131.324413
 30
0.0
 10
358.546205
 20
-131.720565
 30
0.0
 10
358.174924
 20
-131.934925
 30
0.0
  0
SPLINE
  5
178
100
AcDbEntity
  8
0
 62
7
100
AcDbSpline
 70
8
 71
3
 72
8
 73
4
 74
0
 40
0
 40
0
 40
0
 40
0
 40
1
 40
1
 40
1
 40
1
 10
358.174924
 20
-131.934925
 30
0.0
 10
357.803643
 20
-132.149284
 30
0.0
 10
357.346205
 20
-132.149284
 30
0.0
 10
356.974924
 20
-131.934925
 30
0.0
  0
SPLINE
  5
179
100
AcDbEntity
  8
0
 62
7
100
AcDbSpline
 70
8
 71
3
 72
8
 73
4
 74
0
 40
0
 40
0
 40
0
 40
0
 40
1
 40
1
 40
1
 40
1
 10
356.974924
 20
-131.934925
 30
0.0
 10
356.603643
 20
-131.720565
 30
0.0
 10
356.374924
 20
-131.324413
 30
0.0
 10
356.374924
 20
-130.895694
 30
0.0
  0
SPLINE
  5
17a
100
AcDbEntity
  8
0
 62
7
100
AcDbSpline
 70
8
 71
3
 72
8
 73
4
 74
0
 40
0
 40
0
 40
0
 40
0
 40
1
 40
1
 40
1
 40
1
 10
356.374924
 20
-130.895694
 30
0.0
 10
356.374924
 20
-130.466975
 30
0.0
 10
356.603643
 20
-130.070823
 30
0.0
 10
356.974924
 20
-129.856463
 30
0.0
  0
SPLINE
  5
17b
100
AcDbEntity
  8
0
 62
7
100
AcDbSpline
 70
8
 71
3
 72
8
 73
4
 74
0
 40
0
 40
0
 40
0
 40
0
 40
1
 40
1
 40
1
 40
1
 10
356.974924
 20
-129.856463
 30
0.0
 10
357.346205
 20
-129.642104
 30
0.0
 10
357.803643
 20
-129.642104
 30
0.0
 10
358.174924
 20
-129.856463
 30
0.0
  0
SPLINE
  5
17c
100
AcDbEntity
  8
0
 62
7
100
AcDbSpline
 70
8
 71
3
 72
8
 73
4
 74
0
 40
0
 40
0
 40
0
 40
0
 40
1
 40
1
 40
1
 40
1
 10
358.174924
 20
-129.856463
 30
0.0
 10
358.546205
 20
-130.070823
 30
0.0
 10
358.774924
 20
-130.466975
 30
0.0
 10
358.774924
 20
-130.895694
 30
0.0
  0
LWPOLYLINE
  5
17d
100
AcDbEntity
  8
0
 62
7
100
AcDbPolyline
 90
1
 70
1
 10
283.776345
 20
-130.895694
 30
0.0
  0
SPLINE
  5
17e
100
AcDbEntity
  8
0
 62
7
100
AcDbSpline
 70
8
 71
3
 72
8
 73
4
 74
0
 40
0
 40
0
 40
0
 40
0
 40
1
 40
1
 40
1
 40
1
 10
378.774884
 20
-110.895734
 30
0.0
 10
378.774884
 20
-111.324453
 30
0.0
 10
378.546165
 20
-111.720605
 30
0.0
 10
378.174884
 20
-111.934965
 30
0.0
  0
SPLINE
  5
17f
100
AcDbEntity
  8
0
 62
7
100
AcDbSpline
 70
8
 71
3
 72
8
 73
4
 74
0
 40
0
 40
0
 40
0
 40
0
 40
1
 40
1
 40
1
 40
1
 10
378.174884
 20
-111.934965
 30
0.0
 10
377.803603
 20
-112.149324
 30
0.0
 10
377.346165
 20
-112.149324
 30
0.0
 10
376.974884
 20
-111.934965
 30
0.0
  0
SPLINE
  5
180
100
AcDbEntity
  8
0
 62
7
100
AcDbSpline
 70
8
 71
3
 72
8
 73
4
 74
0
 40
0
 40
0
 40
0
 40
0
 40
1
 40
1
 40
1
 40
1
 10
376.974884
 20
-111.934965
 30
0.0
 10
376.603602
 20
-111.720605
 30
0.0
 10
376.374884
 20
-111.324453
 30
0.0
 10
376.374884
 20
-110.895734
 30
0.0
  0
SPLINE
  5
181
100
AcDbEntity
  8
0
 62
7
100
AcDbSpline
 70
8
 71
3
 72
8
 73
4
 74
0
 40
0
 40
0
 40
0
 40
0
 40
1
 40
1
 40
1
 40
1
 10
376.374884
 20
-110.895734
 30
0.0
 10
376.374884
 20
-110.467015
 30
0.0
 10
376.603602
 20
-110.070863
 30
0.0
 10
376.974884
 20
-109.856504
 30
0.0
  0
SPLINE
  5
182
100
AcDbEntity
  8
0
 62
7
100
AcDbSpline
 70
8
 71
3
 72
8
 73
4
 74
0
 40
0
 40
0
 40
0
 40
0
 40
1
 40
1
 40
1
 40
1
 10
376.974884
 20
-109.856504
 30
0.0
 10
377.346165
 20
-109.642144
 30
0.0
 10
377.803603
 20
-109.642144
 30
0.0
 10
378.174884
 20
-109.856504
 30
0.0
  0
SPLINE
  5
183
100
AcDbEntity
  8
0
 62
7
100
AcDbSpline
 70
8
 71
3
 72
8
 73
4
 74
0
 40
0
 40
0
 40
0
 40
0
 40
1
 40
1
 40
1
 40
1
 10
378.174884
 20
-109.856504
 30
0.0
 10
378.546165
 20
-110.070863
 30
0.0
 10
378.774884
 20
-110.467015
 30
0.0
 10
378.774884
 20
-110.895734
 30
0.0
  0
LWPOLYLINE
  5
184
100
AcDbEntity
  8
0
 62
7
100
AcDbPolyline
 90
1
 70
1
 10
358.774924
 20
-130.895694
 30
0.0
  0
SPLINE
  5
185
100
AcDbEntity
  8
0
 62
7
100
AcDbSpline
 70
8
 71
3
 72
8
 73
4
 74
0
 40
0
 40
0
 40
0
 40
0
 40
1
 40
1
 40
1
 40
1
 10
378.774884
 20
-20.895638
 30
0.0
 10
378.774884
 20
-21.324356
 30
0.0
 10
378.546165
 20
-21.720509
 30
0.0
 10
378.174884
 20
-21.934868
 30
0.0
  0
SPLINE
  5
186
100
AcDbEntity
  8
0
 62
7
100
AcDbSpline
 70
8
 71
3
 72
8
 73
4
 74
0
 40
0
 40
0
 40
0
 40
0
 40
1
 40
1
 40
1
 40
1
 10
378.174884
 20
-21.934868
 30
0.0
 10
377.803603
 20
-22.149228
 30
0.0
 10
377.346165
 20
-22.149228
 30
0.0
 10
376.974884
 20
-21.934868
 30
0.0
  0
SPLINE
  5
187
100
AcDbEntity
  8
0
 62
7
100
AcDbSpline
 70
8
 71
3
 72
8
 73
4
 74
0
 40
0
 40
0
 40
0
 40
0
 40
1
 40
1
 40
1
 40
1
 10
376.974884
 20
-21.934868
 30
0.0
 10
376.603602
 20
-21.720509
 30
0.0
 10
376.374884
 20
-21.324356
 30
0.0
 10
376.374884
 20
-20.895638
 30
0.0
  0
SPLINE
  5
188
100
AcDbEntity
  8
0
 62
7
100
AcDbSpline
 70
8
 71
3
 72
8
 73
4
 74
0
 40
0
 40
0
 40
0
 40
0
 40
1
 40
1
 40
1
 40
1
 10
376.374884
 20
-20.895638
 30
0.0
 10
376.374884
 20
-20.466919
 30
0.0
 10
376.603602
 20
-20.070766
 30
0.0
 10
376.974884
 20
-19.856407
 30
0.0
  0
SPLINE
  5
189
100
AcDbEntity
  8
0
 62
7
100
AcDbSpline
 70
8
 71
3
 72
8
 73
4
 74
0
 40
0
 40
0
 40
0
 40
0
 40
1
 40
1
 40
1
 40
1
 10
376.974884
 20
-19.856407
 30
0.0
 10
377.346165
 20
-19.642048
 30
0.0
 10
377.803603
 20
-19.642048
 30
0.0
 10
378.174884
 20
-19.856407
 30
0.0
  0
SPLINE
  5
18a
100
AcDbEntity
  8
0
 62
7
100
AcDbSpline
 70
8
 71
3
 72
8
 73
4
 74
0
 40
0
 40
0
 40
0
 40
0
 40
1
 40
1
 40
1
 40
1
 10
378.174884
 20
-19.856407
 30
0.0
 10
378.546165
 20
-20.070766
 30
0.0
 10
378.774884
 20
-20.466919
 30
0.0
 10
378.774884
 20
-20.895638
 30
0.0
  0
LWPOLYLINE
  5
18b
100
AcDbEntity
  8
0
 62
7
100
AcDbPolyline
 90
1
 70
1
 10
378.774884
 20
-110.895734
 30
0.0
  0
SPLINE
  5
18c
100
AcDbEntity
  8
0
 62
7
100
AcDbSpline
 70
8
 71
3
 72
8
 73
4
 74
0
 40
0
 40
0
 40
0
 40
0
 40
1
 40
1
 40
1
 40
1
 10
353.776204
 20
-0.895627
 30
0.0
 10
353.776204
 20
-1.558369
 30
0.0
 10
353.238946
 20
-2.095627
 30
0.0
 10
352.576204
 20
-2.095627
 30
0.0
  0
SPLINE
  5
18d
100
AcDbEntity
  8
0
 62
7
100
AcDbSpline
 70
8
 71
3
 72
8
 73
4
 74
0
 40
0
 40
0
 40
0
 40
0
 40
1
 40
1
 40
1
 40
1
 10
352.576204
 20
-2.095627
 30
0.0
 10
351.913462
 20
-2.095627
 30
0.0
 10
351.376204
 20
-1.558369
 30
0.0
 10
351.376204
 20
-0.895627
 30
0.0
  0
SPLINE
  5
18e
100
AcDbEntity
  8
0
 62
7
100
AcDbSpline
 70
8
 71
3
 72
8
 73
4
 74
0
 40
0
 40
0
 40
0
 40
0
 40
1
 40
1
 40
1
 40
1
 10
351.376204
 20
-0.895627
 30
0.0
 10
351.376204
 20
-0.466909
 30
0.0
 10
351.604923
 20
-0.070756
 30
0.0
 10
351.976204
 20
0.143603
 30
0.0
  0
SPLINE
  5
18f
100
AcDbEntity
  8
0
 62
7
100
AcDbSpline
 70
8
 71
3
 72
8
 73
4
 74
0
 40
0
 40
0
 40
0
 40
0
 40
1
 40
1
 40
1
 40
1
 10
351.976204
 20
0.143603
 30
0.0
 10
352.347485
 20
0.357963
 30
0.0
 10
352.804923
 20
0.357963
 30
0.0
 10
353.176204
 20
0.143603
 30
0.0
  0
SPLINE
  5
190
100
AcDbEntity
  8
0
 62
7
100
AcDbSpline
 70
8
 71
3
 72
8
 73
4
 74
0
 40
0
 40
0
 40
0
 40
0
 40
1
 40
1
 40
1
 40
1
 10
353.176204
 20
0.143603
 30
0.0
 10
353.547485
 20
-0.070756
 30
0.0
 10
353.776204
 20
-0.466909
 30
0.0
 10
353.776204
 20
-0.895627
 30
0.0
  0
LWPOLYLINE
  5
191
100
AcDbEntity
  8
0
 62
7
100
AcDbPolyline
 90
1
 70
1
 10
378.774884
 20
-20.895638
 30
0.0
  0
SPLINE
  5
192
100
AcDbEntity
  8
0
 62
7
100
AcDbSpline
 70
8
 71
3
 72
8
 73
4
 74
0
 40
0
 40
0
 40
0
 40
0
 40
1
 40
1
 40
1
 40
1
 10
283.776345
 20
-0.895627
 30
0.0
 10
283.776345
 20
-1.324346
 30
0.0
 10
283.547626
 20
-1.720499
 30
0.0
 10
283.176345
 20
-1.934858
 30
0.0
  0
SPLINE
  5
193
100
AcDbEntity
  8
0
 62
7
100
AcDbSpline
 70
8
 71
3
 72
8
 73
4
 74
0
 40
0
 40
0
 40
0
 40
0
 40
1
 40
1
 40
1
 40
1
 10
283.176345
 20
-1.934858
 30
0.0
 10
282.805063
 20
-2.149217
 30
0.0
 10
282.347626
 20
-2.149217
 30
0.0
 10
281.976345
 20
-1.934858
 30
0.0
  0
SPLINE
  5
194
100
AcDbEntity
  8
0
 62
7
100
AcDbSpline
 70
8
 71
3
 72
8
 73
4
 74
0
 40
0
 40
0
 40
0
 40
0
 40
1
 40
1
 40
1
 40
1
 10
281.976345
 20
-1.934858
 30
0.0
 10
281.605063
 20
-1.720499
 30
0.0
 10
281.376345
 20
-1.324346
 30
0.0
 10
281.376345
 20
-0.895627
 30
0.0
  0
SPLINE
  5
195
100
AcDbEntity
  8
0
 62
7
100
AcDbSpline
 70
8
 71
3
 72
8
 73
4
 74
0
 40
0
 40
0
 40
0
 40
0
 40
1
 40
1
 40
1
 40
1
 10
281.376345
 20
-0.895627
 30
0.0
 10
281.376345
 20
-0.466909
 30
0.0
 10
281.605063
 20
-0.070756
 30
0.0
 10
281.976345
 20
0.143603
 30
0.0
  0
SPLINE
  5
196
100
AcDbEntity
  8
0
 62
7
100
AcDbSpline
 70
8
 71
3
 72
8
 73
4
 74
0
 40
0
 40
0
 40
0
 40
0
 40
1
 40
1
 40
1
 40
1
 10
281.976345
 20
0.143603
 30
0.0
 10
282.347626
 20
0.357963
 30
0.0
 10
282.805063
 20
0.357963
 30
0.0
 10
283.176345
 20
0.143603
 30
0.0
  0
SPLINE
  5
197
100
AcDbEntity
  8
0
 62
7
100
AcDbSpline
 70
8
 71
3
 72
8
 73
4
 74
0
 40
0
 40
0
 40
0
 40
0
 40
1
 40
1
 40
1
 40
1
 10
283.176345
 20
0.143603
 30
0.0
 10
283.547626
 20
-0.070756
 30
0.0
 10
283.776345
 20
-0.466909
 30
0.0
 10
283.776345
 20
-0.895627
 30
0.0
  0
LWPOLYLINE
  5
198
100
AcDbEntity
  8
0
 62
7
100
AcDbPolyline
 90
1
 70
1
 10
353.776204
 20
-0.895627
 30
0.0
  0
SPLINE
  5
199
100
AcDbEntity
  8
0
 62
7
100
AcDbSpline
 70
8
 71
3
 72
8
 73
4
 74
0
 40
0
 40
0
 40
0
 40
0
 40
1
 40
1
 40
1
 40
1
 10
231.275556
 20
-170.895624
 30
0.0
 10
231.275556
 20
-171.324343
 30
0.0
 10
231.046838
 20
-171.720495
 30
0.0
 10
230.675556
 20
-171.934854
 30
0.0
  0
SPLINE
  5
19a
100
AcDbEntity
  8
0
 62
7
100
AcDbSpline
 70
8
 71
3
 72
8
 73
4
 74
0
 40
0
 40
0
 40
0
 40
0
 40
1
 40
1
 40
1
 40
1
 10
230.675556
 20
-171.934854
 30
0.0
 10
230.304275
 20
-172.149214
 30
0.0
 10
229.846837
 20
-172.149214
 30
0.0
 10
229.475556
 20
-171.934854
 30
0.0
  0
SPLINE
  5
19b
100
AcDbEntity
  8
0
 62
7
100
AcDbSpline
 70
8
 71
3
 72
8
 73
4
 74
0
 40
0
 40
0
 40
0
 40
0
 40
1
 40
1
 40
1
 40
1
 10
229.475556
 20
-171.934854
 30
0.0
 10
229.104275
 20
-171.720495
 30
0.0
 10
228.875556
 20
-171.324343
 30
0.0
 10
228.875556
 20
-170.895624
 30
0.0
  0
SPLINE
  5
19c
100
AcDbEntity
  8
0
 62
7
100
AcDbSpline
 70
8
 71
3
 72
8
 73
4
 74
0
 40
0
 40
0
 40
0
 40
0
 40
1
 40
1
 40
1
 40
1
 10
228.875556
 20
-170.895624
 30
0.0
 10
228.875556
 20
-170.466905
 30
0.0
 10
229.104275
 20
-170.070753
 30
0.0
 10
229.475556
 20
-169.856393
 30
0.0
  0
SPLINE
  5
19d
100
AcDbEntity
  8
0
 62
7
100
AcDbSpline
 70
8
 71
3
 72
8
 73
4
 74
0
 40
0
 40
0
 40
0
 40
0
 40
1
 40
1
 40
1
 40
1
 10
229.475556
 20
-169.856393
 30
0.0
 10
229.846837
 20
-169.642034
 30
0.0
 10
230.304275
 20
-169.642034
 30
0.0
 10
230.675556
 20
-169.856393
 30
0.0
  0
SPLINE
  5
19e
100
AcDbEntity
  8
0
 62
7
100
AcDbSpline
 70
8
 71
3
 72
8
 73
4
 74
0
 40
0
 40
0
 40
0
 40
0
 40
1
 40
1
 40
1
 40
1
 10
230.675556
 20
-169.856393
 30
0.0
 10
231.046838
 20
-170.070753
 30
0.0
 10
231.275556
 20
-170.466905
 30
0.0
 10
231.275556
 20
-170.895624
 30
0.0
  0
LWPOLYLINE
  5
19f
100
AcDbEntity
  8
0
 62
7
100
AcDbPolyline
 90
1
 70
1
 10
283.776345
 20
-0.895627
 30
0.0
  0
SPLINE
  5
1a0
100
AcDbEntity
  8
0
 62
7
100
AcDbSpline
 70
8
 71
3
 72
8
 73
4
 74
0
 40
0
 40
0
 40
0
 40
0
 40
1
 40
1
 40
1
 40
1
 10
141.275491
 20
-170.895624
 30
0.0
 10
141.275491
 20
-171.324343
 30
0.0
 10
141.046772
 20
-171.720495
 30
0.0
 10
140.675491
 20
-171.934854
 30
0.0
  0
SPLINE
  5
1a1
100
AcDbEntity
  8
0
 62
7
100
AcDbSpline
 70
8
 71
3
 72
8
 73
4
 74
0
 40
0
 40
0
 40
0
 40
0
 40
1
 40
1
 40
1
 40
1
 10
140.675491
 20
-171.934854
 30
0.0
 10
140.304209
 20
-172.149214
 30
0.0
 10
139.846772
 20
-172.149214
 30
0.0
 10
139.475491
 20
-171.934854
 30
0.0
  0
SPLINE
  5
1a2
100
AcDbEntity
  8
0
 62
7
100
AcDbSpline
 70
8
 71
3
 72
8
 73
4
 74
0
 40
0
 40
0
 40
0
 40
0
 40
1
 40
1
 40
1
 40
1
 10
139.475491
 20
-171.934854
 30
0.0
 10
139.104209
 20
-171.720495
 30
0.0
 10
138.875490
 20
-171.324343
 30
0.0
 10
138.875490
 20
-170.895624
 30
0.0
  0
SPLINE
  5
1a3
100
AcDbEntity
  8
0
 62
7
100
AcDbSpline
 70
8
 71
3
 72
8
 73
4
 74
0
 40
0
 40
0
 40
0
 40
0
 40
1
 40
1
 40
1
 40
1
 10
138.875490
 20
-170.895624
 30
0.0
 10
138.875490
 20
-170.466905
 30
0.0
 10
139.104209
 20
-170.070753
 30
0.0
 10
139.475491
 20
-169.856393
 30
0.0
  0
SPLINE
  5
1a4
100
AcDbEntity
  8
0
 62
7
100
AcDbSpline
 70
8
 71
3
 72
8
 73
4
 74
0
 40
0
 40
0
 40
0
 40
0
 40
1
 40
1
 40
1
 40
1
 10
139.475491
 20
-169.856393
 30
0.0
 10
139.846772
 20
-169.642034
 30
0.0
 10
140.304209
 20
-169.642034
 30
0.0
 10
140.675491
 20
-169.856393
 30
0.0
  0
SPLINE
  5
1a5
100
AcDbEntity
  8
0
 62
7
100
AcDbSpline
 70
8
 71
3
 72
8
 73
4
 74
0
 40
0
 40
0
 40
0
 40
0
 40
1
 40
1
 40
1
 40
1
 10
140.675491
 20
-169.856393
 30
0.0
 10
141.046772
 20
-170.070753
 30
0.0
 10
141.275491
 20
-170.466905
 30
0.0
 10
141.275491
 20
-170.895624
 30
0.0
  0
LWPOLYLINE
  5
1a6
100
AcDbEntity
  8
0
 62
7
100
AcDbPolyline
 90
1
 70
1
 10
231.275556
 20
-170.895624
 30
0.0
  0
SPLINE
  5
1a7
100
AcDbEntity
  8
0
 62
7
100
AcDbSpline
 70
8
 71
3
 72
8
 73
4
 74
0
 40
0
 40
0
 40
0
 40
0
 40
1
 40
1
 40
1
 40
1
 10
98.775706
 20
-130.895694
 30
0.0
 10
98.775706
 20
-131.558436
 30
0.0
 10
98.238447
 20
-132.095694
 30
0.0
 10
97.575706
 20
-132.095694
 30
0.0
  0
SPLINE
  5
1a8
100
AcDbEntity
  8
0
 62
7
100
AcDbSpline
 70
8
 71
3
 72
8
 73
4
 74
0
 40
0
 40
0
 40
0
 40
0
 40
1
 40
1
 40
1
 40
1
 10
97.575706
 20
-132.095694
 30
0.0
 10
96.912964
 20
-132.095694
 30
0.0
 10
96.375706
 20
-131.558436
 30
0.0
 10
96.375705
 20
-130.895694
 30
0.0
  0
SPLINE
  5
1a9
100
AcDbEntity
  8
0
 62
7
100
AcDbSpline
 70
8
 71
3
 72
8
 73
4
 74
0
 40
0
 40
0
 40
0
 40
0
 40
1
 40
1
 40
1
 40
1
 10
96.375705
 20
-130.895694
 30
0.0
 10
96.375706
 20
-130.232952
 30
0.0
 10
96.912964
 20
-129.695694
 30
0.0
 10
97.575706
 20
-129.695694
 30
0.0
  0
SPLINE
  5
1aa
100
AcDbEntity
  8
0
 62
7
100
AcDbSpline
 70
8
 71
3
 72
8
 73
4
 74
0
 40
0
 40
0
 40
0
 40
0
 40
1
 40
1
 40
1
 40
1
 10
97.575706
 20
-129.695694
 30
0.0
 10
98.238447
 20
-129.695694
 30
0.0
 10
98.775706
 20
-130.232952
 30
0.0
 10
98.775706
 20
-130.895694
 30
0.0
  0
LWPOLYLINE
  5
1ab
100
AcDbEntity
  8
0
 62
7
100
AcDbPolyline
 90
1
 70
1
 10
141.275491
 20
-170.895624
 30
0.0
  0
SPLINE
  5
1ac
100
AcDbEntity
  8
0
 62
7
100
AcDbSpline
 70
8
 71
3
 72
8
 73
4
 74
0
 40
0
 40
0
 40
0
 40
0
 40
1
 40
1
 40
1
 40
1
 10
23.775597
 20
-130.895694
 30
0.0
 10
23.775597
 20
-131.558436
 30
0.0
 10
23.238339
 20
-132.095694
 30
0.0
 10
22.575597
 20
-132.095694
 30
0.0
  0
SPLINE
  5
1ad
100
AcDbEntity
  8
0
 62
7
100
AcDbSpline
 70
8
 71
3
 72
8
 73
4
 74
0
 40
0
 40
0
 40
0
 40
0
 40
1
 40
1
 40
1
 40
1
 10
22.575597
 20
-132.095694
 30
0.0
 10
21.912855
 20
-132.095694
 30
0.0
 10
21.375597
 20
-131.558436
 30
0.0
 10
21.375597
 20
-130.895694
 30
0.0
  0
SPLINE
  5
1ae
100
AcDbEntity
  8
0
 62
7
100
AcDbSpline
 70
8
 71
3
 72
8
 73
4
 74
0
 40
0
 40
0
 40
0
 40
0
 40
1
 40
1
 40
1
 40
1
 10
21.375597
 20
-130.895694
 30
0.0
 10
21.375597
 20
-130.466975
 30
0.0
 10
21.604316
 20
-130.070823
 30
0.0
 10
21.975597
 20
-129.856463
 30
0.0
  0
SPLINE
  5
1af
100
AcDbEntity
  8
0
 62
7
100
AcDbSpline
 70
8
 71
3
 72
8
 73
4
 74
0
 40
0
 40
0
 40
0
 40
0
 40
1
 40
1
 40
1
 40
1
 10
21.975597
 20
-129.856463
 30
0.0
 10
22.346879
 20
-129.642104
 30
0.0
 10
22.804316
 20
-129.642104
 30
0.0
 10
23.175597
 20
-129.856463
 30
0.0
  0
SPLINE
  5
1b0
100
AcDbEntity
  8
0
 62
7
100
AcDbSpline
 70
8
 71
3
 72
8
 73
4
 74
0
 40
0
 40
0
 40
0
 40
0
 40
1
 40
1
 40
1
 40
1
 10
23.175597
 20
-129.856463
 30
0.0
 10
23.546879
 20
-130.070823
 30
0.0
 10
23.775597
 20
-130.466975
 30
0.0
 10
23.775597
 20
-130.895694
 30
0.0
  0
LWPOLYLINE
  5
1b1
100
AcDbEntity
  8
0
 62
7
100
AcDbPolyline
 90
1
 70
1
 10
98.775706
 20
-130.895694
 30
0.0
  0
SPLINE
  5
1b2
100
AcDbEntity
  8
0
 62
7
100
AcDbSpline
 70
8
 71
3
 72
8
 73
4
 74
0
 40
0
 40
0
 40
0
 40
0
 40
1
 40
1
 40
1
 40
1
 10
3.775587
 20
-110.895734
 30
0.0
 10
3.775587
 20
-111.324453
 30
0.0
 10
3.546868
 20
-111.720605
 30
0.0
 10
3.175587
 20
-111.934965
 30
0.0
  0
SPLINE
  5
1b3
100
AcDbEntity
  8
0
 62
7
100
AcDbSpline
 70
8
 71
3
 72
8
 73
4
 74
0
 40
0
 40
0
 40
0
 40
0
 40
1
 40
1
 40
1
 40
1
 10
3.175587
 20
-111.934965
 30
0.0
 10
2.804305
 20
-112.149324
 30
0.0
 10
2.346868
 20
-112.149324
 30
0.0
 10
1.975587
 20
-111.934965
 30
0.0
  0
SPLINE
  5
1b4
100
AcDbEntity
  8
0
 62
7
100
AcDbSpline
 70
8
 71
3
 72
8
 73
4
 74
0
 40
0
 40
0
 40
0
 40
0
 40
1
 40
1
 40
1
 40
1
 10
1.975587
 20
-111.934965
 30
0.0
 10
1.604305
 20
-111.720605
 30
0.0
 10
1.375586
 20
-111.324453
 30
0.0
 10
1.375586
 20
-110.895734
 30
0.0
  0
SPLINE
  5
1b5
100
AcDbEntity
  8
0
 62
7
100
AcDbSpline
 70
8
 71
3
 72
8
 73
4
 74
0
 40
0
 40
0
 40
0
 40
0
 40
1
 40
1
 40
1
 40
1
 10
1.375586
 20
-110.895734
 30
0.0
 10
1.375586
 20
-110.467015
 30
0.0
 10
1.604305
 20
-110.070863
 30
0.0
 10
1.975587
 20
-109.856504
 30
0.0
  0
SPLINE
  5
1b6
100
AcDbEntity
  8
0
 62
7
100
AcDbSpline
 70
8
 71
3
 72
8
 73
4
 74
0
 40
0
 40
0
 40
0
 40
0
 40
1
 40
1
 40
1
 40
1
 10
1.975587
 20
-109.856504
 30
0.0
 10
2.346868
 20
-109.642144
 30
0.0
 10
2.804305
 20
-109.642144
 30
0.0
 10
3.175587
 20
-109.856504
 30
0.0
  0
SPLINE
  5
1b7
100
AcDbEntity
  8
0
 62
7
100
AcDbSpline
 70
8
 71
3
 72
8
 73
4
 74
0
 40
0
 40
0
 40
0
 40
0
 40
1
 40
1
 40
1
 40
1
 10
3.175587
 20
-109.856504
 30
0.0
 10
3.546868
 20
-110.070863
 30
0.0
 10
3.775587
 20
-110.467015
 30
0.0
 10
3.775587
 20
-110.895734
 30
0.0
  0
LWPOLYLINE
  5
1b8
100
AcDbEntity
  8
0
 62
7
100
AcDbPolyline
 90
1
 70
1
 10
23.775597
 20
-130.895694
 30
0.0
  0
SPLINE
  5
1b9
100
AcDbEntity
  8
0
 62
7
100
AcDbSpline
 70
8
 71
3
 72
8
 73
4
 74
0
 40
0
 40
0
 40
0
 40
0
 40
1
 40
1
 40
1
 40
1
 10
3.775587
 20
-20.895638
 30
0.0
 10
3.775587
 20
-21.324356
 30
0.0
 10
3.546868
 20
-21.720509
 30
0.0
 10
3.175587
 20
-21.934868
 30
0.0
  0
SPLINE
  5
1ba
100
AcDbEntity
  8
0
 62
7
100
AcDbSpline
 70
8
 71
3
 72
8
 73
4
 74
0
 40
0
 40
0
 40
0
 40
0
 40
1
 40
1
 40
1
 40
1
 10
3.175587
 20
-21.934868
 30
0.0
 10
2.804305
 20
-22.149228
 30
0.0
 10
2.346868
 20
-22.149228
 30
0.0
 10
1.975587
 20
-21.934868
 30
0.0
  0
SPLINE
  5
1bb
100
AcDbEntity
  8
0
 62
7
100
AcDbSpline
 70
8
 71
3
 72
8
 73
4
 74
0
 40
0
 40
0
 40
0
 40
0
 40
1
 40
1
 40
1
 40
1
 10
1.975587
 20
-21.934868
 30
0.0
 10
1.604305
 20
-21.720509
 30
0.0
 10
1.375586
 20
-21.324356
 30
0.0
 10
1.375586
 20
-20.895638
 30
0.0
  0
SPLINE
  5
1bc
100
AcDbEntity
  8
0
 62
7
100
AcDbSpline
 70
8
 71
3
 72
8
 73
4
 74
0
 40
0
 40
0
 40
0
 40
0
 40
1
 40
1
 40
1
 40
1
 10
1.375586
 20
-20.895638
 30
0.0
 10
1.375586
 20
-20.466919
 30
0.0
 10
1.604305
 20
-20.070766
 30
0.0
 10
1.975587
 20
-19.856407
 30
0.0
  0
SPLINE
  5
1bd
100
AcDbEntity
  8
0
 62
7
100
AcDbSpline
 70
8
 71
3
 72
8
 73
4
 74
0
 40
0
 40
0
 40
0
 40
0
 40
1
 40
1
 40
1
 40
1
 10
1.975587
 20
-19.856407
 30
0.0
 10
2.346868
 20
-19.642048
 30
0.0
 10
2.804305
 20
-19.642048
 30
0.0
 10
3.175587
 20
-19.856407
 30
0.0
  0
SPLINE
  5
1be
100
AcDbEntity
  8
0
 62
7
100
AcDbSpline
 70
8
 71
3
 72
8
 73
4
 74
0
 40
0
 40
0
 40
0
 40
0
 40
1
 40
1
 40
1
 40
1
 10
3.175587
 20
-19.856407
 30
0.0
 10
3.546868
 20
-20.070766
 30
0.0
 10
3.775587
 20
-20.466919
 30
0.0
 10
3.775587
 20
-20.895638
 30
0.0
  0
LWPOLYLINE
  5
1bf
100
AcDbEntity
  8
0
 62
7
100
AcDbPolyline
 90
1
 70
1
 10
3.775587
 20
-110.895734
 30
0.0
  0
SPLINE
  5
1c0
100
AcDbEntity
  8
0
 62
7
100
AcDbSpline
 70
8
 71
3
 72
8
 73
4
 74
0
 40
0
 40
0
 40
0
 40
0
 40
1
 40
1
 40
1
 40
1
 10
23.775597
 20
-0.895627
 30
0.0
 10
23.775597
 20
-1.558369
 30
0.0
 10
23.238339
 20
-2.095627
 30
0.0
 10
22.575597
 20
-2.095627
 30
0.0
  0
SPLINE
  5
1c1
100
AcDbEntity
  8
0
 62
7
100
AcDbSpline
 70
8
 71
3
 72
8
 73
4
 74
0
 40
0
 40
0
 40
0
 40
0
 40
1
 40
1
 40
1
 40
1
 10
22.575597
 20
-2.095627
 30
0.0
 10
21.912855
 20
-2.095627
 30
0.0
 10
21.375597
 20
-1.558369
 30
0.0
 10
21.375597
 20
-0.895627
 30
0.0
  0
SPLINE
  5
1c2
100
AcDbEntity
  8
0
 62
7
100
AcDbSpline
 70
8
 71
3
 72
8
 73
4
 74
0
 40
0
 40
0
 40
0
 40
0
 40
1
 40
1
 40
1
 40
1
 10
21.375597
 20
-0.895627
 30
0.0
 10
21.375597
 20
-0.466909
 30
0.0
 10
21.604316
 20
-0.070756
 30
0.0
 10
21.975597
 20
0.143603
 30
0.0
  0
SPLINE
  5
1c3
100
AcDbEntity
  8
0
 62
7
100
AcDbSpline
 70
8
 71
3
 72
8
 73
4
 74
0
 40
0
 40
0
 40
0
 40
0
 40
1
 40
1
 40
1
 40
1
 10
21.975597
 20
0.143603
 30
0.0
 10
22.346879
 20
0.357963
 30
0.0
 10
22.804316
 20
0.357963
 30
0.0
 10
23.175597
 20
0.143603
 30
0.0
  0
SPLINE
  5
1c4
100
AcDbEntity
  8
0
 62
7
100
AcDbSpline
 70
8
 71
3
 72
8
 73
4
 74
0
 40
0
 40
0
 40
0
 40
0
 40
1
 40
1
 40
1
 40
1
 10
23.175597
 20
0.143603
 30
0.0
 10
23.546879
 20
-0.070756
 30
0.0
 10
23.775597
 20
-0.466909
 30
0.0
 10
23.775597
 20
-0.895627
 30
0.0
  0
LWPOLYLINE
  5
1c5
100
AcDbEntity
  8
0
 62
7
100
AcDbPolyline
 90
1
 70
1
 10
3.775587
 20
-20.895638
 30
0.0
  0
SPLINE
  5
1c6
100
AcDbEntity
  8
0
 62
7
100
AcDbSpline
 70
8
 71
3
 72
8
 73
4
 74
0
 40
0
 40
0
 40
0
 40
0
 40
1
 40
1
 40
1
 40
1
 10
98.775706
 20
-0.895627
 30
0.0
 10
98.775706
 20
-1.558369
 30
0.0
 10
98.238447
 20
-2.095627
 30
0.0
 10
97.575706
 20
-2.095627
 30
0.0
  0
SPLINE
  5
1c7
100
AcDbEntity
  8
0
 62
7
100
AcDbSpline
 70
8
 71
3
 72
8
 73
4
 74
0
 40
0
 40
0
 40
0
 40
0
 40
1
 40
1
 40
1
 40
1
 10
97.575706
 20
-2.095627
 30
0.0
 10
96.912964
 20
-2.095627
 30
0.0
 10
96.375706
 20
-1.558369
 30
0.0
 10
96.375705
 20
-0.895627
 30
0.0
  0
SPLINE
  5
1c8
100
AcDbEntity
  8
0
 62
7
100
AcDbSpline
 70
8
 71
3
 72
8
 73
4
 74
0
 40
0
 40
0
 40
0
 40
0
 40
1
 40
1
 40
1
 40
1
 10
96.375705
 20
-0.895627
 30
0.0
 10
96.375706
 20
-0.232886
 30
0.0
 10
96.912964
 20
0.304373
 30
0.0
 10
97.575706
 20
0.304373
 30
0.0
  0
SPLINE
  5
1c9
100
AcDbEntity
  8
0
 62
7
100
AcDbSpline
 70
8
 71
3
 72
8
 73
4
 74
0
 40
0
 40
0
 40
0
 40
0
 40
1
 40
1
 40
1
 40
1
 10
97.575706
 20
0.304373
 30
0.0
 10
98.238447
 20
0.304373
 30
0.0
 10
98.775706
 20
-0.232886
 30
0.0
 10
98.775706
 20
-0.895627
 30
0.0
  0
LWPOLYLINE
  5
1ca
100
AcDbEntity
  8
0
 62
7
100
AcDbPolyline
 90
1
 70
1
 10
23.775597
 20
-0.895627
 30
0.0
  0
SPLINE
  5
1cb
100
AcDbEntity
  8
0
 62
7
100
AcDbSpline
 70
8
 71
3
 72
8
 73
4
 74
0
 40
0
 40
0
 40
0
 40
0
 40
1
 40
1
 40
1
 40
1
 10
168.775565
 20
-0.895627
 30
0.0
 10
168.775565
 20
-1.324346
 30
0.0
 10
168.546846
 20
-1.720499
 30
0.0
 10
168.175565
 20
-1.934858
 30
0.0
  0
SPLINE
  5
1cc
100
AcDbEntity
  8
0
 62
7
100
AcDbSpline
 70
8
 71
3
 72
8
 73
4
 74
0
 40
0
 40
0
 40
0
 40
0
 40
1
 40
1
 40
1
 40
1
 10
168.175565
 20
-1.934858
 30
0.0
 10
167.804284
 20
-2.149217
 30
0.0
 10
167.346846
 20
-2.149217
 30
0.0
 10
166.975565
 20
-1.934858
 30
0.0
  0
SPLINE
  5
1cd
100
AcDbEntity
  8
0
 62
7
100
AcDbSpline
 70
8
 71
3
 72
8
 73
4
 74
0
 40
0
 40
0
 40
0
 40
0
 40
1
 40
1
 40
1
 40
1
 10
166.975565
 20
-1.934858
 30
0.0
 10
166.604283
 20
-1.720499
 30
0.0
 10
166.375565
 20
-1.324346
 30
0.0
 10
166.375565
 20
-0.895627
 30
0.0
  0
SPLINE
  5
1ce
100
AcDbEntity
  8
0
 62
7
100
AcDbSpline
 70
8
 71
3
 72
8
 73
4
 74
0
 40
0
 40
0
 40
0
 40
0
 40
1
 40
1
 40
1
 40
1
 10
166.375565
 20
-0.895627
 30
0.0
 10
166.375565
 20
-0.466909
 30
0.0
 10
166.604283
 20
-0.070756
 30
0.0
 10
166.975565
 20
0.143603
 30
0.0
  0
SPLINE
  5
1cf
100
AcDbEntity
  8
0
 62
7
100
AcDbSpline
 70
8
 71
3
 72
8
 73
4
 74
0
 40
0
 40
0
 40
0
 40
0
 40
1
 40
1
 40
1
 40
1
 10
166.975565
 20
0.143603
 30
0.0
 10
167.346846
 20
0.357963
 30
0.0
 10
167.804284
 20
0.357963
 30
0.0
 10
168.175565
 20
0.143603
 30
0.0
  0
SPLINE
  5
1d0
100
AcDbEntity
  8
0
 62
7
100
AcDbSpline
 70
8
 71
3
 72
8
 73
4
 74
0
 40
0
 40
0
 40
0
 40
0
 40
1
 40
1
 40
1
 40
1
 10
168.175565
 20
0.143603
 30
0.0
 10
168.546846
 20
-0.070756
 30
0.0
 10
168.775565
 20
-0.466909
 30
0.0
 10
168.775565
 20
-0.895627
 30
0.0
  0
LWPOLYLINE
  5
1d1
100
AcDbEntity
  8
0
 62
7
100
AcDbPolyline
 90
1
 70
1
 10
98.775706
 20
-0.895627
 30
0.0
  0
SPLINE
  5
1d2
100
AcDbEntity
  8
0
 62
7
100
AcDbSpline
 70
8
 71
3
 72
8
 73
4
 74
0
 40
0
 40
0
 40
0
 40
0
 40
1
 40
1
 40
1
 40
1
 10
203.775495
 20
-0.895627
 30
0.0
 10
203.775495
 20
-1.324346
 30
0.0
 10
203.546776
 20
-1.720499
 30
0.0
 10
203.175495
 20
-1.934858
 30
0.0
  0
SPLINE
  5
1d3
100
AcDbEntity
  8
0
 62
7
100
AcDbSpline
 70
8
 71
3
 72
8
 73
4
 74
0
 40
0
 40
0
 40
0
 40
0
 40
1
 40
1
 40
1
 40
1
 10
203.175495
 20
-1.934858
 30
0.0
 10
202.804213
 20
-2.149217
 30
0.0
 10
202.346776
 20
-2.149217
 30
0.0
 10
201.975494
 20
-1.934858
 30
0.0
  0
SPLINE
  5
1d4
100
AcDbEntity
  8
0
 62
7
100
AcDbSpline
 70
8
 71
3
 72
8
 73
4
 74
0
 40
0
 40
0
 40
0
 40
0
 40
1
 40
1
 40
1
 40
1
 10
201.975494
 20
-1.934858
 30
0.0
 10
201.604213
 20
-1.720499
 30
0.0
 10
201.375494
 20
-1.324346
 30
0.0
 10
201.375494
 20
-0.895627
 30
0.0
  0
SPLINE
  5
1d5
100
AcDbEntity
  8
0
 62
7
100
AcDbSpline
 70
8
 71
3
 72
8
 73
4
 74
0
 40
0
 40
0
 40
0
 40
0
 40
1
 40
1
 40
1
 40
1
 10
201.375494
 20
-0.895627
 30
0.0
 10
201.375494
 20
-0.466909
 30
0.0
 10
201.604213
 20
-0.070756
 30
0.0
 10
201.975494
 20
0.143603
 30
0.0
  0
SPLINE
  5
1d6
100
AcDbEntity
  8
0
 62
7
100
AcDbSpline
 70
8
 71
3
 72
8
 73
4
 74
0
 40
0
 40
0
 40
0
 40
0
 40
1
 40
1
 40
1
 40
1
 10
201.975494
 20
0.143603
 30
0.0
 10
202.346776
 20
0.357963
 30
0.0
 10
202.804213
 20
0.357963
 30
0.0
 10
203.175495
 20
0.143603
 30
0.0
  0
SPLINE
  5
1d7
100
AcDbEntity
  8
0
 62
7
100
AcDbSpline
 70
8
 71
3
 72
8
 73
4
 74
0
 40
0
 40
0
 40
0
 40
0
 40
1
 40
1
 40
1
 40
1
 10
203.175495
 20
0.143603
 30
0.0
 10
203.546776
 20
-0.070756
 30
0.0
 10
203.775495
 20
-0.466909
 30
0.0
 10
203.775495
 20
-0.895627
 30
0.0
  0
LWPOLYLINE
  5
1d8
100
AcDbEntity
  8
0
 62
7
100
AcDbPolyline
 90
1
 70
1
 10
168.775565
 20
-0.895627
 30
0.0
  0
LWPOLYLINE
  5
1d9
100
AcDbEntity
  8
0
 62
7
100
AcDbPolyline
 90
1
 70
1
 10
203.775495
 20
-0.895627
 30
0.0
  0
LWPOLYLINE
  5
1da
100
AcDbEntity
  8
0
 62
7
100
AcDbPolyline
 90
36
 70
1
 10
215.759105
 20
-143.755208
 30
0.0
 10
212.144685
 20
-130.262729
 30
0.0
 10
214.181765
 20
-129.716629
 30
0.0
 10
213.760125
 20
-128.144369
 30
0.0
 10
212.975265
 20
-128.355189
 30
0.0
 10
211.253145
 20
-121.928989
 30
0.0
 10
214.539905
 20
-121.047609
 30
0.0
 10
214.316385
 20
-120.211949
 30
0.0
 10
217.016405
 20
-119.490589
 30
0.0
 10
217.239925
 20
-120.323709
 30
0.0
 10
223.127645
 20
-118.746369
 30
0.0
 10
223.396885
 20
-119.752209
 30
0.0
 10
224.524645
 20
-119.449949
 30
0.0
 10
225.708285
 20
-123.867009
 30
0.0
 10
224.580525
 20
-124.169269
 30
0.0
 10
224.849765
 20
-125.175109
 30
0.0
 10
224.090305
 20
-125.378309
 30
0.0
 10
224.509405
 20
-126.948029
 30
0.0
 10
225.639705
 20
-126.645769
 30
0.0
 10
229.254125
 20
-140.140788
 30
0.0
 10
228.126365
 20
-140.443048
 30
0.0
 10
228.545465
 20
-142.012768
 30
0.0
 10
229.307465
 20
-141.809568
 30
0.0
 10
229.576705
 20
-142.815408
 30
0.0
 10
230.704465
 20
-142.513148
 30
0.0
 10
231.888105
 20
-146.927668
 30
0.0
 10
230.760345
 20
-147.229928
 30
0.0
 10
231.029585
 20
-148.235768
 30
0.0
 10
225.141865
 20
-149.813108
 30
0.0
 10
225.365385
 20
-150.648768
 30
0.0
 10
222.665365
 20
-151.372668
 30
0.0
 10
222.441845
 20
-150.537008
 30
0.0
 10
219.155085
 20
-151.418388
 30
0.0
 10
217.432965
 20
-144.989648
 30
0.0
 10
218.217825
 20
-144.778828
 30
0.0
 10
217.796185
 20
-143.209108
 30
0.0
  0
LWPOLYLINE
  5
1db
100
AcDbEntity
  8
0
 62
7
100
AcDbPolyline
 90
36
 70
1
 10
206.589705
 20
-131.408269
 30
0.0
 10
210.204125
 20
-144.903288
 30
0.0
 10
208.167045
 20
-145.446848
 30
0.0
 10
208.588685
 20
-147.019108
 30
0.0
 10
209.373545
 20
-146.808288
 30
0.0
 10
211.095665
 20
-153.237028
 30
0.0
 10
207.808905
 20
-154.115868
 30
0.0
 10
208.032425
 20
-154.951528
 30
0.0
 10
205.332405
 20
-155.672888
 30
0.0
 10
205.108885
 20
-154.839768
 30
0.0
 10
199.221166
 20
-156.417108
 30
0.0
 10
198.951926
 20
-155.411268
 30
0.0
 10
197.824166
 20
-155.713528
 30
0.0
 10
196.640526
 20
-151.299008
 30
0.0
 10
197.768286
 20
-150.994208
 30
0.0
 10
197.499046
 20
-149.988368
 30
0.0
 10
198.258506
 20
-149.785168
 30
0.0
 10
197.839406
 20
-148.215448
 30
0.0
 10
196.709106
 20
-148.517708
 30
0.0
 10
193.094686
 20
-135.025228
 30
0.0
 10
194.222446
 20
-134.720428
 30
0.0
 10
193.803346
 20
-133.150709
 30
0.0
 10
193.041346
 20
-133.353908
 30
0.0
 10
192.772106
 20
-132.348069
 30
0.0
 10
191.644346
 20
-132.652869
 30
0.0
 10
190.460706
 20
-128.235809
 30
0.0
 10
191.588466
 20
-127.933549
 30
0.0
 10
191.319226
 20
-126.927709
 30
0.0
 10
197.206946
 20
-125.350369
 30
0.0
 10
196.983426
 20
-124.514709
 30
0.0
 10
199.683446
 20
-123.790809
 30
0.0
 10
199.906966
 20
-124.626469
 30
0.0
 10
203.193725
 20
-123.745089
 30
0.0
 10
204.915845
 20
-130.173829
 30
0.0
 10
204.130985
 20
-130.384649
 30
0.0
 10
204.552625
 20
-131.954369
 30
0.0
  0
LWPOLYLINE
  5
1dc
100
AcDbEntity
  8
0
 62
7
100
AcDbPolyline
 90
4
 70
1
 10
118.464406
 20
-106.785509
 30
0.0
 10
132.434406
 20
-106.785509
 30
0.0
 10
132.434406
 20
-120.755509
 30
0.0
 10
118.464406
 20
-120.755509
 30
0.0
  0
LWPOLYLINE
  5
1dd
100
AcDbEntity
  8
0
 62
7
100
AcDbPolyline
 90
4
 70
1
 10
37.501907
 20
-106.785509
 30
0.0
 10
51.471907
 20
-106.785509
 30
0.0
 10
51.471907
 20
-120.755509
 30
0.0
 10
37.501907
 20
-120.755509
 30
0.0
  0
LWPOLYLINE
  5
1de
100
AcDbEntity
  8
0
 62
7
100
AcDbPolyline
 90
4
 70
1
 10
61.314407
 20
-106.785509
 30
0.0
 10
75.284407
 20
-106.785509
 30
0.0
 10
75.284407
 20
-120.755509
 30
0.0
 10
61.314407
 20
-120.755509
 30
0.0
  0
LWPOLYLINE
  5
1df
100
AcDbEntity
  8
0
 62
7
100
AcDbPolyline
 90
2
 70
0
 10
85.126907
 20
-120.755509
 30
0.0
 10
85.126907
 20
-106.785509
 30
0.0
  0
LWPOLYLINE
  5
1e0
100
AcDbEntity
  8
0
 62
7
100
AcDbPolyline
 90
2
 70
0
 10
99.096906
 20
-120.755509
 30
0.0
 10
85.126907
 20
-120.755509
 30
0.0
  0
LWPOLYLINE
  5
1e1
100
AcDbEntity
  8
0
 62
7
100
AcDbPolyline
 90
2
 70
0
 10
99.096906
 20
-106.785509
 30
0.0
 10
99.096906
 20
-120.755509
 30
0.0
  0
LWPOLYLINE
  5
1e2
100
AcDbEntity
  8
0
 62
7
100
AcDbPolyline
 90
2
 70
0
 10
85.126907
 20
-106.785509
 30
0.0
 10
99.096906
 20
-106.785509
 30
0.0
  0
LWPOLYLINE
  5
1e3
100
AcDbEntity
  8
0
 62
7
100
AcDbPolyline
 90
36
 70
1
 10
159.757186
 20
-144.903288
 30
0.0
 10
163.371606
 20
-131.408269
 30
0.0
 10
165.408686
 20
-131.954369
 30
0.0
 10
165.830326
 20
-130.384649
 30
0.0
 10
165.045466
 20
-130.173829
 30
0.0
 10
166.767586
 20
-123.745089
 30
0.0
 10
170.054346
 20
-124.626469
 30
0.0
 10
170.277866
 20
-123.790809
 30
0.0
 10
172.977886
 20
-124.514709
 30
0.0
 10
172.754366
 20
-125.350369
 30
0.0
 10
178.642086
 20
-126.927709
 30
0.0
 10
178.372846
 20
-127.933549
 30
0.0
 10
179.500606
 20
-128.235809
 30
0.0
 10
178.316966
 20
-132.652869
 30
0.0
 10
177.189206
 20
-132.348069
 30
0.0
 10
176.919966
 20
-133.353908
 30
0.0
 10
176.157966
 20
-133.150709
 30
0.0
 10
175.738866
 20
-134.720428
 30
0.0
 10
176.866626
 20
-135.025228
 30
0.0
 10
173.252206
 20
-148.517708
 30
0.0
 10
172.121906
 20
-148.215448
 30
0.0
 10
171.702806
 20
-149.785168
 30
0.0
 10
172.462266
 20
-149.988368
 30
0.0
 10
172.193026
 20
-150.994208
 30
0.0
 10
173.320786
 20
-151.299008
 30
0.0
 10
172.137146
 20
-155.713528
 30
0.0
 10
171.009386
 20
-155.411268
 30
0.0
 10
170.740146
 20
-156.417108
 30
0.0
 10
164.852426
 20
-154.839768
 30
0.0
 10
164.628906
 20
-155.672888
 30
0.0
 10
161.928886
 20
-154.951528
 30
0.0
 10
162.152406
 20
-154.115868
 30
0.0
 10
158.865646
 20
-153.237028
 30
0.0
 10
160.587766
 20
-146.808288
 30
0.0
 10
161.372626
 20
-147.019108
 30
0.0
 10
161.794266
 20
-145.446848
 30
0.0
  0
LWPOLYLINE
  5
1e4
100
AcDbEntity
  8
0
 62
7
100
AcDbPolyline
 90
4
 70
1
 10
237.526905
 20
-106.785509
 30
0.0
 10
251.496905
 20
-106.785509
 30
0.0
 10
251.496905
 20
-120.755509
 30
0.0
 10
237.526905
 20
-120.755509
 30
0.0
  0
LWPOLYLINE
  5
1e5
100
AcDbEntity
  8
0
 62
7
100
AcDbPolyline
 90
2
 70
0
 10
261.339405
 20
-120.755509
 30
0.0
 10
261.339405
 20
-106.785509
 30
0.0
  0
LWPOLYLINE
  5
1e6
100
AcDbEntity
  8
0
 62
7
100
AcDbPolyline
 90
2
 70
0
 10
275.309405
 20
-120.755509
 30
0.0
 10
261.339405
 20
-120.755509
 30
0.0
  0
LWPOLYLINE
  5
1e7
100
AcDbEntity
  8
0
 62
7
100
AcDbPolyline
 90
2
 70
0
 10
275.309405
 20
-106.785509
 30
0.0
 10
275.309405
 20
-120.755509
 30
0.0
  0
LWPOLYLINE
  5
1e8
100
AcDbEntity
  8
0
 62
7
100
AcDbPolyline
 90
2
 70
0
 10
261.339405
 20
-106.785509
 30
0.0
 10
275.309405
 20
-106.785509
 30
0.0
  0
LWPOLYLINE
  5
1e9
100
AcDbEntity
  8
0
 62
7
100
AcDbPolyline
 90
4
 70
1
 10
285.151905
 20
-106.785509
 30
0.0
 10
299.121905
 20
-106.785509
 30
0.0
 10
299.121905
 20
-120.755509
 30
0.0
 10
285.151905
 20
-120.755509
 30
0.0
  0
LWPOLYLINE
  5
1ea
100
AcDbEntity
  8
0
 62
7
100
AcDbPolyline
 90
4
 70
1
 10
316.106884
 20
-106.785509
 30
0.0
 10
330.076884
 20
-106.785509
 30
0.0
 10
330.076884
 20
-120.755509
 30
0.0
 10
316.106884
 20
-120.755509
 30
0.0
  0
LWPOLYLINE
  5
1eb
100
AcDbEntity
  8
0
 62
7
100
AcDbPolyline
 90
4
 70
1
 10
335.156884
 20
-106.785509
 30
0.0
 10
349.126884
 20
-106.785509
 30
0.0
 10
349.126884
 20
-120.755509
 30
0.0
 10
335.156884
 20
-120.755509
 30
0.0
  0
LWPOLYLINE
  5
1ec
100
AcDbEntity
  8
0
 62
7
100
AcDbPolyline
 90
4
 70
1
 10
354.206884
 20
-106.785509
 30
0.0
 10
368.176884
 20
-106.785509
 30
0.0
 10
368.176884
 20
-120.755509
 30
0.0
 10
354.206884
 20
-120.755509
 30
0.0
  0
LWPOLYLINE
  5
1ed
100
AcDbEntity
  8
0
 62
7
100
AcDbPolyline
 90
4
 70
1
 10
68.456887
 20
-87.735509
 30
0.0
 10
82.426887
 20
-87.735509
 30
0.0
 10
82.426887
 20
-101.705509
 30
0.0
 10
68.456887
 20
-101.705509
 30
0.0
  0
LWPOLYLINE
  5
1ee
100
AcDbEntity
  8
0
 62
7
100
AcDbPolyline
 90
4
 70
1
 10
87.506887
 20
-87.735509
 30
0.0
 10
101.476886
 20
-87.735509
 30
0.0
 10
101.476886
 20
-101.705509
 30
0.0
 10
87.506887
 20
-101.705509
 30
0.0
  0
LWPOLYLINE
  5
1ef
100
AcDbEntity
  8
0
 62
7
100
AcDbPolyline
 90
2
 70
0
 10
106.556886
 20
-101.705509
 30
0.0
 10
106.556886
 20
-87.735509
 30
0.0
  0
LWPOLYLINE
  5
1f0
100
AcDbEntity
  8
0
 62
7
100
AcDbPolyline
 90
2
 70
0
 10
120.526886
 20
-101.705509
 30
0.0
 10
106.556886
 20
-101.705509
 30
0.0
  0
LWPOLYLINE
  5
1f1
100
AcDbEntity
  8
0
 62
7
100
AcDbPolyline
 90
2
 70
0
 10
120.526886
 20
-87.735509
 30
0.0
 10
120.526886
 20
-101.705509
 30
0.0
  0
LWPOLYLINE
  5
1f2
100
AcDbEntity
  8
0
 62
7
100
AcDbPolyline
 90
2
 70
0
 10
106.556886
 20
-87.735509
 30
0.0
 10
120.526886
 20
-87.735509
 30
0.0
  0
LWPOLYLINE
  5
1f3
100
AcDbEntity
  8
0
 62
7
100
AcDbPolyline
 90
2
 70
0
 10
125.606886
 20
-101.705509
 30
0.0
 10
125.606886
 20
-87.735509
 30
0.0
  0
LWPOLYLINE
  5
1f4
100
AcDbEntity
  8
0
 62
7
100
AcDbPolyline
 90
2
 70
0
 10
139.576886
 20
-101.705509
 30
0.0
 10
125.606886
 20
-101.705509
 30
0.0
  0
LWPOLYLINE
  5
1f5
100
AcDbEntity
  8
0
 62
7
100
AcDbPolyline
 90
2
 70
0
 10
139.576886
 20
-87.735509
 30
0.0
 10
139.576886
 20
-101.705509
 30
0.0
  0
LWPOLYLINE
  5
1f6
100
AcDbEntity
  8
0
 62
7
100
AcDbPolyline
 90
2
 70
0
 10
125.606886
 20
-87.735509
 30
0.0
 10
139.576886
 20
-87.735509
 30
0.0
  0
LWPOLYLINE
  5
1f7
100
AcDbEntity
  8
0
 62
7
100
AcDbPolyline
 90
2
 70
0
 10
144.656886
 20
-101.705509
 30
0.0
 10
144.656886
 20
-87.735509
 30
0.0
  0
LWPOLYLINE
  5
1f8
100
AcDbEntity
  8
0
 62
7
100
AcDbPolyline
 90
2
 70
0
 10
158.626886
 20
-101.705509
 30
0.0
 10
144.656886
 20
-101.705509
 30
0.0
  0
LWPOLYLINE
  5
1f9
100
AcDbEntity
  8
0
 62
7
100
AcDbPolyline
 90
2
 70
0
 10
158.626886
 20
-87.735509
 30
0.0
 10
158.626886
 20
-101.705509
 30
0.0
  0
LWPOLYLINE
  5
1fa
100
AcDbEntity
  8
0
 62
7
100
AcDbPolyline
 90
2
 70
0
 10
144.656886
 20
-87.735509
 30
0.0
 10
158.626886
 20
-87.735509
 30
0.0
  0
LWPOLYLINE
  5
1fb
100
AcDbEntity
  8
0
 62
7
100
AcDbPolyline
 90
4
 70
1
 10
211.331885
 20
-87.735509
 30
0.0
 10
225.301885
 20
-87.735509
 30
0.0
 10
225.301885
 20
-101.705509
 30
0.0
 10
211.331885
 20
-101.705509
 30
0.0
  0
LWPOLYLINE
  5
1fc
100
AcDbEntity
  8
0
 62
7
100
AcDbPolyline
 90
4
 70
1
 10
230.381885
 20
-87.735509
 30
0.0
 10
244.351885
 20
-87.735509
 30
0.0
 10
244.351885
 20
-101.705509
 30
0.0
 10
230.381885
 20
-101.705509
 30
0.0
  0
LWPOLYLINE
  5
1fd
100
AcDbEntity
  8
0
 62
7
100
AcDbPolyline
 90
2
 70
0
 10
249.431885
 20
-101.705509
 30
0.0
 10
249.431885
 20
-87.735509
 30
0.0
  0
LWPOLYLINE
  5
1fe
100
AcDbEntity
  8
0
 62
7
100
AcDbPolyline
 90
2
 70
0
 10
263.401885
 20
-101.705509
 30
0.0
 10
249.431885
 20
-101.705509
 30
0.0
  0
LWPOLYLINE
  5
1ff
100
AcDbEntity
  8
0
 62
7
100
AcDbPolyline
 90
2
 70
0
 10
263.401885
 20
-87.735509
 30
0.0
 10
263.401885
 20
-101.705509
 30
0.0
  0
LWPOLYLINE
  5
200
100
AcDbEntity
  8
0
 62
7
100
AcDbPolyline
 90
2
 70
0
 10
249.431885
 20
-87.735509
 30
0.0
 10
263.401885
 20
-87.735509
 30
0.0
  0
LWPOLYLINE
  5
201
100
AcDbEntity
  8
0
 62
7
100
AcDbPolyline
 90
2
 70
0
 10
268.481885
 20
-101.705509
 30
0.0
 10
268.481885
 20
-87.735509
 30
0.0
  0
LWPOLYLINE
  5
202
100
AcDbEntity
  8
0
 62
7
100
AcDbPolyline
 90
2
 70
0
 10
282.451885
 20
-101.705509
 30
0.0
 10
268.481885
 20
-101.705509
 30
0.0
  0
LWPOLYLINE
  5
203
100
AcDbEntity
  8
0
 62
7
100
AcDbPolyline
 90
2
 70
0
 10
282.451885
 20
-87.735509
 30
0.0
 10
282.451885
 20
-101.705509
 30
0.0
  0
LWPOLYLINE
  5
204
100
AcDbEntity
  8
0
 62
7
100
AcDbPolyline
 90
2
 70
0
 10
268.481885
 20
-87.735509
 30
0.0
 10
282.451885
 20
-87.735509
 30
0.0
  0
LWPOLYLINE
  5
205
100
AcDbEntity
  8
0
 62
7
100
AcDbPolyline
 90
4
 70
1
 10
287.531885
 20
-87.735509
 30
0.0
 10
301.501885
 20
-87.735509
 30
0.0
 10
301.501885
 20
-101.705509
 30
0.0
 10
287.531885
 20
-101.705509
 30
0.0
  0
LWPOLYLINE
  5
206
100
AcDbEntity
  8
0
 62
7
100
AcDbPolyline
 90
2
 70
0
 10
335.156884
 20
-101.705509
 30
0.0
 10
335.156884
 20
-87.735509
 30
0.0
  0
LWPOLYLINE
  5
207
100
AcDbEntity
  8
0
 62
7
100
AcDbPolyline
 90
2
 70
0
 10
349.126884
 20
-101.705509
 30
0.0
 10
335.156884
 20
-101.705509
 30
0.0
  0
LWPOLYLINE
  5
208
100
AcDbEntity
  8
0
 62
7
100
AcDbPolyline
 90
2
 70
0
 10
349.126884
 20
-87.735509
 30
0.0
 10
349.126884
 20
-101.705509
 30
0.0
  0
LWPOLYLINE
  5
209
100
AcDbEntity
  8
0
 62
7
100
AcDbPolyline
 90
2
 70
0
 10
335.156884
 20
-87.735509
 30
0.0
 10
349.126884
 20
-87.735509
 30
0.0
  0
LWPOLYLINE
  5
20a
100
AcDbEntity
  8
0
 62
7
100
AcDbPolyline
 90
4
 70
1
 10
11.306887
 20
-68.685509
 30
0.0
 10
25.276887
 20
-68.685509
 30
0.0
 10
25.276887
 20
-82.655509
 30
0.0
 10
11.306887
 20
-82.655509
 30
0.0
  0
LWPOLYLINE
  5
20b
100
AcDbEntity
  8
0
 62
7
100
AcDbPolyline
 90
4
 70
1
 10
42.264407
 20
-68.685509
 30
0.0
 10
56.234407
 20
-68.685509
 30
0.0
 10
56.234407
 20
-82.655509
 30
0.0
 10
42.264407
 20
-82.655509
 30
0.0
  0
LWPOLYLINE
  5
20c
100
AcDbEntity
  8
0
 62
7
100
AcDbPolyline
 90
4
 70
1
 10
68.456887
 20
-68.685509
 30
0.0
 10
82.426887
 20
-68.685509
 30
0.0
 10
82.426887
 20
-82.655509
 30
0.0
 10
68.456887
 20
-82.655509
 30
0.0
  0
LWPOLYLINE
  5
20d
100
AcDbEntity
  8
0
 62
7
100
AcDbPolyline
 90
4
 70
1
 10
87.506887
 20
-68.685509
 30
0.0
 10
101.476886
 20
-68.685509
 30
0.0
 10
101.476886
 20
-82.655509
 30
0.0
 10
87.506887
 20
-82.655509
 30
0.0
  0
LWPOLYLINE
  5
20e
100
AcDbEntity
  8
0
 62
7
100
AcDbPolyline
 90
4
 70
1
 10
106.556886
 20
-68.685509
 30
0.0
 10
120.526886
 20
-68.685509
 30
0.0
 10
120.526886
 20
-82.655509
 30
0.0
 10
106.556886
 20
-82.655509
 30
0.0
  0
LWPOLYLINE
  5
20f
100
AcDbEntity
  8
0
 62
7
100
AcDbPolyline
 90
2
 70
0
 10
125.606886
 20
-82.655509
 30
0.0
 10
125.606886
 20
-68.685509
 30
0.0
  0
LWPOLYLINE
  5
210
100
AcDbEntity
  8
0
 62
7
100
AcDbPolyline
 90
2
 70
0
 10
139.576886
 20
-82.655509
 30
0.0
 10
125.606886
 20
-82.655509
 30
0.0
  0
LWPOLYLINE
  5
211
100
AcDbEntity
  8
0
 62
7
100
AcDbPolyline
 90
2
 70
0
 10
139.576886
 20
-68.685509
 30
0.0
 10
139.576886
 20
-82.655509
 30
0.0
  0
LWPOLYLINE
  5
212
100
AcDbEntity
  8
0
 62
7
100
AcDbPolyline
 90
2
 70
0
 10
125.606886
 20
-68.685509
 30
0.0
 10
139.576886
 20
-68.685509
 30
0.0
  0
LWPOLYLINE
  5
213
100
AcDbEntity
  8
0
 62
7
100
AcDbPolyline
 90
2
 70
0
 10
144.656886
 20
-82.655509
 30
0.0
 10
144.656886
 20
-68.685509
 30
0.0
  0
LWPOLYLINE
  5
214
100
AcDbEntity
  8
0
 62
7
100
AcDbPolyline
 90
2
 70
0
 10
158.626886
 20
-82.655509
 30
0.0
 10
144.656886
 20
-82.655509
 30
0.0
  0
LWPOLYLINE
  5
215
100
AcDbEntity
  8
0
 62
7
100
AcDbPolyline
 90
2
 70
0
 10
158.626886
 20
-68.685509
 30
0.0
 10
158.626886
 20
-82.655509
 30
0.0
  0
LWPOLYLINE
  5
216
100
AcDbEntity
  8
0
 62
7
100
AcDbPolyline
 90
2
 70
0
 10
144.656886
 20
-68.685509
 30
0.0
 10
158.626886
 20
-68.685509
 30
0.0
  0
LWPOLYLINE
  5
217
100
AcDbEntity
  8
0
 62
7
100
AcDbPolyline
 90
2
 70
0
 10
211.331885
 20
-82.655509
 30
0.0
 10
211.331885
 20
-68.685509
 30
0.0
  0
LWPOLYLINE
  5
218
100
AcDbEntity
  8
0
 62
7
100
AcDbPolyline
 90
2
 70
0
 10
225.301885
 20
-82.655509
 30
0.0
 10
211.331885
 20
-82.655509
 30
0.0
  0
LWPOLYLINE
  5
219
100
AcDbEntity
  8
0
 62
7
100
AcDbPolyline
 90
2
 70
0
 10
225.301885
 20
-68.685509
 30
0.0
 10
225.301885
 20
-82.655509
 30
0.0
  0
LWPOLYLINE
  5
21a
100
AcDbEntity
  8
0
 62
7
100
AcDbPolyline
 90
2
 70
0
 10
211.331885
 20
-68.685509
 30
0.0
 10
225.301885
 20
-68.685509
 30
0.0
  0
LWPOLYLINE
  5
21b
100
AcDbEntity
  8
0
 62
7
100
AcDbPolyline
 90
2
 70
0
 10
230.381885
 20
-82.655509
 30
0.0
 10
230.381885
 20
-68.685509
 30
0.0
  0
LWPOLYLINE
  5
21c
100
AcDbEntity
  8
0
 62
7
100
AcDbPolyline
 90
2
 70
0
 10
244.351885
 20
-82.655509
 30
0.0
 10
230.381885
 20
-82.655509
 30
0.0
  0
LWPOLYLINE
  5
21d
100
AcDbEntity
  8
0
 62
7
100
AcDbPolyline
 90
2
 70
0
 10
244.351885
 20
-68.685509
 30
0.0
 10
244.351885
 20
-82.655509
 30
0.0
  0
LWPOLYLINE
  5
21e
100
AcDbEntity
  8
0
 62
7
100
AcDbPolyline
 90
2
 70
0
 10
230.381885
 20
-68.685509
 30
0.0
 10
244.351885
 20
-68.685509
 30
0.0
  0
LWPOLYLINE
  5
21f
100
AcDbEntity
  8
0
 62
7
100
AcDbPolyline
 90
2
 70
0
 10
249.431885
 20
-82.655509
 30
0.0
 10
249.431885
 20
-68.685509
 30
0.0
  0
LWPOLYLINE
  5
220
100
AcDbEntity
  8
0
 62
7
100
AcDbPolyline
 90
2
 70
0
 10
263.401885
 20
-82.655509
 30
0.0
 10
249.431885
 20
-82.655509
 30
0.0
  0
LWPOLYLINE
  5
221
100
AcDbEntity
  8
0
 62
7
100
AcDbPolyline
 90
2
 70
0
 10
263.401885
 20
-68.685509
 30
0.0
 10
263.401885
 20
-82.655509
 30
0.0
  0
LWPOLYLINE
  5
222
100
AcDbEntity
  8
0
 62
7
100
AcDbPolyline
 90
2
 70
0
 10
249.431885
 20
-68.685509
 30
0.0
 10
263.401885
 20
-68.685509
 30
0.0
  0
LWPOLYLINE
  5
223
100
AcDbEntity
  8
0
 62
7
100
AcDbPolyline
 90
4
 70
1
 10
268.481885
 20
-68.685509
 30
0.0
 10
282.451885
 20
-68.685509
 30
0.0
 10
282.451885
 20
-82.655509
 30
0.0
 10
268.481885
 20
-82.655509
 30
0.0
  0
LWPOLYLINE
  5
224
100
AcDbEntity
  8
0
 62
7
100
AcDbPolyline
 90
4
 70
1
 10
287.531885
 20
-68.685509
 30
0.0
 10
301.501885
 20
-68.685509
 30
0.0
 10
301.501885
 20
-82.655509
 30
0.0
 10
287.531885
 20
-82.655509
 30
0.0
  0
LWPOLYLINE
  5
225
100
AcDbEntity
  8
0
 62
7
100
AcDbPolyline
 90
2
 70
0
 10
306.581884
 20
-82.655509
 30
0.0
 10
306.581884
 20
-68.685509
 30
0.0
  0
LWPOLYLINE
  5
226
100
AcDbEntity
  8
0
 62
7
100
AcDbPolyline
 90
2
 70
0
 10
320.551884
 20
-82.655509
 30
0.0
 10
306.581884
 20
-82.655509
 30
0.0
  0
LWPOLYLINE
  5
227
100
AcDbEntity
  8
0
 62
7
100
AcDbPolyline
 90
2
 70
0
 10
320.551884
 20
-68.685509
 30
0.0
 10
320.551884
 20
-82.655509
 30
0.0
  0
LWPOLYLINE
  5
228
100
AcDbEntity
  8
0
 62
7
100
AcDbPolyline
 90
2
 70
0
 10
306.581884
 20
-68.685509
 30
0.0
 10
320.551884
 20
-68.685509
 30
0.0
  0
LWPOLYLINE
  5
229
100
AcDbEntity
  8
0
 62
7
100
AcDbPolyline
 90
2
 70
0
 10
337.539404
 20
-70.793709
 30
0.0
 10
337.539404
 20
-68.685509
 30
0.0
  0
LWPOLYLINE
  5
22a
100
AcDbEntity
  8
0
 62
7
100
AcDbPolyline
 90
2
 70
0
 10
335.913804
 20
-70.793709
 30
0.0
 10
337.539404
 20
-70.793709
 30
0.0
  0
LWPOLYLINE
  5
22b
100
AcDbEntity
  8
0
 62
7
100
AcDbPolyline
 90
2
 70
0
 10
335.913804
 20
-69.980909
 30
0.0
 10
335.913804
 20
-70.793709
 30
0.0
  0
LWPOLYLINE
  5
22c
100
AcDbEntity
  8
0
 62
7
100
AcDbPolyline
 90
2
 70
0
 10
329.259004
 20
-69.980909
 30
0.0
 10
335.913804
 20
-69.980909
 30
0.0
  0
LWPOLYLINE
  5
22d
100
AcDbEntity
  8
0
 62
7
100
AcDbPolyline
 90
2
 70
0
 10
329.259004
 20
-73.384509
 30
0.0
 10
329.259004
 20
-69.980909
 30
0.0
  0
LWPOLYLINE
  5
22e
100
AcDbEntity
  8
0
 62
7
100
AcDbPolyline
 90
2
 70
0
 10
328.395404
 20
-73.384509
 30
0.0
 10
329.259004
 20
-73.384509
 30
0.0
  0
LWPOLYLINE
  5
22f
100
AcDbEntity
  8
0
 62
7
100
AcDbPolyline
 90
2
 70
0
 10
328.395404
 20
-76.178509
 30
0.0
 10
328.395404
 20
-73.384509
 30
0.0
  0
LWPOLYLINE
  5
230
100
AcDbEntity
  8
0
 62
7
100
AcDbPolyline
 90
2
 70
0
 10
329.259004
 20
-76.178509
 30
0.0
 10
328.395404
 20
-76.178509
 30
0.0
  0
LWPOLYLINE
  5
231
100
AcDbEntity
  8
0
 62
7
100
AcDbPolyline
 90
2
 70
0
 10
329.259004
 20
-82.274509
 30
0.0
 10
329.259004
 20
-76.178509
 30
0.0
  0
LWPOLYLINE
  5
232
100
AcDbEntity
  8
0
 62
7
100
AcDbPolyline
 90
2
 70
0
 10
330.300404
 20
-82.274509
 30
0.0
 10
329.259004
 20
-82.274509
 30
0.0
  0
LWPOLYLINE
  5
233
100
AcDbEntity
  8
0
 62
7
100
AcDbPolyline
 90
2
 70
0
 10
330.300404
 20
-83.442909
 30
0.0
 10
330.300404
 20
-82.274509
 30
0.0
  0
LWPOLYLINE
  5
234
100
AcDbEntity
  8
0
 62
7
100
AcDbPolyline
 90
2
 70
0
 10
334.872404
 20
-83.442909
 30
0.0
 10
330.300404
 20
-83.442909
 30
0.0
  0
LWPOLYLINE
  5
235
100
AcDbEntity
  8
0
 62
7
100
AcDbPolyline
 90
2
 70
0
 10
334.872404
 20
-82.274509
 30
0.0
 10
334.872404
 20
-83.442909
 30
0.0
  0
LWPOLYLINE
  5
236
100
AcDbEntity
  8
0
 62
7
100
AcDbPolyline
 90
2
 70
0
 10
335.913804
 20
-82.274509
 30
0.0
 10
334.872404
 20
-82.274509
 30
0.0
  0
LWPOLYLINE
  5
237
100
AcDbEntity
  8
0
 62
7
100
AcDbPolyline
 90
2
 70
0
 10
335.913804
 20
-81.487109
 30
0.0
 10
335.913804
 20
-82.274509
 30
0.0
  0
LWPOLYLINE
  5
238
100
AcDbEntity
  8
0
 62
7
100
AcDbPolyline
 90
2
 70
0
 10
337.539404
 20
-81.487109
 30
0.0
 10
335.913804
 20
-81.487109
 30
0.0
  0
LWPOLYLINE
  5
239
100
AcDbEntity
  8
0
 62
7
100
AcDbPolyline
 90
2
 70
0
 10
337.539404
 20
-82.655509
 30
0.0
 10
337.539404
 20
-81.487109
 30
0.0
  0
LWPOLYLINE
  5
23a
100
AcDbEntity
  8
0
 62
7
100
AcDbPolyline
 90
2
 70
0
 10
351.509404
 20
-82.655509
 30
0.0
 10
337.539404
 20
-82.655509
 30
0.0
  0
LWPOLYLINE
  5
23b
100
AcDbEntity
  8
0
 62
7
100
AcDbPolyline
 90
2
 70
0
 10
351.509404
 20
-81.487109
 30
0.0
 10
351.509404
 20
-82.655509
 30
0.0
  0
LWPOLYLINE
  5
23c
100
AcDbEntity
  8
0
 62
7
100
AcDbPolyline
 90
2
 70
0
 10
353.135004
 20
-81.487109
 30
0.0
 10
351.509404
 20
-81.487109
 30
0.0
  0
LWPOLYLINE
  5
23d
100
AcDbEntity
  8
0
 62
7
100
AcDbPolyline
 90
2
 70
0
 10
353.135004
 20
-82.274509
 30
0.0
 10
353.135004
 20
-81.487109
 30
0.0
  0
LWPOLYLINE
  5
23e
100
AcDbEntity
  8
0
 62
7
100
AcDbPolyline
 90
2
 70
0
 10
354.176404
 20
-82.274509
 30
0.0
 10
353.135004
 20
-82.274509
 30
0.0
  0
LWPOLYLINE
  5
23f
100
AcDbEntity
  8
0
 62
7
100
AcDbPolyline
 90
2
 70
0
 10
354.176404
 20
-83.442909
 30
0.0
 10
354.176404
 20
-82.274509
 30
0.0
  0
LWPOLYLINE
  5
240
100
AcDbEntity
  8
0
 62
7
100
AcDbPolyline
 90
2
 70
0
 10
358.748404
 20
-83.442909
 30
0.0
 10
354.176404
 20
-83.442909
 30
0.0
  0
LWPOLYLINE
  5
241
100
AcDbEntity
  8
0
 62
7
100
AcDbPolyline
 90
2
 70
0
 10
358.748404
 20
-82.274509
 30
0.0
 10
358.748404
 20
-83.442909
 30
0.0
  0
LWPOLYLINE
  5
242
100
AcDbEntity
  8
0
 62
7
100
AcDbPolyline
 90
2
 70
0
 10
359.789804
 20
-82.274509
 30
0.0
 10
358.748404
 20
-82.274509
 30
0.0
  0
LWPOLYLINE
  5
243
100
AcDbEntity
  8
0
 62
7
100
AcDbPolyline
 90
2
 70
0
 10
359.789804
 20
-76.178509
 30
0.0
 10
359.789804
 20
-82.274509
 30
0.0
  0
LWPOLYLINE
  5
244
100
AcDbEntity
  8
0
 62
7
100
AcDbPolyline
 90
2
 70
0
 10
360.653404
 20
-76.178509
 30
0.0
 10
359.789804
 20
-76.178509
 30
0.0
  0
LWPOLYLINE
  5
245
100
AcDbEntity
  8
0
 62
7
100
AcDbPolyline
 90
2
 70
0
 10
360.653404
 20
-73.384509
 30
0.0
 10
360.653404
 20
-76.178509
 30
0.0
  0
LWPOLYLINE
  5
246
100
AcDbEntity
  8
0
 62
7
100
AcDbPolyline
 90
2
 70
0
 10
359.789804
 20
-73.384509
 30
0.0
 10
360.653404
 20
-73.384509
 30
0.0
  0
LWPOLYLINE
  5
247
100
AcDbEntity
  8
0
 62
7
100
AcDbPolyline
 90
2
 70
0
 10
359.789804
 20
-69.980909
 30
0.0
 10
359.789804
 20
-73.384509
 30
0.0
  0
LWPOLYLINE
  5
248
100
AcDbEntity
  8
0
 62
7
100
AcDbPolyline
 90
2
 70
0
 10
353.135004
 20
-69.980909
 30
0.0
 10
359.789804
 20
-69.980909
 30
0.0
  0
LWPOLYLINE
  5
249
100
AcDbEntity
  8
0
 62
7
100
AcDbPolyline
 90
2
 70
0
 10
353.135004
 20
-70.793709
 30
0.0
 10
353.135004
 20
-69.980909
 30
0.0
  0
LWPOLYLINE
  5
24a
100
AcDbEntity
  8
0
 62
7
100
AcDbPolyline
 90
2
 70
0
 10
351.509404
 20
-70.793709
 30
0.0
 10
353.135004
 20
-70.793709
 30
0.0
  0
LWPOLYLINE
  5
24b
100
AcDbEntity
  8
0
 62
7
100
AcDbPolyline
 90
2
 70
0
 10
351.509404
 20
-68.685509
 30
0.0
 10
351.509404
 20
-70.793709
 30
0.0
  0
LWPOLYLINE
  5
24c
100
AcDbEntity
  8
0
 62
7
100
AcDbPolyline
 90
2
 70
0
 10
337.539404
 20
-68.685509
 30
0.0
 10
351.509404
 20
-68.685509
 30
0.0
  0
LWPOLYLINE
  5
24d
100
AcDbEntity
  8
0
 62
7
100
AcDbPolyline
 90
2
 70
0
 10
16.069387
 20
-63.605509
 30
0.0
 10
16.069387
 20
-49.635509
 30
0.0
  0
LWPOLYLINE
  5
24e
100
AcDbEntity
  8
0
 62
7
100
AcDbPolyline
 90
2
 70
0
 10
30.039387
 20
-63.605509
 30
0.0
 10
16.069387
 20
-63.605509
 30
0.0
  0
LWPOLYLINE
  5
24f
100
AcDbEntity
  8
0
 62
7
100
AcDbPolyline
 90
2
 70
0
 10
30.039387
 20
-49.635509
 30
0.0
 10
30.039387
 20
-63.605509
 30
0.0
  0
LWPOLYLINE
  5
250
100
AcDbEntity
  8
0
 62
7
100
AcDbPolyline
 90
2
 70
0
 10
16.069387
 20
-49.635509
 30
0.0
 10
30.039387
 20
-49.635509
 30
0.0
  0
LWPOLYLINE
  5
251
100
AcDbEntity
  8
0
 62
7
100
AcDbPolyline
 90
4
 70
1
 10
44.644387
 20
-49.635509
 30
0.0
 10
58.614387
 20
-49.635509
 30
0.0
 10
58.614387
 20
-63.605509
 30
0.0
 10
44.644387
 20
-63.605509
 30
0.0
  0
LWPOLYLINE
  5
252
100
AcDbEntity
  8
0
 62
7
100
AcDbPolyline
 90
4
 70
1
 10
68.456887
 20
-49.635509
 30
0.0
 10
82.426887
 20
-49.635509
 30
0.0
 10
82.426887
 20
-63.605509
 30
0.0
 10
68.456887
 20
-63.605509
 30
0.0
  0
LWPOLYLINE
  5
253
100
AcDbEntity
  8
0
 62
7
100
AcDbPolyline
 90
2
 70
0
 10
87.506887
 20
-63.605509
 30
0.0
 10
87.506887
 20
-49.635509
 30
0.0
  0
LWPOLYLINE
  5
254
100
AcDbEntity
  8
0
 62
7
100
AcDbPolyline
 90
2
 70
0
 10
101.476886
 20
-63.605509
 30
0.0
 10
87.506887
 20
-63.605509
 30
0.0
  0
LWPOLYLINE
  5
255
100
AcDbEntity
  8
0
 62
7
100
AcDbPolyline
 90
2
 70
0
 10
101.476886
 20
-49.635509
 30
0.0
 10
101.476886
 20
-63.605509
 30
0.0
  0
LWPOLYLINE
  5
256
100
AcDbEntity
  8
0
 62
7
100
AcDbPolyline
 90
2
 70
0
 10
87.506887
 20
-49.635509
 30
0.0
 10
101.476886
 20
-49.635509
 30
0.0
  0
LWPOLYLINE
  5
257
100
AcDbEntity
  8
0
 62
7
100
AcDbPolyline
 90
4
 70
1
 10
106.556886
 20
-49.635509
 30
0.0
 10
120.526886
 20
-49.635509
 30
0.0
 10
120.526886
 20
-63.605509
 30
0.0
 10
106.556886
 20
-63.605509
 30
0.0
  0
LWPOLYLINE
  5
258
100
AcDbEntity
  8
0
 62
7
100
AcDbPolyline
 90
2
 70
0
 10
125.606886
 20
-63.605509
 30
0.0
 10
125.606886
 20
-49.635509
 30
0.0
  0
LWPOLYLINE
  5
259
100
AcDbEntity
  8
0
 62
7
100
AcDbPolyline
 90
2
 70
0
 10
139.576886
 20
-63.605509
 30
0.0
 10
125.606886
 20
-63.605509
 30
0.0
  0
LWPOLYLINE
  5
25a
100
AcDbEntity
  8
0
 62
7
100
AcDbPolyline
 90
2
 70
0
 10
139.576886
 20
-49.635509
 30
0.0
 10
139.576886
 20
-63.605509
 30
0.0
  0
LWPOLYLINE
  5
25b
100
AcDbEntity
  8
0
 62
7
100
AcDbPolyline
 90
2
 70
0
 10
125.606886
 20
-49.635509
 30
0.0
 10
139.576886
 20
-49.635509
 30
0.0
  0
LWPOLYLINE
  5
25c
100
AcDbEntity
  8
0
 62
7
100
AcDbPolyline
 90
2
 70
0
 10
144.656886
 20
-63.605509
 30
0.0
 10
144.656886
 20
-49.635509
 30
0.0
  0
LWPOLYLINE
  5
25d
100
AcDbEntity
  8
0
 62
7
100
AcDbPolyline
 90
2
 70
0
 10
158.626886
 20
-63.605509
 30
0.0
 10
144.656886
 20
-63.605509
 30
0.0
  0
LWPOLYLINE
  5
25e
100
AcDbEntity
  8
0
 62
7
100
AcDbPolyline
 90
2
 70
0
 10
158.626886
 20
-49.635509
 30
0.0
 10
158.626886
 20
-63.605509
 30
0.0
  0
LWPOLYLINE
  5
25f
100
AcDbEntity
  8
0
 62
7
100
AcDbPolyline
 90
2
 70
0
 10
144.656886
 20
-49.635509
 30
0.0
 10
158.626886
 20
-49.635509
 30
0.0
  0
LWPOLYLINE
  5
260
100
AcDbEntity
  8
0
 62
7
100
AcDbPolyline
 90
2
 70
0
 10
211.331885
 20
-63.605509
 30
0.0
 10
211.331885
 20
-49.635509
 30
0.0
  0
LWPOLYLINE
  5
261
100
AcDbEntity
  8
0
 62
7
100
AcDbPolyline
 90
2
 70
0
 10
225.301885
 20
-63.605509
 30
0.0
 10
211.331885
 20
-63.605509
 30
0.0
  0
LWPOLYLINE
  5
262
100
AcDbEntity
  8
0
 62
7
100
AcDbPolyline
 90
2
 70
0
 10
225.301885
 20
-49.635509
 30
0.0
 10
225.301885
 20
-63.605509
 30
0.0
  0
LWPOLYLINE
  5
263
100
AcDbEntity
  8
0
 62
7
100
AcDbPolyline
 90
2
 70
0
 10
211.331885
 20
-49.635509
 30
0.0
 10
225.301885
 20
-49.635509
 30
0.0
  0
LWPOLYLINE
  5
264
100
AcDbEntity
  8
0
 62
7
100
AcDbPolyline
 90
4
 70
1
 10
230.381885
 20
-49.635509
 30
0.0
 10
244.351885
 20
-49.635509
 30
0.0
 10
244.351885
 20
-63.605509
 30
0.0
 10
230.381885
 20
-63.605509
 30
0.0
  0
LWPOLYLINE
  5
265
100
AcDbEntity
  8
0
 62
7
100
AcDbPolyline
 90
4
 70
1
 10
249.431885
 20
-49.635509
 30
0.0
 10
263.401885
 20
-49.635509
 30
0.0
 10
263.401885
 20
-63.605509
 30
0.0
 10
249.431885
 20
-63.605509
 30
0.0
  0
LWPOLYLINE
  5
266
100
AcDbEntity
  8
0
 62
7
100
AcDbPolyline
 90
2
 70
0
 10
268.481885
 20
-63.605509
 30
0.0
 10
268.481885
 20
-49.635509
 30
0.0
  0
LWPOLYLINE
  5
267
100
AcDbEntity
  8
0
 62
7
100
AcDbPolyline
 90
2
 70
0
 10
282.451885
 20
-63.605509
 30
0.0
 10
268.481885
 20
-63.605509
 30
0.0
  0
LWPOLYLINE
  5
268
100
AcDbEntity
  8
0
 62
7
100
AcDbPolyline
 90
2
 70
0
 10
282.451885
 20
-49.635509
 30
0.0
 10
282.451885
 20
-63.605509
 30
0.0
  0
LWPOLYLINE
  5
269
100
AcDbEntity
  8
0
 62
7
100
AcDbPolyline
 90
2
 70
0
 10
268.481885
 20
-49.635509
 30
0.0
 10
282.451885
 20
-49.635509
 30
0.0
  0
LWPOLYLINE
  5
26a
100
AcDbEntity
  8
0
 62
7
100
AcDbPolyline
 90
2
 70
0
 10
287.531885
 20
-63.605509
 30
0.0
 10
287.531885
 20
-49.635509
 30
0.0
  0
LWPOLYLINE
  5
26b
100
AcDbEntity
  8
0
 62
7
100
AcDbPolyline
 90
2
 70
0
 10
301.501885
 20
-63.605509
 30
0.0
 10
287.531885
 20
-63.605509
 30
0.0
  0
LWPOLYLINE
  5
26c
100
AcDbEntity
  8
0
 62
7
100
AcDbPolyline
 90
2
 70
0
 10
301.501885
 20
-49.635509
 30
0.0
 10
301.501885
 20
-63.605509
 30
0.0
  0
LWPOLYLINE
  5
26d
100
AcDbEntity
  8
0
 62
7
100
AcDbPolyline
 90
2
 70
0
 10
287.531885
 20
-49.635509
 30
0.0
 10
301.501885
 20
-49.635509
 30
0.0
  0
LWPOLYLINE
  5
26e
100
AcDbEntity
  8
0
 62
7
100
AcDbPolyline
 90
2
 70
0
 10
311.344384
 20
-63.605509
 30
0.0
 10
311.344384
 20
-49.635509
 30
0.0
  0
LWPOLYLINE
  5
26f
100
AcDbEntity
  8
0
 62
7
100
AcDbPolyline
 90
2
 70
0
 10
325.314384
 20
-63.605509
 30
0.0
 10
311.344384
 20
-63.605509
 30
0.0
  0
LWPOLYLINE
  5
270
100
AcDbEntity
  8
0
 62
7
100
AcDbPolyline
 90
2
 70
0
 10
325.314384
 20
-49.635509
 30
0.0
 10
325.314384
 20
-63.605509
 30
0.0
  0
LWPOLYLINE
  5
271
100
AcDbEntity
  8
0
 62
7
100
AcDbPolyline
 90
2
 70
0
 10
311.344384
 20
-49.635509
 30
0.0
 10
325.314384
 20
-49.635509
 30
0.0
  0
LWPOLYLINE
  5
272
100
AcDbEntity
  8
0
 62
7
100
AcDbPolyline
 90
4
 70
1
 10
335.156884
 20
-49.635509
 30
0.0
 10
349.126884
 20
-49.635509
 30
0.0
 10
349.126884
 20
-63.605509
 30
0.0
 10
335.156884
 20
-63.605509
 30
0.0
  0
LWPOLYLINE
  5
273
100
AcDbEntity
  8
0
 62
7
100
AcDbPolyline
 90
4
 70
1
 10
354.206884
 20
-49.635509
 30
0.0
 10
368.176884
 20
-49.635509
 30
0.0
 10
368.176884
 20
-63.605509
 30
0.0
 10
354.206884
 20
-63.605509
 30
0.0
  0
LWPOLYLINE
  5
274
100
AcDbEntity
  8
0
 62
7
100
AcDbPolyline
 90
4
 70
1
 10
20.831887
 20
-30.585510
 30
0.0
 10
34.801887
 20
-30.585510
 30
0.0
 10
34.801887
 20
-44.555509
 30
0.0
 10
20.831887
 20
-44.555509
 30
0.0
  0
LWPOLYLINE
  5
275
100
AcDbEntity
  8
0
 62
7
100
AcDbPolyline
 90
2
 70
0
 10
44.644387
 20
-44.555509
 30
0.0
 10
44.644387
 20
-30.585510
 30
0.0
  0
LWPOLYLINE
  5
276
100
AcDbEntity
  8
0
 62
7
100
AcDbPolyline
 90
2
 70
0
 10
58.614387
 20
-44.555509
 30
0.0
 10
44.644387
 20
-44.555509
 30
0.0
  0
LWPOLYLINE
  5
277
100
AcDbEntity
  8
0
 62
7
100
AcDbPolyline
 90
2
 70
0
 10
58.614387
 20
-30.585510
 30
0.0
 10
58.614387
 20
-44.555509
 30
0.0
  0
LWPOLYLINE
  5
278
100
AcDbEntity
  8
0
 62
7
100
AcDbPolyline
 90
2
 70
0
 10
44.644387
 20
-30.585510
 30
0.0
 10
58.614387
 20
-30.585510
 30
0.0
  0
LWPOLYLINE
  5
279
100
AcDbEntity
  8
0
 62
7
100
AcDbPolyline
 90
2
 70
0
 10
68.456887
 20
-44.555509
 30
0.0
 10
68.456887
 20
-30.585510
 30
0.0
  0
LWPOLYLINE
  5
27a
100
AcDbEntity
  8
0
 62
7
100
AcDbPolyline
 90
2
 70
0
 10
82.426887
 20
-44.555509
 30
0.0
 10
68.456887
 20
-44.555509
 30
0.0
  0
LWPOLYLINE
  5
27b
100
AcDbEntity
  8
0
 62
7
100
AcDbPolyline
 90
2
 70
0
 10
82.426887
 20
-30.585510
 30
0.0
 10
82.426887
 20
-44.555509
 30
0.0
  0
LWPOLYLINE
  5
27c
100
AcDbEntity
  8
0
 62
7
100
AcDbPolyline
 90
2
 70
0
 10
68.456887
 20
-30.585510
 30
0.0
 10
82.426887
 20
-30.585510
 30
0.0
  0
LWPOLYLINE
  5
27d
100
AcDbEntity
  8
0
 62
7
100
AcDbPolyline
 90
2
 70
0
 10
87.506887
 20
-44.555509
 30
0.0
 10
87.506887
 20
-30.585510
 30
0.0
  0
LWPOLYLINE
  5
27e
100
AcDbEntity
  8
0
 62
7
100
AcDbPolyline
 90
2
 70
0
 10
101.476886
 20
-44.555509
 30
0.0
 10
87.506887
 20
-44.555509
 30
0.0
  0
LWPOLYLINE
  5
27f
100
AcDbEntity
  8
0
 62
7
100
AcDbPolyline
 90
2
 70
0
 10
101.476886
 20
-30.585510
 30
0.0
 10
101.476886
 20
-44.555509
 30
0.0
  0
LWPOLYLINE
  5
280
100
AcDbEntity
  8
0
 62
7
100
AcDbPolyline
 90
2
 70
0
 10
87.506887
 20
-30.585510
 30
0.0
 10
101.476886
 20
-30.585510
 30
0.0
  0
LWPOLYLINE
  5
281
100
AcDbEntity
  8
0
 62
7
100
AcDbPolyline
 90
2
 70
0
 10
106.556886
 20
-44.555509
 30
0.0
 10
106.556886
 20
-30.585510
 30
0.0
  0
LWPOLYLINE
  5
282
100
AcDbEntity
  8
0
 62
7
100
AcDbPolyline
 90
2
 70
0
 10
120.526886
 20
-44.555509
 30
0.0
 10
106.556886
 20
-44.555509
 30
0.0
  0
LWPOLYLINE
  5
283
100
AcDbEntity
  8
0
 62
7
100
AcDbPolyline
 90
2
 70
0
 10
120.526886
 20
-30.585510
 30
0.0
 10
120.526886
 20
-44.555509
 30
0.0
  0
LWPOLYLINE
  5
284
100
AcDbEntity
  8
0
 62
7
100
AcDbPolyline
 90
2
 70
0
 10
106.556886
 20
-30.585510
 30
0.0
 10
120.526886
 20
-30.585510
 30
0.0
  0
LWPOLYLINE
  5
285
100
AcDbEntity
  8
0
 62
7
100
AcDbPolyline
 90
2
 70
0
 10
125.606886
 20
-44.555509
 30
0.0
 10
125.606886
 20
-30.585510
 30
0.0
  0
LWPOLYLINE
  5
286
100
AcDbEntity
  8
0
 62
7
100
AcDbPolyline
 90
2
 70
0
 10
139.576886
 20
-44.555509
 30
0.0
 10
125.606886
 20
-44.555509
 30
0.0
  0
LWPOLYLINE
  5
287
100
AcDbEntity
  8
0
 62
7
100
AcDbPolyline
 90
2
 70
0
 10
139.576886
 20
-30.585510
 30
0.0
 10
139.576886
 20
-44.555509
 30
0.0
  0
LWPOLYLINE
  5
288
100
AcDbEntity
  8
0
 62
7
100
AcDbPolyline
 90
2
 70
0
 10
125.606886
 20
-30.585510
 30
0.0
 10
139.576886
 20
-30.585510
 30
0.0
  0
LWPOLYLINE
  5
289
100
AcDbEntity
  8
0
 62
7
100
AcDbPolyline
 90
4
 70
1
 10
144.656886
 20
-30.585510
 30
0.0
 10
158.626886
 20
-30.585510
 30
0.0
 10
158.626886
 20
-44.555509
 30
0.0
 10
144.656886
 20
-44.555509
 30
0.0
  0
LWPOLYLINE
  5
28a
100
AcDbEntity
  8
0
 62
7
100
AcDbPolyline
 90
2
 70
0
 10
211.331885
 20
-44.555509
 30
0.0
 10
211.331885
 20
-30.585510
 30
0.0
  0
LWPOLYLINE
  5
28b
100
AcDbEntity
  8
0
 62
7
100
AcDbPolyline
 90
2
 70
0
 10
225.301885
 20
-44.555509
 30
0.0
 10
211.331885
 20
-44.555509
 30
0.0
  0
LWPOLYLINE
  5
28c
100
AcDbEntity
  8
0
 62
7
100
AcDbPolyline
 90
2
 70
0
 10
225.301885
 20
-30.585510
 30
0.0
 10
225.301885
 20
-44.555509
 30
0.0
  0
LWPOLYLINE
  5
28d
100
AcDbEntity
  8
0
 62
7
100
AcDbPolyline
 90
2
 70
0
 10
211.331885
 20
-30.585510
 30
0.0
 10
225.301885
 20
-30.585510
 30
0.0
  0
LWPOLYLINE
  5
28e
100
AcDbEntity
  8
0
 62
7
100
AcDbPolyline
 90
2
 70
0
 10
230.381885
 20
-44.555509
 30
0.0
 10
230.381885
 20
-30.585510
 30
0.0
  0
LWPOLYLINE
  5
28f
100
AcDbEntity
  8
0
 62
7
100
AcDbPolyline
 90
2
 70
0
 10
244.351885
 20
-44.555509
 30
0.0
 10
230.381885
 20
-44.555509
 30
0.0
  0
LWPOLYLINE
  5
290
100
AcDbEntity
  8
0
 62
7
100
AcDbPolyline
 90
2
 70
0
 10
244.351885
 20
-30.585510
 30
0.0
 10
244.351885
 20
-44.555509
 30
0.0
  0
LWPOLYLINE
  5
291
100
AcDbEntity
  8
0
 62
7
100
AcDbPolyline
 90
2
 70
0
 10
230.381885
 20
-30.585510
 30
0.0
 10
244.351885
 20
-30.585510
 30
0.0
  0
LWPOLYLINE
  5
292
100
AcDbEntity
  8
0
 62
7
100
AcDbPolyline
 90
4
 70
1
 10
249.431885
 20
-30.585510
 30
0.0
 10
263.401885
 20
-30.585510
 30
0.0
 10
263.401885
 20
-44.555509
 30
0.0
 10
249.431885
 20
-44.555509
 30
0.0
  0
LWPOLYLINE
  5
293
100
AcDbEntity
  8
0
 62
7
100
AcDbPolyline
 90
4
 70
1
 10
268.481885
 20
-30.585510
 30
0.0
 10
282.451885
 20
-30.585510
 30
0.0
 10
282.451885
 20
-44.555509
 30
0.0
 10
268.481885
 20
-44.555509
 30
0.0
  0
LWPOLYLINE
  5
294
100
AcDbEntity
  8
0
 62
7
100
AcDbPolyline
 90
4
 70
1
 10
287.531885
 20
-30.585510
 30
0.0
 10
301.501885
 20
-30.585510
 30
0.0
 10
301.501885
 20
-44.555509
 30
0.0
 10
287.531885
 20
-44.555509
 30
0.0
  0
LWPOLYLINE
  5
295
100
AcDbEntity
  8
0
 62
7
100
AcDbPolyline
 90
2
 70
0
 10
306.581884
 20
-44.555509
 30
0.0
 10
306.581884
 20
-30.585510
 30
0.0
  0
LWPOLYLINE
  5
296
100
AcDbEntity
  8
0
 62
7
100
AcDbPolyline
 90
2
 70
0
 10
320.551884
 20
-44.555509
 30
0.0
 10
306.581884
 20
-44.555509
 30
0.0
  0
LWPOLYLINE
  5
297
100
AcDbEntity
  8
0
 62
7
100
AcDbPolyline
 90
2
 70
0
 10
320.551884
 20
-30.585510
 30
0.0
 10
320.551884
 20
-44.555509
 30
0.0
  0
LWPOLYLINE
  5
298
100
AcDbEntity
  8
0
 62
7
100
AcDbPolyline
 90
2
 70
0
 10
306.581884
 20
-30.585510
 30
0.0
 10
320.551884
 20
-30.585510
 30
0.0
  0
LWPOLYLINE
  5
299
100
AcDbEntity
  8
0
 62
7
100
AcDbPolyline
 90
4
 70
1
 10
325.631884
 20
-30.585510
 30
0.0
 10
339.601884
 20
-30.585510
 30
0.0
 10
339.601884
 20
-44.555509
 30
0.0
 10
325.631884
 20
-44.555509
 30
0.0
  0
LWPOLYLINE
  5
29a
100
AcDbEntity
  8
0
 62
7
100
AcDbPolyline
 90
4
 70
1
 10
344.681884
 20
-30.585510
 30
0.0
 10
358.651884
 20
-30.585510
 30
0.0
 10
358.651884
 20
-44.555509
 30
0.0
 10
344.681884
 20
-44.555509
 30
0.0
  0
LWPOLYLINE
  5
29b
100
AcDbEntity
  8
0
 62
7
100
AcDbPolyline
 90
36
 70
1
 10
37.501907
 20
-87.735509
 30
0.0
 10
51.471907
 20
-87.735509
 30
0.0
 10
51.471907
 20
-89.843709
 30
0.0
 10
53.097507
 20
-89.843709
 30
0.0
 10
53.097507
 20
-89.030909
 30
0.0
 10
59.752307
 20
-89.030909
 30
0.0
 10
59.752307
 20
-92.434509
 30
0.0
 10
60.615907
 20
-92.434509
 30
0.0
 10
60.615907
 20
-95.228509
 30
0.0
 10
59.752307
 20
-95.228509
 30
0.0
 10
59.752307
 20
-101.324509
 30
0.0
 10
58.710907
 20
-101.324509
 30
0.0
 10
58.710907
 20
-102.492909
 30
0.0
 10
54.138907
 20
-102.492909
 30
0.0
 10
54.138907
 20
-101.324509
 30
0.0
 10
53.097507
 20
-101.324509
 30
0.0
 10
53.097507
 20
-100.537109
 30
0.0
 10
51.471907
 20
-100.537109
 30
0.0
 10
51.471907
 20
-101.705509
 30
0.0
 10
37.501907
 20
-101.705509
 30
0.0
 10
37.501907
 20
-100.537109
 30
0.0
 10
35.876307
 20
-100.537109
 30
0.0
 10
35.876307
 20
-101.324509
 30
0.0
 10
34.834907
 20
-101.324509
 30
0.0
 10
34.834907
 20
-102.492909
 30
0.0
 10
30.262907
 20
-102.492909
 30
0.0
 10
30.262907
 20
-101.324509
 30
0.0
 10
29.221507
 20
-101.324509
 30
0.0
 10
29.221507
 20
-95.228509
 30
0.0
 10
28.357907
 20
-95.228509
 30
0.0
 10
28.357907
 20
-92.434509
 30
0.0
 10
29.221507
 20
-92.434509
 30
0.0
 10
29.221507
 20
-89.030909
 30
0.0
 10
35.876307
 20
-89.030909
 30
0.0
 10
35.876307
 20
-89.843709
 30
0.0
 10
37.501907
 20
-89.843709
 30
0.0
  0
ENDSEC
  0
SECTION
  2
OBJECTS
  0
DICTIONARY
  5
C
330
0
100
AcDbDictionary
  3
ACAD_GROUP
350
D
  3
ACAD_MLINESTYLE
350
17
  0
DICTIONARY
  5
D
330
C
100
AcDbDictionary
  0
DICTIONARY
  5
1A
330
C
100
AcDbDictionary
  0
DICTIONARY
  5
17
330
C
100
AcDbDictionary
  3
STANDARD
350
18
  0
DICTIONARY
  5
19
330
C
100
AcDbDictionary
  0
ENDSEC
  0
EOF
