  0
SECTION
  2
HEADER
  9
$ACADVER
  1
AC1014
  9
$HANDSEED
  5
FFFF
  9
$MEASUREMENT
 70
     1
  0
ENDSEC
  0
SECTION
  2
TABLES
  0
TABLE
  2
VPORT
  5
8
330
0
100
AcDbSymbolTable
 70
     4
  0
VPORT
  5
2E
330
8
100
AcDbSymbolTableRecord
100
AcDbViewportTableRecord
  2
*ACTIVE
 70
     0
 10
0.0
 20
0.0
 11
1.0
 21
1.0
 12
210.0
 22
148.5
 13
0.0
 23
0.0
 14
10.0
 24
10.0
 15
10.0
 25
10.0
 16
0.0
 26
0.0
 36
1.0
 17
0.0
 27
0.0
 37
0.0
 40
341.0
 41
1.24
 42
50.0
 43
0.0
 44
0.0
 50
0.0
 51
0.0
 71
     0
 72
   100
 73
     1
 74
     3
 75
     0
 76
     0
 77
     0
 78
     0
  0
ENDTAB
  0
TABLE
  2
LTYPE
  5
5
330
0
100
AcDbSymbolTable
 70
     1
  0
LTYPE
  5
14
330
5
100
AcDbSymbolTableRecord
100
AcDbLinetypeTableRecord
  2
BYBLOCK
 70
     0
  3

 72
    65
 73
     0
 40
0.0
  0
LTYPE
  5
15
330
5
100
AcDbSymbolTableRecord
100
AcDbLinetypeTableRecord
  2
BYLAYER
 70
     0
  3

 72
    65
 73
     0
 40
0.0
  0
LTYPE
  5
16
330
5
100
AcDbSymbolTableRecord
100
AcDbLinetypeTableRecord
  2
CONTINUOUS
 70
     0
  3
Solid line
 72
    65
 73
     0
 40
0.0
  0
ENDTAB
  0
TABLE
  2
LAYER
  5
2
100
AcDbSymbolTable
 70
1
  0
LAYER
  5
50
100
AcDbSymbolTableRecord
100
AcDbLayerTableRecord
  2
0
 70
0
  6
CONTINUOUS
  0
ENDTAB
  0
TABLE
  2
STYLE
  5
3
330
0
100
AcDbSymbolTable
 70
     1
  0
STYLE
  5
11
330
3
100
AcDbSymbolTableRecord
100
AcDbTextStyleTableRecord
  2
STANDARD
 70
     0
 40
0.0
 41
1.0
 50
0.0
 71
     0
 42
2.5
  3
txt
  4

  0
ENDTAB
  0
TABLE
  2
VIEW
  5
6
330
0
100
AcDbSymbolTable
 70
     0
  0
ENDTAB
  0
TABLE
  2
UCS
  5
7
330
0
100
AcDbSymbolTable
 70
     0
  0
ENDTAB
  0
TABLE
  2
APPID
  5
9
330
0
100
AcDbSymbolTable
 70
     2
  0
APPID
  5
12
330
9
100
AcDbSymbolTableRecord
100
AcDbRegAppTableRecord
  2
ACAD
 70
     0
  0
ENDTAB
  0
TABLE
  2
DIMSTYLE
  5
A
330
0
100
AcDbSymbolTable
 70
     1
  0
DIMSTYLE
105
27
330
A
100
AcDbSymbolTableRecord
100
AcDbDimStyleTableRecord
  2
ISO-25
 70
     0
  3

  4

  5

  6

  7

 40
1.0
 41
2.5
 42
0.625
 43
3.75
 44
1.25
 45
0.0
 46
0.0
 47
0.0
 48
0.0
140
2.5
141
2.5
142
0.0
143
0.03937007874016
144
1.0
145
0.0
146
1.0
147
0.625
 71
     0
 72
     0
 73
     0
 74
     0
 75
     0
 76
     0
 77
     1
 78
     8
170
     0
171
     3
172
     1
173
     0
174
     0
175
     0
176
     0
177
     0
178
     0
270
     2
271
     2
272
     2
273
     2
274
     3
340
11
275
     0
280
     0
281
     0
282
     0
283
     0
284
     8
285
     0
286
     0
287
     3
288
     0
  0
ENDTAB
  0
TABLE
  2
BLOCK_RECORD
  5
1
330
0
100
AcDbSymbolTable
 70
     1
  0
BLOCK_RECORD
  5
1F
330
1
100
AcDbSymbolTableRecord
100
AcDbBlockTableRecord
  2
*MODEL_SPACE
  0
BLOCK_RECORD
  5
1B
330
1
100
AcDbSymbolTableRecord
100
AcDbBlockTableRecord
  2
*PAPER_SPACE
  0
ENDTAB
  0
ENDSEC
  0
SECTION
  2
BLOCKS
  0
BLOCK
  5
20
330
1F
100
AcDbEntity
  8
0
100
AcDbBlockBegin
  2
*MODEL_SPACE
 70
     0
 10
0.0
 20
0.0
 30
0.0
  3
*MODEL_SPACE
  1

  0
ENDBLK
  5
21
330
1F
100
AcDbEntity
  8
0
100
AcDbBlockEnd
  0
BLOCK
  5
1C
330
1B
100
AcDbEntity
 67
     1
  8
0
100
AcDbBlockBegin
  2
*PAPER_SPACE
  1

  0
ENDBLK
  5
1D
330
1B
100
AcDbEntity
 67
     1
  8
0
100
AcDbBlockEnd
  0
ENDSEC
  0
SECTION
  2
ENTITIES
  0
LWPOLYLINE
  5
100
100
AcDbEntity
  8
0
 62
7
100
AcDbPolyline
 90
2
 70
0
 10
0.075007
 20
-128.393289
 30
0.0
 10
0.075007
 20
-3.394810
 30
0.0
  0
LWPOLYLINE
  5
101
100
AcDbEntity
  8
0
 62
7
100
AcDbPolyline
 90
2
 70
0
 10
110.074786
 20
-133.394548
 30
0.0
 10
5.073727
 20
-133.394548
 30
0.0
  0
LWPOLYLINE
  5
102
100
AcDbEntity
  8
0
 62
7
100
AcDbPolyline
 90
2
 70
0
 10
135.073466
 20
-173.394468
 30
0.0
 10
110.074786
 20
-133.394548
 30
0.0
  0
LWPOLYLINE
  5
103
100
AcDbEntity
  8
0
 62
7
100
AcDbPolyline
 90
2
 70
0
 10
235.073265
 20
-173.394468
 30
0.0
 10
135.073466
 20
-173.394468
 30
0.0
  0
LWPOLYLINE
  5
104
100
AcDbEntity
  8
0
 62
7
100
AcDbPolyline
 90
2
 70
0
 10
260.074485
 20
-133.394548
 30
0.0
 10
235.073265
 20
-173.394468
 30
0.0
  0
LWPOLYLINE
  5
105
100
AcDbEntity
  8
0
 62
7
100
AcDbPolyline
 90
2
 70
0
 10
375.075524
 20
-133.394548
 30
0.0
 10
260.074485
 20
-133.394548
 30
0.0
  0
LWPOLYLINE
  5
106
100
AcDbEntity
  8
0
 62
7
100
AcDbPolyline
 90
2
 70
0
 10
380.074244
 20
-3.394810
 30
0.0
 10
380.074244
 20
-128.393289
 30
0.0
  0
SPLINE
  5
107
100
AcDbEntity
  8
0
 62
7
100
AcDbSpline
 70
8
 71
3
 72
8
 73
4
 74
0
 40
0
 40
0
 40
0
 40
0
 40
1
 40
1
 40
1
 40
1
 10
380.076784
 20
-3.395623
 30
0.0
 10
380.076784
 20
-2.069322
 30
0.0
 10
379.549827
 20
-0.797362
 30
0.0
 10
378.611873
 20
0.140355
 30
0.0
  0
SPLINE
  5
108
100
AcDbEntity
  8
0
 62
7
100
AcDbSpline
 70
8
 71
3
 72
8
 73
4
 74
0
 40
0
 40
0
 40
0
 40
0
 40
1
 40
1
 40
1
 40
1
 10
378.611873
 20
0.140355
 30
0.0
 10
377.673918
 20
1.078072
 30
0.0
 10
376.401824
 20
1.604707
 30
0.0
 10
375.075524
 20
1.604370
 30
0.0
  0
SPLINE
  5
109
100
AcDbEntity
  8
0
 62
7
100
AcDbSpline
 70
8
 71
3
 72
8
 73
4
 74
0
 40
0
 40
0
 40
0
 40
0
 40
1
 40
1
 40
1
 40
1
 10
375.075524
 20
-133.395564
 30
0.0
 10
376.401824
 20
-133.395901
 30
0.0
 10
377.673917
 20
-132.869267
 30
0.0
 10
378.611872
 20
-131.931550
 30
0.0
  0
SPLINE
  5
10a
100
AcDbEntity
  8
0
 62
7
100
AcDbSpline
 70
8
 71
3
 72
8
 73
4
 74
0
 40
0
 40
0
 40
0
 40
0
 40
1
 40
1
 40
1
 40
1
 10
378.611872
 20
-131.931550
 30
0.0
 10
379.549826
 20
-130.993834
 30
0.0
 10
380.076784
 20
-129.721874
 30
0.0
 10
380.076784
 20
-128.395575
 30
0.0
  0
SPLINE
  5
10b
100
AcDbEntity
  8
0
 62
7
100
AcDbSpline
 70
8
 71
3
 72
8
 73
4
 74
0
 40
0
 40
0
 40
0
 40
0
 40
1
 40
1
 40
1
 40
1
 10
0.075592
 20
-128.395575
 30
0.0
 10
0.075592
 20
-129.721654
 30
0.0
 10
0.602375
 20
-130.993421
 30
0.0
 10
1.540055
 20
-131.931101
 30
0.0
  0
SPLINE
  5
10c
100
AcDbEntity
  8
0
 62
7
100
AcDbSpline
 70
8
 71
3
 72
8
 73
4
 74
0
 40
0
 40
0
 40
0
 40
0
 40
1
 40
1
 40
1
 40
1
 10
1.540055
 20
-131.931101
 30
0.0
 10
2.477735
 20
-132.868781
 30
0.0
 10
3.749502
 20
-133.395564
 30
0.0
 10
5.075582
 20
-133.395564
 30
0.0
  0
SPLINE
  5
10d
100
AcDbEntity
  8
0
 62
7
100
AcDbSpline
 70
8
 71
3
 72
8
 73
4
 74
0
 40
0
 40
0
 40
0
 40
0
 40
1
 40
1
 40
1
 40
1
 10
5.075582
 20
1.604370
 30
0.0
 10
3.749501
 20
1.604370
 30
0.0
 10
2.477734
 20
1.077586
 30
0.0
 10
1.540054
 20
0.139906
 30
0.0
  0
SPLINE
  5
10e
100
AcDbEntity
  8
0
 62
7
100
AcDbSpline
 70
8
 71
3
 72
8
 73
4
 74
0
 40
0
 40
0
 40
0
 40
0
 40
1
 40
1
 40
1
 40
1
 10
1.540054
 20
0.139906
 30
0.0
 10
0.602374
 20
-0.797775
 30
0.0
 10
0.075591
 20
-2.069542
 30
0.0
 10
0.075592
 20
-3.395623
 30
0.0
  0
SPLINE
  5
10f
100
AcDbEntity
  8
0
 62
7
100
AcDbSpline
 70
8
 71
3
 72
8
 73
4
 74
0
 40
0
 40
0
 40
0
 40
0
 40
1
 40
1
 40
1
 40
1
 10
186.275647
 20
-115.895724
 30
0.0
 10
186.275647
 20
-116.324443
 30
0.0
 10
186.046928
 20
-116.720595
 30
0.0
 10
185.675647
 20
-116.934955
 30
0.0
  0
SPLINE
  5
110
100
AcDbEntity
  8
0
 62
7
100
AcDbSpline
 70
8
 71
3
 72
8
 73
4
 74
0
 40
0
 40
0
 40
0
 40
0
 40
1
 40
1
 40
1
 40
1
 10
185.675647
 20
-116.934955
 30
0.0
 10
185.304365
 20
-117.149314
 30
0.0
 10
184.846928
 20
-117.149314
 30
0.0
 10
184.475646
 20
-116.934955
 30
0.0
  0
SPLINE
  5
111
100
AcDbEntity
  8
0
 62
7
100
AcDbSpline
 70
8
 71
3
 72
8
 73
4
 74
0
 40
0
 40
0
 40
0
 40
0
 40
1
 40
1
 40
1
 40
1
 10
184.475646
 20
-116.934955
 30
0.0
 10
184.104365
 20
-116.720595
 30
0.0
 10
183.875646
 20
-116.324443
 30
0.0
 10
183.875646
 20
-115.895724
 30
0.0
  0
SPLINE
  5
112
100
AcDbEntity
  8
0
 62
7
100
AcDbSpline
 70
8
 71
3
 72
8
 73
4
 74
0
 40
0
 40
0
 40
0
 40
0
 40
1
 40
1
 40
1
 40
1
 10
183.875646
 20
-115.895724
 30
0.0
 10
183.875646
 20
-115.467005
 30
0.0
 10
184.104365
 20
-115.070853
 30
0.0
 10
184.475646
 20
-114.856494
 30
0.0
  0
SPLINE
  5
113
100
AcDbEntity
  8
0
 62
7
100
AcDbSpline
 70
8
 71
3
 72
8
 73
4
 74
0
 40
0
 40
0
 40
0
 40
0
 40
1
 40
1
 40
1
 40
1
 10
184.475646
 20
-114.856494
 30
0.0
 10
184.846928
 20
-114.642134
 30
0.0
 10
185.304365
 20
-114.642134
 30
0.0
 10
185.675647
 20
-114.856494
 30
0.0
  0
SPLINE
  5
114
100
AcDbEntity
  8
0
 62
7
100
AcDbSpline
 70
8
 71
3
 72
8
 73
4
 74
0
 40
0
 40
0
 40
0
 40
0
 40
1
 40
1
 40
1
 40
1
 10
185.675647
 20
-114.856494
 30
0.0
 10
186.046928
 20
-115.070853
 30
0.0
 10
186.275647
 20
-115.467005
 30
0.0
 10
186.275647
 20
-115.895724
 30
0.0
  0
LWPOLYLINE
  5
115
100
AcDbEntity
  8
0
 62
7
100
AcDbPolyline
 90
2
 70
0
 10
5.073727
 20
1.606450
 30
0.0
 10
375.075524
 20
1.606450
 30
0.0
  0
SPLINE
  5
116
100
AcDbEntity
  8
0
 62
7
100
AcDbSpline
 70
8
 71
3
 72
8
 73
4
 74
0
 40
0
 40
0
 40
0
 40
0
 40
1
 40
1
 40
1
 40
1
 10
308.775025
 20
-115.895724
 30
0.0
 10
308.775025
 20
-116.324443
 30
0.0
 10
308.546306
 20
-116.720595
 30
0.0
 10
308.175025
 20
-116.934955
 30
0.0
  0
SPLINE
  5
117
100
AcDbEntity
  8
0
 62
7
100
AcDbSpline
 70
8
 71
3
 72
8
 73
4
 74
0
 40
0
 40
0
 40
0
 40
0
 40
1
 40
1
 40
1
 40
1
 10
308.175025
 20
-116.934955
 30
0.0
 10
307.803743
 20
-117.149314
 30
0.0
 10
307.346306
 20
-117.149314
 30
0.0
 10
306.975024
 20
-116.934955
 30
0.0
  0
SPLINE
  5
118
100
AcDbEntity
  8
0
 62
7
100
AcDbSpline
 70
8
 71
3
 72
8
 73
4
 74
0
 40
0
 40
0
 40
0
 40
0
 40
1
 40
1
 40
1
 40
1
 10
306.975024
 20
-116.934955
 30
0.0
 10
306.603743
 20
-116.720595
 30
0.0
 10
306.375024
 20
-116.324443
 30
0.0
 10
306.375024
 20
-115.895724
 30
0.0
  0
SPLINE
  5
119
100
AcDbEntity
  8
0
 62
7
100
AcDbSpline
 70
8
 71
3
 72
8
 73
4
 74
0
 40
0
 40
0
 40
0
 40
0
 40
1
 40
1
 40
1
 40
1
 10
306.375024
 20
-115.895724
 30
0.0
 10
306.375024
 20
-115.467005
 30
0.0
 10
306.603743
 20
-115.070853
 30
0.0
 10
306.975024
 20
-114.856494
 30
0.0
  0
SPLINE
  5
11a
100
AcDbEntity
  8
0
 62
7
100
AcDbSpline
 70
8
 71
3
 72
8
 73
4
 74
0
 40
0
 40
0
 40
0
 40
0
 40
1
 40
1
 40
1
 40
1
 10
306.975024
 20
-114.856494
 30
0.0
 10
307.346306
 20
-114.642134
 30
0.0
 10
307.803743
 20
-114.642134
 30
0.0
 10
308.175025
 20
-114.856494
 30
0.0
  0
SPLINE
  5
11b
100
AcDbEntity
  8
0
 62
7
100
AcDbSpline
 70
8
 71
3
 72
8
 73
4
 74
0
 40
0
 40
0
 40
0
 40
0
 40
1
 40
1
 40
1
 40
1
 10
308.175025
 20
-114.856494
 30
0.0
 10
308.546306
 20
-115.070853
 30
0.0
 10
308.775025
 20
-115.467005
 30
0.0
 10
308.775025
 20
-115.895724
 30
0.0
  0
LWPOLYLINE
  5
11c
100
AcDbEntity
  8
0
 62
7
100
AcDbPolyline
 90
1
 70
1
 10
186.275647
 20
-115.895724
 30
0.0
  0
SPLINE
  5
11d
100
AcDbEntity
  8
0
 62
7
100
AcDbSpline
 70
8
 71
3
 72
8
 73
4
 74
0
 40
0
 40
0
 40
0
 40
0
 40
1
 40
1
 40
1
 40
1
 10
186.275647
 20
-143.395539
 30
0.0
 10
186.275647
 20
-143.824258
 30
0.0
 10
186.046928
 20
-144.220411
 30
0.0
 10
185.675647
 20
-144.434770
 30
0.0
  0
SPLINE
  5
11e
100
AcDbEntity
  8
0
 62
7
100
AcDbSpline
 70
8
 71
3
 72
8
 73
4
 74
0
 40
0
 40
0
 40
0
 40
0
 40
1
 40
1
 40
1
 40
1
 10
185.675647
 20
-144.434770
 30
0.0
 10
185.304365
 20
-144.649129
 30
0.0
 10
184.846928
 20
-144.649129
 30
0.0
 10
184.475646
 20
-144.434770
 30
0.0
  0
SPLINE
  5
11f
100
AcDbEntity
  8
0
 62
7
100
AcDbSpline
 70
8
 71
3
 72
8
 73
4
 74
0
 40
0
 40
0
 40
0
 40
0
 40
1
 40
1
 40
1
 40
1
 10
184.475646
 20
-144.434770
 30
0.0
 10
184.104365
 20
-144.220411
 30
0.0
 10
183.875646
 20
-143.824258
 30
0.0
 10
183.875646
 20
-143.395539
 30
0.0
  0
SPLINE
  5
120
100
AcDbEntity
  8
0
 62
7
100
AcDbSpline
 70
8
 71
3
 72
8
 73
4
 74
0
 40
0
 40
0
 40
0
 40
0
 40
1
 40
1
 40
1
 40
1
 10
183.875646
 20
-143.395539
 30
0.0
 10
183.875646
 20
-142.966821
 30
0.0
 10
184.104365
 20
-142.570668
 30
0.0
 10
184.475646
 20
-142.356309
 30
0.0
  0
SPLINE
  5
121
100
AcDbEntity
  8
0
 62
7
100
AcDbSpline
 70
8
 71
3
 72
8
 73
4
 74
0
 40
0
 40
0
 40
0
 40
0
 40
1
 40
1
 40
1
 40
1
 10
184.475646
 20
-142.356309
 30
0.0
 10
184.846928
 20
-142.141949
 30
0.0
 10
185.304365
 20
-142.141949
 30
0.0
 10
185.675647
 20
-142.356309
 30
0.0
  0
SPLINE
  5
122
100
AcDbEntity
  8
0
 62
7
100
AcDbSpline
 70
8
 71
3
 72
8
 73
4
 74
0
 40
0
 40
0
 40
0
 40
0
 40
1
 40
1
 40
1
 40
1
 10
185.675647
 20
-142.356309
 30
0.0
 10
186.046928
 20
-142.570668
 30
0.0
 10
186.275647
 20
-142.966821
 30
0.0
 10
186.275647
 20
-143.395539
 30
0.0
  0
LWPOLYLINE
  5
123
100
AcDbEntity
  8
0
 62
7
100
AcDbPolyline
 90
1
 70
1
 10
308.775025
 20
-115.895724
 30
0.0
  0
SPLINE
  5
124
100
AcDbEntity
  8
0
 62
7
100
AcDbSpline
 70
8
 71
3
 72
8
 73
4
 74
0
 40
0
 40
0
 40
0
 40
0
 40
1
 40
1
 40
1
 40
1
 10
108.775686
 20
-115.895724
 30
0.0
 10
108.775686
 20
-116.558466
 30
0.0
 10
108.238427
 20
-117.095724
 30
0.0
 10
107.575685
 20
-117.095724
 30
0.0
  0
SPLINE
  5
125
100
AcDbEntity
  8
0
 62
7
100
AcDbSpline
 70
8
 71
3
 72
8
 73
4
 74
0
 40
0
 40
0
 40
0
 40
0
 40
1
 40
1
 40
1
 40
1
 10
107.575685
 20
-117.095724
 30
0.0
 10
106.912944
 20
-117.095724
 30
0.0
 10
106.375685
 20
-116.558466
 30
0.0
 10
106.375685
 20
-115.895724
 30
0.0
  0
SPLINE
  5
126
100
AcDbEntity
  8
0
 62
7
100
AcDbSpline
 70
8
 71
3
 72
8
 73
4
 74
0
 40
0
 40
0
 40
0
 40
0
 40
1
 40
1
 40
1
 40
1
 10
106.375685
 20
-115.895724
 30
0.0
 10
106.375685
 20
-115.232982
 30
0.0
 10
106.912944
 20
-114.695724
 30
0.0
 10
107.575685
 20
-114.695724
 30
0.0
  0
SPLINE
  5
127
100
AcDbEntity
  8
0
 62
7
100
AcDbSpline
 70
8
 71
3
 72
8
 73
4
 74
0
 40
0
 40
0
 40
0
 40
0
 40
1
 40
1
 40
1
 40
1
 10
107.575685
 20
-114.695724
 30
0.0
 10
108.238427
 20
-114.695724
 30
0.0
 10
108.775686
 20
-115.232982
 30
0.0
 10
108.775686
 20
-115.895724
 30
0.0
  0
LWPOLYLINE
  5
128
100
AcDbEntity
  8
0
 62
7
100
AcDbPolyline
 90
1
 70
1
 10
186.275647
 20
-143.395539
 30
0.0
  0
SPLINE
  5
129
100
AcDbEntity
  8
0
 62
7
100
AcDbSpline
 70
8
 71
3
 72
8
 73
4
 74
0
 40
0
 40
0
 40
0
 40
0
 40
1
 40
1
 40
1
 40
1
 10
18.775607
 20
-115.895724
 30
0.0
 10
18.775607
 20
-116.558466
 30
0.0
 10
18.238349
 20
-117.095724
 30
0.0
 10
17.575607
 20
-117.095724
 30
0.0
  0
SPLINE
  5
12a
100
AcDbEntity
  8
0
 62
7
100
AcDbSpline
 70
8
 71
3
 72
8
 73
4
 74
0
 40
0
 40
0
 40
0
 40
0
 40
1
 40
1
 40
1
 40
1
 10
17.575607
 20
-117.095724
 30
0.0
 10
16.912866
 20
-117.095724
 30
0.0
 10
16.375607
 20
-116.558466
 30
0.0
 10
16.375607
 20
-115.895724
 30
0.0
  0
SPLINE
  5
12b
100
AcDbEntity
  8
0
 62
7
100
AcDbSpline
 70
8
 71
3
 72
8
 73
4
 74
0
 40
0
 40
0
 40
0
 40
0
 40
1
 40
1
 40
1
 40
1
 10
16.375607
 20
-115.895724
 30
0.0
 10
16.375607
 20
-115.467005
 30
0.0
 10
16.604326
 20
-115.070853
 30
0.0
 10
16.975607
 20
-114.856494
 30
0.0
  0
SPLINE
  5
12c
100
AcDbEntity
  8
0
 62
7
100
AcDbSpline
 70
8
 71
3
 72
8
 73
4
 74
0
 40
0
 40
0
 40
0
 40
0
 40
1
 40
1
 40
1
 40
1
 10
16.975607
 20
-114.856494
 30
0.0
 10
17.346889
 20
-114.642134
 30
0.0
 10
17.804326
 20
-114.642134
 30
0.0
 10
18.175607
 20
-114.856494
 30
0.0
  0
SPLINE
  5
12d
100
AcDbEntity
  8
0
 62
7
100
AcDbSpline
 70
8
 71
3
 72
8
 73
4
 74
0
 40
0
 40
0
 40
0
 40
0
 40
1
 40
1
 40
1
 40
1
 10
18.175607
 20
-114.856494
 30
0.0
 10
18.546889
 20
-115.070853
 30
0.0
 10
18.775607
 20
-115.467005
 30
0.0
 10
18.775607
 20
-115.895724
 30
0.0
  0
LWPOLYLINE
  5
12e
100
AcDbEntity
  8
0
 62
7
100
AcDbPolyline
 90
1
 70
1
 10
108.775686
 20
-115.895724
 30
0.0
  0
SPLINE
  5
12f
100
AcDbEntity
  8
0
 62
7
100
AcDbSpline
 70
8
 71
3
 72
8
 73
4
 74
0
 40
0
 40
0
 40
0
 40
0
 40
1
 40
1
 40
1
 40
1
 10
43.775557
 20
-15.895623
 30
0.0
 10
43.775557
 20
-16.324342
 30
0.0
 10
43.546838
 20
-16.720494
 30
0.0
 10
43.175557
 20
-16.934854
 30
0.0
  0
SPLINE
  5
130
100
AcDbEntity
  8
0
 62
7
100
AcDbSpline
 70
8
 71
3
 72
8
 73
4
 74
0
 40
0
 40
0
 40
0
 40
0
 40
1
 40
1
 40
1
 40
1
 10
43.175557
 20
-16.934854
 30
0.0
 10
42.804276
 20
-17.149213
 30
0.0
 10
42.346838
 20
-17.149213
 30
0.0
 10
41.975557
 20
-16.934854
 30
0.0
  0
SPLINE
  5
131
100
AcDbEntity
  8
0
 62
7
100
AcDbSpline
 70
8
 71
3
 72
8
 73
4
 74
0
 40
0
 40
0
 40
0
 40
0
 40
1
 40
1
 40
1
 40
1
 10
41.975557
 20
-16.934854
 30
0.0
 10
41.604276
 20
-16.720494
 30
0.0
 10
41.375557
 20
-16.324342
 30
0.0
 10
41.375557
 20
-15.895623
 30
0.0
  0
SPLINE
  5
132
100
AcDbEntity
  8
0
 62
7
100
AcDbSpline
 70
8
 71
3
 72
8
 73
4
 74
0
 40
0
 40
0
 40
0
 40
0
 40
1
 40
1
 40
1
 40
1
 10
41.375557
 20
-15.895623
 30
0.0
 10
41.375557
 20
-15.466904
 30
0.0
 10
41.604276
 20
-15.070752
 30
0.0
 10
41.975557
 20
-14.856392
 30
0.0
  0
SPLINE
  5
133
100
AcDbEntity
  8
0
 62
7
100
AcDbSpline
 70
8
 71
3
 72
8
 73
4
 74
0
 40
0
 40
0
 40
0
 40
0
 40
1
 40
1
 40
1
 40
1
 10
41.975557
 20
-14.856392
 30
0.0
 10
42.346838
 20
-14.642033
 30
0.0
 10
42.804276
 20
-14.642033
 30
0.0
 10
43.175557
 20
-14.856392
 30
0.0
  0
SPLINE
  5
134
100
AcDbEntity
  8
0
 62
7
100
AcDbSpline
 70
8
 71
3
 72
8
 73
4
 74
0
 40
0
 40
0
 40
0
 40
0
 40
1
 40
1
 40
1
 40
1
 10
43.175557
 20
-14.856392
 30
0.0
 10
43.546838
 20
-15.070752
 30
0.0
 10
43.775557
 20
-15.466904
 30
0.0
 10
43.775557
 20
-15.895623
 30
0.0
  0
LWPOLYLINE
  5
135
100
AcDbEntity
  8
0
 62
7
100
AcDbPolyline
 90
1
 70
1
 10
18.775607
 20
-115.895724
 30
0.0
  0
SPLINE
  5
136
100
AcDbEntity
  8
0
 62
7
100
AcDbSpline
 70
8
 71
3
 72
8
 73
4
 74
0
 40
0
 40
0
 40
0
 40
0
 40
1
 40
1
 40
1
 40
1
 10
168.775565
 20
-15.895623
 30
0.0
 10
168.775565
 20
-16.324342
 30
0.0
 10
168.546846
 20
-16.720494
 30
0.0
 10
168.175565
 20
-16.934854
 30
0.0
  0
SPLINE
  5
137
100
AcDbEntity
  8
0
 62
7
100
AcDbSpline
 70
8
 71
3
 72
8
 73
4
 74
0
 40
0
 40
0
 40
0
 40
0
 40
1
 40
1
 40
1
 40
1
 10
168.175565
 20
-16.934854
 30
0.0
 10
167.804284
 20
-17.149213
 30
0.0
 10
167.346846
 20
-17.149213
 30
0.0
 10
166.975565
 20
-16.934854
 30
0.0
  0
SPLINE
  5
138
100
AcDbEntity
  8
0
 62
7
100
AcDbSpline
 70
8
 71
3
 72
8
 73
4
 74
0
 40
0
 40
0
 40
0
 40
0
 40
1
 40
1
 40
1
 40
1
 10
166.975565
 20
-16.934854
 30
0.0
 10
166.604283
 20
-16.720494
 30
0.0
 10
166.375565
 20
-16.324342
 30
0.0
 10
166.375565
 20
-15.895623
 30
0.0
  0
SPLINE
  5
139
100
AcDbEntity
  8
0
 62
7
100
AcDbSpline
 70
8
 71
3
 72
8
 73
4
 74
0
 40
0
 40
0
 40
0
 40
0
 40
1
 40
1
 40
1
 40
1
 10
166.375565
 20
-15.895623
 30
0.0
 10
166.375565
 20
-15.466904
 30
0.0
 10
166.604283
 20
-15.070752
 30
0.0
 10
166.975565
 20
-14.856392
 30
0.0
  0
SPLINE
  5
13a
100
AcDbEntity
  8
0
 62
7
100
AcDbSpline
 70
8
 71
3
 72
8
 73
4
 74
0
 40
0
 40
0
 40
0
 40
0
 40
1
 40
1
 40
1
 40
1
 10
166.975565
 20
-14.856392
 30
0.0
 10
167.346846
 20
-14.642033
 30
0.0
 10
167.804284
 20
-14.642033
 30
0.0
 10
168.175565
 20
-14.856392
 30
0.0
  0
SPLINE
  5
13b
100
AcDbEntity
  8
0
 62
7
100
AcDbSpline
 70
8
 71
3
 72
8
 73
4
 74
0
 40
0
 40
0
 40
0
 40
0
 40
1
 40
1
 40
1
 40
1
 10
168.175565
 20
-14.856392
 30
0.0
 10
168.546846
 20
-15.070752
 30
0.0
 10
168.775565
 20
-15.466904
 30
0.0
 10
168.775565
 20
-15.895623
 30
0.0
  0
LWPOLYLINE
  5
13c
100
AcDbEntity
  8
0
 62
7
100
AcDbPolyline
 90
1
 70
1
 10
43.775557
 20
-15.895623
 30
0.0
  0
SPLINE
  5
13d
100
AcDbEntity
  8
0
 62
7
100
AcDbSpline
 70
8
 71
3
 72
8
 73
4
 74
0
 40
0
 40
0
 40
0
 40
0
 40
1
 40
1
 40
1
 40
1
 10
163.775575
 20
-65.895573
 30
0.0
 10
163.775575
 20
-66.324292
 30
0.0
 10
163.546856
 20
-66.720444
 30
0.0
 10
163.175575
 20
-66.934804
 30
0.0
  0
SPLINE
  5
13e
100
AcDbEntity
  8
0
 62
7
100
AcDbSpline
 70
8
 71
3
 72
8
 73
4
 74
0
 40
0
 40
0
 40
0
 40
0
 40
1
 40
1
 40
1
 40
1
 10
163.175575
 20
-66.934804
 30
0.0
 10
162.804294
 20
-67.149163
 30
0.0
 10
162.346856
 20
-67.149163
 30
0.0
 10
161.975575
 20
-66.934804
 30
0.0
  0
SPLINE
  5
13f
100
AcDbEntity
  8
0
 62
7
100
AcDbSpline
 70
8
 71
3
 72
8
 73
4
 74
0
 40
0
 40
0
 40
0
 40
0
 40
1
 40
1
 40
1
 40
1
 10
161.975575
 20
-66.934804
 30
0.0
 10
161.604294
 20
-66.720444
 30
0.0
 10
161.375575
 20
-66.324292
 30
0.0
 10
161.375575
 20
-65.895573
 30
0.0
  0
SPLINE
  5
140
100
AcDbEntity
  8
0
 62
7
100
AcDbSpline
 70
8
 71
3
 72
8
 73
4
 74
0
 40
0
 40
0
 40
0
 40
0
 40
1
 40
1
 40
1
 40
1
 10
161.375575
 20
-65.895573
 30
0.0
 10
161.375575
 20
-65.466854
 30
0.0
 10
161.604294
 20
-65.070702
 30
0.0
 10
161.975575
 20
-64.856343
 30
0.0
  0
SPLINE
  5
141
100
AcDbEntity
  8
0
 62
7
100
AcDbSpline
 70
8
 71
3
 72
8
 73
4
 74
0
 40
0
 40
0
 40
0
 40
0
 40
1
 40
1
 40
1
 40
1
 10
161.975575
 20
-64.856343
 30
0.0
 10
162.346856
 20
-64.641983
 30
0.0
 10
162.804294
 20
-64.641983
 30
0.0
 10
163.175575
 20
-64.856343
 30
0.0
  0
SPLINE
  5
142
100
AcDbEntity
  8
0
 62
7
100
AcDbSpline
 70
8
 71
3
 72
8
 73
4
 74
0
 40
0
 40
0
 40
0
 40
0
 40
1
 40
1
 40
1
 40
1
 10
163.175575
 20
-64.856343
 30
0.0
 10
163.546856
 20
-65.070702
 30
0.0
 10
163.775575
 20
-65.466854
 30
0.0
 10
163.775575
 20
-65.895573
 30
0.0
  0
LWPOLYLINE
  5
143
100
AcDbEntity
  8
0
 62
7
100
AcDbPolyline
 90
1
 70
1
 10
168.775565
 20
-15.895623
 30
0.0
  0
SPLINE
  5
144
100
AcDbEntity
  8
0
 62
7
100
AcDbSpline
 70
8
 71
3
 72
8
 73
4
 74
0
 40
0
 40
0
 40
0
 40
0
 40
1
 40
1
 40
1
 40
1
 10
208.775485
 20
-65.895573
 30
0.0
 10
208.775485
 20
-66.324292
 30
0.0
 10
208.546766
 20
-66.720444
 30
0.0
 10
208.175485
 20
-66.934804
 30
0.0
  0
SPLINE
  5
145
100
AcDbEntity
  8
0
 62
7
100
AcDbSpline
 70
8
 71
3
 72
8
 73
4
 74
0
 40
0
 40
0
 40
0
 40
0
 40
1
 40
1
 40
1
 40
1
 10
208.175485
 20
-66.934804
 30
0.0
 10
207.804203
 20
-67.149163
 30
0.0
 10
207.346766
 20
-67.149163
 30
0.0
 10
206.975484
 20
-66.934804
 30
0.0
  0
SPLINE
  5
146
100
AcDbEntity
  8
0
 62
7
100
AcDbSpline
 70
8
 71
3
 72
8
 73
4
 74
0
 40
0
 40
0
 40
0
 40
0
 40
1
 40
1
 40
1
 40
1
 10
206.975484
 20
-66.934804
 30
0.0
 10
206.604203
 20
-66.720444
 30
0.0
 10
206.375484
 20
-66.324292
 30
0.0
 10
206.375484
 20
-65.895573
 30
0.0
  0
SPLINE
  5
147
100
AcDbEntity
  8
0
 62
7
100
AcDbSpline
 70
8
 71
3
 72
8
 73
4
 74
0
 40
0
 40
0
 40
0
 40
0
 40
1
 40
1
 40
1
 40
1
 10
206.375484
 20
-65.895573
 30
0.0
 10
206.375484
 20
-65.466854
 30
0.0
 10
206.604203
 20
-65.070702
 30
0.0
 10
206.975484
 20
-64.856343
 30
0.0
  0
SPLINE
  5
148
100
AcDbEntity
  8
0
 62
7
100
AcDbSpline
 70
8
 71
3
 72
8
 73
4
 74
0
 40
0
 40
0
 40
0
 40
0
 40
1
 40
1
 40
1
 40
1
 10
206.975484
 20
-64.856343
 30
0.0
 10
207.346766
 20
-64.641983
 30
0.0
 10
207.804203
 20
-64.641983
 30
0.0
 10
208.175485
 20
-64.856343
 30
0.0
  0
SPLINE
  5
149
100
AcDbEntity
  8
0
 62
7
100
AcDbSpline
 70
8
 71
3
 72
8
 73
4
 74
0
 40
0
 40
0
 40
0
 40
0
 40
1
 40
1
 40
1
 40
1
 10
208.175485
 20
-64.856343
 30
0.0
 10
208.546766
 20
-65.070702
 30
0.0
 10
208.775485
 20
-65.466854
 30
0.0
 10
208.775485
 20
-65.895573
 30
0.0
  0
LWPOLYLINE
  5
14a
100
AcDbEntity
  8
0
 62
7
100
AcDbPolyline
 90
1
 70
1
 10
163.775575
 20
-65.895573
 30
0.0
  0
SPLINE
  5
14b
100
AcDbEntity
  8
0
 62
7
100
AcDbSpline
 70
8
 71
3
 72
8
 73
4
 74
0
 40
0
 40
0
 40
0
 40
0
 40
1
 40
1
 40
1
 40
1
 10
203.775495
 20
-15.895623
 30
0.0
 10
203.775495
 20
-16.324342
 30
0.0
 10
203.546776
 20
-16.720494
 30
0.0
 10
203.175495
 20
-16.934854
 30
0.0
  0
SPLINE
  5
14c
100
AcDbEntity
  8
0
 62
7
100
AcDbSpline
 70
8
 71
3
 72
8
 73
4
 74
0
 40
0
 40
0
 40
0
 40
0
 40
1
 40
1
 40
1
 40
1
 10
203.175495
 20
-16.934854
 30
0.0
 10
202.804213
 20
-17.149213
 30
0.0
 10
202.346776
 20
-17.149213
 30
0.0
 10
201.975494
 20
-16.934854
 30
0.0
  0
SPLINE
  5
14d
100
AcDbEntity
  8
0
 62
7
100
AcDbSpline
 70
8
 71
3
 72
8
 73
4
 74
0
 40
0
 40
0
 40
0
 40
0
 40
1
 40
1
 40
1
 40
1
 10
201.975494
 20
-16.934854
 30
0.0
 10
201.604213
 20
-16.720494
 30
0.0
 10
201.375494
 20
-16.324342
 30
0.0
 10
201.375494
 20
-15.895623
 30
0.0
  0
SPLINE
  5
14e
100
AcDbEntity
  8
0
 62
7
100
AcDbSpline
 70
8
 71
3
 72
8
 73
4
 74
0
 40
0
 40
0
 40
0
 40
0
 40
1
 40
1
 40
1
 40
1
 10
201.375494
 20
-15.895623
 30
0.0
 10
201.375494
 20
-15.466904
 30
0.0
 10
201.604213
 20
-15.070752
 30
0.0
 10
201.975494
 20
-14.856392
 30
0.0
  0
SPLINE
  5
14f
100
AcDbEntity
  8
0
 62
7
100
AcDbSpline
 70
8
 71
3
 72
8
 73
4
 74
0
 40
0
 40
0
 40
0
 40
0
 40
1
 40
1
 40
1
 40
1
 10
201.975494
 20
-14.856392
 30
0.0
 10
202.346776
 20
-14.642033
 30
0.0
 10
202.804213
 20
-14.642033
 30
0.0
 10
203.175495
 20
-14.856392
 30
0.0
  0
SPLINE
  5
150
100
AcDbEntity
  8
0
 62
7
100
AcDbSpline
 70
8
 71
3
 72
8
 73
4
 74
0
 40
0
 40
0
 40
0
 40
0
 40
1
 40
1
 40
1
 40
1
 10
203.175495
 20
-14.856392
 30
0.0
 10
203.546776
 20
-15.070752
 30
0.0
 10
203.775495
 20
-15.466904
 30
0.0
 10
203.775495
 20
-15.895623
 30
0.0
  0
LWPOLYLINE
  5
151
100
AcDbEntity
  8
0
 62
7
100
AcDbPolyline
 90
1
 70
1
 10
208.775485
 20
-65.895573
 30
0.0
  0
SPLINE
  5
152
100
AcDbEntity
  8
0
 62
7
100
AcDbSpline
 70
8
 71
3
 72
8
 73
4
 74
0
 40
0
 40
0
 40
0
 40
0
 40
1
 40
1
 40
1
 40
1
 10
363.776184
 20
-15.895623
 30
0.0
 10
363.776184
 20
-16.324342
 30
0.0
 10
363.547465
 20
-16.720494
 30
0.0
 10
363.176184
 20
-16.934854
 30
0.0
  0
SPLINE
  5
153
100
AcDbEntity
  8
0
 62
7
100
AcDbSpline
 70
8
 71
3
 72
8
 73
4
 74
0
 40
0
 40
0
 40
0
 40
0
 40
1
 40
1
 40
1
 40
1
 10
363.176184
 20
-16.934854
 30
0.0
 10
362.804903
 20
-17.149213
 30
0.0
 10
362.347465
 20
-17.149213
 30
0.0
 10
361.976184
 20
-16.934854
 30
0.0
  0
SPLINE
  5
154
100
AcDbEntity
  8
0
 62
7
100
AcDbSpline
 70
8
 71
3
 72
8
 73
4
 74
0
 40
0
 40
0
 40
0
 40
0
 40
1
 40
1
 40
1
 40
1
 10
361.976184
 20
-16.934854
 30
0.0
 10
361.604903
 20
-16.720494
 30
0.0
 10
361.376184
 20
-16.324342
 30
0.0
 10
361.376184
 20
-15.895623
 30
0.0
  0
SPLINE
  5
155
100
AcDbEntity
  8
0
 62
7
100
AcDbSpline
 70
8
 71
3
 72
8
 73
4
 74
0
 40
0
 40
0
 40
0
 40
0
 40
1
 40
1
 40
1
 40
1
 10
361.376184
 20
-15.895623
 30
0.0
 10
361.376184
 20
-15.466904
 30
0.0
 10
361.604903
 20
-15.070752
 30
0.0
 10
361.976184
 20
-14.856392
 30
0.0
  0
SPLINE
  5
156
100
AcDbEntity
  8
0
 62
7
100
AcDbSpline
 70
8
 71
3
 72
8
 73
4
 74
0
 40
0
 40
0
 40
0
 40
0
 40
1
 40
1
 40
1
 40
1
 10
361.976184
 20
-14.856392
 30
0.0
 10
362.347465
 20
-14.642033
 30
0.0
 10
362.804903
 20
-14.642033
 30
0.0
 10
363.176184
 20
-14.856392
 30
0.0
  0
SPLINE
  5
157
100
AcDbEntity
  8
0
 62
7
100
AcDbSpline
 70
8
 71
3
 72
8
 73
4
 74
0
 40
0
 40
0
 40
0
 40
0
 40
1
 40
1
 40
1
 40
1
 10
363.176184
 20
-14.856392
 30
0.0
 10
363.547465
 20
-15.070752
 30
0.0
 10
363.776184
 20
-15.466904
 30
0.0
 10
363.776184
 20
-15.895623
 30
0.0
  0
LWPOLYLINE
  5
158
100
AcDbEntity
  8
0
 62
7
100
AcDbPolyline
 90
1
 70
1
 10
203.775495
 20
-15.895623
 30
0.0
  0
SPLINE
  5
159
100
AcDbEntity
  8
0
 62
7
100
AcDbSpline
 70
8
 71
3
 72
8
 73
4
 74
0
 40
0
 40
0
 40
0
 40
0
 40
1
 40
1
 40
1
 40
1
 10
358.774924
 20
-100.895508
 30
0.0
 10
358.774924
 20
-101.324227
 30
0.0
 10
358.546205
 20
-101.720379
 30
0.0
 10
358.174924
 20
-101.934739
 30
0.0
  0
SPLINE
  5
15a
100
AcDbEntity
  8
0
 62
7
100
AcDbSpline
 70
8
 71
3
 72
8
 73
4
 74
0
 40
0
 40
0
 40
0
 40
0
 40
1
 40
1
 40
1
 40
1
 10
358.174924
 20
-101.934739
 30
0.0
 10
357.803643
 20
-102.149098
 30
0.0
 10
357.346205
 20
-102.149098
 30
0.0
 10
356.974924
 20
-101.934739
 30
0.0
  0
SPLINE
  5
15b
100
AcDbEntity
  8
0
 62
7
100
AcDbSpline
 70
8
 71
3
 72
8
 73
4
 74
0
 40
0
 40
0
 40
0
 40
0
 40
1
 40
1
 40
1
 40
1
 10
356.974924
 20
-101.934739
 30
0.0
 10
356.603643
 20
-101.720379
 30
0.0
 10
356.374924
 20
-101.324227
 30
0.0
 10
356.374924
 20
-100.895508
 30
0.0
  0
SPLINE
  5
15c
100
AcDbEntity
  8
0
 62
7
100
AcDbSpline
 70
8
 71
3
 72
8
 73
4
 74
0
 40
0
 40
0
 40
0
 40
0
 40
1
 40
1
 40
1
 40
1
 10
356.374924
 20
-100.895508
 30
0.0
 10
356.374924
 20
-100.466789
 30
0.0
 10
356.603643
 20
-100.070637
 30
0.0
 10
356.974924
 20
-99.856277
 30
0.0
  0
SPLINE
  5
15d
100
AcDbEntity
  8
0
 62
7
100
AcDbSpline
 70
8
 71
3
 72
8
 73
4
 74
0
 40
0
 40
0
 40
0
 40
0
 40
1
 40
1
 40
1
 40
1
 10
356.974924
 20
-99.856277
 30
0.0
 10
357.346205
 20
-99.641918
 30
0.0
 10
357.803643
 20
-99.641918
 30
0.0
 10
358.174924
 20
-99.856277
 30
0.0
  0
SPLINE
  5
15e
100
AcDbEntity
  8
0
 62
7
100
AcDbSpline
 70
8
 71
3
 72
8
 73
4
 74
0
 40
0
 40
0
 40
0
 40
0
 40
1
 40
1
 40
1
 40
1
 10
358.174924
 20
-99.856277
 30
0.0
 10
358.546205
 20
-100.070637
 30
0.0
 10
358.774924
 20
-100.466789
 30
0.0
 10
358.774924
 20
-100.895508
 30
0.0
  0
LWPOLYLINE
  5
15f
100
AcDbEntity
  8
0
 62
7
100
AcDbPolyline
 90
1
 70
1
 10
363.776184
 20
-15.895623
 30
0.0
  0
SPLINE
  5
160
100
AcDbEntity
  8
0
 62
7
100
AcDbSpline
 70
8
 71
3
 72
8
 73
4
 74
0
 40
0
 40
0
 40
0
 40
0
 40
1
 40
1
 40
1
 40
1
 10
308.775025
 20
-115.895724
 30
0.0
 10
308.775025
 20
-116.324443
 30
0.0
 10
308.546306
 20
-116.720595
 30
0.0
 10
308.175025
 20
-116.934955
 30
0.0
  0
SPLINE
  5
161
100
AcDbEntity
  8
0
 62
7
100
AcDbSpline
 70
8
 71
3
 72
8
 73
4
 74
0
 40
0
 40
0
 40
0
 40
0
 40
1
 40
1
 40
1
 40
1
 10
308.175025
 20
-116.934955
 30
0.0
 10
307.803743
 20
-117.149314
 30
0.0
 10
307.346306
 20
-117.149314
 30
0.0
 10
306.975024
 20
-116.934955
 30
0.0
  0
SPLINE
  5
162
100
AcDbEntity
  8
0
 62
7
100
AcDbSpline
 70
8
 71
3
 72
8
 73
4
 74
0
 40
0
 40
0
 40
0
 40
0
 40
1
 40
1
 40
1
 40
1
 10
306.975024
 20
-116.934955
 30
0.0
 10
306.603743
 20
-116.720595
 30
0.0
 10
306.375024
 20
-116.324443
 30
0.0
 10
306.375024
 20
-115.895724
 30
0.0
  0
SPLINE
  5
163
100
AcDbEntity
  8
0
 62
7
100
AcDbSpline
 70
8
 71
3
 72
8
 73
4
 74
0
 40
0
 40
0
 40
0
 40
0
 40
1
 40
1
 40
1
 40
1
 10
306.375024
 20
-115.895724
 30
0.0
 10
306.375024
 20
-115.467005
 30
0.0
 10
306.603743
 20
-115.070853
 30
0.0
 10
306.975024
 20
-114.856494
 30
0.0
  0
SPLINE
  5
164
100
AcDbEntity
  8
0
 62
7
100
AcDbSpline
 70
8
 71
3
 72
8
 73
4
 74
0
 40
0
 40
0
 40
0
 40
0
 40
1
 40
1
 40
1
 40
1
 10
306.975024
 20
-114.856494
 30
0.0
 10
307.346306
 20
-114.642134
 30
0.0
 10
307.803743
 20
-114.642134
 30
0.0
 10
308.175025
 20
-114.856494
 30
0.0
  0
SPLINE
  5
165
100
AcDbEntity
  8
0
 62
7
100
AcDbSpline
 70
8
 71
3
 72
8
 73
4
 74
0
 40
0
 40
0
 40
0
 40
0
 40
1
 40
1
 40
1
 40
1
 10
308.175025
 20
-114.856494
 30
0.0
 10
308.546306
 20
-115.070853
 30
0.0
 10
308.775025
 20
-115.467005
 30
0.0
 10
308.775025
 20
-115.895724
 30
0.0
  0
LWPOLYLINE
  5
166
100
AcDbEntity
  8
0
 62
7
100
AcDbPolyline
 90
1
 70
1
 10
358.774924
 20
-100.895508
 30
0.0
  0
SPLINE
  5
167
100
AcDbEntity
  8
0
 62
7
100
AcDbSpline
 70
8
 71
3
 72
8
 73
4
 74
0
 40
0
 40
0
 40
0
 40
0
 40
1
 40
1
 40
1
 40
1
 10
283.776345
 20
-130.895694
 30
0.0
 10
283.776345
 20
-131.324413
 30
0.0
 10
283.547626
 20
-131.720565
 30
0.0
 10
283.176345
 20
-131.934925
 30
0.0
  0
SPLINE
  5
168
100
AcDbEntity
  8
0
 62
7
100
AcDbSpline
 70
8
 71
3
 72
8
 73
4
 74
0
 40
0
 40
0
 40
0
 40
0
 40
1
 40
1
 40
1
 40
1
 10
283.176345
 20
-131.934925
 30
0.0
 10
282.805063
 20
-132.149284
 30
0.0
 10
282.347626
 20
-132.149284
 30
0.0
 10
281.976345
 20
-131.934925
 30
0.0
  0
SPLINE
  5
169
100
AcDbEntity
  8
0
 62
7
100
AcDbSpline
 70
8
 71
3
 72
8
 73
4
 74
0
 40
0
 40
0
 40
0
 40
0
 40
1
 40
1
 40
1
 40
1
 10
281.976345
 20
-131.934925
 30
0.0
 10
281.605063
 20
-131.720565
 30
0.0
 10
281.376345
 20
-131.324413
 30
0.0
 10
281.376345
 20
-130.895694
 30
0.0
  0
SPLINE
  5
16a
100
AcDbEntity
  8
0
 62
7
100
AcDbSpline
 70
8
 71
3
 72
8
 73
4
 74
0
 40
0
 40
0
 40
0
 40
0
 40
1
 40
1
 40
1
 40
1
 10
281.376345
 20
-130.895694
 30
0.0
 10
281.376345
 20
-130.466975
 30
0.0
 10
281.605063
 20
-130.070823
 30
0.0
 10
281.976345
 20
-129.856463
 30
0.0
  0
SPLINE
  5
16b
100
AcDbEntity
  8
0
 62
7
100
AcDbSpline
 70
8
 71
3
 72
8
 73
4
 74
0
 40
0
 40
0
 40
0
 40
0
 40
1
 40
1
 40
1
 40
1
 10
281.976345
 20
-129.856463
 30
0.0
 10
282.347626
 20
-129.642104
 30
0.0
 10
282.805063
 20
-129.642104
 30
0.0
 10
283.176345
 20
-129.856463
 30
0.0
  0
SPLINE
  5
16c
100
AcDbEntity
  8
0
 62
7
100
AcDbSpline
 70
8
 71
3
 72
8
 73
4
 74
0
 40
0
 40
0
 40
0
 40
0
 40
1
 40
1
 40
1
 40
1
 10
283.176345
 20
-129.856463
 30
0.0
 10
283.547626
 20
-130.070823
 30
0.0
 10
283.776345
 20
-130.466975
 30
0.0
 10
283.776345
 20
-130.895694
 30
0.0
  0
LWPOLYLINE
  5
16d
100
AcDbEntity
  8
0
 62
7
100
AcDbPolyline
 90
1
 70
1
 10
308.775025
 20
-115.895724
 30
0.0
  0
SPLINE
  5
16e
100
AcDbEntity
  8
0
 62
7
100
AcDbSpline
 70
8
 71
3
 72
8
 73
4
 74
0
 40
0
 40
0
 40
0
 40
0
 40
1
 40
1
 40
1
 40
1
 10
231.275556
 20
-170.895624
 30
0.0
 10
231.275556
 20
-171.324343
 30
0.0
 10
231.046838
 20
-171.720495
 30
0.0
 10
230.675556
 20
-171.934854
 30
0.0
  0
SPLINE
  5
16f
100
AcDbEntity
  8
0
 62
7
100
AcDbSpline
 70
8
 71
3
 72
8
 73
4
 74
0
 40
0
 40
0
 40
0
 40
0
 40
1
 40
1
 40
1
 40
1
 10
230.675556
 20
-171.934854
 30
0.0
 10
230.304275
 20
-172.149214
 30
0.0
 10
229.846837
 20
-172.149214
 30
0.0
 10
229.475556
 20
-171.934854
 30
0.0
  0
SPLINE
  5
170
100
AcDbEntity
  8
0
 62
7
100
AcDbSpline
 70
8
 71
3
 72
8
 73
4
 74
0
 40
0
 40
0
 40
0
 40
0
 40
1
 40
1
 40
1
 40
1
 10
229.475556
 20
-171.934854
 30
0.0
 10
229.104275
 20
-171.720495
 30
0.0
 10
228.875556
 20
-171.324343
 30
0.0
 10
228.875556
 20
-170.895624
 30
0.0
  0
SPLINE
  5
171
100
AcDbEntity
  8
0
 62
7
100
AcDbSpline
 70
8
 71
3
 72
8
 73
4
 74
0
 40
0
 40
0
 40
0
 40
0
 40
1
 40
1
 40
1
 40
1
 10
228.875556
 20
-170.895624
 30
0.0
 10
228.875556
 20
-170.466905
 30
0.0
 10
229.104275
 20
-170.070753
 30
0.0
 10
229.475556
 20
-169.856393
 30
0.0
  0
SPLINE
  5
172
100
AcDbEntity
  8
0
 62
7
100
AcDbSpline
 70
8
 71
3
 72
8
 73
4
 74
0
 40
0
 40
0
 40
0
 40
0
 40
1
 40
1
 40
1
 40
1
 10
229.475556
 20
-169.856393
 30
0.0
 10
229.846837
 20
-169.642034
 30
0.0
 10
230.304275
 20
-169.642034
 30
0.0
 10
230.675556
 20
-169.856393
 30
0.0
  0
SPLINE
  5
173
100
AcDbEntity
  8
0
 62
7
100
AcDbSpline
 70
8
 71
3
 72
8
 73
4
 74
0
 40
0
 40
0
 40
0
 40
0
 40
1
 40
1
 40
1
 40
1
 10
230.675556
 20
-169.856393
 30
0.0
 10
231.046838
 20
-170.070753
 30
0.0
 10
231.275556
 20
-170.466905
 30
0.0
 10
231.275556
 20
-170.895624
 30
0.0
  0
LWPOLYLINE
  5
174
100
AcDbEntity
  8
0
 62
7
100
AcDbPolyline
 90
1
 70
1
 10
283.776345
 20
-130.895694
 30
0.0
  0
SPLINE
  5
175
100
AcDbEntity
  8
0
 62
7
100
AcDbSpline
 70
8
 71
3
 72
8
 73
4
 74
0
 40
0
 40
0
 40
0
 40
0
 40
1
 40
1
 40
1
 40
1
 10
141.275491
 20
-170.895624
 30
0.0
 10
141.275491
 20
-171.324343
 30
0.0
 10
141.046772
 20
-171.720495
 30
0.0
 10
140.675491
 20
-171.934854
 30
0.0
  0
SPLINE
  5
176
100
AcDbEntity
  8
0
 62
7
100
AcDbSpline
 70
8
 71
3
 72
8
 73
4
 74
0
 40
0
 40
0
 40
0
 40
0
 40
1
 40
1
 40
1
 40
1
 10
140.675491
 20
-171.934854
 30
0.0
 10
140.304209
 20
-172.149214
 30
0.0
 10
139.846772
 20
-172.149214
 30
0.0
 10
139.475491
 20
-171.934854
 30
0.0
  0
SPLINE
  5
177
100
AcDbEntity
  8
0
 62
7
100
AcDbSpline
 70
8
 71
3
 72
8
 73
4
 74
0
 40
0
 40
0
 40
0
 40
0
 40
1
 40
1
 40
1
 40
1
 10
139.475491
 20
-171.934854
 30
0.0
 10
139.104209
 20
-171.720495
 30
0.0
 10
138.875490
 20
-171.324343
 30
0.0
 10
138.875490
 20
-170.895624
 30
0.0
  0
SPLINE
  5
178
100
AcDbEntity
  8
0
 62
7
100
AcDbSpline
 70
8
 71
3
 72
8
 73
4
 74
0
 40
0
 40
0
 40
0
 40
0
 40
1
 40
1
 40
1
 40
1
 10
138.875490
 20
-170.895624
 30
0.0
 10
138.875490
 20
-170.466905
 30
0.0
 10
139.104209
 20
-170.070753
 30
0.0
 10
139.475491
 20
-169.856393
 30
0.0
  0
SPLINE
  5
179
100
AcDbEntity
  8
0
 62
7
100
AcDbSpline
 70
8
 71
3
 72
8
 73
4
 74
0
 40
0
 40
0
 40
0
 40
0
 40
1
 40
1
 40
1
 40
1
 10
139.475491
 20
-169.856393
 30
0.0
 10
139.846772
 20
-169.642034
 30
0.0
 10
140.304209
 20
-169.642034
 30
0.0
 10
140.675491
 20
-169.856393
 30
0.0
  0
SPLINE
  5
17a
100
AcDbEntity
  8
0
 62
7
100
AcDbSpline
 70
8
 71
3
 72
8
 73
4
 74
0
 40
0
 40
0
 40
0
 40
0
 40
1
 40
1
 40
1
 40
1
 10
140.675491
 20
-169.856393
 30
0.0
 10
141.046772
 20
-170.070753
 30
0.0
 10
141.275491
 20
-170.466905
 30
0.0
 10
141.275491
 20
-170.895624
 30
0.0
  0
LWPOLYLINE
  5
17b
100
AcDbEntity
  8
0
 62
7
100
AcDbPolyline
 90
1
 70
1
 10
231.275556
 20
-170.895624
 30
0.0
  0
SPLINE
  5
17c
100
AcDbEntity
  8
0
 62
7
100
AcDbSpline
 70
8
 71
3
 72
8
 73
4
 74
0
 40
0
 40
0
 40
0
 40
0
 40
1
 40
1
 40
1
 40
1
 10
98.775706
 20
-130.895694
 30
0.0
 10
98.775706
 20
-131.558436
 30
0.0
 10
98.238447
 20
-132.095694
 30
0.0
 10
97.575706
 20
-132.095694
 30
0.0
  0
SPLINE
  5
17d
100
AcDbEntity
  8
0
 62
7
100
AcDbSpline
 70
8
 71
3
 72
8
 73
4
 74
0
 40
0
 40
0
 40
0
 40
0
 40
1
 40
1
 40
1
 40
1
 10
97.575706
 20
-132.095694
 30
0.0
 10
96.912964
 20
-132.095694
 30
0.0
 10
96.375706
 20
-131.558436
 30
0.0
 10
96.375705
 20
-130.895694
 30
0.0
  0
SPLINE
  5
17e
100
AcDbEntity
  8
0
 62
7
100
AcDbSpline
 70
8
 71
3
 72
8
 73
4
 74
0
 40
0
 40
0
 40
0
 40
0
 40
1
 40
1
 40
1
 40
1
 10
96.375705
 20
-130.895694
 30
0.0
 10
96.375706
 20
-130.232952
 30
0.0
 10
96.912964
 20
-129.695694
 30
0.0
 10
97.575706
 20
-129.695694
 30
0.0
  0
SPLINE
  5
17f
100
AcDbEntity
  8
0
 62
7
100
AcDbSpline
 70
8
 71
3
 72
8
 73
4
 74
0
 40
0
 40
0
 40
0
 40
0
 40
1
 40
1
 40
1
 40
1
 10
97.575706
 20
-129.695694
 30
0.0
 10
98.238447
 20
-129.695694
 30
0.0
 10
98.775706
 20
-130.232952
 30
0.0
 10
98.775706
 20
-130.895694
 30
0.0
  0
LWPOLYLINE
  5
180
100
AcDbEntity
  8
0
 62
7
100
AcDbPolyline
 90
1
 70
1
 10
141.275491
 20
-170.895624
 30
0.0
  0
SPLINE
  5
181
100
AcDbEntity
  8
0
 62
7
100
AcDbSpline
 70
8
 71
3
 72
8
 73
4
 74
0
 40
0
 40
0
 40
0
 40
0
 40
1
 40
1
 40
1
 40
1
 10
23.775597
 20
-130.895694
 30
0.0
 10
23.775597
 20
-131.558436
 30
0.0
 10
23.238339
 20
-132.095694
 30
0.0
 10
22.575597
 20
-132.095694
 30
0.0
  0
SPLINE
  5
182
100
AcDbEntity
  8
0
 62
7
100
AcDbSpline
 70
8
 71
3
 72
8
 73
4
 74
0
 40
0
 40
0
 40
0
 40
0
 40
1
 40
1
 40
1
 40
1
 10
22.575597
 20
-132.095694
 30
0.0
 10
21.912855
 20
-132.095694
 30
0.0
 10
21.375597
 20
-131.558436
 30
0.0
 10
21.375597
 20
-130.895694
 30
0.0
  0
SPLINE
  5
183
100
AcDbEntity
  8
0
 62
7
100
AcDbSpline
 70
8
 71
3
 72
8
 73
4
 74
0
 40
0
 40
0
 40
0
 40
0
 40
1
 40
1
 40
1
 40
1
 10
21.375597
 20
-130.895694
 30
0.0
 10
21.375597
 20
-130.466975
 30
0.0
 10
21.604316
 20
-130.070823
 30
0.0
 10
21.975597
 20
-129.856463
 30
0.0
  0
SPLINE
  5
184
100
AcDbEntity
  8
0
 62
7
100
AcDbSpline
 70
8
 71
3
 72
8
 73
4
 74
0
 40
0
 40
0
 40
0
 40
0
 40
1
 40
1
 40
1
 40
1
 10
21.975597
 20
-129.856463
 30
0.0
 10
22.346879
 20
-129.642104
 30
0.0
 10
22.804316
 20
-129.642104
 30
0.0
 10
23.175597
 20
-129.856463
 30
0.0
  0
SPLINE
  5
185
100
AcDbEntity
  8
0
 62
7
100
AcDbSpline
 70
8
 71
3
 72
8
 73
4
 74
0
 40
0
 40
0
 40
0
 40
0
 40
1
 40
1
 40
1
 40
1
 10
23.175597
 20
-129.856463
 30
0.0
 10
23.546879
 20
-130.070823
 30
0.0
 10
23.775597
 20
-130.466975
 30
0.0
 10
23.775597
 20
-130.895694
 30
0.0
  0
LWPOLYLINE
  5
186
100
AcDbEntity
  8
0
 62
7
100
AcDbPolyline
 90
1
 70
1
 10
98.775706
 20
-130.895694
 30
0.0
  0
SPLINE
  5
187
100
AcDbEntity
  8
0
 62
7
100
AcDbSpline
 70
8
 71
3
 72
8
 73
4
 74
0
 40
0
 40
0
 40
0
 40
0
 40
1
 40
1
 40
1
 40
1
 10
3.775587
 20
-110.895734
 30
0.0
 10
3.775587
 20
-111.324453
 30
0.0
 10
3.546868
 20
-111.720605
 30
0.0
 10
3.175587
 20
-111.934965
 30
0.0
  0
SPLINE
  5
188
100
AcDbEntity
  8
0
 62
7
100
AcDbSpline
 70
8
 71
3
 72
8
 73
4
 74
0
 40
0
 40
0
 40
0
 40
0
 40
1
 40
1
 40
1
 40
1
 10
3.175587
 20
-111.934965
 30
0.0
 10
2.804305
 20
-112.149324
 30
0.0
 10
2.346868
 20
-112.149324
 30
0.0
 10
1.975587
 20
-111.934965
 30
0.0
  0
SPLINE
  5
189
100
AcDbEntity
  8
0
 62
7
100
AcDbSpline
 70
8
 71
3
 72
8
 73
4
 74
0
 40
0
 40
0
 40
0
 40
0
 40
1
 40
1
 40
1
 40
1
 10
1.975587
 20
-111.934965
 30
0.0
 10
1.604305
 20
-111.720605
 30
0.0
 10
1.375586
 20
-111.324453
 30
0.0
 10
1.375586
 20
-110.895734
 30
0.0
  0
SPLINE
  5
18a
100
AcDbEntity
  8
0
 62
7
100
AcDbSpline
 70
8
 71
3
 72
8
 73
4
 74
0
 40
0
 40
0
 40
0
 40
0
 40
1
 40
1
 40
1
 40
1
 10
1.375586
 20
-110.895734
 30
0.0
 10
1.375586
 20
-110.467015
 30
0.0
 10
1.604305
 20
-110.070863
 30
0.0
 10
1.975587
 20
-109.856504
 30
0.0
  0
SPLINE
  5
18b
100
AcDbEntity
  8
0
 62
7
100
AcDbSpline
 70
8
 71
3
 72
8
 73
4
 74
0
 40
0
 40
0
 40
0
 40
0
 40
1
 40
1
 40
1
 40
1
 10
1.975587
 20
-109.856504
 30
0.0
 10
2.346868
 20
-109.642144
 30
0.0
 10
2.804305
 20
-109.642144
 30
0.0
 10
3.175587
 20
-109.856504
 30
0.0
  0
SPLINE
  5
18c
100
AcDbEntity
  8
0
 62
7
100
AcDbSpline
 70
8
 71
3
 72
8
 73
4
 74
0
 40
0
 40
0
 40
0
 40
0
 40
1
 40
1
 40
1
 40
1
 10
3.175587
 20
-109.856504
 30
0.0
 10
3.546868
 20
-110.070863
 30
0.0
 10
3.775587
 20
-110.467015
 30
0.0
 10
3.775587
 20
-110.895734
 30
0.0
  0
LWPOLYLINE
  5
18d
100
AcDbEntity
  8
0
 62
7
100
AcDbPolyline
 90
1
 70
1
 10
23.775597
 20
-130.895694
 30
0.0
  0
SPLINE
  5
18e
100
AcDbEntity
  8
0
 62
7
100
AcDbSpline
 70
8
 71
3
 72
8
 73
4
 74
0
 40
0
 40
0
 40
0
 40
0
 40
1
 40
1
 40
1
 40
1
 10
3.775587
 20
-20.895638
 30
0.0
 10
3.775587
 20
-21.324356
 30
0.0
 10
3.546868
 20
-21.720509
 30
0.0
 10
3.175587
 20
-21.934868
 30
0.0
  0
SPLINE
  5
18f
100
AcDbEntity
  8
0
 62
7
100
AcDbSpline
 70
8
 71
3
 72
8
 73
4
 74
0
 40
0
 40
0
 40
0
 40
0
 40
1
 40
1
 40
1
 40
1
 10
3.175587
 20
-21.934868
 30
0.0
 10
2.804305
 20
-22.149228
 30
0.0
 10
2.346868
 20
-22.149228
 30
0.0
 10
1.975587
 20
-21.934868
 30
0.0
  0
SPLINE
  5
190
100
AcDbEntity
  8
0
 62
7
100
AcDbSpline
 70
8
 71
3
 72
8
 73
4
 74
0
 40
0
 40
0
 40
0
 40
0
 40
1
 40
1
 40
1
 40
1
 10
1.975587
 20
-21.934868
 30
0.0
 10
1.604305
 20
-21.720509
 30
0.0
 10
1.375586
 20
-21.324356
 30
0.0
 10
1.375586
 20
-20.895638
 30
0.0
  0
SPLINE
  5
191
100
AcDbEntity
  8
0
 62
7
100
AcDbSpline
 70
8
 71
3
 72
8
 73
4
 74
0
 40
0
 40
0
 40
0
 40
0
 40
1
 40
1
 40
1
 40
1
 10
1.375586
 20
-20.895638
 30
0.0
 10
1.375586
 20
-20.466919
 30
0.0
 10
1.604305
 20
-20.070766
 30
0.0
 10
1.975587
 20
-19.856407
 30
0.0
  0
SPLINE
  5
192
100
AcDbEntity
  8
0
 62
7
100
AcDbSpline
 70
8
 71
3
 72
8
 73
4
 74
0
 40
0
 40
0
 40
0
 40
0
 40
1
 40
1
 40
1
 40
1
 10
1.975587
 20
-19.856407
 30
0.0
 10
2.346868
 20
-19.642048
 30
0.0
 10
2.804305
 20
-19.642048
 30
0.0
 10
3.175587
 20
-19.856407
 30
0.0
  0
SPLINE
  5
193
100
AcDbEntity
  8
0
 62
7
100
AcDbSpline
 70
8
 71
3
 72
8
 73
4
 74
0
 40
0
 40
0
 40
0
 40
0
 40
1
 40
1
 40
1
 40
1
 10
3.175587
 20
-19.856407
 30
0.0
 10
3.546868
 20
-20.070766
 30
0.0
 10
3.775587
 20
-20.466919
 30
0.0
 10
3.775587
 20
-20.895638
 30
0.0
  0
LWPOLYLINE
  5
194
100
AcDbEntity
  8
0
 62
7
100
AcDbPolyline
 90
1
 70
1
 10
3.775587
 20
-110.895734
 30
0.0
  0
SPLINE
  5
195
100
AcDbEntity
  8
0
 62
7
100
AcDbSpline
 70
8
 71
3
 72
8
 73
4
 74
0
 40
0
 40
0
 40
0
 40
0
 40
1
 40
1
 40
1
 40
1
 10
23.775597
 20
-0.895627
 30
0.0
 10
23.775597
 20
-1.558369
 30
0.0
 10
23.238339
 20
-2.095627
 30
0.0
 10
22.575597
 20
-2.095627
 30
0.0
  0
SPLINE
  5
196
100
AcDbEntity
  8
0
 62
7
100
AcDbSpline
 70
8
 71
3
 72
8
 73
4
 74
0
 40
0
 40
0
 40
0
 40
0
 40
1
 40
1
 40
1
 40
1
 10
22.575597
 20
-2.095627
 30
0.0
 10
21.912855
 20
-2.095627
 30
0.0
 10
21.375597
 20
-1.558369
 30
0.0
 10
21.375597
 20
-0.895627
 30
0.0
  0
SPLINE
  5
197
100
AcDbEntity
  8
0
 62
7
100
AcDbSpline
 70
8
 71
3
 72
8
 73
4
 74
0
 40
0
 40
0
 40
0
 40
0
 40
1
 40
1
 40
1
 40
1
 10
21.375597
 20
-0.895627
 30
0.0
 10
21.375597
 20
-0.466909
 30
0.0
 10
21.604316
 20
-0.070756
 30
0.0
 10
21.975597
 20
0.143603
 30
0.0
  0
SPLINE
  5
198
100
AcDbEntity
  8
0
 62
7
100
AcDbSpline
 70
8
 71
3
 72
8
 73
4
 74
0
 40
0
 40
0
 40
0
 40
0
 40
1
 40
1
 40
1
 40
1
 10
21.975597
 20
0.143603
 30
0.0
 10
22.346879
 20
0.357963
 30
0.0
 10
22.804316
 20
0.357963
 30
0.0
 10
23.175597
 20
0.143603
 30
0.0
  0
SPLINE
  5
199
100
AcDbEntity
  8
0
 62
7
100
AcDbSpline
 70
8
 71
3
 72
8
 73
4
 74
0
 40
0
 40
0
 40
0
 40
0
 40
1
 40
1
 40
1
 40
1
 10
23.175597
 20
0.143603
 30
0.0
 10
23.546879
 20
-0.070756
 30
0.0
 10
23.775597
 20
-0.466909
 30
0.0
 10
23.775597
 20
-0.895627
 30
0.0
  0
LWPOLYLINE
  5
19a
100
AcDbEntity
  8
0
 62
7
100
AcDbPolyline
 90
1
 70
1
 10
3.775587
 20
-20.895638
 30
0.0
  0
SPLINE
  5
19b
100
AcDbEntity
  8
0
 62
7
100
AcDbSpline
 70
8
 71
3
 72
8
 73
4
 74
0
 40
0
 40
0
 40
0
 40
0
 40
1
 40
1
 40
1
 40
1
 10
98.775706
 20
-0.895627
 30
0.0
 10
98.775706
 20
-1.558369
 30
0.0
 10
98.238447
 20
-2.095627
 30
0.0
 10
97.575706
 20
-2.095627
 30
0.0
  0
SPLINE
  5
19c
100
AcDbEntity
  8
0
 62
7
100
AcDbSpline
 70
8
 71
3
 72
8
 73
4
 74
0
 40
0
 40
0
 40
0
 40
0
 40
1
 40
1
 40
1
 40
1
 10
97.575706
 20
-2.095627
 30
0.0
 10
96.912964
 20
-2.095627
 30
0.0
 10
96.375706
 20
-1.558369
 30
0.0
 10
96.375705
 20
-0.895627
 30
0.0
  0
SPLINE
  5
19d
100
AcDbEntity
  8
0
 62
7
100
AcDbSpline
 70
8
 71
3
 72
8
 73
4
 74
0
 40
0
 40
0
 40
0
 40
0
 40
1
 40
1
 40
1
 40
1
 10
96.375705
 20
-0.895627
 30
0.0
 10
96.375706
 20
-0.232886
 30
0.0
 10
96.912964
 20
0.304373
 30
0.0
 10
97.575706
 20
0.304373
 30
0.0
  0
SPLINE
  5
19e
100
AcDbEntity
  8
0
 62
7
100
AcDbSpline
 70
8
 71
3
 72
8
 73
4
 74
0
 40
0
 40
0
 40
0
 40
0
 40
1
 40
1
 40
1
 40
1
 10
97.575706
 20
0.304373
 30
0.0
 10
98.238447
 20
0.304373
 30
0.0
 10
98.775706
 20
-0.232886
 30
0.0
 10
98.775706
 20
-0.895627
 30
0.0
  0
LWPOLYLINE
  5
19f
100
AcDbEntity
  8
0
 62
7
100
AcDbPolyline
 90
1
 70
1
 10
23.775597
 20
-0.895627
 30
0.0
  0
SPLINE
  5
1a0
100
AcDbEntity
  8
0
 62
7
100
AcDbSpline
 70
8
 71
3
 72
8
 73
4
 74
0
 40
0
 40
0
 40
0
 40
0
 40
1
 40
1
 40
1
 40
1
 10
168.775565
 20
-0.895627
 30
0.0
 10
168.775565
 20
-1.324346
 30
0.0
 10
168.546846
 20
-1.720499
 30
0.0
 10
168.175565
 20
-1.934858
 30
0.0
  0
SPLINE
  5
1a1
100
AcDbEntity
  8
0
 62
7
100
AcDbSpline
 70
8
 71
3
 72
8
 73
4
 74
0
 40
0
 40
0
 40
0
 40
0
 40
1
 40
1
 40
1
 40
1
 10
168.175565
 20
-1.934858
 30
0.0
 10
167.804284
 20
-2.149217
 30
0.0
 10
167.346846
 20
-2.149217
 30
0.0
 10
166.975565
 20
-1.934858
 30
0.0
  0
SPLINE
  5
1a2
100
AcDbEntity
  8
0
 62
7
100
AcDbSpline
 70
8
 71
3
 72
8
 73
4
 74
0
 40
0
 40
0
 40
0
 40
0
 40
1
 40
1
 40
1
 40
1
 10
166.975565
 20
-1.934858
 30
0.0
 10
166.604283
 20
-1.720499
 30
0.0
 10
166.375565
 20
-1.324346
 30
0.0
 10
166.375565
 20
-0.895627
 30
0.0
  0
SPLINE
  5
1a3
100
AcDbEntity
  8
0
 62
7
100
AcDbSpline
 70
8
 71
3
 72
8
 73
4
 74
0
 40
0
 40
0
 40
0
 40
0
 40
1
 40
1
 40
1
 40
1
 10
166.375565
 20
-0.895627
 30
0.0
 10
166.375565
 20
-0.466909
 30
0.0
 10
166.604283
 20
-0.070756
 30
0.0
 10
166.975565
 20
0.143603
 30
0.0
  0
SPLINE
  5
1a4
100
AcDbEntity
  8
0
 62
7
100
AcDbSpline
 70
8
 71
3
 72
8
 73
4
 74
0
 40
0
 40
0
 40
0
 40
0
 40
1
 40
1
 40
1
 40
1
 10
166.975565
 20
0.143603
 30
0.0
 10
167.346846
 20
0.357963
 30
0.0
 10
167.804284
 20
0.357963
 30
0.0
 10
168.175565
 20
0.143603
 30
0.0
  0
SPLINE
  5
1a5
100
AcDbEntity
  8
0
 62
7
100
AcDbSpline
 70
8
 71
3
 72
8
 73
4
 74
0
 40
0
 40
0
 40
0
 40
0
 40
1
 40
1
 40
1
 40
1
 10
168.175565
 20
0.143603
 30
0.0
 10
168.546846
 20
-0.070756
 30
0.0
 10
168.775565
 20
-0.466909
 30
0.0
 10
168.775565
 20
-0.895627
 30
0.0
  0
LWPOLYLINE
  5
1a6
100
AcDbEntity
  8
0
 62
7
100
AcDbPolyline
 90
1
 70
1
 10
98.775706
 20
-0.895627
 30
0.0
  0
SPLINE
  5
1a7
100
AcDbEntity
  8
0
 62
7
100
AcDbSpline
 70
8
 71
3
 72
8
 73
4
 74
0
 40
0
 40
0
 40
0
 40
0
 40
1
 40
1
 40
1
 40
1
 10
203.775495
 20
-0.895627
 30
0.0
 10
203.775495
 20
-1.324346
 30
0.0
 10
203.546776
 20
-1.720499
 30
0.0
 10
203.175495
 20
-1.934858
 30
0.0
  0
SPLINE
  5
1a8
100
AcDbEntity
  8
0
 62
7
100
AcDbSpline
 70
8
 71
3
 72
8
 73
4
 74
0
 40
0
 40
0
 40
0
 40
0
 40
1
 40
1
 40
1
 40
1
 10
203.175495
 20
-1.934858
 30
0.0
 10
202.804213
 20
-2.149217
 30
0.0
 10
202.346776
 20
-2.149217
 30
0.0
 10
201.975494
 20
-1.934858
 30
0.0
  0
SPLINE
  5
1a9
100
AcDbEntity
  8
0
 62
7
100
AcDbSpline
 70
8
 71
3
 72
8
 73
4
 74
0
 40
0
 40
0
 40
0
 40
0
 40
1
 40
1
 40
1
 40
1
 10
201.975494
 20
-1.934858
 30
0.0
 10
201.604213
 20
-1.720499
 30
0.0
 10
201.375494
 20
-1.324346
 30
0.0
 10
201.375494
 20
-0.895627
 30
0.0
  0
SPLINE
  5
1aa
100
AcDbEntity
  8
0
 62
7
100
AcDbSpline
 70
8
 71
3
 72
8
 73
4
 74
0
 40
0
 40
0
 40
0
 40
0
 40
1
 40
1
 40
1
 40
1
 10
201.375494
 20
-0.895627
 30
0.0
 10
201.375494
 20
-0.466909
 30
0.0
 10
201.604213
 20
-0.070756
 30
0.0
 10
201.975494
 20
0.143603
 30
0.0
  0
SPLINE
  5
1ab
100
AcDbEntity
  8
0
 62
7
100
AcDbSpline
 70
8
 71
3
 72
8
 73
4
 74
0
 40
0
 40
0
 40
0
 40
0
 40
1
 40
1
 40
1
 40
1
 10
201.975494
 20
0.143603
 30
0.0
 10
202.346776
 20
0.357963
 30
0.0
 10
202.804213
 20
0.357963
 30
0.0
 10
203.175495
 20
0.143603
 30
0.0
  0
SPLINE
  5
1ac
100
AcDbEntity
  8
0
 62
7
100
AcDbSpline
 70
8
 71
3
 72
8
 73
4
 74
0
 40
0
 40
0
 40
0
 40
0
 40
1
 40
1
 40
1
 40
1
 10
203.175495
 20
0.143603
 30
0.0
 10
203.546776
 20
-0.070756
 30
0.0
 10
203.775495
 20
-0.466909
 30
0.0
 10
203.775495
 20
-0.895627
 30
0.0
  0
LWPOLYLINE
  5
1ad
100
AcDbEntity
  8
0
 62
7
100
AcDbPolyline
 90
1
 70
1
 10
168.775565
 20
-0.895627
 30
0.0
  0
SPLINE
  5
1ae
100
AcDbEntity
  8
0
 62
7
100
AcDbSpline
 70
8
 71
3
 72
8
 73
4
 74
0
 40
0
 40
0
 40
0
 40
0
 40
1
 40
1
 40
1
 40
1
 10
283.776345
 20
-0.895627
 30
0.0
 10
283.776345
 20
-1.324346
 30
0.0
 10
283.547626
 20
-1.720499
 30
0.0
 10
283.176345
 20
-1.934858
 30
0.0
  0
SPLINE
  5
1af
100
AcDbEntity
  8
0
 62
7
100
AcDbSpline
 70
8
 71
3
 72
8
 73
4
 74
0
 40
0
 40
0
 40
0
 40
0
 40
1
 40
1
 40
1
 40
1
 10
283.176345
 20
-1.934858
 30
0.0
 10
282.805063
 20
-2.149217
 30
0.0
 10
282.347626
 20
-2.149217
 30
0.0
 10
281.976345
 20
-1.934858
 30
0.0
  0
SPLINE
  5
1b0
100
AcDbEntity
  8
0
 62
7
100
AcDbSpline
 70
8
 71
3
 72
8
 73
4
 74
0
 40
0
 40
0
 40
0
 40
0
 40
1
 40
1
 40
1
 40
1
 10
281.976345
 20
-1.934858
 30
0.0
 10
281.605063
 20
-1.720499
 30
0.0
 10
281.376345
 20
-1.324346
 30
0.0
 10
281.376345
 20
-0.895627
 30
0.0
  0
SPLINE
  5
1b1
100
AcDbEntity
  8
0
 62
7
100
AcDbSpline
 70
8
 71
3
 72
8
 73
4
 74
0
 40
0
 40
0
 40
0
 40
0
 40
1
 40
1
 40
1
 40
1
 10
281.376345
 20
-0.895627
 30
0.0
 10
281.376345
 20
-0.466909
 30
0.0
 10
281.605063
 20
-0.070756
 30
0.0
 10
281.976345
 20
0.143603
 30
0.0
  0
SPLINE
  5
1b2
100
AcDbEntity
  8
0
 62
7
100
AcDbSpline
 70
8
 71
3
 72
8
 73
4
 74
0
 40
0
 40
0
 40
0
 40
0
 40
1
 40
1
 40
1
 40
1
 10
281.976345
 20
0.143603
 30
0.0
 10
282.347626
 20
0.357963
 30
0.0
 10
282.805063
 20
0.357963
 30
0.0
 10
283.176345
 20
0.143603
 30
0.0
  0
SPLINE
  5
1b3
100
AcDbEntity
  8
0
 62
7
100
AcDbSpline
 70
8
 71
3
 72
8
 73
4
 74
0
 40
0
 40
0
 40
0
 40
0
 40
1
 40
1
 40
1
 40
1
 10
283.176345
 20
0.143603
 30
0.0
 10
283.547626
 20
-0.070756
 30
0.0
 10
283.776345
 20
-0.466909
 30
0.0
 10
283.776345
 20
-0.895627
 30
0.0
  0
LWPOLYLINE
  5
1b4
100
AcDbEntity
  8
0
 62
7
100
AcDbPolyline
 90
1
 70
1
 10
203.775495
 20
-0.895627
 30
0.0
  0
SPLINE
  5
1b5
100
AcDbEntity
  8
0
 62
7
100
AcDbSpline
 70
8
 71
3
 72
8
 73
4
 74
0
 40
0
 40
0
 40
0
 40
0
 40
1
 40
1
 40
1
 40
1
 10
353.776204
 20
-0.895627
 30
0.0
 10
353.776204
 20
-1.558369
 30
0.0
 10
353.238946
 20
-2.095627
 30
0.0
 10
352.576204
 20
-2.095627
 30
0.0
  0
SPLINE
  5
1b6
100
AcDbEntity
  8
0
 62
7
100
AcDbSpline
 70
8
 71
3
 72
8
 73
4
 74
0
 40
0
 40
0
 40
0
 40
0
 40
1
 40
1
 40
1
 40
1
 10
352.576204
 20
-2.095627
 30
0.0
 10
351.913462
 20
-2.095627
 30
0.0
 10
351.376204
 20
-1.558369
 30
0.0
 10
351.376204
 20
-0.895627
 30
0.0
  0
SPLINE
  5
1b7
100
AcDbEntity
  8
0
 62
7
100
AcDbSpline
 70
8
 71
3
 72
8
 73
4
 74
0
 40
0
 40
0
 40
0
 40
0
 40
1
 40
1
 40
1
 40
1
 10
351.376204
 20
-0.895627
 30
0.0
 10
351.376204
 20
-0.466909
 30
0.0
 10
351.604923
 20
-0.070756
 30
0.0
 10
351.976204
 20
0.143603
 30
0.0
  0
SPLINE
  5
1b8
100
AcDbEntity
  8
0
 62
7
100
AcDbSpline
 70
8
 71
3
 72
8
 73
4
 74
0
 40
0
 40
0
 40
0
 40
0
 40
1
 40
1
 40
1
 40
1
 10
351.976204
 20
0.143603
 30
0.0
 10
352.347485
 20
0.357963
 30
0.0
 10
352.804923
 20
0.357963
 30
0.0
 10
353.176204
 20
0.143603
 30
0.0
  0
SPLINE
  5
1b9
100
AcDbEntity
  8
0
 62
7
100
AcDbSpline
 70
8
 71
3
 72
8
 73
4
 74
0
 40
0
 40
0
 40
0
 40
0
 40
1
 40
1
 40
1
 40
1
 10
353.176204
 20
0.143603
 30
0.0
 10
353.547485
 20
-0.070756
 30
0.0
 10
353.776204
 20
-0.466909
 30
0.0
 10
353.776204
 20
-0.895627
 30
0.0
  0
LWPOLYLINE
  5
1ba
100
AcDbEntity
  8
0
 62
7
100
AcDbPolyline
 90
1
 70
1
 10
283.776345
 20
-0.895627
 30
0.0
  0
SPLINE
  5
1bb
100
AcDbEntity
  8
0
 62
7
100
AcDbSpline
 70
8
 71
3
 72
8
 73
4
 74
0
 40
0
 40
0
 40
0
 40
0
 40
1
 40
1
 40
1
 40
1
 10
378.774884
 20
-20.895638
 30
0.0
 10
378.774884
 20
-21.324356
 30
0.0
 10
378.546165
 20
-21.720509
 30
0.0
 10
378.174884
 20
-21.934868
 30
0.0
  0
SPLINE
  5
1bc
100
AcDbEntity
  8
0
 62
7
100
AcDbSpline
 70
8
 71
3
 72
8
 73
4
 74
0
 40
0
 40
0
 40
0
 40
0
 40
1
 40
1
 40
1
 40
1
 10
378.174884
 20
-21.934868
 30
0.0
 10
377.803603
 20
-22.149228
 30
0.0
 10
377.346165
 20
-22.149228
 30
0.0
 10
376.974884
 20
-21.934868
 30
0.0
  0
SPLINE
  5
1bd
100
AcDbEntity
  8
0
 62
7
100
AcDbSpline
 70
8
 71
3
 72
8
 73
4
 74
0
 40
0
 40
0
 40
0
 40
0
 40
1
 40
1
 40
1
 40
1
 10
376.974884
 20
-21.934868
 30
0.0
 10
376.603602
 20
-21.720509
 30
0.0
 10
376.374884
 20
-21.324356
 30
0.0
 10
376.374884
 20
-20.895638
 30
0.0
  0
SPLINE
  5
1be
100
AcDbEntity
  8
0
 62
7
100
AcDbSpline
 70
8
 71
3
 72
8
 73
4
 74
0
 40
0
 40
0
 40
0
 40
0
 40
1
 40
1
 40
1
 40
1
 10
376.374884
 20
-20.895638
 30
0.0
 10
376.374884
 20
-20.466919
 30
0.0
 10
376.603602
 20
-20.070766
 30
0.0
 10
376.974884
 20
-19.856407
 30
0.0
  0
SPLINE
  5
1bf
100
AcDbEntity
  8
0
 62
7
100
AcDbSpline
 70
8
 71
3
 72
8
 73
4
 74
0
 40
0
 40
0
 40
0
 40
0
 40
1
 40
1
 40
1
 40
1
 10
376.974884
 20
-19.856407
 30
0.0
 10
377.346165
 20
-19.642048
 30
0.0
 10
377.803603
 20
-19.642048
 30
0.0
 10
378.174884
 20
-19.856407
 30
0.0
  0
SPLINE
  5
1c0
100
AcDbEntity
  8
0
 62
7
100
AcDbSpline
 70
8
 71
3
 72
8
 73
4
 74
0
 40
0
 40
0
 40
0
 40
0
 40
1
 40
1
 40
1
 40
1
 10
378.174884
 20
-19.856407
 30
0.0
 10
378.546165
 20
-20.070766
 30
0.0
 10
378.774884
 20
-20.466919
 30
0.0
 10
378.774884
 20
-20.895638
 30
0.0
  0
LWPOLYLINE
  5
1c1
100
AcDbEntity
  8
0
 62
7
100
AcDbPolyline
 90
1
 70
1
 10
353.776204
 20
-0.895627
 30
0.0
  0
SPLINE
  5
1c2
100
AcDbEntity
  8
0
 62
7
100
AcDbSpline
 70
8
 71
3
 72
8
 73
4
 74
0
 40
0
 40
0
 40
0
 40
0
 40
1
 40
1
 40
1
 40
1
 10
358.774924
 20
-130.895694
 30
0.0
 10
358.774924
 20
-131.324413
 30
0.0
 10
358.546205
 20
-131.720565
 30
0.0
 10
358.174924
 20
-131.934925
 30
0.0
  0
SPLINE
  5
1c3
100
AcDbEntity
  8
0
 62
7
100
AcDbSpline
 70
8
 71
3
 72
8
 73
4
 74
0
 40
0
 40
0
 40
0
 40
0
 40
1
 40
1
 40
1
 40
1
 10
358.174924
 20
-131.934925
 30
0.0
 10
357.803643
 20
-132.149284
 30
0.0
 10
357.346205
 20
-132.149284
 30
0.0
 10
356.974924
 20
-131.934925
 30
0.0
  0
SPLINE
  5
1c4
100
AcDbEntity
  8
0
 62
7
100
AcDbSpline
 70
8
 71
3
 72
8
 73
4
 74
0
 40
0
 40
0
 40
0
 40
0
 40
1
 40
1
 40
1
 40
1
 10
356.974924
 20
-131.934925
 30
0.0
 10
356.603643
 20
-131.720565
 30
0.0
 10
356.374924
 20
-131.324413
 30
0.0
 10
356.374924
 20
-130.895694
 30
0.0
  0
SPLINE
  5
1c5
100
AcDbEntity
  8
0
 62
7
100
AcDbSpline
 70
8
 71
3
 72
8
 73
4
 74
0
 40
0
 40
0
 40
0
 40
0
 40
1
 40
1
 40
1
 40
1
 10
356.374924
 20
-130.895694
 30
0.0
 10
356.374924
 20
-130.466975
 30
0.0
 10
356.603643
 20
-130.070823
 30
0.0
 10
356.974924
 20
-129.856463
 30
0.0
  0
SPLINE
  5
1c6
100
AcDbEntity
  8
0
 62
7
100
AcDbSpline
 70
8
 71
3
 72
8
 73
4
 74
0
 40
0
 40
0
 40
0
 40
0
 40
1
 40
1
 40
1
 40
1
 10
356.974924
 20
-129.856463
 30
0.0
 10
357.346205
 20
-129.642104
 30
0.0
 10
357.803643
 20
-129.642104
 30
0.0
 10
358.174924
 20
-129.856463
 30
0.0
  0
SPLINE
  5
1c7
100
AcDbEntity
  8
0
 62
7
100
AcDbSpline
 70
8
 71
3
 72
8
 73
4
 74
0
 40
0
 40
0
 40
0
 40
0
 40
1
 40
1
 40
1
 40
1
 10
358.174924
 20
-129.856463
 30
0.0
 10
358.546205
 20
-130.070823
 30
0.0
 10
358.774924
 20
-130.466975
 30
0.0
 10
358.774924
 20
-130.895694
 30
0.0
  0
LWPOLYLINE
  5
1c8
100
AcDbEntity
  8
0
 62
7
100
AcDbPolyline
 90
1
 70
1
 10
378.774884
 20
-20.895638
 30
0.0
  0
SPLINE
  5
1c9
100
AcDbEntity
  8
0
 62
7
100
AcDbSpline
 70
8
 71
3
 72
8
 73
4
 74
0
 40
0
 40
0
 40
0
 40
0
 40
1
 40
1
 40
1
 40
1
 10
378.774884
 20
-110.895734
 30
0.0
 10
378.774884
 20
-111.324453
 30
0.0
 10
378.546165
 20
-111.720605
 30
0.0
 10
378.174884
 20
-111.934965
 30
0.0
  0
SPLINE
  5
1ca
100
AcDbEntity
  8
0
 62
7
100
AcDbSpline
 70
8
 71
3
 72
8
 73
4
 74
0
 40
0
 40
0
 40
0
 40
0
 40
1
 40
1
 40
1
 40
1
 10
378.174884
 20
-111.934965
 30
0.0
 10
377.803603
 20
-112.149324
 30
0.0
 10
377.346165
 20
-112.149324
 30
0.0
 10
376.974884
 20
-111.934965
 30
0.0
  0
SPLINE
  5
1cb
100
AcDbEntity
  8
0
 62
7
100
AcDbSpline
 70
8
 71
3
 72
8
 73
4
 74
0
 40
0
 40
0
 40
0
 40
0
 40
1
 40
1
 40
1
 40
1
 10
376.974884
 20
-111.934965
 30
0.0
 10
376.603602
 20
-111.720605
 30
0.0
 10
376.374884
 20
-111.324453
 30
0.0
 10
376.374884
 20
-110.895734
 30
0.0
  0
SPLINE
  5
1cc
100
AcDbEntity
  8
0
 62
7
100
AcDbSpline
 70
8
 71
3
 72
8
 73
4
 74
0
 40
0
 40
0
 40
0
 40
0
 40
1
 40
1
 40
1
 40
1
 10
376.374884
 20
-110.895734
 30
0.0
 10
376.374884
 20
-110.467015
 30
0.0
 10
376.603602
 20
-110.070863
 30
0.0
 10
376.974884
 20
-109.856504
 30
0.0
  0
SPLINE
  5
1cd
100
AcDbEntity
  8
0
 62
7
100
AcDbSpline
 70
8
 71
3
 72
8
 73
4
 74
0
 40
0
 40
0
 40
0
 40
0
 40
1
 40
1
 40
1
 40
1
 10
376.974884
 20
-109.856504
 30
0.0
 10
377.346165
 20
-109.642144
 30
0.0
 10
377.803603
 20
-109.642144
 30
0.0
 10
378.174884
 20
-109.856504
 30
0.0
  0
SPLINE
  5
1ce
100
AcDbEntity
  8
0
 62
7
100
AcDbSpline
 70
8
 71
3
 72
8
 73
4
 74
0
 40
0
 40
0
 40
0
 40
0
 40
1
 40
1
 40
1
 40
1
 10
378.174884
 20
-109.856504
 30
0.0
 10
378.546165
 20
-110.070863
 30
0.0
 10
378.774884
 20
-110.467015
 30
0.0
 10
378.774884
 20
-110.895734
 30
0.0
  0
LWPOLYLINE
  5
1cf
100
AcDbEntity
  8
0
 62
7
100
AcDbPolyline
 90
1
 70
1
 10
358.774924
 20
-130.895694
 30
0.0
  0
LWPOLYLINE
  5
1d0
100
AcDbEntity
  8
0
 62
7
100
AcDbPolyline
 90
1
 70
1
 10
378.774884
 20
-110.895734
 30
0.0
  0
ENDSEC
  0
SECTION
  2
OBJECTS
  0
DICTIONARY
  5
C
330
0
100
AcDbDictionary
  3
ACAD_GROUP
350
D
  3
ACAD_MLINESTYLE
350
17
  0
DICTIONARY
  5
D
330
C
100
AcDbDictionary
  0
DICTIONARY
  5
1A
330
C
100
AcDbDictionary
  0
DICTIONARY
  5
17
330
C
100
AcDbDictionary
  3
STANDARD
350
18
  0
DICTIONARY
  5
19
330
C
100
AcDbDictionary
  0
ENDSEC
  0
EOF
