  0
SECTION
  2
HEADER
  9
$ACADVER
  1
AC1014
  9
$HANDSEED
  5
FFFF
  9
$MEASUREMENT
 70
     1
  0
ENDSEC
  0
SECTION
  2
TABLES
  0
TABLE
  2
VPORT
  5
8
330
0
100
AcDbSymbolTable
 70
     4
  0
VPORT
  5
2E
330
8
100
AcDbSymbolTableRecord
100
AcDbViewportTableRecord
  2
*ACTIVE
 70
     0
 10
0.0
 20
0.0
 11
1.0
 21
1.0
 12
210.0
 22
148.5
 13
0.0
 23
0.0
 14
10.0
 24
10.0
 15
10.0
 25
10.0
 16
0.0
 26
0.0
 36
1.0
 17
0.0
 27
0.0
 37
0.0
 40
341.0
 41
1.24
 42
50.0
 43
0.0
 44
0.0
 50
0.0
 51
0.0
 71
     0
 72
   100
 73
     1
 74
     3
 75
     0
 76
     0
 77
     0
 78
     0
  0
ENDTAB
  0
TABLE
  2
LTYPE
  5
5
330
0
100
AcDbSymbolTable
 70
     1
  0
LTYPE
  5
14
330
5
100
AcDbSymbolTableRecord
100
AcDbLinetypeTableRecord
  2
BYBLOCK
 70
     0
  3

 72
    65
 73
     0
 40
0.0
  0
LTYPE
  5
15
330
5
100
AcDbSymbolTableRecord
100
AcDbLinetypeTableRecord
  2
BYLAYER
 70
     0
  3

 72
    65
 73
     0
 40
0.0
  0
LTYPE
  5
16
330
5
100
AcDbSymbolTableRecord
100
AcDbLinetypeTableRecord
  2
CONTINUOUS
 70
     0
  3
Solid line
 72
    65
 73
     0
 40
0.0
  0
ENDTAB
  0
TABLE
  2
LAYER
  5
2
100
AcDbSymbolTable
 70
1
  0
LAYER
  5
50
100
AcDbSymbolTableRecord
100
AcDbLayerTableRecord
  2
0
 70
0
  6
CONTINUOUS
  0
ENDTAB
  0
TABLE
  2
STYLE
  5
3
330
0
100
AcDbSymbolTable
 70
     1
  0
STYLE
  5
11
330
3
100
AcDbSymbolTableRecord
100
AcDbTextStyleTableRecord
  2
STANDARD
 70
     0
 40
0.0
 41
1.0
 50
0.0
 71
     0
 42
2.5
  3
txt
  4

  0
ENDTAB
  0
TABLE
  2
VIEW
  5
6
330
0
100
AcDbSymbolTable
 70
     0
  0
ENDTAB
  0
TABLE
  2
UCS
  5
7
330
0
100
AcDbSymbolTable
 70
     0
  0
ENDTAB
  0
TABLE
  2
APPID
  5
9
330
0
100
AcDbSymbolTable
 70
     2
  0
APPID
  5
12
330
9
100
AcDbSymbolTableRecord
100
AcDbRegAppTableRecord
  2
ACAD
 70
     0
  0
ENDTAB
  0
TABLE
  2
DIMSTYLE
  5
A
330
0
100
AcDbSymbolTable
 70
     1
  0
DIMSTYLE
105
27
330
A
100
AcDbSymbolTableRecord
100
AcDbDimStyleTableRecord
  2
ISO-25
 70
     0
  3

  4

  5

  6

  7

 40
1.0
 41
2.5
 42
0.625
 43
3.75
 44
1.25
 45
0.0
 46
0.0
 47
0.0
 48
0.0
140
2.5
141
2.5
142
0.0
143
0.03937007874016
144
1.0
145
0.0
146
1.0
147
0.625
 71
     0
 72
     0
 73
     0
 74
     0
 75
     0
 76
     0
 77
     1
 78
     8
170
     0
171
     3
172
     1
173
     0
174
     0
175
     0
176
     0
177
     0
178
     0
270
     2
271
     2
272
     2
273
     2
274
     3
340
11
275
     0
280
     0
281
     0
282
     0
283
     0
284
     8
285
     0
286
     0
287
     3
288
     0
  0
ENDTAB
  0
TABLE
  2
BLOCK_RECORD
  5
1
330
0
100
AcDbSymbolTable
 70
     1
  0
BLOCK_RECORD
  5
1F
330
1
100
AcDbSymbolTableRecord
100
AcDbBlockTableRecord
  2
*MODEL_SPACE
  0
BLOCK_RECORD
  5
1B
330
1
100
AcDbSymbolTableRecord
100
AcDbBlockTableRecord
  2
*PAPER_SPACE
  0
ENDTAB
  0
ENDSEC
  0
SECTION
  2
BLOCKS
  0
BLOCK
  5
20
330
1F
100
AcDbEntity
  8
0
100
AcDbBlockBegin
  2
*MODEL_SPACE
 70
     0
 10
0.0
 20
0.0
 30
0.0
  3
*MODEL_SPACE
  1

  0
ENDBLK
  5
21
330
1F
100
AcDbEntity
  8
0
100
AcDbBlockEnd
  0
BLOCK
  5
1C
330
1B
100
AcDbEntity
 67
     1
  8
0
100
AcDbBlockBegin
  2
*PAPER_SPACE
  1

  0
ENDBLK
  5
1D
330
1B
100
AcDbEntity
 67
     1
  8
0
100
AcDbBlockEnd
  0
ENDSEC
  0
SECTION
  2
ENTITIES
  0
LWPOLYLINE
  5
100
100
AcDbEntity
  8
0
 62
7
100
AcDbPolyline
 90
2
 70
0
 10
0.075007
 20
-128.393288
 30
0.0
 10
0.075007
 20
-3.394811
 30
0.0
  0
LWPOLYLINE
  5
101
100
AcDbEntity
  8
0
 62
7
100
AcDbPolyline
 90
2
 70
0
 10
110.074785
 20
-133.394548
 30
0.0
 10
5.076267
 20
-133.394548
 30
0.0
  0
LWPOLYLINE
  5
102
100
AcDbEntity
  8
0
 62
7
100
AcDbPolyline
 90
2
 70
0
 10
135.076004
 20
-173.394467
 30
0.0
 10
110.074785
 20
-133.394548
 30
0.0
  0
LWPOLYLINE
  5
103
100
AcDbEntity
  8
0
 62
7
100
AcDbPolyline
 90
2
 70
0
 10
235.075802
 20
-173.394467
 30
0.0
 10
135.076004
 20
-173.394467
 30
0.0
  0
LWPOLYLINE
  5
104
100
AcDbEntity
  8
0
 62
7
100
AcDbPolyline
 90
2
 70
0
 10
260.074481
 20
-133.394548
 30
0.0
 10
235.075802
 20
-173.394467
 30
0.0
  0
LWPOLYLINE
  5
105
100
AcDbEntity
  8
0
 62
7
100
AcDbPolyline
 90
2
 70
0
 10
375.075518
 20
-133.394548
 30
0.0
 10
260.074481
 20
-133.394548
 30
0.0
  0
LWPOLYLINE
  5
106
100
AcDbEntity
  8
0
 62
7
100
AcDbPolyline
 90
2
 70
0
 10
380.076778
 20
-3.394811
 30
0.0
 10
380.076778
 20
-128.393288
 30
0.0
  0
SPLINE
  5
107
100
AcDbEntity
  8
0
 62
7
100
AcDbSpline
 70
8
 71
3
 72
8
 73
4
 74
0
 40
0
 40
0
 40
0
 40
0
 40
1
 40
1
 40
1
 40
1
 10
380.076778
 20
-3.395573
 30
0.0
 10
380.076778
 20
-0.634651
 30
0.0
 10
377.838981
 20
1.603716
 30
0.0
 10
375.078058
 20
1.604417
 30
0.0
  0
SPLINE
  5
108
100
AcDbEntity
  8
0
 62
7
100
AcDbSpline
 70
8
 71
3
 72
8
 73
4
 74
0
 40
0
 40
0
 40
0
 40
0
 40
1
 40
1
 40
1
 40
1
 10
375.078058
 20
-133.395564
 30
0.0
 10
377.838981
 20
-133.394863
 30
0.0
 10
380.076778
 20
-131.156496
 30
0.0
 10
380.076778
 20
-128.395574
 30
0.0
  0
SPLINE
  5
109
100
AcDbEntity
  8
0
 62
7
100
AcDbSpline
 70
8
 71
3
 72
8
 73
4
 74
0
 40
0
 40
0
 40
0
 40
0
 40
1
 40
1
 40
1
 40
1
 10
0.076938
 20
-128.395574
 30
0.0
 10
0.076938
 20
-129.721658
 30
0.0
 10
0.603724
 20
-130.993429
 30
0.0
 10
1.541410
 20
-131.931110
 30
0.0
  0
SPLINE
  5
10a
100
AcDbEntity
  8
0
 62
7
100
AcDbSpline
 70
8
 71
3
 72
8
 73
4
 74
0
 40
0
 40
0
 40
0
 40
0
 40
1
 40
1
 40
1
 40
1
 10
1.541410
 20
-131.931110
 30
0.0
 10
2.479095
 20
-132.868790
 30
0.0
 10
3.750869
 20
-133.395571
 30
0.0
 10
5.076953
 20
-133.395564
 30
0.0
  0
SPLINE
  5
10b
100
AcDbEntity
  8
0
 62
7
100
AcDbSpline
 70
8
 71
3
 72
8
 73
4
 74
0
 40
0
 40
0
 40
0
 40
0
 40
1
 40
1
 40
1
 40
1
 10
5.076953
 20
1.604417
 30
0.0
 10
3.750869
 20
1.604424
 30
0.0
 10
2.479095
 20
1.077643
 30
0.0
 10
1.541410
 20
0.139963
 30
0.0
  0
SPLINE
  5
10c
100
AcDbEntity
  8
0
 62
7
100
AcDbSpline
 70
8
 71
3
 72
8
 73
4
 74
0
 40
0
 40
0
 40
0
 40
0
 40
1
 40
1
 40
1
 40
1
 10
1.541410
 20
0.139963
 30
0.0
 10
0.603724
 20
-0.797718
 30
0.0
 10
0.076938
 20
-2.069489
 30
0.0
 10
0.076938
 20
-3.395573
 30
0.0
  0
SPLINE
  5
10d
100
AcDbEntity
  8
0
 62
7
100
AcDbSpline
 70
8
 71
3
 72
8
 73
4
 74
0
 40
0
 40
0
 40
0
 40
0
 40
1
 40
1
 40
1
 40
1
 10
308.777560
 20
-115.895477
 30
0.0
 10
308.777560
 20
-116.324196
 30
0.0
 10
308.548841
 20
-116.720349
 30
0.0
 10
308.177560
 20
-116.934708
 30
0.0
  0
SPLINE
  5
10e
100
AcDbEntity
  8
0
 62
7
100
AcDbSpline
 70
8
 71
3
 72
8
 73
4
 74
0
 40
0
 40
0
 40
0
 40
0
 40
1
 40
1
 40
1
 40
1
 10
308.177560
 20
-116.934708
 30
0.0
 10
307.806279
 20
-117.149067
 30
0.0
 10
307.348841
 20
-117.149067
 30
0.0
 10
306.977560
 20
-116.934708
 30
0.0
  0
SPLINE
  5
10f
100
AcDbEntity
  8
0
 62
7
100
AcDbSpline
 70
8
 71
3
 72
8
 73
4
 74
0
 40
0
 40
0
 40
0
 40
0
 40
1
 40
1
 40
1
 40
1
 10
306.977560
 20
-116.934708
 30
0.0
 10
306.606279
 20
-116.720349
 30
0.0
 10
306.377560
 20
-116.324196
 30
0.0
 10
306.377560
 20
-115.895477
 30
0.0
  0
SPLINE
  5
110
100
AcDbEntity
  8
0
 62
7
100
AcDbSpline
 70
8
 71
3
 72
8
 73
4
 74
0
 40
0
 40
0
 40
0
 40
0
 40
1
 40
1
 40
1
 40
1
 10
306.377560
 20
-115.895477
 30
0.0
 10
306.377560
 20
-115.466759
 30
0.0
 10
306.606279
 20
-115.070606
 30
0.0
 10
306.977560
 20
-114.856247
 30
0.0
  0
SPLINE
  5
111
100
AcDbEntity
  8
0
 62
7
100
AcDbSpline
 70
8
 71
3
 72
8
 73
4
 74
0
 40
0
 40
0
 40
0
 40
0
 40
1
 40
1
 40
1
 40
1
 10
306.977560
 20
-114.856247
 30
0.0
 10
307.348841
 20
-114.641887
 30
0.0
 10
307.806279
 20
-114.641887
 30
0.0
 10
308.177560
 20
-114.856247
 30
0.0
  0
SPLINE
  5
112
100
AcDbEntity
  8
0
 62
7
100
AcDbSpline
 70
8
 71
3
 72
8
 73
4
 74
0
 40
0
 40
0
 40
0
 40
0
 40
1
 40
1
 40
1
 40
1
 10
308.177560
 20
-114.856247
 30
0.0
 10
308.548841
 20
-115.070606
 30
0.0
 10
308.777560
 20
-115.466759
 30
0.0
 10
308.777560
 20
-115.895477
 30
0.0
  0
LWPOLYLINE
  5
113
100
AcDbEntity
  8
0
 62
7
100
AcDbPolyline
 90
2
 70
0
 10
5.076267
 20
1.606449
 30
0.0
 10
375.075518
 20
1.606449
 30
0.0
  0
SPLINE
  5
114
100
AcDbEntity
  8
0
 62
7
100
AcDbSpline
 70
8
 71
3
 72
8
 73
4
 74
0
 40
0
 40
0
 40
0
 40
0
 40
1
 40
1
 40
1
 40
1
 10
186.276914
 20
-143.395539
 30
0.0
 10
186.276914
 20
-143.824257
 30
0.0
 10
186.048195
 20
-144.220410
 30
0.0
 10
185.676914
 20
-144.434769
 30
0.0
  0
SPLINE
  5
115
100
AcDbEntity
  8
0
 62
7
100
AcDbSpline
 70
8
 71
3
 72
8
 73
4
 74
0
 40
0
 40
0
 40
0
 40
0
 40
1
 40
1
 40
1
 40
1
 10
185.676914
 20
-144.434769
 30
0.0
 10
185.305633
 20
-144.649128
 30
0.0
 10
184.848195
 20
-144.649128
 30
0.0
 10
184.476914
 20
-144.434769
 30
0.0
  0
SPLINE
  5
116
100
AcDbEntity
  8
0
 62
7
100
AcDbSpline
 70
8
 71
3
 72
8
 73
4
 74
0
 40
0
 40
0
 40
0
 40
0
 40
1
 40
1
 40
1
 40
1
 10
184.476914
 20
-144.434769
 30
0.0
 10
184.105632
 20
-144.220410
 30
0.0
 10
183.876914
 20
-143.824257
 30
0.0
 10
183.876914
 20
-143.395539
 30
0.0
  0
SPLINE
  5
117
100
AcDbEntity
  8
0
 62
7
100
AcDbSpline
 70
8
 71
3
 72
8
 73
4
 74
0
 40
0
 40
0
 40
0
 40
0
 40
1
 40
1
 40
1
 40
1
 10
183.876914
 20
-143.395539
 30
0.0
 10
183.876914
 20
-142.966820
 30
0.0
 10
184.105632
 20
-142.570667
 30
0.0
 10
184.476914
 20
-142.356308
 30
0.0
  0
SPLINE
  5
118
100
AcDbEntity
  8
0
 62
7
100
AcDbSpline
 70
8
 71
3
 72
8
 73
4
 74
0
 40
0
 40
0
 40
0
 40
0
 40
1
 40
1
 40
1
 40
1
 10
184.476914
 20
-142.356308
 30
0.0
 10
184.848195
 20
-142.141949
 30
0.0
 10
185.305633
 20
-142.141949
 30
0.0
 10
185.676914
 20
-142.356308
 30
0.0
  0
SPLINE
  5
119
100
AcDbEntity
  8
0
 62
7
100
AcDbSpline
 70
8
 71
3
 72
8
 73
4
 74
0
 40
0
 40
0
 40
0
 40
0
 40
1
 40
1
 40
1
 40
1
 10
185.676914
 20
-142.356308
 30
0.0
 10
186.048195
 20
-142.570667
 30
0.0
 10
186.276914
 20
-142.966820
 30
0.0
 10
186.276914
 20
-143.395539
 30
0.0
  0
LWPOLYLINE
  5
11a
100
AcDbEntity
  8
0
 62
7
100
AcDbPolyline
 90
1
 70
1
 10
308.777560
 20
-115.895477
 30
0.0
  0
SPLINE
  5
11b
100
AcDbEntity
  8
0
 62
7
100
AcDbSpline
 70
8
 71
3
 72
8
 73
4
 74
0
 40
0
 40
0
 40
0
 40
0
 40
1
 40
1
 40
1
 40
1
 10
108.776954
 20
-115.895477
 30
0.0
 10
108.776954
 20
-116.324196
 30
0.0
 10
108.548235
 20
-116.720349
 30
0.0
 10
108.176954
 20
-116.934708
 30
0.0
  0
SPLINE
  5
11c
100
AcDbEntity
  8
0
 62
7
100
AcDbSpline
 70
8
 71
3
 72
8
 73
4
 74
0
 40
0
 40
0
 40
0
 40
0
 40
1
 40
1
 40
1
 40
1
 10
108.176954
 20
-116.934708
 30
0.0
 10
107.805673
 20
-117.149067
 30
0.0
 10
107.348235
 20
-117.149067
 30
0.0
 10
106.976954
 20
-116.934708
 30
0.0
  0
SPLINE
  5
11d
100
AcDbEntity
  8
0
 62
7
100
AcDbSpline
 70
8
 71
3
 72
8
 73
4
 74
0
 40
0
 40
0
 40
0
 40
0
 40
1
 40
1
 40
1
 40
1
 10
106.976954
 20
-116.934708
 30
0.0
 10
106.605673
 20
-116.720349
 30
0.0
 10
106.376954
 20
-116.324196
 30
0.0
 10
106.376954
 20
-115.895477
 30
0.0
  0
SPLINE
  5
11e
100
AcDbEntity
  8
0
 62
7
100
AcDbSpline
 70
8
 71
3
 72
8
 73
4
 74
0
 40
0
 40
0
 40
0
 40
0
 40
1
 40
1
 40
1
 40
1
 10
106.376954
 20
-115.895477
 30
0.0
 10
106.376954
 20
-115.466759
 30
0.0
 10
106.605673
 20
-115.070606
 30
0.0
 10
106.976954
 20
-114.856247
 30
0.0
  0
SPLINE
  5
11f
100
AcDbEntity
  8
0
 62
7
100
AcDbSpline
 70
8
 71
3
 72
8
 73
4
 74
0
 40
0
 40
0
 40
0
 40
0
 40
1
 40
1
 40
1
 40
1
 10
106.976954
 20
-114.856247
 30
0.0
 10
107.348235
 20
-114.641887
 30
0.0
 10
107.805673
 20
-114.641887
 30
0.0
 10
108.176954
 20
-114.856247
 30
0.0
  0
SPLINE
  5
120
100
AcDbEntity
  8
0
 62
7
100
AcDbSpline
 70
8
 71
3
 72
8
 73
4
 74
0
 40
0
 40
0
 40
0
 40
0
 40
1
 40
1
 40
1
 40
1
 10
108.176954
 20
-114.856247
 30
0.0
 10
108.548235
 20
-115.070606
 30
0.0
 10
108.776954
 20
-115.466759
 30
0.0
 10
108.776954
 20
-115.895477
 30
0.0
  0
LWPOLYLINE
  5
121
100
AcDbEntity
  8
0
 62
7
100
AcDbPolyline
 90
1
 70
1
 10
186.276914
 20
-143.395539
 30
0.0
  0
SPLINE
  5
122
100
AcDbEntity
  8
0
 62
7
100
AcDbSpline
 70
8
 71
3
 72
8
 73
4
 74
0
 40
0
 40
0
 40
0
 40
0
 40
1
 40
1
 40
1
 40
1
 10
18.776877
 20
-115.895477
 30
0.0
 10
18.776877
 20
-116.324196
 30
0.0
 10
18.548158
 20
-116.720349
 30
0.0
 10
18.176877
 20
-116.934708
 30
0.0
  0
SPLINE
  5
123
100
AcDbEntity
  8
0
 62
7
100
AcDbSpline
 70
8
 71
3
 72
8
 73
4
 74
0
 40
0
 40
0
 40
0
 40
0
 40
1
 40
1
 40
1
 40
1
 10
18.176877
 20
-116.934708
 30
0.0
 10
17.805596
 20
-117.149067
 30
0.0
 10
17.348158
 20
-117.149067
 30
0.0
 10
16.976877
 20
-116.934708
 30
0.0
  0
SPLINE
  5
124
100
AcDbEntity
  8
0
 62
7
100
AcDbSpline
 70
8
 71
3
 72
8
 73
4
 74
0
 40
0
 40
0
 40
0
 40
0
 40
1
 40
1
 40
1
 40
1
 10
16.976877
 20
-116.934708
 30
0.0
 10
16.605596
 20
-116.720349
 30
0.0
 10
16.376877
 20
-116.324196
 30
0.0
 10
16.376877
 20
-115.895477
 30
0.0
  0
SPLINE
  5
125
100
AcDbEntity
  8
0
 62
7
100
AcDbSpline
 70
8
 71
3
 72
8
 73
4
 74
0
 40
0
 40
0
 40
0
 40
0
 40
1
 40
1
 40
1
 40
1
 10
16.376877
 20
-115.895477
 30
0.0
 10
16.376877
 20
-115.466759
 30
0.0
 10
16.605596
 20
-115.070606
 30
0.0
 10
16.976877
 20
-114.856247
 30
0.0
  0
SPLINE
  5
126
100
AcDbEntity
  8
0
 62
7
100
AcDbSpline
 70
8
 71
3
 72
8
 73
4
 74
0
 40
0
 40
0
 40
0
 40
0
 40
1
 40
1
 40
1
 40
1
 10
16.976877
 20
-114.856247
 30
0.0
 10
17.348158
 20
-114.641887
 30
0.0
 10
17.805596
 20
-114.641887
 30
0.0
 10
18.176877
 20
-114.856247
 30
0.0
  0
SPLINE
  5
127
100
AcDbEntity
  8
0
 62
7
100
AcDbSpline
 70
8
 71
3
 72
8
 73
4
 74
0
 40
0
 40
0
 40
0
 40
0
 40
1
 40
1
 40
1
 40
1
 10
18.176877
 20
-114.856247
 30
0.0
 10
18.548158
 20
-115.070606
 30
0.0
 10
18.776877
 20
-115.466759
 30
0.0
 10
18.776877
 20
-115.895477
 30
0.0
  0
LWPOLYLINE
  5
128
100
AcDbEntity
  8
0
 62
7
100
AcDbPolyline
 90
1
 70
1
 10
108.776954
 20
-115.895477
 30
0.0
  0
SPLINE
  5
129
100
AcDbEntity
  8
0
 62
7
100
AcDbSpline
 70
8
 71
3
 72
8
 73
4
 74
0
 40
0
 40
0
 40
0
 40
0
 40
1
 40
1
 40
1
 40
1
 10
43.776827
 20
-15.895421
 30
0.0
 10
43.776827
 20
-16.324139
 30
0.0
 10
43.548108
 20
-16.720292
 30
0.0
 10
43.176827
 20
-16.934651
 30
0.0
  0
SPLINE
  5
12a
100
AcDbEntity
  8
0
 62
7
100
AcDbSpline
 70
8
 71
3
 72
8
 73
4
 74
0
 40
0
 40
0
 40
0
 40
0
 40
1
 40
1
 40
1
 40
1
 10
43.176827
 20
-16.934651
 30
0.0
 10
42.805545
 20
-17.149011
 30
0.0
 10
42.348108
 20
-17.149011
 30
0.0
 10
41.976826
 20
-16.934651
 30
0.0
  0
SPLINE
  5
12b
100
AcDbEntity
  8
0
 62
7
100
AcDbSpline
 70
8
 71
3
 72
8
 73
4
 74
0
 40
0
 40
0
 40
0
 40
0
 40
1
 40
1
 40
1
 40
1
 10
41.976826
 20
-16.934651
 30
0.0
 10
41.605545
 20
-16.720292
 30
0.0
 10
41.376826
 20
-16.324139
 30
0.0
 10
41.376826
 20
-15.895421
 30
0.0
  0
SPLINE
  5
12c
100
AcDbEntity
  8
0
 62
7
100
AcDbSpline
 70
8
 71
3
 72
8
 73
4
 74
0
 40
0
 40
0
 40
0
 40
0
 40
1
 40
1
 40
1
 40
1
 10
41.376826
 20
-15.895421
 30
0.0
 10
41.376826
 20
-15.466702
 30
0.0
 10
41.605545
 20
-15.070549
 30
0.0
 10
41.976826
 20
-14.856190
 30
0.0
  0
SPLINE
  5
12d
100
AcDbEntity
  8
0
 62
7
100
AcDbSpline
 70
8
 71
3
 72
8
 73
4
 74
0
 40
0
 40
0
 40
0
 40
0
 40
1
 40
1
 40
1
 40
1
 10
41.976826
 20
-14.856190
 30
0.0
 10
42.348108
 20
-14.641831
 30
0.0
 10
42.805545
 20
-14.641831
 30
0.0
 10
43.176827
 20
-14.856190
 30
0.0
  0
SPLINE
  5
12e
100
AcDbEntity
  8
0
 62
7
100
AcDbSpline
 70
8
 71
3
 72
8
 73
4
 74
0
 40
0
 40
0
 40
0
 40
0
 40
1
 40
1
 40
1
 40
1
 10
43.176827
 20
-14.856190
 30
0.0
 10
43.548108
 20
-15.070549
 30
0.0
 10
43.776827
 20
-15.466702
 30
0.0
 10
43.776827
 20
-15.895421
 30
0.0
  0
LWPOLYLINE
  5
12f
100
AcDbEntity
  8
0
 62
7
100
AcDbPolyline
 90
1
 70
1
 10
18.776877
 20
-115.895477
 30
0.0
  0
SPLINE
  5
130
100
AcDbEntity
  8
0
 62
7
100
AcDbSpline
 70
8
 71
3
 72
8
 73
4
 74
0
 40
0
 40
0
 40
0
 40
0
 40
1
 40
1
 40
1
 40
1
 10
168.776833
 20
-15.895421
 30
0.0
 10
168.776833
 20
-16.324139
 30
0.0
 10
168.548114
 20
-16.720292
 30
0.0
 10
168.176833
 20
-16.934651
 30
0.0
  0
SPLINE
  5
131
100
AcDbEntity
  8
0
 62
7
100
AcDbSpline
 70
8
 71
3
 72
8
 73
4
 74
0
 40
0
 40
0
 40
0
 40
0
 40
1
 40
1
 40
1
 40
1
 10
168.176833
 20
-16.934651
 30
0.0
 10
167.805551
 20
-17.149011
 30
0.0
 10
167.348114
 20
-17.149011
 30
0.0
 10
166.976832
 20
-16.934651
 30
0.0
  0
SPLINE
  5
132
100
AcDbEntity
  8
0
 62
7
100
AcDbSpline
 70
8
 71
3
 72
8
 73
4
 74
0
 40
0
 40
0
 40
0
 40
0
 40
1
 40
1
 40
1
 40
1
 10
166.976832
 20
-16.934651
 30
0.0
 10
166.605551
 20
-16.720292
 30
0.0
 10
166.376832
 20
-16.324139
 30
0.0
 10
166.376832
 20
-15.895421
 30
0.0
  0
SPLINE
  5
133
100
AcDbEntity
  8
0
 62
7
100
AcDbSpline
 70
8
 71
3
 72
8
 73
4
 74
0
 40
0
 40
0
 40
0
 40
0
 40
1
 40
1
 40
1
 40
1
 10
166.376832
 20
-15.895421
 30
0.0
 10
166.376832
 20
-15.466702
 30
0.0
 10
166.605551
 20
-15.070549
 30
0.0
 10
166.976832
 20
-14.856190
 30
0.0
  0
SPLINE
  5
134
100
AcDbEntity
  8
0
 62
7
100
AcDbSpline
 70
8
 71
3
 72
8
 73
4
 74
0
 40
0
 40
0
 40
0
 40
0
 40
1
 40
1
 40
1
 40
1
 10
166.976832
 20
-14.856190
 30
0.0
 10
167.348114
 20
-14.641831
 30
0.0
 10
167.805551
 20
-14.641831
 30
0.0
 10
168.176833
 20
-14.856190
 30
0.0
  0
SPLINE
  5
135
100
AcDbEntity
  8
0
 62
7
100
AcDbSpline
 70
8
 71
3
 72
8
 73
4
 74
0
 40
0
 40
0
 40
0
 40
0
 40
1
 40
1
 40
1
 40
1
 10
168.176833
 20
-14.856190
 30
0.0
 10
168.548114
 20
-15.070549
 30
0.0
 10
168.776833
 20
-15.466702
 30
0.0
 10
168.776833
 20
-15.895421
 30
0.0
  0
LWPOLYLINE
  5
136
100
AcDbEntity
  8
0
 62
7
100
AcDbPolyline
 90
1
 70
1
 10
43.776827
 20
-15.895421
 30
0.0
  0
SPLINE
  5
137
100
AcDbEntity
  8
0
 62
7
100
AcDbSpline
 70
8
 71
3
 72
8
 73
4
 74
0
 40
0
 40
0
 40
0
 40
0
 40
1
 40
1
 40
1
 40
1
 10
163.776843
 20
-65.895579
 30
0.0
 10
163.776843
 20
-66.324297
 30
0.0
 10
163.548124
 20
-66.720450
 30
0.0
 10
163.176843
 20
-66.934809
 30
0.0
  0
SPLINE
  5
138
100
AcDbEntity
  8
0
 62
7
100
AcDbSpline
 70
8
 71
3
 72
8
 73
4
 74
0
 40
0
 40
0
 40
0
 40
0
 40
1
 40
1
 40
1
 40
1
 10
163.176843
 20
-66.934809
 30
0.0
 10
162.805561
 20
-67.149169
 30
0.0
 10
162.348124
 20
-67.149169
 30
0.0
 10
161.976843
 20
-66.934809
 30
0.0
  0
SPLINE
  5
139
100
AcDbEntity
  8
0
 62
7
100
AcDbSpline
 70
8
 71
3
 72
8
 73
4
 74
0
 40
0
 40
0
 40
0
 40
0
 40
1
 40
1
 40
1
 40
1
 10
161.976843
 20
-66.934809
 30
0.0
 10
161.605561
 20
-66.720450
 30
0.0
 10
161.376842
 20
-66.324297
 30
0.0
 10
161.376842
 20
-65.895579
 30
0.0
  0
SPLINE
  5
13a
100
AcDbEntity
  8
0
 62
7
100
AcDbSpline
 70
8
 71
3
 72
8
 73
4
 74
0
 40
0
 40
0
 40
0
 40
0
 40
1
 40
1
 40
1
 40
1
 10
161.376842
 20
-65.895579
 30
0.0
 10
161.376842
 20
-65.466860
 30
0.0
 10
161.605561
 20
-65.070707
 30
0.0
 10
161.976843
 20
-64.856348
 30
0.0
  0
SPLINE
  5
13b
100
AcDbEntity
  8
0
 62
7
100
AcDbSpline
 70
8
 71
3
 72
8
 73
4
 74
0
 40
0
 40
0
 40
0
 40
0
 40
1
 40
1
 40
1
 40
1
 10
161.976843
 20
-64.856348
 30
0.0
 10
162.348124
 20
-64.641989
 30
0.0
 10
162.805561
 20
-64.641989
 30
0.0
 10
163.176843
 20
-64.856348
 30
0.0
  0
SPLINE
  5
13c
100
AcDbEntity
  8
0
 62
7
100
AcDbSpline
 70
8
 71
3
 72
8
 73
4
 74
0
 40
0
 40
0
 40
0
 40
0
 40
1
 40
1
 40
1
 40
1
 10
163.176843
 20
-64.856348
 30
0.0
 10
163.548124
 20
-65.070707
 30
0.0
 10
163.776843
 20
-65.466860
 30
0.0
 10
163.776843
 20
-65.895579
 30
0.0
  0
LWPOLYLINE
  5
13d
100
AcDbEntity
  8
0
 62
7
100
AcDbPolyline
 90
1
 70
1
 10
168.776833
 20
-15.895421
 30
0.0
  0
SPLINE
  5
13e
100
AcDbEntity
  8
0
 62
7
100
AcDbSpline
 70
8
 71
3
 72
8
 73
4
 74
0
 40
0
 40
0
 40
0
 40
0
 40
1
 40
1
 40
1
 40
1
 10
208.777008
 20
-65.895579
 30
0.0
 10
208.777008
 20
-66.324297
 30
0.0
 10
208.548289
 20
-66.720450
 30
0.0
 10
208.177008
 20
-66.934809
 30
0.0
  0
SPLINE
  5
13f
100
AcDbEntity
  8
0
 62
7
100
AcDbSpline
 70
8
 71
3
 72
8
 73
4
 74
0
 40
0
 40
0
 40
0
 40
0
 40
1
 40
1
 40
1
 40
1
 10
208.177008
 20
-66.934809
 30
0.0
 10
207.805727
 20
-67.149169
 30
0.0
 10
207.348289
 20
-67.149169
 30
0.0
 10
206.977008
 20
-66.934809
 30
0.0
  0
SPLINE
  5
140
100
AcDbEntity
  8
0
 62
7
100
AcDbSpline
 70
8
 71
3
 72
8
 73
4
 74
0
 40
0
 40
0
 40
0
 40
0
 40
1
 40
1
 40
1
 40
1
 10
206.977008
 20
-66.934809
 30
0.0
 10
206.605727
 20
-66.720450
 30
0.0
 10
206.377008
 20
-66.324297
 30
0.0
 10
206.377008
 20
-65.895579
 30
0.0
  0
SPLINE
  5
141
100
AcDbEntity
  8
0
 62
7
100
AcDbSpline
 70
8
 71
3
 72
8
 73
4
 74
0
 40
0
 40
0
 40
0
 40
0
 40
1
 40
1
 40
1
 40
1
 10
206.377008
 20
-65.895579
 30
0.0
 10
206.377008
 20
-65.466860
 30
0.0
 10
206.605727
 20
-65.070707
 30
0.0
 10
206.977008
 20
-64.856348
 30
0.0
  0
SPLINE
  5
142
100
AcDbEntity
  8
0
 62
7
100
AcDbSpline
 70
8
 71
3
 72
8
 73
4
 74
0
 40
0
 40
0
 40
0
 40
0
 40
1
 40
1
 40
1
 40
1
 10
206.977008
 20
-64.856348
 30
0.0
 10
207.348289
 20
-64.641989
 30
0.0
 10
207.805727
 20
-64.641989
 30
0.0
 10
208.177008
 20
-64.856348
 30
0.0
  0
SPLINE
  5
143
100
AcDbEntity
  8
0
 62
7
100
AcDbSpline
 70
8
 71
3
 72
8
 73
4
 74
0
 40
0
 40
0
 40
0
 40
0
 40
1
 40
1
 40
1
 40
1
 10
208.177008
 20
-64.856348
 30
0.0
 10
208.548289
 20
-65.070707
 30
0.0
 10
208.777008
 20
-65.466860
 30
0.0
 10
208.777008
 20
-65.895579
 30
0.0
  0
LWPOLYLINE
  5
144
100
AcDbEntity
  8
0
 62
7
100
AcDbPolyline
 90
1
 70
1
 10
163.776843
 20
-65.895579
 30
0.0
  0
SPLINE
  5
145
100
AcDbEntity
  8
0
 62
7
100
AcDbSpline
 70
8
 71
3
 72
8
 73
4
 74
0
 40
0
 40
0
 40
0
 40
0
 40
1
 40
1
 40
1
 40
1
 10
203.777018
 20
-15.895421
 30
0.0
 10
203.777018
 20
-16.324139
 30
0.0
 10
203.548300
 20
-16.720292
 30
0.0
 10
203.177018
 20
-16.934651
 30
0.0
  0
SPLINE
  5
146
100
AcDbEntity
  8
0
 62
7
100
AcDbSpline
 70
8
 71
3
 72
8
 73
4
 74
0
 40
0
 40
0
 40
0
 40
0
 40
1
 40
1
 40
1
 40
1
 10
203.177018
 20
-16.934651
 30
0.0
 10
202.805737
 20
-17.149011
 30
0.0
 10
202.348299
 20
-17.149011
 30
0.0
 10
201.977018
 20
-16.934651
 30
0.0
  0
SPLINE
  5
147
100
AcDbEntity
  8
0
 62
7
100
AcDbSpline
 70
8
 71
3
 72
8
 73
4
 74
0
 40
0
 40
0
 40
0
 40
0
 40
1
 40
1
 40
1
 40
1
 10
201.977018
 20
-16.934651
 30
0.0
 10
201.605737
 20
-16.720292
 30
0.0
 10
201.377018
 20
-16.324139
 30
0.0
 10
201.377018
 20
-15.895421
 30
0.0
  0
SPLINE
  5
148
100
AcDbEntity
  8
0
 62
7
100
AcDbSpline
 70
8
 71
3
 72
8
 73
4
 74
0
 40
0
 40
0
 40
0
 40
0
 40
1
 40
1
 40
1
 40
1
 10
201.377018
 20
-15.895421
 30
0.0
 10
201.377018
 20
-15.466702
 30
0.0
 10
201.605737
 20
-15.070549
 30
0.0
 10
201.977018
 20
-14.856190
 30
0.0
  0
SPLINE
  5
149
100
AcDbEntity
  8
0
 62
7
100
AcDbSpline
 70
8
 71
3
 72
8
 73
4
 74
0
 40
0
 40
0
 40
0
 40
0
 40
1
 40
1
 40
1
 40
1
 10
201.977018
 20
-14.856190
 30
0.0
 10
202.348299
 20
-14.641831
 30
0.0
 10
202.805737
 20
-14.641831
 30
0.0
 10
203.177018
 20
-14.856190
 30
0.0
  0
SPLINE
  5
14a
100
AcDbEntity
  8
0
 62
7
100
AcDbSpline
 70
8
 71
3
 72
8
 73
4
 74
0
 40
0
 40
0
 40
0
 40
0
 40
1
 40
1
 40
1
 40
1
 10
203.177018
 20
-14.856190
 30
0.0
 10
203.548300
 20
-15.070549
 30
0.0
 10
203.777018
 20
-15.466702
 30
0.0
 10
203.777018
 20
-15.895421
 30
0.0
  0
LWPOLYLINE
  5
14b
100
AcDbEntity
  8
0
 62
7
100
AcDbPolyline
 90
1
 70
1
 10
208.777008
 20
-65.895579
 30
0.0
  0
SPLINE
  5
14c
100
AcDbEntity
  8
0
 62
7
100
AcDbSpline
 70
8
 71
3
 72
8
 73
4
 74
0
 40
0
 40
0
 40
0
 40
0
 40
1
 40
1
 40
1
 40
1
 10
363.776179
 20
-15.895421
 30
0.0
 10
363.776179
 20
-16.558162
 30
0.0
 10
363.238920
 20
-17.095421
 30
0.0
 10
362.576179
 20
-17.095421
 30
0.0
  0
SPLINE
  5
14d
100
AcDbEntity
  8
0
 62
7
100
AcDbSpline
 70
8
 71
3
 72
8
 73
4
 74
0
 40
0
 40
0
 40
0
 40
0
 40
1
 40
1
 40
1
 40
1
 10
362.576179
 20
-17.095421
 30
0.0
 10
361.913437
 20
-17.095421
 30
0.0
 10
361.376179
 20
-16.558162
 30
0.0
 10
361.376179
 20
-15.895421
 30
0.0
  0
SPLINE
  5
14e
100
AcDbEntity
  8
0
 62
7
100
AcDbSpline
 70
8
 71
3
 72
8
 73
4
 74
0
 40
0
 40
0
 40
0
 40
0
 40
1
 40
1
 40
1
 40
1
 10
361.376179
 20
-15.895421
 30
0.0
 10
361.376179
 20
-15.466702
 30
0.0
 10
361.604897
 20
-15.070549
 30
0.0
 10
361.976179
 20
-14.856190
 30
0.0
  0
SPLINE
  5
14f
100
AcDbEntity
  8
0
 62
7
100
AcDbSpline
 70
8
 71
3
 72
8
 73
4
 74
0
 40
0
 40
0
 40
0
 40
0
 40
1
 40
1
 40
1
 40
1
 10
361.976179
 20
-14.856190
 30
0.0
 10
362.347460
 20
-14.641831
 30
0.0
 10
362.804897
 20
-14.641831
 30
0.0
 10
363.176179
 20
-14.856190
 30
0.0
  0
SPLINE
  5
150
100
AcDbEntity
  8
0
 62
7
100
AcDbSpline
 70
8
 71
3
 72
8
 73
4
 74
0
 40
0
 40
0
 40
0
 40
0
 40
1
 40
1
 40
1
 40
1
 10
363.176179
 20
-14.856190
 30
0.0
 10
363.547460
 20
-15.070549
 30
0.0
 10
363.776179
 20
-15.466702
 30
0.0
 10
363.776179
 20
-15.895421
 30
0.0
  0
LWPOLYLINE
  5
151
100
AcDbEntity
  8
0
 62
7
100
AcDbPolyline
 90
1
 70
1
 10
203.777018
 20
-15.895421
 30
0.0
  0
SPLINE
  5
152
100
AcDbEntity
  8
0
 62
7
100
AcDbSpline
 70
8
 71
3
 72
8
 73
4
 74
0
 40
0
 40
0
 40
0
 40
0
 40
1
 40
1
 40
1
 40
1
 10
358.777459
 20
-100.895508
 30
0.0
 10
358.777459
 20
-101.558249
 30
0.0
 10
358.240200
 20
-102.095508
 30
0.0
 10
357.577459
 20
-102.095508
 30
0.0
  0
SPLINE
  5
153
100
AcDbEntity
  8
0
 62
7
100
AcDbSpline
 70
8
 71
3
 72
8
 73
4
 74
0
 40
0
 40
0
 40
0
 40
0
 40
1
 40
1
 40
1
 40
1
 10
357.577459
 20
-102.095508
 30
0.0
 10
356.914717
 20
-102.095508
 30
0.0
 10
356.377459
 20
-101.558249
 30
0.0
 10
356.377459
 20
-100.895508
 30
0.0
  0
SPLINE
  5
154
100
AcDbEntity
  8
0
 62
7
100
AcDbSpline
 70
8
 71
3
 72
8
 73
4
 74
0
 40
0
 40
0
 40
0
 40
0
 40
1
 40
1
 40
1
 40
1
 10
356.377459
 20
-100.895508
 30
0.0
 10
356.377459
 20
-100.232766
 30
0.0
 10
356.914717
 20
-99.695508
 30
0.0
 10
357.577459
 20
-99.695508
 30
0.0
  0
SPLINE
  5
155
100
AcDbEntity
  8
0
 62
7
100
AcDbSpline
 70
8
 71
3
 72
8
 73
4
 74
0
 40
0
 40
0
 40
0
 40
0
 40
1
 40
1
 40
1
 40
1
 10
357.577459
 20
-99.695508
 30
0.0
 10
358.240200
 20
-99.695508
 30
0.0
 10
358.777459
 20
-100.232766
 30
0.0
 10
358.777459
 20
-100.895508
 30
0.0
  0
LWPOLYLINE
  5
156
100
AcDbEntity
  8
0
 62
7
100
AcDbPolyline
 90
1
 70
1
 10
363.776179
 20
-15.895421
 30
0.0
  0
SPLINE
  5
157
100
AcDbEntity
  8
0
 62
7
100
AcDbSpline
 70
8
 71
3
 72
8
 73
4
 74
0
 40
0
 40
0
 40
0
 40
0
 40
1
 40
1
 40
1
 40
1
 10
308.777560
 20
-115.895477
 30
0.0
 10
308.777560
 20
-116.324196
 30
0.0
 10
308.548841
 20
-116.720349
 30
0.0
 10
308.177560
 20
-116.934708
 30
0.0
  0
SPLINE
  5
158
100
AcDbEntity
  8
0
 62
7
100
AcDbSpline
 70
8
 71
3
 72
8
 73
4
 74
0
 40
0
 40
0
 40
0
 40
0
 40
1
 40
1
 40
1
 40
1
 10
308.177560
 20
-116.934708
 30
0.0
 10
307.806279
 20
-117.149067
 30
0.0
 10
307.348841
 20
-117.149067
 30
0.0
 10
306.977560
 20
-116.934708
 30
0.0
  0
SPLINE
  5
159
100
AcDbEntity
  8
0
 62
7
100
AcDbSpline
 70
8
 71
3
 72
8
 73
4
 74
0
 40
0
 40
0
 40
0
 40
0
 40
1
 40
1
 40
1
 40
1
 10
306.977560
 20
-116.934708
 30
0.0
 10
306.606279
 20
-116.720349
 30
0.0
 10
306.377560
 20
-116.324196
 30
0.0
 10
306.377560
 20
-115.895477
 30
0.0
  0
SPLINE
  5
15a
100
AcDbEntity
  8
0
 62
7
100
AcDbSpline
 70
8
 71
3
 72
8
 73
4
 74
0
 40
0
 40
0
 40
0
 40
0
 40
1
 40
1
 40
1
 40
1
 10
306.377560
 20
-115.895477
 30
0.0
 10
306.377560
 20
-115.466759
 30
0.0
 10
306.606279
 20
-115.070606
 30
0.0
 10
306.977560
 20
-114.856247
 30
0.0
  0
SPLINE
  5
15b
100
AcDbEntity
  8
0
 62
7
100
AcDbSpline
 70
8
 71
3
 72
8
 73
4
 74
0
 40
0
 40
0
 40
0
 40
0
 40
1
 40
1
 40
1
 40
1
 10
306.977560
 20
-114.856247
 30
0.0
 10
307.348841
 20
-114.641887
 30
0.0
 10
307.806279
 20
-114.641887
 30
0.0
 10
308.177560
 20
-114.856247
 30
0.0
  0
SPLINE
  5
15c
100
AcDbEntity
  8
0
 62
7
100
AcDbSpline
 70
8
 71
3
 72
8
 73
4
 74
0
 40
0
 40
0
 40
0
 40
0
 40
1
 40
1
 40
1
 40
1
 10
308.177560
 20
-114.856247
 30
0.0
 10
308.548841
 20
-115.070606
 30
0.0
 10
308.777560
 20
-115.466759
 30
0.0
 10
308.777560
 20
-115.895477
 30
0.0
  0
LWPOLYLINE
  5
15d
100
AcDbEntity
  8
0
 62
7
100
AcDbPolyline
 90
1
 70
1
 10
358.777459
 20
-100.895508
 30
0.0
  0
SPLINE
  5
15e
100
AcDbEntity
  8
0
 62
7
100
AcDbSpline
 70
8
 71
3
 72
8
 73
4
 74
0
 40
0
 40
0
 40
0
 40
0
 40
1
 40
1
 40
1
 40
1
 10
283.776341
 20
-130.895447
 30
0.0
 10
283.776341
 20
-131.324166
 30
0.0
 10
283.547622
 20
-131.720318
 30
0.0
 10
283.176341
 20
-131.934678
 30
0.0
  0
SPLINE
  5
15f
100
AcDbEntity
  8
0
 62
7
100
AcDbSpline
 70
8
 71
3
 72
8
 73
4
 74
0
 40
0
 40
0
 40
0
 40
0
 40
1
 40
1
 40
1
 40
1
 10
283.176341
 20
-131.934678
 30
0.0
 10
282.805059
 20
-132.149037
 30
0.0
 10
282.347622
 20
-132.149037
 30
0.0
 10
281.976341
 20
-131.934678
 30
0.0
  0
SPLINE
  5
160
100
AcDbEntity
  8
0
 62
7
100
AcDbSpline
 70
8
 71
3
 72
8
 73
4
 74
0
 40
0
 40
0
 40
0
 40
0
 40
1
 40
1
 40
1
 40
1
 10
281.976341
 20
-131.934678
 30
0.0
 10
281.605059
 20
-131.720318
 30
0.0
 10
281.376340
 20
-131.324166
 30
0.0
 10
281.376340
 20
-130.895447
 30
0.0
  0
SPLINE
  5
161
100
AcDbEntity
  8
0
 62
7
100
AcDbSpline
 70
8
 71
3
 72
8
 73
4
 74
0
 40
0
 40
0
 40
0
 40
0
 40
1
 40
1
 40
1
 40
1
 10
281.376340
 20
-130.895447
 30
0.0
 10
281.376340
 20
-130.466728
 30
0.0
 10
281.605059
 20
-130.070576
 30
0.0
 10
281.976341
 20
-129.856216
 30
0.0
  0
SPLINE
  5
162
100
AcDbEntity
  8
0
 62
7
100
AcDbSpline
 70
8
 71
3
 72
8
 73
4
 74
0
 40
0
 40
0
 40
0
 40
0
 40
1
 40
1
 40
1
 40
1
 10
281.976341
 20
-129.856216
 30
0.0
 10
282.347622
 20
-129.641857
 30
0.0
 10
282.805059
 20
-129.641857
 30
0.0
 10
283.176341
 20
-129.856216
 30
0.0
  0
SPLINE
  5
163
100
AcDbEntity
  8
0
 62
7
100
AcDbSpline
 70
8
 71
3
 72
8
 73
4
 74
0
 40
0
 40
0
 40
0
 40
0
 40
1
 40
1
 40
1
 40
1
 10
283.176341
 20
-129.856216
 30
0.0
 10
283.547622
 20
-130.070576
 30
0.0
 10
283.776341
 20
-130.466728
 30
0.0
 10
283.776341
 20
-130.895447
 30
0.0
  0
LWPOLYLINE
  5
164
100
AcDbEntity
  8
0
 62
7
100
AcDbPolyline
 90
1
 70
1
 10
308.777560
 20
-115.895477
 30
0.0
  0
SPLINE
  5
165
100
AcDbEntity
  8
0
 62
7
100
AcDbSpline
 70
8
 71
3
 72
8
 73
4
 74
0
 40
0
 40
0
 40
0
 40
0
 40
1
 40
1
 40
1
 40
1
 10
231.276823
 20
-170.895623
 30
0.0
 10
231.276823
 20
-171.324341
 30
0.0
 10
231.048104
 20
-171.720494
 30
0.0
 10
230.676823
 20
-171.934853
 30
0.0
  0
SPLINE
  5
166
100
AcDbEntity
  8
0
 62
7
100
AcDbSpline
 70
8
 71
3
 72
8
 73
4
 74
0
 40
0
 40
0
 40
0
 40
0
 40
1
 40
1
 40
1
 40
1
 10
230.676823
 20
-171.934853
 30
0.0
 10
230.305542
 20
-172.149213
 30
0.0
 10
229.848104
 20
-172.149213
 30
0.0
 10
229.476823
 20
-171.934853
 30
0.0
  0
SPLINE
  5
167
100
AcDbEntity
  8
0
 62
7
100
AcDbSpline
 70
8
 71
3
 72
8
 73
4
 74
0
 40
0
 40
0
 40
0
 40
0
 40
1
 40
1
 40
1
 40
1
 10
229.476823
 20
-171.934853
 30
0.0
 10
229.105541
 20
-171.720494
 30
0.0
 10
228.876823
 20
-171.324341
 30
0.0
 10
228.876823
 20
-170.895623
 30
0.0
  0
SPLINE
  5
168
100
AcDbEntity
  8
0
 62
7
100
AcDbSpline
 70
8
 71
3
 72
8
 73
4
 74
0
 40
0
 40
0
 40
0
 40
0
 40
1
 40
1
 40
1
 40
1
 10
228.876823
 20
-170.895623
 30
0.0
 10
228.876823
 20
-170.466904
 30
0.0
 10
229.105541
 20
-170.070751
 30
0.0
 10
229.476823
 20
-169.856392
 30
0.0
  0
SPLINE
  5
169
100
AcDbEntity
  8
0
 62
7
100
AcDbSpline
 70
8
 71
3
 72
8
 73
4
 74
0
 40
0
 40
0
 40
0
 40
0
 40
1
 40
1
 40
1
 40
1
 10
229.476823
 20
-169.856392
 30
0.0
 10
229.848104
 20
-169.642033
 30
0.0
 10
230.305542
 20
-169.642033
 30
0.0
 10
230.676823
 20
-169.856392
 30
0.0
  0
SPLINE
  5
16a
100
AcDbEntity
  8
0
 62
7
100
AcDbSpline
 70
8
 71
3
 72
8
 73
4
 74
0
 40
0
 40
0
 40
0
 40
0
 40
1
 40
1
 40
1
 40
1
 10
230.676823
 20
-169.856392
 30
0.0
 10
231.048104
 20
-170.070751
 30
0.0
 10
231.276823
 20
-170.466904
 30
0.0
 10
231.276823
 20
-170.895623
 30
0.0
  0
LWPOLYLINE
  5
16b
100
AcDbEntity
  8
0
 62
7
100
AcDbPolyline
 90
1
 70
1
 10
283.776341
 20
-130.895447
 30
0.0
  0
SPLINE
  5
16c
100
AcDbEntity
  8
0
 62
7
100
AcDbSpline
 70
8
 71
3
 72
8
 73
4
 74
0
 40
0
 40
0
 40
0
 40
0
 40
1
 40
1
 40
1
 40
1
 10
141.277005
 20
-170.895623
 30
0.0
 10
141.277005
 20
-171.324341
 30
0.0
 10
141.048286
 20
-171.720494
 30
0.0
 10
140.677005
 20
-171.934853
 30
0.0
  0
SPLINE
  5
16d
100
AcDbEntity
  8
0
 62
7
100
AcDbSpline
 70
8
 71
3
 72
8
 73
4
 74
0
 40
0
 40
0
 40
0
 40
0
 40
1
 40
1
 40
1
 40
1
 10
140.677005
 20
-171.934853
 30
0.0
 10
140.305724
 20
-172.149213
 30
0.0
 10
139.848286
 20
-172.149213
 30
0.0
 10
139.477005
 20
-171.934853
 30
0.0
  0
SPLINE
  5
16e
100
AcDbEntity
  8
0
 62
7
100
AcDbSpline
 70
8
 71
3
 72
8
 73
4
 74
0
 40
0
 40
0
 40
0
 40
0
 40
1
 40
1
 40
1
 40
1
 10
139.477005
 20
-171.934853
 30
0.0
 10
139.105724
 20
-171.720494
 30
0.0
 10
138.877005
 20
-171.324341
 30
0.0
 10
138.877005
 20
-170.895623
 30
0.0
  0
SPLINE
  5
16f
100
AcDbEntity
  8
0
 62
7
100
AcDbSpline
 70
8
 71
3
 72
8
 73
4
 74
0
 40
0
 40
0
 40
0
 40
0
 40
1
 40
1
 40
1
 40
1
 10
138.877005
 20
-170.895623
 30
0.0
 10
138.877005
 20
-170.466904
 30
0.0
 10
139.105724
 20
-170.070751
 30
0.0
 10
139.477005
 20
-169.856392
 30
0.0
  0
SPLINE
  5
170
100
AcDbEntity
  8
0
 62
7
100
AcDbSpline
 70
8
 71
3
 72
8
 73
4
 74
0
 40
0
 40
0
 40
0
 40
0
 40
1
 40
1
 40
1
 40
1
 10
139.477005
 20
-169.856392
 30
0.0
 10
139.848286
 20
-169.642033
 30
0.0
 10
140.305724
 20
-169.642033
 30
0.0
 10
140.677005
 20
-169.856392
 30
0.0
  0
SPLINE
  5
171
100
AcDbEntity
  8
0
 62
7
100
AcDbSpline
 70
8
 71
3
 72
8
 73
4
 74
0
 40
0
 40
0
 40
0
 40
0
 40
1
 40
1
 40
1
 40
1
 10
140.677005
 20
-169.856392
 30
0.0
 10
141.048286
 20
-170.070751
 30
0.0
 10
141.277005
 20
-170.466904
 30
0.0
 10
141.277005
 20
-170.895623
 30
0.0
  0
LWPOLYLINE
  5
172
100
AcDbEntity
  8
0
 62
7
100
AcDbPolyline
 90
1
 70
1
 10
231.276823
 20
-170.895623
 30
0.0
  0
SPLINE
  5
173
100
AcDbEntity
  8
0
 62
7
100
AcDbSpline
 70
8
 71
3
 72
8
 73
4
 74
0
 40
0
 40
0
 40
0
 40
0
 40
1
 40
1
 40
1
 40
1
 10
98.776974
 20
-130.895447
 30
0.0
 10
98.776974
 20
-131.558189
 30
0.0
 10
98.239716
 20
-132.095447
 30
0.0
 10
97.576974
 20
-132.095447
 30
0.0
  0
SPLINE
  5
174
100
AcDbEntity
  8
0
 62
7
100
AcDbSpline
 70
8
 71
3
 72
8
 73
4
 74
0
 40
0
 40
0
 40
0
 40
0
 40
1
 40
1
 40
1
 40
1
 10
97.576974
 20
-132.095447
 30
0.0
 10
96.914232
 20
-132.095447
 30
0.0
 10
96.376974
 20
-131.558189
 30
0.0
 10
96.376974
 20
-130.895447
 30
0.0
  0
SPLINE
  5
175
100
AcDbEntity
  8
0
 62
7
100
AcDbSpline
 70
8
 71
3
 72
8
 73
4
 74
0
 40
0
 40
0
 40
0
 40
0
 40
1
 40
1
 40
1
 40
1
 10
96.376974
 20
-130.895447
 30
0.0
 10
96.376974
 20
-130.232705
 30
0.0
 10
96.914232
 20
-129.695447
 30
0.0
 10
97.576974
 20
-129.695447
 30
0.0
  0
SPLINE
  5
176
100
AcDbEntity
  8
0
 62
7
100
AcDbSpline
 70
8
 71
3
 72
8
 73
4
 74
0
 40
0
 40
0
 40
0
 40
0
 40
1
 40
1
 40
1
 40
1
 10
97.576974
 20
-129.695447
 30
0.0
 10
98.239716
 20
-129.695447
 30
0.0
 10
98.776974
 20
-130.232705
 30
0.0
 10
98.776974
 20
-130.895447
 30
0.0
  0
LWPOLYLINE
  5
177
100
AcDbEntity
  8
0
 62
7
100
AcDbPolyline
 90
1
 70
1
 10
141.277005
 20
-170.895623
 30
0.0
  0
SPLINE
  5
178
100
AcDbEntity
  8
0
 62
7
100
AcDbSpline
 70
8
 71
3
 72
8
 73
4
 74
0
 40
0
 40
0
 40
0
 40
0
 40
1
 40
1
 40
1
 40
1
 10
23.776867
 20
-130.895447
 30
0.0
 10
23.776867
 20
-131.324166
 30
0.0
 10
23.548148
 20
-131.720318
 30
0.0
 10
23.176867
 20
-131.934678
 30
0.0
  0
SPLINE
  5
179
100
AcDbEntity
  8
0
 62
7
100
AcDbSpline
 70
8
 71
3
 72
8
 73
4
 74
0
 40
0
 40
0
 40
0
 40
0
 40
1
 40
1
 40
1
 40
1
 10
23.176867
 20
-131.934678
 30
0.0
 10
22.805586
 20
-132.149037
 30
0.0
 10
22.348148
 20
-132.149037
 30
0.0
 10
21.976867
 20
-131.934678
 30
0.0
  0
SPLINE
  5
17a
100
AcDbEntity
  8
0
 62
7
100
AcDbSpline
 70
8
 71
3
 72
8
 73
4
 74
0
 40
0
 40
0
 40
0
 40
0
 40
1
 40
1
 40
1
 40
1
 10
21.976867
 20
-131.934678
 30
0.0
 10
21.605586
 20
-131.720318
 30
0.0
 10
21.376867
 20
-131.324166
 30
0.0
 10
21.376867
 20
-130.895447
 30
0.0
  0
SPLINE
  5
17b
100
AcDbEntity
  8
0
 62
7
100
AcDbSpline
 70
8
 71
3
 72
8
 73
4
 74
0
 40
0
 40
0
 40
0
 40
0
 40
1
 40
1
 40
1
 40
1
 10
21.376867
 20
-130.895447
 30
0.0
 10
21.376867
 20
-130.466728
 30
0.0
 10
21.605586
 20
-130.070576
 30
0.0
 10
21.976867
 20
-129.856216
 30
0.0
  0
SPLINE
  5
17c
100
AcDbEntity
  8
0
 62
7
100
AcDbSpline
 70
8
 71
3
 72
8
 73
4
 74
0
 40
0
 40
0
 40
0
 40
0
 40
1
 40
1
 40
1
 40
1
 10
21.976867
 20
-129.856216
 30
0.0
 10
22.348148
 20
-129.641857
 30
0.0
 10
22.805586
 20
-129.641857
 30
0.0
 10
23.176867
 20
-129.856216
 30
0.0
  0
SPLINE
  5
17d
100
AcDbEntity
  8
0
 62
7
100
AcDbSpline
 70
8
 71
3
 72
8
 73
4
 74
0
 40
0
 40
0
 40
0
 40
0
 40
1
 40
1
 40
1
 40
1
 10
23.176867
 20
-129.856216
 30
0.0
 10
23.548148
 20
-130.070576
 30
0.0
 10
23.776867
 20
-130.466728
 30
0.0
 10
23.776867
 20
-130.895447
 30
0.0
  0
LWPOLYLINE
  5
17e
100
AcDbEntity
  8
0
 62
7
100
AcDbPolyline
 90
1
 70
1
 10
98.776974
 20
-130.895447
 30
0.0
  0
SPLINE
  5
17f
100
AcDbEntity
  8
0
 62
7
100
AcDbSpline
 70
8
 71
3
 72
8
 73
4
 74
0
 40
0
 40
0
 40
0
 40
0
 40
1
 40
1
 40
1
 40
1
 10
3.776958
 20
-110.895487
 30
0.0
 10
3.776958
 20
-111.324206
 30
0.0
 10
3.548240
 20
-111.720359
 30
0.0
 10
3.176958
 20
-111.934718
 30
0.0
  0
SPLINE
  5
180
100
AcDbEntity
  8
0
 62
7
100
AcDbSpline
 70
8
 71
3
 72
8
 73
4
 74
0
 40
0
 40
0
 40
0
 40
0
 40
1
 40
1
 40
1
 40
1
 10
3.176958
 20
-111.934718
 30
0.0
 10
2.805677
 20
-112.149077
 30
0.0
 10
2.348239
 20
-112.149077
 30
0.0
 10
1.976958
 20
-111.934718
 30
0.0
  0
SPLINE
  5
181
100
AcDbEntity
  8
0
 62
7
100
AcDbSpline
 70
8
 71
3
 72
8
 73
4
 74
0
 40
0
 40
0
 40
0
 40
0
 40
1
 40
1
 40
1
 40
1
 10
1.976958
 20
-111.934718
 30
0.0
 10
1.605677
 20
-111.720359
 30
0.0
 10
1.376958
 20
-111.324206
 30
0.0
 10
1.376958
 20
-110.895487
 30
0.0
  0
SPLINE
  5
182
100
AcDbEntity
  8
0
 62
7
100
AcDbSpline
 70
8
 71
3
 72
8
 73
4
 74
0
 40
0
 40
0
 40
0
 40
0
 40
1
 40
1
 40
1
 40
1
 10
1.376958
 20
-110.895487
 30
0.0
 10
1.376958
 20
-110.466769
 30
0.0
 10
1.605677
 20
-110.070616
 30
0.0
 10
1.976958
 20
-109.856257
 30
0.0
  0
SPLINE
  5
183
100
AcDbEntity
  8
0
 62
7
100
AcDbSpline
 70
8
 71
3
 72
8
 73
4
 74
0
 40
0
 40
0
 40
0
 40
0
 40
1
 40
1
 40
1
 40
1
 10
1.976958
 20
-109.856257
 30
0.0
 10
2.348239
 20
-109.641897
 30
0.0
 10
2.805677
 20
-109.641897
 30
0.0
 10
3.176958
 20
-109.856257
 30
0.0
  0
SPLINE
  5
184
100
AcDbEntity
  8
0
 62
7
100
AcDbSpline
 70
8
 71
3
 72
8
 73
4
 74
0
 40
0
 40
0
 40
0
 40
0
 40
1
 40
1
 40
1
 40
1
 10
3.176958
 20
-109.856257
 30
0.0
 10
3.548240
 20
-110.070616
 30
0.0
 10
3.776958
 20
-110.466769
 30
0.0
 10
3.776958
 20
-110.895487
 30
0.0
  0
LWPOLYLINE
  5
185
100
AcDbEntity
  8
0
 62
7
100
AcDbPolyline
 90
1
 70
1
 10
23.776867
 20
-130.895447
 30
0.0
  0
SPLINE
  5
186
100
AcDbEntity
  8
0
 62
7
100
AcDbSpline
 70
8
 71
3
 72
8
 73
4
 74
0
 40
0
 40
0
 40
0
 40
0
 40
1
 40
1
 40
1
 40
1
 10
3.776958
 20
-20.895411
 30
0.0
 10
3.776958
 20
-21.324129
 30
0.0
 10
3.548240
 20
-21.720282
 30
0.0
 10
3.176958
 20
-21.934641
 30
0.0
  0
SPLINE
  5
187
100
AcDbEntity
  8
0
 62
7
100
AcDbSpline
 70
8
 71
3
 72
8
 73
4
 74
0
 40
0
 40
0
 40
0
 40
0
 40
1
 40
1
 40
1
 40
1
 10
3.176958
 20
-21.934641
 30
0.0
 10
2.805677
 20
-22.149001
 30
0.0
 10
2.348239
 20
-22.149001
 30
0.0
 10
1.976958
 20
-21.934641
 30
0.0
  0
SPLINE
  5
188
100
AcDbEntity
  8
0
 62
7
100
AcDbSpline
 70
8
 71
3
 72
8
 73
4
 74
0
 40
0
 40
0
 40
0
 40
0
 40
1
 40
1
 40
1
 40
1
 10
1.976958
 20
-21.934641
 30
0.0
 10
1.605677
 20
-21.720282
 30
0.0
 10
1.376958
 20
-21.324129
 30
0.0
 10
1.376958
 20
-20.895411
 30
0.0
  0
SPLINE
  5
189
100
AcDbEntity
  8
0
 62
7
100
AcDbSpline
 70
8
 71
3
 72
8
 73
4
 74
0
 40
0
 40
0
 40
0
 40
0
 40
1
 40
1
 40
1
 40
1
 10
1.376958
 20
-20.895411
 30
0.0
 10
1.376958
 20
-20.466692
 30
0.0
 10
1.605677
 20
-20.070539
 30
0.0
 10
1.976958
 20
-19.856180
 30
0.0
  0
SPLINE
  5
18a
100
AcDbEntity
  8
0
 62
7
100
AcDbSpline
 70
8
 71
3
 72
8
 73
4
 74
0
 40
0
 40
0
 40
0
 40
0
 40
1
 40
1
 40
1
 40
1
 10
1.976958
 20
-19.856180
 30
0.0
 10
2.348239
 20
-19.641821
 30
0.0
 10
2.805677
 20
-19.641821
 30
0.0
 10
3.176958
 20
-19.856180
 30
0.0
  0
SPLINE
  5
18b
100
AcDbEntity
  8
0
 62
7
100
AcDbSpline
 70
8
 71
3
 72
8
 73
4
 74
0
 40
0
 40
0
 40
0
 40
0
 40
1
 40
1
 40
1
 40
1
 10
3.176958
 20
-19.856180
 30
0.0
 10
3.548240
 20
-20.070539
 30
0.0
 10
3.776958
 20
-20.466692
 30
0.0
 10
3.776958
 20
-20.895411
 30
0.0
  0
LWPOLYLINE
  5
18c
100
AcDbEntity
  8
0
 62
7
100
AcDbPolyline
 90
1
 70
1
 10
3.776958
 20
-110.895487
 30
0.0
  0
SPLINE
  5
18d
100
AcDbEntity
  8
0
 62
7
100
AcDbSpline
 70
8
 71
3
 72
8
 73
4
 74
0
 40
0
 40
0
 40
0
 40
0
 40
1
 40
1
 40
1
 40
1
 10
23.776867
 20
-0.895451
 30
0.0
 10
23.776867
 20
-1.324170
 30
0.0
 10
23.548148
 20
-1.720322
 30
0.0
 10
23.176867
 20
-1.934682
 30
0.0
  0
SPLINE
  5
18e
100
AcDbEntity
  8
0
 62
7
100
AcDbSpline
 70
8
 71
3
 72
8
 73
4
 74
0
 40
0
 40
0
 40
0
 40
0
 40
1
 40
1
 40
1
 40
1
 10
23.176867
 20
-1.934682
 30
0.0
 10
22.805586
 20
-2.149041
 30
0.0
 10
22.348148
 20
-2.149041
 30
0.0
 10
21.976867
 20
-1.934682
 30
0.0
  0
SPLINE
  5
18f
100
AcDbEntity
  8
0
 62
7
100
AcDbSpline
 70
8
 71
3
 72
8
 73
4
 74
0
 40
0
 40
0
 40
0
 40
0
 40
1
 40
1
 40
1
 40
1
 10
21.976867
 20
-1.934682
 30
0.0
 10
21.605586
 20
-1.720322
 30
0.0
 10
21.376867
 20
-1.324170
 30
0.0
 10
21.376867
 20
-0.895451
 30
0.0
  0
SPLINE
  5
190
100
AcDbEntity
  8
0
 62
7
100
AcDbSpline
 70
8
 71
3
 72
8
 73
4
 74
0
 40
0
 40
0
 40
0
 40
0
 40
1
 40
1
 40
1
 40
1
 10
21.376867
 20
-0.895451
 30
0.0
 10
21.376867
 20
-0.466732
 30
0.0
 10
21.605586
 20
-0.070580
 30
0.0
 10
21.976867
 20
0.143780
 30
0.0
  0
SPLINE
  5
191
100
AcDbEntity
  8
0
 62
7
100
AcDbSpline
 70
8
 71
3
 72
8
 73
4
 74
0
 40
0
 40
0
 40
0
 40
0
 40
1
 40
1
 40
1
 40
1
 10
21.976867
 20
0.143780
 30
0.0
 10
22.348148
 20
0.358139
 30
0.0
 10
22.805586
 20
0.358139
 30
0.0
 10
23.176867
 20
0.143780
 30
0.0
  0
SPLINE
  5
192
100
AcDbEntity
  8
0
 62
7
100
AcDbSpline
 70
8
 71
3
 72
8
 73
4
 74
0
 40
0
 40
0
 40
0
 40
0
 40
1
 40
1
 40
1
 40
1
 10
23.176867
 20
0.143780
 30
0.0
 10
23.548148
 20
-0.070580
 30
0.0
 10
23.776867
 20
-0.466732
 30
0.0
 10
23.776867
 20
-0.895451
 30
0.0
  0
LWPOLYLINE
  5
193
100
AcDbEntity
  8
0
 62
7
100
AcDbPolyline
 90
1
 70
1
 10
3.776958
 20
-20.895411
 30
0.0
  0
SPLINE
  5
194
100
AcDbEntity
  8
0
 62
7
100
AcDbSpline
 70
8
 71
3
 72
8
 73
4
 74
0
 40
0
 40
0
 40
0
 40
0
 40
1
 40
1
 40
1
 40
1
 10
98.776974
 20
-0.895451
 30
0.0
 10
98.776974
 20
-1.558193
 30
0.0
 10
98.239716
 20
-2.095451
 30
0.0
 10
97.576974
 20
-2.095451
 30
0.0
  0
SPLINE
  5
195
100
AcDbEntity
  8
0
 62
7
100
AcDbSpline
 70
8
 71
3
 72
8
 73
4
 74
0
 40
0
 40
0
 40
0
 40
0
 40
1
 40
1
 40
1
 40
1
 10
97.576974
 20
-2.095451
 30
0.0
 10
96.914232
 20
-2.095451
 30
0.0
 10
96.376974
 20
-1.558193
 30
0.0
 10
96.376974
 20
-0.895451
 30
0.0
  0
SPLINE
  5
196
100
AcDbEntity
  8
0
 62
7
100
AcDbSpline
 70
8
 71
3
 72
8
 73
4
 74
0
 40
0
 40
0
 40
0
 40
0
 40
1
 40
1
 40
1
 40
1
 10
96.376974
 20
-0.895451
 30
0.0
 10
96.376974
 20
-0.232709
 30
0.0
 10
96.914232
 20
0.304549
 30
0.0
 10
97.576974
 20
0.304549
 30
0.0
  0
SPLINE
  5
197
100
AcDbEntity
  8
0
 62
7
100
AcDbSpline
 70
8
 71
3
 72
8
 73
4
 74
0
 40
0
 40
0
 40
0
 40
0
 40
1
 40
1
 40
1
 40
1
 10
97.576974
 20
0.304549
 30
0.0
 10
98.239716
 20
0.304549
 30
0.0
 10
98.776974
 20
-0.232709
 30
0.0
 10
98.776974
 20
-0.895451
 30
0.0
  0
LWPOLYLINE
  5
198
100
AcDbEntity
  8
0
 62
7
100
AcDbPolyline
 90
1
 70
1
 10
23.776867
 20
-0.895451
 30
0.0
  0
SPLINE
  5
199
100
AcDbEntity
  8
0
 62
7
100
AcDbSpline
 70
8
 71
3
 72
8
 73
4
 74
0
 40
0
 40
0
 40
0
 40
0
 40
1
 40
1
 40
1
 40
1
 10
168.776833
 20
-0.895451
 30
0.0
 10
168.776833
 20
-1.324170
 30
0.0
 10
168.548114
 20
-1.720322
 30
0.0
 10
168.176833
 20
-1.934682
 30
0.0
  0
SPLINE
  5
19a
100
AcDbEntity
  8
0
 62
7
100
AcDbSpline
 70
8
 71
3
 72
8
 73
4
 74
0
 40
0
 40
0
 40
0
 40
0
 40
1
 40
1
 40
1
 40
1
 10
168.176833
 20
-1.934682
 30
0.0
 10
167.805551
 20
-2.149041
 30
0.0
 10
167.348114
 20
-2.149041
 30
0.0
 10
166.976832
 20
-1.934682
 30
0.0
  0
SPLINE
  5
19b
100
AcDbEntity
  8
0
 62
7
100
AcDbSpline
 70
8
 71
3
 72
8
 73
4
 74
0
 40
0
 40
0
 40
0
 40
0
 40
1
 40
1
 40
1
 40
1
 10
166.976832
 20
-1.934682
 30
0.0
 10
166.605551
 20
-1.720322
 30
0.0
 10
166.376832
 20
-1.324170
 30
0.0
 10
166.376832
 20
-0.895451
 30
0.0
  0
SPLINE
  5
19c
100
AcDbEntity
  8
0
 62
7
100
AcDbSpline
 70
8
 71
3
 72
8
 73
4
 74
0
 40
0
 40
0
 40
0
 40
0
 40
1
 40
1
 40
1
 40
1
 10
166.376832
 20
-0.895451
 30
0.0
 10
166.376832
 20
-0.466732
 30
0.0
 10
166.605551
 20
-0.070580
 30
0.0
 10
166.976832
 20
0.143780
 30
0.0
  0
SPLINE
  5
19d
100
AcDbEntity
  8
0
 62
7
100
AcDbSpline
 70
8
 71
3
 72
8
 73
4
 74
0
 40
0
 40
0
 40
0
 40
0
 40
1
 40
1
 40
1
 40
1
 10
166.976832
 20
0.143780
 30
0.0
 10
167.348114
 20
0.358139
 30
0.0
 10
167.805551
 20
0.358139
 30
0.0
 10
168.176833
 20
0.143780
 30
0.0
  0
SPLINE
  5
19e
100
AcDbEntity
  8
0
 62
7
100
AcDbSpline
 70
8
 71
3
 72
8
 73
4
 74
0
 40
0
 40
0
 40
0
 40
0
 40
1
 40
1
 40
1
 40
1
 10
168.176833
 20
0.143780
 30
0.0
 10
168.548114
 20
-0.070580
 30
0.0
 10
168.776833
 20
-0.466732
 30
0.0
 10
168.776833
 20
-0.895451
 30
0.0
  0
LWPOLYLINE
  5
19f
100
AcDbEntity
  8
0
 62
7
100
AcDbPolyline
 90
1
 70
1
 10
98.776974
 20
-0.895451
 30
0.0
  0
SPLINE
  5
1a0
100
AcDbEntity
  8
0
 62
7
100
AcDbSpline
 70
8
 71
3
 72
8
 73
4
 74
0
 40
0
 40
0
 40
0
 40
0
 40
1
 40
1
 40
1
 40
1
 10
203.777018
 20
-0.895451
 30
0.0
 10
203.777018
 20
-1.324170
 30
0.0
 10
203.548300
 20
-1.720322
 30
0.0
 10
203.177018
 20
-1.934682
 30
0.0
  0
SPLINE
  5
1a1
100
AcDbEntity
  8
0
 62
7
100
AcDbSpline
 70
8
 71
3
 72
8
 73
4
 74
0
 40
0
 40
0
 40
0
 40
0
 40
1
 40
1
 40
1
 40
1
 10
203.177018
 20
-1.934682
 30
0.0
 10
202.805737
 20
-2.149041
 30
0.0
 10
202.348299
 20
-2.149041
 30
0.0
 10
201.977018
 20
-1.934682
 30
0.0
  0
SPLINE
  5
1a2
100
AcDbEntity
  8
0
 62
7
100
AcDbSpline
 70
8
 71
3
 72
8
 73
4
 74
0
 40
0
 40
0
 40
0
 40
0
 40
1
 40
1
 40
1
 40
1
 10
201.977018
 20
-1.934682
 30
0.0
 10
201.605737
 20
-1.720322
 30
0.0
 10
201.377018
 20
-1.324170
 30
0.0
 10
201.377018
 20
-0.895451
 30
0.0
  0
SPLINE
  5
1a3
100
AcDbEntity
  8
0
 62
7
100
AcDbSpline
 70
8
 71
3
 72
8
 73
4
 74
0
 40
0
 40
0
 40
0
 40
0
 40
1
 40
1
 40
1
 40
1
 10
201.377018
 20
-0.895451
 30
0.0
 10
201.377018
 20
-0.466732
 30
0.0
 10
201.605737
 20
-0.070580
 30
0.0
 10
201.977018
 20
0.143780
 30
0.0
  0
SPLINE
  5
1a4
100
AcDbEntity
  8
0
 62
7
100
AcDbSpline
 70
8
 71
3
 72
8
 73
4
 74
0
 40
0
 40
0
 40
0
 40
0
 40
1
 40
1
 40
1
 40
1
 10
201.977018
 20
0.143780
 30
0.0
 10
202.348299
 20
0.358139
 30
0.0
 10
202.805737
 20
0.358139
 30
0.0
 10
203.177018
 20
0.143780
 30
0.0
  0
SPLINE
  5
1a5
100
AcDbEntity
  8
0
 62
7
100
AcDbSpline
 70
8
 71
3
 72
8
 73
4
 74
0
 40
0
 40
0
 40
0
 40
0
 40
1
 40
1
 40
1
 40
1
 10
203.177018
 20
0.143780
 30
0.0
 10
203.548300
 20
-0.070580
 30
0.0
 10
203.777018
 20
-0.466732
 30
0.0
 10
203.777018
 20
-0.895451
 30
0.0
  0
LWPOLYLINE
  5
1a6
100
AcDbEntity
  8
0
 62
7
100
AcDbPolyline
 90
1
 70
1
 10
168.776833
 20
-0.895451
 30
0.0
  0
SPLINE
  5
1a7
100
AcDbEntity
  8
0
 62
7
100
AcDbSpline
 70
8
 71
3
 72
8
 73
4
 74
0
 40
0
 40
0
 40
0
 40
0
 40
1
 40
1
 40
1
 40
1
 10
283.776341
 20
-0.895451
 30
0.0
 10
283.776341
 20
-1.324170
 30
0.0
 10
283.547622
 20
-1.720322
 30
0.0
 10
283.176341
 20
-1.934682
 30
0.0
  0
SPLINE
  5
1a8
100
AcDbEntity
  8
0
 62
7
100
AcDbSpline
 70
8
 71
3
 72
8
 73
4
 74
0
 40
0
 40
0
 40
0
 40
0
 40
1
 40
1
 40
1
 40
1
 10
283.176341
 20
-1.934682
 30
0.0
 10
282.805059
 20
-2.149041
 30
0.0
 10
282.347622
 20
-2.149041
 30
0.0
 10
281.976341
 20
-1.934682
 30
0.0
  0
SPLINE
  5
1a9
100
AcDbEntity
  8
0
 62
7
100
AcDbSpline
 70
8
 71
3
 72
8
 73
4
 74
0
 40
0
 40
0
 40
0
 40
0
 40
1
 40
1
 40
1
 40
1
 10
281.976341
 20
-1.934682
 30
0.0
 10
281.605059
 20
-1.720322
 30
0.0
 10
281.376340
 20
-1.324170
 30
0.0
 10
281.376340
 20
-0.895451
 30
0.0
  0
SPLINE
  5
1aa
100
AcDbEntity
  8
0
 62
7
100
AcDbSpline
 70
8
 71
3
 72
8
 73
4
 74
0
 40
0
 40
0
 40
0
 40
0
 40
1
 40
1
 40
1
 40
1
 10
281.376340
 20
-0.895451
 30
0.0
 10
281.376340
 20
-0.466732
 30
0.0
 10
281.605059
 20
-0.070580
 30
0.0
 10
281.976341
 20
0.143780
 30
0.0
  0
SPLINE
  5
1ab
100
AcDbEntity
  8
0
 62
7
100
AcDbSpline
 70
8
 71
3
 72
8
 73
4
 74
0
 40
0
 40
0
 40
0
 40
0
 40
1
 40
1
 40
1
 40
1
 10
281.976341
 20
0.143780
 30
0.0
 10
282.347622
 20
0.358139
 30
0.0
 10
282.805059
 20
0.358139
 30
0.0
 10
283.176341
 20
0.143780
 30
0.0
  0
SPLINE
  5
1ac
100
AcDbEntity
  8
0
 62
7
100
AcDbSpline
 70
8
 71
3
 72
8
 73
4
 74
0
 40
0
 40
0
 40
0
 40
0
 40
1
 40
1
 40
1
 40
1
 10
283.176341
 20
0.143780
 30
0.0
 10
283.547622
 20
-0.070580
 30
0.0
 10
283.776341
 20
-0.466732
 30
0.0
 10
283.776341
 20
-0.895451
 30
0.0
  0
LWPOLYLINE
  5
1ad
100
AcDbEntity
  8
0
 62
7
100
AcDbPolyline
 90
1
 70
1
 10
203.777018
 20
-0.895451
 30
0.0
  0
SPLINE
  5
1ae
100
AcDbEntity
  8
0
 62
7
100
AcDbSpline
 70
8
 71
3
 72
8
 73
4
 74
0
 40
0
 40
0
 40
0
 40
0
 40
1
 40
1
 40
1
 40
1
 10
353.776199
 20
-0.895451
 30
0.0
 10
353.776199
 20
-1.324170
 30
0.0
 10
353.547480
 20
-1.720322
 30
0.0
 10
353.176199
 20
-1.934682
 30
0.0
  0
SPLINE
  5
1af
100
AcDbEntity
  8
0
 62
7
100
AcDbSpline
 70
8
 71
3
 72
8
 73
4
 74
0
 40
0
 40
0
 40
0
 40
0
 40
1
 40
1
 40
1
 40
1
 10
353.176199
 20
-1.934682
 30
0.0
 10
352.804918
 20
-2.149041
 30
0.0
 10
352.347480
 20
-2.149041
 30
0.0
 10
351.976199
 20
-1.934682
 30
0.0
  0
SPLINE
  5
1b0
100
AcDbEntity
  8
0
 62
7
100
AcDbSpline
 70
8
 71
3
 72
8
 73
4
 74
0
 40
0
 40
0
 40
0
 40
0
 40
1
 40
1
 40
1
 40
1
 10
351.976199
 20
-1.934682
 30
0.0
 10
351.604917
 20
-1.720322
 30
0.0
 10
351.376199
 20
-1.324170
 30
0.0
 10
351.376199
 20
-0.895451
 30
0.0
  0
SPLINE
  5
1b1
100
AcDbEntity
  8
0
 62
7
100
AcDbSpline
 70
8
 71
3
 72
8
 73
4
 74
0
 40
0
 40
0
 40
0
 40
0
 40
1
 40
1
 40
1
 40
1
 10
351.376199
 20
-0.895451
 30
0.0
 10
351.376199
 20
-0.466732
 30
0.0
 10
351.604917
 20
-0.070580
 30
0.0
 10
351.976199
 20
0.143780
 30
0.0
  0
SPLINE
  5
1b2
100
AcDbEntity
  8
0
 62
7
100
AcDbSpline
 70
8
 71
3
 72
8
 73
4
 74
0
 40
0
 40
0
 40
0
 40
0
 40
1
 40
1
 40
1
 40
1
 10
351.976199
 20
0.143780
 30
0.0
 10
352.347480
 20
0.358139
 30
0.0
 10
352.804918
 20
0.358139
 30
0.0
 10
353.176199
 20
0.143780
 30
0.0
  0
SPLINE
  5
1b3
100
AcDbEntity
  8
0
 62
7
100
AcDbSpline
 70
8
 71
3
 72
8
 73
4
 74
0
 40
0
 40
0
 40
0
 40
0
 40
1
 40
1
 40
1
 40
1
 10
353.176199
 20
0.143780
 30
0.0
 10
353.547480
 20
-0.070580
 30
0.0
 10
353.776199
 20
-0.466732
 30
0.0
 10
353.776199
 20
-0.895451
 30
0.0
  0
LWPOLYLINE
  5
1b4
100
AcDbEntity
  8
0
 62
7
100
AcDbPolyline
 90
1
 70
1
 10
283.776341
 20
-0.895451
 30
0.0
  0
SPLINE
  5
1b5
100
AcDbEntity
  8
0
 62
7
100
AcDbSpline
 70
8
 71
3
 72
8
 73
4
 74
0
 40
0
 40
0
 40
0
 40
0
 40
1
 40
1
 40
1
 40
1
 10
378.777418
 20
-20.895411
 30
0.0
 10
378.777418
 20
-21.558152
 30
0.0
 10
378.240160
 20
-22.095410
 30
0.0
 10
377.577418
 20
-22.095410
 30
0.0
  0
SPLINE
  5
1b6
100
AcDbEntity
  8
0
 62
7
100
AcDbSpline
 70
8
 71
3
 72
8
 73
4
 74
0
 40
0
 40
0
 40
0
 40
0
 40
1
 40
1
 40
1
 40
1
 10
377.577418
 20
-22.095410
 30
0.0
 10
376.914677
 20
-22.095410
 30
0.0
 10
376.377418
 20
-21.558152
 30
0.0
 10
376.377418
 20
-20.895411
 30
0.0
  0
SPLINE
  5
1b7
100
AcDbEntity
  8
0
 62
7
100
AcDbSpline
 70
8
 71
3
 72
8
 73
4
 74
0
 40
0
 40
0
 40
0
 40
0
 40
1
 40
1
 40
1
 40
1
 10
376.377418
 20
-20.895411
 30
0.0
 10
376.377418
 20
-20.466692
 30
0.0
 10
376.606137
 20
-20.070539
 30
0.0
 10
376.977418
 20
-19.856180
 30
0.0
  0
SPLINE
  5
1b8
100
AcDbEntity
  8
0
 62
7
100
AcDbSpline
 70
8
 71
3
 72
8
 73
4
 74
0
 40
0
 40
0
 40
0
 40
0
 40
1
 40
1
 40
1
 40
1
 10
376.977418
 20
-19.856180
 30
0.0
 10
377.348700
 20
-19.641821
 30
0.0
 10
377.806137
 20
-19.641821
 30
0.0
 10
378.177418
 20
-19.856180
 30
0.0
  0
SPLINE
  5
1b9
100
AcDbEntity
  8
0
 62
7
100
AcDbSpline
 70
8
 71
3
 72
8
 73
4
 74
0
 40
0
 40
0
 40
0
 40
0
 40
1
 40
1
 40
1
 40
1
 10
378.177418
 20
-19.856180
 30
0.0
 10
378.548700
 20
-20.070539
 30
0.0
 10
378.777418
 20
-20.466692
 30
0.0
 10
378.777418
 20
-20.895411
 30
0.0
  0
LWPOLYLINE
  5
1ba
100
AcDbEntity
  8
0
 62
7
100
AcDbPolyline
 90
1
 70
1
 10
353.776199
 20
-0.895451
 30
0.0
  0
SPLINE
  5
1bb
100
AcDbEntity
  8
0
 62
7
100
AcDbSpline
 70
8
 71
3
 72
8
 73
4
 74
0
 40
0
 40
0
 40
0
 40
0
 40
1
 40
1
 40
1
 40
1
 10
358.777459
 20
-130.895447
 30
0.0
 10
358.777459
 20
-131.558189
 30
0.0
 10
358.240200
 20
-132.095447
 30
0.0
 10
357.577459
 20
-132.095447
 30
0.0
  0
SPLINE
  5
1bc
100
AcDbEntity
  8
0
 62
7
100
AcDbSpline
 70
8
 71
3
 72
8
 73
4
 74
0
 40
0
 40
0
 40
0
 40
0
 40
1
 40
1
 40
1
 40
1
 10
357.577459
 20
-132.095447
 30
0.0
 10
356.914717
 20
-132.095447
 30
0.0
 10
356.377459
 20
-131.558189
 30
0.0
 10
356.377459
 20
-130.895447
 30
0.0
  0
SPLINE
  5
1bd
100
AcDbEntity
  8
0
 62
7
100
AcDbSpline
 70
8
 71
3
 72
8
 73
4
 74
0
 40
0
 40
0
 40
0
 40
0
 40
1
 40
1
 40
1
 40
1
 10
356.377459
 20
-130.895447
 30
0.0
 10
356.377459
 20
-130.232705
 30
0.0
 10
356.914717
 20
-129.695447
 30
0.0
 10
357.577459
 20
-129.695447
 30
0.0
  0
SPLINE
  5
1be
100
AcDbEntity
  8
0
 62
7
100
AcDbSpline
 70
8
 71
3
 72
8
 73
4
 74
0
 40
0
 40
0
 40
0
 40
0
 40
1
 40
1
 40
1
 40
1
 10
357.577459
 20
-129.695447
 30
0.0
 10
358.240200
 20
-129.695447
 30
0.0
 10
358.777459
 20
-130.232705
 30
0.0
 10
358.777459
 20
-130.895447
 30
0.0
  0
LWPOLYLINE
  5
1bf
100
AcDbEntity
  8
0
 62
7
100
AcDbPolyline
 90
1
 70
1
 10
378.777418
 20
-20.895411
 30
0.0
  0
SPLINE
  5
1c0
100
AcDbEntity
  8
0
 62
7
100
AcDbSpline
 70
8
 71
3
 72
8
 73
4
 74
0
 40
0
 40
0
 40
0
 40
0
 40
1
 40
1
 40
1
 40
1
 10
378.777418
 20
-110.895487
 30
0.0
 10
378.777418
 20
-111.558229
 30
0.0
 10
378.240160
 20
-112.095487
 30
0.0
 10
377.577418
 20
-112.095487
 30
0.0
  0
SPLINE
  5
1c1
100
AcDbEntity
  8
0
 62
7
100
AcDbSpline
 70
8
 71
3
 72
8
 73
4
 74
0
 40
0
 40
0
 40
0
 40
0
 40
1
 40
1
 40
1
 40
1
 10
377.577418
 20
-112.095487
 30
0.0
 10
376.914677
 20
-112.095487
 30
0.0
 10
376.377418
 20
-111.558229
 30
0.0
 10
376.377418
 20
-110.895487
 30
0.0
  0
SPLINE
  5
1c2
100
AcDbEntity
  8
0
 62
7
100
AcDbSpline
 70
8
 71
3
 72
8
 73
4
 74
0
 40
0
 40
0
 40
0
 40
0
 40
1
 40
1
 40
1
 40
1
 10
376.377418
 20
-110.895487
 30
0.0
 10
376.377418
 20
-110.466769
 30
0.0
 10
376.606137
 20
-110.070616
 30
0.0
 10
376.977418
 20
-109.856257
 30
0.0
  0
SPLINE
  5
1c3
100
AcDbEntity
  8
0
 62
7
100
AcDbSpline
 70
8
 71
3
 72
8
 73
4
 74
0
 40
0
 40
0
 40
0
 40
0
 40
1
 40
1
 40
1
 40
1
 10
376.977418
 20
-109.856257
 30
0.0
 10
377.348700
 20
-109.641897
 30
0.0
 10
377.806137
 20
-109.641897
 30
0.0
 10
378.177418
 20
-109.856257
 30
0.0
  0
SPLINE
  5
1c4
100
AcDbEntity
  8
0
 62
7
100
AcDbSpline
 70
8
 71
3
 72
8
 73
4
 74
0
 40
0
 40
0
 40
0
 40
0
 40
1
 40
1
 40
1
 40
1
 10
378.177418
 20
-109.856257
 30
0.0
 10
378.548700
 20
-110.070616
 30
0.0
 10
378.777418
 20
-110.466769
 30
0.0
 10
378.777418
 20
-110.895487
 30
0.0
  0
LWPOLYLINE
  5
1c5
100
AcDbEntity
  8
0
 62
7
100
AcDbPolyline
 90
1
 70
1
 10
358.777459
 20
-130.895447
 30
0.0
  0
LWPOLYLINE
  5
1c6
100
AcDbEntity
  8
0
 62
7
100
AcDbPolyline
 90
1
 70
1
 10
378.777418
 20
-110.895487
 30
0.0
  0
ENDSEC
  0
SECTION
  2
OBJECTS
  0
DICTIONARY
  5
C
330
0
100
AcDbDictionary
  3
ACAD_GROUP
350
D
  3
ACAD_MLINESTYLE
350
17
  0
DICTIONARY
  5
D
330
C
100
AcDbDictionary
  0
DICTIONARY
  5
1A
330
C
100
AcDbDictionary
  0
DICTIONARY
  5
17
330
C
100
AcDbDictionary
  3
STANDARD
350
18
  0
DICTIONARY
  5
19
330
C
100
AcDbDictionary
  0
ENDSEC
  0
EOF
