<?xml version="1.0" standalone="no"?>
 <!DOCTYPE svg PUBLIC "-//W3C//DTD SVG 1.1//EN" 
 "http://www.w3.org/Graphics/SVG/1.1/DTD/svg11.dtd"> 
<svg
  xmlns:svg="http://www.w3.org/2000/svg"
  xmlns="http://www.w3.org/2000/svg"
  xmlns:xlink="http://www.w3.org/1999/xlink"
  version="1.1"
  width="38.013640cm" height="17.802860cm" viewBox="0 0 149660 70090">
<title>SVG Picture created as orthoCode-Eco1_User.svg date 2020/09/04 19:19:41 </title>
  <desc>Picture generated by PCBNEW </desc>
<g style="fill:#000000; fill-opacity:1;stroke:#000000; stroke-opacity:1;
stroke-linecap:round; stroke-linejoin:round;"
 transform="translate(0 0) scale(1 1)">
</g>
<g style="fill:#000000; fill-opacity:0.0; 
stroke:#000000; stroke-width:-0.000393701; stroke-opacity:1; 
stroke-linecap:round; stroke-linejoin:round;">
</g>
<g style="fill:#000000; fill-opacity:0.0; 
stroke:#000000; stroke-width:59.0551; stroke-opacity:1; 
stroke-linecap:round; stroke-linejoin:round;">
<path d="M29 51754
L29 2542
" />
<path d="M43336 53723
L1998 53723
" />
<path d="M53179 69471
L43336 53723
" />
<path d="M92549 69471
L53179 69471
" />
<path d="M102391 53723
L92549 69471
" />
<path d="M147667 53723
L102391 53723
" />
<path d="M149635 2542
L149635 51754
" />
<path d="M1998 573
L147667 573
" />
<path d="M149636 2542.32 A1968.5 1968.5 0.0 0 0 147667 573.819" />
<path d="M147667 53723.4 A1968.5 1968.5 0.0 0 0 149636 51754.9" />
<path d="M29.528 51754.9 A1968.5 1968.5 0.0 0 0 1998.03 53723.4" />
<path d="M1998.03 573.819 A1968.5 1968.5 0.0 0 0 29.528 2542.32" />
</g>
<g style="fill:#000000; fill-opacity:0.0; 
stroke:#000000; stroke-width:47.2441; stroke-opacity:1; 
stroke-linecap:round; stroke-linejoin:round;">
<circle cx="121093" cy="46833.7" r="472.441" /> 
<circle cx="72864.2" cy="46833.7" r="472.441" /> 
<circle cx="72864.2" cy="57660.4" r="472.441" /> 
<circle cx="42352.4" cy="46833.7" r="472.441" /> 
<circle cx="6919.29" cy="46833.7" r="472.441" /> 
<circle cx="16761.8" cy="7463.58" r="472.441" /> 
<circle cx="65974.4" cy="7463.58" r="472.441" /> 
<circle cx="64005.9" cy="27148.6" r="472.441" /> 
<circle cx="81722.4" cy="27148.6" r="472.441" /> 
<circle cx="79753.9" cy="7463.58" r="472.441" /> 
<circle cx="142746" cy="7463.58" r="472.441" /> 
<circle cx="140778" cy="40928.1" r="472.441" /> 
<circle cx="121093" cy="46833.7" r="472.441" /> 
<circle cx="111250" cy="52739.2" r="472.441" /> 
<circle cx="88612.2" cy="68487.2" r="472.441" /> 
<circle cx="57116.1" cy="68487.2" r="472.441" /> 
<circle cx="38415.4" cy="52739.2" r="472.441" /> 
<circle cx="8887.8" cy="52739.2" r="472.441" /> 
<circle cx="8887.8" cy="1558.07" r="472.441" /> 
<circle cx="38415.4" cy="1558.07" r="472.441" /> 
<circle cx="65974.4" cy="1558.07" r="472.441" /> 
<circle cx="79753.9" cy="1558.07" r="472.441" /> 
<circle cx="111250" cy="1558.07" r="472.441" /> 
<circle cx="138809" cy="1558.07" r="472.441" /> 
<circle cx="140778" cy="52739.2" r="472.441" /> 
<g >
</g>
<g >
</g>
<g >
</g>
<g >
</g>
<g >
</g>
<g >
</g>
<g >
</g>
<g >
</g>
<g >
</g>
<g >
</g>
<g >
</g>
<g >
</g>
<g >
</g>
<g >
</g>
<g >
</g>
<g >
</g>
<g >
</g>
<g >
</g>
<g >
</g>
<g >
</g>
<g >
</g>
<g >
</g>
<g >
</g>
<g >
</g>
<g >
</g>
<g >
</g>
<g >
</g>
<g >
</g>
<g >
</g>
<g >
</g>
<g >
</g>
<g >
</g>
<g >
</g>
<g >
</g>
<g >
</g>
<g >
</g>
<g >
</g>
<g >
</g>
<g >
</g>
<g >
</g>
<g >
</g>
<g >
</g>
<g >
</g>
<g >
</g>
<g >
</g>
<g >
</g>
<g >
</g>
<g >
</g>
<g >
</g>
<g >
</g>
<g >
</g>
<g >
</g>
<g >
</g>
<g >
</g>
<g >
</g>
<g >
</g>
<g >
</g>
<g >
</g>
<g >
</g>
<g >
</g>
<g >
</g>
<g >
</g>
<g >
</g>
<g >
</g>
<g >
</g>
<g >
</g>
<g >
</g>
<g >
</g>
<g >
</g>
<g >
</g>
<g >
</g>
<g >
</g>
<g >
</g>
<g >
</g>
<g >
</g>
<g >
</g>
<g >
</g>
<g >
</g>
<g >
</g>
<g >
</g>
<g >
</g>
<g >
</g>
<g >
</g>
<g >
</g>
<g >
</g>
<g >
</g>
<g >
</g>
<g >
</g>
<g >
</g>
<g >
</g>
<g >
</g>
<g >
</g>
<g >
</g>
<g >
</g>
<g >
</g>
<g >
</g>
<g >
</g>
<g >
</g>
<g >
</g>
<g >
</g>
<g >
</g>
<g >
</g>
<g >
</g>
<g >
</g>
<g >
</g>
<g >
</g>
<g >
</g>
<g >
</g>
<g >
</g>
<g >
</g>
<g >
</g>
<g >
</g>
<g >
</g>
<g >
</g>
<g >
</g>
<g >
</g>
<g >
</g>
<g >
</g>
<g >
</g>
<g >
</g>
<g >
</g>
<g >
</g>
<g >
</g>
<g >
</g>
<g >
</g>
<g >
</g>
<g >
</g>
<g >
</g>
<g >
</g>
<g >
</g>
<g >
</g>
<g >
</g>
<g >
</g>
<g >
</g>
<g >
</g>
<g >
</g>
<g >
</g>
<g >
</g>
<g >
</g>
<g >
</g>
<g >
</g>
<g >
</g>
<g >
</g>
<g >
</g>
<g >
</g>
<g >
</g>
<g >
</g>
<g >
</g>
<g >
</g>
<g >
</g>
<g >
</g>
<g >
</g>
<g >
</g>
<g >
</g>
<g >
</g>
<g >
</g>
<g >
</g>
<g >
</g>
<g >
</g>
<g >
</g>
<g >
</g>
<g >
</g>
<g >
</g>
<g >
</g>
<g >
</g>
<g >
</g>
<g >
</g>
<g >
</g>
<g >
</g>
<g >
</g>
<g >
</g>
<g >
</g>
<g >
</g>
<g >
</g>
<g >
</g>
<g >
</g>
<g >
</g>
<g >
</g>
<g >
</g>
<g >
</g>
<g >
</g>
<g >
</g>
<g >
</g>
<g >
</g>
<g >
</g>
<g >
</g>
<g >
</g>
<g >
</g>
<g >
</g>
<g >
</g>
<g >
</g>
<g >
</g>
<g >
</g>
<g >
</g>
<g >
</g>
<g >
</g>
<g >
</g>
<g >
</g>
<g >
</g>
<g >
</g>
<g >
</g>
<g >
</g>
<g >
</g>
<g >
</g>
<g >
</g>
<g >
</g>
<g >
</g>
<g >
</g>
<g >
</g>
<g >
</g>
<g >
</g>
<g >
</g>
<g >
</g>
<g >
</g>
<g >
</g>
</g> 
</svg>
