<?xml version="1.0" standalone="no"?>
 <!DOCTYPE svg PUBLIC "-//W3C//DTD SVG 1.1//EN" 
 "http://www.w3.org/Graphics/SVG/1.1/DTD/svg11.dtd"> 
<svg
  xmlns:svg="http://www.w3.org/2000/svg"
  xmlns="http://www.w3.org/2000/svg"
  xmlns:xlink="http://www.w3.org/1999/xlink"
  version="1.1"
  width="38.013640cm" height="17.802860cm" viewBox="0 0 149660 70090">
<title>SVG Picture created as orthoCode-Eco2_User.svg date 2020/09/04 19:19:41 </title>
  <desc>Picture generated by PCBNEW </desc>
<g style="fill:#000000; fill-opacity:1;stroke:#000000; stroke-opacity:1;
stroke-linecap:round; stroke-linejoin:round;"
 transform="translate(0 0) scale(1 1)">
</g>
<g style="fill:#000000; fill-opacity:0.0; 
stroke:#000000; stroke-width:-0.000393701; stroke-opacity:1; 
stroke-linecap:round; stroke-linejoin:round;">
</g>
<g style="fill:#000000; fill-opacity:0.0; 
stroke:#000000; stroke-width:59.0551; stroke-opacity:1; 
stroke-linecap:round; stroke-linejoin:round;">
<path d="M64990 26164
L64990 13369
" />
<path d="M64990 43880
L64990 28132
" />
<path d="M80738 28132
L80738 43880
" />
<path d="M80738 13369
L80738 26164
" />
<path d="M64990.2 26164.4 A1391.94 1391.94 0.0 1 0 64990.2 28132.9" />
<path d="M80738.2 28132.9 A1391.94 1391.94 0.0 1 0 80738.2 26164.4" />
<path d="M143730 51754
L145698 51754
" />
<path d="M142746 53723
L143730 51754
" />
<path d="M138809 53723
L142746 53723
" />
<path d="M137824 51754
L138809 53723
" />
<path d="M114202 51754
L137824 51754
" />
<path d="M113218 53723
L114202 51754
" />
<path d="M109281 53723
L113218 53723
" />
<path d="M108297 51754
L109281 53723
" />
<path d="M102391 51754
L108297 51754
" />
<path d="M92549 67502
L102391 51754
" />
<path d="M91564 67502
L92549 67502
" />
<path d="M90580 69471
L91564 67502
" />
<path d="M86643 69471
L90580 69471
" />
<path d="M85659 67502
L86643 69471
" />
<path d="M60068 67502
L85659 67502
" />
<path d="M59084 69471
L60068 67502
" />
<path d="M55147 69471
L59084 69471
" />
<path d="M54163 67502
L55147 69471
" />
<path d="M53179 67502
L54163 67502
" />
<path d="M43336 51754
L53179 67502
" />
<path d="M41368 51754
L43336 51754
" />
<path d="M40383 53723
L41368 51754
" />
<path d="M36446 53723
L40383 53723
" />
<path d="M35462 51754
L36446 53723
" />
<path d="M11840 51754
L35462 51754
" />
<path d="M10856 53723
L11840 51754
" />
<path d="M6919 53723
L10856 53723
" />
<path d="M5935 51754
L6919 53723
" />
<path d="M3966 51754
L5935 51754
" />
<path d="M1998 4510
L1998 49786
" />
<path d="M5935 2542
L3966 2542
" />
<path d="M6919 573
L5935 2542
" />
<path d="M10856 573
L6919 573
" />
<path d="M11840 2542
L10856 573
" />
<path d="M35462 2542
L11840 2542
" />
<path d="M36446 573
L35462 2542
" />
<path d="M40383 573
L36446 573
" />
<path d="M41368 2542
L40383 573
" />
<path d="M63021 2542
L41368 2542
" />
<path d="M64005 573
L63021 2542
" />
<path d="M67942 573
L64005 573
" />
<path d="M68927 2542
L67942 573
" />
<path d="M76801 2542
L68927 2542
" />
<path d="M77785 573
L76801 2542
" />
<path d="M81722 573
L77785 573
" />
<path d="M82706 2542
L81722 573
" />
<path d="M108297 2542
L82706 2542
" />
<path d="M109281 573
L108297 2542
" />
<path d="M113218 573
L109281 573
" />
<path d="M114202 2542
L113218 573
" />
<path d="M135856 2542
L114202 2542
" />
<path d="M136840 573
L135856 2542
" />
<path d="M140777 573
L136840 573
" />
<path d="M141761 2542
L140777 573
" />
<path d="M145698 2542
L141761 2542
" />
<path d="M147667 49786
L147667 4510
" />
<path d="M145699 51754.9 A1968.5 1968.5 0.0 0 0 147667 49786.4" />
<path d="M1998.03 49786.4 A1968.5 1968.5 0.0 0 0 3966.54 51754.9" />
<path d="M3966.54 2542.32 A1968.5 1968.5 0.0 0 0 1998.03 4510.83" />
<path d="M147667 4510.83 A1968.5 1968.5 0.0 0 0 145699 2542.32" />
<circle cx="72864.2" cy="46833.7" r="1391.94" /> 
<path d="M6919 12384
L7903 12384
" />
<path d="M6919 4510
L6919 12384
" />
<path d="M14793 4510
L6919 4510
" />
<path d="M14793 12384
L14793 4510
" />
<path d="M7903 12384
L14793 12384
" />
<path d="M22667 10416
L64005 10416
" />
<path d="M22667 4510
L22667 10416
" />
<path d="M64005 4510
L22667 4510
" />
<path d="M64005 10416
L64005 4510
" />
<path d="M126998 4510
L81722 4510
" />
<path d="M126998 10416
L126998 4510
" />
<path d="M81722 10416
L126998 10416
" />
<path d="M81722 4510
L81722 10416
" />
<path d="M79753 12384
L65974 12384
" />
<path d="M79753.9 44865.2 A984.252 984.252 0.0 0 0 80738.2 43880.9" />
<path d="M64990.2 43880.9 A984.252 984.252 0.0 0 0 65974.4 44865.2" />
<path d="M65974.4 12384.8 A984.252 984.252 0.0 0 0 64990.2 13369.1" />
<path d="M80738.2 13369.1 A984.252 984.252 0.0 0 0 79753.9 12384.8" />
<path d="M79753 44865
L65974 44865
" />
<circle cx="72864.2" cy="57660.4" r="1391.94" /> 
<circle cx="42352.4" cy="46833.7" r="1391.94" /> 
<circle cx="6919.29" cy="46833.7" r="1391.94" /> 
<circle cx="16761.8" cy="7463.58" r="1391.94" /> 
<circle cx="65974.4" cy="7463.58" r="1391.94" /> 
<circle cx="79753.9" cy="7463.58" r="1391.94" /> 
<circle cx="142746" cy="7463.58" r="1391.94" /> 
<circle cx="140778" cy="40928.1" r="1391.94" /> 
<circle cx="121093" cy="46833.7" r="1391.94" /> 
</g>
<g style="fill:#000000; fill-opacity:0.0; 
stroke:#000000; stroke-width:60; stroke-opacity:1; 
stroke-linecap:round; stroke-linejoin:round;">
<path d="M61331 52275
L62132 52490
" />
<path d="M61496 51656
L61331 52275
" />
<path d="M61805 51739
L61496 51656
" />
<path d="M62483 49209
L61805 51739
" />
<path d="M61189 48862
L62483 49209
" />
<path d="M61277 48533
L61189 48862
" />
<path d="M60215 48249
L61277 48533
" />
<path d="M60127 48577
L60215 48249
" />
<path d="M57808 47956
L60127 48577
" />
<path d="M57702 48352
L57808 47956
" />
<path d="M57258 48233
L57702 48352
" />
<path d="M56792 49972
L57258 48233
" />
<path d="M57236 50091
L56792 49972
" />
<path d="M57130 50487
L57236 50091
" />
<path d="M57430 50567
L57130 50487
" />
<path d="M57264 51185
L57430 50567
" />
<path d="M56820 51066
L57264 51185
" />
<path d="M55396 56379
L56820 51066
" />
<path d="M55841 56498
L55396 56379
" />
<path d="M55675 57116
L55841 56498
" />
<path d="M55375 57036
L55675 57116
" />
<path d="M55269 57432
L55375 57036
" />
<path d="M54825 57313
L55269 57432
" />
<path d="M54359 59051
L54825 57313
" />
<path d="M54803 59170
L54359 59051
" />
<path d="M54697 59566
L54803 59170
" />
<path d="M57016 60187
L54697 59566
" />
<path d="M56928 60516
L57016 60187
" />
<path d="M57990 60801
L56928 60516
" />
<path d="M58078 60472
L57990 60801
" />
<path d="M59372 60819
L58078 60472
" />
<path d="M60051 58288
L59372 60819
" />
<path d="M59741 58205
L60051 58288
" />
<path d="M59907 57587
L59741 58205
" />
<path d="M60709 57802
L59907 57587
" />
<path d="M62132 52490
L60709 57802
" />
</g>
<g style="fill:#000000; fill-opacity:0.0; 
stroke:#000000; stroke-width:47.2441; stroke-opacity:1; 
stroke-linecap:round; stroke-linejoin:round;">
<circle cx="111250" cy="52739.2" r="472.441" /> 
<circle cx="140778" cy="52739.2" r="472.441" /> 
<circle cx="138809" cy="1558.07" r="472.441" /> 
<circle cx="111250" cy="1558.07" r="472.441" /> 
<circle cx="88612.2" cy="68487.2" r="472.441" /> 
<circle cx="57116.1" cy="68487.2" r="472.441" /> 
<circle cx="38415.4" cy="52739.2" r="472.441" /> 
<circle cx="8887.8" cy="52739.2" r="472.441" /> 
<circle cx="8887.8" cy="1558.07" r="472.441" /> 
<circle cx="38415.4" cy="1558.07" r="472.441" /> 
<circle cx="65974.4" cy="1558.07" r="472.441" /> 
<circle cx="79753.9" cy="1558.07" r="472.441" /> 
</g>
<g style="fill:#000000; fill-opacity:0.0; 
stroke:#000000; stroke-width:60; stroke-opacity:1; 
stroke-linecap:round; stroke-linejoin:round;">
<path d="M85746 57587
L84945 57802
" />
<path d="M85912 58205
L85746 57587
" />
<path d="M85603 58288
L85912 58205
" />
<path d="M86281 60819
L85603 58288
" />
<path d="M87575 60472
L86281 60819
" />
<path d="M87663 60801
L87575 60472
" />
<path d="M88726 60516
L87663 60801
" />
<path d="M88638 60187
L88726 60516
" />
<path d="M90956 59566
L88638 60187
" />
<path d="M90850 59170
L90956 59566
" />
<path d="M91294 59051
L90850 59170
" />
<path d="M90829 57313
L91294 59051
" />
<path d="M90384 57432
L90829 57313
" />
<path d="M90278 57036
L90384 57432
" />
<path d="M89979 57116
L90278 57036
" />
<path d="M89813 56498
L89979 57116
" />
<path d="M90257 56379
L89813 56498
" />
<path d="M88834 51066
L90257 56379
" />
<path d="M88389 51185
L88834 51066
" />
<path d="M88224 50567
L88389 51185
" />
<path d="M88523 50487
L88224 50567
" />
<path d="M88417 50091
L88523 50487
" />
<path d="M88861 49972
L88417 50091
" />
<path d="M88396 48233
L88861 49972
" />
<path d="M87951 48352
L88396 48233
" />
<path d="M87845 47956
L87951 48352
" />
<path d="M85527 48577
L87845 47956
" />
<path d="M85439 48249
L85527 48577
" />
<path d="M84376 48533
L85439 48249
" />
<path d="M84464 48862
L84376 48533
" />
<path d="M83170 49209
L84464 48862
" />
<path d="M83848 51739
L83170 49209
" />
<path d="M84157 51656
L83848 51739
" />
<path d="M84323 52275
L84157 51656
" />
<path d="M83521 52490
L84323 52275
" />
<path d="M84945 57802
L83521 52490
" />
<path d="M80532 53156
L81334 52941
" />
<path d="M80366 52538
L80532 53156
" />
<path d="M80676 52455
L80366 52538
" />
<path d="M79997 49924
L80676 52455
" />
<path d="M78703 50271
L79997 49924
" />
<path d="M78615 49942
L78703 50271
" />
<path d="M77553 50227
L78615 49942
" />
<path d="M77641 50556
L77553 50227
" />
<path d="M75322 51177
L77641 50556
" />
<path d="M75428 51573
L75322 51177
" />
<path d="M74984 51692
L75428 51573
" />
<path d="M75450 53431
L74984 51692
" />
<path d="M75894 53311
L75450 53431
" />
<path d="M76000 53707
L75894 53311
" />
<path d="M76300 53627
L76000 53707
" />
<path d="M76466 54245
L76300 53627
" />
<path d="M76021 54365
L76466 54245
" />
<path d="M77445 59677
L76021 54365
" />
<path d="M77889 59558
L77445 59677
" />
<path d="M78055 60176
L77889 59558
" />
<path d="M77755 60256
L78055 60176
" />
<path d="M77861 60652
L77755 60256
" />
<path d="M77417 60772
L77861 60652
" />
<path d="M77883 62510
L77417 60772
" />
<path d="M78327 62391
L77883 62510
" />
<path d="M78433 62787
L78327 62391
" />
<path d="M80752 62166
L78433 62787
" />
<path d="M80840 62494
L80752 62166
" />
<path d="M81902 62210
L80840 62494
" />
<path d="M81814 61881
L81902 62210
" />
<path d="M83108 61535
L81814 61881
" />
<path d="M82430 59004
L83108 61535
" />
<path d="M82121 59087
L82430 59004
" />
<path d="M81956 58468
L82121 59087
" />
<path d="M82757 58254
L81956 58468
" />
<path d="M81334 52941
L82757 58254
" />
<path d="M46639 48747
L46639 43247
" />
<path d="M52139 48747
L46639 48747
" />
<path d="M52139 43247
L52139 48747
" />
<path d="M46639 43247
L52139 43247
" />
<path d="M14764 48747
L14764 43247
" />
<path d="M20264 48747
L14764 48747
" />
<path d="M20264 43247
L20264 48747
" />
<path d="M14764 43247
L20264 43247
" />
<path d="M24139 48747
L24139 43247
" />
<path d="M29639 48747
L24139 48747
" />
<path d="M29639 43247
L29639 48747
" />
<path d="M24139 43247
L29639 43247
" />
<path d="M33514 43247
L39014 43247
" />
<path d="M39014 43247
L39014 48747
" />
<path d="M39014 48747
L33514 48747
" />
<path d="M33514 48747
L33514 43247
" />
<path d="M63698 58468
L62896 58254
" />
<path d="M63532 59087
L63698 58468
" />
<path d="M63223 59004
L63532 59087
" />
<path d="M62545 61535
L63223 59004
" />
<path d="M63839 61881
L62545 61535
" />
<path d="M63751 62210
L63839 61881
" />
<path d="M64814 62494
L63751 62210
" />
<path d="M64902 62166
L64814 62494
" />
<path d="M67220 62787
L64902 62166
" />
<path d="M67326 62391
L67220 62787
" />
<path d="M67771 62510
L67326 62391
" />
<path d="M68236 60772
L67771 62510
" />
<path d="M67792 60652
L68236 60772
" />
<path d="M67898 60256
L67792 60652
" />
<path d="M67599 60176
L67898 60256
" />
<path d="M67764 59558
L67599 60176
" />
<path d="M68209 59677
L67764 59558
" />
<path d="M69632 54365
L68209 59677
" />
<path d="M69188 54245
L69632 54365
" />
<path d="M69354 53627
L69188 54245
" />
<path d="M69653 53707
L69354 53627
" />
<path d="M69759 53311
L69653 53707
" />
<path d="M70204 53431
L69759 53311
" />
<path d="M70669 51692
L70204 53431
" />
<path d="M70225 51573
L70669 51692
" />
<path d="M70331 51177
L70225 51573
" />
<path d="M68013 50556
L70331 51177
" />
<path d="M68101 50227
L68013 50556
" />
<path d="M67038 49942
L68101 50227
" />
<path d="M66950 50271
L67038 49942
" />
<path d="M65656 49924
L66950 50271
" />
<path d="M64978 52455
L65656 49924
" />
<path d="M65287 52538
L64978 52455
" />
<path d="M65121 53156
L65287 52538
" />
<path d="M64320 52941
L65121 53156
" />
<path d="M62896 58254
L64320 52941
" />
<path d="M93514 48747
L93514 43247
" />
<path d="M99014 48747
L93514 48747
" />
<path d="M99014 43247
L99014 48747
" />
<path d="M93514 43247
L99014 43247
" />
<path d="M102889 43247
L108389 43247
" />
<path d="M108389 43247
L108389 48747
" />
<path d="M108389 48747
L102889 48747
" />
<path d="M102889 48747
L102889 43247
" />
<path d="M112264 48747
L112264 43247
" />
<path d="M117764 48747
L112264 48747
" />
<path d="M117764 43247
L117764 48747
" />
<path d="M112264 43247
L117764 43247
" />
<path d="M124452 48747
L124452 43247
" />
<path d="M129952 48747
L124452 48747
" />
<path d="M129952 43247
L129952 48747
" />
<path d="M124452 43247
L129952 43247
" />
<path d="M131952 48747
L131952 43247
" />
<path d="M137452 48747
L131952 48747
" />
<path d="M137452 43247
L137452 48747
" />
<path d="M131952 43247
L137452 43247
" />
<path d="M139452 48747
L139452 43247
" />
<path d="M144952 48747
L139452 48747
" />
<path d="M144952 43247
L144952 48747
" />
<path d="M139452 43247
L144952 43247
" />
<path d="M26952 41247
L26952 35747
" />
<path d="M32452 41247
L26952 41247
" />
<path d="M32452 35747
L32452 41247
" />
<path d="M26952 35747
L32452 35747
" />
<path d="M34452 41247
L34452 35747
" />
<path d="M39952 41247
L34452 41247
" />
<path d="M39952 35747
L39952 41247
" />
<path d="M34452 35747
L39952 35747
" />
<path d="M41952 35747
L47452 35747
" />
<path d="M47452 35747
L47452 41247
" />
<path d="M47452 41247
L41952 41247
" />
<path d="M41952 41247
L41952 35747
" />
<path d="M49452 35747
L54952 35747
" />
<path d="M54952 35747
L54952 41247
" />
<path d="M54952 41247
L49452 41247
" />
<path d="M49452 41247
L49452 35747
" />
<path d="M56952 35747
L62452 35747
" />
<path d="M62452 35747
L62452 41247
" />
<path d="M62452 41247
L56952 41247
" />
<path d="M56952 41247
L56952 35747
" />
<path d="M83202 41247
L83202 35747
" />
<path d="M88702 41247
L83202 41247
" />
<path d="M88702 35747
L88702 41247
" />
<path d="M83202 35747
L88702 35747
" />
<path d="M90702 41247
L90702 35747
" />
<path d="M96202 41247
L90702 41247
" />
<path d="M96202 35747
L96202 41247
" />
<path d="M90702 35747
L96202 35747
" />
<path d="M98202 35747
L103702 35747
" />
<path d="M103702 35747
L103702 41247
" />
<path d="M103702 41247
L98202 41247
" />
<path d="M98202 41247
L98202 35747
" />
<path d="M105702 35747
L111202 35747
" />
<path d="M111202 35747
L111202 41247
" />
<path d="M111202 41247
L105702 41247
" />
<path d="M105702 41247
L105702 35747
" />
<path d="M113202 41247
L113202 35747
" />
<path d="M118702 41247
L113202 41247
" />
<path d="M118702 35747
L118702 41247
" />
<path d="M113202 35747
L118702 35747
" />
<path d="M131952 35747
L137452 35747
" />
<path d="M137452 35747
L137452 41247
" />
<path d="M137452 41247
L131952 41247
" />
<path d="M131952 41247
L131952 35747
" />
<path d="M4452 33747
L4452 28247
" />
<path d="M9952 33747
L4452 33747
" />
<path d="M9952 28247
L9952 33747
" />
<path d="M4452 28247
L9952 28247
" />
<path d="M16639 33747
L16639 28247
" />
<path d="M22139 33747
L16639 33747
" />
<path d="M22139 28247
L22139 33747
" />
<path d="M16639 28247
L22139 28247
" />
<path d="M26952 33747
L26952 28247
" />
<path d="M32452 33747
L26952 33747
" />
<path d="M32452 28247
L32452 33747
" />
<path d="M26952 28247
L32452 28247
" />
<path d="M34452 33747
L34452 28247
" />
<path d="M39952 33747
L34452 33747
" />
<path d="M39952 28247
L39952 33747
" />
<path d="M34452 28247
L39952 28247
" />
<path d="M41952 33747
L41952 28247
" />
<path d="M47452 33747
L41952 33747
" />
<path d="M47452 28247
L47452 33747
" />
<path d="M41952 28247
L47452 28247
" />
<path d="M49452 28247
L54952 28247
" />
<path d="M54952 28247
L54952 33747
" />
<path d="M54952 33747
L49452 33747
" />
<path d="M49452 33747
L49452 28247
" />
<path d="M56952 28247
L62452 28247
" />
<path d="M62452 28247
L62452 33747
" />
<path d="M62452 33747
L56952 33747
" />
<path d="M56952 33747
L56952 28247
" />
<path d="M83202 28247
L88702 28247
" />
<path d="M88702 28247
L88702 33747
" />
<path d="M88702 33747
L83202 33747
" />
<path d="M83202 33747
L83202 28247
" />
<path d="M90702 28247
L96202 28247
" />
<path d="M96202 28247
L96202 33747
" />
<path d="M96202 33747
L90702 33747
" />
<path d="M90702 33747
L90702 28247
" />
<path d="M98202 28247
L103702 28247
" />
<path d="M103702 28247
L103702 33747
" />
<path d="M103702 33747
L98202 33747
" />
<path d="M98202 33747
L98202 28247
" />
<path d="M105702 33747
L105702 28247
" />
<path d="M111202 33747
L105702 33747
" />
<path d="M111202 28247
L111202 33747
" />
<path d="M105702 28247
L111202 28247
" />
<path d="M113202 33747
L113202 28247
" />
<path d="M118702 33747
L113202 33747
" />
<path d="M118702 28247
L118702 33747
" />
<path d="M113202 28247
L118702 28247
" />
<path d="M120702 28247
L126202 28247
" />
<path d="M126202 28247
L126202 33747
" />
<path d="M126202 33747
L120702 33747
" />
<path d="M120702 33747
L120702 28247
" />
<path d="M132889 28247
L138389 28247
" />
<path d="M138389 28247
L138389 29077
" />
<path d="M138389 29077
L139029 29077
" />
<path d="M139029 29077
L139029 28757
" />
<path d="M139029 28757
L141649 28757
" />
<path d="M141649 28757
L141649 30097
" />
<path d="M141649 30097
L141989 30097
" />
<path d="M141989 30097
L141989 31197
" />
<path d="M141989 31197
L141649 31197
" />
<path d="M141649 31197
L141649 33597
" />
<path d="M141649 33597
L141239 33597
" />
<path d="M141239 33597
L141239 34057
" />
<path d="M141239 34057
L139439 34057
" />
<path d="M139439 34057
L139439 33597
" />
<path d="M139439 33597
L139029 33597
" />
<path d="M139029 33597
L139029 33287
" />
<path d="M139029 33287
L138389 33287
" />
<path d="M138389 33287
L138389 33747
" />
<path d="M138389 33747
L132889 33747
" />
<path d="M132889 33747
L132889 33287
" />
<path d="M132889 33287
L132249 33287
" />
<path d="M132249 33287
L132249 33597
" />
<path d="M132249 33597
L131839 33597
" />
<path d="M131839 33597
L131839 34057
" />
<path d="M131839 34057
L130039 34057
" />
<path d="M130039 34057
L130039 33597
" />
<path d="M130039 33597
L129629 33597
" />
<path d="M129629 33597
L129629 31197
" />
<path d="M129629 31197
L129289 31197
" />
<path d="M129289 31197
L129289 30097
" />
<path d="M129289 30097
L129629 30097
" />
<path d="M129629 30097
L129629 28757
" />
<path d="M129629 28757
L132249 28757
" />
<path d="M132249 28757
L132249 29077
" />
<path d="M132249 29077
L132889 29077
" />
<path d="M132889 29077
L132889 28247
" />
<path d="M6327 20747
L11827 20747
" />
<path d="M11827 20747
L11827 26247
" />
<path d="M11827 26247
L6327 26247
" />
<path d="M6327 26247
L6327 20747
" />
<path d="M17577 26247
L17577 20747
" />
<path d="M23077 26247
L17577 26247
" />
<path d="M23077 20747
L23077 26247
" />
<path d="M17577 20747
L23077 20747
" />
<path d="M26952 26247
L26952 20747
" />
<path d="M32452 26247
L26952 26247
" />
<path d="M32452 20747
L32452 26247
" />
<path d="M26952 20747
L32452 20747
" />
<path d="M34452 20747
L39952 20747
" />
<path d="M39952 20747
L39952 26247
" />
<path d="M39952 26247
L34452 26247
" />
<path d="M34452 26247
L34452 20747
" />
<path d="M41952 26247
L41952 20747
" />
<path d="M47452 26247
L41952 26247
" />
<path d="M47452 20747
L47452 26247
" />
<path d="M41952 20747
L47452 20747
" />
<path d="M49452 20747
L54952 20747
" />
<path d="M54952 20747
L54952 26247
" />
<path d="M54952 26247
L49452 26247
" />
<path d="M49452 26247
L49452 20747
" />
<path d="M56952 20747
L62452 20747
" />
<path d="M62452 20747
L62452 26247
" />
<path d="M62452 26247
L56952 26247
" />
<path d="M56952 26247
L56952 20747
" />
<path d="M83202 20747
L88702 20747
" />
<path d="M88702 20747
L88702 26247
" />
<path d="M88702 26247
L83202 26247
" />
<path d="M83202 26247
L83202 20747
" />
<path d="M90702 26247
L90702 20747
" />
<path d="M96202 26247
L90702 26247
" />
<path d="M96202 20747
L96202 26247
" />
<path d="M90702 20747
L96202 20747
" />
<path d="M98202 26247
L98202 20747
" />
<path d="M103702 26247
L98202 26247
" />
<path d="M103702 20747
L103702 26247
" />
<path d="M98202 20747
L103702 20747
" />
<path d="M105702 20747
L111202 20747
" />
<path d="M111202 20747
L111202 26247
" />
<path d="M111202 26247
L105702 26247
" />
<path d="M105702 26247
L105702 20747
" />
<path d="M113202 20747
L118702 20747
" />
<path d="M118702 20747
L118702 26247
" />
<path d="M118702 26247
L113202 26247
" />
<path d="M113202 26247
L113202 20747
" />
<path d="M122577 20747
L128077 20747
" />
<path d="M128077 20747
L128077 26247
" />
<path d="M128077 26247
L122577 26247
" />
<path d="M122577 26247
L122577 20747
" />
<path d="M131952 26247
L131952 20747
" />
<path d="M137452 26247
L131952 26247
" />
<path d="M137452 20747
L137452 26247
" />
<path d="M131952 20747
L137452 20747
" />
<path d="M139452 26247
L139452 20747
" />
<path d="M144952 26247
L139452 26247
" />
<path d="M144952 20747
L144952 26247
" />
<path d="M139452 20747
L144952 20747
" />
<path d="M8202 18747
L8202 13247
" />
<path d="M13702 18747
L8202 18747
" />
<path d="M13702 13247
L13702 18747
" />
<path d="M8202 13247
L13702 13247
" />
<path d="M17577 13247
L23077 13247
" />
<path d="M23077 13247
L23077 18747
" />
<path d="M23077 18747
L17577 18747
" />
<path d="M17577 18747
L17577 13247
" />
<path d="M26952 13247
L32452 13247
" />
<path d="M32452 13247
L32452 18747
" />
<path d="M32452 18747
L26952 18747
" />
<path d="M26952 18747
L26952 13247
" />
<path d="M34452 13247
L39952 13247
" />
<path d="M39952 13247
L39952 18747
" />
<path d="M39952 18747
L34452 18747
" />
<path d="M34452 18747
L34452 13247
" />
<path d="M41952 13247
L47452 13247
" />
<path d="M47452 13247
L47452 18747
" />
<path d="M47452 18747
L41952 18747
" />
<path d="M41952 18747
L41952 13247
" />
<path d="M49452 13247
L54952 13247
" />
<path d="M54952 13247
L54952 18747
" />
<path d="M54952 18747
L49452 18747
" />
<path d="M49452 18747
L49452 13247
" />
<path d="M56952 18747
L56952 13247
" />
<path d="M62452 18747
L56952 18747
" />
<path d="M62452 13247
L62452 18747
" />
<path d="M56952 13247
L62452 13247
" />
<path d="M83202 13247
L88702 13247
" />
<path d="M88702 13247
L88702 18747
" />
<path d="M88702 18747
L83202 18747
" />
<path d="M83202 18747
L83202 13247
" />
<path d="M90702 13247
L96202 13247
" />
<path d="M96202 13247
L96202 18747
" />
<path d="M96202 18747
L90702 18747
" />
<path d="M90702 18747
L90702 13247
" />
<path d="M98202 18747
L98202 13247
" />
<path d="M103702 18747
L98202 18747
" />
<path d="M103702 13247
L103702 18747
" />
<path d="M98202 13247
L103702 13247
" />
<path d="M105702 18747
L105702 13247
" />
<path d="M111202 18747
L105702 18747
" />
<path d="M111202 13247
L111202 18747
" />
<path d="M105702 13247
L111202 13247
" />
<path d="M113202 18747
L113202 13247
" />
<path d="M118702 18747
L113202 18747
" />
<path d="M118702 13247
L118702 18747
" />
<path d="M113202 13247
L118702 13247
" />
<path d="M120702 13247
L126202 13247
" />
<path d="M126202 13247
L126202 18747
" />
<path d="M126202 18747
L120702 18747
" />
<path d="M120702 18747
L120702 13247
" />
<path d="M128202 18747
L128202 13247
" />
<path d="M133702 18747
L128202 18747
" />
<path d="M133702 13247
L133702 18747
" />
<path d="M128202 13247
L133702 13247
" />
<path d="M135702 18747
L135702 13247
" />
<path d="M141202 18747
L135702 18747
" />
<path d="M141202 13247
L141202 18747
" />
<path d="M135702 13247
L141202 13247
" />
<path d="M14764 36577
L14764 35747
" />
<path d="M14124 36577
L14764 36577
" />
<path d="M14124 36257
L14124 36577
" />
<path d="M11504 36257
L14124 36257
" />
<path d="M11504 37597
L11504 36257
" />
<path d="M11164 37597
L11504 37597
" />
<path d="M11164 38697
L11164 37597
" />
<path d="M11504 38697
L11164 38697
" />
<path d="M11504 41097
L11504 38697
" />
<path d="M11914 41097
L11504 41097
" />
<path d="M11914 41557
L11914 41097
" />
<path d="M13714 41557
L11914 41557
" />
<path d="M13714 41097
L13714 41557
" />
<path d="M14124 41097
L13714 41097
" />
<path d="M14124 40787
L14124 41097
" />
<path d="M14764 40787
L14124 40787
" />
<path d="M14764 41247
L14764 40787
" />
<path d="M20264 41247
L14764 41247
" />
<path d="M20264 40787
L20264 41247
" />
<path d="M20904 40787
L20264 40787
" />
<path d="M20904 41097
L20904 40787
" />
<path d="M21314 41097
L20904 41097
" />
<path d="M21314 41557
L21314 41097
" />
<path d="M23114 41557
L21314 41557
" />
<path d="M23114 41097
L23114 41557
" />
<path d="M23524 41097
L23114 41097
" />
<path d="M23524 38697
L23524 41097
" />
<path d="M23864 38697
L23524 38697
" />
<path d="M23864 37597
L23864 38697
" />
<path d="M23524 37597
L23864 37597
" />
<path d="M23524 36257
L23524 37597
" />
<path d="M20904 36257
L23524 36257
" />
<path d="M20904 36577
L20904 36257
" />
<path d="M20264 36577
L20904 36577
" />
<path d="M20264 35747
L20264 36577
" />
<path d="M14764 35747
L20264 35747
" />
<g >
</g>
<g >
</g>
<g >
</g>
<g >
</g>
<g >
</g>
<g >
</g>
<g >
</g>
<g >
</g>
<g >
</g>
<g >
</g>
<g >
</g>
<g >
</g>
<g >
</g>
<g >
</g>
<g >
</g>
<g >
</g>
<g >
</g>
<g >
</g>
<g >
</g>
<g >
</g>
<g >
</g>
<g >
</g>
<g >
</g>
<g >
</g>
<g >
</g>
<g >
</g>
<g >
</g>
<g >
</g>
<g >
</g>
<g >
</g>
<g >
</g>
<g >
</g>
<g >
</g>
<g >
</g>
<g >
</g>
<g >
</g>
<g >
</g>
<g >
</g>
<g >
</g>
<g >
</g>
<g >
</g>
<g >
</g>
<g >
</g>
<g >
</g>
<g >
</g>
<g >
</g>
<g >
</g>
<g >
</g>
<g >
</g>
<g >
</g>
<g >
</g>
<g >
</g>
<g >
</g>
<g >
</g>
<g >
</g>
<g >
</g>
<g >
</g>
<g >
</g>
<g >
</g>
<g >
</g>
<g >
</g>
<g >
</g>
<g >
</g>
<g >
</g>
<g >
</g>
<g >
</g>
<g >
</g>
<g >
</g>
<g >
</g>
<g >
</g>
<g >
</g>
<g >
</g>
<g >
</g>
<g >
</g>
<g >
</g>
<g >
</g>
<g >
</g>
<g >
</g>
<g >
</g>
<g >
</g>
<g >
</g>
<g >
</g>
<g >
</g>
<g >
</g>
<g >
</g>
<g >
</g>
<g >
</g>
<g >
</g>
<g >
</g>
<g >
</g>
<g >
</g>
<g >
</g>
<g >
</g>
<g >
</g>
<g >
</g>
<g >
</g>
<g >
</g>
<g >
</g>
<g >
</g>
<g >
</g>
<g >
</g>
<g >
</g>
<g >
</g>
<g >
</g>
<g >
</g>
<g >
</g>
<g >
</g>
<g >
</g>
<g >
</g>
<g >
</g>
<g >
</g>
<g >
</g>
<g >
</g>
<g >
</g>
<g >
</g>
<g >
</g>
<g >
</g>
<g >
</g>
<g >
</g>
<g >
</g>
<g >
</g>
<g >
</g>
<g >
</g>
<g >
</g>
<g >
</g>
<g >
</g>
<g >
</g>
<g >
</g>
<g >
</g>
<g >
</g>
<g >
</g>
<g >
</g>
<g >
</g>
<g >
</g>
<g >
</g>
<g >
</g>
<g >
</g>
<g >
</g>
<g >
</g>
<g >
</g>
<g >
</g>
<g >
</g>
<g >
</g>
<g >
</g>
<g >
</g>
<g >
</g>
<g >
</g>
<g >
</g>
<g >
</g>
<g >
</g>
<g >
</g>
<g >
</g>
<g >
</g>
<g >
</g>
<g >
</g>
<g >
</g>
<g >
</g>
<g >
</g>
<g >
</g>
<g >
</g>
<g >
</g>
<g >
</g>
<g >
</g>
<g >
</g>
<g >
</g>
<g >
</g>
<g >
</g>
<g >
</g>
<g >
</g>
<g >
</g>
<g >
</g>
<g >
</g>
<g >
</g>
<g >
</g>
<g >
</g>
<g >
</g>
<g >
</g>
<g >
</g>
<g >
</g>
<g >
</g>
<g >
</g>
<g >
</g>
<g >
</g>
<g >
</g>
<g >
</g>
<g >
</g>
<g >
</g>
<g >
</g>
<g >
</g>
<g >
</g>
<g >
</g>
<g >
</g>
<g >
</g>
<g >
</g>
<g >
</g>
<g >
</g>
<g >
</g>
<g >
</g>
<g >
</g>
<g >
</g>
<g >
</g>
<g >
</g>
<g >
</g>
<g >
</g>
<g >
</g>
<g >
</g>
<g >
</g>
<g >
</g>
<g >
</g>
<g >
</g>
<g >
</g>
<g >
</g>
<g >
</g>
<g >
</g>
<g >
</g>
</g> 
</svg>
