  0
SECTION
  2
HEADER
  9
$ACADVER
  1
AC1014
  9
$HANDSEED
  5
FFFF
  9
$MEASUREMENT
 70
     1
  0
ENDSEC
  0
SECTION
  2
TABLES
  0
TABLE
  2
VPORT
  5
8
330
0
100
AcDbSymbolTable
 70
     4
  0
VPORT
  5
2E
330
8
100
AcDbSymbolTableRecord
100
AcDbViewportTableRecord
  2
*ACTIVE
 70
     0
 10
0.0
 20
0.0
 11
1.0
 21
1.0
 12
210.0
 22
148.5
 13
0.0
 23
0.0
 14
10.0
 24
10.0
 15
10.0
 25
10.0
 16
0.0
 26
0.0
 36
1.0
 17
0.0
 27
0.0
 37
0.0
 40
341.0
 41
1.24
 42
50.0
 43
0.0
 44
0.0
 50
0.0
 51
0.0
 71
     0
 72
   100
 73
     1
 74
     3
 75
     0
 76
     0
 77
     0
 78
     0
  0
ENDTAB
  0
TABLE
  2
LTYPE
  5
5
330
0
100
AcDbSymbolTable
 70
     1
  0
LTYPE
  5
14
330
5
100
AcDbSymbolTableRecord
100
AcDbLinetypeTableRecord
  2
BYBLOCK
 70
     0
  3

 72
    65
 73
     0
 40
0.0
  0
LTYPE
  5
15
330
5
100
AcDbSymbolTableRecord
100
AcDbLinetypeTableRecord
  2
BYLAYER
 70
     0
  3

 72
    65
 73
     0
 40
0.0
  0
LTYPE
  5
16
330
5
100
AcDbSymbolTableRecord
100
AcDbLinetypeTableRecord
  2
CONTINUOUS
 70
     0
  3
Solid line
 72
    65
 73
     0
 40
0.0
  0
ENDTAB
  0
TABLE
  2
LAYER
  5
2
100
AcDbSymbolTable
 70
1
  0
LAYER
  5
50
100
AcDbSymbolTableRecord
100
AcDbLayerTableRecord
  2
0
 70
0
  6
CONTINUOUS
  0
ENDTAB
  0
TABLE
  2
STYLE
  5
3
330
0
100
AcDbSymbolTable
 70
     1
  0
STYLE
  5
11
330
3
100
AcDbSymbolTableRecord
100
AcDbTextStyleTableRecord
  2
STANDARD
 70
     0
 40
0.0
 41
1.0
 50
0.0
 71
     0
 42
2.5
  3
txt
  4

  0
ENDTAB
  0
TABLE
  2
VIEW
  5
6
330
0
100
AcDbSymbolTable
 70
     0
  0
ENDTAB
  0
TABLE
  2
UCS
  5
7
330
0
100
AcDbSymbolTable
 70
     0
  0
ENDTAB
  0
TABLE
  2
APPID
  5
9
330
0
100
AcDbSymbolTable
 70
     2
  0
APPID
  5
12
330
9
100
AcDbSymbolTableRecord
100
AcDbRegAppTableRecord
  2
ACAD
 70
     0
  0
ENDTAB
  0
TABLE
  2
DIMSTYLE
  5
A
330
0
100
AcDbSymbolTable
 70
     1
  0
DIMSTYLE
105
27
330
A
100
AcDbSymbolTableRecord
100
AcDbDimStyleTableRecord
  2
ISO-25
 70
     0
  3

  4

  5

  6

  7

 40
1.0
 41
2.5
 42
0.625
 43
3.75
 44
1.25
 45
0.0
 46
0.0
 47
0.0
 48
0.0
140
2.5
141
2.5
142
0.0
143
0.03937007874016
144
1.0
145
0.0
146
1.0
147
0.625
 71
     0
 72
     0
 73
     0
 74
     0
 75
     0
 76
     0
 77
     1
 78
     8
170
     0
171
     3
172
     1
173
     0
174
     0
175
     0
176
     0
177
     0
178
     0
270
     2
271
     2
272
     2
273
     2
274
     3
340
11
275
     0
280
     0
281
     0
282
     0
283
     0
284
     8
285
     0
286
     0
287
     3
288
     0
  0
ENDTAB
  0
TABLE
  2
BLOCK_RECORD
  5
1
330
0
100
AcDbSymbolTable
 70
     1
  0
BLOCK_RECORD
  5
1F
330
1
100
AcDbSymbolTableRecord
100
AcDbBlockTableRecord
  2
*MODEL_SPACE
  0
BLOCK_RECORD
  5
1B
330
1
100
AcDbSymbolTableRecord
100
AcDbBlockTableRecord
  2
*PAPER_SPACE
  0
ENDTAB
  0
ENDSEC
  0
SECTION
  2
BLOCKS
  0
BLOCK
  5
20
330
1F
100
AcDbEntity
  8
0
100
AcDbBlockBegin
  2
*MODEL_SPACE
 70
     0
 10
0.0
 20
0.0
 30
0.0
  3
*MODEL_SPACE
  1

  0
ENDBLK
  5
21
330
1F
100
AcDbEntity
  8
0
100
AcDbBlockEnd
  0
BLOCK
  5
1C
330
1B
100
AcDbEntity
 67
     1
  8
0
100
AcDbBlockBegin
  2
*PAPER_SPACE
  1

  0
ENDBLK
  5
1D
330
1B
100
AcDbEntity
 67
     1
  8
0
100
AcDbBlockEnd
  0
ENDSEC
  0
SECTION
  2
ENTITIES
  0
LWPOLYLINE
  5
100
100
AcDbEntity
  8
0
 62
7
100
AcDbPolyline
 90
2
 70
0
 10
17.575607
 20
-28.393490
 30
0.0
 10
20.074967
 20
-28.393490
 30
0.0
  0
LWPOLYLINE
  5
101
100
AcDbEntity
  8
0
 62
7
100
AcDbPolyline
 90
2
 70
0
 10
17.575607
 20
-8.393531
 30
0.0
 10
17.575607
 20
-28.393490
 30
0.0
  0
LWPOLYLINE
  5
102
100
AcDbEntity
  8
0
 62
7
100
AcDbPolyline
 90
2
 70
0
 10
37.575567
 20
-8.393531
 30
0.0
 10
17.575607
 20
-8.393531
 30
0.0
  0
LWPOLYLINE
  5
103
100
AcDbEntity
  8
0
 62
7
100
AcDbPolyline
 90
2
 70
0
 10
37.575567
 20
-28.393490
 30
0.0
 10
37.575567
 20
-8.393531
 30
0.0
  0
LWPOLYLINE
  5
104
100
AcDbEntity
  8
0
 62
7
100
AcDbPolyline
 90
2
 70
0
 10
20.074967
 20
-28.393490
 30
0.0
 10
37.575567
 20
-28.393490
 30
0.0
  0
LWPOLYLINE
  5
105
100
AcDbEntity
  8
0
 62
7
100
AcDbPolyline
 90
2
 70
0
 10
57.575526
 20
-23.394771
 30
0.0
 10
162.576584
 20
-23.394771
 30
0.0
  0
LWPOLYLINE
  5
106
100
AcDbEntity
  8
0
 62
7
100
AcDbPolyline
 90
2
 70
0
 10
57.575526
 20
-8.393531
 30
0.0
 10
57.575526
 20
-23.394771
 30
0.0
  0
LWPOLYLINE
  5
107
100
AcDbEntity
  8
0
 62
7
100
AcDbPolyline
 90
2
 70
0
 10
162.576584
 20
-8.393531
 30
0.0
 10
57.575526
 20
-8.393531
 30
0.0
  0
LWPOLYLINE
  5
108
100
AcDbEntity
  8
0
 62
7
100
AcDbPolyline
 90
2
 70
0
 10
162.576584
 20
-23.394771
 30
0.0
 10
162.576584
 20
-8.393531
 30
0.0
  0
LWPOLYLINE
  5
109
100
AcDbEntity
  8
0
 62
7
100
AcDbPolyline
 90
2
 70
0
 10
322.576260
 20
-8.393531
 30
0.0
 10
207.575222
 20
-8.393531
 30
0.0
  0
LWPOLYLINE
  5
10a
100
AcDbEntity
  8
0
 62
7
100
AcDbPolyline
 90
2
 70
0
 10
322.576260
 20
-23.394771
 30
0.0
 10
322.576260
 20
-8.393531
 30
0.0
  0
LWPOLYLINE
  5
10b
100
AcDbEntity
  8
0
 62
7
100
AcDbPolyline
 90
2
 70
0
 10
207.575222
 20
-23.394771
 30
0.0
 10
322.576260
 20
-23.394771
 30
0.0
  0
LWPOLYLINE
  5
10c
100
AcDbEntity
  8
0
 62
7
100
AcDbPolyline
 90
2
 70
0
 10
207.575222
 20
-8.393531
 30
0.0
 10
207.575222
 20
-23.394771
 30
0.0
  0
LWPOLYLINE
  5
10d
100
AcDbEntity
  8
0
 62
7
100
AcDbPolyline
 90
2
 70
0
 10
110.074785
 20
-133.394548
 30
0.0
 10
135.076004
 20
-173.394467
 30
0.0
  0
LWPOLYLINE
  5
10e
100
AcDbEntity
  8
0
 62
7
100
AcDbPolyline
 90
2
 70
0
 10
5.076267
 20
-133.394548
 30
0.0
 10
110.074785
 20
-133.394548
 30
0.0
  0
LWPOLYLINE
  5
10f
100
AcDbEntity
  8
0
 62
7
100
AcDbPolyline
 90
2
 70
0
 10
0.075007
 20
-3.394811
 30
0.0
 10
0.075007
 20
-128.393288
 30
0.0
  0
SPLINE
  5
110
100
AcDbEntity
  8
0
 62
7
100
AcDbSpline
 70
8
 71
3
 72
8
 73
4
 74
0
 40
0
 40
0
 40
0
 40
0
 40
1
 40
1
 40
1
 40
1
 10
0.076938
 20
-128.395574
 30
0.0
 10
0.076938
 20
-129.721658
 30
0.0
 10
0.603724
 20
-130.993429
 30
0.0
 10
1.541410
 20
-131.931110
 30
0.0
  0
SPLINE
  5
111
100
AcDbEntity
  8
0
 62
7
100
AcDbSpline
 70
8
 71
3
 72
8
 73
4
 74
0
 40
0
 40
0
 40
0
 40
0
 40
1
 40
1
 40
1
 40
1
 10
1.541410
 20
-131.931110
 30
0.0
 10
2.479095
 20
-132.868790
 30
0.0
 10
3.750869
 20
-133.395571
 30
0.0
 10
5.076953
 20
-133.395564
 30
0.0
  0
SPLINE
  5
112
100
AcDbEntity
  8
0
 62
7
100
AcDbSpline
 70
8
 71
3
 72
8
 73
4
 74
0
 40
0
 40
0
 40
0
 40
0
 40
1
 40
1
 40
1
 40
1
 10
5.076953
 20
1.604417
 30
0.0
 10
3.750869
 20
1.604424
 30
0.0
 10
2.479095
 20
1.077643
 30
0.0
 10
1.541410
 20
0.139963
 30
0.0
  0
SPLINE
  5
113
100
AcDbEntity
  8
0
 62
7
100
AcDbSpline
 70
8
 71
3
 72
8
 73
4
 74
0
 40
0
 40
0
 40
0
 40
0
 40
1
 40
1
 40
1
 40
1
 10
1.541410
 20
0.139963
 30
0.0
 10
0.603724
 20
-0.797718
 30
0.0
 10
0.076938
 20
-2.069489
 30
0.0
 10
0.076938
 20
-3.395573
 30
0.0
  0
SPLINE
  5
114
100
AcDbEntity
  8
0
 62
7
100
AcDbSpline
 70
8
 71
3
 72
8
 73
4
 74
0
 40
0
 40
0
 40
0
 40
0
 40
1
 40
1
 40
1
 40
1
 10
380.076778
 20
-3.395573
 30
0.0
 10
380.076778
 20
-0.634651
 30
0.0
 10
377.838981
 20
1.603716
 30
0.0
 10
375.078058
 20
1.604417
 30
0.0
  0
LWPOLYLINE
  5
115
100
AcDbEntity
  8
0
 62
7
100
AcDbPolyline
 90
2
 70
0
 10
375.075518
 20
1.606449
 30
0.0
 10
5.076267
 20
1.606449
 30
0.0
  0
SPLINE
  5
116
100
AcDbEntity
  8
0
 62
7
100
AcDbSpline
 70
8
 71
3
 72
8
 73
4
 74
0
 40
0
 40
0
 40
0
 40
0
 40
1
 40
1
 40
1
 40
1
 10
375.078058
 20
-133.395564
 30
0.0
 10
377.838981
 20
-133.394863
 30
0.0
 10
380.076778
 20
-131.156496
 30
0.0
 10
380.076778
 20
-128.395574
 30
0.0
  0
LWPOLYLINE
  5
117
100
AcDbEntity
  8
0
 62
7
100
AcDbPolyline
 90
2
 70
0
 10
380.076778
 20
-128.393288
 30
0.0
 10
380.076778
 20
-3.394811
 30
0.0
  0
LWPOLYLINE
  5
118
100
AcDbEntity
  8
0
 62
7
100
AcDbPolyline
 90
2
 70
0
 10
260.074481
 20
-133.394548
 30
0.0
 10
375.075518
 20
-133.394548
 30
0.0
  0
LWPOLYLINE
  5
119
100
AcDbEntity
  8
0
 62
7
100
AcDbPolyline
 90
2
 70
0
 10
235.075802
 20
-173.394467
 30
0.0
 10
260.074481
 20
-133.394548
 30
0.0
  0
LWPOLYLINE
  5
11a
100
AcDbEntity
  8
0
 62
7
100
AcDbPolyline
 90
2
 70
0
 10
135.076004
 20
-173.394467
 30
0.0
 10
235.075802
 20
-173.394467
 30
0.0
  0
SPLINE
  5
11b
100
AcDbEntity
  8
0
 62
7
100
AcDbSpline
 70
8
 71
3
 72
8
 73
4
 74
0
 40
0
 40
0
 40
0
 40
0
 40
1
 40
1
 40
1
 40
1
 10
202.577011
 20
-110.895482
 30
0.0
 10
203.957619
 20
-110.895409
 30
0.0
 10
205.076806
 20
-109.776223
 30
0.0
 10
205.076878
 20
-108.395614
 30
0.0
  0
SPLINE
  5
11c
100
AcDbEntity
  8
0
 62
7
100
AcDbSpline
 70
8
 71
3
 72
8
 73
4
 74
0
 40
0
 40
0
 40
0
 40
0
 40
1
 40
1
 40
1
 40
1
 10
165.076959
 20
-108.395614
 30
0.0
 10
165.077032
 20
-109.776223
 30
0.0
 10
166.196219
 20
-110.895409
 30
0.0
 10
167.576827
 20
-110.895482
 30
0.0
  0
SPLINE
  5
11d
100
AcDbEntity
  8
0
 62
7
100
AcDbSpline
 70
8
 71
3
 72
8
 73
4
 74
0
 40
0
 40
0
 40
0
 40
0
 40
1
 40
1
 40
1
 40
1
 10
167.576827
 20
-28.395522
 30
0.0
 10
166.196219
 20
-28.395595
 30
0.0
 10
165.077032
 20
-29.514782
 30
0.0
 10
165.076959
 20
-30.895390
 30
0.0
  0
SPLINE
  5
11e
100
AcDbEntity
  8
0
 62
7
100
AcDbSpline
 70
8
 71
3
 72
8
 73
4
 74
0
 40
0
 40
0
 40
0
 40
0
 40
1
 40
1
 40
1
 40
1
 10
205.076878
 20
-30.895390
 30
0.0
 10
205.076806
 20
-29.514782
 30
0.0
 10
203.957619
 20
-28.395595
 30
0.0
 10
202.577011
 20
-28.395522
 30
0.0
  0
LWPOLYLINE
  5
11f
100
AcDbEntity
  8
0
 62
7
100
AcDbPolyline
 90
2
 70
0
 10
202.576503
 20
-28.393490
 30
0.0
 10
167.575303
 20
-28.393490
 30
0.0
  0
LWPOLYLINE
  5
120
100
AcDbEntity
  8
0
 62
7
100
AcDbPolyline
 90
2
 70
0
 10
165.075943
 20
-108.393328
 30
0.0
 10
165.075943
 20
-30.895390
 30
0.0
  0
LWPOLYLINE
  5
121
100
AcDbEntity
  8
0
 62
7
100
AcDbPolyline
 90
2
 70
0
 10
202.576503
 20
-110.895228
 30
0.0
 10
167.575303
 20
-110.895228
 30
0.0
  0
SPLINE
  5
122
100
AcDbEntity
  8
0
 62
7
100
AcDbSpline
 70
8
 71
3
 72
8
 73
4
 74
0
 40
0
 40
0
 40
0
 40
0
 40
1
 40
1
 40
1
 40
1
 10
188.612441
 20
-143.395539
 30
0.0
 10
188.612441
 20
-144.658661
 30
0.0
 10
187.938573
 20
-145.825834
 30
0.0
 10
186.844678
 20
-146.457395
 30
0.0
  0
SPLINE
  5
123
100
AcDbEntity
  8
0
 62
7
100
AcDbSpline
 70
8
 71
3
 72
8
 73
4
 74
0
 40
0
 40
0
 40
0
 40
0
 40
1
 40
1
 40
1
 40
1
 10
186.844678
 20
-146.457395
 30
0.0
 10
185.750782
 20
-147.088956
 30
0.0
 10
184.403046
 20
-147.088956
 30
0.0
 10
183.309150
 20
-146.457395
 30
0.0
  0
SPLINE
  5
124
100
AcDbEntity
  8
0
 62
7
100
AcDbSpline
 70
8
 71
3
 72
8
 73
4
 74
0
 40
0
 40
0
 40
0
 40
0
 40
1
 40
1
 40
1
 40
1
 10
183.309150
 20
-146.457395
 30
0.0
 10
182.215254
 20
-145.825834
 30
0.0
 10
181.541387
 20
-144.658661
 30
0.0
 10
181.541387
 20
-143.395539
 30
0.0
  0
SPLINE
  5
125
100
AcDbEntity
  8
0
 62
7
100
AcDbSpline
 70
8
 71
3
 72
8
 73
4
 74
0
 40
0
 40
0
 40
0
 40
0
 40
1
 40
1
 40
1
 40
1
 10
181.541387
 20
-143.395539
 30
0.0
 10
181.541387
 20
-142.132416
 30
0.0
 10
182.215254
 20
-140.965243
 30
0.0
 10
183.309150
 20
-140.333682
 30
0.0
  0
SPLINE
  5
126
100
AcDbEntity
  8
0
 62
7
100
AcDbSpline
 70
8
 71
3
 72
8
 73
4
 74
0
 40
0
 40
0
 40
0
 40
0
 40
1
 40
1
 40
1
 40
1
 10
183.309150
 20
-140.333682
 30
0.0
 10
184.403046
 20
-139.702121
 30
0.0
 10
185.750782
 20
-139.702121
 30
0.0
 10
186.844678
 20
-140.333682
 30
0.0
  0
SPLINE
  5
127
100
AcDbEntity
  8
0
 62
7
100
AcDbSpline
 70
8
 71
3
 72
8
 73
4
 74
0
 40
0
 40
0
 40
0
 40
0
 40
1
 40
1
 40
1
 40
1
 10
186.844678
 20
-140.333682
 30
0.0
 10
187.938573
 20
-140.965243
 30
0.0
 10
188.612441
 20
-142.132416
 30
0.0
 10
188.612441
 20
-143.395539
 30
0.0
  0
LWPOLYLINE
  5
128
100
AcDbEntity
  8
0
 62
7
100
AcDbPolyline
 90
2
 70
0
 10
205.075862
 20
-30.895390
 30
0.0
 10
205.075862
 20
-108.393328
 30
0.0
  0
SPLINE
  5
129
100
AcDbEntity
  8
0
 62
7
100
AcDbSpline
 70
8
 71
3
 72
8
 73
4
 74
0
 40
0
 40
0
 40
0
 40
0
 40
1
 40
1
 40
1
 40
1
 10
111.112481
 20
-115.895477
 30
0.0
 10
111.112481
 20
-117.158600
 30
0.0
 10
110.438614
 20
-118.325773
 30
0.0
 10
109.344718
 20
-118.957334
 30
0.0
  0
SPLINE
  5
12a
100
AcDbEntity
  8
0
 62
7
100
AcDbSpline
 70
8
 71
3
 72
8
 73
4
 74
0
 40
0
 40
0
 40
0
 40
0
 40
1
 40
1
 40
1
 40
1
 10
109.344718
 20
-118.957334
 30
0.0
 10
108.250822
 20
-119.588895
 30
0.0
 10
106.903086
 20
-119.588895
 30
0.0
 10
105.809190
 20
-118.957334
 30
0.0
  0
SPLINE
  5
12b
100
AcDbEntity
  8
0
 62
7
100
AcDbSpline
 70
8
 71
3
 72
8
 73
4
 74
0
 40
0
 40
0
 40
0
 40
0
 40
1
 40
1
 40
1
 40
1
 10
105.809190
 20
-118.957334
 30
0.0
 10
104.715294
 20
-118.325773
 30
0.0
 10
104.041427
 20
-117.158600
 30
0.0
 10
104.041427
 20
-115.895477
 30
0.0
  0
SPLINE
  5
12c
100
AcDbEntity
  8
0
 62
7
100
AcDbSpline
 70
8
 71
3
 72
8
 73
4
 74
0
 40
0
 40
0
 40
0
 40
0
 40
1
 40
1
 40
1
 40
1
 10
104.041427
 20
-115.895477
 30
0.0
 10
104.041427
 20
-114.632355
 30
0.0
 10
104.715294
 20
-113.465182
 30
0.0
 10
105.809190
 20
-112.833621
 30
0.0
  0
SPLINE
  5
12d
100
AcDbEntity
  8
0
 62
7
100
AcDbSpline
 70
8
 71
3
 72
8
 73
4
 74
0
 40
0
 40
0
 40
0
 40
0
 40
1
 40
1
 40
1
 40
1
 10
105.809190
 20
-112.833621
 30
0.0
 10
106.903086
 20
-112.202060
 30
0.0
 10
108.250822
 20
-112.202060
 30
0.0
 10
109.344718
 20
-112.833621
 30
0.0
  0
SPLINE
  5
12e
100
AcDbEntity
  8
0
 62
7
100
AcDbSpline
 70
8
 71
3
 72
8
 73
4
 74
0
 40
0
 40
0
 40
0
 40
0
 40
1
 40
1
 40
1
 40
1
 10
109.344718
 20
-112.833621
 30
0.0
 10
110.438614
 20
-113.465182
 30
0.0
 10
111.112481
 20
-114.632355
 30
0.0
 10
111.112481
 20
-115.895477
 30
0.0
  0
LWPOLYLINE
  5
12f
100
AcDbEntity
  8
0
 62
7
100
AcDbPolyline
 90
1
 70
1
 10
188.612441
 20
-143.395539
 30
0.0
  0
SPLINE
  5
130
100
AcDbEntity
  8
0
 62
7
100
AcDbSpline
 70
8
 71
3
 72
8
 73
4
 74
0
 40
0
 40
0
 40
0
 40
0
 40
1
 40
1
 40
1
 40
1
 10
21.112404
 20
-115.895477
 30
0.0
 10
21.112404
 20
-117.158600
 30
0.0
 10
20.438537
 20
-118.325773
 30
0.0
 10
19.344641
 20
-118.957334
 30
0.0
  0
SPLINE
  5
131
100
AcDbEntity
  8
0
 62
7
100
AcDbSpline
 70
8
 71
3
 72
8
 73
4
 74
0
 40
0
 40
0
 40
0
 40
0
 40
1
 40
1
 40
1
 40
1
 10
19.344641
 20
-118.957334
 30
0.0
 10
18.250745
 20
-119.588895
 30
0.0
 10
16.903009
 20
-119.588895
 30
0.0
 10
15.809113
 20
-118.957334
 30
0.0
  0
SPLINE
  5
132
100
AcDbEntity
  8
0
 62
7
100
AcDbSpline
 70
8
 71
3
 72
8
 73
4
 74
0
 40
0
 40
0
 40
0
 40
0
 40
1
 40
1
 40
1
 40
1
 10
15.809113
 20
-118.957334
 30
0.0
 10
14.715217
 20
-118.325773
 30
0.0
 10
14.041350
 20
-117.158600
 30
0.0
 10
14.041350
 20
-115.895477
 30
0.0
  0
SPLINE
  5
133
100
AcDbEntity
  8
0
 62
7
100
AcDbSpline
 70
8
 71
3
 72
8
 73
4
 74
0
 40
0
 40
0
 40
0
 40
0
 40
1
 40
1
 40
1
 40
1
 10
14.041350
 20
-115.895477
 30
0.0
 10
14.041350
 20
-114.632355
 30
0.0
 10
14.715217
 20
-113.465182
 30
0.0
 10
15.809113
 20
-112.833621
 30
0.0
  0
SPLINE
  5
134
100
AcDbEntity
  8
0
 62
7
100
AcDbSpline
 70
8
 71
3
 72
8
 73
4
 74
0
 40
0
 40
0
 40
0
 40
0
 40
1
 40
1
 40
1
 40
1
 10
15.809113
 20
-112.833621
 30
0.0
 10
16.903009
 20
-112.202060
 30
0.0
 10
18.250745
 20
-112.202060
 30
0.0
 10
19.344641
 20
-112.833621
 30
0.0
  0
SPLINE
  5
135
100
AcDbEntity
  8
0
 62
7
100
AcDbSpline
 70
8
 71
3
 72
8
 73
4
 74
0
 40
0
 40
0
 40
0
 40
0
 40
1
 40
1
 40
1
 40
1
 10
19.344641
 20
-112.833621
 30
0.0
 10
20.438537
 20
-113.465182
 30
0.0
 10
21.112404
 20
-114.632355
 30
0.0
 10
21.112404
 20
-115.895477
 30
0.0
  0
LWPOLYLINE
  5
136
100
AcDbEntity
  8
0
 62
7
100
AcDbPolyline
 90
1
 70
1
 10
111.112481
 20
-115.895477
 30
0.0
  0
SPLINE
  5
137
100
AcDbEntity
  8
0
 62
7
100
AcDbSpline
 70
8
 71
3
 72
8
 73
4
 74
0
 40
0
 40
0
 40
0
 40
0
 40
1
 40
1
 40
1
 40
1
 10
46.112354
 20
-15.895421
 30
0.0
 10
46.112354
 20
-17.158543
 30
0.0
 10
45.438486
 20
-18.325716
 30
0.0
 10
44.344590
 20
-18.957277
 30
0.0
  0
SPLINE
  5
138
100
AcDbEntity
  8
0
 62
7
100
AcDbSpline
 70
8
 71
3
 72
8
 73
4
 74
0
 40
0
 40
0
 40
0
 40
0
 40
1
 40
1
 40
1
 40
1
 10
44.344590
 20
-18.957277
 30
0.0
 10
43.250694
 20
-19.588838
 30
0.0
 10
41.902959
 20
-19.588838
 30
0.0
 10
40.809063
 20
-18.957277
 30
0.0
  0
SPLINE
  5
139
100
AcDbEntity
  8
0
 62
7
100
AcDbSpline
 70
8
 71
3
 72
8
 73
4
 74
0
 40
0
 40
0
 40
0
 40
0
 40
1
 40
1
 40
1
 40
1
 10
40.809063
 20
-18.957277
 30
0.0
 10
39.715167
 20
-18.325716
 30
0.0
 10
39.041299
 20
-17.158543
 30
0.0
 10
39.041299
 20
-15.895421
 30
0.0
  0
SPLINE
  5
13a
100
AcDbEntity
  8
0
 62
7
100
AcDbSpline
 70
8
 71
3
 72
8
 73
4
 74
0
 40
0
 40
0
 40
0
 40
0
 40
1
 40
1
 40
1
 40
1
 10
39.041299
 20
-15.895421
 30
0.0
 10
39.041299
 20
-14.632298
 30
0.0
 10
39.715167
 20
-13.465125
 30
0.0
 10
40.809063
 20
-12.833564
 30
0.0
  0
SPLINE
  5
13b
100
AcDbEntity
  8
0
 62
7
100
AcDbSpline
 70
8
 71
3
 72
8
 73
4
 74
0
 40
0
 40
0
 40
0
 40
0
 40
1
 40
1
 40
1
 40
1
 10
40.809063
 20
-12.833564
 30
0.0
 10
41.902959
 20
-12.202003
 30
0.0
 10
43.250694
 20
-12.202003
 30
0.0
 10
44.344590
 20
-12.833564
 30
0.0
  0
SPLINE
  5
13c
100
AcDbEntity
  8
0
 62
7
100
AcDbSpline
 70
8
 71
3
 72
8
 73
4
 74
0
 40
0
 40
0
 40
0
 40
0
 40
1
 40
1
 40
1
 40
1
 10
44.344590
 20
-12.833564
 30
0.0
 10
45.438486
 20
-13.465125
 30
0.0
 10
46.112354
 20
-14.632298
 30
0.0
 10
46.112354
 20
-15.895421
 30
0.0
  0
LWPOLYLINE
  5
13d
100
AcDbEntity
  8
0
 62
7
100
AcDbPolyline
 90
1
 70
1
 10
21.112404
 20
-115.895477
 30
0.0
  0
SPLINE
  5
13e
100
AcDbEntity
  8
0
 62
7
100
AcDbSpline
 70
8
 71
3
 72
8
 73
4
 74
0
 40
0
 40
0
 40
0
 40
0
 40
1
 40
1
 40
1
 40
1
 10
171.112360
 20
-15.895421
 30
0.0
 10
171.112360
 20
-17.158543
 30
0.0
 10
170.438492
 20
-18.325716
 30
0.0
 10
169.344596
 20
-18.957277
 30
0.0
  0
SPLINE
  5
13f
100
AcDbEntity
  8
0
 62
7
100
AcDbSpline
 70
8
 71
3
 72
8
 73
4
 74
0
 40
0
 40
0
 40
0
 40
0
 40
1
 40
1
 40
1
 40
1
 10
169.344596
 20
-18.957277
 30
0.0
 10
168.250700
 20
-19.588838
 30
0.0
 10
166.902965
 20
-19.588838
 30
0.0
 10
165.809069
 20
-18.957277
 30
0.0
  0
SPLINE
  5
140
100
AcDbEntity
  8
0
 62
7
100
AcDbSpline
 70
8
 71
3
 72
8
 73
4
 74
0
 40
0
 40
0
 40
0
 40
0
 40
1
 40
1
 40
1
 40
1
 10
165.809069
 20
-18.957277
 30
0.0
 10
164.715173
 20
-18.325716
 30
0.0
 10
164.041305
 20
-17.158543
 30
0.0
 10
164.041305
 20
-15.895421
 30
0.0
  0
SPLINE
  5
141
100
AcDbEntity
  8
0
 62
7
100
AcDbSpline
 70
8
 71
3
 72
8
 73
4
 74
0
 40
0
 40
0
 40
0
 40
0
 40
1
 40
1
 40
1
 40
1
 10
164.041305
 20
-15.895421
 30
0.0
 10
164.041305
 20
-14.632298
 30
0.0
 10
164.715173
 20
-13.465125
 30
0.0
 10
165.809069
 20
-12.833564
 30
0.0
  0
SPLINE
  5
142
100
AcDbEntity
  8
0
 62
7
100
AcDbSpline
 70
8
 71
3
 72
8
 73
4
 74
0
 40
0
 40
0
 40
0
 40
0
 40
1
 40
1
 40
1
 40
1
 10
165.809069
 20
-12.833564
 30
0.0
 10
166.902965
 20
-12.202003
 30
0.0
 10
168.250700
 20
-12.202003
 30
0.0
 10
169.344596
 20
-12.833564
 30
0.0
  0
SPLINE
  5
143
100
AcDbEntity
  8
0
 62
7
100
AcDbSpline
 70
8
 71
3
 72
8
 73
4
 74
0
 40
0
 40
0
 40
0
 40
0
 40
1
 40
1
 40
1
 40
1
 10
169.344596
 20
-12.833564
 30
0.0
 10
170.438492
 20
-13.465125
 30
0.0
 10
171.112360
 20
-14.632298
 30
0.0
 10
171.112360
 20
-15.895421
 30
0.0
  0
LWPOLYLINE
  5
144
100
AcDbEntity
  8
0
 62
7
100
AcDbPolyline
 90
1
 70
1
 10
46.112354
 20
-15.895421
 30
0.0
  0
SPLINE
  5
145
100
AcDbEntity
  8
0
 62
7
100
AcDbSpline
 70
8
 71
3
 72
8
 73
4
 74
0
 40
0
 40
0
 40
0
 40
0
 40
1
 40
1
 40
1
 40
1
 10
166.112370
 20
-65.895579
 30
0.0
 10
166.112370
 20
-67.848196
 30
0.0
 10
164.529460
 20
-69.431106
 30
0.0
 10
162.576843
 20
-69.431106
 30
0.0
  0
SPLINE
  5
146
100
AcDbEntity
  8
0
 62
7
100
AcDbSpline
 70
8
 71
3
 72
8
 73
4
 74
0
 40
0
 40
0
 40
0
 40
0
 40
1
 40
1
 40
1
 40
1
 10
162.576843
 20
-69.431106
 30
0.0
 10
160.624225
 20
-69.431106
 30
0.0
 10
159.041316
 20
-67.848196
 30
0.0
 10
159.041315
 20
-65.895579
 30
0.0
  0
SPLINE
  5
147
100
AcDbEntity
  8
0
 62
7
100
AcDbSpline
 70
8
 71
3
 72
8
 73
4
 74
0
 40
0
 40
0
 40
0
 40
0
 40
1
 40
1
 40
1
 40
1
 10
159.041315
 20
-65.895579
 30
0.0
 10
159.041315
 20
-64.632456
 30
0.0
 10
159.715183
 20
-63.465283
 30
0.0
 10
160.809079
 20
-62.833722
 30
0.0
  0
SPLINE
  5
148
100
AcDbEntity
  8
0
 62
7
100
AcDbSpline
 70
8
 71
3
 72
8
 73
4
 74
0
 40
0
 40
0
 40
0
 40
0
 40
1
 40
1
 40
1
 40
1
 10
160.809079
 20
-62.833722
 30
0.0
 10
161.902975
 20
-62.202161
 30
0.0
 10
163.250710
 20
-62.202161
 30
0.0
 10
164.344606
 20
-62.833722
 30
0.0
  0
SPLINE
  5
149
100
AcDbEntity
  8
0
 62
7
100
AcDbSpline
 70
8
 71
3
 72
8
 73
4
 74
0
 40
0
 40
0
 40
0
 40
0
 40
1
 40
1
 40
1
 40
1
 10
164.344606
 20
-62.833722
 30
0.0
 10
165.438502
 20
-63.465283
 30
0.0
 10
166.112370
 20
-64.632456
 30
0.0
 10
166.112370
 20
-65.895579
 30
0.0
  0
LWPOLYLINE
  5
14a
100
AcDbEntity
  8
0
 62
7
100
AcDbPolyline
 90
1
 70
1
 10
171.112360
 20
-15.895421
 30
0.0
  0
SPLINE
  5
14b
100
AcDbEntity
  8
0
 62
7
100
AcDbSpline
 70
8
 71
3
 72
8
 73
4
 74
0
 40
0
 40
0
 40
0
 40
0
 40
1
 40
1
 40
1
 40
1
 10
211.112535
 20
-65.895579
 30
0.0
 10
211.112535
 20
-67.158701
 30
0.0
 10
210.438668
 20
-68.325874
 30
0.0
 10
209.344772
 20
-68.957435
 30
0.0
  0
SPLINE
  5
14c
100
AcDbEntity
  8
0
 62
7
100
AcDbSpline
 70
8
 71
3
 72
8
 73
4
 74
0
 40
0
 40
0
 40
0
 40
0
 40
1
 40
1
 40
1
 40
1
 10
209.344772
 20
-68.957435
 30
0.0
 10
208.250876
 20
-69.588996
 30
0.0
 10
206.903140
 20
-69.588996
 30
0.0
 10
205.809244
 20
-68.957435
 30
0.0
  0
SPLINE
  5
14d
100
AcDbEntity
  8
0
 62
7
100
AcDbSpline
 70
8
 71
3
 72
8
 73
4
 74
0
 40
0
 40
0
 40
0
 40
0
 40
1
 40
1
 40
1
 40
1
 10
205.809244
 20
-68.957435
 30
0.0
 10
204.715348
 20
-68.325874
 30
0.0
 10
204.041481
 20
-67.158701
 30
0.0
 10
204.041481
 20
-65.895579
 30
0.0
  0
SPLINE
  5
14e
100
AcDbEntity
  8
0
 62
7
100
AcDbSpline
 70
8
 71
3
 72
8
 73
4
 74
0
 40
0
 40
0
 40
0
 40
0
 40
1
 40
1
 40
1
 40
1
 10
204.041481
 20
-65.895579
 30
0.0
 10
204.041481
 20
-64.632456
 30
0.0
 10
204.715348
 20
-63.465283
 30
0.0
 10
205.809244
 20
-62.833722
 30
0.0
  0
SPLINE
  5
14f
100
AcDbEntity
  8
0
 62
7
100
AcDbSpline
 70
8
 71
3
 72
8
 73
4
 74
0
 40
0
 40
0
 40
0
 40
0
 40
1
 40
1
 40
1
 40
1
 10
205.809244
 20
-62.833722
 30
0.0
 10
206.903140
 20
-62.202161
 30
0.0
 10
208.250876
 20
-62.202161
 30
0.0
 10
209.344772
 20
-62.833722
 30
0.0
  0
SPLINE
  5
150
100
AcDbEntity
  8
0
 62
7
100
AcDbSpline
 70
8
 71
3
 72
8
 73
4
 74
0
 40
0
 40
0
 40
0
 40
0
 40
1
 40
1
 40
1
 40
1
 10
209.344772
 20
-62.833722
 30
0.0
 10
210.438668
 20
-63.465283
 30
0.0
 10
211.112535
 20
-64.632456
 30
0.0
 10
211.112535
 20
-65.895579
 30
0.0
  0
LWPOLYLINE
  5
151
100
AcDbEntity
  8
0
 62
7
100
AcDbPolyline
 90
1
 70
1
 10
166.112370
 20
-65.895579
 30
0.0
  0
SPLINE
  5
152
100
AcDbEntity
  8
0
 62
7
100
AcDbSpline
 70
8
 71
3
 72
8
 73
4
 74
0
 40
0
 40
0
 40
0
 40
0
 40
1
 40
1
 40
1
 40
1
 10
206.112545
 20
-15.895421
 30
0.0
 10
206.112545
 20
-17.848038
 30
0.0
 10
204.529636
 20
-19.430948
 30
0.0
 10
202.577018
 20
-19.430948
 30
0.0
  0
SPLINE
  5
153
100
AcDbEntity
  8
0
 62
7
100
AcDbSpline
 70
8
 71
3
 72
8
 73
4
 74
0
 40
0
 40
0
 40
0
 40
0
 40
1
 40
1
 40
1
 40
1
 10
202.577018
 20
-19.430948
 30
0.0
 10
200.624400
 20
-19.430948
 30
0.0
 10
199.041491
 20
-17.848038
 30
0.0
 10
199.041491
 20
-15.895421
 30
0.0
  0
SPLINE
  5
154
100
AcDbEntity
  8
0
 62
7
100
AcDbSpline
 70
8
 71
3
 72
8
 73
4
 74
0
 40
0
 40
0
 40
0
 40
0
 40
1
 40
1
 40
1
 40
1
 10
199.041491
 20
-15.895421
 30
0.0
 10
199.041491
 20
-13.942803
 30
0.0
 10
200.624400
 20
-12.359894
 30
0.0
 10
202.577018
 20
-12.359894
 30
0.0
  0
SPLINE
  5
155
100
AcDbEntity
  8
0
 62
7
100
AcDbSpline
 70
8
 71
3
 72
8
 73
4
 74
0
 40
0
 40
0
 40
0
 40
0
 40
1
 40
1
 40
1
 40
1
 10
202.577018
 20
-12.359894
 30
0.0
 10
204.529636
 20
-12.359894
 30
0.0
 10
206.112545
 20
-13.942803
 30
0.0
 10
206.112545
 20
-15.895421
 30
0.0
  0
LWPOLYLINE
  5
156
100
AcDbEntity
  8
0
 62
7
100
AcDbPolyline
 90
1
 70
1
 10
211.112535
 20
-65.895579
 30
0.0
  0
SPLINE
  5
157
100
AcDbEntity
  8
0
 62
7
100
AcDbSpline
 70
8
 71
3
 72
8
 73
4
 74
0
 40
0
 40
0
 40
0
 40
0
 40
1
 40
1
 40
1
 40
1
 10
366.111706
 20
-15.895421
 30
0.0
 10
366.111706
 20
-17.848038
 30
0.0
 10
364.528796
 20
-19.430948
 30
0.0
 10
362.576179
 20
-19.430948
 30
0.0
  0
SPLINE
  5
158
100
AcDbEntity
  8
0
 62
7
100
AcDbSpline
 70
8
 71
3
 72
8
 73
4
 74
0
 40
0
 40
0
 40
0
 40
0
 40
1
 40
1
 40
1
 40
1
 10
362.576179
 20
-19.430948
 30
0.0
 10
360.623561
 20
-19.430948
 30
0.0
 10
359.040652
 20
-17.848038
 30
0.0
 10
359.040651
 20
-15.895421
 30
0.0
  0
SPLINE
  5
159
100
AcDbEntity
  8
0
 62
7
100
AcDbSpline
 70
8
 71
3
 72
8
 73
4
 74
0
 40
0
 40
0
 40
0
 40
0
 40
1
 40
1
 40
1
 40
1
 10
359.040651
 20
-15.895421
 30
0.0
 10
359.040652
 20
-13.942803
 30
0.0
 10
360.623561
 20
-12.359894
 30
0.0
 10
362.576179
 20
-12.359894
 30
0.0
  0
SPLINE
  5
15a
100
AcDbEntity
  8
0
 62
7
100
AcDbSpline
 70
8
 71
3
 72
8
 73
4
 74
0
 40
0
 40
0
 40
0
 40
0
 40
1
 40
1
 40
1
 40
1
 10
362.576179
 20
-12.359894
 30
0.0
 10
364.528796
 20
-12.359894
 30
0.0
 10
366.111706
 20
-13.942803
 30
0.0
 10
366.111706
 20
-15.895421
 30
0.0
  0
LWPOLYLINE
  5
15b
100
AcDbEntity
  8
0
 62
7
100
AcDbPolyline
 90
1
 70
1
 10
206.112545
 20
-15.895421
 30
0.0
  0
SPLINE
  5
15c
100
AcDbEntity
  8
0
 62
7
100
AcDbSpline
 70
8
 71
3
 72
8
 73
4
 74
0
 40
0
 40
0
 40
0
 40
0
 40
1
 40
1
 40
1
 40
1
 10
361.112986
 20
-100.895508
 30
0.0
 10
361.112986
 20
-102.158630
 30
0.0
 10
360.439118
 20
-103.325803
 30
0.0
 10
359.345222
 20
-103.957364
 30
0.0
  0
SPLINE
  5
15d
100
AcDbEntity
  8
0
 62
7
100
AcDbSpline
 70
8
 71
3
 72
8
 73
4
 74
0
 40
0
 40
0
 40
0
 40
0
 40
1
 40
1
 40
1
 40
1
 10
359.345222
 20
-103.957364
 30
0.0
 10
358.251326
 20
-104.588925
 30
0.0
 10
356.903591
 20
-104.588925
 30
0.0
 10
355.809695
 20
-103.957364
 30
0.0
  0
SPLINE
  5
15e
100
AcDbEntity
  8
0
 62
7
100
AcDbSpline
 70
8
 71
3
 72
8
 73
4
 74
0
 40
0
 40
0
 40
0
 40
0
 40
1
 40
1
 40
1
 40
1
 10
355.809695
 20
-103.957364
 30
0.0
 10
354.715799
 20
-103.325803
 30
0.0
 10
354.041932
 20
-102.158630
 30
0.0
 10
354.041932
 20
-100.895508
 30
0.0
  0
SPLINE
  5
15f
100
AcDbEntity
  8
0
 62
7
100
AcDbSpline
 70
8
 71
3
 72
8
 73
4
 74
0
 40
0
 40
0
 40
0
 40
0
 40
1
 40
1
 40
1
 40
1
 10
354.041932
 20
-100.895508
 30
0.0
 10
354.041932
 20
-99.632385
 30
0.0
 10
354.715799
 20
-98.465212
 30
0.0
 10
355.809695
 20
-97.833651
 30
0.0
  0
SPLINE
  5
160
100
AcDbEntity
  8
0
 62
7
100
AcDbSpline
 70
8
 71
3
 72
8
 73
4
 74
0
 40
0
 40
0
 40
0
 40
0
 40
1
 40
1
 40
1
 40
1
 10
355.809695
 20
-97.833651
 30
0.0
 10
356.903591
 20
-97.202090
 30
0.0
 10
358.251326
 20
-97.202090
 30
0.0
 10
359.345222
 20
-97.833651
 30
0.0
  0
SPLINE
  5
161
100
AcDbEntity
  8
0
 62
7
100
AcDbSpline
 70
8
 71
3
 72
8
 73
4
 74
0
 40
0
 40
0
 40
0
 40
0
 40
1
 40
1
 40
1
 40
1
 10
359.345222
 20
-97.833651
 30
0.0
 10
360.439118
 20
-98.465212
 30
0.0
 10
361.112986
 20
-99.632385
 30
0.0
 10
361.112986
 20
-100.895508
 30
0.0
  0
LWPOLYLINE
  5
162
100
AcDbEntity
  8
0
 62
7
100
AcDbPolyline
 90
1
 70
1
 10
366.111706
 20
-15.895421
 30
0.0
  0
SPLINE
  5
163
100
AcDbEntity
  8
0
 62
7
100
AcDbSpline
 70
8
 71
3
 72
8
 73
4
 74
0
 40
0
 40
0
 40
0
 40
0
 40
1
 40
1
 40
1
 40
1
 10
311.113087
 20
-115.895477
 30
0.0
 10
311.113087
 20
-117.158600
 30
0.0
 10
310.439220
 20
-118.325773
 30
0.0
 10
309.345324
 20
-118.957334
 30
0.0
  0
SPLINE
  5
164
100
AcDbEntity
  8
0
 62
7
100
AcDbSpline
 70
8
 71
3
 72
8
 73
4
 74
0
 40
0
 40
0
 40
0
 40
0
 40
1
 40
1
 40
1
 40
1
 10
309.345324
 20
-118.957334
 30
0.0
 10
308.251428
 20
-119.588895
 30
0.0
 10
306.903692
 20
-119.588895
 30
0.0
 10
305.809796
 20
-118.957334
 30
0.0
  0
SPLINE
  5
165
100
AcDbEntity
  8
0
 62
7
100
AcDbSpline
 70
8
 71
3
 72
8
 73
4
 74
0
 40
0
 40
0
 40
0
 40
0
 40
1
 40
1
 40
1
 40
1
 10
305.809796
 20
-118.957334
 30
0.0
 10
304.715900
 20
-118.325773
 30
0.0
 10
304.042033
 20
-117.158600
 30
0.0
 10
304.042033
 20
-115.895477
 30
0.0
  0
SPLINE
  5
166
100
AcDbEntity
  8
0
 62
7
100
AcDbSpline
 70
8
 71
3
 72
8
 73
4
 74
0
 40
0
 40
0
 40
0
 40
0
 40
1
 40
1
 40
1
 40
1
 10
304.042033
 20
-115.895477
 30
0.0
 10
304.042033
 20
-114.632355
 30
0.0
 10
304.715900
 20
-113.465182
 30
0.0
 10
305.809796
 20
-112.833621
 30
0.0
  0
SPLINE
  5
167
100
AcDbEntity
  8
0
 62
7
100
AcDbSpline
 70
8
 71
3
 72
8
 73
4
 74
0
 40
0
 40
0
 40
0
 40
0
 40
1
 40
1
 40
1
 40
1
 10
305.809796
 20
-112.833621
 30
0.0
 10
306.903692
 20
-112.202060
 30
0.0
 10
308.251428
 20
-112.202060
 30
0.0
 10
309.345324
 20
-112.833621
 30
0.0
  0
SPLINE
  5
168
100
AcDbEntity
  8
0
 62
7
100
AcDbSpline
 70
8
 71
3
 72
8
 73
4
 74
0
 40
0
 40
0
 40
0
 40
0
 40
1
 40
1
 40
1
 40
1
 10
309.345324
 20
-112.833621
 30
0.0
 10
310.439220
 20
-113.465182
 30
0.0
 10
311.113087
 20
-114.632355
 30
0.0
 10
311.113087
 20
-115.895477
 30
0.0
  0
LWPOLYLINE
  5
169
100
AcDbEntity
  8
0
 62
7
100
AcDbPolyline
 90
1
 70
1
 10
361.112986
 20
-100.895508
 30
0.0
  0
SPLINE
  5
16a
100
AcDbEntity
  8
0
 62
7
100
AcDbSpline
 70
8
 71
3
 72
8
 73
4
 74
0
 40
0
 40
0
 40
0
 40
0
 40
1
 40
1
 40
1
 40
1
 10
283.776341
 20
-130.895447
 30
0.0
 10
283.776341
 20
-131.324166
 30
0.0
 10
283.547622
 20
-131.720318
 30
0.0
 10
283.176341
 20
-131.934678
 30
0.0
  0
SPLINE
  5
16b
100
AcDbEntity
  8
0
 62
7
100
AcDbSpline
 70
8
 71
3
 72
8
 73
4
 74
0
 40
0
 40
0
 40
0
 40
0
 40
1
 40
1
 40
1
 40
1
 10
283.176341
 20
-131.934678
 30
0.0
 10
282.805059
 20
-132.149037
 30
0.0
 10
282.347622
 20
-132.149037
 30
0.0
 10
281.976341
 20
-131.934678
 30
0.0
  0
SPLINE
  5
16c
100
AcDbEntity
  8
0
 62
7
100
AcDbSpline
 70
8
 71
3
 72
8
 73
4
 74
0
 40
0
 40
0
 40
0
 40
0
 40
1
 40
1
 40
1
 40
1
 10
281.976341
 20
-131.934678
 30
0.0
 10
281.605059
 20
-131.720318
 30
0.0
 10
281.376340
 20
-131.324166
 30
0.0
 10
281.376340
 20
-130.895447
 30
0.0
  0
SPLINE
  5
16d
100
AcDbEntity
  8
0
 62
7
100
AcDbSpline
 70
8
 71
3
 72
8
 73
4
 74
0
 40
0
 40
0
 40
0
 40
0
 40
1
 40
1
 40
1
 40
1
 10
281.376340
 20
-130.895447
 30
0.0
 10
281.376340
 20
-130.466728
 30
0.0
 10
281.605059
 20
-130.070576
 30
0.0
 10
281.976341
 20
-129.856216
 30
0.0
  0
SPLINE
  5
16e
100
AcDbEntity
  8
0
 62
7
100
AcDbSpline
 70
8
 71
3
 72
8
 73
4
 74
0
 40
0
 40
0
 40
0
 40
0
 40
1
 40
1
 40
1
 40
1
 10
281.976341
 20
-129.856216
 30
0.0
 10
282.347622
 20
-129.641857
 30
0.0
 10
282.805059
 20
-129.641857
 30
0.0
 10
283.176341
 20
-129.856216
 30
0.0
  0
SPLINE
  5
16f
100
AcDbEntity
  8
0
 62
7
100
AcDbSpline
 70
8
 71
3
 72
8
 73
4
 74
0
 40
0
 40
0
 40
0
 40
0
 40
1
 40
1
 40
1
 40
1
 10
283.176341
 20
-129.856216
 30
0.0
 10
283.547622
 20
-130.070576
 30
0.0
 10
283.776341
 20
-130.466728
 30
0.0
 10
283.776341
 20
-130.895447
 30
0.0
  0
LWPOLYLINE
  5
170
100
AcDbEntity
  8
0
 62
7
100
AcDbPolyline
 90
1
 70
1
 10
311.113087
 20
-115.895477
 30
0.0
  0
SPLINE
  5
171
100
AcDbEntity
  8
0
 62
7
100
AcDbSpline
 70
8
 71
3
 72
8
 73
4
 74
0
 40
0
 40
0
 40
0
 40
0
 40
1
 40
1
 40
1
 40
1
 10
358.777459
 20
-130.895447
 30
0.0
 10
358.777459
 20
-131.558189
 30
0.0
 10
358.240200
 20
-132.095447
 30
0.0
 10
357.577459
 20
-132.095447
 30
0.0
  0
SPLINE
  5
172
100
AcDbEntity
  8
0
 62
7
100
AcDbSpline
 70
8
 71
3
 72
8
 73
4
 74
0
 40
0
 40
0
 40
0
 40
0
 40
1
 40
1
 40
1
 40
1
 10
357.577459
 20
-132.095447
 30
0.0
 10
356.914717
 20
-132.095447
 30
0.0
 10
356.377459
 20
-131.558189
 30
0.0
 10
356.377459
 20
-130.895447
 30
0.0
  0
SPLINE
  5
173
100
AcDbEntity
  8
0
 62
7
100
AcDbSpline
 70
8
 71
3
 72
8
 73
4
 74
0
 40
0
 40
0
 40
0
 40
0
 40
1
 40
1
 40
1
 40
1
 10
356.377459
 20
-130.895447
 30
0.0
 10
356.377459
 20
-130.232705
 30
0.0
 10
356.914717
 20
-129.695447
 30
0.0
 10
357.577459
 20
-129.695447
 30
0.0
  0
SPLINE
  5
174
100
AcDbEntity
  8
0
 62
7
100
AcDbSpline
 70
8
 71
3
 72
8
 73
4
 74
0
 40
0
 40
0
 40
0
 40
0
 40
1
 40
1
 40
1
 40
1
 10
357.577459
 20
-129.695447
 30
0.0
 10
358.240200
 20
-129.695447
 30
0.0
 10
358.777459
 20
-130.232705
 30
0.0
 10
358.777459
 20
-130.895447
 30
0.0
  0
LWPOLYLINE
  5
175
100
AcDbEntity
  8
0
 62
7
100
AcDbPolyline
 90
1
 70
1
 10
283.776341
 20
-130.895447
 30
0.0
  0
SPLINE
  5
176
100
AcDbEntity
  8
0
 62
7
100
AcDbSpline
 70
8
 71
3
 72
8
 73
4
 74
0
 40
0
 40
0
 40
0
 40
0
 40
1
 40
1
 40
1
 40
1
 10
378.777418
 20
-110.895487
 30
0.0
 10
378.777418
 20
-111.558229
 30
0.0
 10
378.240160
 20
-112.095487
 30
0.0
 10
377.577418
 20
-112.095487
 30
0.0
  0
SPLINE
  5
177
100
AcDbEntity
  8
0
 62
7
100
AcDbSpline
 70
8
 71
3
 72
8
 73
4
 74
0
 40
0
 40
0
 40
0
 40
0
 40
1
 40
1
 40
1
 40
1
 10
377.577418
 20
-112.095487
 30
0.0
 10
376.914677
 20
-112.095487
 30
0.0
 10
376.377418
 20
-111.558229
 30
0.0
 10
376.377418
 20
-110.895487
 30
0.0
  0
SPLINE
  5
178
100
AcDbEntity
  8
0
 62
7
100
AcDbSpline
 70
8
 71
3
 72
8
 73
4
 74
0
 40
0
 40
0
 40
0
 40
0
 40
1
 40
1
 40
1
 40
1
 10
376.377418
 20
-110.895487
 30
0.0
 10
376.377418
 20
-110.466769
 30
0.0
 10
376.606137
 20
-110.070616
 30
0.0
 10
376.977418
 20
-109.856257
 30
0.0
  0
SPLINE
  5
179
100
AcDbEntity
  8
0
 62
7
100
AcDbSpline
 70
8
 71
3
 72
8
 73
4
 74
0
 40
0
 40
0
 40
0
 40
0
 40
1
 40
1
 40
1
 40
1
 10
376.977418
 20
-109.856257
 30
0.0
 10
377.348700
 20
-109.641897
 30
0.0
 10
377.806137
 20
-109.641897
 30
0.0
 10
378.177418
 20
-109.856257
 30
0.0
  0
SPLINE
  5
17a
100
AcDbEntity
  8
0
 62
7
100
AcDbSpline
 70
8
 71
3
 72
8
 73
4
 74
0
 40
0
 40
0
 40
0
 40
0
 40
1
 40
1
 40
1
 40
1
 10
378.177418
 20
-109.856257
 30
0.0
 10
378.548700
 20
-110.070616
 30
0.0
 10
378.777418
 20
-110.466769
 30
0.0
 10
378.777418
 20
-110.895487
 30
0.0
  0
LWPOLYLINE
  5
17b
100
AcDbEntity
  8
0
 62
7
100
AcDbPolyline
 90
1
 70
1
 10
358.777459
 20
-130.895447
 30
0.0
  0
SPLINE
  5
17c
100
AcDbEntity
  8
0
 62
7
100
AcDbSpline
 70
8
 71
3
 72
8
 73
4
 74
0
 40
0
 40
0
 40
0
 40
0
 40
1
 40
1
 40
1
 40
1
 10
378.777418
 20
-20.895411
 30
0.0
 10
378.777418
 20
-21.558152
 30
0.0
 10
378.240160
 20
-22.095410
 30
0.0
 10
377.577418
 20
-22.095410
 30
0.0
  0
SPLINE
  5
17d
100
AcDbEntity
  8
0
 62
7
100
AcDbSpline
 70
8
 71
3
 72
8
 73
4
 74
0
 40
0
 40
0
 40
0
 40
0
 40
1
 40
1
 40
1
 40
1
 10
377.577418
 20
-22.095410
 30
0.0
 10
376.914677
 20
-22.095410
 30
0.0
 10
376.377418
 20
-21.558152
 30
0.0
 10
376.377418
 20
-20.895411
 30
0.0
  0
SPLINE
  5
17e
100
AcDbEntity
  8
0
 62
7
100
AcDbSpline
 70
8
 71
3
 72
8
 73
4
 74
0
 40
0
 40
0
 40
0
 40
0
 40
1
 40
1
 40
1
 40
1
 10
376.377418
 20
-20.895411
 30
0.0
 10
376.377418
 20
-20.466692
 30
0.0
 10
376.606137
 20
-20.070539
 30
0.0
 10
376.977418
 20
-19.856180
 30
0.0
  0
SPLINE
  5
17f
100
AcDbEntity
  8
0
 62
7
100
AcDbSpline
 70
8
 71
3
 72
8
 73
4
 74
0
 40
0
 40
0
 40
0
 40
0
 40
1
 40
1
 40
1
 40
1
 10
376.977418
 20
-19.856180
 30
0.0
 10
377.348700
 20
-19.641821
 30
0.0
 10
377.806137
 20
-19.641821
 30
0.0
 10
378.177418
 20
-19.856180
 30
0.0
  0
SPLINE
  5
180
100
AcDbEntity
  8
0
 62
7
100
AcDbSpline
 70
8
 71
3
 72
8
 73
4
 74
0
 40
0
 40
0
 40
0
 40
0
 40
1
 40
1
 40
1
 40
1
 10
378.177418
 20
-19.856180
 30
0.0
 10
378.548700
 20
-20.070539
 30
0.0
 10
378.777418
 20
-20.466692
 30
0.0
 10
378.777418
 20
-20.895411
 30
0.0
  0
LWPOLYLINE
  5
181
100
AcDbEntity
  8
0
 62
7
100
AcDbPolyline
 90
1
 70
1
 10
378.777418
 20
-110.895487
 30
0.0
  0
SPLINE
  5
182
100
AcDbEntity
  8
0
 62
7
100
AcDbSpline
 70
8
 71
3
 72
8
 73
4
 74
0
 40
0
 40
0
 40
0
 40
0
 40
1
 40
1
 40
1
 40
1
 10
353.776199
 20
-0.895451
 30
0.0
 10
353.776199
 20
-1.324170
 30
0.0
 10
353.547480
 20
-1.720322
 30
0.0
 10
353.176199
 20
-1.934682
 30
0.0
  0
SPLINE
  5
183
100
AcDbEntity
  8
0
 62
7
100
AcDbSpline
 70
8
 71
3
 72
8
 73
4
 74
0
 40
0
 40
0
 40
0
 40
0
 40
1
 40
1
 40
1
 40
1
 10
353.176199
 20
-1.934682
 30
0.0
 10
352.804918
 20
-2.149041
 30
0.0
 10
352.347480
 20
-2.149041
 30
0.0
 10
351.976199
 20
-1.934682
 30
0.0
  0
SPLINE
  5
184
100
AcDbEntity
  8
0
 62
7
100
AcDbSpline
 70
8
 71
3
 72
8
 73
4
 74
0
 40
0
 40
0
 40
0
 40
0
 40
1
 40
1
 40
1
 40
1
 10
351.976199
 20
-1.934682
 30
0.0
 10
351.604917
 20
-1.720322
 30
0.0
 10
351.376199
 20
-1.324170
 30
0.0
 10
351.376199
 20
-0.895451
 30
0.0
  0
SPLINE
  5
185
100
AcDbEntity
  8
0
 62
7
100
AcDbSpline
 70
8
 71
3
 72
8
 73
4
 74
0
 40
0
 40
0
 40
0
 40
0
 40
1
 40
1
 40
1
 40
1
 10
351.376199
 20
-0.895451
 30
0.0
 10
351.376199
 20
-0.466732
 30
0.0
 10
351.604917
 20
-0.070580
 30
0.0
 10
351.976199
 20
0.143780
 30
0.0
  0
SPLINE
  5
186
100
AcDbEntity
  8
0
 62
7
100
AcDbSpline
 70
8
 71
3
 72
8
 73
4
 74
0
 40
0
 40
0
 40
0
 40
0
 40
1
 40
1
 40
1
 40
1
 10
351.976199
 20
0.143780
 30
0.0
 10
352.347480
 20
0.358139
 30
0.0
 10
352.804918
 20
0.358139
 30
0.0
 10
353.176199
 20
0.143780
 30
0.0
  0
SPLINE
  5
187
100
AcDbEntity
  8
0
 62
7
100
AcDbSpline
 70
8
 71
3
 72
8
 73
4
 74
0
 40
0
 40
0
 40
0
 40
0
 40
1
 40
1
 40
1
 40
1
 10
353.176199
 20
0.143780
 30
0.0
 10
353.547480
 20
-0.070580
 30
0.0
 10
353.776199
 20
-0.466732
 30
0.0
 10
353.776199
 20
-0.895451
 30
0.0
  0
LWPOLYLINE
  5
188
100
AcDbEntity
  8
0
 62
7
100
AcDbPolyline
 90
1
 70
1
 10
378.777418
 20
-20.895411
 30
0.0
  0
SPLINE
  5
189
100
AcDbEntity
  8
0
 62
7
100
AcDbSpline
 70
8
 71
3
 72
8
 73
4
 74
0
 40
0
 40
0
 40
0
 40
0
 40
1
 40
1
 40
1
 40
1
 10
283.776341
 20
-0.895451
 30
0.0
 10
283.776341
 20
-1.324170
 30
0.0
 10
283.547622
 20
-1.720322
 30
0.0
 10
283.176341
 20
-1.934682
 30
0.0
  0
SPLINE
  5
18a
100
AcDbEntity
  8
0
 62
7
100
AcDbSpline
 70
8
 71
3
 72
8
 73
4
 74
0
 40
0
 40
0
 40
0
 40
0
 40
1
 40
1
 40
1
 40
1
 10
283.176341
 20
-1.934682
 30
0.0
 10
282.805059
 20
-2.149041
 30
0.0
 10
282.347622
 20
-2.149041
 30
0.0
 10
281.976341
 20
-1.934682
 30
0.0
  0
SPLINE
  5
18b
100
AcDbEntity
  8
0
 62
7
100
AcDbSpline
 70
8
 71
3
 72
8
 73
4
 74
0
 40
0
 40
0
 40
0
 40
0
 40
1
 40
1
 40
1
 40
1
 10
281.976341
 20
-1.934682
 30
0.0
 10
281.605059
 20
-1.720322
 30
0.0
 10
281.376340
 20
-1.324170
 30
0.0
 10
281.376340
 20
-0.895451
 30
0.0
  0
SPLINE
  5
18c
100
AcDbEntity
  8
0
 62
7
100
AcDbSpline
 70
8
 71
3
 72
8
 73
4
 74
0
 40
0
 40
0
 40
0
 40
0
 40
1
 40
1
 40
1
 40
1
 10
281.376340
 20
-0.895451
 30
0.0
 10
281.376340
 20
-0.466732
 30
0.0
 10
281.605059
 20
-0.070580
 30
0.0
 10
281.976341
 20
0.143780
 30
0.0
  0
SPLINE
  5
18d
100
AcDbEntity
  8
0
 62
7
100
AcDbSpline
 70
8
 71
3
 72
8
 73
4
 74
0
 40
0
 40
0
 40
0
 40
0
 40
1
 40
1
 40
1
 40
1
 10
281.976341
 20
0.143780
 30
0.0
 10
282.347622
 20
0.358139
 30
0.0
 10
282.805059
 20
0.358139
 30
0.0
 10
283.176341
 20
0.143780
 30
0.0
  0
SPLINE
  5
18e
100
AcDbEntity
  8
0
 62
7
100
AcDbSpline
 70
8
 71
3
 72
8
 73
4
 74
0
 40
0
 40
0
 40
0
 40
0
 40
1
 40
1
 40
1
 40
1
 10
283.176341
 20
0.143780
 30
0.0
 10
283.547622
 20
-0.070580
 30
0.0
 10
283.776341
 20
-0.466732
 30
0.0
 10
283.776341
 20
-0.895451
 30
0.0
  0
LWPOLYLINE
  5
18f
100
AcDbEntity
  8
0
 62
7
100
AcDbPolyline
 90
1
 70
1
 10
353.776199
 20
-0.895451
 30
0.0
  0
SPLINE
  5
190
100
AcDbEntity
  8
0
 62
7
100
AcDbSpline
 70
8
 71
3
 72
8
 73
4
 74
0
 40
0
 40
0
 40
0
 40
0
 40
1
 40
1
 40
1
 40
1
 10
231.276823
 20
-170.895623
 30
0.0
 10
231.276823
 20
-171.324341
 30
0.0
 10
231.048104
 20
-171.720494
 30
0.0
 10
230.676823
 20
-171.934853
 30
0.0
  0
SPLINE
  5
191
100
AcDbEntity
  8
0
 62
7
100
AcDbSpline
 70
8
 71
3
 72
8
 73
4
 74
0
 40
0
 40
0
 40
0
 40
0
 40
1
 40
1
 40
1
 40
1
 10
230.676823
 20
-171.934853
 30
0.0
 10
230.305542
 20
-172.149213
 30
0.0
 10
229.848104
 20
-172.149213
 30
0.0
 10
229.476823
 20
-171.934853
 30
0.0
  0
SPLINE
  5
192
100
AcDbEntity
  8
0
 62
7
100
AcDbSpline
 70
8
 71
3
 72
8
 73
4
 74
0
 40
0
 40
0
 40
0
 40
0
 40
1
 40
1
 40
1
 40
1
 10
229.476823
 20
-171.934853
 30
0.0
 10
229.105541
 20
-171.720494
 30
0.0
 10
228.876823
 20
-171.324341
 30
0.0
 10
228.876823
 20
-170.895623
 30
0.0
  0
SPLINE
  5
193
100
AcDbEntity
  8
0
 62
7
100
AcDbSpline
 70
8
 71
3
 72
8
 73
4
 74
0
 40
0
 40
0
 40
0
 40
0
 40
1
 40
1
 40
1
 40
1
 10
228.876823
 20
-170.895623
 30
0.0
 10
228.876823
 20
-170.466904
 30
0.0
 10
229.105541
 20
-170.070751
 30
0.0
 10
229.476823
 20
-169.856392
 30
0.0
  0
SPLINE
  5
194
100
AcDbEntity
  8
0
 62
7
100
AcDbSpline
 70
8
 71
3
 72
8
 73
4
 74
0
 40
0
 40
0
 40
0
 40
0
 40
1
 40
1
 40
1
 40
1
 10
229.476823
 20
-169.856392
 30
0.0
 10
229.848104
 20
-169.642033
 30
0.0
 10
230.305542
 20
-169.642033
 30
0.0
 10
230.676823
 20
-169.856392
 30
0.0
  0
SPLINE
  5
195
100
AcDbEntity
  8
0
 62
7
100
AcDbSpline
 70
8
 71
3
 72
8
 73
4
 74
0
 40
0
 40
0
 40
0
 40
0
 40
1
 40
1
 40
1
 40
1
 10
230.676823
 20
-169.856392
 30
0.0
 10
231.048104
 20
-170.070751
 30
0.0
 10
231.276823
 20
-170.466904
 30
0.0
 10
231.276823
 20
-170.895623
 30
0.0
  0
LWPOLYLINE
  5
196
100
AcDbEntity
  8
0
 62
7
100
AcDbPolyline
 90
1
 70
1
 10
283.776341
 20
-0.895451
 30
0.0
  0
SPLINE
  5
197
100
AcDbEntity
  8
0
 62
7
100
AcDbSpline
 70
8
 71
3
 72
8
 73
4
 74
0
 40
0
 40
0
 40
0
 40
0
 40
1
 40
1
 40
1
 40
1
 10
141.277005
 20
-170.895623
 30
0.0
 10
141.277005
 20
-171.324341
 30
0.0
 10
141.048286
 20
-171.720494
 30
0.0
 10
140.677005
 20
-171.934853
 30
0.0
  0
SPLINE
  5
198
100
AcDbEntity
  8
0
 62
7
100
AcDbSpline
 70
8
 71
3
 72
8
 73
4
 74
0
 40
0
 40
0
 40
0
 40
0
 40
1
 40
1
 40
1
 40
1
 10
140.677005
 20
-171.934853
 30
0.0
 10
140.305724
 20
-172.149213
 30
0.0
 10
139.848286
 20
-172.149213
 30
0.0
 10
139.477005
 20
-171.934853
 30
0.0
  0
SPLINE
  5
199
100
AcDbEntity
  8
0
 62
7
100
AcDbSpline
 70
8
 71
3
 72
8
 73
4
 74
0
 40
0
 40
0
 40
0
 40
0
 40
1
 40
1
 40
1
 40
1
 10
139.477005
 20
-171.934853
 30
0.0
 10
139.105724
 20
-171.720494
 30
0.0
 10
138.877005
 20
-171.324341
 30
0.0
 10
138.877005
 20
-170.895623
 30
0.0
  0
SPLINE
  5
19a
100
AcDbEntity
  8
0
 62
7
100
AcDbSpline
 70
8
 71
3
 72
8
 73
4
 74
0
 40
0
 40
0
 40
0
 40
0
 40
1
 40
1
 40
1
 40
1
 10
138.877005
 20
-170.895623
 30
0.0
 10
138.877005
 20
-170.466904
 30
0.0
 10
139.105724
 20
-170.070751
 30
0.0
 10
139.477005
 20
-169.856392
 30
0.0
  0
SPLINE
  5
19b
100
AcDbEntity
  8
0
 62
7
100
AcDbSpline
 70
8
 71
3
 72
8
 73
4
 74
0
 40
0
 40
0
 40
0
 40
0
 40
1
 40
1
 40
1
 40
1
 10
139.477005
 20
-169.856392
 30
0.0
 10
139.848286
 20
-169.642033
 30
0.0
 10
140.305724
 20
-169.642033
 30
0.0
 10
140.677005
 20
-169.856392
 30
0.0
  0
SPLINE
  5
19c
100
AcDbEntity
  8
0
 62
7
100
AcDbSpline
 70
8
 71
3
 72
8
 73
4
 74
0
 40
0
 40
0
 40
0
 40
0
 40
1
 40
1
 40
1
 40
1
 10
140.677005
 20
-169.856392
 30
0.0
 10
141.048286
 20
-170.070751
 30
0.0
 10
141.277005
 20
-170.466904
 30
0.0
 10
141.277005
 20
-170.895623
 30
0.0
  0
LWPOLYLINE
  5
19d
100
AcDbEntity
  8
0
 62
7
100
AcDbPolyline
 90
1
 70
1
 10
231.276823
 20
-170.895623
 30
0.0
  0
SPLINE
  5
19e
100
AcDbEntity
  8
0
 62
7
100
AcDbSpline
 70
8
 71
3
 72
8
 73
4
 74
0
 40
0
 40
0
 40
0
 40
0
 40
1
 40
1
 40
1
 40
1
 10
98.776974
 20
-130.895447
 30
0.0
 10
98.776974
 20
-131.558189
 30
0.0
 10
98.239716
 20
-132.095447
 30
0.0
 10
97.576974
 20
-132.095447
 30
0.0
  0
SPLINE
  5
19f
100
AcDbEntity
  8
0
 62
7
100
AcDbSpline
 70
8
 71
3
 72
8
 73
4
 74
0
 40
0
 40
0
 40
0
 40
0
 40
1
 40
1
 40
1
 40
1
 10
97.576974
 20
-132.095447
 30
0.0
 10
96.914232
 20
-132.095447
 30
0.0
 10
96.376974
 20
-131.558189
 30
0.0
 10
96.376974
 20
-130.895447
 30
0.0
  0
SPLINE
  5
1a0
100
AcDbEntity
  8
0
 62
7
100
AcDbSpline
 70
8
 71
3
 72
8
 73
4
 74
0
 40
0
 40
0
 40
0
 40
0
 40
1
 40
1
 40
1
 40
1
 10
96.376974
 20
-130.895447
 30
0.0
 10
96.376974
 20
-130.232705
 30
0.0
 10
96.914232
 20
-129.695447
 30
0.0
 10
97.576974
 20
-129.695447
 30
0.0
  0
SPLINE
  5
1a1
100
AcDbEntity
  8
0
 62
7
100
AcDbSpline
 70
8
 71
3
 72
8
 73
4
 74
0
 40
0
 40
0
 40
0
 40
0
 40
1
 40
1
 40
1
 40
1
 10
97.576974
 20
-129.695447
 30
0.0
 10
98.239716
 20
-129.695447
 30
0.0
 10
98.776974
 20
-130.232705
 30
0.0
 10
98.776974
 20
-130.895447
 30
0.0
  0
LWPOLYLINE
  5
1a2
100
AcDbEntity
  8
0
 62
7
100
AcDbPolyline
 90
1
 70
1
 10
141.277005
 20
-170.895623
 30
0.0
  0
SPLINE
  5
1a3
100
AcDbEntity
  8
0
 62
7
100
AcDbSpline
 70
8
 71
3
 72
8
 73
4
 74
0
 40
0
 40
0
 40
0
 40
0
 40
1
 40
1
 40
1
 40
1
 10
23.776867
 20
-130.895447
 30
0.0
 10
23.776867
 20
-131.324166
 30
0.0
 10
23.548148
 20
-131.720318
 30
0.0
 10
23.176867
 20
-131.934678
 30
0.0
  0
SPLINE
  5
1a4
100
AcDbEntity
  8
0
 62
7
100
AcDbSpline
 70
8
 71
3
 72
8
 73
4
 74
0
 40
0
 40
0
 40
0
 40
0
 40
1
 40
1
 40
1
 40
1
 10
23.176867
 20
-131.934678
 30
0.0
 10
22.805586
 20
-132.149037
 30
0.0
 10
22.348148
 20
-132.149037
 30
0.0
 10
21.976867
 20
-131.934678
 30
0.0
  0
SPLINE
  5
1a5
100
AcDbEntity
  8
0
 62
7
100
AcDbSpline
 70
8
 71
3
 72
8
 73
4
 74
0
 40
0
 40
0
 40
0
 40
0
 40
1
 40
1
 40
1
 40
1
 10
21.976867
 20
-131.934678
 30
0.0
 10
21.605586
 20
-131.720318
 30
0.0
 10
21.376867
 20
-131.324166
 30
0.0
 10
21.376867
 20
-130.895447
 30
0.0
  0
SPLINE
  5
1a6
100
AcDbEntity
  8
0
 62
7
100
AcDbSpline
 70
8
 71
3
 72
8
 73
4
 74
0
 40
0
 40
0
 40
0
 40
0
 40
1
 40
1
 40
1
 40
1
 10
21.376867
 20
-130.895447
 30
0.0
 10
21.376867
 20
-130.466728
 30
0.0
 10
21.605586
 20
-130.070576
 30
0.0
 10
21.976867
 20
-129.856216
 30
0.0
  0
SPLINE
  5
1a7
100
AcDbEntity
  8
0
 62
7
100
AcDbSpline
 70
8
 71
3
 72
8
 73
4
 74
0
 40
0
 40
0
 40
0
 40
0
 40
1
 40
1
 40
1
 40
1
 10
21.976867
 20
-129.856216
 30
0.0
 10
22.348148
 20
-129.641857
 30
0.0
 10
22.805586
 20
-129.641857
 30
0.0
 10
23.176867
 20
-129.856216
 30
0.0
  0
SPLINE
  5
1a8
100
AcDbEntity
  8
0
 62
7
100
AcDbSpline
 70
8
 71
3
 72
8
 73
4
 74
0
 40
0
 40
0
 40
0
 40
0
 40
1
 40
1
 40
1
 40
1
 10
23.176867
 20
-129.856216
 30
0.0
 10
23.548148
 20
-130.070576
 30
0.0
 10
23.776867
 20
-130.466728
 30
0.0
 10
23.776867
 20
-130.895447
 30
0.0
  0
LWPOLYLINE
  5
1a9
100
AcDbEntity
  8
0
 62
7
100
AcDbPolyline
 90
1
 70
1
 10
98.776974
 20
-130.895447
 30
0.0
  0
SPLINE
  5
1aa
100
AcDbEntity
  8
0
 62
7
100
AcDbSpline
 70
8
 71
3
 72
8
 73
4
 74
0
 40
0
 40
0
 40
0
 40
0
 40
1
 40
1
 40
1
 40
1
 10
3.776958
 20
-110.895487
 30
0.0
 10
3.776958
 20
-111.324206
 30
0.0
 10
3.548240
 20
-111.720359
 30
0.0
 10
3.176958
 20
-111.934718
 30
0.0
  0
SPLINE
  5
1ab
100
AcDbEntity
  8
0
 62
7
100
AcDbSpline
 70
8
 71
3
 72
8
 73
4
 74
0
 40
0
 40
0
 40
0
 40
0
 40
1
 40
1
 40
1
 40
1
 10
3.176958
 20
-111.934718
 30
0.0
 10
2.805677
 20
-112.149077
 30
0.0
 10
2.348239
 20
-112.149077
 30
0.0
 10
1.976958
 20
-111.934718
 30
0.0
  0
SPLINE
  5
1ac
100
AcDbEntity
  8
0
 62
7
100
AcDbSpline
 70
8
 71
3
 72
8
 73
4
 74
0
 40
0
 40
0
 40
0
 40
0
 40
1
 40
1
 40
1
 40
1
 10
1.976958
 20
-111.934718
 30
0.0
 10
1.605677
 20
-111.720359
 30
0.0
 10
1.376958
 20
-111.324206
 30
0.0
 10
1.376958
 20
-110.895487
 30
0.0
  0
SPLINE
  5
1ad
100
AcDbEntity
  8
0
 62
7
100
AcDbSpline
 70
8
 71
3
 72
8
 73
4
 74
0
 40
0
 40
0
 40
0
 40
0
 40
1
 40
1
 40
1
 40
1
 10
1.376958
 20
-110.895487
 30
0.0
 10
1.376958
 20
-110.466769
 30
0.0
 10
1.605677
 20
-110.070616
 30
0.0
 10
1.976958
 20
-109.856257
 30
0.0
  0
SPLINE
  5
1ae
100
AcDbEntity
  8
0
 62
7
100
AcDbSpline
 70
8
 71
3
 72
8
 73
4
 74
0
 40
0
 40
0
 40
0
 40
0
 40
1
 40
1
 40
1
 40
1
 10
1.976958
 20
-109.856257
 30
0.0
 10
2.348239
 20
-109.641897
 30
0.0
 10
2.805677
 20
-109.641897
 30
0.0
 10
3.176958
 20
-109.856257
 30
0.0
  0
SPLINE
  5
1af
100
AcDbEntity
  8
0
 62
7
100
AcDbSpline
 70
8
 71
3
 72
8
 73
4
 74
0
 40
0
 40
0
 40
0
 40
0
 40
1
 40
1
 40
1
 40
1
 10
3.176958
 20
-109.856257
 30
0.0
 10
3.548240
 20
-110.070616
 30
0.0
 10
3.776958
 20
-110.466769
 30
0.0
 10
3.776958
 20
-110.895487
 30
0.0
  0
LWPOLYLINE
  5
1b0
100
AcDbEntity
  8
0
 62
7
100
AcDbPolyline
 90
1
 70
1
 10
23.776867
 20
-130.895447
 30
0.0
  0
SPLINE
  5
1b1
100
AcDbEntity
  8
0
 62
7
100
AcDbSpline
 70
8
 71
3
 72
8
 73
4
 74
0
 40
0
 40
0
 40
0
 40
0
 40
1
 40
1
 40
1
 40
1
 10
3.776958
 20
-20.895411
 30
0.0
 10
3.776958
 20
-21.324129
 30
0.0
 10
3.548240
 20
-21.720282
 30
0.0
 10
3.176958
 20
-21.934641
 30
0.0
  0
SPLINE
  5
1b2
100
AcDbEntity
  8
0
 62
7
100
AcDbSpline
 70
8
 71
3
 72
8
 73
4
 74
0
 40
0
 40
0
 40
0
 40
0
 40
1
 40
1
 40
1
 40
1
 10
3.176958
 20
-21.934641
 30
0.0
 10
2.805677
 20
-22.149001
 30
0.0
 10
2.348239
 20
-22.149001
 30
0.0
 10
1.976958
 20
-21.934641
 30
0.0
  0
SPLINE
  5
1b3
100
AcDbEntity
  8
0
 62
7
100
AcDbSpline
 70
8
 71
3
 72
8
 73
4
 74
0
 40
0
 40
0
 40
0
 40
0
 40
1
 40
1
 40
1
 40
1
 10
1.976958
 20
-21.934641
 30
0.0
 10
1.605677
 20
-21.720282
 30
0.0
 10
1.376958
 20
-21.324129
 30
0.0
 10
1.376958
 20
-20.895411
 30
0.0
  0
SPLINE
  5
1b4
100
AcDbEntity
  8
0
 62
7
100
AcDbSpline
 70
8
 71
3
 72
8
 73
4
 74
0
 40
0
 40
0
 40
0
 40
0
 40
1
 40
1
 40
1
 40
1
 10
1.376958
 20
-20.895411
 30
0.0
 10
1.376958
 20
-20.466692
 30
0.0
 10
1.605677
 20
-20.070539
 30
0.0
 10
1.976958
 20
-19.856180
 30
0.0
  0
SPLINE
  5
1b5
100
AcDbEntity
  8
0
 62
7
100
AcDbSpline
 70
8
 71
3
 72
8
 73
4
 74
0
 40
0
 40
0
 40
0
 40
0
 40
1
 40
1
 40
1
 40
1
 10
1.976958
 20
-19.856180
 30
0.0
 10
2.348239
 20
-19.641821
 30
0.0
 10
2.805677
 20
-19.641821
 30
0.0
 10
3.176958
 20
-19.856180
 30
0.0
  0
SPLINE
  5
1b6
100
AcDbEntity
  8
0
 62
7
100
AcDbSpline
 70
8
 71
3
 72
8
 73
4
 74
0
 40
0
 40
0
 40
0
 40
0
 40
1
 40
1
 40
1
 40
1
 10
3.176958
 20
-19.856180
 30
0.0
 10
3.548240
 20
-20.070539
 30
0.0
 10
3.776958
 20
-20.466692
 30
0.0
 10
3.776958
 20
-20.895411
 30
0.0
  0
LWPOLYLINE
  5
1b7
100
AcDbEntity
  8
0
 62
7
100
AcDbPolyline
 90
1
 70
1
 10
3.776958
 20
-110.895487
 30
0.0
  0
SPLINE
  5
1b8
100
AcDbEntity
  8
0
 62
7
100
AcDbSpline
 70
8
 71
3
 72
8
 73
4
 74
0
 40
0
 40
0
 40
0
 40
0
 40
1
 40
1
 40
1
 40
1
 10
23.776867
 20
-0.895451
 30
0.0
 10
23.776867
 20
-1.324170
 30
0.0
 10
23.548148
 20
-1.720322
 30
0.0
 10
23.176867
 20
-1.934682
 30
0.0
  0
SPLINE
  5
1b9
100
AcDbEntity
  8
0
 62
7
100
AcDbSpline
 70
8
 71
3
 72
8
 73
4
 74
0
 40
0
 40
0
 40
0
 40
0
 40
1
 40
1
 40
1
 40
1
 10
23.176867
 20
-1.934682
 30
0.0
 10
22.805586
 20
-2.149041
 30
0.0
 10
22.348148
 20
-2.149041
 30
0.0
 10
21.976867
 20
-1.934682
 30
0.0
  0
SPLINE
  5
1ba
100
AcDbEntity
  8
0
 62
7
100
AcDbSpline
 70
8
 71
3
 72
8
 73
4
 74
0
 40
0
 40
0
 40
0
 40
0
 40
1
 40
1
 40
1
 40
1
 10
21.976867
 20
-1.934682
 30
0.0
 10
21.605586
 20
-1.720322
 30
0.0
 10
21.376867
 20
-1.324170
 30
0.0
 10
21.376867
 20
-0.895451
 30
0.0
  0
SPLINE
  5
1bb
100
AcDbEntity
  8
0
 62
7
100
AcDbSpline
 70
8
 71
3
 72
8
 73
4
 74
0
 40
0
 40
0
 40
0
 40
0
 40
1
 40
1
 40
1
 40
1
 10
21.376867
 20
-0.895451
 30
0.0
 10
21.376867
 20
-0.466732
 30
0.0
 10
21.605586
 20
-0.070580
 30
0.0
 10
21.976867
 20
0.143780
 30
0.0
  0
SPLINE
  5
1bc
100
AcDbEntity
  8
0
 62
7
100
AcDbSpline
 70
8
 71
3
 72
8
 73
4
 74
0
 40
0
 40
0
 40
0
 40
0
 40
1
 40
1
 40
1
 40
1
 10
21.976867
 20
0.143780
 30
0.0
 10
22.348148
 20
0.358139
 30
0.0
 10
22.805586
 20
0.358139
 30
0.0
 10
23.176867
 20
0.143780
 30
0.0
  0
SPLINE
  5
1bd
100
AcDbEntity
  8
0
 62
7
100
AcDbSpline
 70
8
 71
3
 72
8
 73
4
 74
0
 40
0
 40
0
 40
0
 40
0
 40
1
 40
1
 40
1
 40
1
 10
23.176867
 20
0.143780
 30
0.0
 10
23.548148
 20
-0.070580
 30
0.0
 10
23.776867
 20
-0.466732
 30
0.0
 10
23.776867
 20
-0.895451
 30
0.0
  0
LWPOLYLINE
  5
1be
100
AcDbEntity
  8
0
 62
7
100
AcDbPolyline
 90
1
 70
1
 10
3.776958
 20
-20.895411
 30
0.0
  0
SPLINE
  5
1bf
100
AcDbEntity
  8
0
 62
7
100
AcDbSpline
 70
8
 71
3
 72
8
 73
4
 74
0
 40
0
 40
0
 40
0
 40
0
 40
1
 40
1
 40
1
 40
1
 10
98.776974
 20
-0.895451
 30
0.0
 10
98.776974
 20
-1.558193
 30
0.0
 10
98.239716
 20
-2.095451
 30
0.0
 10
97.576974
 20
-2.095451
 30
0.0
  0
SPLINE
  5
1c0
100
AcDbEntity
  8
0
 62
7
100
AcDbSpline
 70
8
 71
3
 72
8
 73
4
 74
0
 40
0
 40
0
 40
0
 40
0
 40
1
 40
1
 40
1
 40
1
 10
97.576974
 20
-2.095451
 30
0.0
 10
96.914232
 20
-2.095451
 30
0.0
 10
96.376974
 20
-1.558193
 30
0.0
 10
96.376974
 20
-0.895451
 30
0.0
  0
SPLINE
  5
1c1
100
AcDbEntity
  8
0
 62
7
100
AcDbSpline
 70
8
 71
3
 72
8
 73
4
 74
0
 40
0
 40
0
 40
0
 40
0
 40
1
 40
1
 40
1
 40
1
 10
96.376974
 20
-0.895451
 30
0.0
 10
96.376974
 20
-0.232709
 30
0.0
 10
96.914232
 20
0.304549
 30
0.0
 10
97.576974
 20
0.304549
 30
0.0
  0
SPLINE
  5
1c2
100
AcDbEntity
  8
0
 62
7
100
AcDbSpline
 70
8
 71
3
 72
8
 73
4
 74
0
 40
0
 40
0
 40
0
 40
0
 40
1
 40
1
 40
1
 40
1
 10
97.576974
 20
0.304549
 30
0.0
 10
98.239716
 20
0.304549
 30
0.0
 10
98.776974
 20
-0.232709
 30
0.0
 10
98.776974
 20
-0.895451
 30
0.0
  0
LWPOLYLINE
  5
1c3
100
AcDbEntity
  8
0
 62
7
100
AcDbPolyline
 90
1
 70
1
 10
23.776867
 20
-0.895451
 30
0.0
  0
SPLINE
  5
1c4
100
AcDbEntity
  8
0
 62
7
100
AcDbSpline
 70
8
 71
3
 72
8
 73
4
 74
0
 40
0
 40
0
 40
0
 40
0
 40
1
 40
1
 40
1
 40
1
 10
168.776833
 20
-0.895451
 30
0.0
 10
168.776833
 20
-1.324170
 30
0.0
 10
168.548114
 20
-1.720322
 30
0.0
 10
168.176833
 20
-1.934682
 30
0.0
  0
SPLINE
  5
1c5
100
AcDbEntity
  8
0
 62
7
100
AcDbSpline
 70
8
 71
3
 72
8
 73
4
 74
0
 40
0
 40
0
 40
0
 40
0
 40
1
 40
1
 40
1
 40
1
 10
168.176833
 20
-1.934682
 30
0.0
 10
167.805551
 20
-2.149041
 30
0.0
 10
167.348114
 20
-2.149041
 30
0.0
 10
166.976832
 20
-1.934682
 30
0.0
  0
SPLINE
  5
1c6
100
AcDbEntity
  8
0
 62
7
100
AcDbSpline
 70
8
 71
3
 72
8
 73
4
 74
0
 40
0
 40
0
 40
0
 40
0
 40
1
 40
1
 40
1
 40
1
 10
166.976832
 20
-1.934682
 30
0.0
 10
166.605551
 20
-1.720322
 30
0.0
 10
166.376832
 20
-1.324170
 30
0.0
 10
166.376832
 20
-0.895451
 30
0.0
  0
SPLINE
  5
1c7
100
AcDbEntity
  8
0
 62
7
100
AcDbSpline
 70
8
 71
3
 72
8
 73
4
 74
0
 40
0
 40
0
 40
0
 40
0
 40
1
 40
1
 40
1
 40
1
 10
166.376832
 20
-0.895451
 30
0.0
 10
166.376832
 20
-0.466732
 30
0.0
 10
166.605551
 20
-0.070580
 30
0.0
 10
166.976832
 20
0.143780
 30
0.0
  0
SPLINE
  5
1c8
100
AcDbEntity
  8
0
 62
7
100
AcDbSpline
 70
8
 71
3
 72
8
 73
4
 74
0
 40
0
 40
0
 40
0
 40
0
 40
1
 40
1
 40
1
 40
1
 10
166.976832
 20
0.143780
 30
0.0
 10
167.348114
 20
0.358139
 30
0.0
 10
167.805551
 20
0.358139
 30
0.0
 10
168.176833
 20
0.143780
 30
0.0
  0
SPLINE
  5
1c9
100
AcDbEntity
  8
0
 62
7
100
AcDbSpline
 70
8
 71
3
 72
8
 73
4
 74
0
 40
0
 40
0
 40
0
 40
0
 40
1
 40
1
 40
1
 40
1
 10
168.176833
 20
0.143780
 30
0.0
 10
168.548114
 20
-0.070580
 30
0.0
 10
168.776833
 20
-0.466732
 30
0.0
 10
168.776833
 20
-0.895451
 30
0.0
  0
LWPOLYLINE
  5
1ca
100
AcDbEntity
  8
0
 62
7
100
AcDbPolyline
 90
1
 70
1
 10
98.776974
 20
-0.895451
 30
0.0
  0
SPLINE
  5
1cb
100
AcDbEntity
  8
0
 62
7
100
AcDbSpline
 70
8
 71
3
 72
8
 73
4
 74
0
 40
0
 40
0
 40
0
 40
0
 40
1
 40
1
 40
1
 40
1
 10
203.777018
 20
-0.895451
 30
0.0
 10
203.777018
 20
-1.324170
 30
0.0
 10
203.548300
 20
-1.720322
 30
0.0
 10
203.177018
 20
-1.934682
 30
0.0
  0
SPLINE
  5
1cc
100
AcDbEntity
  8
0
 62
7
100
AcDbSpline
 70
8
 71
3
 72
8
 73
4
 74
0
 40
0
 40
0
 40
0
 40
0
 40
1
 40
1
 40
1
 40
1
 10
203.177018
 20
-1.934682
 30
0.0
 10
202.805737
 20
-2.149041
 30
0.0
 10
202.348299
 20
-2.149041
 30
0.0
 10
201.977018
 20
-1.934682
 30
0.0
  0
SPLINE
  5
1cd
100
AcDbEntity
  8
0
 62
7
100
AcDbSpline
 70
8
 71
3
 72
8
 73
4
 74
0
 40
0
 40
0
 40
0
 40
0
 40
1
 40
1
 40
1
 40
1
 10
201.977018
 20
-1.934682
 30
0.0
 10
201.605737
 20
-1.720322
 30
0.0
 10
201.377018
 20
-1.324170
 30
0.0
 10
201.377018
 20
-0.895451
 30
0.0
  0
SPLINE
  5
1ce
100
AcDbEntity
  8
0
 62
7
100
AcDbSpline
 70
8
 71
3
 72
8
 73
4
 74
0
 40
0
 40
0
 40
0
 40
0
 40
1
 40
1
 40
1
 40
1
 10
201.377018
 20
-0.895451
 30
0.0
 10
201.377018
 20
-0.466732
 30
0.0
 10
201.605737
 20
-0.070580
 30
0.0
 10
201.977018
 20
0.143780
 30
0.0
  0
SPLINE
  5
1cf
100
AcDbEntity
  8
0
 62
7
100
AcDbSpline
 70
8
 71
3
 72
8
 73
4
 74
0
 40
0
 40
0
 40
0
 40
0
 40
1
 40
1
 40
1
 40
1
 10
201.977018
 20
0.143780
 30
0.0
 10
202.348299
 20
0.358139
 30
0.0
 10
202.805737
 20
0.358139
 30
0.0
 10
203.177018
 20
0.143780
 30
0.0
  0
SPLINE
  5
1d0
100
AcDbEntity
  8
0
 62
7
100
AcDbSpline
 70
8
 71
3
 72
8
 73
4
 74
0
 40
0
 40
0
 40
0
 40
0
 40
1
 40
1
 40
1
 40
1
 10
203.177018
 20
0.143780
 30
0.0
 10
203.548300
 20
-0.070580
 30
0.0
 10
203.777018
 20
-0.466732
 30
0.0
 10
203.777018
 20
-0.895451
 30
0.0
  0
LWPOLYLINE
  5
1d1
100
AcDbEntity
  8
0
 62
7
100
AcDbPolyline
 90
1
 70
1
 10
168.776833
 20
-0.895451
 30
0.0
  0
LWPOLYLINE
  5
1d2
100
AcDbEntity
  8
0
 62
7
100
AcDbPolyline
 90
1
 70
1
 10
203.777018
 20
-0.895451
 30
0.0
  0
LWPOLYLINE
  5
1d3
100
AcDbEntity
  8
0
 62
7
100
AcDbPolyline
 90
2
 70
0
 10
223.602622
 20
-127.191868
 30
0.0
 10
225.639702
 20
-126.645768
 30
0.0
  0
LWPOLYLINE
  5
1d4
100
AcDbEntity
  8
0
 62
7
100
AcDbPolyline
 90
2
 70
0
 10
223.183522
 20
-125.622148
 30
0.0
 10
223.602622
 20
-127.191868
 30
0.0
  0
LWPOLYLINE
  5
1d5
100
AcDbEntity
  8
0
 62
7
100
AcDbPolyline
 90
2
 70
0
 10
223.968382
 20
-125.411328
 30
0.0
 10
223.183522
 20
-125.622148
 30
0.0
  0
LWPOLYLINE
  5
1d6
100
AcDbEntity
  8
0
 62
7
100
AcDbPolyline
 90
2
 70
0
 10
222.246262
 20
-118.982588
 30
0.0
 10
223.968382
 20
-125.411328
 30
0.0
  0
LWPOLYLINE
  5
1d7
100
AcDbEntity
  8
0
 62
7
100
AcDbPolyline
 90
2
 70
0
 10
218.956962
 20
-119.863968
 30
0.0
 10
222.246262
 20
-118.982588
 30
0.0
  0
LWPOLYLINE
  5
1d8
100
AcDbEntity
  8
0
 62
7
100
AcDbPolyline
 90
2
 70
0
 10
218.733442
 20
-119.028308
 30
0.0
 10
218.956962
 20
-119.863968
 30
0.0
  0
LWPOLYLINE
  5
1d9
100
AcDbEntity
  8
0
 62
7
100
AcDbPolyline
 90
2
 70
0
 10
216.035962
 20
-119.752208
 30
0.0
 10
218.733442
 20
-119.028308
 30
0.0
  0
LWPOLYLINE
  5
1da
100
AcDbEntity
  8
0
 62
7
100
AcDbPolyline
 90
2
 70
0
 10
216.259482
 20
-120.587868
 30
0.0
 10
216.035962
 20
-119.752208
 30
0.0
  0
LWPOLYLINE
  5
1db
100
AcDbEntity
  8
0
 62
7
100
AcDbPolyline
 90
2
 70
0
 10
210.371762
 20
-122.165208
 30
0.0
 10
216.259482
 20
-120.587868
 30
0.0
  0
LWPOLYLINE
  5
1dc
100
AcDbEntity
  8
0
 62
7
100
AcDbPolyline
 90
2
 70
0
 10
210.641002
 20
-123.171048
 30
0.0
 10
210.371762
 20
-122.165208
 30
0.0
  0
LWPOLYLINE
  5
1dd
100
AcDbEntity
  8
0
 62
7
100
AcDbPolyline
 90
2
 70
0
 10
209.510702
 20
-123.473308
 30
0.0
 10
210.641002
 20
-123.171048
 30
0.0
  0
LWPOLYLINE
  5
1de
100
AcDbEntity
  8
0
 62
7
100
AcDbPolyline
 90
2
 70
0
 10
210.694342
 20
-127.887828
 30
0.0
 10
209.510702
 20
-123.473308
 30
0.0
  0
LWPOLYLINE
  5
1df
100
AcDbEntity
  8
0
 62
7
100
AcDbPolyline
 90
2
 70
0
 10
211.824642
 20
-127.585568
 30
0.0
 10
210.694342
 20
-127.887828
 30
0.0
  0
LWPOLYLINE
  5
1e0
100
AcDbEntity
  8
0
 62
7
100
AcDbPolyline
 90
2
 70
0
 10
212.093882
 20
-128.591408
 30
0.0
 10
211.824642
 20
-127.585568
 30
0.0
  0
LWPOLYLINE
  5
1e1
100
AcDbEntity
  8
0
 62
7
100
AcDbPolyline
 90
2
 70
0
 10
212.853342
 20
-128.388208
 30
0.0
 10
212.093882
 20
-128.591408
 30
0.0
  0
LWPOLYLINE
  5
1e2
100
AcDbEntity
  8
0
 62
7
100
AcDbPolyline
 90
2
 70
0
 10
213.274982
 20
-129.957928
 30
0.0
 10
212.853342
 20
-128.388208
 30
0.0
  0
LWPOLYLINE
  5
1e3
100
AcDbEntity
  8
0
 62
7
100
AcDbPolyline
 90
2
 70
0
 10
212.144682
 20
-130.260188
 30
0.0
 10
213.274982
 20
-129.957928
 30
0.0
  0
LWPOLYLINE
  5
1e4
100
AcDbEntity
  8
0
 62
7
100
AcDbPolyline
 90
2
 70
0
 10
215.761642
 20
-143.755208
 30
0.0
 10
212.144682
 20
-130.260188
 30
0.0
  0
LWPOLYLINE
  5
1e5
100
AcDbEntity
  8
0
 62
7
100
AcDbPolyline
 90
2
 70
0
 10
216.889402
 20
-143.452948
 30
0.0
 10
215.761642
 20
-143.755208
 30
0.0
  0
LWPOLYLINE
  5
1e6
100
AcDbEntity
  8
0
 62
7
100
AcDbPolyline
 90
2
 70
0
 10
217.311042
 20
-145.022668
 30
0.0
 10
216.889402
 20
-143.452948
 30
0.0
  0
LWPOLYLINE
  5
1e7
100
AcDbEntity
  8
0
 62
7
100
AcDbPolyline
 90
2
 70
0
 10
216.549042
 20
-145.225868
 30
0.0
 10
217.311042
 20
-145.022668
 30
0.0
  0
LWPOLYLINE
  5
1e8
100
AcDbEntity
  8
0
 62
7
100
AcDbPolyline
 90
2
 70
0
 10
216.820822
 20
-146.231708
 30
0.0
 10
216.549042
 20
-145.225868
 30
0.0
  0
LWPOLYLINE
  5
1e9
100
AcDbEntity
  8
0
 62
7
100
AcDbPolyline
 90
2
 70
0
 10
215.690522
 20
-146.536508
 30
0.0
 10
216.820822
 20
-146.231708
 30
0.0
  0
LWPOLYLINE
  5
1ea
100
AcDbEntity
  8
0
 62
7
100
AcDbPolyline
 90
2
 70
0
 10
216.874162
 20
-150.951027
 30
0.0
 10
215.690522
 20
-146.536508
 30
0.0
  0
LWPOLYLINE
  5
1eb
100
AcDbEntity
  8
0
 62
7
100
AcDbPolyline
 90
2
 70
0
 10
218.001922
 20
-150.648767
 30
0.0
 10
216.874162
 20
-150.951027
 30
0.0
  0
LWPOLYLINE
  5
1ec
100
AcDbEntity
  8
0
 62
7
100
AcDbPolyline
 90
2
 70
0
 10
218.273702
 20
-151.654607
 30
0.0
 10
218.001922
 20
-150.648767
 30
0.0
  0
LWPOLYLINE
  5
1ed
100
AcDbEntity
  8
0
 62
7
100
AcDbPolyline
 90
2
 70
0
 10
224.161422
 20
-150.077267
 30
0.0
 10
218.273702
 20
-151.654607
 30
0.0
  0
LWPOLYLINE
  5
1ee
100
AcDbEntity
  8
0
 62
7
100
AcDbPolyline
 90
2
 70
0
 10
224.384942
 20
-150.910387
 30
0.0
 10
224.161422
 20
-150.077267
 30
0.0
  0
LWPOLYLINE
  5
1ef
100
AcDbEntity
  8
0
 62
7
100
AcDbPolyline
 90
2
 70
0
 10
227.082422
 20
-150.189027
 30
0.0
 10
224.384942
 20
-150.910387
 30
0.0
  0
LWPOLYLINE
  5
1f0
100
AcDbEntity
  8
0
 62
7
100
AcDbPolyline
 90
2
 70
0
 10
226.858902
 20
-149.353367
 30
0.0
 10
227.082422
 20
-150.189027
 30
0.0
  0
LWPOLYLINE
  5
1f1
100
AcDbEntity
  8
0
 62
7
100
AcDbPolyline
 90
2
 70
0
 10
230.148202
 20
-148.471987
 30
0.0
 10
226.858902
 20
-149.353367
 30
0.0
  0
LWPOLYLINE
  5
1f2
100
AcDbEntity
  8
0
 62
7
100
AcDbPolyline
 90
2
 70
0
 10
228.426082
 20
-142.045788
 30
0.0
 10
230.148202
 20
-148.471987
 30
0.0
  0
LWPOLYLINE
  5
1f3
100
AcDbEntity
  8
0
 62
7
100
AcDbPolyline
 90
2
 70
0
 10
227.638682
 20
-142.256608
 30
0.0
 10
228.426082
 20
-142.045788
 30
0.0
  0
LWPOLYLINE
  5
1f4
100
AcDbEntity
  8
0
 62
7
100
AcDbPolyline
 90
2
 70
0
 10
227.219582
 20
-140.684348
 30
0.0
 10
227.638682
 20
-142.256608
 30
0.0
  0
LWPOLYLINE
  5
1f5
100
AcDbEntity
  8
0
 62
7
100
AcDbPolyline
 90
2
 70
0
 10
229.256662
 20
-140.140788
 30
0.0
 10
227.219582
 20
-140.684348
 30
0.0
  0
LWPOLYLINE
  5
1f6
100
AcDbEntity
  8
0
 62
7
100
AcDbPolyline
 90
2
 70
0
 10
225.639702
 20
-126.645768
 30
0.0
 10
229.256662
 20
-140.140788
 30
0.0
  0
LWPOLYLINE
  5
1f7
100
AcDbEntity
  8
0
 62
7
100
AcDbPolyline
 90
2
 70
0
 10
204.552622
 20
-131.954368
 30
0.0
 10
206.589702
 20
-131.408268
 30
0.0
  0
LWPOLYLINE
  5
1f8
100
AcDbEntity
  8
0
 62
7
100
AcDbPolyline
 90
2
 70
0
 10
204.133523
 20
-130.384648
 30
0.0
 10
204.552622
 20
-131.954368
 30
0.0
  0
LWPOLYLINE
  5
1f9
100
AcDbEntity
  8
0
 62
7
100
AcDbPolyline
 90
2
 70
0
 10
204.918382
 20
-130.173828
 30
0.0
 10
204.133523
 20
-130.384648
 30
0.0
  0
LWPOLYLINE
  5
1fa
100
AcDbEntity
  8
0
 62
7
100
AcDbPolyline
 90
2
 70
0
 10
203.196263
 20
-123.745088
 30
0.0
 10
204.918382
 20
-130.173828
 30
0.0
  0
LWPOLYLINE
  5
1fb
100
AcDbEntity
  8
0
 62
7
100
AcDbPolyline
 90
2
 70
0
 10
199.906963
 20
-124.626468
 30
0.0
 10
203.196263
 20
-123.745088
 30
0.0
  0
LWPOLYLINE
  5
1fc
100
AcDbEntity
  8
0
 62
7
100
AcDbPolyline
 90
2
 70
0
 10
199.683443
 20
-123.790808
 30
0.0
 10
199.906963
 20
-124.626468
 30
0.0
  0
LWPOLYLINE
  5
1fd
100
AcDbEntity
  8
0
 62
7
100
AcDbPolyline
 90
2
 70
0
 10
196.985963
 20
-124.514708
 30
0.0
 10
199.683443
 20
-123.790808
 30
0.0
  0
LWPOLYLINE
  5
1fe
100
AcDbEntity
  8
0
 62
7
100
AcDbPolyline
 90
2
 70
0
 10
197.209483
 20
-125.350368
 30
0.0
 10
196.985963
 20
-124.514708
 30
0.0
  0
LWPOLYLINE
  5
1ff
100
AcDbEntity
  8
0
 62
7
100
AcDbPolyline
 90
2
 70
0
 10
191.321763
 20
-126.927708
 30
0.0
 10
197.209483
 20
-125.350368
 30
0.0
  0
LWPOLYLINE
  5
200
100
AcDbEntity
  8
0
 62
7
100
AcDbPolyline
 90
2
 70
0
 10
191.591003
 20
-127.933548
 30
0.0
 10
191.321763
 20
-126.927708
 30
0.0
  0
LWPOLYLINE
  5
201
100
AcDbEntity
  8
0
 62
7
100
AcDbPolyline
 90
2
 70
0
 10
190.460703
 20
-128.235808
 30
0.0
 10
191.591003
 20
-127.933548
 30
0.0
  0
LWPOLYLINE
  5
202
100
AcDbEntity
  8
0
 62
7
100
AcDbPolyline
 90
2
 70
0
 10
191.644343
 20
-132.650328
 30
0.0
 10
190.460703
 20
-128.235808
 30
0.0
  0
LWPOLYLINE
  5
203
100
AcDbEntity
  8
0
 62
7
100
AcDbPolyline
 90
2
 70
0
 10
192.774643
 20
-132.348068
 30
0.0
 10
191.644343
 20
-132.650328
 30
0.0
  0
LWPOLYLINE
  5
204
100
AcDbEntity
  8
0
 62
7
100
AcDbPolyline
 90
2
 70
0
 10
193.043883
 20
-133.353908
 30
0.0
 10
192.774643
 20
-132.348068
 30
0.0
  0
LWPOLYLINE
  5
205
100
AcDbEntity
  8
0
 62
7
100
AcDbPolyline
 90
2
 70
0
 10
193.803343
 20
-133.150708
 30
0.0
 10
193.043883
 20
-133.353908
 30
0.0
  0
LWPOLYLINE
  5
206
100
AcDbEntity
  8
0
 62
7
100
AcDbPolyline
 90
2
 70
0
 10
194.224983
 20
-134.720428
 30
0.0
 10
193.803343
 20
-133.150708
 30
0.0
  0
LWPOLYLINE
  5
207
100
AcDbEntity
  8
0
 62
7
100
AcDbPolyline
 90
2
 70
0
 10
193.094683
 20
-135.022688
 30
0.0
 10
194.224983
 20
-134.720428
 30
0.0
  0
LWPOLYLINE
  5
208
100
AcDbEntity
  8
0
 62
7
100
AcDbPolyline
 90
2
 70
0
 10
196.711643
 20
-148.517707
 30
0.0
 10
193.094683
 20
-135.022688
 30
0.0
  0
LWPOLYLINE
  5
209
100
AcDbEntity
  8
0
 62
7
100
AcDbPolyline
 90
2
 70
0
 10
197.839403
 20
-148.215447
 30
0.0
 10
196.711643
 20
-148.517707
 30
0.0
  0
LWPOLYLINE
  5
20a
100
AcDbEntity
  8
0
 62
7
100
AcDbPolyline
 90
2
 70
0
 10
198.261043
 20
-149.785167
 30
0.0
 10
197.839403
 20
-148.215447
 30
0.0
  0
LWPOLYLINE
  5
20b
100
AcDbEntity
  8
0
 62
7
100
AcDbPolyline
 90
2
 70
0
 10
197.499043
 20
-149.988367
 30
0.0
 10
198.261043
 20
-149.785167
 30
0.0
  0
LWPOLYLINE
  5
20c
100
AcDbEntity
  8
0
 62
7
100
AcDbPolyline
 90
2
 70
0
 10
197.770823
 20
-150.994207
 30
0.0
 10
197.499043
 20
-149.988367
 30
0.0
  0
LWPOLYLINE
  5
20d
100
AcDbEntity
  8
0
 62
7
100
AcDbPolyline
 90
2
 70
0
 10
196.640523
 20
-151.299007
 30
0.0
 10
197.770823
 20
-150.994207
 30
0.0
  0
LWPOLYLINE
  5
20e
100
AcDbEntity
  8
0
 62
7
100
AcDbPolyline
 90
2
 70
0
 10
197.824163
 20
-155.713527
 30
0.0
 10
196.640523
 20
-151.299007
 30
0.0
  0
LWPOLYLINE
  5
20f
100
AcDbEntity
  8
0
 62
7
100
AcDbPolyline
 90
2
 70
0
 10
198.951923
 20
-155.411267
 30
0.0
 10
197.824163
 20
-155.713527
 30
0.0
  0
LWPOLYLINE
  5
210
100
AcDbEntity
  8
0
 62
7
100
AcDbPolyline
 90
2
 70
0
 10
199.223703
 20
-156.417107
 30
0.0
 10
198.951923
 20
-155.411267
 30
0.0
  0
LWPOLYLINE
  5
211
100
AcDbEntity
  8
0
 62
7
100
AcDbPolyline
 90
2
 70
0
 10
205.111422
 20
-154.839767
 30
0.0
 10
199.223703
 20
-156.417107
 30
0.0
  0
LWPOLYLINE
  5
212
100
AcDbEntity
  8
0
 62
7
100
AcDbPolyline
 90
2
 70
0
 10
205.334942
 20
-155.672887
 30
0.0
 10
205.111422
 20
-154.839767
 30
0.0
  0
LWPOLYLINE
  5
213
100
AcDbEntity
  8
0
 62
7
100
AcDbPolyline
 90
2
 70
0
 10
208.032422
 20
-154.951527
 30
0.0
 10
205.334942
 20
-155.672887
 30
0.0
  0
LWPOLYLINE
  5
214
100
AcDbEntity
  8
0
 62
7
100
AcDbPolyline
 90
2
 70
0
 10
207.808902
 20
-154.115867
 30
0.0
 10
208.032422
 20
-154.951527
 30
0.0
  0
LWPOLYLINE
  5
215
100
AcDbEntity
  8
0
 62
7
100
AcDbPolyline
 90
2
 70
0
 10
211.098202
 20
-153.234487
 30
0.0
 10
207.808902
 20
-154.115867
 30
0.0
  0
LWPOLYLINE
  5
216
100
AcDbEntity
  8
0
 62
7
100
AcDbPolyline
 90
2
 70
0
 10
209.376082
 20
-146.808288
 30
0.0
 10
211.098202
 20
-153.234487
 30
0.0
  0
LWPOLYLINE
  5
217
100
AcDbEntity
  8
0
 62
7
100
AcDbPolyline
 90
2
 70
0
 10
208.588682
 20
-147.019108
 30
0.0
 10
209.376082
 20
-146.808288
 30
0.0
  0
LWPOLYLINE
  5
218
100
AcDbEntity
  8
0
 62
7
100
AcDbPolyline
 90
2
 70
0
 10
208.169582
 20
-145.446848
 30
0.0
 10
208.588682
 20
-147.019108
 30
0.0
  0
LWPOLYLINE
  5
219
100
AcDbEntity
  8
0
 62
7
100
AcDbPolyline
 90
2
 70
0
 10
210.206662
 20
-144.903288
 30
0.0
 10
208.169582
 20
-145.446848
 30
0.0
  0
LWPOLYLINE
  5
21a
100
AcDbEntity
  8
0
 62
7
100
AcDbPolyline
 90
2
 70
0
 10
206.589702
 20
-131.408268
 30
0.0
 10
210.206662
 20
-144.903288
 30
0.0
  0
LWPOLYLINE
  5
21b
100
AcDbEntity
  8
0
 62
7
100
AcDbPolyline
 90
2
 70
0
 10
142.744264
 20
-140.684348
 30
0.0
 10
140.707184
 20
-140.140788
 30
0.0
  0
LWPOLYLINE
  5
21c
100
AcDbEntity
  8
0
 62
7
100
AcDbPolyline
 90
2
 70
0
 10
142.325164
 20
-142.256608
 30
0.0
 10
142.744264
 20
-140.684348
 30
0.0
  0
LWPOLYLINE
  5
21d
100
AcDbEntity
  8
0
 62
7
100
AcDbPolyline
 90
2
 70
0
 10
141.537764
 20
-142.045788
 30
0.0
 10
142.325164
 20
-142.256608
 30
0.0
  0
LWPOLYLINE
  5
21e
100
AcDbEntity
  8
0
 62
7
100
AcDbPolyline
 90
2
 70
0
 10
139.815644
 20
-148.471987
 30
0.0
 10
141.537764
 20
-142.045788
 30
0.0
  0
LWPOLYLINE
  5
21f
100
AcDbEntity
  8
0
 62
7
100
AcDbPolyline
 90
2
 70
0
 10
143.104944
 20
-149.353367
 30
0.0
 10
139.815644
 20
-148.471987
 30
0.0
  0
LWPOLYLINE
  5
220
100
AcDbEntity
  8
0
 62
7
100
AcDbPolyline
 90
2
 70
0
 10
142.881424
 20
-150.189027
 30
0.0
 10
143.104944
 20
-149.353367
 30
0.0
  0
LWPOLYLINE
  5
221
100
AcDbEntity
  8
0
 62
7
100
AcDbPolyline
 90
2
 70
0
 10
145.578904
 20
-150.910387
 30
0.0
 10
142.881424
 20
-150.189027
 30
0.0
  0
LWPOLYLINE
  5
222
100
AcDbEntity
  8
0
 62
7
100
AcDbPolyline
 90
2
 70
0
 10
145.802424
 20
-150.077267
 30
0.0
 10
145.578904
 20
-150.910387
 30
0.0
  0
LWPOLYLINE
  5
223
100
AcDbEntity
  8
0
 62
7
100
AcDbPolyline
 90
2
 70
0
 10
151.690144
 20
-151.654607
 30
0.0
 10
145.802424
 20
-150.077267
 30
0.0
  0
LWPOLYLINE
  5
224
100
AcDbEntity
  8
0
 62
7
100
AcDbPolyline
 90
2
 70
0
 10
151.961924
 20
-150.648767
 30
0.0
 10
151.690144
 20
-151.654607
 30
0.0
  0
LWPOLYLINE
  5
225
100
AcDbEntity
  8
0
 62
7
100
AcDbPolyline
 90
2
 70
0
 10
153.089684
 20
-150.951027
 30
0.0
 10
151.961924
 20
-150.648767
 30
0.0
  0
LWPOLYLINE
  5
226
100
AcDbEntity
  8
0
 62
7
100
AcDbPolyline
 90
2
 70
0
 10
154.273324
 20
-146.536508
 30
0.0
 10
153.089684
 20
-150.951027
 30
0.0
  0
LWPOLYLINE
  5
227
100
AcDbEntity
  8
0
 62
7
100
AcDbPolyline
 90
2
 70
0
 10
153.143024
 20
-146.231708
 30
0.0
 10
154.273324
 20
-146.536508
 30
0.0
  0
LWPOLYLINE
  5
228
100
AcDbEntity
  8
0
 62
7
100
AcDbPolyline
 90
2
 70
0
 10
153.414804
 20
-145.225868
 30
0.0
 10
153.143024
 20
-146.231708
 30
0.0
  0
LWPOLYLINE
  5
229
100
AcDbEntity
  8
0
 62
7
100
AcDbPolyline
 90
2
 70
0
 10
152.652804
 20
-145.022668
 30
0.0
 10
153.414804
 20
-145.225868
 30
0.0
  0
LWPOLYLINE
  5
22a
100
AcDbEntity
  8
0
 62
7
100
AcDbPolyline
 90
2
 70
0
 10
153.074444
 20
-143.452948
 30
0.0
 10
152.652804
 20
-145.022668
 30
0.0
  0
LWPOLYLINE
  5
22b
100
AcDbEntity
  8
0
 62
7
100
AcDbPolyline
 90
2
 70
0
 10
154.202204
 20
-143.755208
 30
0.0
 10
153.074444
 20
-143.452948
 30
0.0
  0
LWPOLYLINE
  5
22c
100
AcDbEntity
  8
0
 62
7
100
AcDbPolyline
 90
2
 70
0
 10
157.819164
 20
-130.260188
 30
0.0
 10
154.202204
 20
-143.755208
 30
0.0
  0
LWPOLYLINE
  5
22d
100
AcDbEntity
  8
0
 62
7
100
AcDbPolyline
 90
2
 70
0
 10
156.688864
 20
-129.957928
 30
0.0
 10
157.819164
 20
-130.260188
 30
0.0
  0
LWPOLYLINE
  5
22e
100
AcDbEntity
  8
0
 62
7
100
AcDbPolyline
 90
2
 70
0
 10
157.110504
 20
-128.388208
 30
0.0
 10
156.688864
 20
-129.957928
 30
0.0
  0
LWPOLYLINE
  5
22f
100
AcDbEntity
  8
0
 62
7
100
AcDbPolyline
 90
2
 70
0
 10
157.869964
 20
-128.591408
 30
0.0
 10
157.110504
 20
-128.388208
 30
0.0
  0
LWPOLYLINE
  5
230
100
AcDbEntity
  8
0
 62
7
100
AcDbPolyline
 90
2
 70
0
 10
158.139204
 20
-127.585568
 30
0.0
 10
157.869964
 20
-128.591408
 30
0.0
  0
LWPOLYLINE
  5
231
100
AcDbEntity
  8
0
 62
7
100
AcDbPolyline
 90
2
 70
0
 10
159.269504
 20
-127.887828
 30
0.0
 10
158.139204
 20
-127.585568
 30
0.0
  0
LWPOLYLINE
  5
232
100
AcDbEntity
  8
0
 62
7
100
AcDbPolyline
 90
2
 70
0
 10
160.453144
 20
-123.473308
 30
0.0
 10
159.269504
 20
-127.887828
 30
0.0
  0
LWPOLYLINE
  5
233
100
AcDbEntity
  8
0
 62
7
100
AcDbPolyline
 90
2
 70
0
 10
159.322844
 20
-123.171048
 30
0.0
 10
160.453144
 20
-123.473308
 30
0.0
  0
LWPOLYLINE
  5
234
100
AcDbEntity
  8
0
 62
7
100
AcDbPolyline
 90
2
 70
0
 10
159.592084
 20
-122.165208
 30
0.0
 10
159.322844
 20
-123.171048
 30
0.0
  0
LWPOLYLINE
  5
235
100
AcDbEntity
  8
0
 62
7
100
AcDbPolyline
 90
2
 70
0
 10
153.704364
 20
-120.587868
 30
0.0
 10
159.592084
 20
-122.165208
 30
0.0
  0
LWPOLYLINE
  5
236
100
AcDbEntity
  8
0
 62
7
100
AcDbPolyline
 90
2
 70
0
 10
153.927884
 20
-119.752208
 30
0.0
 10
153.704364
 20
-120.587868
 30
0.0
  0
LWPOLYLINE
  5
237
100
AcDbEntity
  8
0
 62
7
100
AcDbPolyline
 90
2
 70
0
 10
151.230404
 20
-119.028308
 30
0.0
 10
153.927884
 20
-119.752208
 30
0.0
  0
LWPOLYLINE
  5
238
100
AcDbEntity
  8
0
 62
7
100
AcDbPolyline
 90
2
 70
0
 10
151.006884
 20
-119.863968
 30
0.0
 10
151.230404
 20
-119.028308
 30
0.0
  0
LWPOLYLINE
  5
239
100
AcDbEntity
  8
0
 62
7
100
AcDbPolyline
 90
2
 70
0
 10
147.717584
 20
-118.982588
 30
0.0
 10
151.006884
 20
-119.863968
 30
0.0
  0
LWPOLYLINE
  5
23a
100
AcDbEntity
  8
0
 62
7
100
AcDbPolyline
 90
2
 70
0
 10
145.995464
 20
-125.411328
 30
0.0
 10
147.717584
 20
-118.982588
 30
0.0
  0
LWPOLYLINE
  5
23b
100
AcDbEntity
  8
0
 62
7
100
AcDbPolyline
 90
2
 70
0
 10
146.780324
 20
-125.622148
 30
0.0
 10
145.995464
 20
-125.411328
 30
0.0
  0
LWPOLYLINE
  5
23c
100
AcDbEntity
  8
0
 62
7
100
AcDbPolyline
 90
2
 70
0
 10
146.361224
 20
-127.191868
 30
0.0
 10
146.780324
 20
-125.622148
 30
0.0
  0
LWPOLYLINE
  5
23d
100
AcDbEntity
  8
0
 62
7
100
AcDbPolyline
 90
2
 70
0
 10
144.324144
 20
-126.645768
 30
0.0
 10
146.361224
 20
-127.191868
 30
0.0
  0
LWPOLYLINE
  5
23e
100
AcDbEntity
  8
0
 62
7
100
AcDbPolyline
 90
2
 70
0
 10
140.707184
 20
-140.140788
 30
0.0
 10
144.324144
 20
-126.645768
 30
0.0
  0
LWPOLYLINE
  5
23f
100
AcDbEntity
  8
0
 62
7
100
AcDbPolyline
 90
2
 70
0
 10
118.466945
 20
-120.755508
 30
0.0
 10
118.466945
 20
-106.785508
 30
0.0
  0
LWPOLYLINE
  5
240
100
AcDbEntity
  8
0
 62
7
100
AcDbPolyline
 90
2
 70
0
 10
132.436944
 20
-120.755508
 30
0.0
 10
118.466945
 20
-120.755508
 30
0.0
  0
LWPOLYLINE
  5
241
100
AcDbEntity
  8
0
 62
7
100
AcDbPolyline
 90
2
 70
0
 10
132.436944
 20
-106.785508
 30
0.0
 10
132.436944
 20
-120.755508
 30
0.0
  0
LWPOLYLINE
  5
242
100
AcDbEntity
  8
0
 62
7
100
AcDbPolyline
 90
2
 70
0
 10
118.466945
 20
-106.785508
 30
0.0
 10
132.436944
 20
-106.785508
 30
0.0
  0
LWPOLYLINE
  5
243
100
AcDbEntity
  8
0
 62
7
100
AcDbPolyline
 90
2
 70
0
 10
37.504447
 20
-120.755508
 30
0.0
 10
37.504447
 20
-106.785508
 30
0.0
  0
LWPOLYLINE
  5
244
100
AcDbEntity
  8
0
 62
7
100
AcDbPolyline
 90
2
 70
0
 10
51.474446
 20
-120.755508
 30
0.0
 10
37.504447
 20
-120.755508
 30
0.0
  0
LWPOLYLINE
  5
245
100
AcDbEntity
  8
0
 62
7
100
AcDbPolyline
 90
2
 70
0
 10
51.474446
 20
-106.785508
 30
0.0
 10
51.474446
 20
-120.755508
 30
0.0
  0
LWPOLYLINE
  5
246
100
AcDbEntity
  8
0
 62
7
100
AcDbPolyline
 90
2
 70
0
 10
37.504447
 20
-106.785508
 30
0.0
 10
51.474446
 20
-106.785508
 30
0.0
  0
LWPOLYLINE
  5
247
100
AcDbEntity
  8
0
 62
7
100
AcDbPolyline
 90
2
 70
0
 10
61.316946
 20
-120.755508
 30
0.0
 10
61.316946
 20
-106.785508
 30
0.0
  0
LWPOLYLINE
  5
248
100
AcDbEntity
  8
0
 62
7
100
AcDbPolyline
 90
2
 70
0
 10
75.286946
 20
-120.755508
 30
0.0
 10
61.316946
 20
-120.755508
 30
0.0
  0
LWPOLYLINE
  5
249
100
AcDbEntity
  8
0
 62
7
100
AcDbPolyline
 90
2
 70
0
 10
75.286946
 20
-106.785508
 30
0.0
 10
75.286946
 20
-120.755508
 30
0.0
  0
LWPOLYLINE
  5
24a
100
AcDbEntity
  8
0
 62
7
100
AcDbPolyline
 90
2
 70
0
 10
61.316946
 20
-106.785508
 30
0.0
 10
75.286946
 20
-106.785508
 30
0.0
  0
LWPOLYLINE
  5
24b
100
AcDbEntity
  8
0
 62
7
100
AcDbPolyline
 90
4
 70
1
 10
85.129445
 20
-106.785508
 30
0.0
 10
99.099445
 20
-106.785508
 30
0.0
 10
99.099445
 20
-120.755508
 30
0.0
 10
85.129445
 20
-120.755508
 30
0.0
  0
LWPOLYLINE
  5
24c
100
AcDbEntity
  8
0
 62
7
100
AcDbPolyline
 90
2
 70
0
 10
161.794264
 20
-145.446848
 30
0.0
 10
159.757184
 20
-144.903288
 30
0.0
  0
LWPOLYLINE
  5
24d
100
AcDbEntity
  8
0
 62
7
100
AcDbPolyline
 90
2
 70
0
 10
161.375164
 20
-147.019108
 30
0.0
 10
161.794264
 20
-145.446848
 30
0.0
  0
LWPOLYLINE
  5
24e
100
AcDbEntity
  8
0
 62
7
100
AcDbPolyline
 90
2
 70
0
 10
160.587764
 20
-146.808288
 30
0.0
 10
161.375164
 20
-147.019108
 30
0.0
  0
LWPOLYLINE
  5
24f
100
AcDbEntity
  8
0
 62
7
100
AcDbPolyline
 90
2
 70
0
 10
158.865644
 20
-153.234487
 30
0.0
 10
160.587764
 20
-146.808288
 30
0.0
  0
LWPOLYLINE
  5
250
100
AcDbEntity
  8
0
 62
7
100
AcDbPolyline
 90
2
 70
0
 10
162.154944
 20
-154.115867
 30
0.0
 10
158.865644
 20
-153.234487
 30
0.0
  0
LWPOLYLINE
  5
251
100
AcDbEntity
  8
0
 62
7
100
AcDbPolyline
 90
2
 70
0
 10
161.931424
 20
-154.951527
 30
0.0
 10
162.154944
 20
-154.115867
 30
0.0
  0
LWPOLYLINE
  5
252
100
AcDbEntity
  8
0
 62
7
100
AcDbPolyline
 90
2
 70
0
 10
164.628903
 20
-155.672887
 30
0.0
 10
161.931424
 20
-154.951527
 30
0.0
  0
LWPOLYLINE
  5
253
100
AcDbEntity
  8
0
 62
7
100
AcDbPolyline
 90
2
 70
0
 10
164.852423
 20
-154.839767
 30
0.0
 10
164.628903
 20
-155.672887
 30
0.0
  0
LWPOLYLINE
  5
254
100
AcDbEntity
  8
0
 62
7
100
AcDbPolyline
 90
2
 70
0
 10
170.740143
 20
-156.417107
 30
0.0
 10
164.852423
 20
-154.839767
 30
0.0
  0
LWPOLYLINE
  5
255
100
AcDbEntity
  8
0
 62
7
100
AcDbPolyline
 90
2
 70
0
 10
171.011923
 20
-155.411267
 30
0.0
 10
170.740143
 20
-156.417107
 30
0.0
  0
LWPOLYLINE
  5
256
100
AcDbEntity
  8
0
 62
7
100
AcDbPolyline
 90
2
 70
0
 10
172.139683
 20
-155.713527
 30
0.0
 10
171.011923
 20
-155.411267
 30
0.0
  0
LWPOLYLINE
  5
257
100
AcDbEntity
  8
0
 62
7
100
AcDbPolyline
 90
2
 70
0
 10
173.323323
 20
-151.299007
 30
0.0
 10
172.139683
 20
-155.713527
 30
0.0
  0
LWPOLYLINE
  5
258
100
AcDbEntity
  8
0
 62
7
100
AcDbPolyline
 90
2
 70
0
 10
172.193023
 20
-150.994207
 30
0.0
 10
173.323323
 20
-151.299007
 30
0.0
  0
LWPOLYLINE
  5
259
100
AcDbEntity
  8
0
 62
7
100
AcDbPolyline
 90
2
 70
0
 10
172.464803
 20
-149.988367
 30
0.0
 10
172.193023
 20
-150.994207
 30
0.0
  0
LWPOLYLINE
  5
25a
100
AcDbEntity
  8
0
 62
7
100
AcDbPolyline
 90
2
 70
0
 10
171.702803
 20
-149.785167
 30
0.0
 10
172.464803
 20
-149.988367
 30
0.0
  0
LWPOLYLINE
  5
25b
100
AcDbEntity
  8
0
 62
7
100
AcDbPolyline
 90
2
 70
0
 10
172.124443
 20
-148.215447
 30
0.0
 10
171.702803
 20
-149.785167
 30
0.0
  0
LWPOLYLINE
  5
25c
100
AcDbEntity
  8
0
 62
7
100
AcDbPolyline
 90
2
 70
0
 10
173.252203
 20
-148.517707
 30
0.0
 10
172.124443
 20
-148.215447
 30
0.0
  0
LWPOLYLINE
  5
25d
100
AcDbEntity
  8
0
 62
7
100
AcDbPolyline
 90
2
 70
0
 10
176.869163
 20
-135.022688
 30
0.0
 10
173.252203
 20
-148.517707
 30
0.0
  0
LWPOLYLINE
  5
25e
100
AcDbEntity
  8
0
 62
7
100
AcDbPolyline
 90
2
 70
0
 10
175.738863
 20
-134.720428
 30
0.0
 10
176.869163
 20
-135.022688
 30
0.0
  0
LWPOLYLINE
  5
25f
100
AcDbEntity
  8
0
 62
7
100
AcDbPolyline
 90
2
 70
0
 10
176.160503
 20
-133.150708
 30
0.0
 10
175.738863
 20
-134.720428
 30
0.0
  0
LWPOLYLINE
  5
260
100
AcDbEntity
  8
0
 62
7
100
AcDbPolyline
 90
2
 70
0
 10
176.919963
 20
-133.353908
 30
0.0
 10
176.160503
 20
-133.150708
 30
0.0
  0
LWPOLYLINE
  5
261
100
AcDbEntity
  8
0
 62
7
100
AcDbPolyline
 90
2
 70
0
 10
177.189203
 20
-132.348068
 30
0.0
 10
176.919963
 20
-133.353908
 30
0.0
  0
LWPOLYLINE
  5
262
100
AcDbEntity
  8
0
 62
7
100
AcDbPolyline
 90
2
 70
0
 10
178.319503
 20
-132.650328
 30
0.0
 10
177.189203
 20
-132.348068
 30
0.0
  0
LWPOLYLINE
  5
263
100
AcDbEntity
  8
0
 62
7
100
AcDbPolyline
 90
2
 70
0
 10
179.503143
 20
-128.235808
 30
0.0
 10
178.319503
 20
-132.650328
 30
0.0
  0
LWPOLYLINE
  5
264
100
AcDbEntity
  8
0
 62
7
100
AcDbPolyline
 90
2
 70
0
 10
178.372843
 20
-127.933548
 30
0.0
 10
179.503143
 20
-128.235808
 30
0.0
  0
LWPOLYLINE
  5
265
100
AcDbEntity
  8
0
 62
7
100
AcDbPolyline
 90
2
 70
0
 10
178.642083
 20
-126.927708
 30
0.0
 10
178.372843
 20
-127.933548
 30
0.0
  0
LWPOLYLINE
  5
266
100
AcDbEntity
  8
0
 62
7
100
AcDbPolyline
 90
2
 70
0
 10
172.754363
 20
-125.350368
 30
0.0
 10
178.642083
 20
-126.927708
 30
0.0
  0
LWPOLYLINE
  5
267
100
AcDbEntity
  8
0
 62
7
100
AcDbPolyline
 90
2
 70
0
 10
172.977883
 20
-124.514708
 30
0.0
 10
172.754363
 20
-125.350368
 30
0.0
  0
LWPOLYLINE
  5
268
100
AcDbEntity
  8
0
 62
7
100
AcDbPolyline
 90
2
 70
0
 10
170.280403
 20
-123.790808
 30
0.0
 10
172.977883
 20
-124.514708
 30
0.0
  0
LWPOLYLINE
  5
269
100
AcDbEntity
  8
0
 62
7
100
AcDbPolyline
 90
2
 70
0
 10
170.056883
 20
-124.626468
 30
0.0
 10
170.280403
 20
-123.790808
 30
0.0
  0
LWPOLYLINE
  5
26a
100
AcDbEntity
  8
0
 62
7
100
AcDbPolyline
 90
2
 70
0
 10
166.767583
 20
-123.745088
 30
0.0
 10
170.056883
 20
-124.626468
 30
0.0
  0
LWPOLYLINE
  5
26b
100
AcDbEntity
  8
0
 62
7
100
AcDbPolyline
 90
2
 70
0
 10
165.045463
 20
-130.173828
 30
0.0
 10
166.767583
 20
-123.745088
 30
0.0
  0
LWPOLYLINE
  5
26c
100
AcDbEntity
  8
0
 62
7
100
AcDbPolyline
 90
2
 70
0
 10
165.830323
 20
-130.384648
 30
0.0
 10
165.045463
 20
-130.173828
 30
0.0
  0
LWPOLYLINE
  5
26d
100
AcDbEntity
  8
0
 62
7
100
AcDbPolyline
 90
2
 70
0
 10
165.411223
 20
-131.954368
 30
0.0
 10
165.830323
 20
-130.384648
 30
0.0
  0
LWPOLYLINE
  5
26e
100
AcDbEntity
  8
0
 62
7
100
AcDbPolyline
 90
2
 70
0
 10
163.374143
 20
-131.408268
 30
0.0
 10
165.411223
 20
-131.954368
 30
0.0
  0
LWPOLYLINE
  5
26f
100
AcDbEntity
  8
0
 62
7
100
AcDbPolyline
 90
2
 70
0
 10
159.757184
 20
-144.903288
 30
0.0
 10
163.374143
 20
-131.408268
 30
0.0
  0
LWPOLYLINE
  5
270
100
AcDbEntity
  8
0
 62
7
100
AcDbPolyline
 90
2
 70
0
 10
237.529442
 20
-120.755508
 30
0.0
 10
237.529442
 20
-106.785508
 30
0.0
  0
LWPOLYLINE
  5
271
100
AcDbEntity
  8
0
 62
7
100
AcDbPolyline
 90
2
 70
0
 10
251.499441
 20
-120.755508
 30
0.0
 10
237.529442
 20
-120.755508
 30
0.0
  0
LWPOLYLINE
  5
272
100
AcDbEntity
  8
0
 62
7
100
AcDbPolyline
 90
2
 70
0
 10
251.499441
 20
-106.785508
 30
0.0
 10
251.499441
 20
-120.755508
 30
0.0
  0
LWPOLYLINE
  5
273
100
AcDbEntity
  8
0
 62
7
100
AcDbPolyline
 90
2
 70
0
 10
237.529442
 20
-106.785508
 30
0.0
 10
251.499441
 20
-106.785508
 30
0.0
  0
LWPOLYLINE
  5
274
100
AcDbEntity
  8
0
 62
7
100
AcDbPolyline
 90
4
 70
1
 10
261.341941
 20
-106.785508
 30
0.0
 10
275.311941
 20
-106.785508
 30
0.0
 10
275.311941
 20
-120.755508
 30
0.0
 10
261.341941
 20
-120.755508
 30
0.0
  0
LWPOLYLINE
  5
275
100
AcDbEntity
  8
0
 62
7
100
AcDbPolyline
 90
2
 70
0
 10
285.154441
 20
-120.755508
 30
0.0
 10
285.154441
 20
-106.785508
 30
0.0
  0
LWPOLYLINE
  5
276
100
AcDbEntity
  8
0
 62
7
100
AcDbPolyline
 90
2
 70
0
 10
299.124440
 20
-120.755508
 30
0.0
 10
285.154441
 20
-120.755508
 30
0.0
  0
LWPOLYLINE
  5
277
100
AcDbEntity
  8
0
 62
7
100
AcDbPolyline
 90
2
 70
0
 10
299.124440
 20
-106.785508
 30
0.0
 10
299.124440
 20
-120.755508
 30
0.0
  0
LWPOLYLINE
  5
278
100
AcDbEntity
  8
0
 62
7
100
AcDbPolyline
 90
2
 70
0
 10
285.154441
 20
-106.785508
 30
0.0
 10
299.124440
 20
-106.785508
 30
0.0
  0
LWPOLYLINE
  5
279
100
AcDbEntity
  8
0
 62
7
100
AcDbPolyline
 90
2
 70
0
 10
316.109420
 20
-120.755508
 30
0.0
 10
316.109420
 20
-106.785508
 30
0.0
  0
LWPOLYLINE
  5
27a
100
AcDbEntity
  8
0
 62
7
100
AcDbPolyline
 90
2
 70
0
 10
330.079419
 20
-120.755508
 30
0.0
 10
316.109420
 20
-120.755508
 30
0.0
  0
LWPOLYLINE
  5
27b
100
AcDbEntity
  8
0
 62
7
100
AcDbPolyline
 90
2
 70
0
 10
330.079419
 20
-106.785508
 30
0.0
 10
330.079419
 20
-120.755508
 30
0.0
  0
LWPOLYLINE
  5
27c
100
AcDbEntity
  8
0
 62
7
100
AcDbPolyline
 90
2
 70
0
 10
316.109420
 20
-106.785508
 30
0.0
 10
330.079419
 20
-106.785508
 30
0.0
  0
LWPOLYLINE
  5
27d
100
AcDbEntity
  8
0
 62
7
100
AcDbPolyline
 90
2
 70
0
 10
335.159419
 20
-120.755508
 30
0.0
 10
335.159419
 20
-106.785508
 30
0.0
  0
LWPOLYLINE
  5
27e
100
AcDbEntity
  8
0
 62
7
100
AcDbPolyline
 90
2
 70
0
 10
349.129419
 20
-120.755508
 30
0.0
 10
335.159419
 20
-120.755508
 30
0.0
  0
LWPOLYLINE
  5
27f
100
AcDbEntity
  8
0
 62
7
100
AcDbPolyline
 90
2
 70
0
 10
349.129419
 20
-106.785508
 30
0.0
 10
349.129419
 20
-120.755508
 30
0.0
  0
LWPOLYLINE
  5
280
100
AcDbEntity
  8
0
 62
7
100
AcDbPolyline
 90
2
 70
0
 10
335.159419
 20
-106.785508
 30
0.0
 10
349.129419
 20
-106.785508
 30
0.0
  0
LWPOLYLINE
  5
281
100
AcDbEntity
  8
0
 62
7
100
AcDbPolyline
 90
2
 70
0
 10
354.209419
 20
-120.755508
 30
0.0
 10
354.209419
 20
-106.785508
 30
0.0
  0
LWPOLYLINE
  5
282
100
AcDbEntity
  8
0
 62
7
100
AcDbPolyline
 90
2
 70
0
 10
368.179419
 20
-120.755508
 30
0.0
 10
354.209419
 20
-120.755508
 30
0.0
  0
LWPOLYLINE
  5
283
100
AcDbEntity
  8
0
 62
7
100
AcDbPolyline
 90
2
 70
0
 10
368.179419
 20
-106.785508
 30
0.0
 10
368.179419
 20
-120.755508
 30
0.0
  0
LWPOLYLINE
  5
284
100
AcDbEntity
  8
0
 62
7
100
AcDbPolyline
 90
2
 70
0
 10
354.209419
 20
-106.785508
 30
0.0
 10
368.179419
 20
-106.785508
 30
0.0
  0
LWPOLYLINE
  5
285
100
AcDbEntity
  8
0
 62
7
100
AcDbPolyline
 90
2
 70
0
 10
68.459426
 20
-101.705509
 30
0.0
 10
68.459426
 20
-87.735509
 30
0.0
  0
LWPOLYLINE
  5
286
100
AcDbEntity
  8
0
 62
7
100
AcDbPolyline
 90
2
 70
0
 10
82.429425
 20
-101.705509
 30
0.0
 10
68.459426
 20
-101.705509
 30
0.0
  0
LWPOLYLINE
  5
287
100
AcDbEntity
  8
0
 62
7
100
AcDbPolyline
 90
2
 70
0
 10
82.429425
 20
-87.735509
 30
0.0
 10
82.429425
 20
-101.705509
 30
0.0
  0
LWPOLYLINE
  5
288
100
AcDbEntity
  8
0
 62
7
100
AcDbPolyline
 90
2
 70
0
 10
68.459426
 20
-87.735509
 30
0.0
 10
82.429425
 20
-87.735509
 30
0.0
  0
LWPOLYLINE
  5
289
100
AcDbEntity
  8
0
 62
7
100
AcDbPolyline
 90
2
 70
0
 10
87.509425
 20
-101.705509
 30
0.0
 10
87.509425
 20
-87.735509
 30
0.0
  0
LWPOLYLINE
  5
28a
100
AcDbEntity
  8
0
 62
7
100
AcDbPolyline
 90
2
 70
0
 10
101.479425
 20
-101.705509
 30
0.0
 10
87.509425
 20
-101.705509
 30
0.0
  0
LWPOLYLINE
  5
28b
100
AcDbEntity
  8
0
 62
7
100
AcDbPolyline
 90
2
 70
0
 10
101.479425
 20
-87.735509
 30
0.0
 10
101.479425
 20
-101.705509
 30
0.0
  0
LWPOLYLINE
  5
28c
100
AcDbEntity
  8
0
 62
7
100
AcDbPolyline
 90
2
 70
0
 10
87.509425
 20
-87.735509
 30
0.0
 10
101.479425
 20
-87.735509
 30
0.0
  0
LWPOLYLINE
  5
28d
100
AcDbEntity
  8
0
 62
7
100
AcDbPolyline
 90
4
 70
1
 10
106.559425
 20
-87.735509
 30
0.0
 10
120.529425
 20
-87.735509
 30
0.0
 10
120.529425
 20
-101.705509
 30
0.0
 10
106.559425
 20
-101.705509
 30
0.0
  0
LWPOLYLINE
  5
28e
100
AcDbEntity
  8
0
 62
7
100
AcDbPolyline
 90
4
 70
1
 10
125.609424
 20
-87.735509
 30
0.0
 10
139.579424
 20
-87.735509
 30
0.0
 10
139.579424
 20
-101.705509
 30
0.0
 10
125.609424
 20
-101.705509
 30
0.0
  0
LWPOLYLINE
  5
28f
100
AcDbEntity
  8
0
 62
7
100
AcDbPolyline
 90
4
 70
1
 10
144.659424
 20
-87.735509
 30
0.0
 10
158.629424
 20
-87.735509
 30
0.0
 10
158.629424
 20
-101.705509
 30
0.0
 10
144.659424
 20
-101.705509
 30
0.0
  0
LWPOLYLINE
  5
290
100
AcDbEntity
  8
0
 62
7
100
AcDbPolyline
 90
2
 70
0
 10
211.334422
 20
-101.705509
 30
0.0
 10
211.334422
 20
-87.735509
 30
0.0
  0
LWPOLYLINE
  5
291
100
AcDbEntity
  8
0
 62
7
100
AcDbPolyline
 90
2
 70
0
 10
225.304422
 20
-101.705509
 30
0.0
 10
211.334422
 20
-101.705509
 30
0.0
  0
LWPOLYLINE
  5
292
100
AcDbEntity
  8
0
 62
7
100
AcDbPolyline
 90
2
 70
0
 10
225.304422
 20
-87.735509
 30
0.0
 10
225.304422
 20
-101.705509
 30
0.0
  0
LWPOLYLINE
  5
293
100
AcDbEntity
  8
0
 62
7
100
AcDbPolyline
 90
2
 70
0
 10
211.334422
 20
-87.735509
 30
0.0
 10
225.304422
 20
-87.735509
 30
0.0
  0
LWPOLYLINE
  5
294
100
AcDbEntity
  8
0
 62
7
100
AcDbPolyline
 90
2
 70
0
 10
230.384422
 20
-101.705509
 30
0.0
 10
230.384422
 20
-87.735509
 30
0.0
  0
LWPOLYLINE
  5
295
100
AcDbEntity
  8
0
 62
7
100
AcDbPolyline
 90
2
 70
0
 10
244.354422
 20
-101.705509
 30
0.0
 10
230.384422
 20
-101.705509
 30
0.0
  0
LWPOLYLINE
  5
296
100
AcDbEntity
  8
0
 62
7
100
AcDbPolyline
 90
2
 70
0
 10
244.354422
 20
-87.735509
 30
0.0
 10
244.354422
 20
-101.705509
 30
0.0
  0
LWPOLYLINE
  5
297
100
AcDbEntity
  8
0
 62
7
100
AcDbPolyline
 90
2
 70
0
 10
230.384422
 20
-87.735509
 30
0.0
 10
244.354422
 20
-87.735509
 30
0.0
  0
LWPOLYLINE
  5
298
100
AcDbEntity
  8
0
 62
7
100
AcDbPolyline
 90
4
 70
1
 10
249.434421
 20
-87.735509
 30
0.0
 10
263.404421
 20
-87.735509
 30
0.0
 10
263.404421
 20
-101.705509
 30
0.0
 10
249.434421
 20
-101.705509
 30
0.0
  0
LWPOLYLINE
  5
299
100
AcDbEntity
  8
0
 62
7
100
AcDbPolyline
 90
4
 70
1
 10
268.484421
 20
-87.735509
 30
0.0
 10
282.454421
 20
-87.735509
 30
0.0
 10
282.454421
 20
-101.705509
 30
0.0
 10
268.484421
 20
-101.705509
 30
0.0
  0
LWPOLYLINE
  5
29a
100
AcDbEntity
  8
0
 62
7
100
AcDbPolyline
 90
2
 70
0
 10
287.534420
 20
-101.705509
 30
0.0
 10
287.534420
 20
-87.735509
 30
0.0
  0
LWPOLYLINE
  5
29b
100
AcDbEntity
  8
0
 62
7
100
AcDbPolyline
 90
2
 70
0
 10
301.504420
 20
-101.705509
 30
0.0
 10
287.534420
 20
-101.705509
 30
0.0
  0
LWPOLYLINE
  5
29c
100
AcDbEntity
  8
0
 62
7
100
AcDbPolyline
 90
2
 70
0
 10
301.504420
 20
-87.735509
 30
0.0
 10
301.504420
 20
-101.705509
 30
0.0
  0
LWPOLYLINE
  5
29d
100
AcDbEntity
  8
0
 62
7
100
AcDbPolyline
 90
2
 70
0
 10
287.534420
 20
-87.735509
 30
0.0
 10
301.504420
 20
-87.735509
 30
0.0
  0
LWPOLYLINE
  5
29e
100
AcDbEntity
  8
0
 62
7
100
AcDbPolyline
 90
4
 70
1
 10
335.159419
 20
-87.735509
 30
0.0
 10
349.129419
 20
-87.735509
 30
0.0
 10
349.129419
 20
-101.705509
 30
0.0
 10
335.159419
 20
-101.705509
 30
0.0
  0
LWPOLYLINE
  5
29f
100
AcDbEntity
  8
0
 62
7
100
AcDbPolyline
 90
2
 70
0
 10
11.309427
 20
-82.655509
 30
0.0
 10
11.309427
 20
-68.685509
 30
0.0
  0
LWPOLYLINE
  5
2a0
100
AcDbEntity
  8
0
 62
7
100
AcDbPolyline
 90
2
 70
0
 10
25.279427
 20
-82.655509
 30
0.0
 10
11.309427
 20
-82.655509
 30
0.0
  0
LWPOLYLINE
  5
2a1
100
AcDbEntity
  8
0
 62
7
100
AcDbPolyline
 90
2
 70
0
 10
25.279427
 20
-68.685509
 30
0.0
 10
25.279427
 20
-82.655509
 30
0.0
  0
LWPOLYLINE
  5
2a2
100
AcDbEntity
  8
0
 62
7
100
AcDbPolyline
 90
2
 70
0
 10
11.309427
 20
-68.685509
 30
0.0
 10
25.279427
 20
-68.685509
 30
0.0
  0
LWPOLYLINE
  5
2a3
100
AcDbEntity
  8
0
 62
7
100
AcDbPolyline
 90
2
 70
0
 10
42.266946
 20
-82.655509
 30
0.0
 10
42.266946
 20
-68.685509
 30
0.0
  0
LWPOLYLINE
  5
2a4
100
AcDbEntity
  8
0
 62
7
100
AcDbPolyline
 90
2
 70
0
 10
56.236946
 20
-82.655509
 30
0.0
 10
42.266946
 20
-82.655509
 30
0.0
  0
LWPOLYLINE
  5
2a5
100
AcDbEntity
  8
0
 62
7
100
AcDbPolyline
 90
2
 70
0
 10
56.236946
 20
-68.685509
 30
0.0
 10
56.236946
 20
-82.655509
 30
0.0
  0
LWPOLYLINE
  5
2a6
100
AcDbEntity
  8
0
 62
7
100
AcDbPolyline
 90
2
 70
0
 10
42.266946
 20
-68.685509
 30
0.0
 10
56.236946
 20
-68.685509
 30
0.0
  0
LWPOLYLINE
  5
2a7
100
AcDbEntity
  8
0
 62
7
100
AcDbPolyline
 90
2
 70
0
 10
68.459426
 20
-82.655509
 30
0.0
 10
68.459426
 20
-68.685509
 30
0.0
  0
LWPOLYLINE
  5
2a8
100
AcDbEntity
  8
0
 62
7
100
AcDbPolyline
 90
2
 70
0
 10
82.429425
 20
-82.655509
 30
0.0
 10
68.459426
 20
-82.655509
 30
0.0
  0
LWPOLYLINE
  5
2a9
100
AcDbEntity
  8
0
 62
7
100
AcDbPolyline
 90
2
 70
0
 10
82.429425
 20
-68.685509
 30
0.0
 10
82.429425
 20
-82.655509
 30
0.0
  0
LWPOLYLINE
  5
2aa
100
AcDbEntity
  8
0
 62
7
100
AcDbPolyline
 90
2
 70
0
 10
68.459426
 20
-68.685509
 30
0.0
 10
82.429425
 20
-68.685509
 30
0.0
  0
LWPOLYLINE
  5
2ab
100
AcDbEntity
  8
0
 62
7
100
AcDbPolyline
 90
2
 70
0
 10
87.509425
 20
-82.655509
 30
0.0
 10
87.509425
 20
-68.685509
 30
0.0
  0
LWPOLYLINE
  5
2ac
100
AcDbEntity
  8
0
 62
7
100
AcDbPolyline
 90
2
 70
0
 10
101.479425
 20
-82.655509
 30
0.0
 10
87.509425
 20
-82.655509
 30
0.0
  0
LWPOLYLINE
  5
2ad
100
AcDbEntity
  8
0
 62
7
100
AcDbPolyline
 90
2
 70
0
 10
101.479425
 20
-68.685509
 30
0.0
 10
101.479425
 20
-82.655509
 30
0.0
  0
LWPOLYLINE
  5
2ae
100
AcDbEntity
  8
0
 62
7
100
AcDbPolyline
 90
2
 70
0
 10
87.509425
 20
-68.685509
 30
0.0
 10
101.479425
 20
-68.685509
 30
0.0
  0
LWPOLYLINE
  5
2af
100
AcDbEntity
  8
0
 62
7
100
AcDbPolyline
 90
2
 70
0
 10
106.559425
 20
-82.655509
 30
0.0
 10
106.559425
 20
-68.685509
 30
0.0
  0
LWPOLYLINE
  5
2b0
100
AcDbEntity
  8
0
 62
7
100
AcDbPolyline
 90
2
 70
0
 10
120.529425
 20
-82.655509
 30
0.0
 10
106.559425
 20
-82.655509
 30
0.0
  0
LWPOLYLINE
  5
2b1
100
AcDbEntity
  8
0
 62
7
100
AcDbPolyline
 90
2
 70
0
 10
120.529425
 20
-68.685509
 30
0.0
 10
120.529425
 20
-82.655509
 30
0.0
  0
LWPOLYLINE
  5
2b2
100
AcDbEntity
  8
0
 62
7
100
AcDbPolyline
 90
2
 70
0
 10
106.559425
 20
-68.685509
 30
0.0
 10
120.529425
 20
-68.685509
 30
0.0
  0
LWPOLYLINE
  5
2b3
100
AcDbEntity
  8
0
 62
7
100
AcDbPolyline
 90
4
 70
1
 10
125.609424
 20
-68.685509
 30
0.0
 10
139.579424
 20
-68.685509
 30
0.0
 10
139.579424
 20
-82.655509
 30
0.0
 10
125.609424
 20
-82.655509
 30
0.0
  0
LWPOLYLINE
  5
2b4
100
AcDbEntity
  8
0
 62
7
100
AcDbPolyline
 90
4
 70
1
 10
144.659424
 20
-68.685509
 30
0.0
 10
158.629424
 20
-68.685509
 30
0.0
 10
158.629424
 20
-82.655509
 30
0.0
 10
144.659424
 20
-82.655509
 30
0.0
  0
LWPOLYLINE
  5
2b5
100
AcDbEntity
  8
0
 62
7
100
AcDbPolyline
 90
4
 70
1
 10
211.334422
 20
-68.685509
 30
0.0
 10
225.304422
 20
-68.685509
 30
0.0
 10
225.304422
 20
-82.655509
 30
0.0
 10
211.334422
 20
-82.655509
 30
0.0
  0
LWPOLYLINE
  5
2b6
100
AcDbEntity
  8
0
 62
7
100
AcDbPolyline
 90
4
 70
1
 10
230.384422
 20
-68.685509
 30
0.0
 10
244.354422
 20
-68.685509
 30
0.0
 10
244.354422
 20
-82.655509
 30
0.0
 10
230.384422
 20
-82.655509
 30
0.0
  0
LWPOLYLINE
  5
2b7
100
AcDbEntity
  8
0
 62
7
100
AcDbPolyline
 90
4
 70
1
 10
249.434421
 20
-68.685509
 30
0.0
 10
263.404421
 20
-68.685509
 30
0.0
 10
263.404421
 20
-82.655509
 30
0.0
 10
249.434421
 20
-82.655509
 30
0.0
  0
LWPOLYLINE
  5
2b8
100
AcDbEntity
  8
0
 62
7
100
AcDbPolyline
 90
2
 70
0
 10
268.484421
 20
-82.655509
 30
0.0
 10
268.484421
 20
-68.685509
 30
0.0
  0
LWPOLYLINE
  5
2b9
100
AcDbEntity
  8
0
 62
7
100
AcDbPolyline
 90
2
 70
0
 10
282.454421
 20
-82.655509
 30
0.0
 10
268.484421
 20
-82.655509
 30
0.0
  0
LWPOLYLINE
  5
2ba
100
AcDbEntity
  8
0
 62
7
100
AcDbPolyline
 90
2
 70
0
 10
282.454421
 20
-68.685509
 30
0.0
 10
282.454421
 20
-82.655509
 30
0.0
  0
LWPOLYLINE
  5
2bb
100
AcDbEntity
  8
0
 62
7
100
AcDbPolyline
 90
2
 70
0
 10
268.484421
 20
-68.685509
 30
0.0
 10
282.454421
 20
-68.685509
 30
0.0
  0
LWPOLYLINE
  5
2bc
100
AcDbEntity
  8
0
 62
7
100
AcDbPolyline
 90
2
 70
0
 10
287.534420
 20
-82.655509
 30
0.0
 10
287.534420
 20
-68.685509
 30
0.0
  0
LWPOLYLINE
  5
2bd
100
AcDbEntity
  8
0
 62
7
100
AcDbPolyline
 90
2
 70
0
 10
301.504420
 20
-82.655509
 30
0.0
 10
287.534420
 20
-82.655509
 30
0.0
  0
LWPOLYLINE
  5
2be
100
AcDbEntity
  8
0
 62
7
100
AcDbPolyline
 90
2
 70
0
 10
301.504420
 20
-68.685509
 30
0.0
 10
301.504420
 20
-82.655509
 30
0.0
  0
LWPOLYLINE
  5
2bf
100
AcDbEntity
  8
0
 62
7
100
AcDbPolyline
 90
2
 70
0
 10
287.534420
 20
-68.685509
 30
0.0
 10
301.504420
 20
-68.685509
 30
0.0
  0
LWPOLYLINE
  5
2c0
100
AcDbEntity
  8
0
 62
7
100
AcDbPolyline
 90
4
 70
1
 10
306.584420
 20
-68.685509
 30
0.0
 10
320.554420
 20
-68.685509
 30
0.0
 10
320.554420
 20
-82.655509
 30
0.0
 10
306.584420
 20
-82.655509
 30
0.0
  0
LWPOLYLINE
  5
2c1
100
AcDbEntity
  8
0
 62
7
100
AcDbPolyline
 90
36
 70
1
 10
337.541939
 20
-68.685509
 30
0.0
 10
351.511939
 20
-68.685509
 30
0.0
 10
351.511939
 20
-70.793709
 30
0.0
 10
353.137539
 20
-70.793709
 30
0.0
 10
353.137539
 20
-69.980909
 30
0.0
 10
359.792339
 20
-69.980909
 30
0.0
 10
359.792339
 20
-73.384509
 30
0.0
 10
360.655939
 20
-73.384509
 30
0.0
 10
360.655939
 20
-76.178509
 30
0.0
 10
359.792339
 20
-76.178509
 30
0.0
 10
359.792339
 20
-82.274509
 30
0.0
 10
358.750939
 20
-82.274509
 30
0.0
 10
358.750939
 20
-83.442909
 30
0.0
 10
354.178939
 20
-83.442909
 30
0.0
 10
354.178939
 20
-82.274509
 30
0.0
 10
353.137539
 20
-82.274509
 30
0.0
 10
353.137539
 20
-81.487109
 30
0.0
 10
351.511939
 20
-81.487109
 30
0.0
 10
351.511939
 20
-82.655509
 30
0.0
 10
337.541939
 20
-82.655509
 30
0.0
 10
337.541939
 20
-81.487109
 30
0.0
 10
335.916339
 20
-81.487109
 30
0.0
 10
335.916339
 20
-82.274509
 30
0.0
 10
334.874939
 20
-82.274509
 30
0.0
 10
334.874939
 20
-83.442909
 30
0.0
 10
330.302939
 20
-83.442909
 30
0.0
 10
330.302939
 20
-82.274509
 30
0.0
 10
329.261539
 20
-82.274509
 30
0.0
 10
329.261539
 20
-76.178509
 30
0.0
 10
328.397939
 20
-76.178509
 30
0.0
 10
328.397939
 20
-73.384509
 30
0.0
 10
329.261539
 20
-73.384509
 30
0.0
 10
329.261539
 20
-69.980909
 30
0.0
 10
335.916339
 20
-69.980909
 30
0.0
 10
335.916339
 20
-70.793709
 30
0.0
 10
337.541939
 20
-70.793709
 30
0.0
  0
LWPOLYLINE
  5
2c2
100
AcDbEntity
  8
0
 62
7
100
AcDbPolyline
 90
4
 70
1
 10
16.071927
 20
-49.635510
 30
0.0
 10
30.041927
 20
-49.635510
 30
0.0
 10
30.041927
 20
-63.605510
 30
0.0
 10
16.071927
 20
-63.605510
 30
0.0
  0
LWPOLYLINE
  5
2c3
100
AcDbEntity
  8
0
 62
7
100
AcDbPolyline
 90
2
 70
0
 10
44.646926
 20
-63.605510
 30
0.0
 10
44.646926
 20
-49.635510
 30
0.0
  0
LWPOLYLINE
  5
2c4
100
AcDbEntity
  8
0
 62
7
100
AcDbPolyline
 90
2
 70
0
 10
58.616926
 20
-63.605510
 30
0.0
 10
44.646926
 20
-63.605510
 30
0.0
  0
LWPOLYLINE
  5
2c5
100
AcDbEntity
  8
0
 62
7
100
AcDbPolyline
 90
2
 70
0
 10
58.616926
 20
-49.635510
 30
0.0
 10
58.616926
 20
-63.605510
 30
0.0
  0
LWPOLYLINE
  5
2c6
100
AcDbEntity
  8
0
 62
7
100
AcDbPolyline
 90
2
 70
0
 10
44.646926
 20
-49.635510
 30
0.0
 10
58.616926
 20
-49.635510
 30
0.0
  0
LWPOLYLINE
  5
2c7
100
AcDbEntity
  8
0
 62
7
100
AcDbPolyline
 90
2
 70
0
 10
68.459426
 20
-63.605510
 30
0.0
 10
68.459426
 20
-49.635510
 30
0.0
  0
LWPOLYLINE
  5
2c8
100
AcDbEntity
  8
0
 62
7
100
AcDbPolyline
 90
2
 70
0
 10
82.429425
 20
-63.605510
 30
0.0
 10
68.459426
 20
-63.605510
 30
0.0
  0
LWPOLYLINE
  5
2c9
100
AcDbEntity
  8
0
 62
7
100
AcDbPolyline
 90
2
 70
0
 10
82.429425
 20
-49.635510
 30
0.0
 10
82.429425
 20
-63.605510
 30
0.0
  0
LWPOLYLINE
  5
2ca
100
AcDbEntity
  8
0
 62
7
100
AcDbPolyline
 90
2
 70
0
 10
68.459426
 20
-49.635510
 30
0.0
 10
82.429425
 20
-49.635510
 30
0.0
  0
LWPOLYLINE
  5
2cb
100
AcDbEntity
  8
0
 62
7
100
AcDbPolyline
 90
4
 70
1
 10
87.509425
 20
-49.635510
 30
0.0
 10
101.479425
 20
-49.635510
 30
0.0
 10
101.479425
 20
-63.605510
 30
0.0
 10
87.509425
 20
-63.605510
 30
0.0
  0
LWPOLYLINE
  5
2cc
100
AcDbEntity
  8
0
 62
7
100
AcDbPolyline
 90
2
 70
0
 10
106.559425
 20
-63.605510
 30
0.0
 10
106.559425
 20
-49.635510
 30
0.0
  0
LWPOLYLINE
  5
2cd
100
AcDbEntity
  8
0
 62
7
100
AcDbPolyline
 90
2
 70
0
 10
120.529425
 20
-63.605510
 30
0.0
 10
106.559425
 20
-63.605510
 30
0.0
  0
LWPOLYLINE
  5
2ce
100
AcDbEntity
  8
0
 62
7
100
AcDbPolyline
 90
2
 70
0
 10
120.529425
 20
-49.635510
 30
0.0
 10
120.529425
 20
-63.605510
 30
0.0
  0
LWPOLYLINE
  5
2cf
100
AcDbEntity
  8
0
 62
7
100
AcDbPolyline
 90
2
 70
0
 10
106.559425
 20
-49.635510
 30
0.0
 10
120.529425
 20
-49.635510
 30
0.0
  0
LWPOLYLINE
  5
2d0
100
AcDbEntity
  8
0
 62
7
100
AcDbPolyline
 90
4
 70
1
 10
125.609424
 20
-49.635510
 30
0.0
 10
139.579424
 20
-49.635510
 30
0.0
 10
139.579424
 20
-63.605510
 30
0.0
 10
125.609424
 20
-63.605510
 30
0.0
  0
LWPOLYLINE
  5
2d1
100
AcDbEntity
  8
0
 62
7
100
AcDbPolyline
 90
4
 70
1
 10
144.659424
 20
-49.635510
 30
0.0
 10
158.629424
 20
-49.635510
 30
0.0
 10
158.629424
 20
-63.605510
 30
0.0
 10
144.659424
 20
-63.605510
 30
0.0
  0
LWPOLYLINE
  5
2d2
100
AcDbEntity
  8
0
 62
7
100
AcDbPolyline
 90
4
 70
1
 10
211.334422
 20
-49.635510
 30
0.0
 10
225.304422
 20
-49.635510
 30
0.0
 10
225.304422
 20
-63.605510
 30
0.0
 10
211.334422
 20
-63.605510
 30
0.0
  0
LWPOLYLINE
  5
2d3
100
AcDbEntity
  8
0
 62
7
100
AcDbPolyline
 90
2
 70
0
 10
230.384422
 20
-63.605510
 30
0.0
 10
230.384422
 20
-49.635510
 30
0.0
  0
LWPOLYLINE
  5
2d4
100
AcDbEntity
  8
0
 62
7
100
AcDbPolyline
 90
2
 70
0
 10
244.354422
 20
-63.605510
 30
0.0
 10
230.384422
 20
-63.605510
 30
0.0
  0
LWPOLYLINE
  5
2d5
100
AcDbEntity
  8
0
 62
7
100
AcDbPolyline
 90
2
 70
0
 10
244.354422
 20
-49.635510
 30
0.0
 10
244.354422
 20
-63.605510
 30
0.0
  0
LWPOLYLINE
  5
2d6
100
AcDbEntity
  8
0
 62
7
100
AcDbPolyline
 90
2
 70
0
 10
230.384422
 20
-49.635510
 30
0.0
 10
244.354422
 20
-49.635510
 30
0.0
  0
LWPOLYLINE
  5
2d7
100
AcDbEntity
  8
0
 62
7
100
AcDbPolyline
 90
2
 70
0
 10
249.434421
 20
-63.605510
 30
0.0
 10
249.434421
 20
-49.635510
 30
0.0
  0
LWPOLYLINE
  5
2d8
100
AcDbEntity
  8
0
 62
7
100
AcDbPolyline
 90
2
 70
0
 10
263.404421
 20
-63.605510
 30
0.0
 10
249.434421
 20
-63.605510
 30
0.0
  0
LWPOLYLINE
  5
2d9
100
AcDbEntity
  8
0
 62
7
100
AcDbPolyline
 90
2
 70
0
 10
263.404421
 20
-49.635510
 30
0.0
 10
263.404421
 20
-63.605510
 30
0.0
  0
LWPOLYLINE
  5
2da
100
AcDbEntity
  8
0
 62
7
100
AcDbPolyline
 90
2
 70
0
 10
249.434421
 20
-49.635510
 30
0.0
 10
263.404421
 20
-49.635510
 30
0.0
  0
LWPOLYLINE
  5
2db
100
AcDbEntity
  8
0
 62
7
100
AcDbPolyline
 90
4
 70
1
 10
268.484421
 20
-49.635510
 30
0.0
 10
282.454421
 20
-49.635510
 30
0.0
 10
282.454421
 20
-63.605510
 30
0.0
 10
268.484421
 20
-63.605510
 30
0.0
  0
LWPOLYLINE
  5
2dc
100
AcDbEntity
  8
0
 62
7
100
AcDbPolyline
 90
4
 70
1
 10
287.534420
 20
-49.635510
 30
0.0
 10
301.504420
 20
-49.635510
 30
0.0
 10
301.504420
 20
-63.605510
 30
0.0
 10
287.534420
 20
-63.605510
 30
0.0
  0
LWPOLYLINE
  5
2dd
100
AcDbEntity
  8
0
 62
7
100
AcDbPolyline
 90
4
 70
1
 10
311.346920
 20
-49.635510
 30
0.0
 10
325.316920
 20
-49.635510
 30
0.0
 10
325.316920
 20
-63.605510
 30
0.0
 10
311.346920
 20
-63.605510
 30
0.0
  0
LWPOLYLINE
  5
2de
100
AcDbEntity
  8
0
 62
7
100
AcDbPolyline
 90
2
 70
0
 10
335.159419
 20
-63.605510
 30
0.0
 10
335.159419
 20
-49.635510
 30
0.0
  0
LWPOLYLINE
  5
2df
100
AcDbEntity
  8
0
 62
7
100
AcDbPolyline
 90
2
 70
0
 10
349.129419
 20
-63.605510
 30
0.0
 10
335.159419
 20
-63.605510
 30
0.0
  0
LWPOLYLINE
  5
2e0
100
AcDbEntity
  8
0
 62
7
100
AcDbPolyline
 90
2
 70
0
 10
349.129419
 20
-49.635510
 30
0.0
 10
349.129419
 20
-63.605510
 30
0.0
  0
LWPOLYLINE
  5
2e1
100
AcDbEntity
  8
0
 62
7
100
AcDbPolyline
 90
2
 70
0
 10
335.159419
 20
-49.635510
 30
0.0
 10
349.129419
 20
-49.635510
 30
0.0
  0
LWPOLYLINE
  5
2e2
100
AcDbEntity
  8
0
 62
7
100
AcDbPolyline
 90
2
 70
0
 10
354.209419
 20
-63.605510
 30
0.0
 10
354.209419
 20
-49.635510
 30
0.0
  0
LWPOLYLINE
  5
2e3
100
AcDbEntity
  8
0
 62
7
100
AcDbPolyline
 90
2
 70
0
 10
368.179419
 20
-63.605510
 30
0.0
 10
354.209419
 20
-63.605510
 30
0.0
  0
LWPOLYLINE
  5
2e4
100
AcDbEntity
  8
0
 62
7
100
AcDbPolyline
 90
2
 70
0
 10
368.179419
 20
-49.635510
 30
0.0
 10
368.179419
 20
-63.605510
 30
0.0
  0
LWPOLYLINE
  5
2e5
100
AcDbEntity
  8
0
 62
7
100
AcDbPolyline
 90
2
 70
0
 10
354.209419
 20
-49.635510
 30
0.0
 10
368.179419
 20
-49.635510
 30
0.0
  0
LWPOLYLINE
  5
2e6
100
AcDbEntity
  8
0
 62
7
100
AcDbPolyline
 90
2
 70
0
 10
20.834427
 20
-44.555510
 30
0.0
 10
20.834427
 20
-30.585510
 30
0.0
  0
LWPOLYLINE
  5
2e7
100
AcDbEntity
  8
0
 62
7
100
AcDbPolyline
 90
2
 70
0
 10
34.804427
 20
-44.555510
 30
0.0
 10
20.834427
 20
-44.555510
 30
0.0
  0
LWPOLYLINE
  5
2e8
100
AcDbEntity
  8
0
 62
7
100
AcDbPolyline
 90
2
 70
0
 10
34.804427
 20
-30.585510
 30
0.0
 10
34.804427
 20
-44.555510
 30
0.0
  0
LWPOLYLINE
  5
2e9
100
AcDbEntity
  8
0
 62
7
100
AcDbPolyline
 90
2
 70
0
 10
20.834427
 20
-30.585510
 30
0.0
 10
34.804427
 20
-30.585510
 30
0.0
  0
LWPOLYLINE
  5
2ea
100
AcDbEntity
  8
0
 62
7
100
AcDbPolyline
 90
4
 70
1
 10
44.646926
 20
-30.585510
 30
0.0
 10
58.616926
 20
-30.585510
 30
0.0
 10
58.616926
 20
-44.555510
 30
0.0
 10
44.646926
 20
-44.555510
 30
0.0
  0
LWPOLYLINE
  5
2eb
100
AcDbEntity
  8
0
 62
7
100
AcDbPolyline
 90
4
 70
1
 10
68.459426
 20
-30.585510
 30
0.0
 10
82.429425
 20
-30.585510
 30
0.0
 10
82.429425
 20
-44.555510
 30
0.0
 10
68.459426
 20
-44.555510
 30
0.0
  0
LWPOLYLINE
  5
2ec
100
AcDbEntity
  8
0
 62
7
100
AcDbPolyline
 90
4
 70
1
 10
87.509425
 20
-30.585510
 30
0.0
 10
101.479425
 20
-30.585510
 30
0.0
 10
101.479425
 20
-44.555510
 30
0.0
 10
87.509425
 20
-44.555510
 30
0.0
  0
LWPOLYLINE
  5
2ed
100
AcDbEntity
  8
0
 62
7
100
AcDbPolyline
 90
4
 70
1
 10
106.559425
 20
-30.585510
 30
0.0
 10
120.529425
 20
-30.585510
 30
0.0
 10
120.529425
 20
-44.555510
 30
0.0
 10
106.559425
 20
-44.555510
 30
0.0
  0
LWPOLYLINE
  5
2ee
100
AcDbEntity
  8
0
 62
7
100
AcDbPolyline
 90
4
 70
1
 10
125.609424
 20
-30.585510
 30
0.0
 10
139.579424
 20
-30.585510
 30
0.0
 10
139.579424
 20
-44.555510
 30
0.0
 10
125.609424
 20
-44.555510
 30
0.0
  0
LWPOLYLINE
  5
2ef
100
AcDbEntity
  8
0
 62
7
100
AcDbPolyline
 90
2
 70
0
 10
144.659424
 20
-44.555510
 30
0.0
 10
144.659424
 20
-30.585510
 30
0.0
  0
LWPOLYLINE
  5
2f0
100
AcDbEntity
  8
0
 62
7
100
AcDbPolyline
 90
2
 70
0
 10
158.629424
 20
-44.555510
 30
0.0
 10
144.659424
 20
-44.555510
 30
0.0
  0
LWPOLYLINE
  5
2f1
100
AcDbEntity
  8
0
 62
7
100
AcDbPolyline
 90
2
 70
0
 10
158.629424
 20
-30.585510
 30
0.0
 10
158.629424
 20
-44.555510
 30
0.0
  0
LWPOLYLINE
  5
2f2
100
AcDbEntity
  8
0
 62
7
100
AcDbPolyline
 90
2
 70
0
 10
144.659424
 20
-30.585510
 30
0.0
 10
158.629424
 20
-30.585510
 30
0.0
  0
LWPOLYLINE
  5
2f3
100
AcDbEntity
  8
0
 62
7
100
AcDbPolyline
 90
4
 70
1
 10
211.334422
 20
-30.585510
 30
0.0
 10
225.304422
 20
-30.585510
 30
0.0
 10
225.304422
 20
-44.555510
 30
0.0
 10
211.334422
 20
-44.555510
 30
0.0
  0
LWPOLYLINE
  5
2f4
100
AcDbEntity
  8
0
 62
7
100
AcDbPolyline
 90
4
 70
1
 10
230.384422
 20
-30.585510
 30
0.0
 10
244.354422
 20
-30.585510
 30
0.0
 10
244.354422
 20
-44.555510
 30
0.0
 10
230.384422
 20
-44.555510
 30
0.0
  0
LWPOLYLINE
  5
2f5
100
AcDbEntity
  8
0
 62
7
100
AcDbPolyline
 90
2
 70
0
 10
249.434421
 20
-44.555510
 30
0.0
 10
249.434421
 20
-30.585510
 30
0.0
  0
LWPOLYLINE
  5
2f6
100
AcDbEntity
  8
0
 62
7
100
AcDbPolyline
 90
2
 70
0
 10
263.404421
 20
-44.555510
 30
0.0
 10
249.434421
 20
-44.555510
 30
0.0
  0
LWPOLYLINE
  5
2f7
100
AcDbEntity
  8
0
 62
7
100
AcDbPolyline
 90
2
 70
0
 10
263.404421
 20
-30.585510
 30
0.0
 10
263.404421
 20
-44.555510
 30
0.0
  0
LWPOLYLINE
  5
2f8
100
AcDbEntity
  8
0
 62
7
100
AcDbPolyline
 90
2
 70
0
 10
249.434421
 20
-30.585510
 30
0.0
 10
263.404421
 20
-30.585510
 30
0.0
  0
LWPOLYLINE
  5
2f9
100
AcDbEntity
  8
0
 62
7
100
AcDbPolyline
 90
2
 70
0
 10
268.484421
 20
-44.555510
 30
0.0
 10
268.484421
 20
-30.585510
 30
0.0
  0
LWPOLYLINE
  5
2fa
100
AcDbEntity
  8
0
 62
7
100
AcDbPolyline
 90
2
 70
0
 10
282.454421
 20
-44.555510
 30
0.0
 10
268.484421
 20
-44.555510
 30
0.0
  0
LWPOLYLINE
  5
2fb
100
AcDbEntity
  8
0
 62
7
100
AcDbPolyline
 90
2
 70
0
 10
282.454421
 20
-30.585510
 30
0.0
 10
282.454421
 20
-44.555510
 30
0.0
  0
LWPOLYLINE
  5
2fc
100
AcDbEntity
  8
0
 62
7
100
AcDbPolyline
 90
2
 70
0
 10
268.484421
 20
-30.585510
 30
0.0
 10
282.454421
 20
-30.585510
 30
0.0
  0
LWPOLYLINE
  5
2fd
100
AcDbEntity
  8
0
 62
7
100
AcDbPolyline
 90
2
 70
0
 10
287.534420
 20
-44.555510
 30
0.0
 10
287.534420
 20
-30.585510
 30
0.0
  0
LWPOLYLINE
  5
2fe
100
AcDbEntity
  8
0
 62
7
100
AcDbPolyline
 90
2
 70
0
 10
301.504420
 20
-44.555510
 30
0.0
 10
287.534420
 20
-44.555510
 30
0.0
  0
LWPOLYLINE
  5
2ff
100
AcDbEntity
  8
0
 62
7
100
AcDbPolyline
 90
2
 70
0
 10
301.504420
 20
-30.585510
 30
0.0
 10
301.504420
 20
-44.555510
 30
0.0
  0
LWPOLYLINE
  5
300
100
AcDbEntity
  8
0
 62
7
100
AcDbPolyline
 90
2
 70
0
 10
287.534420
 20
-30.585510
 30
0.0
 10
301.504420
 20
-30.585510
 30
0.0
  0
LWPOLYLINE
  5
301
100
AcDbEntity
  8
0
 62
7
100
AcDbPolyline
 90
4
 70
1
 10
306.584420
 20
-30.585510
 30
0.0
 10
320.554420
 20
-30.585510
 30
0.0
 10
320.554420
 20
-44.555510
 30
0.0
 10
306.584420
 20
-44.555510
 30
0.0
  0
LWPOLYLINE
  5
302
100
AcDbEntity
  8
0
 62
7
100
AcDbPolyline
 90
2
 70
0
 10
325.634420
 20
-44.555510
 30
0.0
 10
325.634420
 20
-30.585510
 30
0.0
  0
LWPOLYLINE
  5
303
100
AcDbEntity
  8
0
 62
7
100
AcDbPolyline
 90
2
 70
0
 10
339.604419
 20
-44.555510
 30
0.0
 10
325.634420
 20
-44.555510
 30
0.0
  0
LWPOLYLINE
  5
304
100
AcDbEntity
  8
0
 62
7
100
AcDbPolyline
 90
2
 70
0
 10
339.604419
 20
-30.585510
 30
0.0
 10
339.604419
 20
-44.555510
 30
0.0
  0
LWPOLYLINE
  5
305
100
AcDbEntity
  8
0
 62
7
100
AcDbPolyline
 90
2
 70
0
 10
325.634420
 20
-30.585510
 30
0.0
 10
339.604419
 20
-30.585510
 30
0.0
  0
LWPOLYLINE
  5
306
100
AcDbEntity
  8
0
 62
7
100
AcDbPolyline
 90
2
 70
0
 10
344.684419
 20
-44.555510
 30
0.0
 10
344.684419
 20
-30.585510
 30
0.0
  0
LWPOLYLINE
  5
307
100
AcDbEntity
  8
0
 62
7
100
AcDbPolyline
 90
2
 70
0
 10
358.654419
 20
-44.555510
 30
0.0
 10
344.684419
 20
-44.555510
 30
0.0
  0
LWPOLYLINE
  5
308
100
AcDbEntity
  8
0
 62
7
100
AcDbPolyline
 90
2
 70
0
 10
358.654419
 20
-30.585510
 30
0.0
 10
358.654419
 20
-44.555510
 30
0.0
  0
LWPOLYLINE
  5
309
100
AcDbEntity
  8
0
 62
7
100
AcDbPolyline
 90
2
 70
0
 10
344.684419
 20
-30.585510
 30
0.0
 10
358.654419
 20
-30.585510
 30
0.0
  0
LWPOLYLINE
  5
30a
100
AcDbEntity
  8
0
 62
7
100
AcDbPolyline
 90
2
 70
0
 10
37.504447
 20
-89.843709
 30
0.0
 10
37.504447
 20
-87.735509
 30
0.0
  0
LWPOLYLINE
  5
30b
100
AcDbEntity
  8
0
 62
7
100
AcDbPolyline
 90
2
 70
0
 10
35.878847
 20
-89.843709
 30
0.0
 10
37.504447
 20
-89.843709
 30
0.0
  0
LWPOLYLINE
  5
30c
100
AcDbEntity
  8
0
 62
7
100
AcDbPolyline
 90
2
 70
0
 10
35.878847
 20
-89.030909
 30
0.0
 10
35.878847
 20
-89.843709
 30
0.0
  0
LWPOLYLINE
  5
30d
100
AcDbEntity
  8
0
 62
7
100
AcDbPolyline
 90
2
 70
0
 10
29.224047
 20
-89.030909
 30
0.0
 10
35.878847
 20
-89.030909
 30
0.0
  0
LWPOLYLINE
  5
30e
100
AcDbEntity
  8
0
 62
7
100
AcDbPolyline
 90
2
 70
0
 10
29.224047
 20
-92.434509
 30
0.0
 10
29.224047
 20
-89.030909
 30
0.0
  0
LWPOLYLINE
  5
30f
100
AcDbEntity
  8
0
 62
7
100
AcDbPolyline
 90
2
 70
0
 10
28.360447
 20
-92.434509
 30
0.0
 10
29.224047
 20
-92.434509
 30
0.0
  0
LWPOLYLINE
  5
310
100
AcDbEntity
  8
0
 62
7
100
AcDbPolyline
 90
2
 70
0
 10
28.360447
 20
-95.228509
 30
0.0
 10
28.360447
 20
-92.434509
 30
0.0
  0
LWPOLYLINE
  5
311
100
AcDbEntity
  8
0
 62
7
100
AcDbPolyline
 90
2
 70
0
 10
29.224047
 20
-95.228509
 30
0.0
 10
28.360447
 20
-95.228509
 30
0.0
  0
LWPOLYLINE
  5
312
100
AcDbEntity
  8
0
 62
7
100
AcDbPolyline
 90
2
 70
0
 10
29.224047
 20
-101.324509
 30
0.0
 10
29.224047
 20
-95.228509
 30
0.0
  0
LWPOLYLINE
  5
313
100
AcDbEntity
  8
0
 62
7
100
AcDbPolyline
 90
2
 70
0
 10
30.265447
 20
-101.324509
 30
0.0
 10
29.224047
 20
-101.324509
 30
0.0
  0
LWPOLYLINE
  5
314
100
AcDbEntity
  8
0
 62
7
100
AcDbPolyline
 90
2
 70
0
 10
30.265447
 20
-102.492909
 30
0.0
 10
30.265447
 20
-101.324509
 30
0.0
  0
LWPOLYLINE
  5
315
100
AcDbEntity
  8
0
 62
7
100
AcDbPolyline
 90
2
 70
0
 10
34.837447
 20
-102.492909
 30
0.0
 10
30.265447
 20
-102.492909
 30
0.0
  0
LWPOLYLINE
  5
316
100
AcDbEntity
  8
0
 62
7
100
AcDbPolyline
 90
2
 70
0
 10
34.837447
 20
-101.324509
 30
0.0
 10
34.837447
 20
-102.492909
 30
0.0
  0
LWPOLYLINE
  5
317
100
AcDbEntity
  8
0
 62
7
100
AcDbPolyline
 90
2
 70
0
 10
35.878847
 20
-101.324509
 30
0.0
 10
34.837447
 20
-101.324509
 30
0.0
  0
LWPOLYLINE
  5
318
100
AcDbEntity
  8
0
 62
7
100
AcDbPolyline
 90
2
 70
0
 10
35.878847
 20
-100.537109
 30
0.0
 10
35.878847
 20
-101.324509
 30
0.0
  0
LWPOLYLINE
  5
319
100
AcDbEntity
  8
0
 62
7
100
AcDbPolyline
 90
2
 70
0
 10
37.504447
 20
-100.537109
 30
0.0
 10
35.878847
 20
-100.537109
 30
0.0
  0
LWPOLYLINE
  5
31a
100
AcDbEntity
  8
0
 62
7
100
AcDbPolyline
 90
2
 70
0
 10
37.504447
 20
-101.705509
 30
0.0
 10
37.504447
 20
-100.537109
 30
0.0
  0
LWPOLYLINE
  5
31b
100
AcDbEntity
  8
0
 62
7
100
AcDbPolyline
 90
2
 70
0
 10
51.474446
 20
-101.705509
 30
0.0
 10
37.504447
 20
-101.705509
 30
0.0
  0
LWPOLYLINE
  5
31c
100
AcDbEntity
  8
0
 62
7
100
AcDbPolyline
 90
2
 70
0
 10
51.474446
 20
-100.537109
 30
0.0
 10
51.474446
 20
-101.705509
 30
0.0
  0
LWPOLYLINE
  5
31d
100
AcDbEntity
  8
0
 62
7
100
AcDbPolyline
 90
2
 70
0
 10
53.100046
 20
-100.537109
 30
0.0
 10
51.474446
 20
-100.537109
 30
0.0
  0
LWPOLYLINE
  5
31e
100
AcDbEntity
  8
0
 62
7
100
AcDbPolyline
 90
2
 70
0
 10
53.100046
 20
-101.324509
 30
0.0
 10
53.100046
 20
-100.537109
 30
0.0
  0
LWPOLYLINE
  5
31f
100
AcDbEntity
  8
0
 62
7
100
AcDbPolyline
 90
2
 70
0
 10
54.141446
 20
-101.324509
 30
0.0
 10
53.100046
 20
-101.324509
 30
0.0
  0
LWPOLYLINE
  5
320
100
AcDbEntity
  8
0
 62
7
100
AcDbPolyline
 90
2
 70
0
 10
54.141446
 20
-102.492909
 30
0.0
 10
54.141446
 20
-101.324509
 30
0.0
  0
LWPOLYLINE
  5
321
100
AcDbEntity
  8
0
 62
7
100
AcDbPolyline
 90
2
 70
0
 10
58.713446
 20
-102.492909
 30
0.0
 10
54.141446
 20
-102.492909
 30
0.0
  0
LWPOLYLINE
  5
322
100
AcDbEntity
  8
0
 62
7
100
AcDbPolyline
 90
2
 70
0
 10
58.713446
 20
-101.324509
 30
0.0
 10
58.713446
 20
-102.492909
 30
0.0
  0
LWPOLYLINE
  5
323
100
AcDbEntity
  8
0
 62
7
100
AcDbPolyline
 90
2
 70
0
 10
59.754846
 20
-101.324509
 30
0.0
 10
58.713446
 20
-101.324509
 30
0.0
  0
LWPOLYLINE
  5
324
100
AcDbEntity
  8
0
 62
7
100
AcDbPolyline
 90
2
 70
0
 10
59.754846
 20
-95.228509
 30
0.0
 10
59.754846
 20
-101.324509
 30
0.0
  0
LWPOLYLINE
  5
325
100
AcDbEntity
  8
0
 62
7
100
AcDbPolyline
 90
2
 70
0
 10
60.618446
 20
-95.228509
 30
0.0
 10
59.754846
 20
-95.228509
 30
0.0
  0
LWPOLYLINE
  5
326
100
AcDbEntity
  8
0
 62
7
100
AcDbPolyline
 90
2
 70
0
 10
60.618446
 20
-92.434509
 30
0.0
 10
60.618446
 20
-95.228509
 30
0.0
  0
LWPOLYLINE
  5
327
100
AcDbEntity
  8
0
 62
7
100
AcDbPolyline
 90
2
 70
0
 10
59.754846
 20
-92.434509
 30
0.0
 10
60.618446
 20
-92.434509
 30
0.0
  0
LWPOLYLINE
  5
328
100
AcDbEntity
  8
0
 62
7
100
AcDbPolyline
 90
2
 70
0
 10
59.754846
 20
-89.030909
 30
0.0
 10
59.754846
 20
-92.434509
 30
0.0
  0
LWPOLYLINE
  5
329
100
AcDbEntity
  8
0
 62
7
100
AcDbPolyline
 90
2
 70
0
 10
53.100046
 20
-89.030909
 30
0.0
 10
59.754846
 20
-89.030909
 30
0.0
  0
LWPOLYLINE
  5
32a
100
AcDbEntity
  8
0
 62
7
100
AcDbPolyline
 90
2
 70
0
 10
53.100046
 20
-89.843709
 30
0.0
 10
53.100046
 20
-89.030909
 30
0.0
  0
LWPOLYLINE
  5
32b
100
AcDbEntity
  8
0
 62
7
100
AcDbPolyline
 90
2
 70
0
 10
51.474446
 20
-89.843709
 30
0.0
 10
53.100046
 20
-89.843709
 30
0.0
  0
LWPOLYLINE
  5
32c
100
AcDbEntity
  8
0
 62
7
100
AcDbPolyline
 90
2
 70
0
 10
51.474446
 20
-87.735509
 30
0.0
 10
51.474446
 20
-89.843709
 30
0.0
  0
LWPOLYLINE
  5
32d
100
AcDbEntity
  8
0
 62
7
100
AcDbPolyline
 90
2
 70
0
 10
37.504447
 20
-87.735509
 30
0.0
 10
51.474446
 20
-87.735509
 30
0.0
  0
ENDSEC
  0
SECTION
  2
OBJECTS
  0
DICTIONARY
  5
C
330
0
100
AcDbDictionary
  3
ACAD_GROUP
350
D
  3
ACAD_MLINESTYLE
350
17
  0
DICTIONARY
  5
D
330
C
100
AcDbDictionary
  0
DICTIONARY
  5
1A
330
C
100
AcDbDictionary
  0
DICTIONARY
  5
17
330
C
100
AcDbDictionary
  3
STANDARD
350
18
  0
DICTIONARY
  5
19
330
C
100
AcDbDictionary
  0
ENDSEC
  0
EOF
