0
SECTION
2
HEADER
9
$INSUNITS
70
4
9
$ACADVER
1
AC1014
9
$HANDSEED
5
FFFF
0
ENDSEC
0
SECTION
2
TABLES
0
TABLE
2
VPORT
5
8
100
AcDbSymbolTable
0
ENDTAB
0
TABLE
2
LTYPE
5
5
100
AcDbSymbolTable
0
LTYPE
5
14
100
AcDbSymbolTableRecord
100
AcDbLinetypeTableRecord
2
BYBLOCK
70
0
0
LTYPE
5
15
100
AcDbSymbolTableRecord
100
AcDbLinetypeTableRecord
2
BYLAYER
70
0
0
ENDTAB
0
TABLE
2
LAYER
5
2
100
AcDbSymbolTable
70
2
0
LAYER
5
50
100
AcDbSymbolTableRecord
100
AcDbLayerTableRecord
2
0
70
0
6
CONTINUOUS
0
ENDTAB
0
TABLE
2
STYLE
5
3
100
AcDbSymbolTable
70
1
0
STYLE
5
11
100
AcDbSymbolTableRecord
100
AcDbTextStyleTableRecord
2
STANDARD
70
0
0
ENDTAB
0
TABLE
2
VIEW
5
6
100
AcDbSymbolTable
70
0
0
ENDTAB
0
TABLE
2
UCS
5
7
100
AcDbSymbolTable
70
0
0
ENDTAB
0
TABLE
2
APPID
5
9
100
AcDbSymbolTable
70
2
0
APPID
5
12
100
AcDbSymbolTableRecord
100
AcDbRegAppTableRecord
2
ACAD
70
0
0
ENDTAB
0
TABLE
2
DIMSTYLE
5
A
100
AcDbSymbolTable
70
1
0
ENDTAB
0
TABLE
2
BLOCK_RECORD
5
1
100
AcDbSymbolTable
70
1
0
BLOCK_RECORD
5
1F
100
AcDbSymbolTableRecord
100
AcDbBlockTableRecord
2
*MODEL_SPACE
0
BLOCK_RECORD
5
1B
100
AcDbSymbolTableRecord
100
AcDbBlockTableRecord
2
*PAPER_SPACE
0
ENDTAB
0
ENDSEC
0
SECTION
2
BLOCKS
0
BLOCK
5
20
100
AcDbEntity
100
AcDbBlockBegin
2
*MODEL_SPACE
0
ENDBLK
5
21
100
AcDbEntity
100
AcDbBlockEnd
0
BLOCK
5
1C
100
AcDbEntity
100
AcDbBlockBegin
2
*PAPER_SPACE
0
ENDBLK
5
1D
100
AcDbEntity
100
AcDbBlockEnd
0
ENDSEC
0
SECTION
2
ENTITIES
0
LWPOLYLINE
5
100
100
AcDbEntity
8
0
100
AcDbPolyline
90
674
70
1
43
0.0
10
362.34370000000007
20
-44.733139000000001
10
362.32846000000001
20
-44.733139000000001
10
362.31067999999999
20
-44.733139000000001
10
362.29289999999997
20
-44.733139000000001
10
362.27766000000003
20
-44.730598999999998
10
362.25988000000001
20
-44.730598999999998
10
362.24209999999999
20
-44.728059000000002
10
362.22432000000003
20
-44.728059000000002
10
362.20654000000002
20
-44.725518999999998
10
362.18876
20
-44.725518999999998
10
362.16844000000003
20
-44.722979000000002
10
362.15066000000002
20
-44.720438999999999
10
362.13288
20
-44.717899000000003
10
362.11256000000003
20
-44.715358999999999
10
362.09477999999996
20
-44.712819000000003
10
362.07445999999999
20
-44.710279
10
362.05667999999997
20
-44.707739000000004
10
362.03636000000006
20
-44.705199
10
362.01603999999998
20
-44.702659000000004
10
361.99826000000002
20
-44.697579000000005
10
361.97793999999999
20
-44.695039000000001
10
361.95762000000002
20
-44.689959000000002
10
361.93730000000005
20
-44.684878999999995
10
361.91697999999997
20
-44.679798999999996
10
361.89666
20
-44.674719000000003
10
361.87633999999997
20
-44.669639000000004
10
361.85602000000006
20
-44.664559000000004
10
361.83569999999997
20
-44.659478999999997
10
361.81538
20
-44.651859000000009
10
361.79252000000008
20
-44.646778999999995
10
361.7722
20
-44.639158999999999
10
361.72648000000004
20
-44.623919000000001
10
361.68076000000008
20
-44.608678999999995
10
361.63757999999996
20
-44.590899000000007
10
361.59440000000006
20
-44.573118999999998
10
361.55122
20
-44.552799
10
361.51058
20
-44.535018999999998
10
361.47247999999996
20
-44.514699
10
361.43437999999998
20
-44.494378999999995
10
361.39628000000005
20
-44.474059000000004
10
361.36072000000007
20
-44.453738999999999
10
361.32769999999999
20
-44.430879000000004
10
361.29467999999997
20
-44.410559000000006
10
361.26166000000006
20
-44.387698999999998
10
361.23117999999999
20
-44.367379
10
361.20069999999998
20
-44.344518999999998
10
361.17022000000009
20
-44.321659000000004
10
361.14227999999997
20
-44.301339000000006
10
361.11688000000004
20
-44.278478999999997
10
361.09147999999999
20
-44.258158999999999
10
361.06608
20
-44.235298999999998
10
361.04322000000002
20
-44.214979
10
361.02035999999998
20
-44.194659000000001
10
360.9975
20
-44.174339000000003
10
360.97717999999998
20
-44.156559000000001
10
360.95940000000007
20
-44.136239000000003
10
360.94162000000006
20
-44.118459000000001
10
360.92384000000004
20
-44.100679000000007
10
360.90606000000002
20
-44.082898999999998
10
360.89082000000008
20
-44.067658999999999
10
360.87812000000008
20
-44.052419
10
360.86542000000003
20
-44.037178999999995
10
360.85272000000003
20
-44.024478999999999
10
360.80953999999997
20
-43.976219
10
360.76889999999997
20
-43.930499000000005
10
360.72826000000009
20
-43.882238999999998
10
360.69270000000006
20
-43.833978999999999
10
360.65714000000003
20
-43.785719
10
360.62158000000005
20
-43.739999000000005
10
360.59109999999998
20
-43.691738999999998
10
360.56062000000003
20
-43.643478999999999
10
360.53267999999997
20
-43.597759000000011
10
360.50474000000003
20
-43.549499000000004
10
360.47933999999998
20
-43.503778999999994
10
360.45393999999999
20
-43.455519000000002
10
360.43362000000002
20
-43.409799
10
360.41075999999998
20
-43.364079000000004
10
360.39297999999997
20
-43.318359000000008
10
360.37266
20
-43.275179000000001
10
360.35741999999999
20
-43.229459000000006
10
360.33963999999997
20
-43.186278999999999
10
360.32693999999998
20
-43.143099000000007
10
360.31169999999997
20
-43.099919
10
360.29899999999998
20
-43.056739000000007
10
360.28883999999999
20
-43.016098999999997
10
360.27868000000007
20
-42.975459000000001
10
360.26852000000008
20
-42.934818999999997
10
360.26090000000005
20
-42.894179000000001
10
360.25327999999996
20
-42.856079000000008
10
360.2482
20
-42.817979000000001
10
360.24057999999997
20
-42.779879000000001
10
360.23804000000007
20
-42.744318999999997
10
360.23296000000005
20
-42.708759000000001
10
360.23042000000004
20
-42.675739000000007
10
360.22534000000002
20
-42.642719
10
360.22280000000001
20
-42.602079000000003
10
360.22280000000001
20
-42.563978999999996
10
360.22026000000005
20
-42.525879000000003
10
360.22026000000005
20
-42.487778999999996
10
360.22026000000005
20
-42.452218999999999
10
360.22026000000005
20
-42.416659000000003
10
360.22280000000001
20
-42.381099000000006
10
360.22534000000002
20
-42.345539000000009
10
360.22787999999997
20
-42.312519000000002
10
360.23042000000004
20
-42.279499000000001
10
360.23296000000005
20
-42.246479000000001
10
360.23804000000007
20
-42.215999000000004
10
360.24057999999997
20
-42.185519000000006
10
360.24565999999999
20
-42.155039000000009
10
360.25074000000006
20
-42.127099000000001
10
360.25582000000009
20
-42.096618999999997
10
360.26090000000005
20
-42.071218999999999
10
360.26598000000001
20
-42.043278999999998
10
360.27106000000003
20
-42.017879000000001
10
360.27614
20
-41.992478999999996
10
360.28122000000002
20
-41.969619000000009
10
360.28629999999998
20
-41.946759
10
360.29138
20
-41.923899000000006
10
360.29646000000008
20
-41.903579000000008
10
360.30408
20
-41.885798999999999
10
360.30916000000002
20
-41.865479000000001
10
360.31424000000004
20
-41.847698999999999
10
360.31932000000006
20
-41.832459
10
360.32186000000002
20
-41.817219000000001
10
360.32693999999998
20
-41.801978999999996
10
360.33202000000006
20
-41.789279000000008
10
360.33456000000001
20
-41.776578999999998
10
360.34218000000004
20
-41.756259
10
360.34980000000007
20
-41.733399000000006
10
360.35741999999999
20
-41.710539000000004
10
360.36757999999998
20
-41.685138999999999
10
360.37520000000001
20
-41.659739000000002
10
360.38535999999999
20
-41.634339000000004
10
360.39805999999999
20
-41.606398999999996
10
360.40822000000003
20
-41.578459000000009
10
360.42092000000002
20
-41.547978999999998
10
360.43362000000002
20
-41.517499000000001
10
360.44886000000008
20
-41.487019000000004
10
360.46410000000003
20
-41.456538999999999
10
360.47933999999998
20
-41.423519000000006
10
360.49712
20
-41.390498999999998
10
360.51490000000001
20
-41.357478999999998
10
360.53267999999997
20
-41.324459000000004
10
360.553
20
-41.288899000000001
10
360.57332000000002
20
-41.255879
10
360.59364000000005
20
-41.220319000000003
10
360.61649999999997
20
-41.184759
10
360.63936000000007
20
-41.149198999999996
10
360.66476
20
-41.113638999999999
10
360.69015999999999
20
-41.075538999999999
10
360.71809999999999
20
-41.039978999999995
10
360.74603999999999
20
-41.004418999999999
10
360.77398000000005
20
-40.966318999999999
10
360.80446000000001
20
-40.930759000000009
10
360.83494000000002
20
-40.895198999999998
10
360.86795999999998
20
-40.857099000000005
10
360.90098000000006
20
-40.821539000000008
10
360.93654000000004
20
-40.785978999999998
10
360.97210000000007
20
-40.750419000000008
10
360.98734000000002
20
-40.735178999999995
10
361.00257999999997
20
-40.722479
10
361.02035999999998
20
-40.704698999999998
10
361.03814
20
-40.686919000000003
10
361.05846000000008
20
-40.669139000000001
10
361.07877999999999
20
-40.648819000000003
10
361.10418000000004
20
-40.628498999999998
10
361.12957999999998
20
-40.608179
10
361.15497999999997
20
-40.585318999999998
10
361.18292000000002
20
-40.562459000000004
10
361.21339999999998
20
-40.537058999999999
10
361.24388000000005
20
-40.514198999999998
10
361.27944000000002
20
-40.488799
10
361.31245999999999
20
-40.465939000000006
10
361.35056000000009
20
-40.440539000000008
10
361.38866000000002
20
-40.415139000000011
10
361.42676
20
-40.389739000000006
10
361.4674
20
-40.366878999999997
10
361.51058
20
-40.341479
10
361.55630000000002
20
-40.318618999999998
10
361.60202000000004
20
-40.293219000000001
10
361.65028000000001
20
-40.270359000000006
10
361.69853999999998
20
-40.247498999999998
10
361.74934000000002
20
-40.227179
10
361.80268000000007
20
-40.206859000000001
10
361.85602000000006
20
-40.186539000000003
10
361.9119
20
-40.168759000000009
10
361.96778
20
-40.150979
10
362.02620000000002
20
-40.133198999999998
10
362.08716000000004
20
-40.120499000000002
10
362.14812000000001
20
-40.105259000000004
10
362.21162000000004
20
-40.095099000000005
10
362.22686000000004
20
-40.092559000000001
10
362.24464000000006
20
-40.090019000000005
10
362.26242000000008
20
-40.084939000000006
10
362.28273999999999
20
-40.082399000000002
10
362.30306000000007
20
-40.079859000000006
10
362.32592000000005
20
-40.077319000000003
10
362.3513200000001
20
-40.074779000000007
10
362.37672000000003
20
-40.069699000000007
10
362.40212000000008
20
-40.067159000000004
10
362.43006000000003
20
-40.064619000000008
10
362.46054000000004
20
-40.062078999999997
10
362.48848000000004
20
-40.062078999999997
10
362.5215
20
-40.059539000000008
10
362.55198000000001
20
-40.059539000000008
10
362.58499999999998
20
-40.056998999999998
10
362.62056000000001
20
-40.056998999999998
10
362.65357999999998
20
-40.059539000000008
10
362.69168000000002
20
-40.059539000000008
10
362.72724000000005
20
-40.062078999999997
10
362.76533999999998
20
-40.064619000000008
10
362.80344000000002
20
-40.067159000000004
10
362.84407999999996
20
-40.072239000000003
10
362.88218000000001
20
-40.077319000000003
10
362.92282
20
-40.084939000000006
10
362.96600000000007
20
-40.092559000000001
10
363.00664000000006
20
-40.100179000000004
10
363.04982000000001
20
-40.110339000000003
10
363.09300000000002
20
-40.120499000000002
10
363.13617999999997
20
-40.133198999999998
10
363.17936000000003
20
-40.145899
10
363.22507999999999
20
-40.161138999999999
10
363.26826000000005
20
-40.178919000000008
10
363.31906000000004
20
-40.196699000000002
10
363.36986000000002
20
-40.219559000000011
10
363.41557999999998
20
-40.239879000000002
10
363.46384
20
-40.262739000000003
10
363.50702000000007
20
-40.288139000000001
10
363.55274000000003
20
-40.313538999999999
10
363.59338000000002
20
-40.338939000000011
10
363.63402000000002
20
-40.364339000000001
10
363.67466000000002
20
-40.392278999999995
10
363.71276
20
-40.417679
10
363.75086000000005
20
-40.445619000000008
10
363.78642000000008
20
-40.473559000000002
10
363.81943999999999
20
-40.504038999999999
10
363.85500000000002
20
-40.531979
10
363.88548000000003
20
-40.559919000000008
10
363.91595999999998
20
-40.590399000000005
10
363.94644
20
-40.618338999999999
10
363.97438
20
-40.648819000000003
10
364.00232000000005
20
-40.676759000000004
10
364.02772000000004
20
-40.707239000000001
10
364.05312000000004
20
-40.735178999999995
10
364.07598000000002
20
-40.763119000000003
10
364.09884
20
-40.791059000000011
10
364.12169999999998
20
-40.818998999999998
10
364.14202
20
-40.846939000000006
10
364.15980000000002
20
-40.872339000000004
10
364.17757999999998
20
-40.897739000000001
10
364.19535999999999
20
-40.923138999999999
10
364.21060000000006
20
-40.948539000000004
10
364.22584000000001
20
-40.971399000000005
10
364.24107999999995
20
-40.994259
10
364.25378000000001
20
-41.014578999999998
10
363.76355999999998
20
-41.304138999999999
10
363.75594000000001
20
-41.288899000000001
10
363.74577999999997
20
-41.273659000000002
10
363.73308000000003
20
-41.255879
10
363.7229200000001
20
-41.238099000000005
10
363.71022000000005
20
-41.220319000000003
10
363.69752
20
-41.202539000000009
10
363.68482
20
-41.184759
10
363.66958000000005
20
-41.164439000000002
10
363.65433999999999
20
-41.144119000000003
10
363.63909999999998
20
-41.126339000000002
10
363.62132000000003
20
-41.106019000000003
10
363.60354000000001
20
-41.085698999999998
10
363.58575999999999
20
-41.062839000000004
10
363.56543999999997
20
-41.042519000000006
10
363.54512
20
-41.022199000000008
10
363.52480000000008
20
-41.001879000000002
10
363.50193999999999
20
-40.981559000000011
10
363.48162000000002
20
-40.961239000000006
10
363.45622000000003
20
-40.940919000000008
10
363.43335999999999
20
-40.920598999999996
10
363.40796000000006
20
-40.900278999999998
10
363.38002000000006
20
-40.879958999999999
10
363.35462000000001
20
-40.859639000000001
10
363.32668000000001
20
-40.841859000000007
10
363.2962
20
-40.824078999999998
10
363.26826000000005
20
-40.803758999999999
10
363.23523999999998
20
-40.788519000000001
10
363.20476000000008
20
-40.770739000000006
10
363.17174
20
-40.752959000000004
10
363.13872000000003
20
-40.737718999999998
10
363.10316
20
-40.725019000000003
10
363.06760000000003
20
-40.709778999999997
10
363.03712000000007
20
-40.699618999999998
10
363.00664000000006
20
-40.686919000000003
10
362.97615999999999
20
-40.679299
10
362.94567999999998
20
-40.669139000000001
10
362.91520000000003
20
-40.661519000000006
10
362.88472000000007
20
-40.656439000000006
10
362.85677999999996
20
-40.648819000000003
10
362.82630000000006
20
-40.643739000000004
10
362.79836
20
-40.641199000000007
10
362.77042
20
-40.636119000000008
10
362.74248
20
-40.633578999999997
10
362.71707999999995
20
-40.631039000000008
10
362.68914000000001
20
-40.628498999999998
10
362.66374000000008
20
-40.628498999999998
10
362.63833999999997
20
-40.625959000000009
10
362.61293999999998
20
-40.625959000000009
10
362.59008
20
-40.625959000000009
10
362.56467999999995
20
-40.625959000000009
10
362.54182000000009
20
-40.628498999999998
10
362.51895999999999
20
-40.628498999999998
10
362.49863999999997
20
-40.631039000000008
10
362.47577999999999
20
-40.631039000000008
10
362.45546000000002
20
-40.633578999999997
10
362.43768
20
-40.636119000000008
10
362.41736000000003
20
-40.638659000000004
10
362.39957999999996
20
-40.641199000000007
10
362.3818
20
-40.643739000000004
10
362.36656000000005
20
-40.646279000000007
10
362.34878000000003
20
-40.648819000000003
10
362.33353999999997
20
-40.651359000000006
10
362.32083999999998
20
-40.653898999999996
10
362.30560000000003
20
-40.653898999999996
10
362.25988000000001
20
-40.664059000000002
10
362.21415999999999
20
-40.674219000000001
10
362.16844000000003
20
-40.684379
10
362.12526000000003
20
-40.697079000000002
10
362.08208000000002
20
-40.709778999999997
10
362.04143999999997
20
-40.725019000000003
10
362.00080000000008
20
-40.740259000000009
10
361.96016000000009
20
-40.755499
10
361.92205999999999
20
-40.773278999999995
10
361.88396000000006
20
-40.788519000000001
10
361.84840000000003
20
-40.806298999999996
10
361.81538
20
-40.824078999999998
10
361.77982000000009
20
-40.844398999999996
10
361.74934000000002
20
-40.862179000000005
10
361.71632
20
-40.879958999999999
10
361.68584000000004
20
-40.900278999999998
10
361.65790000000004
20
-40.918059
10
361.62995999999998
20
-40.938378999999998
10
361.60456000000005
20
-40.956159
10
361.57916
20
-40.976478999999998
10
361.55376000000001
20
-40.994259
10
361.53089999999997
20
-41.012039000000009
10
361.50803999999999
20
-41.029819000000003
10
361.48772000000002
20
-41.047599000000005
10
361.46994000000001
20
-41.065379
10
361.45215999999999
20
-41.080618999999999
10
361.43437999999998
20
-41.095859000000004
10
361.41913999999997
20
-41.108559
10
361.40390000000002
20
-41.123798999999998
10
361.39120000000003
20
-41.136499000000001
10
361.38103999999998
20
-41.146659
10
361.36833999999999
20
-41.156818999999999
10
361.34039999999999
20
-41.184759
10
361.31500000000005
20
-41.212699000000008
10
361.28706
20
-41.240639000000002
10
361.26420000000002
20
-41.268579000000003
10
361.23880000000008
20
-41.296519000000004
10
361.21594000000005
20
-41.324459000000004
10
361.19308000000001
20
-41.352399000000005
10
361.17275999999998
20
-41.382879000000003
10
361.1499
20
-41.410819000000004
10
361.13212000000004
20
-41.438759000000005
10
361.11180000000002
20
-41.464159000000002
10
361.09402
20
-41.492098999999996
10
361.07623999999998
20
-41.520039000000004
10
361.06099999999998
20
-41.547978999999998
10
361.04576000000003
20
-41.573379000000003
10
361.03052000000002
20
-41.601319000000004
10
361.01527999999996
20
-41.626719000000001
10
361.00257999999997
20
-41.652118999999999
10
360.98987999999997
20
-41.677519000000004
10
360.97717999999998
20
-41.700378999999998
10
360.96448000000004
20
-41.725778999999996
10
360.95432000000005
20
-41.748639000000011
10
360.94416000000001
20
-41.771498999999999
10
360.93400000000003
20
-41.794359000000007
10
360.92637999999999
20
-41.817219000000001
10
360.91622000000001
20
-41.837539
10
360.90859999999998
20
-41.857859000000005
10
360.90098000000006
20
-41.878178999999996
10
360.89589999999998
20
-41.895959000000005
10
360.88828000000001
20
-41.913739000000007
10
360.88320000000004
20
-41.931519000000002
10
360.87812000000008
20
-41.949298999999996
10
360.87557999999996
20
-41.956918999999999
10
360.87049999999999
20
-41.969619000000009
10
360.86795999999998
20
-41.979779000000008
10
360.86287999999996
20
-41.992478999999996
10
360.86034000000006
20
-42.005179000000005
10
360.85526000000004
20
-42.020419000000004
10
360.85272000000003
20
-42.033118999999999
10
360.84764000000001
20
-42.048359000000005
10
360.84256000000005
20
-42.066139
10
360.84002000000004
20
-42.081378999999998
10
360.83494000000002
20
-42.099159
10
360.82986
20
-42.116939000000002
10
360.8273200000001
20
-42.134719000000004
10
360.82223999999997
20
-42.155039000000009
10
360.81970000000007
20
-42.175359000000007
10
360.81461999999999
20
-42.195679000000005
10
360.81207999999998
20
-42.215999000000004
10
360.80700000000002
20
-42.238859000000005
10
360.80446000000001
20
-42.261718999999999
10
360.80192000000005
20
-42.284579000000008
10
360.79937999999999
20
-42.307439000000002
10
360.79683999999997
20
-42.330298999999997
10
360.79430000000002
20
-42.355699000000008
10
360.79176000000007
20
-42.381099000000006
10
360.79176000000007
20
-42.406499000000004
10
360.78922
20
-42.431899000000001
10
360.78922
20
-42.459839000000002
10
360.78922
20
-42.485239000000007
10
360.78922
20
-42.513179000000001
10
360.78922
20
-42.541119000000009
10
360.79176000000007
20
-42.569059000000003
10
360.79430000000002
20
-42.599539
10
360.79430000000002
20
-42.622399000000001
10
360.79937999999999
20
-42.647798999999999
10
360.80192000000005
20
-42.675739000000007
10
360.80446000000001
20
-42.701139000000012
10
360.80953999999997
20
-42.729078999999999
10
360.81461999999999
20
-42.757019000000007
10
360.81970000000007
20
-42.787499000000004
10
360.82478000000003
20
-42.815439000000012
10
360.83240000000001
20
-42.845919000000009
10
360.84002000000004
20
-42.876399000000006
10
360.85017999999997
20
-42.909419
10
360.8578
20
-42.939898999999997
10
360.86795999999998
20
-42.972919000000005
10
360.88066000000003
20
-43.005938999999998
10
360.89082000000008
20
-43.038959000000006
10
360.90606000000002
20
-43.071978999999999
10
360.91876000000008
20
-43.104998999999999
10
360.93400000000003
20
-43.138019000000007
10
360.94923999999997
20
-43.173579000000004
10
360.96701999999999
20
-43.209139
10
360.98480000000001
20
-43.244698999999997
10
361.00512000000003
20
-43.277719000000005
10
361.02544
20
-43.313279000000009
10
361.04829999999998
20
-43.348839000000005
10
361.07116000000008
20
-43.386938999999998
10
361.09402
20
-43.422499000000002
10
361.11941999999999
20
-43.458059000000013
10
361.14735999999999
20
-43.49361900000001
10
361.17529999999999
20
-43.529179000000006
10
361.20578
20
-43.567278999999999
10
361.23626000000002
20
-43.602839000000003
10
361.26927999999998
20
-43.638399000000007
10
361.27944000000002
20
-43.651099000000002
10
361.28960000000001
20
-43.661259000000001
10
361.30230000000006
20
-43.673959000000011
10
361.31245999999999
20
-43.686659000000006
10
361.32516000000004
20
-43.699359000000008
10
361.34039999999999
20
-43.712059000000004
10
361.35309999999998
20
-43.727299000000002
10
361.36833999999999
20
-43.742539000000001
10
361.38358000000005
20
-43.757778999999999
10
361.39882
20
-43.773018999999998
10
361.41660000000002
20
-43.788259000000011
10
361.43437999999998
20
-43.803499000000002
10
361.45215999999999
20
-43.818739000000008
10
361.47247999999996
20
-43.833978999999999
10
361.49026000000003
20
-43.851759000000001
10
361.51312000000007
20
-43.866999
10
361.53343999999998
20
-43.882238999999998
10
361.55630000000002
20
-43.900019000000007
10
361.57916
20
-43.915259000000006
10
361.60202000000004
20
-43.930499000000005
10
361.62487999999996
20
-43.948278999999999
10
361.65028000000001
20
-43.963518999999998
10
361.67568000000006
20
-43.978759000000011
10
361.70362000000006
20
-43.993999000000002
10
361.73156
20
-44.009239000000008
10
361.7595
20
-44.021939000000003
10
361.78998000000001
20
-44.037178999999995
10
361.81792000000002
20
-44.049879000000004
10
361.84840000000003
20
-44.062578999999999
10
361.88141999999999
20
-44.075278999999995
10
361.91444000000001
20
-44.087978999999997
10
361.94746000000004
20
-44.098139000000003
10
361.97539999999998
20
-44.108299000000002
10
362.00333999999998
20
-44.115919000000005
10
362.02874000000003
20
-44.123539000000001
10
362.05667999999997
20
-44.128619
10
362.08208000000002
20
-44.136239000000003
10
362.11002000000002
20
-44.141319000000003
10
362.13542000000007
20
-44.143858999999999
10
362.16082
20
-44.148938999999999
10
362.18622000000005
20
-44.154018999999998
10
362.21162000000004
20
-44.156559000000001
10
362.23702000000003
20
-44.159098999999998
10
362.26242000000008
20
-44.161639000000001
10
362.28528000000006
20
-44.161639000000001
10
362.31067999999999
20
-44.164178999999997
10
362.33353999999997
20
-44.164178999999997
10
362.35640000000001
20
-44.164178999999997
10
362.37926000000004
20
-44.164178999999997
10
362.40212000000008
20
-44.164178999999997
10
362.42498000000006
20
-44.164178999999997
10
362.44529999999997
20
-44.164178999999997
10
362.46816000000001
20
-44.161639000000001
10
362.48848000000004
20
-44.161639000000001
10
362.50880000000001
20
-44.159098999999998
10
362.52912000000003
20
-44.159098999999998
10
362.54944
20
-44.156559000000001
10
362.56976000000003
20
-44.154018999999998
10
362.59008
20
-44.151479000000002
10
362.60786000000002
20
-44.151479000000002
10
362.62563999999998
20
-44.148938999999999
10
362.64341999999999
20
-44.146399000000002
10
362.66120000000001
20
-44.143858999999999
10
362.67897999999997
20
-44.141319000000003
10
362.69929999999999
20
-44.138779
10
362.71962000000002
20
-44.136239000000003
10
362.73994000000005
20
-44.133699
10
362.76280000000008
20
-44.131159000000004
10
362.78312
20
-44.128619
10
362.80597999999998
20
-44.126079000000004
10
362.82884000000001
20
-44.123539000000001
10
362.85169999999999
20
-44.118459000000001
10
362.87456000000009
20
-44.115919000000005
10
362.89742000000001
20
-44.110839000000006
10
362.92028000000005
20
-44.105759000000006
10
362.94567999999998
20
-44.100679000000007
10
362.96854000000002
20
-44.095599000000007
10
362.99394000000001
20
-44.090519000000008
10
363.01679999999999
20
-44.082898999999998
10
363.04219999999998
20
-44.077818999999998
10
363.06760000000003
20
-44.070199000000009
10
363.09300000000002
20
-44.062578999999999
10
363.11840000000007
20
-44.054959000000011
10
363.1438
20
-44.044798999999998
10
363.16920000000005
20
-44.034638999999999
10
363.19459999999998
20
-44.024478999999999
10
363.22000000000003
20
-44.014319
10
363.24540000000007
20
-44.001618999999998
10
363.27334000000002
20
-43.98891900000001
10
363.29874000000007
20
-43.976219
10
363.32414
20
-43.963518999999998
10
363.34954000000005
20
-43.948278999999999
10
363.37747999999999
20
-43.930499000000005
10
363.40287999999998
20
-43.915259000000006
10
363.42827999999997
20
-43.897478999999997
10
363.45368000000002
20
-43.879699000000009
10
363.46892000000003
20
-43.866999
10
363.48416000000009
20
-43.856839000000001
10
363.49686000000008
20
-43.846678999999995
10
363.50956000000002
20
-43.833978999999999
10
363.52480000000008
20
-43.823819
10
363.53750000000002
20
-43.811118999999998
10
363.55020000000002
20
-43.800959000000006
10
363.56290000000001
20
-43.788259000000011
10
363.57814000000008
20
-43.775559000000001
10
363.59084000000001
20
-43.762859000000006
10
363.60354000000001
20
-43.750159000000004
10
363.61369999999999
20
-43.737459000000001
10
363.62639999999999
20
-43.724759000000006
10
363.63909999999998
20
-43.712059000000004
10
363.65180000000004
20
-43.699359000000008
10
363.66196000000002
20
-43.686659000000006
10
363.67466000000002
20
-43.671419
10
363.68736000000007
20
-43.658719000000005
10
363.69752
20
-43.643478999999999
10
363.70767999999998
20
-43.630778999999997
10
363.72037999999998
20
-43.615538999999998
10
363.73054000000002
20
-43.602839000000003
10
363.74070000000006
20
-43.587598999999997
10
363.75086000000005
20
-43.572359000000006
10
363.76102000000003
20
-43.557119
10
363.77117999999996
20
-43.541878999999994
10
363.78134
20
-43.526639000000003
10
363.79150000000004
20
-43.511398999999997
10
363.80166000000003
20
-43.496159000000006
10
363.80928000000006
20
-43.480919
10
363.81943999999999
20
-43.463138999999998
10
363.82706000000007
20
-43.447899000000007
10
364.32744000000002
20
-43.719679000000006
10
364.31474000000003
20
-43.742539000000001
10
364.30203999999998
20
-43.765399000000002
10
364.28680000000008
20
-43.788259000000011
10
364.27410000000003
20
-43.811118999999998
10
364.26139999999998
20
-43.833978999999999
10
364.24616000000009
20
-43.854298999999997
10
364.23092000000003
20
-43.877159000000006
10
364.21822000000009
20
-43.897478999999997
10
364.20297999999997
20
-43.920339000000006
10
364.18773999999996
20
-43.940659000000004
10
364.17250000000001
20
-43.960979000000002
10
364.15726000000001
20
-43.981299
10
364.13947999999999
20
-44.001618999999998
10
364.12423999999999
20
-44.021939000000003
10
364.10899999999998
20
-44.042259000000001
10
364.09122000000002
20
-44.06003900000001
10
364.07344000000001
20
-44.080359000000009
10
364.0582
20
-44.098139000000003
10
364.04042000000004
20
-44.115919000000005
10
364.02263999999997
20
-44.136239000000003
10
364.00486000000001
20
-44.154018999999998
10
363.98707999999999
20
-44.171799
10
363.96676000000008
20
-44.189578999999995
10
363.94898000000006
20
-44.207359000000004
10
363.93120000000005
20
-44.225138999999999
10
363.91087999999996
20
-44.240379000000004
10
363.89056000000005
20
-44.258158999999999
10
363.87278000000003
20
-44.273398999999998
10
363.85246000000001
20
-44.291179000000007
10
363.83214000000004
20
-44.306419000000005
10
363.81182000000001
20
-44.321659000000004
10
363.79150000000004
20
-44.336899000000003
10
363.7534
20
-44.362299
10
363.71783999999997
20
-44.387698999999998
10
363.67973999999998
20
-44.413099000000003
10
363.64164000000005
20
-44.435959000000011
10
363.60608000000002
20
-44.456278999999995
10
363.56797999999998
20
-44.476599000000007
10
363.53242
20
-44.496919000000005
10
363.49432000000002
20
-44.514699
10
363.45875999999998
20
-44.529938999999999
10
363.42320000000001
20
-44.545178999999997
10
363.38510000000008
20
-44.56041900000001
10
363.34954000000005
20
-44.573118999999998
10
363.31652000000008
20
-44.588359000000004
10
363.28096000000005
20
-44.598519000000003
10
363.24540000000007
20
-44.611219000000006
10
363.21238
20
-44.621379000000005
10
363.17682000000002
20
-44.628999
10
363.1438
20
-44.639158999999999
10
363.11078000000003
20
-44.646778999999995
10
363.08030000000002
20
-44.654398999999998
10
363.04728000000006
20
-44.659478999999997
10
363.01679999999999
20
-44.667099000000007
10
362.98632000000003
20
-44.672179000000007
10
362.95837999999998
20
-44.677259000000006
10
362.92790000000002
20
-44.682339000000006
10
362.89996000000002
20
-44.687419000000006
10
362.87202000000002
20
-44.689959000000002
10
362.84662000000003
20
-44.695039000000001
10
362.8212200000001
20
-44.697579000000005
10
362.79581999999999
20
-44.700119000000001
10
362.77042
20
-44.705199
10
362.74756000000002
20
-44.707739000000004
10
362.73994000000005
20
-44.707739000000004
10
362.72978000000001
20
-44.710279
10
362.71962000000002
20
-44.710279
10
362.70946000000004
20
-44.710279
10
362.70184
20
-44.712819000000003
10
362.69168000000002
20
-44.712819000000003
10
362.68152000000009
20
-44.715358999999999
10
362.67135999999999
20
-44.715358999999999
10
362.66120000000001
20
-44.717899000000003
10
362.64850000000001
20
-44.717899000000003
10
362.63833999999997
20
-44.720438999999999
10
362.62818000000004
20
-44.720438999999999
10
362.61547999999999
20
-44.720438999999999
10
362.60532000000006
20
-44.722979000000002
10
362.59516000000008
20
-44.722979000000002
10
362.58246000000008
20
-44.725518999999998
10
362.56976000000003
20
-44.725518999999998
10
362.55960000000005
20
-44.725518999999998
10
362.54690000000005
20
-44.728059000000002
10
362.5342
20
-44.728059000000002
10
362.5215
20
-44.728059000000002
10
362.51134000000002
20
-44.730598999999998
10
362.49863999999997
20
-44.730598999999998
10
362.48593999999997
20
-44.730598999999998
10
362.47070000000002
20
-44.730598999999998
10
362.45800000000003
20
-44.733139000000001
10
362.44529999999997
20
-44.733139000000001
10
362.43259999999998
20
-44.733139000000001
10
362.41989999999998
20
-44.733139000000001
10
362.40466000000004
20
-44.733139000000001
10
362.39195999999998
20
-44.733139000000001
10
362.37926000000004
20
-44.733139000000001
10
362.36148000000003
20
-44.733139000000001
0
LWPOLYLINE
5
101
100
AcDbEntity
8
0
100
AcDbPolyline
90
362
70
1
43
0.0
10
348.36608000000001
20
-40.333859000000004
10
348.39909999999998
20
-40.359259000000009
10
348.43466000000001
20
-40.387199000000003
10
348.47022000000004
20
-40.42021900000001
10
348.50324000000001
20
-40.450699000000007
10
348.53372000000002
20
-40.481179000000004
10
348.56420000000008
20
-40.514198999999998
10
348.59467999999998
20
-40.547218999999998
10
348.6226200000001
20
-40.580239000000006
10
348.64802000000003
20
-40.613258999999999
10
348.67342000000002
20
-40.648819000000003
10
348.69882000000007
20
-40.681839000000004
10
348.72167999999999
20
-40.717399
10
348.74200000000002
20
-40.752959000000004
10
348.76486
20
-40.788519000000001
10
348.78264000000001
20
-40.824078999999998
10
348.80295999999998
20
-40.862179000000005
10
348.82074
20
-40.897739000000001
10
348.83598000000001
20
-40.933298999999998
10
348.85376000000002
20
-40.971399000000005
10
348.86900000000003
20
-41.009498999999998
10
348.88170000000002
20
-41.045059000000002
10
348.89693999999997
20
-41.083159000000002
10
348.90963999999997
20
-41.121259000000009
10
348.91980000000001
20
-41.159359000000002
10
348.9325
20
-41.197459000000009
10
348.94266000000005
20
-41.235559000000002
10
348.95282000000003
20
-41.273659000000002
10
348.96297999999996
20
-41.311759000000009
10
348.97314
20
-41.349859000000002
10
348.98076000000003
20
-41.387959000000009
10
348.99092000000002
20
-41.426059000000002
10
348.99853999999999
20
-41.466698999999998
10
349.00616000000008
20
-41.504798999999998
10
349.01124000000004
20
-41.525119000000004
10
349.01378
20
-41.547978999999998
10
349.01886000000002
20
-41.570838999999999
10
349.02140000000003
20
-41.591159000000005
10
349.02394000000004
20
-41.614019000000006
10
349.02647999999999
20
-41.636879
10
349.02902000000006
20
-41.659739000000002
10
349.03156000000001
20
-41.682598999999996
10
349.03156000000001
20
-41.707999000000001
10
349.03410000000002
20
-41.730859000000002
10
349.03410000000002
20
-41.753719000000004
10
349.03663999999998
20
-41.779119000000009
10
349.03663999999998
20
-41.801978999999996
10
349.03663999999998
20
-41.827379000000001
10
349.03663999999998
20
-41.852778999999998
10
349.03410000000002
20
-41.875639
10
349.03410000000002
20
-41.901039000000004
10
349.03410000000002
20
-41.926439000000002
10
349.03156000000001
20
-41.951839
10
349.02902000000006
20
-41.977239000000004
10
349.02647999999999
20
-42.005179000000005
10
349.02394000000004
20
-42.030579000000003
10
349.02140000000003
20
-42.055979000000001
10
349.01886000000002
20
-42.081378999999998
10
349.01632000000001
20
-42.109318999999999
10
349.01124000000004
20
-42.134719000000004
10
349.00869999999998
20
-42.162659000000005
10
349.00362000000001
20
-42.190599000000006
10
348.99853999999999
20
-42.218539
10
348.99346000000003
20
-42.243939000000012
10
348.98838000000006
20
-42.271878999999998
10
348.98329999999999
20
-42.299818999999999
10
348.97314
20
-42.34045900000001
10
348.96297999999996
20
-42.381099000000006
10
348.95027999999996
20
-42.421739000000002
10
348.94012000000004
20
-42.459839000000002
10
348.92488000000003
20
-42.497939000000002
10
348.91218000000003
20
-42.533498999999999
10
348.89693999999997
20
-42.569059000000003
10
348.88170000000002
20
-42.604619
10
348.86646000000007
20
-42.640178999999996
10
348.84868000000006
20
-42.673198999999997
10
348.83090000000004
20
-42.706219000000004
10
348.81312000000003
20
-42.736699000000009
10
348.79534000000001
20
-42.767179000000006
10
348.77502000000004
20
-42.797659000000003
10
348.75723999999997
20
-42.828139
10
348.73692
20
-42.856079000000008
10
348.71660000000008
20
-42.884019000000002
10
348.69628
20
-42.91195900000001
10
348.67596000000003
20
-42.937359000000008
10
348.65309999999999
20
-42.962759000000005
10
348.63278000000003
20
-42.988159000000003
10
348.61246
20
-43.011018999999997
10
348.58960000000002
20
-43.036419000000009
10
348.56928000000005
20
-43.056739000000007
10
348.54896000000002
20
-43.079599000000002
10
348.52609999999999
20
-43.099919
10
348.50577999999996
20
-43.120238999999998
10
348.48545999999999
20
-43.140559000000003
10
348.46514000000002
20
-43.158339000000005
10
348.44481999999999
20
-43.176119
10
348.42450000000008
20
-43.193899000000002
10
348.40418
20
-43.209139
10
349.00616000000008
20
-44.390239000000008
10
348.49815999999998
20
-44.646778999999995
10
347.90887999999995
20
-43.485999
10
347.88856000000004
20
-43.49361900000001
10
347.87078000000002
20
-43.498699000000009
10
347.85300000000001
20
-43.506318999999998
10
347.83521999999999
20
-43.511398999999997
10
347.81743999999998
20
-43.516478999999997
10
347.79712000000006
20
-43.521559000000003
10
347.77934000000005
20
-43.526639000000003
10
347.76156000000009
20
-43.529179000000006
10
347.74378000000002
20
-43.534259000000006
10
347.72600000000006
20
-43.539339000000005
10
347.70822000000004
20
-43.541878999999994
10
347.69044000000002
20
-43.546959000000001
10
347.67266000000001
20
-43.549499000000004
10
347.65487999999999
20
-43.552039000000001
10
347.63709999999998
20
-43.557119
10
347.62186000000008
20
-43.559659000000003
10
347.60407999999995
20
-43.562199
10
347.58630000000005
20
-43.564739000000003
10
347.56852000000003
20
-43.567278999999999
10
347.55327999999997
20
-43.567278999999999
10
347.53550000000007
20
-43.569819000000003
10
347.51772000000005
20
-43.572359000000006
10
347.50247999999999
20
-43.572359000000006
10
347.48469999999998
20
-43.574899000000002
10
347.46946000000003
20
-43.574899000000002
10
347.45168000000001
20
-43.577438999999998
10
347.43644000000006
20
-43.577438999999998
10
347.4212
20
-43.577438999999998
10
347.40342000000004
20
-43.579979000000002
10
347.38818000000003
20
-43.579979000000002
10
347.37293999999997
20
-43.579979000000002
10
347.35770000000002
20
-43.579979000000002
10
347.33738000000005
20
-43.579979000000002
10
347.31706000000003
20
-43.579979000000002
10
347.29927999999995
20
-43.577438999999998
10
347.27895999999998
20
-43.577438999999998
10
347.26117999999997
20
-43.577438999999998
10
347.24086
20
-43.574899000000002
10
347.22307999999998
20
-43.574899000000002
10
347.20530000000002
20
-43.572359000000006
10
347.18752000000001
20
-43.572359000000006
10
347.16973999999999
20
-43.569819000000003
10
347.15196000000003
20
-43.567278999999999
10
347.13672000000003
20
-43.564739000000003
10
347.11894000000001
20
-43.564739000000003
10
347.10370000000006
20
-43.562199
10
347.08592000000004
20
-43.559659000000003
10
347.07067999999998
20
-43.557119
10
347.05543999999998
20
-43.554579000000004
10
347.04020000000008
20
-43.552039000000001
10
347.02750000000003
20
-43.549499000000004
10
347.01226000000008
20
-43.546959000000001
10
346.99702000000002
20
-43.541878999999994
10
346.98432000000003
20
-43.539339000000005
10
346.97162000000003
20
-43.536799000000002
10
346.95892000000009
20
-43.534259000000006
10
346.94622000000004
20
-43.531719000000002
10
346.93352000000004
20
-43.529179000000006
10
346.92336000000006
20
-43.526639000000003
10
346.91320000000007
20
-43.524099000000007
10
346.90050000000008
20
-43.519019000000007
10
346.89033999999998
20
-43.516478999999997
10
346.88018
20
-43.513939000000008
10
346.87256000000002
20
-43.511398999999997
10
347.03003999999999
20
-42.965299000000002
10
347.04273999999998
20
-42.967839000000005
10
347.05543999999998
20
-42.972919000000005
10
347.06814000000003
20
-42.975459000000001
10
347.08337999999998
20
-42.980539
10
347.10115999999999
20
-42.983079000000004
10
347.11894000000001
20
-42.988159000000003
10
347.13926000000009
20
-42.990698999999999
10
347.15958000000001
20
-42.993239000000003
10
347.18243999999999
20
-42.998319000000002
10
347.20530000000002
20
-43.000859000000005
10
347.22816
20
-43.003399000000002
10
347.25355999999999
20
-43.005938999999998
10
347.27895999999998
20
-43.008479000000001
10
347.30690000000004
20
-43.008479000000001
10
347.33483999999999
20
-43.011018999999997
10
347.36277999999999
20
-43.011018999999997
10
347.39326
20
-43.008479000000001
10
347.42374000000007
20
-43.008479000000001
10
347.45422000000008
20
-43.005938999999998
10
347.48724000000004
20
-43.003399000000002
10
347.52026000000001
20
-42.998319000000002
10
347.55327999999997
20
-42.993239000000003
10
347.58630000000005
20
-42.988159000000003
10
347.61932000000002
20
-42.980539
10
347.65233999999998
20
-42.970379000000001
10
347.68790000000001
20
-42.960219000000002
10
347.72345999999999
20
-42.950059000000003
10
347.75902000000002
20
-42.937359000000008
10
347.79203999999999
20
-42.922119000000009
10
347.82760000000002
20
-42.906879000000004
10
347.86315999999999
20
-42.889099000000002
10
347.89872000000003
20
-42.871319
10
347.90379999999999
20
-42.868778999999996
10
347.91142000000002
20
-42.863698999999997
10
347.92158000000001
20
-42.858618999999997
10
347.93173999999999
20
-42.850999000000002
10
347.94443999999999
20
-42.843378999999999
10
347.95713999999998
20
-42.83575900000001
10
347.97237999999999
20
-42.825598999999997
10
347.98762000000005
20
-42.812899000000002
10
348.00540000000007
20
-42.800198999999999
10
348.02318000000002
20
-42.787499000000004
10
348.04096000000004
20
-42.772259000000005
10
348.06127999999995
20
-42.754478999999996
10
348.08159999999998
20
-42.739239000000005
10
348.10192000000001
20
-42.718919
10
348.12477999999999
20
-42.698599000000002
10
348.14510000000007
20
-42.678278999999996
10
348.16796000000005
20
-42.655419000000009
10
348.18827999999996
20
-42.632559000000001
10
348.21114
20
-42.609698999999999
10
348.23146000000003
20
-42.584299000000001
10
348.25178
20
-42.556359000000008
10
348.27210000000002
20
-42.528419
10
348.29241999999999
20
-42.497939000000002
10
348.31274000000002
20
-42.467459000000005
10
348.33052000000004
20
-42.436979000000001
10
348.34830000000005
20
-42.403959
10
348.36354
20
-42.370939000000007
10
348.37878000000001
20
-42.335379000000003
10
348.39402000000001
20
-42.299818999999999
10
348.40418
20
-42.261718999999999
10
348.41687999999999
20
-42.223618999999999
10
348.42450000000008
20
-42.182978999999996
10
348.42958000000004
20
-42.162659000000005
10
348.43466000000001
20
-42.142339
10
348.43720000000008
20
-42.122019000000002
10
348.44227999999998
20
-42.101698999999996
10
348.44481999999999
20
-42.081378999999998
10
348.44736000000006
20
-42.061059
10
348.44990000000001
20
-42.043278999999998
10
348.45244000000002
20
-42.022959
10
348.45497999999998
20
-42.002639000000002
10
348.45752000000005
20
-41.984859000000007
10
348.46006
20
-41.964539000000009
10
348.46260000000001
20
-41.946759
10
348.46260000000001
20
-41.928978999999998
10
348.46514000000002
20
-41.911198999999996
10
348.46514000000002
20
-41.893419000000009
10
348.46767999999997
20
-41.875639
10
348.46767999999997
20
-41.857859000000005
10
348.46767999999997
20
-41.840079000000003
10
348.46767999999997
20
-41.822299000000001
10
348.46767999999997
20
-41.804519000000006
10
348.46767999999997
20
-41.789279000000008
10
348.46767999999997
20
-41.771498999999999
10
348.46514000000002
20
-41.756259
10
348.46514000000002
20
-41.738478999999998
10
348.46514000000002
20
-41.723239000000007
10
348.46260000000001
20
-41.707999000000001
10
348.46006
20
-41.690218999999999
10
348.46006
20
-41.674979
10
348.45752000000005
20
-41.659739000000002
10
348.45497999999998
20
-41.644499000000003
10
348.45244000000002
20
-41.631799000000001
10
348.44990000000001
20
-41.616559000000002
10
348.44227999999998
20
-41.583539000000009
10
348.43466000000001
20
-41.550519000000001
10
348.42958000000004
20
-41.520039000000004
10
348.42196000000001
20
-41.489559
10
348.41433999999998
20
-41.459079000000003
10
348.40672000000006
20
-41.428599000000006
10
348.39909999999998
20
-41.398119000000008
10
348.38894000000005
20
-41.367639000000011
10
348.38132000000002
20
-41.339698999999996
10
348.37116000000003
20
-41.311759000000009
10
348.36354
20
-41.283819000000001
10
348.35338000000002
20
-41.255879
10
348.34322000000009
20
-41.227939000000006
10
348.33305999999999
20
-41.202539000000009
10
348.32036000000005
20
-41.174599000000001
10
348.31020000000001
20
-41.149198999999996
10
348.29750000000001
20
-41.123798999999998
10
348.28480000000008
20
-41.100939000000011
10
348.27210000000002
20
-41.075538999999999
10
348.25686000000007
20
-41.052679000000005
10
348.24416000000008
20
-41.027279000000007
10
348.22892000000002
20
-41.004418999999999
10
348.21368000000001
20
-40.984099000000001
10
348.19844000000001
20
-40.961239000000006
10
348.18065999999999
20
-40.938378999999998
10
348.16287999999997
20
-40.918059
10
348.14510000000007
20
-40.897739000000001
10
348.12477999999999
20
-40.877419000000003
10
348.10700000000003
20
-40.857099000000005
10
348.08668000000006
20
-40.839319000000003
10
348.06382000000008
20
-40.818998999999998
10
348.04349999999999
20
-40.80121900000001
10
348.03334000000001
20
-40.796139000000011
10
348.02572000000004
20
-40.788519000000001
10
348.01555999999999
20
-40.780899000000005
10
348.00540000000007
20
-40.775818999999998
10
347.99270000000001
20
-40.768198999999996
10
347.98253999999997
20
-40.763119000000003
10
347.96984000000003
20
-40.758039000000004
10
347.95460000000003
20
-40.750419000000008
10
347.93936000000002
20
-40.745339000000001
10
347.92412000000007
20
-40.740259000000009
10
347.90887999999995
20
-40.735178999999995
10
347.89109999999999
20
-40.730098999999996
10
347.87078000000002
20
-40.725019000000003
10
347.85300000000001
20
-40.722479
10
347.83267999999998
20
-40.717399
10
347.80982
20
-40.714859000000004
10
347.78696000000002
20
-40.712319000000001
10
347.76409999999998
20
-40.709778999999997
10
347.73869999999999
20
-40.707239000000001
10
347.7133
20
-40.707239000000001
10
347.68536000000006
20
-40.707239000000001
10
347.65487999999999
20
-40.707239000000001
10
347.62694000000005
20
-40.707239000000001
10
347.59392000000003
20
-40.709778999999997
10
347.56344000000007
20
-40.712319000000001
10
347.52788000000004
20
-40.714859000000004
10
347.49232000000001
20
-40.719939000000011
10
347.45676000000003
20
-40.725019000000003
10
347.41866000000005
20
-40.732638999999999
10
347.38056
20
-40.737718999999998
10
347.33738000000005
20
-40.747878999999998
10
347.29674
20
-40.755499
10
347.29674
20
-42.091539000000004
10
346.72778
20
-42.091539000000004
10
346.72778
20
-40.331319000000001
10
346.72778
20
-40.328778999999997
10
346.73793999999998
20
-40.326239000000001
10
346.76841999999999
20
-40.316079000000002
10
346.83699999999999
20
-40.293219000000001
10
346.90303999999998
20
-40.272899000000002
10
346.97162000000003
20
-40.252578999999997
10
347.03512000000001
20
-40.23479900000001
10
347.10115999999999
20
-40.217019000000001
10
347.16212000000007
20
-40.204318999999998
10
347.22562000000005
20
-40.189079000000007
10
347.28657999999996
20
-40.178919000000008
10
347.34500000000003
20
-40.168759000000009
10
347.40342000000004
20
-40.158599000000009
10
347.46184
20
-40.153519000000003
10
347.51772000000005
20
-40.145899
10
347.5736
20
-40.143359000000004
10
347.62694000000005
20
-40.140819
10
347.68028000000004
20
-40.138278999999997
10
347.73108000000002
20
-40.140819
10
347.78188
20
-40.143359000000004
10
347.83014000000003
20
-40.145899
10
347.87840000000006
20
-40.150979
10
347.92666000000003
20
-40.158599000000009
10
347.97237999999999
20
-40.166218999999998
10
348.0181
20
-40.176378999999997
10
348.06127999999995
20
-40.186539000000003
10
348.10192000000001
20
-40.199239000000006
10
348.14510000000007
20
-40.214478999999997
10
348.1832
20
-40.22971900000001
10
348.22384
20
-40.247498999999998
10
348.25940000000003
20
-40.267819000000003
10
348.29750000000001
20
-40.288139000000001
10
348.33305999999999
20
-40.308458999999999
0
LWPOLYLINE
5
102
100
AcDbEntity
8
0
100
AcDbPolyline
90
381
70
1
43
0.0
10
370.95176000000004
20
-40.437998999999998
10
370.97462000000002
20
-40.453239000000004
10
370.99493999999999
20
-40.465939000000006
10
371.01780000000008
20
-40.481179000000004
10
371.04066
20
-40.498958999999999
10
371.0635200000001
20
-40.514198999999998
10
371.08637999999996
20
-40.531979
10
371.10924000000006
20
-40.549759000000009
10
371.13210000000004
20
-40.567539000000004
10
371.15750000000003
20
-40.585318999999998
10
371.18036000000006
20
-40.605639000000011
10
371.2032200000001
20
-40.625959000000009
10
371.22862000000003
20
-40.646279000000007
10
371.25147999999996
20
-40.669139000000001
10
371.27688000000001
20
-40.691999000000003
10
371.30228
20
-40.714859000000004
10
371.30990000000003
20
-40.722479
10
371.31752
20
-40.730098999999996
10
371.32767999999999
20
-40.740259000000009
10
371.33783999999997
20
-40.750419000000008
10
371.34800000000007
20
-40.760579000000007
10
371.35816
20
-40.770739000000006
10
371.37086000000005
20
-40.780899000000005
10
371.38355999999999
20
-40.793599
10
371.39372000000003
20
-40.806298999999996
10
371.40642000000008
20
-40.818998999999998
10
371.41912000000002
20
-40.831699000000008
10
371.43182000000002
20
-40.846939000000006
10
371.44452000000001
20
-40.862179000000005
10
371.45976000000007
20
-40.877419000000003
10
371.47246000000001
20
-40.892659000000002
10
371.48770000000007
20
-40.910439000000011
10
371.50040000000001
20
-40.925678999999995
10
371.51564000000002
20
-40.943459000000004
10
371.52834000000007
20
-40.961239000000006
10
371.54357999999996
20
-40.981559000000011
10
371.55882000000008
20
-40.999338999999999
10
371.57152000000002
20
-41.019659000000004
10
371.58676000000008
20
-41.039978999999995
10
371.60199999999998
20
-41.060299000000001
10
371.61470000000003
20
-41.083159000000002
10
371.62993999999998
20
-41.103479
10
371.64517999999998
20
-41.126339000000002
10
371.65787999999998
20
-41.151739000000006
10
371.67312000000004
20
-41.174599000000001
10
371.68582000000009
20
-41.199998999999998
10
371.70105999999998
20
-41.225398999999996
10
371.71376000000004
20
-41.250799000000001
10
371.72899999999998
20
-41.281278999999998
10
371.74423999999999
20
-41.309218999999999
10
371.75693999999999
20
-41.337159
10
371.76963999999998
20
-41.367639000000011
10
371.78233999999998
20
-41.395578999999998
10
371.79504000000003
20
-41.420978999999996
10
371.80520000000001
20
-41.448919000000004
10
371.81790000000001
20
-41.474319000000001
10
371.82805999999999
20
-41.502259000000009
10
371.83568000000002
20
-41.527659
10
371.84584000000001
20
-41.553059000000012
10
371.85346000000004
20
-41.575918999999999
10
371.86107999999996
20
-41.601319000000004
10
371.86869999999999
20
-41.626719000000001
10
371.87632000000002
20
-41.649579000000003
10
371.88394000000005
20
-41.672439000000011
10
371.88902000000007
20
-41.697839000000002
10
371.89410000000004
20
-41.720698999999996
10
371.90172000000007
20
-41.743559000000012
10
371.90679999999998
20
-41.766418999999999
10
371.90933999999999
20
-41.786739000000004
10
371.91442000000001
20
-41.809599000000006
10
371.91950000000008
20
-41.832459
10
371.92203999999998
20
-41.855319000000001
10
371.92457999999999
20
-41.878178999999996
10
371.92712
20
-41.898499000000001
10
371.93220000000002
20
-41.921359000000002
10
371.93474000000003
20
-41.941679000000001
10
371.93474000000003
20
-41.964539000000009
10
371.93727999999999
20
-41.987398999999996
10
371.93982
20
-42.007719000000002
10
371.94236000000001
20
-42.030579000000003
10
371.94236000000001
20
-42.048359000000005
10
371.94490000000002
20
-42.063598999999996
10
371.94490000000002
20
-42.081378999999998
10
371.94744000000003
20
-42.099159
10
371.94744000000003
20
-42.122019000000002
10
371.94997999999998
20
-42.144879000000003
10
371.94997999999998
20
-42.167739000000005
10
371.95252000000005
20
-42.193139000000002
10
371.95252000000005
20
-42.221079000000003
10
371.95506
20
-42.249018999999997
10
371.95506
20
-42.279499000000001
10
371.95506
20
-42.312519000000002
10
371.95506
20
-42.345539000000009
10
371.95506
20
-42.381099000000006
10
371.95506
20
-42.416659000000003
10
371.95252000000005
20
-42.45475900000001
10
371.95252000000005
20
-42.495399000000006
10
371.94997999999998
20
-42.533498999999999
10
371.94744000000003
20
-42.576679000000006
10
371.94490000000002
20
-42.619859000000005
10
371.94236000000001
20
-42.663039000000005
10
371.93727999999999
20
-42.708759000000001
10
371.93220000000002
20
-42.754478999999996
10
371.92712
20
-42.802739000000003
10
371.91950000000008
20
-42.850999000000002
10
371.91188000000005
20
-42.899259000000001
10
371.90426000000002
20
-42.950059000000003
10
371.89663999999999
20
-43.000859000000005
10
371.88648000000001
20
-43.054198999999997
10
371.87632000000002
20
-43.10753900000001
10
371.86362000000003
20
-43.160879000000001
10
371.85092000000003
20
-43.21675900000001
10
371.83568000000002
20
-43.270099000000002
10
371.8255200000001
20
-43.308199000000009
10
371.81536
20
-43.341219000000002
10
371.80520000000001
20
-43.376778999999999
10
371.79250000000002
20
-43.409799
10
371.77980000000002
20
-43.440278999999997
10
371.76710000000008
20
-43.473298999999997
10
371.75440000000003
20
-43.503778999999994
10
371.74169999999998
20
-43.534259000000006
10
371.72646000000009
20
-43.562199
10
371.71122000000003
20
-43.590139000000001
10
371.69598000000002
20
-43.618078999999994
10
371.68074000000001
20
-43.646019000000003
10
371.66550000000001
20
-43.671419
10
371.64771999999999
20
-43.696818999999998
10
371.63248000000004
20
-43.722219000000003
10
371.61470000000003
20
-43.745079000000004
10
371.59692000000001
20
-43.770479000000002
10
371.58168000000001
20
-43.793339000000003
10
371.56389999999999
20
-43.816198999999997
10
371.54612000000009
20
-43.836519000000003
10
371.52834000000007
20
-43.859379000000004
10
371.51056000000005
20
-43.879699000000009
10
371.49278000000004
20
-43.900019000000007
10
371.47500000000002
20
-43.920339000000006
10
371.45722000000001
20
-43.940659000000004
10
371.43943999999999
20
-43.958438999999998
10
371.42166000000003
20
-43.978759000000011
10
371.40387999999996
20
-43.996538999999999
10
371.3861
20
-44.014319
10
371.36832000000004
20
-44.032099000000002
10
371.35308000000003
20
-44.049879000000004
10
371.33530000000002
20
-44.067658999999999
10
371.30228
20
-44.098139000000003
10
371.27180000000004
20
-44.128619
10
371.23877999999996
20
-44.159098999999998
10
371.20576
20
-44.187038999999999
10
371.17020000000002
20
-44.212439000000003
10
371.13718
20
-44.237839000000001
10
371.10416000000009
20
-44.26069900000001
10
371.07114000000001
20
-44.283559000000004
10
371.03557999999998
20
-44.303878999999995
10
371.00256000000002
20
-44.324199
10
370.96954000000005
20
-44.341979000000002
10
370.93398000000002
20
-44.359759000000011
10
370.90096000000005
20
-44.377538999999999
10
370.86793999999998
20
-44.392778999999997
10
370.83492000000001
20
-44.408019000000003
10
370.80190000000005
20
-44.420719000000005
10
370.76887999999997
20
-44.433419000000001
10
370.73840000000007
20
-44.44611900000001
10
370.70792000000006
20
-44.456278999999995
10
370.67743999999999
20
-44.466439000000008
10
370.64696000000004
20
-44.476599000000007
10
370.61647999999997
20
-44.486759000000006
10
370.58853999999997
20
-44.494378999999995
10
370.56060000000002
20
-44.501999000000005
10
370.53266000000002
20
-44.509619000000001
10
370.50726000000003
20
-44.514699
10
370.48185999999998
20
-44.522319000000003
10
370.45900000000006
20
-44.527399000000003
10
370.43613999999997
20
-44.532479000000002
10
370.41327999999999
20
-44.537559000000002
10
370.39296000000002
20
-44.540098999999998
10
370.37263999999999
20
-44.545178999999997
10
370.36502000000007
20
-44.547719000000001
10
370.35739999999998
20
-44.547719000000001
10
370.34978000000001
20
-44.550259000000011
10
370.34216000000009
20
-44.550259000000011
10
370.33707999999996
20
-44.552799
10
370.32946000000004
20
-44.552799
10
370.32184000000001
20
-44.555339000000004
10
370.31422000000009
20
-44.555339000000004
10
370.30660000000006
20
-44.557879
10
370.29897999999997
20
-44.557879
10
370.29136
20
-44.557879
10
370.28373999999997
20
-44.56041900000001
10
370.27357999999998
20
-44.56041900000001
10
370.26596000000006
20
-44.56041900000001
10
370.25833999999998
20
-44.562958999999999
10
370.25072
20
-44.562958999999999
10
370.24310000000008
20
-44.562958999999999
10
370.23548
20
-44.562958999999999
10
370.22786000000002
20
-44.565498999999996
10
370.22023999999999
20
-44.565498999999996
10
370.21008
20
-44.565498999999996
10
370.20246000000009
20
-44.565498999999996
10
370.19484
20
-44.565498999999996
10
370.18722000000002
20
-44.568038999999999
10
370.17705999999998
20
-44.568038999999999
10
370.16944000000001
20
-44.568038999999999
10
370.16182000000009
20
-44.568038999999999
10
370.1542
20
-44.568038999999999
10
370.14404000000007
20
-44.568038999999999
10
370.13642000000004
20
-44.568038999999999
10
370.12880000000001
20
-44.568038999999999
10
370.11863999999997
20
-44.568038999999999
10
370.09832000000006
20
-44.568038999999999
10
370.07799999999997
20
-44.568038999999999
10
370.05513999999999
20
-44.568038999999999
10
370.03482000000008
20
-44.565498999999996
10
370.01195999999999
20
-44.565498999999996
10
369.98910000000001
20
-44.562958999999999
10
369.96878000000004
20
-44.562958999999999
10
369.94592000000006
20
-44.56041900000001
10
369.92306000000008
20
-44.56041900000001
10
369.90020000000004
20
-44.557879
10
369.87734
20
-44.555339000000004
10
369.85447999999997
20
-44.552799
10
369.83162000000004
20
-44.550259000000011
10
369.80876000000001
20
-44.547719000000001
10
369.78590000000003
20
-44.545178999999997
10
369.76303999999999
20
-44.542639000000001
10
369.74018000000001
20
-44.540098999999998
10
369.71732000000003
20
-44.535018999999998
10
369.69445999999999
20
-44.532479000000002
10
369.67160000000001
20
-44.529938999999999
10
369.64874000000003
20
-44.524858999999999
10
369.62588000000005
20
-44.522319000000003
10
369.60556000000003
20
-44.519779
10
369.58269999999999
20
-44.514699
10
369.55984000000001
20
-44.512159000000004
10
369.53697999999997
20
-44.507079000000004
10
369.51411999999999
20
-44.504539000000001
10
369.49126000000001
20
-44.499459000000002
10
369.46840000000003
20
-44.496919000000005
10
369.44554000000005
20
-44.491839000000006
10
369.42522000000002
20
-44.489299000000003
10
369.40235999999999
20
-44.484219000000003
10
369.39727999999997
20
-44.484219000000003
10
369.39474000000007
20
-44.481679000000007
10
369.38965999999999
20
-44.481679000000007
10
369.38712000000004
20
-44.481679000000007
10
369.38204000000007
20
-44.481679000000007
10
369.37696000000005
20
-44.479139000000004
10
369.37442000000004
20
-44.479139000000004
10
369.36934000000002
20
-44.479139000000004
10
369.36680000000001
20
-44.476599000000007
10
369.36171999999999
20
-44.476599000000007
10
369.35918000000004
20
-44.476599000000007
10
369.35663999999997
20
-44.476599000000007
10
369.35156000000001
20
-44.474059000000004
10
369.34902
20
-44.474059000000004
10
369.34393999999998
20
-44.474059000000004
10
369.34140000000008
20
-44.474059000000004
10
369.33886000000001
20
-44.471519000000008
10
369.33377999999999
20
-44.471519000000008
10
369.33123999999998
20
-44.471519000000008
10
369.32870000000003
20
-44.471519000000008
10
369.32616000000002
20
-44.468978999999997
10
369.32107999999999
20
-44.468978999999997
10
369.31853999999998
20
-44.468978999999997
10
369.31599999999997
20
-44.468978999999997
10
369.31346000000008
20
-44.468978999999997
10
369.31092000000001
20
-44.466439000000008
10
369.30838
20
-44.466439000000008
10
369.30584000000005
20
-44.466439000000008
10
369.30329999999998
20
-44.466439000000008
10
369.30076000000008
20
-44.466439000000008
10
369.29822000000001
20
-44.466439000000008
10
369.29568000000006
20
-44.463898999999998
10
369.29568000000006
20
-44.456278999999995
10
369.29313999999999
20
-44.448658999999999
10
369.29313999999999
20
-40.371959000000004
10
369.29313999999999
20
-40.166218999999998
10
369.29568000000006
20
-40.166218999999998
10
369.29822000000001
20
-40.166218999999998
10
369.30076000000008
20
-40.166218999999998
10
369.30329999999998
20
-40.166218999999998
10
369.30584000000005
20
-40.163678999999995
10
369.30838
20
-40.163678999999995
10
369.31092000000001
20
-40.163678999999995
10
369.31346000000008
20
-40.163678999999995
10
369.31599999999997
20
-40.163678999999995
10
369.31853999999998
20
-40.163678999999995
10
369.32107999999999
20
-40.163678999999995
10
369.32362000000006
20
-40.163678999999995
10
369.32616000000002
20
-40.161138999999999
10
369.32870000000003
20
-40.161138999999999
10
369.33123999999998
20
-40.161138999999999
10
369.33377999999999
20
-40.161138999999999
10
369.33632
20
-40.161138999999999
10
369.33886000000001
20
-40.161138999999999
10
369.34140000000008
20
-40.161138999999999
10
369.34393999999998
20
-40.158599000000009
10
369.34902
20
-40.158599000000009
10
369.35156000000001
20
-40.158599000000009
10
369.35410000000002
20
-40.158599000000009
10
369.35663999999997
20
-40.158599000000009
10
369.38712000000004
20
-40.156058999999999
10
369.41505999999998
20
-40.153519000000003
10
369.44299999999998
20
-40.14843900000001
10
369.46840000000003
20
-40.145899
10
369.49633999999998
20
-40.143359000000004
10
369.52174000000002
20
-40.140819
10
369.54714000000001
20
-40.138278999999997
10
369.57254
20
-40.138278999999997
10
369.59793999999999
20
-40.135739000000001
10
369.62080000000003
20
-40.133198999999998
10
369.64366000000007
20
-40.130659000000001
10
369.66652000000005
20
-40.128118999999998
10
369.68938000000003
20
-40.128118999999998
10
369.7097
20
-40.125579000000002
10
369.73002000000002
20
-40.123038999999999
10
369.75033999999999
20
-40.123038999999999
10
369.77066000000002
20
-40.120499000000002
10
369.79097999999999
20
-40.120499000000002
10
369.80876000000001
20
-40.117958999999999
10
369.82653999999997
20
-40.117958999999999
10
369.84432000000004
20
-40.117958999999999
10
369.85955999999999
20
-40.115419000000003
10
369.87734
20
-40.115419000000003
10
369.89258000000001
20
-40.115419000000003
10
369.90782000000002
20
-40.115419000000003
10
369.92306000000008
20
-40.115419000000003
10
369.93576000000007
20
-40.115419000000003
10
369.94846000000001
20
-40.115419000000003
10
369.96116000000001
20
-40.115419000000003
10
369.97386
20
-40.115419000000003
10
369.98656000000005
20
-40.117958999999999
10
369.99672000000004
20
-40.117958999999999
10
370.02465999999998
20
-40.120499000000002
10
370.05259999999998
20
-40.123038999999999
10
370.08054000000004
20
-40.128118999999998
10
370.10848000000004
20
-40.130659000000001
10
370.13642000000004
20
-40.135739000000001
10
370.16182000000009
20
-40.138278999999997
10
370.18722000000002
20
-40.143359000000004
10
370.21262000000002
20
-40.14843900000001
10
370.23802000000001
20
-40.153519000000003
10
370.26342
20
-40.158599000000009
10
370.28627999999998
20
-40.163678999999995
10
370.31168000000002
20
-40.168759000000009
10
370.33454
20
-40.173839000000001
10
370.35739999999998
20
-40.178919000000008
10
370.37772000000007
20
-40.183999
10
370.40057999999999
20
-40.191619000000003
10
370.42090000000002
20
-40.196699000000002
10
370.4412200000001
20
-40.201778999999995
10
370.45900000000006
20
-40.209399000000005
10
370.47932000000003
20
-40.214478999999997
10
370.49709999999999
20
-40.219559000000011
10
370.51488000000001
20
-40.227179
10
370.53266000000002
20
-40.232258999999999
10
370.54790000000003
20
-40.237338999999999
10
370.56567999999999
20
-40.242418999999998
10
370.58091999999999
20
-40.250039000000008
10
370.5936200000001
20
-40.255119000000008
10
370.60886000000005
20
-40.260199000000007
10
370.62156000000004
20
-40.265279000000007
10
370.63425999999998
20
-40.270359000000006
10
370.64442000000008
20
-40.275439000000006
10
370.65712000000008
20
-40.280519000000005
10
370.66982000000002
20
-40.285599000000005
10
370.68252000000001
20
-40.290679000000004
10
370.69522000000001
20
-40.298299
10
370.71046000000001
20
-40.303379
10
370.72570000000007
20
-40.310999000000002
10
370.74093999999997
20
-40.318618999999998
10
370.75872000000004
20
-40.326239000000001
10
370.7765
20
-40.336399
10
370.79428000000001
20
-40.346558999999999
10
370.81206000000003
20
-40.354178999999995
10
370.82984000000005
20
-40.364339000000001
10
370.85016000000002
20
-40.377039000000003
10
370.86793999999998
20
-40.387199000000003
10
370.88826000000006
20
-40.399899000000005
10
370.90857999999997
20
-40.412599
10
370.93144000000001
20
-40.42529900000001
0
LWPOLYLINE
5
103
100
AcDbEntity
8
0
100
AcDbPolyline
90
4
70
1
43
0.0
10
104.93248000000001
20
-108.90877900000001
10
118.90248000000001
20
-108.90877900000001
10
118.90248000000001
20
-94.938778999999997
10
104.93248000000001
20
-94.938778999999997
0
LWPOLYLINE
5
104
100
AcDbEntity
8
0
100
AcDbPolyline
90
4
70
1
43
0.0
10
266.85748000000001
20
-127.95877900000001
10
280.82747999999998
20
-127.95877900000001
10
280.82747999999998
20
-113.98877900000002
10
266.85748000000001
20
-113.98877900000002
0
LWPOLYLINE
5
105
100
AcDbEntity
8
0
100
AcDbPolyline
90
4
70
1
43
0.0
10
247.80748
20
-94.938778999999997
10
247.80748
20
-108.90877900000001
10
261.77747999999997
20
-108.90877900000001
10
261.77747999999997
20
-94.938778999999997
0
LWPOLYLINE
5
106
100
AcDbEntity
8
0
100
AcDbPolyline
90
4
70
1
43
0.0
10
123.98248000000002
20
-108.90877900000001
10
137.95248000000001
20
-108.90877900000001
10
137.95248000000001
20
-94.938778999999997
10
123.98248000000002
20
-94.938778999999997
0
LWPOLYLINE
5
107
100
AcDbEntity
8
0
100
AcDbPolyline
90
4
70
1
43
0.0
10
162.08248
20
-108.90877900000001
10
176.05248
20
-108.90877900000001
10
176.05248
20
-94.938778999999997
10
162.08248
20
-94.938778999999997
0
LWPOLYLINE
5
108
100
AcDbEntity
8
0
100
AcDbPolyline
90
4
70
1
43
0.0
10
143.03247999999999
20
-108.90877900000001
10
157.00247999999999
20
-108.90877900000001
10
157.00247999999999
20
-94.938778999999997
10
143.03247999999999
20
-94.938778999999997
0
LWPOLYLINE
5
109
100
AcDbEntity
8
0
100
AcDbPolyline
90
4
70
1
43
0.0
10
304.95747999999998
20
-113.98877900000002
10
304.95747999999998
20
-127.95877900000001
10
318.92748
20
-127.95877900000001
10
318.92748
20
-113.98877900000002
0
LWPOLYLINE
5
110
100
AcDbEntity
8
0
100
AcDbPolyline
90
4
70
1
43
0.0
10
299.87747999999999
20
-127.95877900000001
10
299.87747999999999
20
-113.98877900000002
10
285.90747999999996
20
-113.98877900000002
10
285.90747999999996
20
-127.95877900000001
0
LWPOLYLINE
5
111
100
AcDbEntity
8
0
100
AcDbPolyline
90
4
70
1
43
0.0
10
366.55248
20
-127.95877900000001
10
366.55248
20
-113.98877900000002
10
352.58248000000003
20
-113.98877900000002
10
352.58248000000003
20
-127.95877900000001
0
LWPOLYLINE
5
112
100
AcDbEntity
8
0
100
AcDbPolyline
90
4
70
1
43
0.0
10
318.92748
20
-108.90877900000001
10
318.92748
20
-94.938778999999997
10
304.95747999999998
20
-94.938778999999997
10
304.95747999999998
20
-108.90877900000001
0
LWPOLYLINE
5
113
100
AcDbEntity
8
0
100
AcDbPolyline
90
4
70
1
43
0.0
10
28.732480000000002
20
-108.90877900000001
10
42.702480000000008
20
-108.90877900000001
10
42.702480000000008
20
-94.938778999999997
10
28.732480000000002
20
-94.938778999999997
0
LWPOLYLINE
5
114
100
AcDbEntity
8
0
100
AcDbPolyline
90
4
70
1
43
0.0
10
73.659999999999997
20
-108.90877900000001
10
73.659999999999997
20
-94.938778999999997
10
59.690000000000005
20
-94.938778999999997
10
59.690000000000005
20
-108.90877900000001
0
LWPOLYLINE
5
115
100
AcDbEntity
8
0
100
AcDbPolyline
90
4
70
1
43
0.0
10
299.87747999999999
20
-108.90877900000001
10
299.87747999999999
20
-94.938778999999997
10
285.90747999999996
20
-94.938778999999997
10
285.90747999999996
20
-108.90877900000001
0
LWPOLYLINE
5
116
100
AcDbEntity
8
0
100
AcDbPolyline
90
4
70
1
43
0.0
10
85.882480000000001
20
-108.90877900000001
10
99.85248
20
-108.90877900000001
10
99.85248
20
-94.938778999999997
10
85.882480000000001
20
-94.938778999999997
0
LWPOLYLINE
5
117
100
AcDbEntity
8
0
100
AcDbPolyline
90
4
70
1
43
0.0
10
266.85748000000001
20
-94.938778999999997
10
266.85748000000001
20
-108.90877900000001
10
280.82747999999998
20
-108.90877900000001
10
280.82747999999998
20
-94.938778999999997
0
LWPOLYLINE
5
118
100
AcDbEntity
8
0
100
AcDbPolyline
90
4
70
1
43
0.0
10
242.72748000000001
20
-94.938778999999997
10
228.75748000000002
20
-94.938778999999997
10
228.75748000000002
20
-108.90877900000001
10
242.72748000000001
20
-108.90877900000001
0
LWPOLYLINE
5
119
100
AcDbEntity
8
0
100
AcDbPolyline
90
4
70
1
43
0.0
10
247.80748
20
-113.98877900000002
10
247.80748
20
-127.95877900000001
10
261.77747999999997
20
-127.95877900000001
10
261.77747999999997
20
-113.98877900000002
0
SPLINE
5
120
100
AcDbEntity
8
0
100
AcDbSpline
70
0
71
3
72
8
73
4
74
0
42
0.000000001
43
0.0000000001
44
0.0000000001
40
0
40
0
40
0
40
0
40
1
40
1
40
1
40
1
10
58.232116000000005
20
-39.086832000000001
30
0
10
59.326012000000006
20
-38.455271000000003
30
0
10
60.673747999999996
20
-38.455271000000003
30
0
10
61.767643999999997
20
-39.086832000000001
30
0
0
SPLINE
5
121
100
AcDbEntity
8
0
100
AcDbSpline
70
0
71
3
72
8
73
4
74
0
42
0.000000001
43
0.0000000001
44
0.0000000001
40
0
40
0
40
0
40
0
40
1
40
1
40
1
40
1
10
378.23147599999999
20
-45.210546000000001
30
0
10
377.13757999999996
20
-44.578984000000005
30
0
10
376.46371199999999
20
-43.411811
30
0
10
376.46371199999999
20
-42.148689000000005
30
0
0
SPLINE
5
122
100
AcDbEntity
8
0
100
AcDbSpline
70
0
71
3
72
8
73
4
74
0
42
0.000000001
43
0.0000000001
44
0.0000000001
40
0
40
0
40
0
40
0
40
1
40
1
40
1
40
1
10
221.767832
20
-39.086832000000001
30
0
10
222.861728
20
-39.718392999999999
30
0
10
223.535596
20
-40.885567000000009
30
0
10
223.535596
20
-42.148689000000005
30
0
0
SPLINE
5
123
100
AcDbEntity
8
0
100
AcDbSpline
70
0
71
3
72
8
73
4
74
0
42
0.000000001
43
0.0000000001
44
0.0000000001
40
0
40
0
40
0
40
0
40
1
40
1
40
1
40
1
10
383.53476800000004
20
-42.148689000000005
30
0
10
383.53476800000004
20
-43.411811
30
0
10
382.86090000000002
20
-44.578984000000005
30
0
10
381.76700400000004
20
-45.210546000000001
30
0
0
SPLINE
5
124
100
AcDbEntity
8
0
100
AcDbSpline
70
0
71
3
72
8
73
4
74
0
42
0.000000001
43
0.0000000001
44
0.0000000001
40
0
40
0
40
0
40
0
40
1
40
1
40
1
40
1
10
378.23147599999999
20
-39.086832000000001
30
0
10
379.32537200000007
20
-38.455271000000003
30
0
10
380.67310800000001
20
-38.455271000000003
30
0
10
381.76700400000004
20
-39.086832000000001
30
0
0
SPLINE
5
125
100
AcDbEntity
8
0
100
AcDbSpline
70
0
71
3
72
8
73
4
74
0
42
0.000000001
43
0.0000000001
44
0.0000000001
40
0
40
0
40
0
40
0
40
1
40
1
40
1
40
1
10
299.99939999999998
20
-158.448713
30
0
10
300.66214200000002
20
-158.448713
30
0
10
301.19940000000003
20
-158.98597100000001
30
0
10
301.19940000000003
20
-159.64871299999999
30
0
0
SPLINE
5
126
100
AcDbEntity
8
0
100
AcDbSpline
70
0
71
3
72
8
73
4
74
0
42
0.000000001
43
0.0000000001
44
0.0000000001
40
0
40
0
40
0
40
0
40
1
40
1
40
1
40
1
10
301.19940000000003
20
-159.64871299999999
30
0
10
301.19940000000003
20
-160.31145500000002
30
0
10
300.66214200000002
20
-160.84871299999998
30
0
10
299.99939999999998
20
-160.84871299999998
30
0
0
SPLINE
5
127
100
AcDbEntity
8
0
100
AcDbSpline
70
0
71
3
72
8
73
4
74
0
42
0.000000001
43
0.0000000001
44
0.0000000001
40
0
40
0
40
0
40
0
40
1
40
1
40
1
40
1
10
186.76764800000001
20
-45.210546000000001
30
0
10
185.67375200000001
20
-45.842106999999999
30
0
10
184.32601599999998
20
-45.842106999999999
30
0
10
183.23212000000001
20
-45.210546000000001
30
0
0
LWPOLYLINE
5
128
100
AcDbEntity
8
0
100
AcDbPolyline
90
20
70
1
43
0.0
10
171.62526
20
-170.00847899999999
10
175.24222000000003
20
-156.51345900000001
10
174.11082602215862
20
-156.2127607119431
10
174.53151334887013
20
-154.64315975209877
10
176.42276176694722
20
-155.15005562022256
10
178.36957327271378
20
-147.8864253322044
10
163.353563105489
20
-143.86180675924595
10
161.40675159972238
20
-151.12543704726414
10
163.29800001779947
20
-151.63233291538793
10
162.87731269108792
20
-153.2019338752323
10
161.74720000000002
20
-152.89903899999999
10
158.13023999999999
20
-166.394059
10
159.26035269108792
20
-166.69695387523231
10
158.8396653643764
20
-168.26655483507665
10
156.94841694629932
20
-167.75965896695286
10
155.00160544053273
20
-175.02328925497102
10
170.01761560775751
20
-179.04790782792946
10
171.9644271135241
20
-171.7842775399113
10
170.07317869544704
20
-171.27738167178751
10
170.49386602215856
20
-169.70778071194317
0
SPLINE
5
129
100
AcDbEntity
8
0
100
AcDbSpline
70
0
71
3
72
8
73
4
74
0
42
0.000000001
43
0.0000000001
44
0.0000000001
40
0
40
0
40
0
40
0
40
1
40
1
40
1
40
1
10
188.53541200000001
20
-42.148689000000005
30
0
10
188.53541200000001
20
-43.411811
30
0
10
187.86154399999998
20
-44.578984000000005
30
0
10
186.76764800000001
20
-45.210546000000001
30
0
0
SPLINE
5
130
100
AcDbEntity
8
0
100
AcDbSpline
70
0
71
3
72
8
73
4
74
0
42
0.000000001
43
0.0000000001
44
0.0000000001
40
0
40
0
40
0
40
0
40
1
40
1
40
1
40
1
10
216.46454000000003
20
-42.148689000000005
30
0
10
216.46454000000003
20
-40.885567000000009
30
0
10
217.138408
20
-39.718392999999999
30
0
10
218.232304
20
-39.086832000000001
30
0
0
SPLINE
5
131
100
AcDbEntity
8
0
100
AcDbSpline
70
0
71
3
72
8
73
4
74
0
42
0.000000001
43
0.0000000001
44
0.0000000001
40
0
40
0
40
0
40
0
40
1
40
1
40
1
40
1
10
218.232304
20
-39.086832000000001
30
0
10
219.3262
20
-38.455271000000003
30
0
10
220.67393600000003
20
-38.455271000000003
30
0
10
221.767832
20
-39.086832000000001
30
0
0
SPLINE
5
132
100
AcDbEntity
8
0
100
AcDbSpline
70
0
71
3
72
8
73
4
74
0
42
0.000000001
43
0.0000000001
44
0.0000000001
40
0
40
0
40
0
40
0
40
1
40
1
40
1
40
1
10
221.767832
20
-45.210546000000001
30
0
10
220.67393600000003
20
-45.842106999999999
30
0
10
219.3262
20
-45.842106999999999
30
0
10
218.232304
20
-45.210546000000001
30
0
0
SPLINE
5
133
100
AcDbEntity
8
0
100
AcDbSpline
70
0
71
3
72
8
73
4
74
0
42
0.000000001
43
0.0000000001
44
0.0000000001
40
0
40
0
40
0
40
0
40
1
40
1
40
1
40
1
10
63.535408000000004
20
-42.148689000000005
30
0
10
63.535408000000004
20
-43.411811
30
0
10
62.861540000000005
20
-44.578984000000005
30
0
10
61.767643999999997
20
-45.210546000000001
30
0
0
SPLINE
5
134
100
AcDbEntity
8
0
100
AcDbSpline
70
0
71
3
72
8
73
4
74
0
42
0.000000001
43
0.0000000001
44
0.0000000001
40
0
40
0
40
0
40
0
40
1
40
1
40
1
40
1
10
56.464352000000005
20
-42.148689000000005
30
0
10
56.464352000000005
20
-40.885567000000009
30
0
10
57.138220000000004
20
-39.718392999999999
30
0
10
58.232116000000005
20
-39.086832000000001
30
0
0
SPLINE
5
135
100
AcDbEntity
8
0
100
AcDbSpline
70
0
71
3
72
8
73
4
74
0
42
0.000000001
43
0.0000000001
44
0.0000000001
40
0
40
0
40
0
40
0
40
1
40
1
40
1
40
1
10
298.79939999999999
20
-159.64871299999999
30
0
10
298.79939999999999
20
-158.98597100000001
30
0
10
299.336658
20
-158.448713
30
0
10
299.99939999999998
20
-158.448713
30
0
0
SPLINE
5
136
100
AcDbEntity
8
0
100
AcDbSpline
70
0
71
3
72
8
73
4
74
0
42
0.000000001
43
0.0000000001
44
0.0000000001
40
0
40
0
40
0
40
0
40
1
40
1
40
1
40
1
10
381.76700400000004
20
-39.086832000000001
30
0
10
382.86090000000002
20
-39.718392999999999
30
0
10
383.53476800000004
20
-40.885567000000009
30
0
10
383.53476800000004
20
-42.148689000000005
30
0
0
SPLINE
5
137
100
AcDbEntity
8
0
100
AcDbSpline
70
0
71
3
72
8
73
4
74
0
42
0.000000001
43
0.0000000001
44
0.0000000001
40
0
40
0
40
0
40
0
40
1
40
1
40
1
40
1
10
61.767643999999997
20
-45.210546000000001
30
0
10
60.673747999999996
20
-45.842106999999999
30
0
10
59.326012000000006
20
-45.842106999999999
30
0
10
58.232116000000005
20
-45.210546000000001
30
0
0
SPLINE
5
138
100
AcDbEntity
8
0
100
AcDbSpline
70
0
71
3
72
8
73
4
74
0
42
0.000000001
43
0.0000000001
44
0.0000000001
40
0
40
0
40
0
40
0
40
1
40
1
40
1
40
1
10
299.99939999999998
20
-160.84871299999998
30
0
10
299.336658
20
-160.84871299999998
30
0
10
298.79939999999999
20
-160.31145500000002
30
0
10
298.79939999999999
20
-159.64871299999999
30
0
0
SPLINE
5
139
100
AcDbEntity
8
0
100
AcDbSpline
70
0
71
3
72
8
73
4
74
0
42
0.000000001
43
0.0000000001
44
0.0000000001
40
0
40
0
40
0
40
0
40
1
40
1
40
1
40
1
10
61.767643999999997
20
-39.086832000000001
30
0
10
62.861540000000005
20
-39.718392999999999
30
0
10
63.535408000000004
20
-40.885567000000009
30
0
10
63.535408000000004
20
-42.148689000000005
30
0
0
SPLINE
5
140
100
AcDbEntity
8
0
100
AcDbSpline
70
0
71
3
72
8
73
4
74
0
42
0.000000001
43
0.0000000001
44
0.0000000001
40
0
40
0
40
0
40
0
40
1
40
1
40
1
40
1
10
181.46435600000001
20
-42.148689000000005
30
0
10
181.46435700000001
20
-40.196071000000011
30
0
10
183.04726599999998
20
-38.613162000000003
30
0
10
184.99988400000004
20
-38.613162000000003
30
0
0
SPLINE
5
141
100
AcDbEntity
8
0
100
AcDbSpline
70
0
71
3
72
8
73
4
74
0
42
0.000000001
43
0.0000000001
44
0.0000000001
40
0
40
0
40
0
40
0
40
1
40
1
40
1
40
1
10
58.232116000000005
20
-45.210546000000001
30
0
10
57.138220000000004
20
-44.578984000000005
30
0
10
56.464352000000005
20
-43.411811
30
0
10
56.464352000000005
20
-42.148689000000005
30
0
0
SPLINE
5
142
100
AcDbEntity
8
0
100
AcDbSpline
70
0
71
3
72
8
73
4
74
0
42
0.000000001
43
0.0000000001
44
0.0000000001
40
0
40
0
40
0
40
0
40
1
40
1
40
1
40
1
10
381.76700400000004
20
-45.210546000000001
30
0
10
380.67310800000001
20
-45.842106999999999
30
0
10
379.32537200000007
20
-45.842106999999999
30
0
10
378.23147599999999
20
-45.210546000000001
30
0
0
SPLINE
5
143
100
AcDbEntity
8
0
100
AcDbSpline
70
0
71
3
72
8
73
4
74
0
42
0.000000001
43
0.0000000001
44
0.0000000001
40
0
40
0
40
0
40
0
40
1
40
1
40
1
40
1
10
183.23212000000001
20
-45.210546000000001
30
0
10
182.13822400000001
20
-44.578984000000005
30
0
10
181.46435600000001
20
-43.411811
30
0
10
181.46435600000001
20
-42.148689000000005
30
0
0
SPLINE
5
144
100
AcDbEntity
8
0
100
AcDbSpline
70
0
71
3
72
8
73
4
74
0
42
0.000000001
43
0.0000000001
44
0.0000000001
40
0
40
0
40
0
40
0
40
1
40
1
40
1
40
1
10
376.46371199999999
20
-42.148689000000005
30
0
10
376.46371199999999
20
-40.885567000000009
30
0
10
377.13757999999996
20
-39.718392999999999
30
0
10
378.23147599999999
20
-39.086832000000001
30
0
0
SPLINE
5
145
100
AcDbEntity
8
0
100
AcDbSpline
70
0
71
3
72
8
73
4
74
0
42
0.000000001
43
0.0000000001
44
0.0000000001
40
0
40
0
40
0
40
0
40
1
40
1
40
1
40
1
10
218.232304
20
-45.210546000000001
30
0
10
217.138408
20
-44.578984000000005
30
0
10
216.46454000000003
20
-43.411811
30
0
10
216.46454000000003
20
-42.148689000000005
30
0
0
SPLINE
5
146
100
AcDbEntity
8
0
100
AcDbSpline
70
0
71
3
72
8
73
4
74
0
42
0.000000001
43
0.0000000001
44
0.0000000001
40
0
40
0
40
0
40
0
40
1
40
1
40
1
40
1
10
223.535596
20
-42.148689000000005
30
0
10
223.535596
20
-43.411811
30
0
10
222.861728
20
-44.578984000000005
30
0
10
221.767832
20
-45.210546000000001
30
0
0
SPLINE
5
147
100
AcDbEntity
8
0
100
AcDbSpline
70
0
71
3
72
8
73
4
74
0
42
0.000000001
43
0.0000000001
44
0.0000000001
40
0
40
0
40
0
40
0
40
1
40
1
40
1
40
1
10
184.99988400000004
20
-38.613162000000003
30
0
10
186.95250200000001
20
-38.613162000000003
30
0
10
188.53541100000001
20
-40.196071000000011
30
0
10
188.53541200000001
20
-42.148689000000005
30
0
0
SPLINE
5
148
100
AcDbEntity
8
0
100
AcDbSpline
70
0
71
3
72
8
73
4
74
0
42
0.000000001
43
0.0000000001
44
0.0000000001
40
0
40
0
40
0
40
0
40
1
40
1
40
1
40
1
10
163.100056
20
-200.68811700000001
30
0
10
162.72877500000004
20
-200.90247700000003
30
0
10
162.27133700000002
20
-200.90247700000003
30
0
10
161.90005600000003
20
-200.68811700000001
30
0
0
SPLINE
5
149
100
AcDbEntity
8
0
100
AcDbSpline
70
0
71
3
72
8
73
4
74
0
42
0.000000001
43
0.0000000001
44
0.0000000001
40
0
40
0
40
0
40
0
40
1
40
1
40
1
40
1
10
40.599920000000004
20
-160.68794300000002
30
0
10
40.228639000000001
20
-160.90230300000002
30
0
10
39.771200999999998
20
-160.90230300000002
30
0
10
39.399920000000002
20
-160.68794300000002
30
0
0
SPLINE
5
150
100
AcDbEntity
8
0
100
AcDbSpline
70
0
71
3
72
8
73
4
74
0
42
0.000000001
43
0.0000000001
44
0.0000000001
40
0
40
0
40
0
40
0
40
1
40
1
40
1
40
1
10
370.59926000000007
20
-23.609487999999999
30
0
10
370.97054100000003
20
-23.823848000000002
30
0
10
371.19925999999998
20
-24.220000000000002
30
0
10
371.19925999999998
20
-24.648719000000003
30
0
0
SPLINE
5
151
100
AcDbEntity
8
0
100
AcDbSpline
70
0
71
3
72
8
73
4
74
0
42
0.000000001
43
0.0000000001
44
0.0000000001
40
0
40
0
40
0
40
0
40
1
40
1
40
1
40
1
10
298.79939999999999
20
-24.648719000000003
30
0
10
298.79939999999999
20
-23.985977000000002
30
0
10
299.336658
20
-23.448719000000004
30
0
10
299.99939999999998
20
-23.448719000000004
30
0
0
SPLINE
5
152
100
AcDbEntity
8
0
100
AcDbSpline
70
0
71
3
72
8
73
4
74
0
42
0.000000001
43
0.0000000001
44
0.0000000001
40
0
40
0
40
0
40
0
40
1
40
1
40
1
40
1
10
241.89989600000001
20
-198.609656
30
0
10
242.27117700000002
20
-198.395297
30
0
10
242.72861500000002
20
-198.395297
30
0
10
243.099896
20
-198.609656
30
0
0
SPLINE
5
153
100
AcDbEntity
8
0
100
AcDbSpline
70
0
71
3
72
8
73
4
74
0
42
0.000000001
43
0.0000000001
44
0.0000000001
40
0
40
0
40
0
40
0
40
1
40
1
40
1
40
1
10
39.399920000000002
20
-160.68794300000002
30
0
10
39.028638999999998
20
-160.47358400000002
30
0
10
38.79992
20
-160.07743199999999
30
0
10
38.79992
20
-159.64871299999999
30
0
0
SPLINE
5
154
100
AcDbEntity
8
0
100
AcDbSpline
70
0
71
3
72
8
73
4
74
0
42
0.000000001
43
0.0000000001
44
0.0000000001
40
0
40
0
40
0
40
0
40
1
40
1
40
1
40
1
10
38.79992
20
-159.64871299999999
30
0
10
38.79992
20
-159.21999399999999
30
0
10
39.028638999999998
20
-158.82384199999998
30
0
10
39.399920000000002
20
-158.60948200000001
30
0
0
SPLINE
5
155
100
AcDbEntity
8
0
100
AcDbSpline
70
0
71
3
72
8
73
4
74
0
42
0.000000001
43
0.0000000001
44
0.0000000001
40
0
40
0
40
0
40
0
40
1
40
1
40
1
40
1
10
38.79992
20
-24.648719000000003
30
0
10
38.79992
20
-24.220000000000002
30
0
10
39.028638999999998
20
-23.823848000000002
30
0
10
39.399920000000002
20
-23.609487999999999
30
0
0
SPLINE
5
156
100
AcDbEntity
8
0
100
AcDbSpline
70
0
71
3
72
8
73
4
74
0
42
0.000000001
43
0.0000000001
44
0.0000000001
40
0
40
0
40
0
40
0
40
1
40
1
40
1
40
1
10
41.199919999999999
20
-24.648719000000003
30
0
10
41.199919999999999
20
-25.077438000000001
30
0
10
40.971201000000008
20
-25.473590000000002
30
0
10
40.599920000000004
20
-25.687949000000003
30
0
0
SPLINE
5
157
100
AcDbEntity
8
0
100
AcDbSpline
70
0
71
3
72
8
73
4
74
0
42
0.000000001
43
0.0000000001
44
0.0000000001
40
0
40
0
40
0
40
0
40
1
40
1
40
1
40
1
10
39.399920000000002
20
-25.687949000000003
30
0
10
39.028638999999998
20
-25.473590000000002
30
0
10
38.79992
20
-25.077438000000001
30
0
10
38.79992
20
-24.648719000000003
30
0
0
SPLINE
5
158
100
AcDbEntity
8
0
100
AcDbSpline
70
0
71
3
72
8
73
4
74
0
42
0.000000001
43
0.0000000001
44
0.0000000001
40
0
40
0
40
0
40
0
40
1
40
1
40
1
40
1
10
368.79926000000006
20
-24.648719000000003
30
0
10
368.79926000000006
20
-24.220000000000002
30
0
10
369.02797900000002
20
-23.823848000000002
30
0
10
369.39926000000008
20
-23.609487999999999
30
0
0
SPLINE
5
159
100
AcDbEntity
8
0
100
AcDbSpline
70
0
71
3
72
8
73
4
74
0
42
0.000000001
43
0.0000000001
44
0.0000000001
40
0
40
0
40
0
40
0
40
1
40
1
40
1
40
1
10
241.89989600000001
20
-200.68811700000001
30
0
10
241.528615
20
-200.473758
30
0
10
241.29989600000002
20
-200.077606
30
0
10
241.29989600000002
20
-199.64888700000003
30
0
0
SPLINE
5
160
100
AcDbEntity
8
0
100
AcDbSpline
70
0
71
3
72
8
73
4
74
0
42
0.000000001
43
0.0000000001
44
0.0000000001
40
0
40
0
40
0
40
0
40
1
40
1
40
1
40
1
10
161.30005600000001
20
-199.64888700000003
30
0
10
161.30005600000001
20
-199.220168
30
0
10
161.528775
20
-198.82401600000003
30
0
10
161.90005600000003
20
-198.609656
30
0
0
SPLINE
5
161
100
AcDbEntity
8
0
100
AcDbSpline
70
0
71
3
72
8
73
4
74
0
42
0.000000001
43
0.0000000001
44
0.0000000001
40
0
40
0
40
0
40
0
40
1
40
1
40
1
40
1
10
376.2005200000001
20
-159.64871299999999
30
0
10
376.2005200000001
20
-160.07743199999999
30
0
10
375.97180099999997
20
-160.47358400000002
30
0
10
375.60052000000007
20
-160.68794300000002
30
0
0
SPLINE
5
162
100
AcDbEntity
8
0
100
AcDbSpline
70
0
71
3
72
8
73
4
74
0
42
0.000000001
43
0.0000000001
44
0.0000000001
40
0
40
0
40
0
40
0
40
1
40
1
40
1
40
1
10
373.80052000000001
20
-159.64871299999999
30
0
10
373.80052000000001
20
-159.21999399999999
30
0
10
374.02923900000008
20
-158.82384199999998
30
0
10
374.40052000000003
20
-158.60948200000001
30
0
0
SPLINE
5
163
100
AcDbEntity
8
0
100
AcDbSpline
70
0
71
3
72
8
73
4
74
0
42
0.000000001
43
0.0000000001
44
0.0000000001
40
0
40
0
40
0
40
0
40
1
40
1
40
1
40
1
10
243.699896
20
-199.64888700000003
30
0
10
243.699896
20
-200.077606
30
0
10
243.47117700000001
20
-200.473758
30
0
10
243.099896
20
-200.68811700000001
30
0
0
SPLINE
5
164
100
AcDbEntity
8
0
100
AcDbSpline
70
0
71
3
72
8
73
4
74
0
42
0.000000001
43
0.0000000001
44
0.0000000001
40
0
40
0
40
0
40
0
40
1
40
1
40
1
40
1
10
114.400024
20
-158.60948200000001
30
0
10
114.77130500000001
20
-158.39512300000001
30
0
10
115.22874299999999
20
-158.39512300000001
30
0
10
115.60002400000002
20
-158.60948200000001
30
0
0
SPLINE
5
165
100
AcDbEntity
8
0
100
AcDbSpline
70
0
71
3
72
8
73
4
74
0
42
0.000000001
43
0.0000000001
44
0.0000000001
40
0
40
0
40
0
40
0
40
1
40
1
40
1
40
1
10
40.599920000000004
20
-25.687949000000003
30
0
10
40.228639000000001
20
-25.902309000000002
30
0
10
39.771200999999998
20
-25.902309000000002
30
0
10
39.399920000000002
20
-25.687949000000003
30
0
0
SPLINE
5
166
100
AcDbEntity
8
0
100
AcDbSpline
70
0
71
3
72
8
73
4
74
0
42
0.000000001
43
0.0000000001
44
0.0000000001
40
0
40
0
40
0
40
0
40
1
40
1
40
1
40
1
10
40.599920000000004
20
-23.609487999999999
30
0
10
40.971201000000008
20
-23.823848000000002
30
0
10
41.199919999999999
20
-24.220000000000002
30
0
10
41.199919999999999
20
-24.648719000000003
30
0
0
SPLINE
5
167
100
AcDbEntity
8
0
100
AcDbSpline
70
0
71
3
72
8
73
4
74
0
42
0.000000001
43
0.0000000001
44
0.0000000001
40
0
40
0
40
0
40
0
40
1
40
1
40
1
40
1
10
115.000024
20
-160.84871299999998
30
0
10
114.33728200000002
20
-160.84871299999998
30
0
10
113.80002400000001
20
-160.31145500000002
30
0
10
113.80002400000001
20
-159.64871299999999
30
0
0
SPLINE
5
168
100
AcDbEntity
8
0
100
AcDbSpline
70
0
71
3
72
8
73
4
74
0
42
0.000000001
43
0.0000000001
44
0.0000000001
40
0
40
0
40
0
40
0
40
1
40
1
40
1
40
1
10
40.599920000000004
20
-158.60948200000001
30
0
10
40.971201000000008
20
-158.82384199999998
30
0
10
41.199919999999999
20
-159.21999399999999
30
0
10
41.199919999999999
20
-159.64871299999999
30
0
0
SPLINE
5
169
100
AcDbEntity
8
0
100
AcDbSpline
70
0
71
3
72
8
73
4
74
0
42
0.000000001
43
0.0000000001
44
0.0000000001
40
0
40
0
40
0
40
0
40
1
40
1
40
1
40
1
10
374.40052000000003
20
-158.60948200000001
30
0
10
374.77180099999998
20
-158.39512300000001
30
0
10
375.22923900000001
20
-158.39512300000001
30
0
10
375.60052000000007
20
-158.60948200000001
30
0
0
SPLINE
5
170
100
AcDbEntity
8
0
100
AcDbSpline
70
0
71
3
72
8
73
4
74
0
42
0.000000001
43
0.0000000001
44
0.0000000001
40
0
40
0
40
0
40
0
40
1
40
1
40
1
40
1
10
299.99939999999998
20
-23.448719000000004
30
0
10
300.66214200000002
20
-23.448719000000004
30
0
10
301.19940000000003
20
-23.985977000000002
30
0
10
301.19940000000003
20
-24.648719000000003
30
0
0
SPLINE
5
171
100
AcDbEntity
8
0
100
AcDbSpline
70
0
71
3
72
8
73
4
74
0
42
0.000000001
43
0.0000000001
44
0.0000000001
40
0
40
0
40
0
40
0
40
1
40
1
40
1
40
1
10
39.399920000000002
20
-158.60948200000001
30
0
10
39.771200999999998
20
-158.39512300000001
30
0
10
40.228639000000001
20
-158.39512300000001
30
0
10
40.599920000000004
20
-158.60948200000001
30
0
0
SPLINE
5
172
100
AcDbEntity
8
0
100
AcDbSpline
70
0
71
3
72
8
73
4
74
0
42
0.000000001
43
0.0000000001
44
0.0000000001
40
0
40
0
40
0
40
0
40
1
40
1
40
1
40
1
10
39.399920000000002
20
-23.609487999999999
30
0
10
39.771200999999998
20
-23.395129000000004
30
0
10
40.228639000000001
20
-23.395129000000004
30
0
10
40.599920000000004
20
-23.609487999999999
30
0
0
SPLINE
5
173
100
AcDbEntity
8
0
100
AcDbSpline
70
0
71
3
72
8
73
4
74
0
42
0.000000001
43
0.0000000001
44
0.0000000001
40
0
40
0
40
0
40
0
40
1
40
1
40
1
40
1
10
369.39926000000008
20
-25.687949000000003
30
0
10
369.02797900000002
20
-25.473590000000002
30
0
10
368.79926000000006
20
-25.077438000000001
30
0
10
368.79926000000006
20
-24.648719000000003
30
0
0
SPLINE
5
174
100
AcDbEntity
8
0
100
AcDbSpline
70
0
71
3
72
8
73
4
74
0
42
0.000000001
43
0.0000000001
44
0.0000000001
40
0
40
0
40
0
40
0
40
1
40
1
40
1
40
1
10
161.90005600000003
20
-200.68811700000001
30
0
10
161.528775
20
-200.473758
30
0
10
161.30005600000001
20
-200.077606
30
0
10
161.30005600000001
20
-199.64888700000003
30
0
0
SPLINE
5
175
100
AcDbEntity
8
0
100
AcDbSpline
70
0
71
3
72
8
73
4
74
0
42
0.000000001
43
0.0000000001
44
0.0000000001
40
0
40
0
40
0
40
0
40
1
40
1
40
1
40
1
10
301.19940000000003
20
-24.648719000000003
30
0
10
301.19940000000003
20
-25.311461000000001
30
0
10
300.66214200000002
20
-25.848718999999999
30
0
10
299.99939999999998
20
-25.848718999999999
30
0
0
SPLINE
5
176
100
AcDbEntity
8
0
100
AcDbSpline
70
0
71
3
72
8
73
4
74
0
42
0.000000001
43
0.0000000001
44
0.0000000001
40
0
40
0
40
0
40
0
40
1
40
1
40
1
40
1
10
374.40052000000003
20
-160.68794300000002
30
0
10
374.02923900000008
20
-160.47358400000002
30
0
10
373.80052000000001
20
-160.07743199999999
30
0
10
373.80052000000001
20
-159.64871299999999
30
0
0
SPLINE
5
177
100
AcDbEntity
8
0
100
AcDbSpline
70
0
71
3
72
8
73
4
74
0
42
0.000000001
43
0.0000000001
44
0.0000000001
40
0
40
0
40
0
40
0
40
1
40
1
40
1
40
1
10
115.60002400000002
20
-158.60948200000001
30
0
10
115.971305
20
-158.82384199999998
30
0
10
116.20002400000001
20
-159.21999399999999
30
0
10
116.20002400000001
20
-159.64871299999999
30
0
0
SPLINE
5
178
100
AcDbEntity
8
0
100
AcDbSpline
70
0
71
3
72
8
73
4
74
0
42
0.000000001
43
0.0000000001
44
0.0000000001
40
0
40
0
40
0
40
0
40
1
40
1
40
1
40
1
10
371.19925999999998
20
-24.648719000000003
30
0
10
371.19925999999998
20
-25.077438000000001
30
0
10
370.97054100000003
20
-25.473590000000002
30
0
10
370.59926000000007
20
-25.687949000000003
30
0
0
SPLINE
5
179
100
AcDbEntity
8
0
100
AcDbSpline
70
0
71
3
72
8
73
4
74
0
42
0.000000001
43
0.0000000001
44
0.0000000001
40
0
40
0
40
0
40
0
40
1
40
1
40
1
40
1
10
41.199919999999999
20
-159.64871299999999
30
0
10
41.199919999999999
20
-160.07743199999999
30
0
10
40.971201000000008
20
-160.47358400000002
30
0
10
40.599920000000004
20
-160.68794300000002
30
0
0
SPLINE
5
180
100
AcDbEntity
8
0
100
AcDbSpline
70
0
71
3
72
8
73
4
74
0
42
0.000000001
43
0.0000000001
44
0.0000000001
40
0
40
0
40
0
40
0
40
1
40
1
40
1
40
1
10
241.29989600000002
20
-199.64888700000003
30
0
10
241.29989600000002
20
-199.220168
30
0
10
241.528615
20
-198.82401600000003
30
0
10
241.89989600000001
20
-198.609656
30
0
0
SPLINE
5
181
100
AcDbEntity
8
0
100
AcDbSpline
70
0
71
3
72
8
73
4
74
0
42
0.000000001
43
0.0000000001
44
0.0000000001
40
0
40
0
40
0
40
0
40
1
40
1
40
1
40
1
10
375.60052000000007
20
-160.68794300000002
30
0
10
375.22923900000001
20
-160.90230300000002
30
0
10
374.77180099999998
20
-160.90230300000002
30
0
10
374.40052000000003
20
-160.68794300000002
30
0
0
SPLINE
5
182
100
AcDbEntity
8
0
100
AcDbSpline
70
0
71
3
72
8
73
4
74
0
42
0.000000001
43
0.0000000001
44
0.0000000001
40
0
40
0
40
0
40
0
40
1
40
1
40
1
40
1
10
370.59926000000007
20
-25.687949000000003
30
0
10
370.227979
20
-25.902309000000002
30
0
10
369.77054100000004
20
-25.902309000000002
30
0
10
369.39926000000008
20
-25.687949000000003
30
0
0
SPLINE
5
183
100
AcDbEntity
8
0
100
AcDbSpline
70
0
71
3
72
8
73
4
74
0
42
0.000000001
43
0.0000000001
44
0.0000000001
40
0
40
0
40
0
40
0
40
1
40
1
40
1
40
1
10
243.099896
20
-200.68811700000001
30
0
10
242.72861500000002
20
-200.90247700000003
30
0
10
242.27117700000002
20
-200.90247700000003
30
0
10
241.89989600000001
20
-200.68811700000001
30
0
0
SPLINE
5
184
100
AcDbEntity
8
0
100
AcDbSpline
70
0
71
3
72
8
73
4
74
0
42
0.000000001
43
0.0000000001
44
0.0000000001
40
0
40
0
40
0
40
0
40
1
40
1
40
1
40
1
10
163.70005600000002
20
-199.64888700000003
30
0
10
163.70005600000002
20
-200.077606
30
0
10
163.47133700000001
20
-200.473758
30
0
10
163.100056
20
-200.68811700000001
30
0
0
SPLINE
5
185
100
AcDbEntity
8
0
100
AcDbSpline
70
0
71
3
72
8
73
4
74
0
42
0.000000001
43
0.0000000001
44
0.0000000001
40
0
40
0
40
0
40
0
40
1
40
1
40
1
40
1
10
113.80002400000001
20
-159.64871299999999
30
0
10
113.80002400000001
20
-159.21999399999999
30
0
10
114.02874300000001
20
-158.82384199999998
30
0
10
114.400024
20
-158.60948200000001
30
0
0
SPLINE
5
186
100
AcDbEntity
8
0
100
AcDbSpline
70
0
71
3
72
8
73
4
74
0
42
0.000000001
43
0.0000000001
44
0.0000000001
40
0
40
0
40
0
40
0
40
1
40
1
40
1
40
1
10
375.60052000000007
20
-158.60948200000001
30
0
10
375.97180099999997
20
-158.82384199999998
30
0
10
376.2005200000001
20
-159.21999399999999
30
0
10
376.2005200000001
20
-159.64871299999999
30
0
0
SPLINE
5
187
100
AcDbEntity
8
0
100
AcDbSpline
70
0
71
3
72
8
73
4
74
0
42
0.000000001
43
0.0000000001
44
0.0000000001
40
0
40
0
40
0
40
0
40
1
40
1
40
1
40
1
10
369.39926000000008
20
-23.609487999999999
30
0
10
369.77054100000004
20
-23.395129000000004
30
0
10
370.227979
20
-23.395129000000004
30
0
10
370.59926000000007
20
-23.609487999999999
30
0
0
SPLINE
5
188
100
AcDbEntity
8
0
100
AcDbSpline
70
0
71
3
72
8
73
4
74
0
42
0.000000001
43
0.0000000001
44
0.0000000001
40
0
40
0
40
0
40
0
40
1
40
1
40
1
40
1
10
243.099896
20
-198.609656
30
0
10
243.47117700000001
20
-198.82401600000003
30
0
10
243.699896
20
-199.220168
30
0
10
243.699896
20
-199.64888700000003
30
0
0
SPLINE
5
189
100
AcDbEntity
8
0
100
AcDbSpline
70
0
71
3
72
8
73
4
74
0
42
0.000000001
43
0.0000000001
44
0.0000000001
40
0
40
0
40
0
40
0
40
1
40
1
40
1
40
1
10
161.90005600000003
20
-198.609656
30
0
10
162.27133700000002
20
-198.395297
30
0
10
162.72877500000004
20
-198.395297
30
0
10
163.100056
20
-198.609656
30
0
0
SPLINE
5
190
100
AcDbEntity
8
0
100
AcDbSpline
70
0
71
3
72
8
73
4
74
0
42
0.000000001
43
0.0000000001
44
0.0000000001
40
0
40
0
40
0
40
0
40
1
40
1
40
1
40
1
10
163.100056
20
-198.609656
30
0
10
163.47133700000001
20
-198.82401600000003
30
0
10
163.70005600000002
20
-199.220168
30
0
10
163.70005600000002
20
-199.64888700000003
30
0
0
SPLINE
5
191
100
AcDbEntity
8
0
100
AcDbSpline
70
0
71
3
72
8
73
4
74
0
42
0.000000001
43
0.0000000001
44
0.0000000001
40
0
40
0
40
0
40
0
40
1
40
1
40
1
40
1
10
299.99939999999998
20
-25.848718999999999
30
0
10
299.336658
20
-25.848718999999999
30
0
10
298.79939999999999
20
-25.311461000000001
30
0
10
298.79939999999999
20
-24.648719000000003
30
0
0
SPLINE
5
192
100
AcDbEntity
8
0
100
AcDbSpline
70
0
71
3
72
8
73
4
74
0
42
0.000000001
43
0.0000000001
44
0.0000000001
40
0
40
0
40
0
40
0
40
1
40
1
40
1
40
1
10
116.20002400000001
20
-159.64871299999999
30
0
10
116.20002400000001
20
-160.31145500000002
30
0
10
115.662766
20
-160.84871299999998
30
0
10
115.000024
20
-160.84871299999998
30
0
0
LINE
5
193
100
AcDbEntity
8
0
100
AcDbLine
10
243.06276
20
-152.89903899999999
30
0
11
246.67972000000006
21
-166.394059
31
0
0
SPLINE
5
194
100
AcDbEntity
8
0
100
AcDbSpline
70
0
71
3
72
8
73
4
74
0
42
0.000000001
43
0.0000000001
44
0.0000000001
40
0
40
0
40
0
40
0
40
1
40
1
40
1
40
1
10
116.20002400000001
20
-24.648719000000003
30
0
10
116.20002400000001
20
-25.311461000000001
30
0
10
115.662766
20
-25.848718999999999
30
0
10
115.000024
20
-25.848718999999999
30
0
0
SPLINE
5
195
100
AcDbEntity
8
0
100
AcDbSpline
70
0
71
3
72
8
73
4
74
0
42
0.000000001
43
0.0000000001
44
0.0000000001
40
0
40
0
40
0
40
0
40
1
40
1
40
1
40
1
10
115.000024
20
-25.848718999999999
30
0
10
114.33728200000002
20
-25.848718999999999
30
0
10
113.80002400000001
20
-25.311461000000001
30
0
10
113.80002400000001
20
-24.648719000000003
30
0
0
SPLINE
5
196
100
AcDbEntity
8
0
100
AcDbSpline
70
0
71
3
72
8
73
4
74
0
42
0.000000001
43
0.0000000001
44
0.0000000001
40
0
40
0
40
0
40
0
40
1
40
1
40
1
40
1
10
115.60002400000002
20
-23.609487999999999
30
0
10
115.971305
20
-23.823848000000002
30
0
10
116.20002400000001
20
-24.220000000000002
30
0
10
116.20002400000001
20
-24.648719000000003
30
0
0
SPLINE
5
197
100
AcDbEntity
8
0
100
AcDbSpline
70
0
71
3
72
8
73
4
74
0
42
0.000000001
43
0.0000000001
44
0.0000000001
40
0
40
0
40
0
40
0
40
1
40
1
40
1
40
1
10
114.400024
20
-23.609487999999999
30
0
10
114.77130500000001
20
-23.395129000000004
30
0
10
115.22874299999999
20
-23.395129000000004
30
0
10
115.60002400000002
20
-23.609487999999999
30
0
0
SPLINE
5
198
100
AcDbEntity
8
0
100
AcDbSpline
70
0
71
3
72
8
73
4
74
0
42
0.000000001
43
0.0000000001
44
0.0000000001
40
0
40
0
40
0
40
0
40
1
40
1
40
1
40
1
10
183.79988400000002
20
-24.648719000000003
30
0
10
183.79988400000002
20
-23.985977000000002
30
0
10
184.337142
20
-23.448719000000004
30
0
10
184.99988400000004
20
-23.448719000000004
30
0
0
SPLINE
5
199
100
AcDbEntity
8
0
100
AcDbSpline
70
0
71
3
72
8
73
4
74
0
42
0.000000001
43
0.0000000001
44
0.0000000001
40
0
40
0
40
0
40
0
40
1
40
1
40
1
40
1
10
184.99988400000004
20
-23.448719000000004
30
0
10
185.66262599999999
20
-23.448719000000004
30
0
10
186.199884
20
-23.985977000000002
30
0
10
186.199884
20
-24.648719000000003
30
0
0
SPLINE
5
200
100
AcDbEntity
8
0
100
AcDbSpline
70
0
71
3
72
8
73
4
74
0
42
0.000000001
43
0.0000000001
44
0.0000000001
40
0
40
0
40
0
40
0
40
1
40
1
40
1
40
1
10
221.20006800000002
20
-24.648719000000003
30
0
10
221.20006800000002
20
-25.077438000000001
30
0
10
220.97134900000003
20
-25.473590000000002
30
0
10
220.60006800000002
20
-25.687949000000003
30
0
0
SPLINE
5
201
100
AcDbEntity
8
0
100
AcDbSpline
70
0
71
3
72
8
73
4
74
0
42
0.000000001
43
0.0000000001
44
0.0000000001
40
0
40
0
40
0
40
0
40
1
40
1
40
1
40
1
10
218.80006800000004
20
-24.648719000000003
30
0
10
218.80006800000004
20
-24.220000000000002
30
0
10
219.02878700000002
20
-23.823848000000002
30
0
10
219.40006800000003
20
-23.609487999999999
30
0
0
LWPOLYLINE
5
202
100
AcDbEntity
8
0
100
AcDbPolyline
90
4
70
1
43
0.0
10
102.55250000000001
20
-147.008779
10
116.52250000000001
20
-147.008779
10
116.52250000000001
20
-133.03877900000001
10
102.55250000000001
20
-133.03877900000001
0
SPLINE
5
203
100
AcDbEntity
8
0
100
AcDbSpline
70
0
71
3
72
8
73
4
74
0
42
0.000000001
43
0.0000000001
44
0.0000000001
40
0
40
0
40
0
40
0
40
1
40
1
40
1
40
1
10
186.199884
20
-24.648719000000003
30
0
10
186.199884
20
-25.311461000000001
30
0
10
185.66262599999999
20
-25.848718999999999
30
0
10
184.99988400000004
20
-25.848718999999999
30
0
0
SPLINE
5
204
100
AcDbEntity
8
0
100
AcDbSpline
70
0
71
3
72
8
73
4
74
0
42
0.000000001
43
0.0000000001
44
0.0000000001
40
0
40
0
40
0
40
0
40
1
40
1
40
1
40
1
10
219.40006800000003
20
-23.609487999999999
30
0
10
219.77134900000004
20
-23.395129000000004
30
0
10
220.22878700000004
20
-23.395129000000004
30
0
10
220.60006800000002
20
-23.609487999999999
30
0
0
LINE
5
205
100
AcDbEntity
8
0
100
AcDbLine
10
245.54942000000005
20
-166.69631899999999
30
0
11
245.97106000000002
21
-168.26603899999998
31
0
0
SPLINE
5
206
100
AcDbEntity
8
0
100
AcDbSpline
70
0
71
3
72
8
73
4
74
0
42
0.000000001
43
0.0000000001
44
0.0000000001
40
0
40
0
40
0
40
0
40
1
40
1
40
1
40
1
10
220.60006800000002
20
-23.609487999999999
30
0
10
220.97134900000003
20
-23.823848000000002
30
0
10
221.20006800000002
20
-24.220000000000002
30
0
10
221.20006800000002
20
-24.648719000000003
30
0
0
SPLINE
5
207
100
AcDbEntity
8
0
100
AcDbSpline
70
0
71
3
72
8
73
4
74
0
42
0.000000001
43
0.0000000001
44
0.0000000001
40
0
40
0
40
0
40
0
40
1
40
1
40
1
40
1
10
219.40006800000003
20
-25.687949000000003
30
0
10
219.02878700000002
20
-25.473590000000002
30
0
10
218.80006800000004
20
-25.077438000000001
30
0
10
218.80006800000004
20
-24.648719000000003
30
0
0
LWPOLYLINE
5
208
100
AcDbEntity
8
0
100
AcDbPolyline
90
4
70
1
43
0.0
10
68.897499999999994
20
-147.008779
10
68.897499999999994
20
-133.03877900000001
10
54.927500000000009
20
-133.03877900000001
10
54.927500000000009
20
-147.008779
0
LWPOLYLINE
5
209
100
AcDbEntity
8
0
100
AcDbPolyline
90
4
70
1
43
0.0
10
78.739999999999995
20
-147.008779
10
92.709999999999994
20
-147.008779
10
92.709999999999994
20
-133.03877900000001
10
78.739999999999995
20
-133.03877900000001
0
SPLINE
5
210
100
AcDbEntity
8
0
100
AcDbSpline
70
0
71
3
72
8
73
4
74
0
42
0.000000001
43
0.0000000001
44
0.0000000001
40
0
40
0
40
0
40
0
40
1
40
1
40
1
40
1
10
184.99988400000004
20
-25.848718999999999
30
0
10
184.337142
20
-25.848718999999999
30
0
10
183.79988400000002
20
-25.311461000000001
30
0
10
183.79988400000002
20
-24.648719000000003
30
0
0
SPLINE
5
211
100
AcDbEntity
8
0
100
AcDbSpline
70
0
71
3
72
8
73
4
74
0
42
0.000000001
43
0.0000000001
44
0.0000000001
40
0
40
0
40
0
40
0
40
1
40
1
40
1
40
1
10
220.60006800000002
20
-25.687949000000003
30
0
10
220.22878700000004
20
-25.902309000000002
30
0
10
219.77134900000004
20
-25.902309000000002
30
0
10
219.40006800000003
20
-25.687949000000003
30
0
0
SPLINE
5
212
100
AcDbEntity
8
0
100
AcDbSpline
70
0
71
3
72
8
73
4
74
0
42
0.000000001
43
0.0000000001
44
0.0000000001
40
0
40
0
40
0
40
0
40
1
40
1
40
1
40
1
10
113.80002400000001
20
-24.648719000000003
30
0
10
113.80002400000001
20
-24.220000000000002
30
0
10
114.02874300000001
20
-23.823848000000002
30
0
10
114.400024
20
-23.609487999999999
30
0
0
LWPOLYLINE
5
213
100
AcDbEntity
8
0
100
AcDbPolyline
90
20
70
1
43
0.0
10
180.79720000000003
20
-157.661539
10
177.18024
20
-171.15655900000004
10
178.3116339778415
20
-171.45725728805687
10
177.89094665112998
20
-173.0268582479012
10
175.9996982330529
20
-172.51996237977744
10
174.05288672728631
20
-179.7835926677956
10
189.06889689451108
20
-183.80821124075399
10
191.01570840027762
20
-176.54458095273583
10
189.12445998220053
20
-176.03768508461204
10
189.54514730891208
20
-174.4680841247677
10
190.67526000000001
20
-174.77097900000001
10
194.29221999999999
20
-161.275959
10
193.16210730891208
20
-160.97306412476769
10
193.5827946356236
20
-159.40346316492335
10
195.47404305370068
20
-159.91035903304714
10
197.42085455946722
20
-152.64672874502895
10
182.40484439224241
20
-148.62211017207068
10
180.45803288647588
20
-155.88574046008884
10
182.34928130455296
20
-156.39263632821263
10
181.92859397784144
20
-157.962237288057
0
LWPOLYLINE
5
214
100
AcDbEntity
8
0
100
AcDbPolyline
90
4
70
1
43
0.0
10
149.86000000000001
20
-133.03877900000001
10
135.88999999999999
20
-133.03877900000001
10
135.88999999999999
20
-147.008779
10
149.86000000000001
20
-147.008779
0
LWPOLYLINE
5
215
100
AcDbEntity
8
0
100
AcDbPolyline
90
4
70
1
43
0.0
10
366.55248
20
-133.03877900000001
10
352.58248000000003
20
-133.03877900000001
10
352.58248000000003
20
-147.008779
10
366.55248
20
-147.008779
0
LWPOLYLINE
5
216
100
AcDbEntity
8
0
100
AcDbPolyline
90
4
70
1
43
0.0
10
371.63248000000004
20
-147.008779
10
385.60248000000001
20
-147.008779
10
385.60248000000001
20
-133.03877900000001
10
371.63248000000004
20
-133.03877900000001
0
LWPOLYLINE
5
217
100
AcDbEntity
8
0
100
AcDbPolyline
90
4
70
1
43
0.0
10
302.57749999999999
20
-147.008779
10
316.54750000000001
20
-147.008779
10
316.54750000000001
20
-133.03877900000001
10
302.57749999999999
20
-133.03877900000001
0
LWPOLYLINE
5
218
100
AcDbEntity
8
0
100
AcDbPolyline
90
4
70
1
43
0.0
10
278.76499999999999
20
-147.008779
10
292.73500000000001
20
-147.008779
10
292.73500000000001
20
-133.03877900000001
10
278.76499999999999
20
-133.03877900000001
0
LWPOLYLINE
5
219
100
AcDbEntity
8
0
100
AcDbPolyline
90
4
70
1
43
0.0
10
104.93248000000001
20
-127.95877900000001
10
118.90248000000001
20
-127.95877900000001
10
118.90248000000001
20
-113.98877900000002
10
104.93248000000001
20
-113.98877900000002
0
LWPOLYLINE
5
220
100
AcDbEntity
8
0
100
AcDbPolyline
90
4
70
1
43
0.0
10
162.08248
20
-127.95877900000001
10
176.05248
20
-127.95877900000001
10
176.05248
20
-113.98877900000002
10
162.08248
20
-113.98877900000002
0
LWPOLYLINE
5
221
100
AcDbEntity
8
0
100
AcDbPolyline
90
4
70
1
43
0.0
10
123.98248000000002
20
-127.95877900000001
10
137.95248000000001
20
-127.95877900000001
10
137.95248000000001
20
-113.98877900000002
10
123.98248000000002
20
-113.98877900000002
0
LWPOLYLINE
5
222
100
AcDbEntity
8
0
100
AcDbPolyline
90
4
70
1
43
0.0
10
85.882480000000001
20
-113.98877900000002
10
85.882480000000001
20
-127.95877900000001
10
99.85248
20
-127.95877900000001
10
99.85248
20
-113.98877900000002
0
LWPOLYLINE
5
223
100
AcDbEntity
8
0
100
AcDbPolyline
90
4
70
1
43
0.0
10
347.50247999999999
20
-133.03877900000001
10
333.53248000000002
20
-133.03877900000001
10
333.53248000000002
20
-147.008779
10
347.50247999999999
20
-147.008779
0
LWPOLYLINE
5
224
100
AcDbEntity
8
0
100
AcDbPolyline
90
4
70
1
43
0.0
10
254.95249999999999
20
-147.008779
10
268.92250000000001
20
-147.008779
10
268.92250000000001
20
-133.03877900000001
10
254.95249999999999
20
-133.03877900000001
0
LWPOLYLINE
5
225
100
AcDbEntity
8
0
100
AcDbPolyline
90
4
70
1
43
0.0
10
228.75748000000002
20
-113.98877900000002
10
228.75748000000002
20
-127.95877900000001
10
242.72748000000001
20
-127.95877900000001
10
242.72748000000001
20
-113.98877900000002
0
LWPOLYLINE
5
226
100
AcDbEntity
8
0
100
AcDbPolyline
90
4
70
1
43
0.0
10
143.03247999999999
20
-127.95877900000001
10
157.00247999999999
20
-127.95877900000001
10
157.00247999999999
20
-113.98877900000002
10
143.03247999999999
20
-113.98877900000002
0
LWPOLYLINE
5
227
100
AcDbEntity
8
0
100
AcDbPolyline
90
4
70
1
43
0.0
10
337.97748000000001
20
-94.938778999999997
10
324.00747999999999
20
-94.938778999999997
10
324.00747999999999
20
-108.90877900000001
10
337.97748000000001
20
-108.90877900000001
0
LWPOLYLINE
5
228
100
AcDbEntity
8
0
100
AcDbPolyline
90
4
70
1
43
0.0
10
104.93248000000001
20
-75.888779
10
104.93248000000001
20
-89.858778999999998
10
118.90248000000001
20
-89.858778999999998
10
118.90248000000001
20
-75.888779
0
LWPOLYLINE
5
229
100
AcDbEntity
8
0
100
AcDbPolyline
90
4
70
1
43
0.0
10
137.95248000000001
20
-75.888779
10
123.98248000000002
20
-75.888779
10
123.98248000000002
20
-89.858778999999998
10
137.95248000000001
20
-89.858778999999998
0
LWPOLYLINE
5
230
100
AcDbEntity
8
0
100
AcDbPolyline
90
4
70
1
43
0.0
10
33.494979999999998
20
-75.888779
10
33.494979999999998
20
-89.858778999999998
10
47.464979999999997
20
-89.858778999999998
10
47.464979999999997
20
-75.888779
0
LINE
5
231
100
AcDbEntity
8
0
100
AcDbLine
10
368.93500000000006
20
-108.90877900000001
30
0
11
354.96499999999997
21
-108.90877900000001
31
0
0
LWPOLYLINE
5
232
100
AcDbEntity
8
0
100
AcDbPolyline
90
4
70
1
43
0.0
10
143.03247999999999
20
-75.888779
10
143.03247999999999
20
-89.858778999999998
10
157.00247999999999
20
-89.858778999999998
10
157.00247999999999
20
-75.888779
0
LWPOLYLINE
5
233
100
AcDbEntity
8
0
100
AcDbPolyline
90
4
70
1
43
0.0
10
76.039980000000014
20
-89.858778999999998
10
76.039980000000014
20
-75.888779
10
62.069980000000015
20
-75.888779
10
62.069980000000015
20
-89.858778999999998
0
LWPOLYLINE
5
234
100
AcDbEntity
8
0
100
AcDbPolyline
90
4
70
1
43
0.0
10
99.85248
20
-75.888779
10
85.882480000000001
20
-75.888779
10
85.882480000000001
20
-89.858778999999998
10
99.85248
20
-89.858778999999998
0
LINE
5
235
100
AcDbEntity
8
0
100
AcDbLine
10
354.96485047896101
20
-94.939080197333027
30
0
11
368.93500000000006
21
-94.938778999999997
31
0
0
LWPOLYLINE
5
236
100
AcDbEntity
8
0
100
AcDbPolyline
90
4
70
1
43
0.0
10
261.77747999999997
20
-89.858778999999998
10
261.77747999999997
20
-75.888779
10
247.80748
20
-75.888779
10
247.80748
20
-89.858778999999998
0
LWPOLYLINE
5
237
100
AcDbEntity
8
0
100
AcDbPolyline
90
4
70
1
43
0.0
10
266.85748000000001
20
-75.888779
10
266.85748000000001
20
-89.858778999999998
10
280.82747999999998
20
-89.858778999999998
10
280.82747999999998
20
-75.888779
0
LWPOLYLINE
5
238
100
AcDbEntity
8
0
100
AcDbPolyline
90
4
70
1
43
0.0
10
304.95747999999998
20
-89.858778999999998
10
318.92748
20
-89.858778999999998
10
318.92748
20
-75.888779
10
304.95747999999998
20
-75.888779
0
LWPOLYLINE
5
239
100
AcDbEntity
8
0
100
AcDbPolyline
90
4
70
1
43
0.0
10
366.55248
20
-89.858778999999998
10
366.55248
20
-75.888779
10
352.58248000000003
20
-75.888779
10
352.58248000000003
20
-89.858778999999998
0
LWPOLYLINE
5
240
100
AcDbEntity
8
0
100
AcDbPolyline
90
4
70
1
43
0.0
10
371.63248000000004
20
-89.858778999999998
10
385.60248000000001
20
-89.858778999999998
10
385.60248000000001
20
-75.888779
10
371.63248000000004
20
-75.888779
0
LWPOLYLINE
5
241
100
AcDbEntity
8
0
100
AcDbPolyline
90
4
70
1
43
0.0
10
99.85248
20
-70.808779000000015
10
99.85248
20
-56.838779000000002
10
85.882480000000001
20
-56.838779000000002
10
85.882480000000001
20
-70.808779000000015
0
LWPOLYLINE
5
242
100
AcDbEntity
8
0
100
AcDbPolyline
90
4
70
1
43
0.0
10
299.87747999999999
20
-89.858778999999998
10
299.87747999999999
20
-75.888779
10
285.90747999999996
20
-75.888779
10
285.90747999999996
20
-89.858778999999998
0
LWPOLYLINE
5
243
100
AcDbEntity
8
0
100
AcDbPolyline
90
4
70
1
43
0.0
10
176.05248
20
-75.888779
10
162.08248
20
-75.888779
10
162.08248
20
-89.858778999999998
10
176.05248
20
-89.858778999999998
0
LWPOLYLINE
5
244
100
AcDbEntity
8
0
100
AcDbPolyline
90
4
70
1
43
0.0
10
76.039980000000014
20
-56.838779000000002
10
62.069980000000015
20
-56.838779000000002
10
62.069980000000015
20
-70.808779000000015
10
76.039980000000014
20
-70.808779000000015
0
LWPOLYLINE
5
245
100
AcDbEntity
8
0
100
AcDbPolyline
90
4
70
1
43
0.0
10
104.93248000000001
20
-70.808779000000015
10
118.90248000000001
20
-70.808779000000015
10
118.90248000000001
20
-56.838779000000002
10
104.93248000000001
20
-56.838779000000002
0
LWPOLYLINE
5
246
100
AcDbEntity
8
0
100
AcDbPolyline
90
4
70
1
43
0.0
10
324.00747999999999
20
-56.838779000000002
10
324.00747999999999
20
-70.808779000000015
10
337.97748000000001
20
-70.808779000000015
10
337.97748000000001
20
-56.838779000000002
0
LWPOLYLINE
5
247
100
AcDbEntity
8
0
100
AcDbPolyline
90
4
70
1
43
0.0
10
137.95248000000001
20
-70.808779000000015
10
137.95248000000001
20
-56.838779000000002
10
123.98248000000002
20
-56.838779000000002
10
123.98248000000002
20
-70.808779000000015
0
LWPOLYLINE
5
248
100
AcDbEntity
8
0
100
AcDbPolyline
90
4
70
1
43
0.0
10
52.22748
20
-56.838779000000002
10
38.257480000000001
20
-56.838779000000002
10
38.257480000000001
20
-70.808779000000015
10
52.22748
20
-70.808779000000015
0
LWPOLYLINE
5
249
100
AcDbEntity
8
0
100
AcDbPolyline
90
4
70
1
43
0.0
10
228.75748000000002
20
-89.858778999999998
10
242.72748000000001
20
-89.858778999999998
10
242.72748000000001
20
-75.888779
10
228.75748000000002
20
-75.888779
0
LWPOLYLINE
5
250
100
AcDbEntity
8
0
100
AcDbPolyline
90
4
70
1
43
0.0
10
342.73998
20
-75.888779
10
328.76998000000003
20
-75.888779
10
328.76998000000003
20
-89.858778999999998
10
342.73998
20
-89.858778999999998
0
LWPOLYLINE
5
251
100
AcDbEntity
8
0
100
AcDbPolyline
90
4
70
1
43
0.0
10
143.03247999999999
20
-70.808779000000015
10
157.00247999999999
20
-70.808779000000015
10
157.00247999999999
20
-56.838779000000002
10
143.03247999999999
20
-56.838779000000002
0
LWPOLYLINE
5
252
100
AcDbEntity
8
0
100
AcDbPolyline
90
4
70
1
43
0.0
10
162.08248
20
-70.808779000000015
10
176.05248
20
-70.808779000000015
10
176.05248
20
-56.838779000000002
10
162.08248
20
-56.838779000000002
0
LWPOLYLINE
5
253
100
AcDbEntity
8
0
100
AcDbPolyline
90
4
70
1
43
0.0
10
247.80748
20
-70.808779000000015
10
261.77747999999997
20
-70.808779000000015
10
261.77747999999997
20
-56.838779000000002
10
247.80748
20
-56.838779000000002
0
LWPOLYLINE
5
254
100
AcDbEntity
8
0
100
AcDbPolyline
90
4
70
1
43
0.0
10
343.05748
20
-56.838779000000002
10
343.05748
20
-70.808779000000015
10
357.02747999999997
20
-70.808779000000015
10
357.02747999999997
20
-56.838779000000002
0
LWPOLYLINE
5
255
100
AcDbEntity
8
0
100
AcDbPolyline
90
4
70
1
43
0.0
10
299.87747999999999
20
-56.838779000000002
10
285.90747999999996
20
-56.838779000000002
10
285.90747999999996
20
-70.808779000000015
10
299.87747999999999
20
-70.808779000000015
0
LWPOLYLINE
5
256
100
AcDbEntity
8
0
100
AcDbPolyline
90
4
70
1
43
0.0
10
376.07748000000004
20
-70.808779000000015
10
376.07748000000004
20
-56.838779000000002
10
362.10748000000001
20
-56.838779000000002
10
362.10748000000001
20
-70.808779000000015
0
LWPOLYLINE
5
257
100
AcDbEntity
8
0
100
AcDbPolyline
90
4
70
1
43
0.0
10
318.92748
20
-70.808779000000015
10
318.92748
20
-56.838779000000002
10
304.95747999999998
20
-56.838779000000002
10
304.95747999999998
20
-70.808779000000015
0
LWPOLYLINE
5
258
100
AcDbEntity
8
0
100
AcDbPolyline
90
4
70
1
43
0.0
10
242.72748000000001
20
-70.808779000000015
10
242.72748000000001
20
-56.838779000000002
10
228.75748000000002
20
-56.838779000000002
10
228.75748000000002
20
-70.808779000000015
0
LWPOLYLINE
5
259
100
AcDbEntity
8
0
100
AcDbPolyline
90
4
70
1
43
0.0
10
280.82747999999998
20
-70.808779000000015
10
280.82747999999998
20
-56.838779000000002
10
266.85748000000001
20
-56.838779000000002
10
266.85748000000001
20
-70.808779000000015
0
LINE
5
260
100
AcDbEntity
8
0
100
AcDbLine
10
68.897499999999994
20
-127.95877900000001
30
0
11
54.927500000000009
21
-127.95877900000001
31
0
0
LINE
5
261
100
AcDbEntity
8
0
100
AcDbLine
10
54.927500000000009
20
-113.98877900000002
30
0
11
68.897499999999994
21
-113.98877900000002
31
0
0
LWPOLYLINE
5
262
100
AcDbEntity
8
0
100
AcDbPolyline
90
405
70
1
43
0.0
10
344.81515999999999
20
-40.763119000000003
10
344.75673999999998
20
-40.737718999999998
10
344.69832000000002
20
-40.717399
10
344.63736000000006
20
-40.697079000000002
10
344.57894000000005
20
-40.679299
10
344.51797999999997
20
-40.664059000000002
10
344.45702000000006
20
-40.648819000000003
10
344.39606000000003
20
-40.638659000000004
10
344.33510000000007
20
-40.628498999999998
10
344.27413999999999
20
-40.620879000000002
10
344.21317999999997
20
-40.615798999999996
10
344.15222
20
-40.61071900000001
10
344.09126000000009
20
-40.608179
10
344.03030000000001
20
-40.608179
10
343.97188
20
-40.61071900000001
10
343.91345999999999
20
-40.613258999999999
10
343.85503999999997
20
-40.618338999999999
10
343.79662000000002
20
-40.625959000000009
10
343.73820000000001
20
-40.633578999999997
10
343.68232
20
-40.643739000000004
10
343.62897999999996
20
-40.653898999999996
10
343.57563999999996
20
-40.669139000000001
10
343.52229999999997
20
-40.681839000000004
10
343.47404000000006
20
-40.697079000000002
10
343.4283200000001
20
-40.712319000000001
10
343.38260000000002
20
-40.727558999999999
10
343.33942000000002
20
-40.745339000000001
10
343.29624000000001
20
-40.763119000000003
10
343.25560000000002
20
-40.783439000000001
10
343.21496000000002
20
-40.803758999999999
10
343.17432000000002
20
-40.824078999999998
10
343.13622000000004
20
-40.844398999999996
10
343.09811999999999
20
-40.867259000000004
10
343.06256000000008
20
-40.890118999999999
10
343.02700000000004
20
-40.912979
10
342.99144000000007
20
-40.935839000000001
10
342.95842000000005
20
-40.958698999999996
10
342.92794000000004
20
-40.984099000000001
10
342.89492000000001
20
-41.006959000000009
10
342.86697999999996
20
-41.032359000000007
10
342.8365
20
-41.055219000000001
10
342.80856
20
-41.080618999999999
10
342.78062
20
-41.103479
10
342.75522000000001
20
-41.128878999999998
10
342.73236000000003
20
-41.151739000000006
10
342.70695999999998
20
-41.177139000000011
10
342.68410000000006
20
-41.199998999999998
10
342.66377999999997
20
-41.222859000000007
10
342.64346
20
-41.245719000000001
10
342.62313999999998
20
-41.266038999999999
10
342.60536000000002
20
-41.288899000000001
10
342.58758
20
-41.309218999999999
10
342.56979999999999
20
-41.329539000000004
10
342.55456000000004
20
-41.347318999999999
10
342.53932000000009
20
-41.367639000000011
10
342.08974000000006
20
-41.019659000000004
10
342.11260000000004
20
-40.99171900000001
10
342.13546000000002
20
-40.963778999999995
10
342.16086000000007
20
-40.933298999999998
10
342.18626
20
-40.902819000000001
10
342.21166000000005
20
-40.872339000000004
10
342.2396
20
-40.841859000000007
10
342.26754
20
-40.811379000000002
10
342.29802000000001
20
-40.780899000000005
10
342.32850000000008
20
-40.747878999999998
10
342.36152000000004
20
-40.717399
10
342.39454000000001
20
-40.686919000000003
10
342.42756000000008
20
-40.656439000000006
10
342.46312
20
-40.623418999999998
10
342.50122000000005
20
-40.592939000000001
10
342.53932000000009
20
-40.562459000000004
10
342.57742000000002
20
-40.531979
10
342.61806000000001
20
-40.504038999999999
10
342.65870000000001
20
-40.473559000000002
10
342.70187999999996
20
-40.445619000000008
10
342.74506000000002
20
-40.415139000000011
10
342.79077999999998
20
-40.387199000000003
10
342.8365
20
-40.361798999999998
10
342.88222000000007
20
-40.333859000000004
10
342.93047999999999
20
-40.308458999999999
10
342.98127999999997
20
-40.283059000000002
10
343.03208000000006
20
-40.260199000000007
10
343.08542
20
-40.23479900000001
10
343.13875999999999
20
-40.214478999999997
10
343.19209999999998
20
-40.191619000000003
10
343.24797999999998
20
-40.171298999999998
10
343.30640000000005
20
-40.153519000000003
10
343.36482000000001
20
-40.135739000000001
10
343.4283200000001
20
-40.117958999999999
10
343.49436000000003
20
-40.102719
10
343.56293999999997
20
-40.087478999999995
10
343.63152000000008
20
-40.074779000000007
10
343.70263999999997
20
-40.064619000000008
10
343.77630000000005
20
-40.054459000000008
10
343.84996000000001
20
-40.049379000000002
10
343.92362000000003
20
-40.044299000000009
10
343.99982
20
-40.03921900000001
10
344.07856000000004
20
-40.03921900000001
10
344.15476000000007
20
-40.041759000000006
10
344.23349999999999
20
-40.044299000000009
10
344.31477999999998
20
-40.051918999999998
10
344.39352000000008
20
-40.059539000000008
10
344.47480000000007
20
-40.072239000000003
10
344.55354
20
-40.084939000000006
10
344.63481999999999
20
-40.102719
10
344.71356000000009
20
-40.123038999999999
10
344.79484000000002
20
-40.145899
10
344.87358
20
-40.171298999999998
10
344.95486
20
-40.201778999999995
10
345.03359999999998
20
-40.23479900000001
10
345.11234000000002
20
-40.270359000000006
10
345.18853999999999
20
-40.308458999999999
10
345.26474000000002
20
-40.351638999999999
10
345.34094000000005
20
-40.397359000000002
10
345.41460000000001
20
-40.448159000000004
10
345.48826000000008
20
-40.501499000000003
10
345.55937999999998
20
-40.559919000000008
10
345.62796000000003
20
-40.620879000000002
10
345.69654000000003
20
-40.686919000000003
10
345.76257999999996
20
-40.758039000000004
10
345.79560000000004
20
-40.793599
10
345.82607999999999
20
-40.829159000000004
10
345.85656
20
-40.867259000000004
10
345.8845
20
-40.905359000000004
10
345.91244000000006
20
-40.943459000000004
10
345.94038000000006
20
-40.981559000000011
10
345.96578
20
-41.022199000000008
10
345.99117999999999
20
-41.062839000000004
10
346.01657999999998
20
-41.103479
10
346.03944000000007
20
-41.144119000000003
10
346.06230000000005
20
-41.187298999999996
10
346.08516000000003
20
-41.230478999999995
10
346.10548
20
-41.273659000000002
10
346.12580000000003
20
-41.316839000000002
10
346.14358000000004
20
-41.362559000000012
10
346.16136000000006
20
-41.405739000000004
10
346.17914000000007
20
-41.451459
10
346.19692000000009
20
-41.499718999999999
10
346.21215999999998
20
-41.545439000000002
10
346.22486000000004
20
-41.593699000000008
10
346.24009999999998
20
-41.641959
10
346.25279999999998
20
-41.690218999999999
10
346.26296000000002
20
-41.738478999999998
10
346.27312000000006
20
-41.789279000000008
10
346.28328000000005
20
-41.840079000000003
10
346.29343999999998
20
-41.890878999999998
10
346.30106000000006
20
-41.941679000000001
10
346.30867999999998
20
-41.995019000000006
10
346.31376
20
-42.048359000000005
10
346.31884000000002
20
-42.101698999999996
10
346.32392000000004
20
-42.155039000000009
10
346.32646
20
-42.208379000000001
10
346.32900000000001
20
-42.241399000000001
10
346.32900000000001
20
-42.276959000000005
10
346.32900000000001
20
-42.315059000000012
10
346.32900000000001
20
-42.360779000000008
10
346.32900000000001
20
-42.406499000000004
10
346.32646
20
-42.457298999999999
10
346.32392000000004
20
-42.510639000000012
10
346.32137999999998
20
-42.566519000000007
10
346.31630000000001
20
-42.624939000000012
10
346.30867999999998
20
-42.688439000000002
10
346.30106000000006
20
-42.751939000000007
10
346.29090000000008
20
-42.817979000000001
10
346.27820000000008
20
-42.884019000000002
10
346.26296000000002
20
-42.952599000000006
10
346.24772000000002
20
-43.023719
10
346.22739999999999
20
-43.094839
10
346.20708000000002
20
-43.168499000000004
10
346.18167999999997
20
-43.242159000000001
10
346.15373999999997
20
-43.315818999999998
10
346.12580000000003
20
-43.389479000000001
10
346.09023999999999
20
-43.463138999999998
10
346.05467999999996
20
-43.536799000000002
10
346.01403999999997
20
-43.610459000000006
10
345.97086000000002
20
-43.68411900000001
10
345.92514
20
-43.755239000000003
10
345.87180000000001
20
-43.826359000000004
10
345.81846000000007
20
-43.897478999999997
10
345.75749999999999
20
-43.966059000000001
10
345.69400000000002
20
-44.032099000000002
10
345.62542000000002
20
-44.095599000000007
10
345.55430000000001
20
-44.159098999999998
10
345.47556000000009
20
-44.220059000000006
10
345.4273
20
-44.253079
10
345.37903999999997
20
-44.286099000000007
10
345.33078
20
-44.316579000000004
10
345.28252000000003
20
-44.344518999999998
10
345.23426000000001
20
-44.36991900000001
10
345.18346000000003
20
-44.395319000000001
10
345.1352
20
-44.418178999999995
10
345.08693999999997
20
-44.441039000000011
10
345.04122000000001
20
-44.461359000000009
10
344.99296000000004
20
-44.479139000000004
10
344.94470000000001
20
-44.494378999999995
10
344.89898000000005
20
-44.512159000000004
10
344.85326000000009
20
-44.524858999999999
10
344.80754000000002
20
-44.537559000000002
10
344.76182
20
-44.550259000000011
10
344.71864000000005
20
-44.56041900000001
10
344.67545999999999
20
-44.568038999999999
10
344.63481999999999
20
-44.578198999999998
10
344.59163999999998
20
-44.585819000000001
10
344.55100000000004
20
-44.590899000000007
10
344.5129
20
-44.595979
10
344.47480000000007
20
-44.601059000000006
10
344.43924000000004
20
-44.606138999999999
10
344.40368000000001
20
-44.608678999999995
10
344.36812000000003
20
-44.611219000000006
10
344.33510000000007
20
-44.613759000000002
10
344.30462
20
-44.613759000000002
10
344.27413999999999
20
-44.616298999999998
10
344.24619999999999
20
-44.616298999999998
10
344.2208
20
-44.616298999999998
10
344.19540000000006
20
-44.618839000000001
10
344.17254000000003
20
-44.618839000000001
10
344.17000000000002
20
-44.618839000000001
10
344.16746000000001
20
-44.618839000000001
10
344.16492
20
-44.618839000000001
10
344.16237999999998
20
-44.618839000000001
10
344.15984000000003
20
-44.618839000000001
10
344.15730000000002
20
-44.618839000000001
10
344.15476000000007
20
-44.618839000000001
10
344.15222
20
-44.618839000000001
10
344.14967999999999
20
-44.618839000000001
10
344.14713999999998
20
-44.618839000000001
10
344.14460000000008
20
-44.618839000000001
10
344.14206000000001
20
-44.618839000000001
10
344.13952
20
-44.618839000000001
10
344.13698000000005
20
-44.618839000000001
10
344.13443999999998
20
-44.618839000000001
10
344.13189999999997
20
-44.618839000000001
10
344.12936000000002
20
-44.618839000000001
10
344.12936000000002
20
-44.616298999999998
10
344.12682000000007
20
-44.616298999999998
10
344.09126000000009
20
-44.616298999999998
10
344.05570000000006
20
-44.616298999999998
10
344.02014000000003
20
-44.613759000000002
10
343.98457999999999
20
-44.611219000000006
10
343.94902000000002
20
-44.608678999999995
10
343.91345999999999
20
-44.606138999999999
10
343.87790000000001
20
-44.603598999999996
10
343.84233999999998
20
-44.598519000000003
10
343.80678
20
-44.593439000000004
10
343.77122000000008
20
-44.588359000000004
10
343.73566000000005
20
-44.580739000000008
10
343.70010000000002
20
-44.575659000000002
10
343.66453999999999
20
-44.568038999999999
10
343.62897999999996
20
-44.56041900000001
10
343.59342000000004
20
-44.552799
10
343.56040000000002
20
-44.545178999999997
10
343.52483999999998
20
-44.535018999999998
10
343.48928000000001
20
-44.527399000000003
10
343.45372000000003
20
-44.517239000000004
10
343.42070000000001
20
-44.504539000000001
10
343.38513999999998
20
-44.494378999999995
10
343.35212000000007
20
-44.484219000000003
10
343.31656000000004
20
-44.471519000000008
10
343.28354000000002
20
-44.458818999999998
10
343.25051999999999
20
-44.44611900000001
10
343.21496000000002
20
-44.430879000000004
10
343.18194
20
-44.418178999999995
10
343.14892000000009
20
-44.402939000000003
10
343.11590000000001
20
-44.387698999999998
10
343.08287999999999
20
-44.372458999999999
10
343.04986000000008
20
-44.357219000000001
10
343.01938000000001
20
-44.339438999999999
10
343.27846
20
-43.836519000000003
10
343.30385999999999
20
-43.849219000000005
10
343.32926000000009
20
-43.859379000000004
10
343.35466000000002
20
-43.872078999999999
10
343.38006000000001
20
-43.884778999999995
10
343.40546000000006
20
-43.894939000000008
10
343.43086
20
-43.905099000000007
10
343.4588
20
-43.915259000000006
10
343.48419999999999
20
-43.925419000000005
10
343.50959999999998
20
-43.935579000000004
10
343.53500000000003
20
-43.945739000000003
10
343.56293999999997
20
-43.953359000000006
10
343.58834000000002
20
-43.963518999999998
10
343.61627999999996
20
-43.971139000000001
10
343.64168000000001
20
-43.978759000000011
10
343.66962000000001
20
-43.986378999999999
10
343.69502000000006
20
-43.993999000000002
10
343.72296
20
-43.999078999999995
10
343.7509
20
-44.006698999999998
10
343.77630000000005
20
-44.011778999999997
10
343.80423999999999
20
-44.016859000000004
10
343.83217999999999
20
-44.021939000000003
10
343.85758000000004
20
-44.027019000000003
10
343.88552000000004
20
-44.029559000000013
10
343.91345999999999
20
-44.034638999999999
10
343.94139999999999
20
-44.037178999999995
10
343.96679999999998
20
-44.039719000000005
10
343.99473999999998
20
-44.042259000000001
10
344.02267999999998
20
-44.044798999999998
10
344.05062000000009
20
-44.047339000000001
10
344.07856000000004
20
-44.047339000000001
10
344.10396000000003
20
-44.047339000000001
10
344.13189999999997
20
-44.049879000000004
10
344.14713999999998
20
-44.049879000000004
10
344.16492
20
-44.049879000000004
10
344.18270000000001
20
-44.049879000000004
10
344.20302000000004
20
-44.049879000000004
10
344.22334000000001
20
-44.049879000000004
10
344.24619999999999
20
-44.047339000000001
10
344.27160000000003
20
-44.047339000000001
10
344.29700000000003
20
-44.044798999999998
10
344.32493999999997
20
-44.044798999999998
10
344.35288000000003
20
-44.042259000000001
10
344.38082000000003
20
-44.039719000000005
10
344.41129999999998
20
-44.034638999999999
10
344.44432
20
-44.032099000000002
10
344.47480000000007
20
-44.027019000000003
10
344.50782000000004
20
-44.021939000000003
10
344.54338000000001
20
-44.014319
10
344.57639999999998
20
-44.009239000000008
10
344.61196000000001
20
-43.999078999999995
10
344.64752000000004
20
-43.991459000000006
10
344.68562000000009
20
-43.981299
10
344.72118
20
-43.971139000000001
10
344.75928000000005
20
-43.958438999999998
10
344.79737999999998
20
-43.943199
10
344.83547999999996
20
-43.930499000000005
10
344.87358
20
-43.912719000000003
10
344.91168000000005
20
-43.897478999999997
10
344.94977999999998
20
-43.877159000000006
10
344.98787999999996
20
-43.856839000000001
10
345.02598
20
-43.836519000000003
10
345.06407999999999
20
-43.811118999999998
10
345.10218000000003
20
-43.788259000000011
10
345.13774000000006
20
-43.760319000000003
10
345.19616000000008
20
-43.714599000000007
10
345.25203999999997
20
-43.668879000000004
10
345.30284
20
-43.618078999999994
10
345.35109999999997
20
-43.567278999999999
10
345.39427999999998
20
-43.513939000000008
10
345.43492000000009
20
-43.460599000000002
10
345.47302000000002
20
-43.404719
10
345.50857999999999
20
-43.348839000000005
10
345.53906000000006
20
-43.290419
10
345.56954000000007
20
-43.234538999999998
10
345.59494000000001
20
-43.176119
10
345.62034000000006
20
-43.117699000000009
10
345.64066000000003
20
-43.059278999999997
10
345.66098000000005
20
-43.000859000000005
10
345.67622
20
-42.944978999999996
10
345.69146000000001
20
-42.886559000000013
10
345.70670000000001
20
-42.830678999999996
10
345.71686
20
-42.777339000000005
10
345.72702000000004
20
-42.723998999999999
10
345.73464000000001
20
-42.670659000000001
10
345.74226000000004
20
-42.622399000000001
10
345.74734000000001
20
-42.571599000000006
10
345.75242000000003
20
-42.525879000000003
10
345.75495999999998
20
-42.482698999999997
10
345.75749999999999
20
-42.442059
10
345.76004000000006
20
-42.401419000000004
10
345.76004000000006
20
-42.365859000000007
10
345.76004000000006
20
-42.332839
10
345.76004000000006
20
-42.304899000000006
10
345.76004000000006
20
-42.279499000000001
10
345.76004000000006
20
-42.256639
10
345.76004000000006
20
-42.238859000000005
10
345.75749999999999
20
-42.221079000000003
10
345.75749999999999
20
-42.203299000000001
10
345.75495999999998
20
-42.182978999999996
10
345.75495999999998
20
-42.160119000000009
10
345.75242000000003
20
-42.137259
10
345.74987999999996
20
-42.111859000000003
10
345.74734000000001
20
-42.083919000000009
10
345.7448
20
-42.055979000000001
10
345.73972000000003
20
-42.025499000000003
10
345.73464000000001
20
-41.995019000000006
10
345.72955999999999
20
-41.961998999999999
10
345.72448000000003
20
-41.928978999999998
10
345.71686
20
-41.893419000000009
10
345.70923999999997
20
-41.857859000000005
10
345.69907999999998
20
-41.822299000000001
10
345.69146000000001
20
-41.784199000000008
10
345.67876000000007
20
-41.746099000000001
10
345.66860000000008
20
-41.707999000000001
10
345.65336000000002
20
-41.667359000000005
10
345.64066000000003
20
-41.629259000000005
10
345.62288000000001
20
-41.588619000000008
10
345.60509999999999
20
-41.547978999999998
10
345.58732000000009
20
-41.507339000000002
10
345.56700000000001
20
-41.466698999999998
10
345.54414000000003
20
-41.423519000000006
10
345.52128000000005
20
-41.382879000000003
10
345.49588
20
-41.342239000000006
10
345.46794
20
-41.301598999999996
10
345.44000000000005
20
-41.260959
10
345.40952000000004
20
-41.220319000000003
10
345.37650000000008
20
-41.179679
10
345.34094000000005
20
-41.139039000000004
10
345.29522000000009
20
-41.090778999999998
10
345.24696
20
-41.045059000000002
10
345.19616000000008
20
-40.999338999999999
10
345.14535999999998
20
-40.958698999999996
10
345.09456
20
-40.920598999999996
10
345.04122000000001
20
-40.885038999999999
10
344.98534000000001
20
-40.849478999999995
10
344.92946000000006
20
-40.818998999999998
10
344.87358
20
-40.788519000000001
0
LWPOLYLINE
5
263
100
AcDbEntity
8
0
100
AcDbPolyline
90
14
70
1
43
0.0
10
372.35384000000005
20
-40.097639000000001
10
372.52402000000006
20
-40.097639000000001
10
373.94134000000003
20
-40.097639000000001
10
373.94134000000003
20
-40.666599000000005
10
372.9228
20
-40.666599000000005
10
372.9228
20
-42.807819000000002
10
373.45620000000002
20
-42.807819000000002
10
373.45620000000002
20
-43.376778999999999
10
372.9228
20
-43.376778999999999
10
372.9228
20
-44.143858999999999
10
373.94134000000003
20
-44.143858999999999
10
373.94134000000003
20
-44.712819000000003
10
372.52402000000006
20
-44.712819000000003
10
372.35384000000005
20
-44.712819000000003
0
LWPOLYLINE
5
264
100
AcDbEntity
8
0
100
AcDbPolyline
90
404
70
1
43
0.0
10
365.11992000000009
20
-40.542138999999999
10
365.16056000000003
20
-40.511659000000002
10
365.19866000000002
20
-40.481179000000004
10
365.24183999999997
20
-40.453239000000004
10
365.28247999999996
20
-40.422758999999999
10
365.32820000000004
20
-40.394818999999998
10
365.37137999999999
20
-40.366878999999997
10
365.4171
20
-40.338939000000011
10
365.46536000000003
20
-40.313538999999999
10
365.51362000000006
20
-40.288139000000001
10
365.56442000000004
20
-40.262739000000003
10
365.61522000000002
20
-40.237338999999999
10
365.66602
20
-40.214478999999997
10
365.71935999999999
20
-40.194158999999999
10
365.77524000000005
20
-40.171298999999998
10
365.83112
20
-40.150979
10
365.88700000000006
20
-40.133198999999998
10
365.94542000000001
20
-40.115419000000003
10
366.01146
20
-40.097639000000001
10
366.07750000000004
20
-40.082399000000002
10
366.14353999999997
20
-40.067159000000004
10
366.21466000000004
20
-40.054459000000008
10
366.28577999999999
20
-40.044299000000009
10
366.35690000000005
20
-40.03413900000001
10
366.43056000000001
20
-40.026519
10
366.50675999999999
20
-40.021439000000001
10
366.58296000000001
20
-40.018899000000005
10
366.65916000000004
20
-40.018899000000005
10
366.73790000000002
20
-40.021439000000001
10
366.81664000000006
20
-40.023978999999997
10
366.89537999999999
20
-40.031599
10
366.97665999999998
20
-40.03921900000001
10
367.05540000000008
20
-40.051918999999998
10
367.13667999999996
20
-40.064619000000008
10
367.21541999999999
20
-40.082399000000002
10
367.29669999999999
20
-40.102719
10
367.37797999999998
20
-40.125579000000002
10
367.45672000000008
20
-40.150979
10
367.53546
20
-40.181459000000004
10
367.61419999999998
20
-40.211939000000001
10
367.69293999999996
20
-40.250039000000008
10
367.77168000000006
20
-40.288139000000001
10
367.84787999999998
20
-40.331319000000001
10
367.92154000000005
20
-40.377039000000003
10
367.99774000000002
20
-40.427838999999999
10
368.06886000000009
20
-40.481179000000004
10
368.13997999999998
20
-40.53959900000001
10
368.21109999999999
20
-40.600559000000011
10
368.27967999999998
20
-40.666599000000005
10
368.34572000000003
20
-40.737718999999998
10
368.37620000000004
20
-40.773278999999995
10
368.40667999999999
20
-40.808838999999999
10
368.43716000000001
20
-40.846939000000006
10
368.46764000000002
20
-40.885038999999999
10
368.49557999999996
20
-40.923138999999999
10
368.52352000000002
20
-40.961239000000006
10
368.54892000000001
20
-41.001879000000002
10
368.57432000000006
20
-41.042519000000006
10
368.59971999999999
20
-41.083159000000002
10
368.62257999999997
20
-41.123798999999998
10
368.64544000000001
20
-41.166978999999998
10
368.66576000000003
20
-41.207619000000008
10
368.68862000000001
20
-41.253339000000004
10
368.70640000000003
20
-41.296519000000004
10
368.72672
20
-41.339698999999996
10
368.74450000000002
20
-41.385418999999999
10
368.76227999999998
20
-41.431139000000002
10
368.7775200000001
20
-41.476859000000005
10
368.79275999999999
20
-41.525119000000004
10
368.80799999999999
20
-41.573379000000003
10
368.82069999999999
20
-41.621639000000002
10
368.83339999999998
20
-41.669899000000001
10
368.84610000000004
20
-41.718159
10
368.85626000000002
20
-41.768959000000009
10
368.86642000000001
20
-41.819759000000005
10
368.87403999999998
20
-41.870559
10
368.88420000000002
20
-41.921359000000002
10
368.88927999999999
20
-41.974699000000008
10
368.89690000000002
20
-42.025499000000003
10
368.90197999999998
20
-42.078839000000002
10
368.90452000000005
20
-42.134719000000004
10
368.90960000000001
20
-42.188059000000003
10
368.90960000000001
20
-42.221079000000003
10
368.91213999999997
20
-42.256639
10
368.91213999999997
20
-42.294739000000007
10
368.91213999999997
20
-42.337918999999999
10
368.91213999999997
20
-42.386179000000006
10
368.90960000000001
20
-42.436979000000001
10
368.90706
20
-42.490319
10
368.90197999999998
20
-42.546199000000009
10
368.89690000000002
20
-42.604619
10
368.89182
20
-42.665579000000008
10
368.88166000000007
20
-42.731619000000009
10
368.87150000000008
20
-42.795119
10
368.85879999999997
20
-42.863698999999997
10
368.84610000000004
20
-42.932279000000008
10
368.82832000000002
20
-43.003399000000002
10
368.81054
20
-43.074519000000002
10
368.78768000000002
20
-43.148179000000006
10
368.76482000000004
20
-43.221839000000003
10
368.73688000000004
20
-43.295499
10
368.70640000000003
20
-43.369159000000003
10
368.67338000000007
20
-43.442819
10
368.63782000000009
20
-43.516478999999997
10
368.59717999999998
20
-43.590139000000001
10
368.55399999999997
20
-43.663798999999997
10
368.50574
20
-43.734919000000005
10
368.45493999999997
20
-43.806038999999998
10
368.39906000000008
20
-43.877159000000006
10
368.34064000000006
20
-43.943199
10
368.27714000000003
20
-44.011778999999997
10
368.20856000000003
20
-44.075278999999995
10
368.13490000000002
20
-44.138779
10
368.05869999999999
20
-44.197198999999998
10
368.01044000000002
20
-44.232759000000001
10
367.96218000000005
20
-44.265778999999995
10
367.91138000000001
20
-44.296259000000006
10
367.86312000000004
20
-44.324199
10
367.81486000000001
20
-44.349598999999998
10
367.76659999999998
20
-44.374999000000003
10
367.71834000000007
20
-44.397859000000004
10
367.67007999999998
20
-44.420719000000005
10
367.62182000000001
20
-44.438499
10
367.5761
20
-44.458818999999998
10
367.52783999999997
20
-44.474059000000004
10
367.48212000000001
20
-44.489299000000003
10
367.43639999999999
20
-44.504539000000001
10
367.39067999999997
20
-44.517239000000004
10
367.34496000000001
20
-44.529938999999999
10
367.30178000000001
20
-44.540098999999998
10
367.25860000000006
20
-44.547719000000001
10
367.21541999999999
20
-44.557879
10
367.17478
20
-44.562958999999999
10
367.13414
20
-44.570578999999995
10
367.09604000000007
20
-44.575659000000002
10
367.05793999999997
20
-44.580739000000008
10
367.01984000000004
20
-44.583278999999997
10
366.98428000000001
20
-44.588359000000004
10
366.95126000000005
20
-44.590899000000007
10
366.91823999999997
20
-44.593439000000004
10
366.88776000000007
20
-44.593439000000004
10
366.85728000000006
20
-44.595979
10
366.82934
20
-44.595979
10
366.8014
20
-44.595979
10
366.77853999999996
20
-44.595979
10
366.75567999999998
20
-44.595979
10
366.75314000000003
20
-44.595979
10
366.75060000000002
20
-44.595979
10
366.74806000000001
20
-44.595979
10
366.74552
20
-44.595979
10
366.74297999999999
20
-44.595979
10
366.74044000000004
20
-44.595979
10
366.73790000000002
20
-44.595979
10
366.73536000000007
20
-44.595979
10
366.73282
20
-44.595979
10
366.73027999999999
20
-44.595979
10
366.72773999999998
20
-44.595979
10
366.72519999999997
20
-44.595979
10
366.72266000000002
20
-44.595979
10
366.72012000000001
20
-44.595979
10
366.71758000000005
20
-44.595979
10
366.71503999999999
20
-44.595979
10
366.71249999999998
20
-44.595979
10
366.70996000000002
20
-44.595979
10
366.67439999999999
20
-44.595979
10
366.63884000000002
20
-44.595979
10
366.60327999999998
20
-44.593439000000004
10
366.56772000000001
20
-44.590899000000007
10
366.53216000000009
20
-44.588359000000004
10
366.49660000000006
20
-44.585819000000001
10
366.46104000000003
20
-44.580739000000008
10
366.42547999999999
20
-44.578198999999998
10
366.38992000000002
20
-44.573118999999998
10
366.35435999999999
20
-44.568038999999999
10
366.31880000000001
20
-44.56041900000001
10
366.28323999999998
20
-44.555339000000004
10
366.24768000000006
20
-44.547719000000001
10
366.21212000000008
20
-44.540098999999998
10
366.17656000000005
20
-44.532479000000002
10
366.14100000000002
20
-44.524858999999999
10
366.10543999999999
20
-44.514699
10
366.07242000000008
20
-44.504539000000001
10
366.03686000000005
20
-44.494378999999995
10
366.00130000000001
20
-44.484219000000003
10
365.96828000000005
20
-44.474059000000004
10
365.93272000000007
20
-44.461359000000009
10
365.8997
20
-44.45119900000001
10
365.86667999999997
20
-44.438499
10
365.83112
20
-44.425798999999998
10
365.79810000000003
20
-44.410559000000006
10
365.76507999999995
20
-44.397859000000004
10
365.73205999999999
20
-44.382618999999998
10
365.69904000000002
20
-44.367379
10
365.66602
20
-44.352139000000001
10
365.63299999999998
20
-44.336899000000003
10
365.59998000000002
20
-44.319119000000001
10
365.86160000000001
20
-43.813659000000001
10
365.88700000000006
20
-43.826359000000004
10
365.91239999999999
20
-43.839059000000013
10
365.93780000000004
20
-43.851759000000001
10
365.96319999999997
20
-43.864459000000011
10
365.98860000000002
20
-43.87461900000001
10
366.01400000000007
20
-43.884778999999995
10
366.0394
20
-43.894939000000008
10
366.06479999999999
20
-43.905099000000007
10
366.09273999999999
20
-43.915259000000006
10
366.11814000000004
20
-43.925419000000005
10
366.14353999999997
20
-43.933039000000001
10
366.17147999999997
20
-43.943199
10
366.19687999999996
20
-43.950819000000003
10
366.22482000000002
20
-43.958438999999998
10
366.25022000000001
20
-43.966059000000001
10
366.27816000000001
20
-43.971139000000001
10
366.30610000000001
20
-43.978759000000011
10
366.33150000000001
20
-43.983839000000003
10
366.35944000000001
20
-43.991459000000006
10
366.38738000000001
20
-43.996538999999999
10
366.41278
20
-44.001618999999998
10
366.44072
20
-44.004159000000001
10
366.46866
20
-44.009239000000008
10
366.49405999999999
20
-44.014319
10
366.52199999999999
20
-44.016859000000004
10
366.54993999999999
20
-44.019399000000007
10
366.57788000000005
20
-44.021939000000003
10
366.60581999999999
20
-44.024478999999999
10
366.6312200000001
20
-44.024478999999999
10
366.65916000000004
20
-44.027019000000003
10
366.68709999999999
20
-44.027019000000003
10
366.71503999999999
20
-44.027019000000003
10
366.73027999999999
20
-44.029559000000013
10
366.74552
20
-44.029559000000013
10
366.76583999999997
20
-44.029559000000013
10
366.78362000000004
20
-44.029559000000013
10
366.80647999999997
20
-44.027019000000003
10
366.82934
20
-44.027019000000003
10
366.85473999999999
20
-44.027019000000003
10
366.88014000000004
20
-44.024478999999999
10
366.90553999999997
20
-44.024478999999999
10
366.93348000000003
20
-44.021939000000003
10
366.96395999999999
20
-44.019399000000007
10
366.99444
20
-44.014319
10
367.02492000000001
20
-44.011778999999997
10
367.05793999999997
20
-44.006698999999998
10
367.09096
20
-44.001618999999998
10
367.12398000000002
20
-43.993999000000002
10
367.15954000000005
20
-43.986378999999999
10
367.19510000000008
20
-43.978759000000011
10
367.23066000000006
20
-43.971139000000001
10
367.26622000000009
20
-43.960979000000002
10
367.30432000000002
20
-43.948278999999999
10
367.34242
20
-43.938119
10
367.37797999999998
20
-43.922878999999995
10
367.41607999999997
20
-43.907639000000003
10
367.45418000000001
20
-43.892398999999997
10
367.49228000000005
20
-43.87461900000001
10
367.53037999999998
20
-43.856839000000001
10
367.56847999999997
20
-43.836519000000003
10
367.60658000000001
20
-43.813659000000001
10
367.64467999999999
20
-43.790799
10
367.68278000000004
20
-43.765399000000002
10
367.72087999999997
20
-43.739999000000005
10
367.77929999999998
20
-43.694278999999995
10
367.83263999999997
20
-43.646019000000003
10
367.88344000000001
20
-43.597759000000011
10
367.93169999999998
20
-43.546959000000001
10
367.97742
20
-43.49361900000001
10
368.01805999999999
20
-43.440278999999997
10
368.05362000000002
20
-43.384399000000002
10
368.08918
20
-43.328519000000007
10
368.12220000000002
20
-43.270099000000002
10
368.15013999999996
20
-43.211678999999997
10
368.17808000000002
20
-43.155799000000002
10
368.20094000000006
20
-43.097379000000004
10
368.22380000000004
20
-43.038959000000006
10
368.24158000000006
20
-42.980539
10
368.25936000000007
20
-42.922119000000009
10
368.27460000000002
20
-42.866239000000007
10
368.28730000000002
20
-42.810359000000005
10
368.30000000000007
20
-42.757019000000007
10
368.31016
20
-42.703679000000001
10
368.31777999999997
20
-42.650339000000002
10
368.3254
20
-42.599539
10
368.33047999999997
20
-42.551279000000008
10
368.33555999999999
20
-42.505559000000012
10
368.3381
20
-42.462378999999999
10
368.34064000000006
20
-42.419198999999999
10
368.34317999999996
20
-42.381099000000006
10
368.34317999999996
20
-42.345539000000009
10
368.34317999999996
20
-42.312519000000002
10
368.34317999999996
20
-42.284579000000008
10
368.34317999999996
20
-42.259178999999996
10
368.34317999999996
20
-42.236319000000002
10
368.34064000000006
20
-42.218539
10
368.34064000000006
20
-42.200759000000005
10
368.3381
20
-42.182978999999996
10
368.3381
20
-42.162659000000005
10
368.33555999999999
20
-42.139798999999996
10
368.33555999999999
20
-42.116939000000002
10
368.33302000000003
20
-42.091539000000004
10
368.33047999999997
20
-42.063598999999996
10
368.3254
20
-42.035659000000003
10
368.32286000000005
20
-42.005179000000005
10
368.31777999999997
20
-41.974699000000008
10
368.31270000000006
20
-41.941679000000001
10
368.30508000000003
20
-41.908659
10
368.30000000000007
20
-41.873098999999996
10
368.29237999999998
20
-41.837539
10
368.28222000000005
20
-41.801978999999996
10
368.27206000000001
20
-41.763879000000003
10
368.26190000000003
20
-41.725778999999996
10
368.24919999999997
20
-41.687678999999996
10
368.23649999999998
20
-41.647038999999999
10
368.22126000000003
20
-41.606398999999996
10
368.20602000000002
20
-41.568298999999996
10
368.18824000000001
20
-41.527659
10
368.17045999999999
20
-41.487019000000004
10
368.15013999999996
20
-41.443839000000004
10
368.12727999999998
20
-41.403199000000008
10
368.10442
20
-41.362559000000012
10
368.07902000000007
20
-41.321919000000008
10
368.05107999999996
20
-41.281278999999998
10
368.02314000000001
20
-41.238099000000005
10
367.99266
20
-41.197459000000009
10
367.95963999999998
20
-41.159359000000002
10
367.92408
20
-41.118718999999999
10
367.87835999999999
20
-41.070459
10
367.83010000000002
20
-41.022199000000008
10
367.77929999999998
20
-40.979019000000001
10
367.7285
20
-40.938378999999998
10
367.67516000000001
20
-40.900278999999998
10
367.62182000000001
20
-40.862179000000005
10
367.56847999999997
20
-40.829159000000004
10
367.51260000000002
20
-40.798679
10
367.45418000000001
20
-40.768198999999996
10
367.39830000000006
20
-40.742798999999998
10
367.33988000000005
20
-40.717399
10
367.27892000000003
20
-40.694538999999999
10
367.22050000000002
20
-40.676759000000004
10
367.15954000000005
20
-40.658978999999995
10
367.09857999999997
20
-40.641199000000007
10
367.04016000000001
20
-40.628498999999998
10
366.97920000000005
20
-40.615798999999996
10
366.91823999999997
20
-40.608179
10
366.85473999999999
20
-40.600559000000011
10
366.79377999999997
20
-40.592939000000001
10
366.73536000000007
20
-40.590399000000005
10
366.67439999999999
20
-40.587859000000002
10
366.61343999999997
20
-40.587859000000002
10
366.55502000000007
20
-40.590399000000005
10
366.49405999999999
20
-40.592939000000001
10
366.43563999999998
20
-40.598019000000001
10
366.37722000000002
20
-40.605639000000011
10
366.32134000000002
20
-40.613258999999999
10
366.26546000000008
20
-40.623418999999998
10
366.20957999999996
20
-40.633578999999997
10
366.15623999999997
20
-40.646279000000007
10
366.10543999999999
20
-40.661519000000006
10
366.05717999999996
20
-40.676759000000004
10
366.01146
20
-40.691999000000003
10
365.96573999999998
20
-40.707239000000001
10
365.92256000000009
20
-40.725019000000003
10
365.87938000000003
20
-40.742798999999998
10
365.83620000000002
20
-40.763119000000003
10
365.79556000000002
20
-40.783439000000001
10
365.75746000000004
20
-40.803758999999999
10
365.71935999999999
20
-40.824078999999998
10
365.68126000000001
20
-40.846939000000006
10
365.64316000000008
20
-40.869799
10
365.61014
20
-40.892659000000002
10
365.57457999999997
20
-40.915519000000003
10
365.54156
20
-40.938378999999998
10
365.50854000000004
20
-40.963778999999995
10
365.47806000000003
20
-40.986639000000011
10
365.44757999999996
20
-41.012039000000009
10
365.41964000000002
20
-41.034898999999996
10
365.39170000000007
20
-41.060299000000001
10
365.36376000000007
20
-41.083159000000002
10
365.33836000000002
20
-41.108559
10
365.31296000000003
20
-41.131419000000008
10
365.2901
20
-41.154278999999995
10
365.26724000000002
20
-41.179679
10
365.24437999999998
20
-41.202539000000009
10
365.22406000000001
20
-41.222859000000007
10
365.20627999999999
20
-41.245719000000001
10
365.18596000000002
20
-41.268579000000003
10
365.16818000000001
20
-41.288899000000001
10
365.15294000000006
20
-41.309218999999999
10
365.1377
20
-41.326999000000001
10
365.12245999999999
20
-41.347318999999999
10
364.67287999999996
20
-40.999338999999999
10
364.69320000000005
20
-40.971399000000005
10
364.71859999999998
20
-40.940919000000008
10
364.74146000000007
20
-40.912979
10
364.76686000000001
20
-40.882499000000003
10
364.79480000000001
20
-40.852019000000006
10
364.82274000000007
20
-40.821539000000008
10
364.85068000000001
20
-40.791059000000011
10
364.88116000000002
20
-40.760579000000007
10
364.91163999999998
20
-40.727558999999999
10
364.94212000000005
20
-40.697079000000002
10
364.97768000000002
20
-40.666599000000005
10
365.01069999999999
20
-40.633578999999997
10
365.04626000000002
20
-40.603099
10
365.08181999999999
20
-40.572619000000003
0
SPLINE
5
265
100
AcDbEntity
8
0
100
AcDbSpline
70
0
71
3
72
8
73
4
74
0
42
0.000000001
43
0.0000000001
44
0.0000000001
40
0
40
0
40
0
40
0
40
1
40
1
40
1
40
1
10
222.49993599999999
20
-49.648801000000006
30
0
10
222.50000299999999
20
-48.268093000000007
30
0
10
221.380776
20
-47.148752000000009
30
0
10
220.00006800000006
20
-47.148679000000008
30
0
0
LINE
5
266
100
AcDbEntity
8
0
100
AcDbLine
10
219.99956
20
-47.148679000000008
30
0
11
184.99836000000002
21
-47.148679000000008
31
0
0
SPLINE
5
267
100
AcDbEntity
8
0
100
AcDbSpline
70
0
71
3
72
8
73
4
74
0
42
0.000000001
43
0.0000000001
44
0.0000000001
40
0
40
0
40
0
40
0
40
1
40
1
40
1
40
1
10
184.99988400000004
20
-47.148679000000008
30
0
10
183.61917600000001
20
-47.148752000000009
30
0
10
182.49994900000002
20
-48.268093000000007
30
0
10
182.50001600000002
20
-49.648801000000006
30
0
0
SPLINE
5
268
100
AcDbEntity
8
0
100
AcDbSpline
70
0
71
3
72
8
73
4
74
0
42
0.000000001
43
0.0000000001
44
0.0000000001
40
0
40
0
40
0
40
0
40
1
40
1
40
1
40
1
10
182.50001600000002
20
-134.64888500000001
30
0
10
182.500089
20
-136.029494
30
0
10
183.61927500000002
20
-137.14868000000001
30
0
10
184.99988400000004
20
-137.148753
30
0
0
LINE
5
269
100
AcDbEntity
8
0
100
AcDbLine
10
219.99956
20
-137.14849899999999
30
0
11
184.99836000000002
21
-137.14849899999999
31
0
0
SPLINE
5
270
100
AcDbEntity
8
0
100
AcDbSpline
70
0
71
3
72
8
73
4
74
0
42
0.000000001
43
0.0000000001
44
0.0000000001
40
0
40
0
40
0
40
0
40
1
40
1
40
1
40
1
10
220.00006800000006
20
-137.148753
30
0
10
221.38067699999999
20
-137.14868000000001
30
0
10
222.499863
20
-136.029494
30
0
10
222.49993599999999
20
-134.64888500000001
30
0
0
LWPOLYLINE
5
271
100
AcDbEntity
8
0
100
AcDbPolyline
90
12
70
1
43
0.0
10
353.34193999999997
20
-41.408279000000007
10
353.91090000000008
20
-41.408279000000007
10
353.91090000000008
20
-44.519779
10
353.34193999999997
20
-44.519779
10
353.34193999999997
20
-43.247239000000008
10
352.16592000000003
20
-43.247239000000008
10
352.16592000000003
20
-44.519779
10
351.59950000000003
20
-44.519779
10
351.59950000000003
20
-40.255119000000008
10
352.16592000000003
20
-40.255119000000008
10
352.16592000000003
20
-42.678278999999996
10
353.34193999999997
20
-42.678278999999996
0
LWPOLYLINE
5
272
100
AcDbEntity
8
0
100
AcDbPolyline
90
4
70
1
43
0.0
10
74.998580000000004
20
-49.648039000000004
10
74.998580000000004
20
-34.646799000000001
10
179.99964000000003
20
-34.646799000000001
10
179.99964000000003
20
-49.648039000000004
0
LWPOLYLINE
5
273
100
AcDbEntity
8
0
100
AcDbPolyline
90
4
70
1
43
0.0
10
339.99932000000001
20
-34.646799000000001
10
339.99932000000001
20
-49.648039000000004
10
224.99828000000002
20
-49.648039000000004
10
224.99828000000002
20
-34.646799000000001
0
SPLINE
5
274
100
AcDbEntity
8
0
100
AcDbSpline
70
0
71
3
72
8
73
4
74
0
42
0.000000001
43
0.0000000001
44
0.0000000001
40
0
40
0
40
0
40
0
40
1
40
1
40
1
40
1
10
18.964496
20
-163.18426700000001
30
0
10
19.902192000000003
20
-164.121949
30
0
10
21.173979000000003
20
-164.64872299999999
30
0
10
22.500071999999996
20
-164.64870300000001
30
0
0
LINE
5
275
100
AcDbEntity
8
0
100
AcDbLine
10
397.49858000000006
20
-159.648459
30
0
11
397.49858000000006
21
-24.648719000000003
31
0
0
SPLINE
5
276
100
AcDbEntity
8
0
100
AcDbSpline
70
0
71
3
72
8
73
4
74
0
42
0.000000001
43
0.0000000001
44
0.0000000001
40
0
40
0
40
0
40
0
40
1
40
1
40
1
40
1
10
18.964514000000001
20
-21.113198000000001
30
0
10
18.026819
20
-22.050868999999999
30
0
10
17.500019000000005
20
-23.322635000000002
30
0
10
17.500005999999999
20
-24.648719000000003
30
0
0
LWPOLYLINE
5
277
100
AcDbEntity
8
0
100
AcDbPolyline
90
5
70
1
43
0.0
10
54.998620000000003
20
-34.646799000000001
10
54.998620000000003
20
-54.646758999999996
10
37.498020000000011
20
-54.646758999999996
10
34.998660000000001
20
-54.646758999999996
10
34.998660000000001
20
-34.646799000000001
0
SPLINE
5
278
100
AcDbEntity
8
0
100
AcDbSpline
70
0
71
3
72
8
73
4
74
0
42
0.000000001
43
0.0000000001
44
0.0000000001
40
0
40
0
40
0
40
0
40
1
40
1
40
1
40
1
10
17.500005999999999
20
-159.64871299999999
30
0
10
17.500005999999999
20
-160.974806
30
0
10
18.026799000000004
20
-162.24658400000004
30
0
10
18.964496
20
-163.18426700000001
30
0
0
SPLINE
5
279
100
AcDbEntity
8
0
100
AcDbSpline
70
0
71
3
72
8
73
4
74
0
42
0.000000001
43
0.0000000001
44
0.0000000001
40
0
40
0
40
0
40
0
40
1
40
1
40
1
40
1
10
200.73221200000003
20
-145.2106
30
0
10
199.63831600000003
20
-144.579038
30
0
10
198.964448
20
-143.41186499999998
30
0
10
198.964448
20
-142.148743
30
0
0
SPLINE
5
280
100
AcDbEntity
8
0
100
AcDbSpline
70
0
71
3
72
8
73
4
74
0
42
0.000000001
43
0.0000000001
44
0.0000000001
40
0
40
0
40
0
40
0
40
1
40
1
40
1
40
1
10
397.50112000000001
20
-24.648719000000003
30
0
10
397.50110699999999
20
-23.322427999999999
30
0
10
396.97414300000003
20
-22.050481000000005
30
0
10
396.03619000000003
20
-21.112776000000004
30
0
0
SPLINE
5
281
100
AcDbEntity
8
0
100
AcDbSpline
70
0
71
3
72
8
73
4
74
0
42
0.000000001
43
0.0000000001
44
0.0000000001
40
0
40
0
40
0
40
0
40
1
40
1
40
1
40
1
10
206.03550400000003
20
-142.148743
30
0
10
206.03550400000003
20
-143.41186499999998
30
0
10
205.36163600000003
20
-144.579038
30
0
10
204.26774
20
-145.2106
30
0
0
SPLINE
5
282
100
AcDbEntity
8
0
100
AcDbSpline
70
0
71
3
72
8
73
4
74
0
42
0.000000001
43
0.0000000001
44
0.0000000001
40
0
40
0
40
0
40
0
40
1
40
1
40
1
40
1
10
204.26774
20
-145.2106
30
0
10
203.17384400000003
20
-145.842161
30
0
10
201.82610800000003
20
-145.842161
30
0
10
200.73221200000003
20
-145.2106
30
0
0
SPLINE
5
283
100
AcDbEntity
8
0
100
AcDbSpline
70
0
71
3
72
8
73
4
74
0
42
0.000000001
43
0.0000000001
44
0.0000000001
40
0
40
0
40
0
40
0
40
1
40
1
40
1
40
1
10
198.964448
20
-142.148743
30
0
10
198.964448
20
-140.88562099999999
30
0
10
199.63831600000003
20
-139.718447
30
0
10
200.73221200000003
20
-139.08688600000002
30
0
0
SPLINE
5
284
100
AcDbEntity
8
0
100
AcDbSpline
70
0
71
3
72
8
73
4
74
0
42
0.000000001
43
0.0000000001
44
0.0000000001
40
0
40
0
40
0
40
0
40
1
40
1
40
1
40
1
10
204.26774
20
-139.08688600000002
30
0
10
205.36163600000003
20
-139.718447
30
0
10
206.03550400000003
20
-140.88562099999999
30
0
10
206.03550400000003
20
-142.148743
30
0
0
SPLINE
5
285
100
AcDbEntity
8
0
100
AcDbSpline
70
0
71
3
72
8
73
4
74
0
42
0.000000001
43
0.0000000001
44
0.0000000001
40
0
40
0
40
0
40
0
40
1
40
1
40
1
40
1
10
22.500071999999996
20
-19.648780000000002
30
0
10
21.173988000000001
20
-19.648758999999998
30
0
10
19.902209000000003
20
-20.175526999999999
30
0
10
18.964514000000001
20
-21.113198000000001
30
0
0
SPLINE
5
286
100
AcDbEntity
8
0
100
AcDbSpline
70
0
71
3
72
8
73
4
74
0
42
0.000000001
43
0.0000000001
44
0.0000000001
40
0
40
0
40
0
40
0
40
1
40
1
40
1
40
1
10
396.03619000000003
20
-21.112776000000004
30
0
10
395.09823699999998
20
-20.175070000000002
30
0
10
393.82615100000004
20
-19.648443
30
0
10
392.49986000000007
20
-19.648780000000002
30
0
0
SPLINE
5
287
100
AcDbEntity
8
0
100
AcDbSpline
70
0
71
3
72
8
73
4
74
0
42
0.000000001
43
0.0000000001
44
0.0000000001
40
0
40
0
40
0
40
0
40
1
40
1
40
1
40
1
10
200.73221200000003
20
-139.08688600000002
30
0
10
201.82610800000003
20
-138.45532499999999
30
0
10
203.17384400000003
20
-138.45532499999999
30
0
10
204.26774
20
-139.08688600000002
30
0
0
LWPOLYLINE
5
288
100
AcDbEntity
8
0
100
AcDbPolyline
90
404
70
1
43
0.0
10
356.16642000000007
20
-44.105759000000006
10
356.18928000000005
20
-44.105759000000006
10
356.21467999999999
20
-44.105759000000006
10
356.24007999999998
20
-44.103219000000003
10
356.26548000000003
20
-44.100679000000007
10
356.29596000000004
20
-44.100679000000007
10
356.32389999999998
20
-44.098139000000003
10
356.35437999999999
20
-44.093059000000004
10
356.38486
20
-44.090519000000008
10
356.41787999999997
20
-44.085439000000008
10
356.45090000000005
20
-44.080359000000009
10
356.48646000000008
20
-44.072738999999999
10
356.51947999999999
20
-44.06511900000001
10
356.55504000000002
20
-44.057499
10
356.59060000000005
20
-44.049879000000004
10
356.62869999999998
20
-44.039719000000005
10
356.66426000000001
20
-44.027019000000003
10
356.70236
20
-44.014319
10
356.74045999999998
20
-44.001618999999998
10
356.77602000000002
20
-43.986378999999999
10
356.81412
20
-43.971139000000001
10
356.85476
20
-43.953359000000006
10
356.89286000000004
20
-43.935579000000004
10
356.93096000000003
20
-43.915259000000006
10
356.96906000000007
20
-43.892398999999997
10
357.00716
20
-43.86953900000001
10
357.04272000000003
20
-43.844138999999998
10
357.08082000000002
20
-43.818739000000008
10
357.13923999999997
20
-43.773018999999998
10
357.19512000000003
20
-43.724759000000006
10
357.24592000000001
20
-43.676499
10
357.29163999999997
20
-43.625698999999997
10
357.33735999999999
20
-43.572359000000006
10
357.37799999999999
20
-43.519019000000007
10
357.41610000000003
20
-43.463138999999998
10
357.44911999999999
20
-43.40725900000001
10
357.48214000000007
20
-43.348839000000005
10
357.51008000000002
20
-43.290419
10
357.53802000000002
20
-43.234538999999998
10
357.56088
20
-43.176119
10
357.58373999999998
20
-43.117699000000009
10
357.60151999999999
20
-43.059278999999997
10
357.61930000000001
20
-43.000859000000005
10
357.63454000000002
20
-42.944978999999996
10
357.64724000000001
20
-42.889099000000002
10
357.65994000000001
20
-42.83575900000001
10
357.67009999999999
20
-42.779879000000001
10
357.67772000000002
20
-42.729078999999999
10
357.68534
20
-42.678278999999996
10
357.69042000000007
20
-42.630018999999997
10
357.69550000000004
20
-42.584299000000001
10
357.69803999999999
20
-42.541119000000009
10
357.70058
20
-42.497939000000002
10
357.70312000000001
20
-42.459839000000002
10
357.70312000000001
20
-42.424278999999999
10
357.70312000000001
20
-42.391259000000005
10
357.70312000000001
20
-42.363318999999997
10
357.70312000000001
20
-42.335379000000003
10
357.70312000000001
20
-42.315059000000012
10
357.70058
20
-42.297278999999996
10
357.70058
20
-42.279499000000001
10
357.70058
20
-42.261718999999999
10
357.69803999999999
20
-42.241399000000001
10
357.69803999999999
20
-42.218539
10
357.69550000000004
20
-42.193139000000002
10
357.69296000000003
20
-42.167739000000005
10
357.69042000000007
20
-42.142339
10
357.68534
20
-42.114399000000006
10
357.68279999999999
20
-42.083919000000009
10
357.67772000000002
20
-42.050899000000001
10
357.67264000000006
20
-42.020419000000004
10
357.66756000000009
20
-41.984859000000007
10
357.65994000000001
20
-41.951839
10
357.65232000000003
20
-41.916278999999996
10
357.64215999999999
20
-41.878178999999996
10
357.63200000000006
20
-41.842618999999999
10
357.62183999999996
20
-41.804519000000006
10
357.60914000000002
20
-41.763879000000003
10
357.59644000000003
20
-41.725778999999996
10
357.58120000000008
20
-41.685138999999999
10
357.56596000000002
20
-41.644499000000003
10
357.54818
20
-41.603859000000007
10
357.53039999999999
20
-41.563219000000011
10
357.51008000000002
20
-41.522579000000007
10
357.48722000000009
20
-41.481939000000011
10
357.46436000000006
20
-41.441299000000001
10
357.43896000000001
20
-41.400659000000005
10
357.41102000000006
20
-41.357478999999998
10
357.38308000000006
20
-41.316839000000002
10
357.35260000000005
20
-41.276198999999998
10
357.31957999999997
20
-41.238099000000005
10
357.28402000000006
20
-41.197459000000009
10
357.23829999999998
20
-41.149198999999996
10
357.19004000000007
20
-41.100939000000011
10
357.13923999999997
20
-41.057759000000004
10
357.08843999999999
20
-41.017119000000008
10
357.03764000000001
20
-40.979019000000001
10
356.98176000000001
20
-40.940919000000008
10
356.92842000000007
20
-40.907899
10
356.87254000000001
20
-40.877419000000003
10
356.81666000000001
20
-40.846939000000006
10
356.75824
20
-40.821539000000008
10
356.69982000000005
20
-40.796139000000011
10
356.64139999999998
20
-40.773278999999995
10
356.58044000000007
20
-40.752959000000004
10
356.51947999999999
20
-40.735178999999995
10
356.46106000000003
20
-40.719939000000011
10
356.40010000000007
20
-40.707239000000001
10
356.33913999999999
20
-40.694538999999999
10
356.27817999999996
20
-40.686919000000003
10
356.21722
20
-40.679299
10
356.15626000000009
20
-40.671679000000005
10
356.09530000000001
20
-40.669139000000001
10
356.03433999999999
20
-40.666599000000005
10
355.97338000000002
20
-40.666599000000005
10
355.91496000000001
20
-40.669139000000001
10
355.85399999999998
20
-40.671679000000005
10
355.79557999999997
20
-40.676759000000004
10
355.73970000000003
20
-40.684379
10
355.68127999999996
20
-40.691999000000003
10
355.62540000000007
20
-40.702159000000002
10
355.57206000000002
20
-40.712319000000001
10
355.51617999999996
20
-40.725019000000003
10
355.46537999999998
20
-40.740259000000009
10
355.41712000000007
20
-40.755499
10
355.37139999999999
20
-40.770739000000006
10
355.32567999999998
20
-40.785978999999998
10
355.28250000000008
20
-40.803758999999999
10
355.23932000000002
20
-40.821539000000008
10
355.19867999999997
20
-40.841859000000007
10
355.15803999999997
20
-40.862179000000005
10
355.11739999999998
20
-40.882499000000003
10
355.07929999999999
20
-40.902819000000001
10
355.0412
20
-40.925678999999995
10
355.00563999999997
20
-40.948539000000004
10
354.97008
20
-40.971399000000005
10
354.93452000000002
20
-40.994259
10
354.9015
20
-41.017119000000008
10
354.86848000000003
20
-41.039978999999995
10
354.83800000000002
20
-41.065379
10
354.80752000000001
20
-41.088239000000002
10
354.77957999999995
20
-41.113638999999999
10
354.75164000000001
20
-41.139039000000004
10
354.72370000000006
20
-41.161899000000005
10
354.69830000000002
20
-41.187298999999996
10
354.67290000000003
20
-41.210159000000004
10
354.65003999999999
20
-41.233019000000006
10
354.62717999999995
20
-41.255879
10
354.60432000000003
20
-41.281278999999998
10
354.58400000000006
20
-41.301598999999996
10
354.56622000000004
20
-41.324459000000004
10
354.54590000000002
20
-41.344778999999996
10
354.52812
20
-41.367639000000011
10
354.51288
20
-41.387959000000009
10
354.49764000000005
20
-41.405739000000004
10
354.48239999999998
20
-41.426059000000002
10
354.03282000000002
20
-41.078079000000002
10
354.05568000000005
20
-41.050139000000001
10
354.07853999999998
20
-41.019659000000004
10
354.10140000000007
20
-40.99171900000001
10
354.1268
20
-40.961239000000006
10
354.15474000000006
20
-40.930759000000009
10
354.18268000000006
20
-40.900278999999998
10
354.21062000000001
20
-40.869799
10
354.24110000000007
20
-40.836779000000007
10
354.27157999999997
20
-40.806298999999996
10
354.30460000000005
20
-40.775818999999998
10
354.33762000000002
20
-40.745339000000001
10
354.37063999999998
20
-40.712319000000001
10
354.40620000000001
20
-40.681839000000004
10
354.44430000000006
20
-40.651359000000006
10
354.47986000000009
20
-40.620879000000002
10
354.52050000000008
20
-40.590399000000005
10
354.56114000000002
20
-40.559919000000008
10
354.60177999999996
20
-40.531979
10
354.64496000000003
20
-40.501499000000003
10
354.68814000000003
20
-40.473559000000002
10
354.7313200000001
20
-40.445619000000008
10
354.77704000000006
20
-40.417679
10
354.82530000000003
20
-40.392278999999995
10
354.87356
20
-40.366878999999997
10
354.92436000000004
20
-40.341479
10
354.97516000000007
20
-40.316079000000002
10
355.02596000000005
20
-40.293219000000001
10
355.07929999999999
20
-40.270359000000006
10
355.13517999999999
20
-40.250039000000008
10
355.19105999999999
20
-40.22971900000001
10
355.24948000000001
20
-40.211939000000001
10
355.30790000000002
20
-40.194158999999999
10
355.37139999999999
20
-40.176378999999997
10
355.43743999999998
20
-40.161138999999999
10
355.50347999999997
20
-40.145899
10
355.57459999999998
20
-40.133198999999998
10
355.64572000000004
20
-40.123038999999999
10
355.71683999999999
20
-40.112879
10
355.79050000000001
20
-40.105259000000004
10
355.86669999999998
20
-40.100179000000004
10
355.94290000000001
20
-40.097639000000001
10
356.01909999999998
20
-40.097639000000001
10
356.09783999999996
20
-40.097639000000001
10
356.17658
20
-40.102719
10
356.2553200000001
20
-40.107799
10
356.33659999999998
20
-40.117958999999999
10
356.41534000000001
20
-40.130659000000001
10
356.49662000000001
20
-40.143359000000004
10
356.5779
20
-40.161138999999999
10
356.65663999999998
20
-40.181459000000004
10
356.73792000000003
20
-40.204318999999998
10
356.81666000000001
20
-40.22971900000001
10
356.89794000000001
20
-40.260199000000007
10
356.97667999999999
20
-40.290679000000004
10
357.05287999999996
20
-40.326239000000001
10
357.13162000000005
20
-40.366878999999997
10
357.20782000000008
20
-40.410059000000011
10
357.28402000000006
20
-40.455779000000007
10
357.35768000000002
20
-40.506579000000002
10
357.42880000000008
20
-40.559919000000008
10
357.50245999999999
20
-40.618338999999999
10
357.57103999999998
20
-40.679299
10
357.63962000000004
20
-40.745339000000001
10
357.70566000000002
20
-40.816459000000009
10
357.73614000000003
20
-40.852019000000006
10
357.76916
20
-40.887579000000002
10
357.7971
20
-40.925678999999995
10
357.82757999999995
20
-40.963778999999995
10
357.85552000000001
20
-41.001879000000002
10
357.88346000000001
20
-41.039978999999995
10
357.90886
20
-41.080618999999999
10
357.93426000000005
20
-41.118718999999999
10
357.95965999999999
20
-41.161899000000005
10
357.98252000000002
20
-41.202539000000009
10
358.00538000000006
20
-41.245719000000001
10
358.02823999999998
20
-41.286359000000004
10
358.04856000000001
20
-41.329539000000004
10
358.06888000000004
20
-41.375259
10
358.08666000000005
20
-41.418439000000006
10
358.10444000000007
20
-41.464159000000002
10
358.12222000000008
20
-41.509878999999998
10
358.13746000000003
20
-41.555599000000001
10
358.15524000000005
20
-41.603859000000007
10
358.16794000000004
20
-41.652118999999999
10
358.18317999999999
20
-41.697839000000002
10
358.19333999999998
20
-41.748639000000011
10
358.20603999999997
20
-41.796898999999996
10
358.21620000000001
20
-41.847698999999999
10
358.22636
20
-41.898499000000001
10
358.23652000000004
20
-41.949298999999996
10
358.24414000000002
20
-42.000099000000006
10
358.25175999999999
20
-42.053439000000012
10
358.25684000000001
20
-42.104239000000007
10
358.26192000000003
20
-42.157578999999998
10
358.26700000000005
20
-42.213459
10
358.26954000000001
20
-42.266798999999999
10
358.27207999999996
20
-42.297278999999996
10
358.27207999999996
20
-42.335379000000003
10
358.27207999999996
20
-42.373478999999996
10
358.27207999999996
20
-42.416659000000003
10
358.27207999999996
20
-42.464919000000009
10
358.26954000000001
20
-42.515719000000004
10
358.26700000000005
20
-42.569059000000003
10
358.26445999999999
20
-42.624939000000012
10
358.25684000000001
20
-42.683359000000003
10
358.25175999999999
20
-42.744318999999997
10
358.24160000000001
20
-42.810359000000005
10
358.23144000000002
20
-42.873859000000003
10
358.22127999999998
20
-42.942439000000007
10
358.20603999999997
20
-43.011018999999997
10
358.18826000000001
20
-43.082138999999998
10
358.17048
20
-43.153259000000006
10
358.14762000000002
20
-43.226919000000009
10
358.12476000000004
20
-43.300578999999999
10
358.09682000000004
20
-43.374239000000003
10
358.06633999999997
20
-43.447899000000007
10
358.03332000000006
20
-43.521559000000003
10
357.99776000000003
20
-43.595219
10
357.95712000000003
20
-43.668879000000004
10
357.91393999999997
20
-43.742539000000001
10
357.86568
20
-43.813659000000001
10
357.81487999999996
20
-43.884778999999995
10
357.75900000000001
20
-43.955899000000002
10
357.70058
20
-44.021939000000003
10
357.63708000000003
20
-44.090519000000008
10
357.56849999999997
20
-44.154018999999998
10
357.49484000000001
20
-44.217519000000003
10
357.41863999999998
20
-44.275939000000008
10
357.37037999999995
20
-44.311499000000005
10
357.32212000000004
20
-44.344518999999998
10
357.27386000000001
20
-44.372458999999999
10
357.22306000000003
20
-44.402939000000003
10
357.1748
20
-44.428339000000001
10
357.12653999999998
20
-44.453738999999999
10
357.07828000000001
20
-44.476599000000007
10
357.03002000000004
20
-44.496919000000005
10
356.98176000000001
20
-44.517239000000004
10
356.93603999999999
20
-44.537559000000002
10
356.88778000000002
20
-44.552799
10
356.84206000000006
20
-44.568038999999999
10
356.79633999999999
20
-44.583278999999997
10
356.75062000000003
20
-44.595979
10
356.70490000000001
20
-44.606138999999999
10
356.66172000000006
20
-44.616298999999998
10
356.61854
20
-44.626459000000011
10
356.57535999999999
20
-44.634079
10
356.53471999999999
20
-44.641699000000003
10
356.49408
20
-44.649318999999998
10
356.45598000000001
20
-44.654398999999998
10
356.41787999999997
20
-44.659478999999997
10
356.37977999999998
20
-44.662019000000008
10
356.34422000000001
20
-44.667099000000007
10
356.31120000000004
20
-44.669639000000004
10
356.27817999999996
20
-44.672179000000007
10
356.24770000000007
20
-44.672179000000007
10
356.21722
20
-44.674719000000003
10
356.18928000000005
20
-44.674719000000003
10
356.16388000000001
20
-44.674719000000003
10
356.13847999999996
20
-44.674719000000003
10
356.11562000000004
20
-44.674719000000003
10
356.11308000000002
20
-44.674719000000003
10
356.11054000000001
20
-44.674719000000003
10
356.10800000000006
20
-44.674719000000003
10
356.10545999999999
20
-44.674719000000003
10
356.1029200000001
20
-44.674719000000003
10
356.10037999999997
20
-44.674719000000003
10
356.09783999999996
20
-44.674719000000003
10
356.09530000000001
20
-44.674719000000003
10
356.09276
20
-44.674719000000003
10
356.09022000000004
20
-44.674719000000003
10
356.08767999999998
20
-44.674719000000003
10
356.08514000000002
20
-44.674719000000003
10
356.08260000000001
20
-44.674719000000003
10
356.08006
20
-44.674719000000003
10
356.07751999999999
20
-44.674719000000003
10
356.07497999999998
20
-44.674719000000003
10
356.07244000000003
20
-44.674719000000003
10
356.06990000000002
20
-44.674719000000003
10
356.03433999999999
20
-44.674719000000003
10
355.99877999999995
20
-44.674719000000003
10
355.96322000000009
20
-44.672179000000007
10
355.92766000000006
20
-44.669639000000004
10
355.89210000000003
20
-44.667099000000007
10
355.85654
20
-44.664559000000004
10
355.82097999999996
20
-44.659478999999997
10
355.78542000000004
20
-44.656939000000008
10
355.74986000000001
20
-44.651859000000009
10
355.71429999999998
20
-44.646778999999995
10
355.67874000000006
20
-44.639158999999999
10
355.64318000000003
20
-44.634079
10
355.60762000000005
20
-44.626459000000011
10
355.57206000000002
20
-44.618839000000001
10
355.53649999999999
20
-44.611219000000006
10
355.50094000000001
20
-44.603598999999996
10
355.46792000000005
20
-44.593439000000004
10
355.43236000000002
20
-44.583278999999997
10
355.39679999999998
20
-44.573118999999998
10
355.36378000000002
20
-44.562958999999999
10
355.32822000000004
20
-44.552799
10
355.29520000000002
20
-44.540098999999998
10
355.25963999999999
20
-44.529938999999999
10
355.22662000000003
20
-44.517239000000004
10
355.19105999999999
20
-44.501999000000005
10
355.15803999999997
20
-44.489299000000003
10
355.12502000000006
20
-44.476599000000007
10
355.09199999999998
20
-44.461359000000009
10
355.05897999999996
20
-44.44611900000001
10
355.02596000000005
20
-44.430879000000004
10
354.99293999999998
20
-44.415638999999999
10
354.95992000000001
20
-44.397859000000004
10
355.22154
20
-43.892398999999997
10
355.24694000000005
20
-43.905099000000007
10
355.27233999999999
20
-43.917799000000002
10
355.29773999999998
20
-43.930499000000005
10
355.32313999999997
20
-43.940659000000004
10
355.34854000000001
20
-43.953359000000006
10
355.37394
20
-43.963518999999998
10
355.39934000000005
20
-43.973678999999997
10
355.42728000000005
20
-43.983839000000003
10
355.45267999999999
20
-43.993999000000002
10
355.47807999999998
20
-44.004159000000001
10
355.50602000000003
20
-44.011778999999997
10
355.53142000000003
20
-44.019399000000007
10
355.55936000000003
20
-44.029559000000013
10
355.58476000000007
20
-44.037178999999995
10
355.61270000000002
20
-44.044798999999998
10
355.63810000000001
20
-44.049879000000004
10
355.66604000000007
20
-44.057499
10
355.69144
20
-44.062578999999999
10
355.71938
20
-44.070199000000009
10
355.74732000000006
20
-44.075278999999995
10
355.77271999999999
20
-44.080359000000009
10
355.80065999999999
20
-44.082898999999998
10
355.82860000000005
20
-44.087978999999997
10
355.85654
20
-44.090519000000008
10
355.88193999999999
20
-44.095599000000007
10
355.90988000000004
20
-44.098139000000003
10
355.93782000000004
20
-44.100679000000007
10
355.96575999999999
20
-44.103219000000003
10
355.99369999999999
20
-44.103219000000003
10
356.01909999999998
20
-44.105759000000006
10
356.04703999999998
20
-44.105759000000006
10
356.07497999999998
20
-44.105759000000006
10
356.09022000000004
20
-44.105759000000006
10
356.10545999999999
20
-44.105759000000006
10
356.12577999999996
20
-44.105759000000006
10
356.14609999999999
20
-44.105759000000006
0
LWPOLYLINE
5
289
100
AcDbEntity
8
0
100
AcDbPolyline
90
8
70
1
43
0.0
10
349.12300000000005
20
-40.138278999999997
10
351.19310000000007
20
-40.138278999999997
10
351.19310000000007
20
-40.707239000000001
10
350.48697999999996
20
-40.707239000000001
10
350.48697999999996
20
-44.519779
10
349.91802000000001
20
-44.519779
10
349.91802000000001
20
-40.707239000000001
10
349.12300000000005
20
-40.707239000000001
0
LINE
5
290
100
AcDbEntity
8
0
100
AcDbLine
10
126.46860190190529
20
-166.9972911632436
30
0
11
148.52967451423109
21
-202.29698683675616
31
0
0
LINE
5
291
100
AcDbEntity
8
0
100
AcDbLine
10
182.499
20
-89.647959
30
0
11
182.499
21
-49.648039000000004
31
0
0
LINE
5
292
100
AcDbEntity
8
0
100
AcDbLine
10
17.499320000000004
20
-24.648719000000003
30
0
11
17.499320000000004
21
-159.648459
31
0
0
LINE
5
293
100
AcDbEntity
8
0
100
AcDbLine
10
209.99830000000003
20
-29.647439000000002
30
0
11
194.99961999999999
21
-29.647439000000002
31
0
0
LINE
5
294
100
AcDbEntity
8
0
100
AcDbLine
10
152.76973282191935
20
-204.64709900000003
30
0
11
252.22818717811037
21
-204.64709900000003
31
0
0
LINE
5
295
100
AcDbEntity
8
0
100
AcDbLine
10
222.49892000000003
20
-89.646679000000006
30
0
11
222.49892000000003
21
-134.64659900000001
31
0
0
LINE
5
296
100
AcDbEntity
8
0
100
AcDbLine
10
222.49892000000003
20
-49.648039000000004
30
0
11
222.49892000000003
21
-89.647959
31
0
0
LINE
5
297
100
AcDbEntity
8
0
100
AcDbLine
10
182.499
20
-134.64659900000001
30
0
11
182.499
21
-89.646679000000006
31
0
0
LINE
5
298
100
AcDbEntity
8
0
100
AcDbLine
10
256.46823920126479
20
-202.2969968925506
30
0
11
278.38655705529118
21
-167.22590671116393
31
0
0
LINE
5
299
100
AcDbEntity
8
0
100
AcDbLine
10
282.61620553238197
20
-164.87581542710328
30
0
11
392.49986000000007
21
-164.64717899999999
31
0
0
LINE
5
300
100
AcDbEntity
8
0
100
AcDbLine
10
22.498040000000007
20
-164.64717899999999
30
0
11
122.22854359421534
21
-164.64717899999999
31
0
0
SPLINE
5
301
100
AcDbEntity
8
0
100
AcDbSpline
70
0
71
3
72
8
73
4
74
0
42
0.000000001
43
0.0000000001
44
0.0000000001
40
0
40
0
40
0
40
0
40
1
40
1
40
1
40
1
10
396.03620799999999
20
-163.18468899999999
30
0
10
396.97416299999998
20
-162.24697200000003
30
0
10
397.50112000000001
20
-160.97501299999999
30
0
10
397.50112000000001
20
-159.64871299999999
30
0
0
SPLINE
5
302
100
AcDbEntity
8
0
100
AcDbSpline
70
0
71
3
72
8
73
4
74
0
42
0.000000001
43
0.0000000001
44
0.0000000001
40
0
40
0
40
0
40
0
40
1
40
1
40
1
40
1
10
392.49986000000007
20
-164.64870300000001
30
0
10
393.82616000000007
20
-164.64904000000001
30
0
10
395.098253
20
-164.12240500000001
30
0
10
396.03620799999999
20
-163.18468899999999
30
0
0
ARC
5
303
100
AcDbEntity
8
0
100
AcDbCircle
10
252.22818717811037
20
-199.64709900000008
30
0
40
4.9999999999999289
210
0
220
0
230
1
100
AcDbArc
50
270
51
327.99592495953664
0
ARC
5
304
100
AcDbEntity
8
0
100
AcDbCircle
10
152.76973282191935
20
-199.64709900000008
30
0
40
4.9999999999983844
210
0
220
0
230
1
100
AcDbArc
50
212.00393915672808
51
270
0
LINE
5
305
100
AcDbEntity
8
0
100
AcDbLine
10
184.99731367602547
20
-19.573825735163798
30
0
11
22.500071999999996
21
-19.648780000000002
31
0
0
LINE
5
306
100
AcDbEntity
8
0
100
AcDbLine
10
219.99833597069323
20
-19.647539000129171
30
0
11
392.49986000000007
21
-19.648780000000002
31
0
0
LINE
5
307
100
AcDbEntity
8
0
100
AcDbLine
10
246.73052000000001
20
-168.062839
30
0
11
245.55847437523147
21
-168.062839
31
0
0
LINE
5
308
100
AcDbEntity
8
0
100
AcDbLine
10
243.40448046824156
20
-151.1212157363959
30
0
11
241.51336000000001
21
-151.63157900000002
31
0
0
LINE
5
309
100
AcDbEntity
8
0
100
AcDbLine
10
241.935
20
-153.20129900000001
30
0
11
243.06276
21
-152.89903899999999
31
0
0
LINE
5
310
100
AcDbEntity
8
0
100
AcDbLine
10
241.51336000000001
20
-151.63157900000002
30
0
11
241.935
21
-153.20129900000001
31
0
0
LINE
5
311
100
AcDbEntity
8
0
100
AcDbLine
10
241.45539056252258
20
-143.8576217417687
30
0
11
243.40448046824156
21
-151.1212157363959
31
0
0
LINE
5
312
100
AcDbEntity
8
0
100
AcDbLine
10
233.18470000000002
20
-170.00847899999999
30
0
11
229.56773999999999
21
-156.51345900000001
31
0
0
LINE
5
313
100
AcDbEntity
8
0
100
AcDbLine
10
247.86262913855307
20
-167.75949127058084
30
0
11
249.80685871833964
21
-175.02023052891471
31
0
0
LINE
5
314
100
AcDbEntity
8
0
100
AcDbLine
10
247.86262913855307
20
-167.75949127058084
30
0
11
245.97106000000002
21
-168.26603899999998
31
0
0
LINE
5
315
100
AcDbEntity
8
0
100
AcDbLine
10
246.67972000000006
20
-166.394059
30
0
11
245.54942000000005
21
-166.69631899999999
31
0
0
LINE
5
316
100
AcDbEntity
8
0
100
AcDbLine
10
224.01774000000003
20
-157.66145900000004
30
0
11
227.63470000000007
21
-171.15647899999999
31
0
0
LINE
5
317
100
AcDbEntity
8
0
100
AcDbLine
10
215.74704943747744
20
-183.81231625823133
30
0
11
213.79795953175847
21
-176.54872226360419
31
0
0
LINE
5
318
100
AcDbEntity
8
0
100
AcDbLine
10
215.68908000000005
20
-176.03835900000001
30
0
11
215.26744000000005
21
-174.46863900000005
31
0
0
LINE
5
319
100
AcDbEntity
8
0
100
AcDbLine
10
213.79795953175847
20
-176.54872226360419
30
0
11
215.68908000000005
21
-176.03835900000001
31
0
0
LINE
5
320
100
AcDbEntity
8
0
100
AcDbLine
10
215.26744000000005
20
-174.46863900000005
30
0
11
214.13968000000006
21
-174.77089900000004
31
0
0
LINE
5
321
100
AcDbEntity
8
0
100
AcDbLine
10
214.13968000000006
20
-174.77089900000004
30
0
11
210.52271999999999
21
-161.27587900000003
31
0
0
LINE
5
322
100
AcDbEntity
8
0
100
AcDbLine
10
210.52271999999999
20
-161.27587900000003
30
0
11
211.65302
21
-160.97361900000004
31
0
0
LINE
5
323
100
AcDbEntity
8
0
100
AcDbLine
10
211.65302
20
-160.97361900000004
30
0
11
211.23138
21
-159.40389900000005
31
0
0
LINE
5
324
100
AcDbEntity
8
0
100
AcDbLine
10
209.33981086144698
20
-159.91044672941919
30
0
11
211.23138
21
-159.40389900000005
31
0
0
LINE
5
325
100
AcDbEntity
8
0
100
AcDbLine
10
209.33981086144698
20
-159.91044672941919
30
0
11
207.39558128166041
21
-152.64970747108532
31
0
0
LINE
5
326
100
AcDbEntity
8
0
100
AcDbLine
10
207.39558128166041
20
-152.64970747108532
30
0
11
222.41137689451102
21
-148.62422675924603
31
0
0
LINE
5
327
100
AcDbEntity
8
0
100
AcDbLine
10
233.18470000000002
20
-170.00847899999999
30
0
11
234.31479630844396
21
-169.70552300708795
31
0
0
LINE
5
328
100
AcDbEntity
8
0
100
AcDbLine
10
234.31479630844396
20
-169.70552300708795
30
0
11
234.7355685208218
21
-171.27510121326014
31
0
0
LINE
5
329
100
AcDbEntity
8
0
100
AcDbLine
10
234.7355685208218
20
-171.27510121326014
30
0
11
232.84500930336606
21
-171.78456156038555
31
0
0
LINE
5
330
100
AcDbEntity
8
0
100
AcDbLine
10
232.84500930336606
20
-171.78456156038555
30
0
11
234.79030536261021
21
-179.04411834238914
31
0
0
LINE
5
331
100
AcDbEntity
8
0
100
AcDbLine
10
234.79030536261021
20
-179.04411834238914
30
0
11
249.80685871833964
21
-175.02023052891471
31
0
0
LINE
5
332
100
AcDbEntity
8
0
100
AcDbLine
10
229.56773999999999
20
-156.51345900000001
30
0
11
230.69785269108792
21
-156.21056412476773
31
0
0
LINE
5
333
100
AcDbEntity
8
0
100
AcDbLine
10
230.69785269108792
20
-156.21056412476773
30
0
11
230.27737479279213
21
-154.64097616447663
31
0
0
LINE
5
334
100
AcDbEntity
8
0
100
AcDbLine
10
230.27737479279213
20
-154.64097616447663
30
0
11
228.38606433502778
21
-155.14764050341438
31
0
0
LINE
5
335
100
AcDbEntity
8
0
100
AcDbLine
10
228.38606433502778
20
-155.14764050341438
30
0
11
226.43850923312246
21
-147.88401224781035
31
0
0
LINE
5
336
100
AcDbEntity
8
0
100
AcDbLine
10
226.43850923312246
20
-147.88401224781035
30
0
11
241.45539056252258
21
-143.8576217417687
31
0
0
LINE
5
337
100
AcDbEntity
8
0
100
AcDbLine
10
45.77930867098182
20
-128.74853832193401
30
0
11
45.776768980564277
21
-113.20123826956483
31
0
0
LINE
5
338
100
AcDbEntity
8
0
100
AcDbLine
10
45.776768980564277
20
-113.20123826956483
30
0
11
53.297323599870055
21
-113.19851845357334
31
0
0
LINE
5
339
100
AcDbEntity
8
0
100
AcDbLine
10
53.349340531963321
20
-128.74730173826276
30
0
11
45.77930867098182
21
-128.74853832193401
31
0
0
LINE
5
340
100
AcDbEntity
8
0
100
AcDbLine
10
53.348692082046185
20
-126.78930184563951
30
0
11
53.349340531963321
21
-128.74730173826276
31
0
0
LINE
5
341
100
AcDbEntity
8
0
100
AcDbLine
10
54.927420704928132
20
-126.78877900268704
30
0
11
53.348692082046185
21
-126.78930184563951
31
0
0
LINE
5
342
100
AcDbEntity
8
0
100
AcDbLine
10
54.927500000000009
20
-127.95877900000001
30
0
11
54.927420704928132
21
-126.78877900268704
31
0
0
LINE
5
343
100
AcDbEntity
8
0
100
AcDbLine
10
54.926200213429794
20
-115.15629275309496
30
0
11
54.927574973949348
21
-113.98873498459672
31
0
0
LINE
5
344
100
AcDbEntity
8
0
100
AcDbLine
10
53.300838663210328
20
-115.15729228701315
30
0
11
54.926200213429794
21
-115.15629275309496
31
0
0
LINE
5
345
100
AcDbEntity
8
0
100
AcDbLine
10
53.297323599870055
20
-113.19851845357334
30
0
11
53.300838663210328
21
-115.15729228701315
31
0
0
LINE
5
346
100
AcDbEntity
8
0
100
AcDbLine
10
68.897499999999994
20
-113.98877900000002
30
0
11
68.896869290716751
21
-115.15779931807863
31
0
0
LINE
5
347
100
AcDbEntity
8
0
100
AcDbLine
10
68.896869290716751
20
-115.15779931807863
30
0
11
70.52223084093626
21
-115.15679978416043
31
0
0
LINE
5
348
100
AcDbEntity
8
0
100
AcDbLine
10
70.522517425027928
20
-113.19858010139359
30
0
11
70.52223084093626
21
-115.15679978416043
31
0
0
LINE
5
349
100
AcDbEntity
8
0
100
AcDbLine
10
70.522517425027928
20
-113.19858010139359
30
0
11
78.039056635903961
21
-113.19981613962295
31
0
0
LINE
5
350
100
AcDbEntity
8
0
100
AcDbLine
10
78.039263796767784
20
-128.74615164925285
30
0
11
78.039056635903961
21
-113.19981613962295
31
0
0
LINE
5
351
100
AcDbEntity
8
0
100
AcDbLine
10
70.558285577216736
20
-128.74625133614757
30
0
11
78.039263796767784
21
-128.74615164925285
31
0
0
LINE
5
352
100
AcDbEntity
8
0
100
AcDbLine
10
70.522357417578064
20
-126.78858099430116
30
0
11
70.558285577216736
21
-128.74625133614757
31
0
0
LINE
5
353
100
AcDbEntity
8
0
100
AcDbLine
10
68.897357429642597
20
-126.78877900868645
30
0
11
70.522357417578064
21
-126.78858099430116
31
0
0
LINE
5
354
100
AcDbEntity
8
0
100
AcDbLine
10
68.897499999999994
20
-127.95877900000001
30
0
11
68.897357429642597
21
-126.78877900868645
31
0
0
LINE
5
355
100
AcDbEntity
8
0
100
AcDbLine
10
368.93566929071676
20
-96.10799931807864
30
0
11
370.56103084093621
21
-96.106999784160436
31
0
0
LINE
5
356
100
AcDbEntity
8
0
100
AcDbLine
10
370.56131742502794
20
-94.148780101393612
30
0
11
370.56103084093621
21
-96.106999784160436
31
0
0
LINE
5
357
100
AcDbEntity
8
0
100
AcDbLine
10
354.96500021342979
20
-96.106492753094983
30
0
11
354.96492523948052
21
-94.938929598666505
31
0
0
LINE
5
358
100
AcDbEntity
8
0
100
AcDbLine
10
354.96499999999997
20
-108.90877900000001
30
0
11
354.96492070492809
21
-107.73877900268707
31
0
0
LINE
5
359
100
AcDbEntity
8
0
100
AcDbLine
10
370.58237311966985
20
-109.6964515321967
30
0
11
378.07806379676776
21
-109.69635164925286
31
0
0
LINE
5
360
100
AcDbEntity
8
0
100
AcDbLine
10
353.40947155230515
20
-107.73949831524222
30
0
11
353.41037702313321
21
-109.69749810587615
31
0
0
LINE
5
361
100
AcDbEntity
8
0
100
AcDbLine
10
368.93485742964259
20
-107.73877900868644
30
0
11
370.55985741757809
21
-107.73858099430116
31
0
0
LINE
5
362
100
AcDbEntity
8
0
100
AcDbLine
10
353.33612359987001
20
-94.148718453573366
30
0
11
353.33963866321028
21
-96.107492287013159
31
0
0
LINE
5
363
100
AcDbEntity
8
0
100
AcDbLine
10
370.55985741757809
20
-107.73858099430116
30
0
11
370.58237311966985
21
-109.6964515321967
31
0
0
LINE
5
364
100
AcDbEntity
8
0
100
AcDbLine
10
354.96492070492809
20
-107.73877900268707
30
0
11
353.40947155230515
21
-107.73949831524222
31
0
0
LINE
5
365
100
AcDbEntity
8
0
100
AcDbLine
10
345.81810867098181
20
-109.69873832193403
30
0
11
345.81556898056425
21
-94.151438269564835
31
0
0
LINE
5
366
100
AcDbEntity
8
0
100
AcDbLine
10
378.07806379676776
20
-109.69635164925286
30
0
11
378.07785663590391
21
-94.150016139622963
31
0
0
LINE
5
367
100
AcDbEntity
8
0
100
AcDbLine
10
368.93500000000006
20
-94.938778999999997
30
0
11
368.93566929071676
21
-96.10799931807864
31
0
0
LINE
5
368
100
AcDbEntity
8
0
100
AcDbLine
10
345.81556898056425
20
-94.151438269564835
30
0
11
353.33612359987001
21
-94.148718453573366
31
0
0
LINE
5
369
100
AcDbEntity
8
0
100
AcDbLine
10
370.56131742502794
20
-94.148780101393612
30
0
11
378.07785663590391
21
-94.150016139622963
31
0
0
LINE
5
370
100
AcDbEntity
8
0
100
AcDbLine
10
368.93500000000006
20
-108.90877900000001
30
0
11
368.93485742964259
21
-107.73877900868644
31
0
0
LINE
5
371
100
AcDbEntity
8
0
100
AcDbLine
10
353.41037702313321
20
-109.69749810587615
30
0
11
345.81810867098181
21
-109.69873832193403
31
0
0
LINE
5
372
100
AcDbEntity
8
0
100
AcDbLine
10
353.33963866321028
20
-96.107492287013159
30
0
11
354.96500021342979
21
-96.106492753094983
31
0
0
LINE
5
373
100
AcDbEntity
8
0
100
AcDbLine
10
224.01774000000003
20
-157.66145900000004
30
0
11
222.8876273089121
21
-157.96435387523235
31
0
0
LINE
5
374
100
AcDbEntity
8
0
100
AcDbLine
10
222.8876273089121
20
-157.96435387523235
30
0
11
222.46693998220056
21
-156.39475291538798
31
0
0
LINE
5
375
100
AcDbEntity
8
0
100
AcDbLine
10
222.46693998220056
20
-156.39475291538798
30
0
11
224.35818840027764
21
-155.88785704726416
31
0
0
LINE
5
376
100
AcDbEntity
8
0
100
AcDbLine
10
224.35818840027764
20
-155.88785704726416
30
0
11
222.41137689451102
21
-148.62422675924603
31
0
0
LINE
5
377
100
AcDbEntity
8
0
100
AcDbLine
10
227.63470000000007
20
-171.15647899999999
30
0
11
226.50458730891214
21
-171.4593738752323
31
0
0
LINE
5
378
100
AcDbEntity
8
0
100
AcDbLine
10
226.50458730891214
20
-171.4593738752323
30
0
11
226.92527463562362
21
-173.02897483507664
31
0
0
LINE
5
379
100
AcDbEntity
8
0
100
AcDbLine
10
226.92527463562362
20
-173.02897483507664
30
0
11
228.81652305370071
21
-172.52207896695285
31
0
0
LINE
5
380
100
AcDbEntity
8
0
100
AcDbLine
10
228.81652305370071
20
-172.52207896695285
30
0
11
230.76333455946724
21
-179.78570925497104
31
0
0
LINE
5
381
100
AcDbEntity
8
0
100
AcDbLine
10
230.76333455946724
20
-179.78570925497104
30
0
11
215.74704943747744
21
-183.81231625823133
31
0
0
LINE
5
382
100
AcDbEntity
8
0
100
AcDbLine
10
189.99962000000005
20
-24.573825203250742
30
0
11
189.99962000000005
21
-24.647438999999984
31
0
0
LINE
5
383
100
AcDbEntity
8
0
100
AcDbLine
10
214.9982999999998
20
-24.647539000000009
30
0
11
214.9982999999998
21
-24.647438999999984
31
0
0
ARC
5
384
100
AcDbEntity
8
0
100
AcDbCircle
10
194.99962000000005
20
-24.647438999999984
30
0
40
5
210
0
220
0
230
1
100
AcDbArc
50
180
51
269.99999999999932
0
ARC
5
385
100
AcDbEntity
8
0
100
AcDbCircle
10
209.99830000000003
20
-24.647438999999984
30
0
40
5.0000000000000178
210
0
220
0
230
1
100
AcDbArc
50
-90
51
0
0
ARC
5
386
100
AcDbEntity
8
0
100
AcDbCircle
10
219.99830000000003
20
-24.647539000000009
30
0
40
5.0000000000002256
210
0
220
-0
230
1
100
AcDbArc
50
89.999587806218642
51
180
0
ARC
5
387
100
AcDbEntity
8
0
100
AcDbCircle
10
184.99962000000005
20
-24.573825203250742
30
0
40
5
210
0
220
-0
230
1
100
AcDbArc
50
0
51
90.026428526923823
0
ARC
5
388
100
AcDbEntity
8
0
100
AcDbCircle
10
122.22854359421527
20
-169.64717900000014
30
0
40
5.0000000000001403
210
0
220
-0
230
1
100
AcDbArc
50
32.003939156721778
51
89.99999999999919
0
ARC
5
389
100
AcDbEntity
8
0
100
AcDbCircle
10
282.62660907844565
20
-169.87580460371447
30
0
40
4.9999999999999858
210
0
220
0
230
1
100
AcDbArc
50
90.119215942305203
51
147.99592495953675
0
ENDSEC
0
SECTION
2
OBJECTS
0
DICTIONARY
5
C
100
AcDbDictionary
3
ACAD_GROUP
350
D
3
ACAD_MLINESTYLE
350
17
0
DICTIONARY
5
D
100
AcDbDictionary
0
DICTIONARY
5
1A
330
C
100
AcDbDictionary
0
DICTIONARY
5
17
100
AcDbDictionary
0
ENDSEC
0
EOF
