%TF.GenerationSoftware,KiCad,Pcbnew,(6.0.10)*%
%TF.CreationDate,2023-02-11T23:58:45+13:00*%
%TF.ProjectId,orthoCode,6f727468-6f43-46f6-9465-2e6b69636164,rev?*%
%TF.SameCoordinates,Original*%
%TF.FileFunction,Soldermask,Bot*%
%TF.FilePolarity,Negative*%
%FSLAX46Y46*%
G04 Gerber Fmt 4.6, Leading zero omitted, Abs format (unit mm)*
G04 Created by KiCad (PCBNEW (6.0.10)) date 2023-02-11 23:58:45*
%MOMM*%
%LPD*%
G01*
G04 APERTURE LIST*
%ADD10C,2.800000*%
%ADD11C,2.000000*%
%ADD12C,1.900000*%
%ADD13C,5.050000*%
%ADD14C,2.600000*%
%ADD15C,2.200000*%
%ADD16O,1.200000X2.200000*%
%ADD17O,1.200000X2.700000*%
%ADD18O,1.200000X2.600000*%
%ADD19C,0.400000*%
%ADD20C,0.800000*%
G04 APERTURE END LIST*
D10*
%TO.C,HOLE_M2.6*%
X184900000Y-134800000D03*
X184900000Y-134800000D03*
%TD*%
%TO.C,HOLE_M2.6*%
X220100000Y-134800000D03*
X220100000Y-134800000D03*
%TD*%
%TO.C,HOLE_M2.6*%
X242000000Y-183000000D03*
X242000000Y-183000000D03*
%TD*%
%TO.C,HOLE_M2.6*%
X274000000Y-147000000D03*
X274000000Y-147000000D03*
%TD*%
%TO.C,HOLE_M2.6*%
X384000000Y-128000000D03*
X384000000Y-128000000D03*
%TD*%
%TO.C,HOLE_M2.6*%
X385000000Y-62000000D03*
X385000000Y-62000000D03*
%TD*%
%TO.C,HOLE_M2.6*%
X224500000Y-62000000D03*
X224500000Y-62000000D03*
%TD*%
%TO.C,HOLE_M2.6*%
X220000000Y-73400000D03*
X220000000Y-73400000D03*
%TD*%
%TO.C,HOLE_M2.6*%
X185000000Y-73400000D03*
X185000000Y-73400000D03*
%TD*%
%TO.C,HOLE_M2.6*%
X180500000Y-62000000D03*
X180500000Y-62000000D03*
%TD*%
%TO.C,HOLE_M2.6*%
X31000000Y-62000000D03*
X31000000Y-62000000D03*
%TD*%
%TO.C,HOLE_M2.6*%
X31000000Y-147000000D03*
X31000000Y-147000000D03*
%TD*%
%TO.C,HOLE_M2.6*%
X126000000Y-147000000D03*
X126000000Y-147000000D03*
%TD*%
%TO.C,HOLE_M2.6*%
X163000000Y-183000000D03*
X163000000Y-183000000D03*
%TD*%
D11*
%TO.C,BOOT1*%
X213250000Y-107150000D03*
X206750000Y-107150000D03*
X206750000Y-111650000D03*
X213250000Y-111650000D03*
%TD*%
D12*
%TO.C,K1:8*%
X239548505Y-169618842D03*
X236701495Y-158993658D03*
D13*
X238125000Y-164306250D03*
D14*
X244393613Y-167802961D03*
D15*
X232426038Y-165833282D03*
X233160387Y-160460133D03*
%TD*%
D12*
%TO.C,K1:1*%
X67412500Y-142875000D03*
D13*
X61912500Y-142875000D03*
D12*
X56412500Y-142875000D03*
D14*
X56912500Y-148025000D03*
D15*
X61912500Y-136975000D03*
X66912500Y-139075000D03*
%TD*%
D12*
%TO.C,K1:2*%
X91225000Y-142875000D03*
D13*
X85725000Y-142875000D03*
D14*
X80725000Y-148025000D03*
D12*
X80225000Y-142875000D03*
D15*
X85725000Y-136975000D03*
X90725000Y-139075000D03*
%TD*%
D12*
%TO.C,K1:3*%
X104037500Y-142875000D03*
X115037500Y-142875000D03*
D14*
X104537500Y-148025000D03*
D13*
X109537500Y-142875000D03*
D15*
X109537500Y-136975000D03*
X114537500Y-139075000D03*
%TD*%
D12*
%TO.C,K1:4*%
X137375000Y-142875000D03*
D13*
X142875000Y-142875000D03*
D12*
X148375000Y-142875000D03*
D14*
X137875000Y-148025000D03*
D15*
X142875000Y-136975000D03*
X147875000Y-139075000D03*
%TD*%
D12*
%TO.C,K1:5*%
X168111005Y-158993658D03*
D13*
X166687500Y-164306250D03*
D12*
X165263995Y-169618842D03*
D14*
X163007077Y-158143703D03*
D15*
X172386462Y-165833282D03*
X169063923Y-170119392D03*
%TD*%
D12*
%TO.C,K1:6*%
X187161005Y-163756158D03*
D14*
X189417923Y-175231297D03*
D12*
X184313995Y-174381342D03*
D13*
X185737500Y-169068750D03*
D15*
X180038538Y-167541718D03*
X183361077Y-163255608D03*
%TD*%
D12*
%TO.C,K1:7*%
X217651495Y-163756158D03*
D14*
X212806387Y-165572039D03*
D12*
X220498505Y-174381342D03*
D13*
X219075000Y-169068750D03*
D15*
X224773962Y-167541718D03*
X224039613Y-172914867D03*
%TD*%
D12*
%TO.C,K1:9*%
X267437500Y-142875000D03*
X256437500Y-142875000D03*
D14*
X256937500Y-148025000D03*
D13*
X261937500Y-142875000D03*
D15*
X261937500Y-136975000D03*
X266937500Y-139075000D03*
%TD*%
D12*
%TO.C,K1:10*%
X280250000Y-142875000D03*
X291250000Y-142875000D03*
D14*
X280750000Y-148025000D03*
D13*
X285750000Y-142875000D03*
D15*
X285750000Y-136975000D03*
X290750000Y-139075000D03*
%TD*%
D14*
%TO.C,K1:11*%
X304562500Y-148025000D03*
D13*
X309562500Y-142875000D03*
D12*
X304062500Y-142875000D03*
X315062500Y-142875000D03*
D15*
X309562500Y-136975000D03*
X314562500Y-139075000D03*
%TD*%
D13*
%TO.C,K1:12*%
X340518750Y-142875000D03*
D12*
X335018750Y-142875000D03*
X346018750Y-142875000D03*
D14*
X335518750Y-148025000D03*
D15*
X340518750Y-136975000D03*
X345518750Y-139075000D03*
%TD*%
D12*
%TO.C,K1:13*%
X354068750Y-142875000D03*
X365068750Y-142875000D03*
D13*
X359568750Y-142875000D03*
D14*
X354568750Y-148025000D03*
D15*
X359568750Y-136975000D03*
X364568750Y-139075000D03*
%TD*%
D13*
%TO.C,K1:14*%
X378618750Y-142875000D03*
D12*
X384118750Y-142875000D03*
D14*
X373618750Y-148025000D03*
D12*
X373118750Y-142875000D03*
D15*
X378618750Y-136975000D03*
X383618750Y-139075000D03*
%TD*%
D12*
%TO.C,K2:2*%
X87368750Y-123825000D03*
D14*
X87868750Y-128975000D03*
D13*
X92868750Y-123825000D03*
D12*
X98368750Y-123825000D03*
D15*
X92868750Y-117925000D03*
X97868750Y-120025000D03*
%TD*%
D13*
%TO.C,K2:3*%
X111918750Y-123825000D03*
D12*
X106418750Y-123825000D03*
D14*
X106918750Y-128975000D03*
D12*
X117418750Y-123825000D03*
D15*
X111918750Y-117925000D03*
X116918750Y-120025000D03*
%TD*%
D12*
%TO.C,K2:4*%
X136468750Y-123825000D03*
X125468750Y-123825000D03*
D14*
X125968750Y-128975000D03*
D13*
X130968750Y-123825000D03*
D15*
X130968750Y-117925000D03*
X135968750Y-120025000D03*
%TD*%
D12*
%TO.C,K2:5*%
X144518750Y-123825000D03*
D13*
X150018750Y-123825000D03*
D14*
X145018750Y-128975000D03*
D12*
X155518750Y-123825000D03*
D15*
X150018750Y-117925000D03*
X155018750Y-120025000D03*
%TD*%
D14*
%TO.C,K2:6*%
X164068750Y-128975000D03*
D12*
X174568750Y-123825000D03*
X163568750Y-123825000D03*
D13*
X169068750Y-123825000D03*
D15*
X169068750Y-117925000D03*
X174068750Y-120025000D03*
%TD*%
D13*
%TO.C,K2:7*%
X235743750Y-123825000D03*
D14*
X230743750Y-128975000D03*
D12*
X241243750Y-123825000D03*
X230243750Y-123825000D03*
D15*
X235743750Y-117925000D03*
X240743750Y-120025000D03*
%TD*%
D12*
%TO.C,K2:8*%
X249293750Y-123825000D03*
D13*
X254793750Y-123825000D03*
D12*
X260293750Y-123825000D03*
D14*
X249793750Y-128975000D03*
D15*
X254793750Y-117925000D03*
X259793750Y-120025000D03*
%TD*%
D14*
%TO.C,K2:9*%
X268843750Y-128975000D03*
D12*
X279343750Y-123825000D03*
D13*
X273843750Y-123825000D03*
D12*
X268343750Y-123825000D03*
D15*
X273843750Y-117925000D03*
X278843750Y-120025000D03*
%TD*%
D13*
%TO.C,K2:10*%
X292893750Y-123825000D03*
D14*
X287893750Y-128975000D03*
D12*
X287393750Y-123825000D03*
X298393750Y-123825000D03*
D15*
X292893750Y-117925000D03*
X297893750Y-120025000D03*
%TD*%
D13*
%TO.C,K2:11*%
X311943750Y-123825000D03*
D14*
X306943750Y-128975000D03*
D12*
X317443750Y-123825000D03*
X306443750Y-123825000D03*
D15*
X311943750Y-117925000D03*
X316943750Y-120025000D03*
%TD*%
D12*
%TO.C,K2:13*%
X354068750Y-123825000D03*
X365068750Y-123825000D03*
D13*
X359568750Y-123825000D03*
D14*
X354568750Y-128975000D03*
D15*
X359568750Y-117925000D03*
X364568750Y-120025000D03*
%TD*%
D12*
%TO.C,K3:0*%
X41218750Y-104775000D03*
X30218750Y-104775000D03*
D13*
X35718750Y-104775000D03*
D14*
X30718750Y-109925000D03*
D15*
X35718750Y-98875000D03*
X40718750Y-100975000D03*
%TD*%
D14*
%TO.C,K3:1*%
X61675000Y-109925000D03*
D12*
X72175000Y-104775000D03*
X61175000Y-104775000D03*
D13*
X66675000Y-104775000D03*
D15*
X66675000Y-98875000D03*
X71675000Y-100975000D03*
%TD*%
D12*
%TO.C,K3:2*%
X87368750Y-104775000D03*
D14*
X87868750Y-109925000D03*
D13*
X92868750Y-104775000D03*
D12*
X98368750Y-104775000D03*
D15*
X92868750Y-98875000D03*
X97868750Y-100975000D03*
%TD*%
D14*
%TO.C,K3:3*%
X106918750Y-109925000D03*
D12*
X117418750Y-104775000D03*
D13*
X111918750Y-104775000D03*
D12*
X106418750Y-104775000D03*
D15*
X111918750Y-98875000D03*
X116918750Y-100975000D03*
%TD*%
D14*
%TO.C,K3:4*%
X125968750Y-109925000D03*
D12*
X125468750Y-104775000D03*
X136468750Y-104775000D03*
D13*
X130968750Y-104775000D03*
D15*
X130968750Y-98875000D03*
X135968750Y-100975000D03*
%TD*%
D12*
%TO.C,K3:5*%
X155518750Y-104775000D03*
D14*
X145018750Y-109925000D03*
D12*
X144518750Y-104775000D03*
D13*
X150018750Y-104775000D03*
D15*
X150018750Y-98875000D03*
X155018750Y-100975000D03*
%TD*%
D13*
%TO.C,K3:6*%
X169068750Y-104775000D03*
D12*
X163568750Y-104775000D03*
D14*
X164068750Y-109925000D03*
D12*
X174568750Y-104775000D03*
D15*
X169068750Y-98875000D03*
X174068750Y-100975000D03*
%TD*%
D12*
%TO.C,K3:7*%
X230243750Y-104775000D03*
X241243750Y-104775000D03*
D14*
X230743750Y-109925000D03*
D13*
X235743750Y-104775000D03*
D15*
X235743750Y-98875000D03*
X240743750Y-100975000D03*
%TD*%
D14*
%TO.C,K3:8*%
X249793750Y-109925000D03*
D12*
X249293750Y-104775000D03*
X260293750Y-104775000D03*
D13*
X254793750Y-104775000D03*
D15*
X254793750Y-98875000D03*
X259793750Y-100975000D03*
%TD*%
D13*
%TO.C,K3:9*%
X273843750Y-104775000D03*
D12*
X268343750Y-104775000D03*
D14*
X268843750Y-109925000D03*
D12*
X279343750Y-104775000D03*
D15*
X273843750Y-98875000D03*
X278843750Y-100975000D03*
%TD*%
D12*
%TO.C,K3:10*%
X298393750Y-104775000D03*
D13*
X292893750Y-104775000D03*
D14*
X287893750Y-109925000D03*
D12*
X287393750Y-104775000D03*
D15*
X292893750Y-98875000D03*
X297893750Y-100975000D03*
%TD*%
D14*
%TO.C,K3:11*%
X306943750Y-109925000D03*
D12*
X317443750Y-104775000D03*
X306443750Y-104775000D03*
D13*
X311943750Y-104775000D03*
D15*
X311943750Y-98875000D03*
X316943750Y-100975000D03*
%TD*%
D14*
%TO.C,K3:12*%
X325993750Y-109925000D03*
D12*
X325493750Y-104775000D03*
D13*
X330993750Y-104775000D03*
D12*
X336493750Y-104775000D03*
D15*
X330993750Y-98875000D03*
X335993750Y-100975000D03*
%TD*%
D12*
%TO.C,K3:13*%
X356450000Y-104775000D03*
D14*
X356950000Y-109925000D03*
D13*
X361950000Y-104775000D03*
D12*
X367450000Y-104775000D03*
D15*
X361950000Y-98875000D03*
X366950000Y-100975000D03*
%TD*%
D12*
%TO.C,K4:0*%
X34981250Y-85725000D03*
D14*
X35481250Y-90875000D03*
D13*
X40481250Y-85725000D03*
D12*
X45981250Y-85725000D03*
D15*
X40481250Y-79825000D03*
X45481250Y-81925000D03*
%TD*%
D12*
%TO.C,K4:1*%
X74556250Y-85725000D03*
D13*
X69056250Y-85725000D03*
D12*
X63556250Y-85725000D03*
D14*
X64056250Y-90875000D03*
D15*
X69056250Y-79825000D03*
X74056250Y-81925000D03*
%TD*%
D12*
%TO.C,K4:2*%
X98368750Y-85725000D03*
X87368750Y-85725000D03*
D14*
X87868750Y-90875000D03*
D13*
X92868750Y-85725000D03*
D15*
X92868750Y-79825000D03*
X97868750Y-81925000D03*
%TD*%
D12*
%TO.C,K4:3*%
X117418750Y-85725000D03*
D14*
X106918750Y-90875000D03*
D12*
X106418750Y-85725000D03*
D13*
X111918750Y-85725000D03*
D15*
X111918750Y-79825000D03*
X116918750Y-81925000D03*
%TD*%
D14*
%TO.C,K4:4*%
X125968750Y-90875000D03*
D12*
X136468750Y-85725000D03*
X125468750Y-85725000D03*
D13*
X130968750Y-85725000D03*
D15*
X130968750Y-79825000D03*
X135968750Y-81925000D03*
%TD*%
D12*
%TO.C,K4:5*%
X155518750Y-85725000D03*
D14*
X145018750Y-90875000D03*
D12*
X144518750Y-85725000D03*
D13*
X150018750Y-85725000D03*
D15*
X150018750Y-79825000D03*
X155018750Y-81925000D03*
%TD*%
D12*
%TO.C,K4:6*%
X163568750Y-85725000D03*
D14*
X164068750Y-90875000D03*
D13*
X169068750Y-85725000D03*
D12*
X174568750Y-85725000D03*
D15*
X169068750Y-79825000D03*
X174068750Y-81925000D03*
%TD*%
D14*
%TO.C,K4:7*%
X230743750Y-90875000D03*
D12*
X230243750Y-85725000D03*
X241243750Y-85725000D03*
D13*
X235743750Y-85725000D03*
D15*
X235743750Y-79825000D03*
X240743750Y-81925000D03*
%TD*%
D13*
%TO.C,K4:8*%
X254793750Y-85725000D03*
D12*
X260293750Y-85725000D03*
X249293750Y-85725000D03*
D14*
X249793750Y-90875000D03*
D15*
X254793750Y-79825000D03*
X259793750Y-81925000D03*
%TD*%
D12*
%TO.C,K4:9*%
X268343750Y-85725000D03*
X279343750Y-85725000D03*
D14*
X268843750Y-90875000D03*
D13*
X273843750Y-85725000D03*
D15*
X273843750Y-79825000D03*
X278843750Y-81925000D03*
%TD*%
D14*
%TO.C,K4:10*%
X287893750Y-90875000D03*
D13*
X292893750Y-85725000D03*
D12*
X287393750Y-85725000D03*
X298393750Y-85725000D03*
D15*
X292893750Y-79825000D03*
X297893750Y-81925000D03*
%TD*%
D13*
%TO.C,K4:11*%
X311943750Y-85725000D03*
D12*
X317443750Y-85725000D03*
X306443750Y-85725000D03*
D14*
X306943750Y-90875000D03*
D15*
X311943750Y-79825000D03*
X316943750Y-81925000D03*
%TD*%
D12*
%TO.C,K4:12*%
X341256250Y-85725000D03*
D13*
X335756250Y-85725000D03*
D14*
X330756250Y-90875000D03*
D12*
X330256250Y-85725000D03*
D15*
X335756250Y-79825000D03*
X340756250Y-81925000D03*
%TD*%
D12*
%TO.C,K4:13*%
X354068750Y-85725000D03*
X365068750Y-85725000D03*
D13*
X359568750Y-85725000D03*
D14*
X354568750Y-90875000D03*
D15*
X359568750Y-79825000D03*
X364568750Y-81925000D03*
%TD*%
D12*
%TO.C,K4:14*%
X373118750Y-85725000D03*
X384118750Y-85725000D03*
D14*
X373618750Y-90875000D03*
D13*
X378618750Y-85725000D03*
D15*
X378618750Y-79825000D03*
X383618750Y-81925000D03*
%TD*%
D12*
%TO.C,K5:0*%
X50743750Y-66675000D03*
X39743750Y-66675000D03*
D13*
X45243750Y-66675000D03*
D14*
X40243750Y-71825000D03*
D15*
X45243750Y-60775000D03*
X50243750Y-62875000D03*
%TD*%
D12*
%TO.C,K5:1*%
X74556250Y-66675000D03*
D13*
X69056250Y-66675000D03*
D12*
X63556250Y-66675000D03*
D14*
X64056250Y-71825000D03*
D15*
X69056250Y-60775000D03*
X74056250Y-62875000D03*
%TD*%
D13*
%TO.C,K5:2*%
X92868750Y-66675000D03*
D12*
X87368750Y-66675000D03*
X98368750Y-66675000D03*
D14*
X87868750Y-71825000D03*
D15*
X92868750Y-60775000D03*
X97868750Y-62875000D03*
%TD*%
D12*
%TO.C,K5:3*%
X117418750Y-66675000D03*
X106418750Y-66675000D03*
D13*
X111918750Y-66675000D03*
D14*
X106918750Y-71825000D03*
D15*
X111918750Y-60775000D03*
X116918750Y-62875000D03*
%TD*%
D12*
%TO.C,K5:4*%
X125468750Y-66675000D03*
D14*
X125968750Y-71825000D03*
D13*
X130968750Y-66675000D03*
D12*
X136468750Y-66675000D03*
D15*
X130968750Y-60775000D03*
X135968750Y-62875000D03*
%TD*%
D12*
%TO.C,K5:5*%
X155518750Y-66675000D03*
D13*
X150018750Y-66675000D03*
D12*
X144518750Y-66675000D03*
D14*
X145018750Y-71825000D03*
D15*
X150018750Y-60775000D03*
X155018750Y-62875000D03*
%TD*%
D14*
%TO.C,K5:6*%
X164068750Y-71825000D03*
D12*
X174568750Y-66675000D03*
D13*
X169068750Y-66675000D03*
D12*
X163568750Y-66675000D03*
D15*
X169068750Y-60775000D03*
X174068750Y-62875000D03*
%TD*%
D12*
%TO.C,K5:7*%
X230243750Y-66675000D03*
D14*
X230743750Y-71825000D03*
D13*
X235743750Y-66675000D03*
D12*
X241243750Y-66675000D03*
D15*
X235743750Y-60775000D03*
X240743750Y-62875000D03*
%TD*%
D12*
%TO.C,K5:8*%
X260293750Y-66675000D03*
X249293750Y-66675000D03*
D14*
X249793750Y-71825000D03*
D13*
X254793750Y-66675000D03*
D15*
X254793750Y-60775000D03*
X259793750Y-62875000D03*
%TD*%
D14*
%TO.C,K5:9*%
X268843750Y-71825000D03*
D13*
X273843750Y-66675000D03*
D12*
X279343750Y-66675000D03*
X268343750Y-66675000D03*
D15*
X273843750Y-60775000D03*
X278843750Y-62875000D03*
%TD*%
D12*
%TO.C,K5:10*%
X298393750Y-66675000D03*
X287393750Y-66675000D03*
D13*
X292893750Y-66675000D03*
D14*
X287893750Y-71825000D03*
D15*
X292893750Y-60775000D03*
X297893750Y-62875000D03*
%TD*%
D12*
%TO.C,K5:11*%
X317443750Y-66675000D03*
X306443750Y-66675000D03*
D14*
X306943750Y-71825000D03*
D13*
X311943750Y-66675000D03*
D15*
X311943750Y-60775000D03*
X316943750Y-62875000D03*
%TD*%
D12*
%TO.C,K5:12*%
X336493750Y-66675000D03*
X325493750Y-66675000D03*
D13*
X330993750Y-66675000D03*
D14*
X325993750Y-71825000D03*
D15*
X330993750Y-60775000D03*
X335993750Y-62875000D03*
%TD*%
D13*
%TO.C,K5:13*%
X350043750Y-66675000D03*
D12*
X344543750Y-66675000D03*
X355543750Y-66675000D03*
D14*
X345043750Y-71825000D03*
D15*
X350043750Y-60775000D03*
X355043750Y-62875000D03*
%TD*%
D13*
%TO.C,K5:14*%
X369093750Y-66675000D03*
D14*
X364093750Y-71825000D03*
D12*
X363593750Y-66675000D03*
X374593750Y-66675000D03*
D15*
X369093750Y-60775000D03*
X374093750Y-62875000D03*
%TD*%
D11*
%TO.C,RESET1*%
X190150000Y-111650000D03*
X196650000Y-111650000D03*
X196650000Y-107150000D03*
X190150000Y-107150000D03*
%TD*%
D14*
%TO.C,K2:1*%
X56912500Y-128975000D03*
D13*
X61912500Y-123825000D03*
D12*
X67412500Y-123825000D03*
X56412500Y-123825000D03*
D15*
X61912500Y-117925000D03*
X66912500Y-120025000D03*
%TD*%
D16*
%TO.C,USB1*%
X206720000Y-74472500D03*
X198080000Y-74472500D03*
D17*
X206720000Y-69112500D03*
D18*
X198080000Y-69112500D03*
%TD*%
D19*
X200900000Y-76100000D03*
X204500000Y-76700000D03*
D20*
X163800000Y-113100000D03*
X168100000Y-113100000D03*
X197700000Y-97500000D03*
X197400000Y-96400000D03*
D19*
X213200000Y-95400000D03*
X225000000Y-84400000D03*
X214200000Y-93200000D03*
X214200000Y-94600000D03*
X225500000Y-85700000D03*
X232200000Y-101200000D03*
X206400000Y-100000000D03*
X199800000Y-91800000D03*
X199700000Y-97500000D03*
X203800000Y-101600000D03*
X201000000Y-139600000D03*
X202800000Y-132400000D03*
X204400000Y-103600000D03*
X202400000Y-127400000D03*
X204800000Y-105800000D03*
X200400000Y-121000000D03*
X202800000Y-101600000D03*
X209000000Y-96200000D03*
X208600000Y-90400000D03*
X202200000Y-98800000D03*
X207400000Y-89000000D03*
X197600000Y-91800000D03*
X203800000Y-88600000D03*
X209200000Y-77300000D03*
X203400000Y-76200000D03*
X201639456Y-74143143D03*
X199500000Y-77900000D03*
X201900000Y-75500000D03*
X202600000Y-74200000D03*
X202900000Y-75700000D03*
X203700000Y-82100000D03*
M02*
