%TF.GenerationSoftware,KiCad,Pcbnew,(6.0.10)*%
%TF.CreationDate,2023-02-11T23:58:45+13:00*%
%TF.ProjectId,orthoCode,6f727468-6f43-46f6-9465-2e6b69636164,rev?*%
%TF.SameCoordinates,Original*%
%TF.FileFunction,Paste,Top*%
%TF.FilePolarity,Positive*%
%FSLAX46Y46*%
G04 Gerber Fmt 4.6, Leading zero omitted, Abs format (unit mm)*
G04 Created by KiCad (PCBNEW (6.0.10)) date 2023-02-11 23:58:45*
%MOMM*%
%LPD*%
G01*
G04 APERTURE LIST*
G04 Aperture macros list*
%AMRoundRect*
0 Rectangle with rounded corners*
0 $1 Rounding radius*
0 $2 $3 $4 $5 $6 $7 $8 $9 X,Y pos of 4 corners*
0 Add a 4 corners polygon primitive as box body*
4,1,4,$2,$3,$4,$5,$6,$7,$8,$9,$2,$3,0*
0 Add four circle primitives for the rounded corners*
1,1,$1+$1,$2,$3*
1,1,$1+$1,$4,$5*
1,1,$1+$1,$6,$7*
1,1,$1+$1,$8,$9*
0 Add four rect primitives between the rounded corners*
20,1,$1+$1,$2,$3,$4,$5,0*
20,1,$1+$1,$4,$5,$6,$7,0*
20,1,$1+$1,$6,$7,$8,$9,0*
20,1,$1+$1,$8,$9,$2,$3,0*%
%AMRotRect*
0 Rectangle, with rotation*
0 The origin of the aperture is its center*
0 $1 length*
0 $2 width*
0 $3 Rotation angle, in degrees counterclockwise*
0 Add horizontal line*
21,1,$1,$2,0,0,$3*%
G04 Aperture macros list end*
%ADD10RoundRect,0.250000X0.250000X0.475000X-0.250000X0.475000X-0.250000X-0.475000X0.250000X-0.475000X0*%
%ADD11R,0.450000X0.600000*%
%ADD12RoundRect,0.250000X-0.250000X-0.475000X0.250000X-0.475000X0.250000X0.475000X-0.250000X0.475000X0*%
%ADD13RoundRect,0.250000X0.450000X-0.262500X0.450000X0.262500X-0.450000X0.262500X-0.450000X-0.262500X0*%
%ADD14RoundRect,0.250000X0.262500X0.450000X-0.262500X0.450000X-0.262500X-0.450000X0.262500X-0.450000X0*%
%ADD15RoundRect,0.250000X-0.262500X-0.450000X0.262500X-0.450000X0.262500X0.450000X-0.262500X0.450000X0*%
%ADD16R,0.300000X0.700000*%
%ADD17R,1.000000X0.700000*%
%ADD18RoundRect,0.250000X0.475000X-0.250000X0.475000X0.250000X-0.475000X0.250000X-0.475000X-0.250000X0*%
%ADD19RoundRect,0.250000X-0.275000X0.275000X-0.275000X-0.275000X0.275000X-0.275000X0.275000X0.275000X0*%
%ADD20RoundRect,0.062500X-0.062500X0.475000X-0.062500X-0.475000X0.062500X-0.475000X0.062500X0.475000X0*%
%ADD21RoundRect,0.062500X-0.475000X0.062500X-0.475000X-0.062500X0.475000X-0.062500X0.475000X0.062500X0*%
%ADD22RotRect,1.400000X1.200000X45.000000*%
%ADD23RoundRect,0.250000X-0.475000X0.250000X-0.475000X-0.250000X0.475000X-0.250000X0.475000X0.250000X0*%
G04 APERTURE END LIST*
D10*
%TO.C,C1*%
X195200000Y-98000000D03*
X193300000Y-98000000D03*
%TD*%
%TO.C,C2*%
X195200000Y-90250000D03*
X193300000Y-90250000D03*
%TD*%
D11*
%TO.C,D1:8*%
X202800000Y-141350000D03*
X202800000Y-143450000D03*
%TD*%
%TO.C,D1:1*%
X187400000Y-141350000D03*
X187400000Y-143450000D03*
%TD*%
%TO.C,D1:2*%
X189600000Y-141350000D03*
X189600000Y-143450000D03*
%TD*%
%TO.C,D1:3*%
X191800000Y-141350000D03*
X191800000Y-143450000D03*
%TD*%
%TO.C,D1:4*%
X194000000Y-141350000D03*
X194000000Y-143450000D03*
%TD*%
%TO.C,D1:5*%
X196200000Y-141350000D03*
X196200000Y-143450000D03*
%TD*%
%TO.C,D1:6*%
X198400000Y-141350000D03*
X198400000Y-143450000D03*
%TD*%
%TO.C,D1:7*%
X200600000Y-141350000D03*
X200600000Y-143450000D03*
%TD*%
%TO.C,D1:9*%
X216000000Y-141350000D03*
X216000000Y-143450000D03*
%TD*%
%TO.C,D1:10*%
X213800000Y-141350000D03*
X213800000Y-143450000D03*
%TD*%
%TO.C,D1:11*%
X211600000Y-141350000D03*
X211600000Y-143450000D03*
%TD*%
%TO.C,D1:12*%
X209400000Y-141350000D03*
X209400000Y-143450000D03*
%TD*%
%TO.C,D1:13*%
X207200000Y-141350000D03*
X207200000Y-143450000D03*
%TD*%
%TO.C,D1:14*%
X205000000Y-141350000D03*
X205000000Y-143450000D03*
%TD*%
%TO.C,D2:1*%
X200600000Y-134950000D03*
X200600000Y-137050000D03*
%TD*%
%TO.C,D2:2*%
X198400000Y-134950000D03*
X198400000Y-137050000D03*
%TD*%
%TO.C,D2:3*%
X196200000Y-134950000D03*
X196200000Y-137050000D03*
%TD*%
%TO.C,D2:4*%
X194000000Y-134950000D03*
X194000000Y-137050000D03*
%TD*%
%TO.C,D2:5*%
X191800000Y-134950000D03*
X191800000Y-137050000D03*
%TD*%
%TO.C,D2:6*%
X189600000Y-134950000D03*
X189600000Y-137050000D03*
%TD*%
%TO.C,D2:7*%
X213800000Y-134950000D03*
X213800000Y-137050000D03*
%TD*%
%TO.C,D2:8*%
X211600000Y-134950000D03*
X211600000Y-137050000D03*
%TD*%
%TO.C,D2:9*%
X209400000Y-134950000D03*
X209400000Y-137050000D03*
%TD*%
%TO.C,D2:10*%
X207200000Y-134950000D03*
X207200000Y-137050000D03*
%TD*%
%TO.C,D2:11*%
X205000000Y-134950000D03*
X205000000Y-137050000D03*
%TD*%
%TO.C,D2:13*%
X202800000Y-137050000D03*
X202800000Y-134950000D03*
%TD*%
%TO.C,D3:0*%
X187400000Y-130850000D03*
X187400000Y-128750000D03*
%TD*%
%TO.C,D3:1*%
X189600000Y-130850000D03*
X189600000Y-128750000D03*
%TD*%
%TO.C,D3:2*%
X191800000Y-130850000D03*
X191800000Y-128750000D03*
%TD*%
%TO.C,D3:3*%
X194000000Y-130850000D03*
X194000000Y-128750000D03*
%TD*%
%TO.C,D3:4*%
X196200000Y-130850000D03*
X196200000Y-128750000D03*
%TD*%
%TO.C,D3:5*%
X198400000Y-130850000D03*
X198400000Y-128750000D03*
%TD*%
%TO.C,D3:6*%
X200600000Y-130850000D03*
X200600000Y-128750000D03*
%TD*%
%TO.C,D3:7*%
X202800000Y-130850000D03*
X202800000Y-128750000D03*
%TD*%
%TO.C,D3:8*%
X205000000Y-130850000D03*
X205000000Y-128750000D03*
%TD*%
%TO.C,D3:9*%
X207200000Y-130850000D03*
X207200000Y-128750000D03*
%TD*%
%TO.C,D3:10*%
X209400000Y-128750000D03*
X209400000Y-130850000D03*
%TD*%
%TO.C,D3:11*%
X211600000Y-130850000D03*
X211600000Y-128750000D03*
%TD*%
%TO.C,D3:12*%
X213800000Y-130850000D03*
X213800000Y-128750000D03*
%TD*%
%TO.C,D3:13*%
X216000000Y-130850000D03*
X216000000Y-128750000D03*
%TD*%
%TO.C,D4:0*%
X187400000Y-124850000D03*
X187400000Y-122750000D03*
%TD*%
%TO.C,D4:1*%
X189600000Y-122750000D03*
X189600000Y-124850000D03*
%TD*%
%TO.C,D4:2*%
X191800000Y-124850000D03*
X191800000Y-122750000D03*
%TD*%
%TO.C,D4:3*%
X194000000Y-124850000D03*
X194000000Y-122750000D03*
%TD*%
%TO.C,D4:4*%
X196200000Y-124850000D03*
X196200000Y-122750000D03*
%TD*%
%TO.C,D4:5*%
X198400000Y-124850000D03*
X198400000Y-122750000D03*
%TD*%
%TO.C,D4:6*%
X200600000Y-124850000D03*
X200600000Y-122750000D03*
%TD*%
%TO.C,D4:7*%
X202800000Y-124850000D03*
X202800000Y-122750000D03*
%TD*%
%TO.C,D4:8*%
X205000000Y-124850000D03*
X205000000Y-122750000D03*
%TD*%
%TO.C,D4:9*%
X207200000Y-124850000D03*
X207200000Y-122750000D03*
%TD*%
%TO.C,D4:10*%
X209400000Y-124850000D03*
X209400000Y-122750000D03*
%TD*%
%TO.C,D4:11*%
X211600000Y-124850000D03*
X211600000Y-122750000D03*
%TD*%
%TO.C,D4:12*%
X213800000Y-124850000D03*
X213800000Y-122750000D03*
%TD*%
%TO.C,D4:13*%
X216000000Y-124850000D03*
X216000000Y-122750000D03*
%TD*%
%TO.C,D4:14*%
X218200000Y-124850000D03*
X218200000Y-122750000D03*
%TD*%
%TO.C,D5:0*%
X187400000Y-118450000D03*
X187400000Y-116350000D03*
%TD*%
%TO.C,D5:1*%
X189600000Y-118450000D03*
X189600000Y-116350000D03*
%TD*%
%TO.C,D5:2*%
X191800000Y-118450000D03*
X191800000Y-116350000D03*
%TD*%
%TO.C,D5:3*%
X194000000Y-118450000D03*
X194000000Y-116350000D03*
%TD*%
%TO.C,D5:4*%
X196200000Y-118450000D03*
X196200000Y-116350000D03*
%TD*%
%TO.C,D5:5*%
X198400000Y-118450000D03*
X198400000Y-116350000D03*
%TD*%
%TO.C,D5:6*%
X200600000Y-118450000D03*
X200600000Y-116350000D03*
%TD*%
%TO.C,D5:7*%
X202800000Y-118450000D03*
X202800000Y-116350000D03*
%TD*%
%TO.C,D5:8*%
X205000000Y-118450000D03*
X205000000Y-116350000D03*
%TD*%
%TO.C,D5:9*%
X207200000Y-118450000D03*
X207200000Y-116350000D03*
%TD*%
%TO.C,D5:10*%
X209400000Y-118450000D03*
X209400000Y-116350000D03*
%TD*%
%TO.C,D5:11*%
X211600000Y-118450000D03*
X211600000Y-116350000D03*
%TD*%
%TO.C,D5:12*%
X213800000Y-118450000D03*
X213800000Y-116350000D03*
%TD*%
%TO.C,D5:13*%
X216000000Y-118450000D03*
X216000000Y-116350000D03*
%TD*%
%TO.C,D5:14*%
X218200000Y-118450000D03*
X218200000Y-116350000D03*
%TD*%
D12*
%TO.C,C4*%
X210300000Y-91062500D03*
X212200000Y-91062500D03*
%TD*%
%TO.C,C7*%
X207250000Y-87300000D03*
X209150000Y-87300000D03*
%TD*%
%TO.C,C3*%
X210300000Y-96812500D03*
X212200000Y-96812500D03*
%TD*%
D13*
%TO.C,R1*%
X209250000Y-81225000D03*
X209250000Y-79400000D03*
%TD*%
%TO.C,R2*%
X199500000Y-81225000D03*
X199500000Y-79400000D03*
%TD*%
%TO.C,R3*%
X206000000Y-85212500D03*
X206000000Y-83387500D03*
%TD*%
%TO.C,R4*%
X203900000Y-85212500D03*
X203900000Y-83387500D03*
%TD*%
D14*
%TO.C,R5*%
X207212500Y-80300000D03*
X205387500Y-80300000D03*
%TD*%
%TO.C,R7*%
X194312500Y-104000000D03*
X192487500Y-104000000D03*
%TD*%
D12*
%TO.C,C8*%
X202250000Y-87100000D03*
X204150000Y-87100000D03*
%TD*%
D15*
%TO.C,R8*%
X208887500Y-104200000D03*
X210712500Y-104200000D03*
%TD*%
D16*
%TO.C,USB1*%
X205400000Y-74882500D03*
X204900000Y-74882500D03*
X204400000Y-74882500D03*
X203900000Y-74882500D03*
X203400000Y-74882500D03*
X202900000Y-74882500D03*
X201900000Y-74882500D03*
X201400000Y-74882500D03*
X200900000Y-74882500D03*
X200400000Y-74882500D03*
X199900000Y-74882500D03*
X199400000Y-74882500D03*
D17*
X199300000Y-73582500D03*
D16*
X200150000Y-73582500D03*
X200650000Y-73582500D03*
X201150000Y-73582500D03*
X201650000Y-73582500D03*
X202150000Y-73582500D03*
X202650000Y-73582500D03*
X203150000Y-73582500D03*
X203650000Y-73582500D03*
X204150000Y-73582500D03*
X204650000Y-73582500D03*
D17*
X205500000Y-73582500D03*
%TD*%
D18*
%TO.C,C5*%
X198500000Y-90262500D03*
X198500000Y-88362500D03*
%TD*%
D19*
%TO.C,U2*%
X202400000Y-92012500D03*
X206300000Y-93312500D03*
X205000000Y-92012500D03*
X205000000Y-94612500D03*
X206300000Y-95912500D03*
X205000000Y-93312500D03*
X203700000Y-95912500D03*
X203700000Y-94612500D03*
X203700000Y-93312500D03*
X206300000Y-94612500D03*
X203700000Y-92012500D03*
X205000000Y-95912500D03*
X202400000Y-95912500D03*
X202400000Y-93312500D03*
X206300000Y-92012500D03*
X202400000Y-94612500D03*
D20*
X206850000Y-90625000D03*
X206350000Y-90625000D03*
X205850000Y-90625000D03*
X205350000Y-90625000D03*
X204850000Y-90625000D03*
X204350000Y-90625000D03*
X203850000Y-90625000D03*
X203350000Y-90625000D03*
X202850000Y-90625000D03*
X202350000Y-90625000D03*
X201850000Y-90625000D03*
D21*
X201012500Y-91462500D03*
X201012500Y-91962500D03*
X201012500Y-92462500D03*
X201012500Y-92962500D03*
X201012500Y-93462500D03*
X201012500Y-93962500D03*
X201012500Y-94462500D03*
X201012500Y-94962500D03*
X201012500Y-95462500D03*
X201012500Y-95962500D03*
X201012500Y-96462500D03*
D20*
X201850000Y-97300000D03*
X202350000Y-97300000D03*
X202850000Y-97300000D03*
X203350000Y-97300000D03*
X203850000Y-97300000D03*
X204350000Y-97300000D03*
X204850000Y-97300000D03*
X205350000Y-97300000D03*
X205850000Y-97300000D03*
X206350000Y-97300000D03*
X206850000Y-97300000D03*
D21*
X207687500Y-96462500D03*
X207687500Y-95962500D03*
X207687500Y-95462500D03*
X207687500Y-94962500D03*
X207687500Y-94462500D03*
X207687500Y-93962500D03*
X207687500Y-93462500D03*
X207687500Y-92962500D03*
X207687500Y-92462500D03*
X207687500Y-91962500D03*
X207687500Y-91462500D03*
%TD*%
D22*
%TO.C,X1*%
X194723223Y-95578858D03*
X196278858Y-94023223D03*
X195076777Y-92821142D03*
X193521142Y-94376777D03*
%TD*%
D23*
%TO.C,C6*%
X201800000Y-100450000D03*
X201800000Y-102350000D03*
%TD*%
M02*
