M48
; DRILL file {KiCad (6.0.10)} date Tue Jul  4 22:41:52 2023
; FORMAT={-:-/ absolute / inch / decimal}
; #@! TF.CreationDate,2023-07-04T22:41:52+12:00
; #@! TF.GenerationSoftware,Kicad,Pcbnew,(6.0.10)
; #@! TF.FileFunction,Plated,1,2,PTH
FMAT,2
INCH
; #@! TA.AperFunction,Plated,PTH,ViaDrill
T1C0.0157
; #@! TA.AperFunction,Plated,PTH,ComponentDrill
T2C0.0394
; #@! TA.AperFunction,Plated,PTH,ComponentDrill
T3C0.0430
; #@! TA.AperFunction,Plated,PTH,ComponentDrill
T4C0.0472
; #@! TA.AperFunction,Plated,PTH,ComponentDrill
T5C0.0630
; #@! TA.AperFunction,Plated,PTH,ComponentDrill
T6C0.1063
%
G90
G05
T1
X7.5787Y-5.2559
X7.6772Y-4.4882
X8.2283Y-4.0945
X8.878Y-3.6614
T2
X7.8248Y-4.1634
X7.8248Y-4.3406
X8.0807Y-4.1634
X8.0807Y-4.3406
T3
X7.6528Y-2.8747
X7.6528Y-2.9747
X7.6528Y-3.0747
X7.6528Y-3.1747
X7.6528Y-3.2747
X7.6528Y-3.3747
X7.6528Y-3.4747
X7.6528Y-3.5747
X7.6528Y-3.6747
X7.6528Y-3.7747
X7.6528Y-3.8747
X7.6528Y-3.9747
X7.7528Y-3.7747
X7.8528Y-3.7747
X7.9528Y-3.7747
X8.2528Y-2.8747
X8.2528Y-2.9747
X8.2528Y-3.0747
X8.2528Y-3.1747
X8.2528Y-3.2747
X8.2528Y-3.3747
X8.2528Y-3.4747
X8.2528Y-3.5747
X8.2528Y-3.6747
X8.2528Y-3.7747
X8.2528Y-3.8747
X8.2528Y-3.9747
T4
X1.4062Y-3.8927
X1.5938Y-3.1427
X1.6031Y-3.9754
X1.7812Y-2.3927
X1.7906Y-3.2254
X1.9781Y-2.4754
X2.4375Y-4.6427
X2.4375Y-5.3927
X2.625Y-3.8927
X2.6344Y-4.7254
X2.6344Y-5.4754
X2.7188Y-2.3927
X2.7188Y-3.1427
X2.8219Y-3.9754
X2.9156Y-2.4754
X2.9156Y-3.2254
X3.375Y-5.3927
X3.5719Y-5.4754
X3.6562Y-2.3927
X3.6562Y-3.1427
X3.6562Y-3.8927
X3.6562Y-4.6427
X3.8531Y-2.4754
X3.8531Y-3.2254
X3.8531Y-3.9754
X3.8531Y-4.7254
X4.3125Y-5.3927
X4.4062Y-2.3927
X4.4062Y-3.1427
X4.4062Y-3.8927
X4.4062Y-4.6427
X4.5094Y-5.4754
X4.6031Y-2.4754
X4.6031Y-3.2254
X4.6031Y-3.9754
X4.6031Y-4.7254
X5.1562Y-2.3927
X5.1562Y-3.1427
X5.1562Y-3.8927
X5.1562Y-4.6427
X5.3531Y-2.4754
X5.3531Y-3.2254
X5.3531Y-3.9754
X5.3531Y-4.7254
X5.625Y-5.3927
X5.8219Y-5.4754
X5.9062Y-2.3927
X5.9062Y-3.1427
X5.9062Y-3.8927
X5.9062Y-4.6427
X6.1031Y-2.4754
X6.1031Y-3.2254
X6.1031Y-3.9754
X6.1031Y-4.7254
X6.6561Y-6.6976
X6.6562Y-2.3927
X6.6562Y-3.1427
X6.6562Y-3.8927
X6.6562Y-4.6427
X6.7869Y-6.5289
X6.8531Y-2.4754
X6.8531Y-3.2254
X6.8531Y-3.9754
X6.8531Y-4.7254
X7.0881Y-6.5961
X7.2189Y-6.4274
X8.8205Y-6.8077
X8.8494Y-6.5961
X9.1506Y-6.5289
X9.1795Y-6.3173
X9.2812Y-2.3927
X9.2812Y-3.1427
X9.2812Y-3.8927
X9.2812Y-4.6427
X9.4781Y-2.4754
X9.4781Y-3.2254
X9.4781Y-3.9754
X9.4781Y-4.7254
X10.0312Y-2.3927
X10.0312Y-3.1427
X10.0312Y-3.8927
X10.0312Y-4.6427
X10.2281Y-2.4754
X10.2281Y-3.2254
X10.2281Y-3.9754
X10.2281Y-4.7254
X10.3125Y-5.3927
X10.5094Y-5.4754
X10.7812Y-2.3927
X10.7812Y-3.1427
X10.7812Y-3.8927
X10.7812Y-4.6427
X10.9781Y-2.4754
X10.9781Y-3.2254
X10.9781Y-3.9754
X10.9781Y-4.7254
X11.25Y-5.3927
X11.4469Y-5.4754
X11.5312Y-2.3927
X11.5312Y-3.1427
X11.5312Y-3.8927
X11.5312Y-4.6427
X11.7281Y-2.4754
X11.7281Y-3.2254
X11.7281Y-3.9754
X11.7281Y-4.7254
X12.1875Y-5.3927
X12.2812Y-2.3927
X12.2812Y-3.1427
X12.2812Y-3.8927
X12.2812Y-4.6427
X12.3844Y-5.4754
X12.4781Y-2.4754
X12.4781Y-3.2254
X12.4781Y-3.9754
X12.4781Y-4.7254
X13.0312Y-2.3927
X13.0312Y-3.8927
X13.2188Y-3.1427
X13.2281Y-2.4754
X13.2281Y-3.9754
X13.4062Y-5.3927
X13.4156Y-3.2254
X13.6031Y-5.4754
X13.7812Y-2.3927
X13.9781Y-2.4754
X14.1562Y-3.1427
X14.1562Y-4.6427
X14.1562Y-5.3927
X14.25Y-3.8927
X14.3531Y-3.2254
X14.3531Y-4.7254
X14.3531Y-5.4754
X14.4469Y-3.9754
X14.5312Y-2.3927
X14.7281Y-2.4754
X14.9062Y-3.1427
X14.9062Y-5.3927
X15.1031Y-3.2254
X15.1031Y-5.4754
T5
X1.2094Y-4.3278
X1.3969Y-3.5778
X1.5844Y-2.8278
X2.2406Y-5.0778
X2.2406Y-5.8278
X2.4281Y-4.3278
X2.5219Y-2.8278
X2.5219Y-3.5778
X3.1781Y-5.8278
X3.4594Y-2.8278
X3.4594Y-3.5778
X3.4594Y-4.3278
X3.4594Y-5.0778
X4.1156Y-5.8278
X4.2094Y-2.8278
X4.2094Y-3.5778
X4.2094Y-4.3278
X4.2094Y-5.0778
X4.9594Y-2.8278
X4.9594Y-3.5778
X4.9594Y-4.3278
X4.9594Y-5.0778
X5.4281Y-5.8278
X5.7094Y-2.8278
X5.7094Y-3.5778
X5.7094Y-4.3278
X5.7094Y-5.0778
X6.4176Y-6.2261
X6.4594Y-2.8278
X6.4594Y-3.5778
X6.4594Y-4.3278
X6.4594Y-5.0778
X7.4574Y-6.8989
X8.3782Y-6.5186
X9.0844Y-2.8278
X9.0844Y-3.5778
X9.0844Y-4.3278
X9.0844Y-5.0778
X9.6218Y-6.6064
X9.8344Y-2.8278
X9.8344Y-3.5778
X9.8344Y-4.3278
X9.8344Y-5.0778
X10.1156Y-5.8278
X10.5844Y-2.8278
X10.5844Y-3.5778
X10.5844Y-4.3278
X10.5844Y-5.0778
X11.0531Y-5.8278
X11.3344Y-2.8278
X11.3344Y-3.5778
X11.3344Y-4.3278
X11.3344Y-5.0778
X11.9906Y-5.8278
X12.0844Y-2.8278
X12.0844Y-3.5778
X12.0844Y-4.3278
X12.0844Y-5.0778
X12.8344Y-2.8278
X12.8344Y-4.3278
X13.0219Y-3.5778
X13.2094Y-5.8278
X13.5844Y-2.8278
X13.9594Y-3.5778
X13.9594Y-5.0778
X13.9594Y-5.8278
X14.0531Y-4.3278
X14.3344Y-2.8278
X14.7094Y-3.5778
X14.7094Y-5.8278
T6
X1.2205Y-2.4409
X1.2205Y-5.7874
X4.9606Y-5.7874
X6.4173Y-7.2047
X7.1063Y-2.4409
X7.2835Y-4.626
X7.2835Y-5.6102
X8.6614Y-4.626
X8.6614Y-5.6102
X8.8386Y-2.4409
X9.5276Y-7.2047
X10.7874Y-5.7874
X15.1181Y-5.0394
X15.1575Y-2.4409
T0
M30
