%TF.GenerationSoftware,KiCad,Pcbnew,(6.0.10)*%
%TF.CreationDate,2023-07-04T22:41:52+12:00*%
%TF.ProjectId,orthoCode,6f727468-6f43-46f6-9465-2e6b69636164,rev?*%
%TF.SameCoordinates,Original*%
%TF.FileFunction,Paste,Bot*%
%TF.FilePolarity,Positive*%
%FSLAX46Y46*%
G04 Gerber Fmt 4.6, Leading zero omitted, Abs format (unit mm)*
G04 Created by KiCad (PCBNEW (6.0.10)) date 2023-07-04 22:41:52*
%MOMM*%
%LPD*%
G01*
G04 APERTURE LIST*
%ADD10R,0.450000X0.600000*%
G04 APERTURE END LIST*
D10*
%TO.C,D1:8*%
X237500000Y-177050000D03*
X237500000Y-174950000D03*
%TD*%
%TO.C,D1:1*%
X70000000Y-150550000D03*
X70000000Y-148450000D03*
%TD*%
%TO.C,D1:2*%
X94000000Y-150550000D03*
X94000000Y-148450000D03*
%TD*%
%TO.C,D1:3*%
X118000000Y-150550000D03*
X118000000Y-148450000D03*
%TD*%
%TO.C,D1:4*%
X151000000Y-150550000D03*
X151000000Y-148450000D03*
%TD*%
%TO.C,D1:5*%
X162500000Y-175050000D03*
X162500000Y-172950000D03*
%TD*%
%TO.C,D1:6*%
X180500000Y-178050000D03*
X180500000Y-175950000D03*
%TD*%
%TO.C,D1:7*%
X226000000Y-179550000D03*
X226000000Y-177450000D03*
%TD*%
%TO.C,D1:9*%
X270000000Y-150550000D03*
X270000000Y-148450000D03*
%TD*%
%TO.C,D1:10*%
X294000000Y-150550000D03*
X294000000Y-148450000D03*
%TD*%
%TO.C,D1:11*%
X317500000Y-150550000D03*
X317500000Y-148450000D03*
%TD*%
%TO.C,D1:12*%
X348500000Y-150550000D03*
X348500000Y-148450000D03*
%TD*%
%TO.C,D1:13*%
X367500000Y-150550000D03*
X367500000Y-148450000D03*
%TD*%
%TO.C,D1:14*%
X386500000Y-150550000D03*
X386500000Y-148450000D03*
%TD*%
%TO.C,D2:1*%
X70000000Y-131550000D03*
X70000000Y-129450000D03*
%TD*%
%TO.C,D2:2*%
X101000000Y-131550000D03*
X101000000Y-129450000D03*
%TD*%
%TO.C,D2:3*%
X120000000Y-131550000D03*
X120000000Y-129450000D03*
%TD*%
%TO.C,D2:4*%
X139000000Y-131550000D03*
X139000000Y-129450000D03*
%TD*%
%TO.C,D2:5*%
X158000000Y-131550000D03*
X158000000Y-129450000D03*
%TD*%
%TO.C,D2:6*%
X177000000Y-131550000D03*
X177000000Y-129450000D03*
%TD*%
%TO.C,D2:7*%
X243500000Y-131550000D03*
X243500000Y-129450000D03*
%TD*%
%TO.C,D2:8*%
X263000000Y-131550000D03*
X263000000Y-129450000D03*
%TD*%
%TO.C,D2:9*%
X282000000Y-131550000D03*
X282000000Y-129450000D03*
%TD*%
%TO.C,D2:10*%
X301000000Y-131550000D03*
X301000000Y-129450000D03*
%TD*%
%TO.C,D2:11*%
X320000000Y-131550000D03*
X320000000Y-129450000D03*
%TD*%
%TO.C,D2:13*%
X367500000Y-131550000D03*
X367500000Y-129450000D03*
%TD*%
%TO.C,D3:0*%
X44000000Y-112550000D03*
X44000000Y-110450000D03*
%TD*%
%TO.C,D3:1*%
X75000000Y-112550000D03*
X75000000Y-110450000D03*
%TD*%
%TO.C,D3:2*%
X101000000Y-112550000D03*
X101000000Y-110450000D03*
%TD*%
%TO.C,D3:3*%
X120000000Y-112550000D03*
X120000000Y-110450000D03*
%TD*%
%TO.C,D3:4*%
X139000000Y-112550000D03*
X139000000Y-110450000D03*
%TD*%
%TO.C,D3:5*%
X158000000Y-112550000D03*
X158000000Y-110450000D03*
%TD*%
%TO.C,D3:6*%
X177000000Y-112550000D03*
X177000000Y-110450000D03*
%TD*%
%TO.C,D3:7*%
X244000000Y-112550000D03*
X244000000Y-110450000D03*
%TD*%
%TO.C,D3:8*%
X262500000Y-112550000D03*
X262500000Y-110450000D03*
%TD*%
%TO.C,D3:9*%
X281500000Y-112550000D03*
X281500000Y-110450000D03*
%TD*%
%TO.C,D3:10*%
X301000000Y-112550000D03*
X301000000Y-110450000D03*
%TD*%
%TO.C,D3:11*%
X320000000Y-112550000D03*
X320000000Y-110450000D03*
%TD*%
%TO.C,D3:12*%
X339000000Y-112550000D03*
X339000000Y-110450000D03*
%TD*%
%TO.C,D3:13*%
X370000000Y-112550000D03*
X370000000Y-110450000D03*
%TD*%
%TO.C,D4:0*%
X49000000Y-93550000D03*
X49000000Y-91450000D03*
%TD*%
%TO.C,D4:1*%
X77000000Y-93550000D03*
X77000000Y-91450000D03*
%TD*%
%TO.C,D4:2*%
X101000000Y-93550000D03*
X101000000Y-91450000D03*
%TD*%
%TO.C,D4:3*%
X120000000Y-93550000D03*
X120000000Y-91450000D03*
%TD*%
%TO.C,D4:4*%
X139000000Y-93550000D03*
X139000000Y-91450000D03*
%TD*%
%TO.C,D4:5*%
X158000000Y-93550000D03*
X158000000Y-91450000D03*
%TD*%
%TO.C,D4:6*%
X176500000Y-93550000D03*
X176500000Y-91450000D03*
%TD*%
%TO.C,D4:7*%
X244000000Y-93050000D03*
X244000000Y-90950000D03*
%TD*%
%TO.C,D4:8*%
X263000000Y-93050000D03*
X263000000Y-90950000D03*
%TD*%
%TO.C,D4:9*%
X282000000Y-93050000D03*
X282000000Y-90950000D03*
%TD*%
%TO.C,D4:10*%
X301000000Y-93050000D03*
X301000000Y-90950000D03*
%TD*%
%TO.C,D4:11*%
X320000000Y-93050000D03*
X320000000Y-90950000D03*
%TD*%
%TO.C,D4:12*%
X344000000Y-93050000D03*
X344000000Y-90950000D03*
%TD*%
%TO.C,D4:13*%
X367500000Y-93050000D03*
X367500000Y-90950000D03*
%TD*%
%TO.C,D4:14*%
X386500000Y-93050000D03*
X386500000Y-90950000D03*
%TD*%
%TO.C,D5:0*%
X53500000Y-74050000D03*
X53500000Y-71950000D03*
%TD*%
%TO.C,D5:1*%
X77500000Y-74050000D03*
X77500000Y-71950000D03*
%TD*%
%TO.C,D5:2*%
X101000000Y-74050000D03*
X101000000Y-71950000D03*
%TD*%
%TO.C,D5:3*%
X120000000Y-74050000D03*
X120000000Y-71950000D03*
%TD*%
%TO.C,D5:4*%
X139000000Y-74050000D03*
X139000000Y-71950000D03*
%TD*%
%TO.C,D5:5*%
X158000000Y-74050000D03*
X158000000Y-71950000D03*
%TD*%
%TO.C,D5:6*%
X177000000Y-74050000D03*
X177000000Y-71950000D03*
%TD*%
%TO.C,D5:7*%
X244000000Y-74050000D03*
X244000000Y-71950000D03*
%TD*%
%TO.C,D5:8*%
X263000000Y-74050000D03*
X263000000Y-71950000D03*
%TD*%
%TO.C,D5:9*%
X282000000Y-74050000D03*
X282000000Y-71950000D03*
%TD*%
%TO.C,D5:10*%
X301000000Y-74050000D03*
X301000000Y-71950000D03*
%TD*%
%TO.C,D5:11*%
X320000000Y-74050000D03*
X320000000Y-71950000D03*
%TD*%
%TO.C,D5:12*%
X339000000Y-74050000D03*
X339000000Y-71950000D03*
%TD*%
%TO.C,D5:13*%
X358000000Y-74050000D03*
X358000000Y-71950000D03*
%TD*%
%TO.C,D5:14*%
X377000000Y-74050000D03*
X377000000Y-71950000D03*
%TD*%
M02*
